0
SECTION
2
HEADER
9
$INSUNITS
70
4
9
$ACADVER
1
AC1014
9
$HANDSEED
5
FFFF
0
ENDSEC
0
SECTION
2
TABLES
0
TABLE
2
VPORT
5
8
100
AcDbSymbolTable
0
ENDTAB
0
TABLE
2
LTYPE
5
5
100
AcDbSymbolTable
0
LTYPE
5
14
100
AcDbSymbolTableRecord
100
AcDbLinetypeTableRecord
2
BYBLOCK
70
0
0
LTYPE
5
15
100
AcDbSymbolTableRecord
100
AcDbLinetypeTableRecord
2
BYLAYER
70
0
0
ENDTAB
0
TABLE
2
LAYER
5
2
100
AcDbSymbolTable
70
2
0
LAYER
5
50
100
AcDbSymbolTableRecord
100
AcDbLayerTableRecord
2
0
70
0
6
CONTINUOUS
0
ENDTAB
0
TABLE
2
STYLE
5
3
100
AcDbSymbolTable
70
1
0
STYLE
5
11
100
AcDbSymbolTableRecord
100
AcDbTextStyleTableRecord
2
STANDARD
70
0
0
ENDTAB
0
TABLE
2
VIEW
5
6
100
AcDbSymbolTable
70
0
0
ENDTAB
0
TABLE
2
UCS
5
7
100
AcDbSymbolTable
70
0
0
ENDTAB
0
TABLE
2
APPID
5
9
100
AcDbSymbolTable
70
2
0
APPID
5
12
100
AcDbSymbolTableRecord
100
AcDbRegAppTableRecord
2
ACAD
70
0
0
ENDTAB
0
TABLE
2
DIMSTYLE
5
A
100
AcDbSymbolTable
70
1
0
ENDTAB
0
TABLE
2
BLOCK_RECORD
5
1
100
AcDbSymbolTable
70
1
0
BLOCK_RECORD
5
1F
100
AcDbSymbolTableRecord
100
AcDbBlockTableRecord
2
*MODEL_SPACE
0
BLOCK_RECORD
5
1B
100
AcDbSymbolTableRecord
100
AcDbBlockTableRecord
2
*PAPER_SPACE
0
ENDTAB
0
ENDSEC
0
SECTION
2
BLOCKS
0
BLOCK
5
20
100
AcDbEntity
100
AcDbBlockBegin
2
*MODEL_SPACE
0
ENDBLK
5
21
100
AcDbEntity
100
AcDbBlockEnd
0
BLOCK
5
1C
100
AcDbEntity
100
AcDbBlockBegin
2
*PAPER_SPACE
0
ENDBLK
5
1D
100
AcDbEntity
100
AcDbBlockEnd
0
ENDSEC
0
SECTION
2
ENTITIES
0
LWPOLYLINE
5
100
100
AcDbEntity
8
0
100
AcDbPolyline
90
8
70
1
43
0.0
10
-43.000000000000007
20
-11
42
0.41421356237309459
10
-39
20
-15.000000000000007
10
56
20
-15
42
0.41421356237309492
10
60
20
-11
10
60
20
34
42
0.4142135623730947
10
56
20
38
10
-39
20
38
42
0.41421356237309404
10
-43.000000000000007
20
34
0
CIRCLE
5
101
100
AcDbEntity
8
0
100
AcDbCircle
10
-39.010000000000005
20
-11
30
0
40
2.0955000000000013
210
0
220
0
230
1
0
CIRCLE
5
102
100
AcDbEntity
8
0
100
AcDbCircle
10
56.010000000000005
20
-10.999999999999996
30
0
40
2.0955000000000013
210
0
220
-0
230
1
0
CIRCLE
5
103
100
AcDbEntity
8
0
100
AcDbCircle
10
-39.010000000000005
20
34
30
0
40
2.0955000000000013
210
0
220
0
230
1
0
CIRCLE
5
104
100
AcDbEntity
8
0
100
AcDbCircle
10
56.010000000000005
20
34
30
0
40
2.0955000000000013
210
0
220
-0
230
1
0
CIRCLE
5
105
100
AcDbEntity
8
0
100
AcDbCircle
10
14.529548947089996
20
16.470000000000017
30
0
40
1.4700000000000024
210
0
220
-0
230
1
0
CIRCLE
5
106
100
AcDbEntity
8
0
100
AcDbCircle
10
-13.47000000000005
20
15.970000000000024
30
0
40
2.649999999999999
210
0
220
0
230
1
0
LWPOLYLINE
5
107
100
AcDbEntity
8
0
100
AcDbPolyline
90
2
70
1
43
0.0
10
-0.6462845989534638
20
27.329880914020066
10
5.2460089698091164
20
27.329880914020059
42
-4.2088937300509635
0
LWPOLYLINE
5
108
100
AcDbEntity
8
0
100
AcDbPolyline
90
2
70
1
43
0.0
10
24.3537154010466
20
27.329880914020066
10
30.246008969809157
20
27.329880914020062
42
-4.2088937300509839
0
LWPOLYLINE
5
109
100
AcDbEntity
8
0
100
AcDbPolyline
90
14
70
1
43
0.0
10
-7.2220993199999839
20
1.9278573900000182
10
-7.2220993199999928
20
3.3850000000000211
42
-0.41421356237309503
10
-6.3220993199999924
20
4.2850000000000241
10
-0.022099319999985403
20
4.2850000000000223
42
-0.41421356237309659
10
0.87790068000001398
20
3.3850000000000207
10
0.87790068000000898
20
1.9278573900000189
42
-0.15473268434361098
10
0.71348405506620971
20
1.4092852172735857
10
-0.021710407086288075
20
0.36642782491327081
42
-0.24385183469544497
10
-0.75729378292043747
20
-0.015000002360291281
10
-3.1670991414175913
20
-0.01499999899546507
10
-3.177099315619814
20
-0.015000008248540147
10
-5.586904859653897
20
-0.015000002360291906
42
-0.24385183393782309
10
-6.3224882329136864
20
0.36642782491327153
10
-7.057682695066184
20
1.4092852172735864
42
-0.1547326843436129
0
ENDSEC
0
SECTION
2
OBJECTS
0
DICTIONARY
5
C
100
AcDbDictionary
3
ACAD_GROUP
350
D
3
ACAD_MLINESTYLE
350
17
0
DICTIONARY
5
D
100
AcDbDictionary
0
DICTIONARY
5
1A
330
C
100
AcDbDictionary
0
DICTIONARY
5
17
100
AcDbDictionary
0
ENDSEC
0
EOF
