%TF.GenerationSoftware,KiCad,Pcbnew,7.0.2*%
%TF.CreationDate,2023-10-12T23:28:15+02:00*%
%TF.ProjectId,pulse_generator_v2,70756c73-655f-4676-956e-657261746f72,rev?*%
%TF.SameCoordinates,Original*%
%TF.FileFunction,Legend,Bot*%
%TF.FilePolarity,Positive*%
%FSLAX46Y46*%
G04 Gerber Fmt 4.6, Leading zero omitted, Abs format (unit mm)*
G04 Created by KiCad (PCBNEW 7.0.2) date 2023-10-12 23:28:15*
%MOMM*%
%LPD*%
G01*
G04 APERTURE LIST*
%ADD10C,0.150000*%
%ADD11C,0.200000*%
%ADD12C,0.120000*%
G04 APERTURE END LIST*
D10*
X141500000Y-74500000D02*
X163500000Y-74500000D01*
X163500000Y-90500000D01*
X141500000Y-90500000D01*
X141500000Y-74500000D01*
G36*
X141500000Y-74500000D02*
G01*
X163500000Y-74500000D01*
X163500000Y-90500000D01*
X141500000Y-90500000D01*
X141500000Y-74500000D01*
G37*
X123761904Y-79507619D02*
X123761904Y-78507619D01*
X123761904Y-78507619D02*
X123523809Y-78507619D01*
X123523809Y-78507619D02*
X123380952Y-78555238D01*
X123380952Y-78555238D02*
X123285714Y-78650476D01*
X123285714Y-78650476D02*
X123238095Y-78745714D01*
X123238095Y-78745714D02*
X123190476Y-78936190D01*
X123190476Y-78936190D02*
X123190476Y-79079047D01*
X123190476Y-79079047D02*
X123238095Y-79269523D01*
X123238095Y-79269523D02*
X123285714Y-79364761D01*
X123285714Y-79364761D02*
X123380952Y-79460000D01*
X123380952Y-79460000D02*
X123523809Y-79507619D01*
X123523809Y-79507619D02*
X123761904Y-79507619D01*
X122857142Y-78507619D02*
X122238095Y-78507619D01*
X122238095Y-78507619D02*
X122571428Y-78888571D01*
X122571428Y-78888571D02*
X122428571Y-78888571D01*
X122428571Y-78888571D02*
X122333333Y-78936190D01*
X122333333Y-78936190D02*
X122285714Y-78983809D01*
X122285714Y-78983809D02*
X122238095Y-79079047D01*
X122238095Y-79079047D02*
X122238095Y-79317142D01*
X122238095Y-79317142D02*
X122285714Y-79412380D01*
X122285714Y-79412380D02*
X122333333Y-79460000D01*
X122333333Y-79460000D02*
X122428571Y-79507619D01*
X122428571Y-79507619D02*
X122714285Y-79507619D01*
X122714285Y-79507619D02*
X122809523Y-79460000D01*
X122809523Y-79460000D02*
X122857142Y-79412380D01*
X121809523Y-79412380D02*
X121761904Y-79460000D01*
X121761904Y-79460000D02*
X121809523Y-79507619D01*
X121809523Y-79507619D02*
X121857142Y-79460000D01*
X121857142Y-79460000D02*
X121809523Y-79412380D01*
X121809523Y-79412380D02*
X121809523Y-79507619D01*
X121809523Y-78888571D02*
X121761904Y-78936190D01*
X121761904Y-78936190D02*
X121809523Y-78983809D01*
X121809523Y-78983809D02*
X121857142Y-78936190D01*
X121857142Y-78936190D02*
X121809523Y-78888571D01*
X121809523Y-78888571D02*
X121809523Y-78983809D01*
X120571428Y-79507619D02*
X120571428Y-78507619D01*
X120571428Y-78507619D02*
X120333333Y-78507619D01*
X120333333Y-78507619D02*
X120190476Y-78555238D01*
X120190476Y-78555238D02*
X120095238Y-78650476D01*
X120095238Y-78650476D02*
X120047619Y-78745714D01*
X120047619Y-78745714D02*
X120000000Y-78936190D01*
X120000000Y-78936190D02*
X120000000Y-79079047D01*
X120000000Y-79079047D02*
X120047619Y-79269523D01*
X120047619Y-79269523D02*
X120095238Y-79364761D01*
X120095238Y-79364761D02*
X120190476Y-79460000D01*
X120190476Y-79460000D02*
X120333333Y-79507619D01*
X120333333Y-79507619D02*
X120571428Y-79507619D01*
X119571428Y-79507619D02*
X119571428Y-78840952D01*
X119571428Y-78507619D02*
X119619047Y-78555238D01*
X119619047Y-78555238D02*
X119571428Y-78602857D01*
X119571428Y-78602857D02*
X119523809Y-78555238D01*
X119523809Y-78555238D02*
X119571428Y-78507619D01*
X119571428Y-78507619D02*
X119571428Y-78602857D01*
X118666667Y-79507619D02*
X118666667Y-78983809D01*
X118666667Y-78983809D02*
X118714286Y-78888571D01*
X118714286Y-78888571D02*
X118809524Y-78840952D01*
X118809524Y-78840952D02*
X119000000Y-78840952D01*
X119000000Y-78840952D02*
X119095238Y-78888571D01*
X118666667Y-79460000D02*
X118761905Y-79507619D01*
X118761905Y-79507619D02*
X119000000Y-79507619D01*
X119000000Y-79507619D02*
X119095238Y-79460000D01*
X119095238Y-79460000D02*
X119142857Y-79364761D01*
X119142857Y-79364761D02*
X119142857Y-79269523D01*
X119142857Y-79269523D02*
X119095238Y-79174285D01*
X119095238Y-79174285D02*
X119000000Y-79126666D01*
X119000000Y-79126666D02*
X118761905Y-79126666D01*
X118761905Y-79126666D02*
X118666667Y-79079047D01*
X118047619Y-79507619D02*
X118142857Y-79460000D01*
X118142857Y-79460000D02*
X118190476Y-79364761D01*
X118190476Y-79364761D02*
X118190476Y-78507619D01*
X117666666Y-79507619D02*
X117666666Y-78840952D01*
X117666666Y-78507619D02*
X117714285Y-78555238D01*
X117714285Y-78555238D02*
X117666666Y-78602857D01*
X117666666Y-78602857D02*
X117619047Y-78555238D01*
X117619047Y-78555238D02*
X117666666Y-78507619D01*
X117666666Y-78507619D02*
X117666666Y-78602857D01*
X116761905Y-78840952D02*
X116761905Y-79650476D01*
X116761905Y-79650476D02*
X116809524Y-79745714D01*
X116809524Y-79745714D02*
X116857143Y-79793333D01*
X116857143Y-79793333D02*
X116952381Y-79840952D01*
X116952381Y-79840952D02*
X117095238Y-79840952D01*
X117095238Y-79840952D02*
X117190476Y-79793333D01*
X116761905Y-79460000D02*
X116857143Y-79507619D01*
X116857143Y-79507619D02*
X117047619Y-79507619D01*
X117047619Y-79507619D02*
X117142857Y-79460000D01*
X117142857Y-79460000D02*
X117190476Y-79412380D01*
X117190476Y-79412380D02*
X117238095Y-79317142D01*
X117238095Y-79317142D02*
X117238095Y-79031428D01*
X117238095Y-79031428D02*
X117190476Y-78936190D01*
X117190476Y-78936190D02*
X117142857Y-78888571D01*
X117142857Y-78888571D02*
X117047619Y-78840952D01*
X117047619Y-78840952D02*
X116857143Y-78840952D01*
X116857143Y-78840952D02*
X116761905Y-78888571D01*
X116285714Y-79507619D02*
X116285714Y-78507619D01*
X115857143Y-79507619D02*
X115857143Y-78983809D01*
X115857143Y-78983809D02*
X115904762Y-78888571D01*
X115904762Y-78888571D02*
X116000000Y-78840952D01*
X116000000Y-78840952D02*
X116142857Y-78840952D01*
X116142857Y-78840952D02*
X116238095Y-78888571D01*
X116238095Y-78888571D02*
X116285714Y-78936190D01*
X115523809Y-78840952D02*
X115142857Y-78840952D01*
X115380952Y-78507619D02*
X115380952Y-79364761D01*
X115380952Y-79364761D02*
X115333333Y-79460000D01*
X115333333Y-79460000D02*
X115238095Y-79507619D01*
X115238095Y-79507619D02*
X115142857Y-79507619D01*
X113571428Y-78507619D02*
X114047618Y-78507619D01*
X114047618Y-78507619D02*
X114095237Y-78983809D01*
X114095237Y-78983809D02*
X114047618Y-78936190D01*
X114047618Y-78936190D02*
X113952380Y-78888571D01*
X113952380Y-78888571D02*
X113714285Y-78888571D01*
X113714285Y-78888571D02*
X113619047Y-78936190D01*
X113619047Y-78936190D02*
X113571428Y-78983809D01*
X113571428Y-78983809D02*
X113523809Y-79079047D01*
X113523809Y-79079047D02*
X113523809Y-79317142D01*
X113523809Y-79317142D02*
X113571428Y-79412380D01*
X113571428Y-79412380D02*
X113619047Y-79460000D01*
X113619047Y-79460000D02*
X113714285Y-79507619D01*
X113714285Y-79507619D02*
X113952380Y-79507619D01*
X113952380Y-79507619D02*
X114047618Y-79460000D01*
X114047618Y-79460000D02*
X114095237Y-79412380D01*
X112619047Y-78507619D02*
X113095237Y-78507619D01*
X113095237Y-78507619D02*
X113142856Y-78983809D01*
X113142856Y-78983809D02*
X113095237Y-78936190D01*
X113095237Y-78936190D02*
X112999999Y-78888571D01*
X112999999Y-78888571D02*
X112761904Y-78888571D01*
X112761904Y-78888571D02*
X112666666Y-78936190D01*
X112666666Y-78936190D02*
X112619047Y-78983809D01*
X112619047Y-78983809D02*
X112571428Y-79079047D01*
X112571428Y-79079047D02*
X112571428Y-79317142D01*
X112571428Y-79317142D02*
X112619047Y-79412380D01*
X112619047Y-79412380D02*
X112666666Y-79460000D01*
X112666666Y-79460000D02*
X112761904Y-79507619D01*
X112761904Y-79507619D02*
X112999999Y-79507619D01*
X112999999Y-79507619D02*
X113095237Y-79460000D01*
X113095237Y-79460000D02*
X113142856Y-79412380D01*
X111952380Y-78507619D02*
X111857142Y-78507619D01*
X111857142Y-78507619D02*
X111761904Y-78555238D01*
X111761904Y-78555238D02*
X111714285Y-78602857D01*
X111714285Y-78602857D02*
X111666666Y-78698095D01*
X111666666Y-78698095D02*
X111619047Y-78888571D01*
X111619047Y-78888571D02*
X111619047Y-79126666D01*
X111619047Y-79126666D02*
X111666666Y-79317142D01*
X111666666Y-79317142D02*
X111714285Y-79412380D01*
X111714285Y-79412380D02*
X111761904Y-79460000D01*
X111761904Y-79460000D02*
X111857142Y-79507619D01*
X111857142Y-79507619D02*
X111952380Y-79507619D01*
X111952380Y-79507619D02*
X112047618Y-79460000D01*
X112047618Y-79460000D02*
X112095237Y-79412380D01*
X112095237Y-79412380D02*
X112142856Y-79317142D01*
X112142856Y-79317142D02*
X112190475Y-79126666D01*
X112190475Y-79126666D02*
X112190475Y-78888571D01*
X112190475Y-78888571D02*
X112142856Y-78698095D01*
X112142856Y-78698095D02*
X112095237Y-78602857D01*
X112095237Y-78602857D02*
X112047618Y-78555238D01*
X112047618Y-78555238D02*
X111952380Y-78507619D01*
X111190475Y-79126666D02*
X110428571Y-79126666D01*
X109999999Y-78602857D02*
X109952380Y-78555238D01*
X109952380Y-78555238D02*
X109857142Y-78507619D01*
X109857142Y-78507619D02*
X109619047Y-78507619D01*
X109619047Y-78507619D02*
X109523809Y-78555238D01*
X109523809Y-78555238D02*
X109476190Y-78602857D01*
X109476190Y-78602857D02*
X109428571Y-78698095D01*
X109428571Y-78698095D02*
X109428571Y-78793333D01*
X109428571Y-78793333D02*
X109476190Y-78936190D01*
X109476190Y-78936190D02*
X110047618Y-79507619D01*
X110047618Y-79507619D02*
X109428571Y-79507619D01*
X108571428Y-78840952D02*
X108571428Y-79507619D01*
X108809523Y-78460000D02*
X109047618Y-79174285D01*
X109047618Y-79174285D02*
X108428571Y-79174285D01*
X107857142Y-78507619D02*
X107761904Y-78507619D01*
X107761904Y-78507619D02*
X107666666Y-78555238D01*
X107666666Y-78555238D02*
X107619047Y-78602857D01*
X107619047Y-78602857D02*
X107571428Y-78698095D01*
X107571428Y-78698095D02*
X107523809Y-78888571D01*
X107523809Y-78888571D02*
X107523809Y-79126666D01*
X107523809Y-79126666D02*
X107571428Y-79317142D01*
X107571428Y-79317142D02*
X107619047Y-79412380D01*
X107619047Y-79412380D02*
X107666666Y-79460000D01*
X107666666Y-79460000D02*
X107761904Y-79507619D01*
X107761904Y-79507619D02*
X107857142Y-79507619D01*
X107857142Y-79507619D02*
X107952380Y-79460000D01*
X107952380Y-79460000D02*
X107999999Y-79412380D01*
X107999999Y-79412380D02*
X108047618Y-79317142D01*
X108047618Y-79317142D02*
X108095237Y-79126666D01*
X108095237Y-79126666D02*
X108095237Y-78888571D01*
X108095237Y-78888571D02*
X108047618Y-78698095D01*
X108047618Y-78698095D02*
X107999999Y-78602857D01*
X107999999Y-78602857D02*
X107952380Y-78555238D01*
X107952380Y-78555238D02*
X107857142Y-78507619D01*
X107190475Y-78507619D02*
X106523809Y-78507619D01*
X106523809Y-78507619D02*
X106952380Y-79507619D01*
X105809523Y-78983809D02*
X106142856Y-78983809D01*
X106142856Y-79507619D02*
X106142856Y-78507619D01*
X106142856Y-78507619D02*
X105666666Y-78507619D01*
X123619047Y-81127619D02*
X123714285Y-81080000D01*
X123714285Y-81080000D02*
X123761904Y-81032380D01*
X123761904Y-81032380D02*
X123809523Y-80937142D01*
X123809523Y-80937142D02*
X123809523Y-80651428D01*
X123809523Y-80651428D02*
X123761904Y-80556190D01*
X123761904Y-80556190D02*
X123714285Y-80508571D01*
X123714285Y-80508571D02*
X123619047Y-80460952D01*
X123619047Y-80460952D02*
X123476190Y-80460952D01*
X123476190Y-80460952D02*
X123380952Y-80508571D01*
X123380952Y-80508571D02*
X123333333Y-80556190D01*
X123333333Y-80556190D02*
X123285714Y-80651428D01*
X123285714Y-80651428D02*
X123285714Y-80937142D01*
X123285714Y-80937142D02*
X123333333Y-81032380D01*
X123333333Y-81032380D02*
X123380952Y-81080000D01*
X123380952Y-81080000D02*
X123476190Y-81127619D01*
X123476190Y-81127619D02*
X123619047Y-81127619D01*
X122857142Y-81127619D02*
X122857142Y-80460952D01*
X122857142Y-80651428D02*
X122809523Y-80556190D01*
X122809523Y-80556190D02*
X122761904Y-80508571D01*
X122761904Y-80508571D02*
X122666666Y-80460952D01*
X122666666Y-80460952D02*
X122571428Y-80460952D01*
X121476189Y-81127619D02*
X121476189Y-80460952D01*
X121476189Y-80556190D02*
X121428570Y-80508571D01*
X121428570Y-80508571D02*
X121333332Y-80460952D01*
X121333332Y-80460952D02*
X121190475Y-80460952D01*
X121190475Y-80460952D02*
X121095237Y-80508571D01*
X121095237Y-80508571D02*
X121047618Y-80603809D01*
X121047618Y-80603809D02*
X121047618Y-81127619D01*
X121047618Y-80603809D02*
X120999999Y-80508571D01*
X120999999Y-80508571D02*
X120904761Y-80460952D01*
X120904761Y-80460952D02*
X120761904Y-80460952D01*
X120761904Y-80460952D02*
X120666665Y-80508571D01*
X120666665Y-80508571D02*
X120619046Y-80603809D01*
X120619046Y-80603809D02*
X120619046Y-81127619D01*
X119714285Y-81127619D02*
X119714285Y-80603809D01*
X119714285Y-80603809D02*
X119761904Y-80508571D01*
X119761904Y-80508571D02*
X119857142Y-80460952D01*
X119857142Y-80460952D02*
X120047618Y-80460952D01*
X120047618Y-80460952D02*
X120142856Y-80508571D01*
X119714285Y-81080000D02*
X119809523Y-81127619D01*
X119809523Y-81127619D02*
X120047618Y-81127619D01*
X120047618Y-81127619D02*
X120142856Y-81080000D01*
X120142856Y-81080000D02*
X120190475Y-80984761D01*
X120190475Y-80984761D02*
X120190475Y-80889523D01*
X120190475Y-80889523D02*
X120142856Y-80794285D01*
X120142856Y-80794285D02*
X120047618Y-80746666D01*
X120047618Y-80746666D02*
X119809523Y-80746666D01*
X119809523Y-80746666D02*
X119714285Y-80699047D01*
X119380951Y-80460952D02*
X118999999Y-80460952D01*
X119238094Y-80127619D02*
X119238094Y-80984761D01*
X119238094Y-80984761D02*
X119190475Y-81080000D01*
X119190475Y-81080000D02*
X119095237Y-81127619D01*
X119095237Y-81127619D02*
X118999999Y-81127619D01*
X118238094Y-81080000D02*
X118333332Y-81127619D01*
X118333332Y-81127619D02*
X118523808Y-81127619D01*
X118523808Y-81127619D02*
X118619046Y-81080000D01*
X118619046Y-81080000D02*
X118666665Y-81032380D01*
X118666665Y-81032380D02*
X118714284Y-80937142D01*
X118714284Y-80937142D02*
X118714284Y-80651428D01*
X118714284Y-80651428D02*
X118666665Y-80556190D01*
X118666665Y-80556190D02*
X118619046Y-80508571D01*
X118619046Y-80508571D02*
X118523808Y-80460952D01*
X118523808Y-80460952D02*
X118333332Y-80460952D01*
X118333332Y-80460952D02*
X118238094Y-80508571D01*
X117809522Y-81127619D02*
X117809522Y-80127619D01*
X117380951Y-81127619D02*
X117380951Y-80603809D01*
X117380951Y-80603809D02*
X117428570Y-80508571D01*
X117428570Y-80508571D02*
X117523808Y-80460952D01*
X117523808Y-80460952D02*
X117666665Y-80460952D01*
X117666665Y-80460952D02*
X117761903Y-80508571D01*
X117761903Y-80508571D02*
X117809522Y-80556190D01*
X116904760Y-81127619D02*
X116904760Y-80460952D01*
X116904760Y-80127619D02*
X116952379Y-80175238D01*
X116952379Y-80175238D02*
X116904760Y-80222857D01*
X116904760Y-80222857D02*
X116857141Y-80175238D01*
X116857141Y-80175238D02*
X116904760Y-80127619D01*
X116904760Y-80127619D02*
X116904760Y-80222857D01*
X116428570Y-80460952D02*
X116428570Y-81127619D01*
X116428570Y-80556190D02*
X116380951Y-80508571D01*
X116380951Y-80508571D02*
X116285713Y-80460952D01*
X116285713Y-80460952D02*
X116142856Y-80460952D01*
X116142856Y-80460952D02*
X116047618Y-80508571D01*
X116047618Y-80508571D02*
X115999999Y-80603809D01*
X115999999Y-80603809D02*
X115999999Y-81127619D01*
X115095237Y-80460952D02*
X115095237Y-81270476D01*
X115095237Y-81270476D02*
X115142856Y-81365714D01*
X115142856Y-81365714D02*
X115190475Y-81413333D01*
X115190475Y-81413333D02*
X115285713Y-81460952D01*
X115285713Y-81460952D02*
X115428570Y-81460952D01*
X115428570Y-81460952D02*
X115523808Y-81413333D01*
X115095237Y-81080000D02*
X115190475Y-81127619D01*
X115190475Y-81127619D02*
X115380951Y-81127619D01*
X115380951Y-81127619D02*
X115476189Y-81080000D01*
X115476189Y-81080000D02*
X115523808Y-81032380D01*
X115523808Y-81032380D02*
X115571427Y-80937142D01*
X115571427Y-80937142D02*
X115571427Y-80651428D01*
X115571427Y-80651428D02*
X115523808Y-80556190D01*
X115523808Y-80556190D02*
X115476189Y-80508571D01*
X115476189Y-80508571D02*
X115380951Y-80460952D01*
X115380951Y-80460952D02*
X115190475Y-80460952D01*
X115190475Y-80460952D02*
X115095237Y-80508571D01*
X113380951Y-80127619D02*
X113857141Y-80127619D01*
X113857141Y-80127619D02*
X113904760Y-80603809D01*
X113904760Y-80603809D02*
X113857141Y-80556190D01*
X113857141Y-80556190D02*
X113761903Y-80508571D01*
X113761903Y-80508571D02*
X113523808Y-80508571D01*
X113523808Y-80508571D02*
X113428570Y-80556190D01*
X113428570Y-80556190D02*
X113380951Y-80603809D01*
X113380951Y-80603809D02*
X113333332Y-80699047D01*
X113333332Y-80699047D02*
X113333332Y-80937142D01*
X113333332Y-80937142D02*
X113380951Y-81032380D01*
X113380951Y-81032380D02*
X113428570Y-81080000D01*
X113428570Y-81080000D02*
X113523808Y-81127619D01*
X113523808Y-81127619D02*
X113761903Y-81127619D01*
X113761903Y-81127619D02*
X113857141Y-81080000D01*
X113857141Y-81080000D02*
X113904760Y-81032380D01*
X112904760Y-81127619D02*
X112904760Y-80460952D01*
X112904760Y-80556190D02*
X112857141Y-80508571D01*
X112857141Y-80508571D02*
X112761903Y-80460952D01*
X112761903Y-80460952D02*
X112619046Y-80460952D01*
X112619046Y-80460952D02*
X112523808Y-80508571D01*
X112523808Y-80508571D02*
X112476189Y-80603809D01*
X112476189Y-80603809D02*
X112476189Y-81127619D01*
X112476189Y-80603809D02*
X112428570Y-80508571D01*
X112428570Y-80508571D02*
X112333332Y-80460952D01*
X112333332Y-80460952D02*
X112190475Y-80460952D01*
X112190475Y-80460952D02*
X112095236Y-80508571D01*
X112095236Y-80508571D02*
X112047617Y-80603809D01*
X112047617Y-80603809D02*
X112047617Y-81127619D01*
X111571427Y-81127619D02*
X111571427Y-80460952D01*
X111571427Y-80556190D02*
X111523808Y-80508571D01*
X111523808Y-80508571D02*
X111428570Y-80460952D01*
X111428570Y-80460952D02*
X111285713Y-80460952D01*
X111285713Y-80460952D02*
X111190475Y-80508571D01*
X111190475Y-80508571D02*
X111142856Y-80603809D01*
X111142856Y-80603809D02*
X111142856Y-81127619D01*
X111142856Y-80603809D02*
X111095237Y-80508571D01*
X111095237Y-80508571D02*
X110999999Y-80460952D01*
X110999999Y-80460952D02*
X110857142Y-80460952D01*
X110857142Y-80460952D02*
X110761903Y-80508571D01*
X110761903Y-80508571D02*
X110714284Y-80603809D01*
X110714284Y-80603809D02*
X110714284Y-81127619D01*
X108999999Y-81127619D02*
X109476189Y-81127619D01*
X109476189Y-81127619D02*
X109476189Y-80127619D01*
X108666665Y-80603809D02*
X108333332Y-80603809D01*
X108190475Y-81127619D02*
X108666665Y-81127619D01*
X108666665Y-81127619D02*
X108666665Y-80127619D01*
X108666665Y-80127619D02*
X108190475Y-80127619D01*
X107761903Y-81127619D02*
X107761903Y-80127619D01*
X107761903Y-80127619D02*
X107523808Y-80127619D01*
X107523808Y-80127619D02*
X107380951Y-80175238D01*
X107380951Y-80175238D02*
X107285713Y-80270476D01*
X107285713Y-80270476D02*
X107238094Y-80365714D01*
X107238094Y-80365714D02*
X107190475Y-80556190D01*
X107190475Y-80556190D02*
X107190475Y-80699047D01*
X107190475Y-80699047D02*
X107238094Y-80889523D01*
X107238094Y-80889523D02*
X107285713Y-80984761D01*
X107285713Y-80984761D02*
X107380951Y-81080000D01*
X107380951Y-81080000D02*
X107523808Y-81127619D01*
X107523808Y-81127619D02*
X107761903Y-81127619D01*
X163261904Y-73377619D02*
X163261904Y-72377619D01*
X163261904Y-72377619D02*
X162690476Y-73377619D01*
X162690476Y-73377619D02*
X162690476Y-72377619D01*
X162071428Y-73377619D02*
X162166666Y-73330000D01*
X162166666Y-73330000D02*
X162214285Y-73282380D01*
X162214285Y-73282380D02*
X162261904Y-73187142D01*
X162261904Y-73187142D02*
X162261904Y-72901428D01*
X162261904Y-72901428D02*
X162214285Y-72806190D01*
X162214285Y-72806190D02*
X162166666Y-72758571D01*
X162166666Y-72758571D02*
X162071428Y-72710952D01*
X162071428Y-72710952D02*
X161928571Y-72710952D01*
X161928571Y-72710952D02*
X161833333Y-72758571D01*
X161833333Y-72758571D02*
X161785714Y-72806190D01*
X161785714Y-72806190D02*
X161738095Y-72901428D01*
X161738095Y-72901428D02*
X161738095Y-73187142D01*
X161738095Y-73187142D02*
X161785714Y-73282380D01*
X161785714Y-73282380D02*
X161833333Y-73330000D01*
X161833333Y-73330000D02*
X161928571Y-73377619D01*
X161928571Y-73377619D02*
X162071428Y-73377619D01*
X161452380Y-72710952D02*
X161071428Y-72710952D01*
X161309523Y-72377619D02*
X161309523Y-73234761D01*
X161309523Y-73234761D02*
X161261904Y-73330000D01*
X161261904Y-73330000D02*
X161166666Y-73377619D01*
X161166666Y-73377619D02*
X161071428Y-73377619D01*
X160357142Y-73330000D02*
X160452380Y-73377619D01*
X160452380Y-73377619D02*
X160642856Y-73377619D01*
X160642856Y-73377619D02*
X160738094Y-73330000D01*
X160738094Y-73330000D02*
X160785713Y-73234761D01*
X160785713Y-73234761D02*
X160785713Y-72853809D01*
X160785713Y-72853809D02*
X160738094Y-72758571D01*
X160738094Y-72758571D02*
X160642856Y-72710952D01*
X160642856Y-72710952D02*
X160452380Y-72710952D01*
X160452380Y-72710952D02*
X160357142Y-72758571D01*
X160357142Y-72758571D02*
X160309523Y-72853809D01*
X160309523Y-72853809D02*
X160309523Y-72949047D01*
X160309523Y-72949047D02*
X160785713Y-73044285D01*
X159928570Y-73330000D02*
X159833332Y-73377619D01*
X159833332Y-73377619D02*
X159642856Y-73377619D01*
X159642856Y-73377619D02*
X159547618Y-73330000D01*
X159547618Y-73330000D02*
X159499999Y-73234761D01*
X159499999Y-73234761D02*
X159499999Y-73187142D01*
X159499999Y-73187142D02*
X159547618Y-73091904D01*
X159547618Y-73091904D02*
X159642856Y-73044285D01*
X159642856Y-73044285D02*
X159785713Y-73044285D01*
X159785713Y-73044285D02*
X159880951Y-72996666D01*
X159880951Y-72996666D02*
X159928570Y-72901428D01*
X159928570Y-72901428D02*
X159928570Y-72853809D01*
X159928570Y-72853809D02*
X159880951Y-72758571D01*
X159880951Y-72758571D02*
X159785713Y-72710952D01*
X159785713Y-72710952D02*
X159642856Y-72710952D01*
X159642856Y-72710952D02*
X159547618Y-72758571D01*
X157880951Y-73377619D02*
X157880951Y-72853809D01*
X157880951Y-72853809D02*
X157928570Y-72758571D01*
X157928570Y-72758571D02*
X158023808Y-72710952D01*
X158023808Y-72710952D02*
X158214284Y-72710952D01*
X158214284Y-72710952D02*
X158309522Y-72758571D01*
X157880951Y-73330000D02*
X157976189Y-73377619D01*
X157976189Y-73377619D02*
X158214284Y-73377619D01*
X158214284Y-73377619D02*
X158309522Y-73330000D01*
X158309522Y-73330000D02*
X158357141Y-73234761D01*
X158357141Y-73234761D02*
X158357141Y-73139523D01*
X158357141Y-73139523D02*
X158309522Y-73044285D01*
X158309522Y-73044285D02*
X158214284Y-72996666D01*
X158214284Y-72996666D02*
X157976189Y-72996666D01*
X157976189Y-72996666D02*
X157880951Y-72949047D01*
X157404760Y-73377619D02*
X157404760Y-72377619D01*
X157404760Y-72758571D02*
X157309522Y-72710952D01*
X157309522Y-72710952D02*
X157119046Y-72710952D01*
X157119046Y-72710952D02*
X157023808Y-72758571D01*
X157023808Y-72758571D02*
X156976189Y-72806190D01*
X156976189Y-72806190D02*
X156928570Y-72901428D01*
X156928570Y-72901428D02*
X156928570Y-73187142D01*
X156928570Y-73187142D02*
X156976189Y-73282380D01*
X156976189Y-73282380D02*
X157023808Y-73330000D01*
X157023808Y-73330000D02*
X157119046Y-73377619D01*
X157119046Y-73377619D02*
X157309522Y-73377619D01*
X157309522Y-73377619D02*
X157404760Y-73330000D01*
X156357141Y-73377619D02*
X156452379Y-73330000D01*
X156452379Y-73330000D02*
X156499998Y-73282380D01*
X156499998Y-73282380D02*
X156547617Y-73187142D01*
X156547617Y-73187142D02*
X156547617Y-72901428D01*
X156547617Y-72901428D02*
X156499998Y-72806190D01*
X156499998Y-72806190D02*
X156452379Y-72758571D01*
X156452379Y-72758571D02*
X156357141Y-72710952D01*
X156357141Y-72710952D02*
X156214284Y-72710952D01*
X156214284Y-72710952D02*
X156119046Y-72758571D01*
X156119046Y-72758571D02*
X156071427Y-72806190D01*
X156071427Y-72806190D02*
X156023808Y-72901428D01*
X156023808Y-72901428D02*
X156023808Y-73187142D01*
X156023808Y-73187142D02*
X156071427Y-73282380D01*
X156071427Y-73282380D02*
X156119046Y-73330000D01*
X156119046Y-73330000D02*
X156214284Y-73377619D01*
X156214284Y-73377619D02*
X156357141Y-73377619D01*
X155166665Y-72710952D02*
X155166665Y-73377619D01*
X155595236Y-72710952D02*
X155595236Y-73234761D01*
X155595236Y-73234761D02*
X155547617Y-73330000D01*
X155547617Y-73330000D02*
X155452379Y-73377619D01*
X155452379Y-73377619D02*
X155309522Y-73377619D01*
X155309522Y-73377619D02*
X155214284Y-73330000D01*
X155214284Y-73330000D02*
X155166665Y-73282380D01*
X154833331Y-72710952D02*
X154452379Y-72710952D01*
X154690474Y-72377619D02*
X154690474Y-73234761D01*
X154690474Y-73234761D02*
X154642855Y-73330000D01*
X154642855Y-73330000D02*
X154547617Y-73377619D01*
X154547617Y-73377619D02*
X154452379Y-73377619D01*
X153499997Y-72710952D02*
X153119045Y-72710952D01*
X153357140Y-72377619D02*
X153357140Y-73234761D01*
X153357140Y-73234761D02*
X153309521Y-73330000D01*
X153309521Y-73330000D02*
X153214283Y-73377619D01*
X153214283Y-73377619D02*
X153119045Y-73377619D01*
X152785711Y-73377619D02*
X152785711Y-72377619D01*
X152357140Y-73377619D02*
X152357140Y-72853809D01*
X152357140Y-72853809D02*
X152404759Y-72758571D01*
X152404759Y-72758571D02*
X152499997Y-72710952D01*
X152499997Y-72710952D02*
X152642854Y-72710952D01*
X152642854Y-72710952D02*
X152738092Y-72758571D01*
X152738092Y-72758571D02*
X152785711Y-72806190D01*
X151880949Y-73377619D02*
X151880949Y-72710952D01*
X151880949Y-72377619D02*
X151928568Y-72425238D01*
X151928568Y-72425238D02*
X151880949Y-72472857D01*
X151880949Y-72472857D02*
X151833330Y-72425238D01*
X151833330Y-72425238D02*
X151880949Y-72377619D01*
X151880949Y-72377619D02*
X151880949Y-72472857D01*
X151452378Y-73330000D02*
X151357140Y-73377619D01*
X151357140Y-73377619D02*
X151166664Y-73377619D01*
X151166664Y-73377619D02*
X151071426Y-73330000D01*
X151071426Y-73330000D02*
X151023807Y-73234761D01*
X151023807Y-73234761D02*
X151023807Y-73187142D01*
X151023807Y-73187142D02*
X151071426Y-73091904D01*
X151071426Y-73091904D02*
X151166664Y-73044285D01*
X151166664Y-73044285D02*
X151309521Y-73044285D01*
X151309521Y-73044285D02*
X151404759Y-72996666D01*
X151404759Y-72996666D02*
X151452378Y-72901428D01*
X151452378Y-72901428D02*
X151452378Y-72853809D01*
X151452378Y-72853809D02*
X151404759Y-72758571D01*
X151404759Y-72758571D02*
X151309521Y-72710952D01*
X151309521Y-72710952D02*
X151166664Y-72710952D01*
X151166664Y-72710952D02*
X151071426Y-72758571D01*
X149833330Y-73377619D02*
X149833330Y-72377619D01*
X149833330Y-72758571D02*
X149738092Y-72710952D01*
X149738092Y-72710952D02*
X149547616Y-72710952D01*
X149547616Y-72710952D02*
X149452378Y-72758571D01*
X149452378Y-72758571D02*
X149404759Y-72806190D01*
X149404759Y-72806190D02*
X149357140Y-72901428D01*
X149357140Y-72901428D02*
X149357140Y-73187142D01*
X149357140Y-73187142D02*
X149404759Y-73282380D01*
X149404759Y-73282380D02*
X149452378Y-73330000D01*
X149452378Y-73330000D02*
X149547616Y-73377619D01*
X149547616Y-73377619D02*
X149738092Y-73377619D01*
X149738092Y-73377619D02*
X149833330Y-73330000D01*
X148785711Y-73377619D02*
X148880949Y-73330000D01*
X148880949Y-73330000D02*
X148928568Y-73282380D01*
X148928568Y-73282380D02*
X148976187Y-73187142D01*
X148976187Y-73187142D02*
X148976187Y-72901428D01*
X148976187Y-72901428D02*
X148928568Y-72806190D01*
X148928568Y-72806190D02*
X148880949Y-72758571D01*
X148880949Y-72758571D02*
X148785711Y-72710952D01*
X148785711Y-72710952D02*
X148642854Y-72710952D01*
X148642854Y-72710952D02*
X148547616Y-72758571D01*
X148547616Y-72758571D02*
X148499997Y-72806190D01*
X148499997Y-72806190D02*
X148452378Y-72901428D01*
X148452378Y-72901428D02*
X148452378Y-73187142D01*
X148452378Y-73187142D02*
X148499997Y-73282380D01*
X148499997Y-73282380D02*
X148547616Y-73330000D01*
X148547616Y-73330000D02*
X148642854Y-73377619D01*
X148642854Y-73377619D02*
X148785711Y-73377619D01*
X147595235Y-73377619D02*
X147595235Y-72853809D01*
X147595235Y-72853809D02*
X147642854Y-72758571D01*
X147642854Y-72758571D02*
X147738092Y-72710952D01*
X147738092Y-72710952D02*
X147928568Y-72710952D01*
X147928568Y-72710952D02*
X148023806Y-72758571D01*
X147595235Y-73330000D02*
X147690473Y-73377619D01*
X147690473Y-73377619D02*
X147928568Y-73377619D01*
X147928568Y-73377619D02*
X148023806Y-73330000D01*
X148023806Y-73330000D02*
X148071425Y-73234761D01*
X148071425Y-73234761D02*
X148071425Y-73139523D01*
X148071425Y-73139523D02*
X148023806Y-73044285D01*
X148023806Y-73044285D02*
X147928568Y-72996666D01*
X147928568Y-72996666D02*
X147690473Y-72996666D01*
X147690473Y-72996666D02*
X147595235Y-72949047D01*
X147119044Y-73377619D02*
X147119044Y-72710952D01*
X147119044Y-72901428D02*
X147071425Y-72806190D01*
X147071425Y-72806190D02*
X147023806Y-72758571D01*
X147023806Y-72758571D02*
X146928568Y-72710952D01*
X146928568Y-72710952D02*
X146833330Y-72710952D01*
X146071425Y-73377619D02*
X146071425Y-72377619D01*
X146071425Y-73330000D02*
X146166663Y-73377619D01*
X146166663Y-73377619D02*
X146357139Y-73377619D01*
X146357139Y-73377619D02*
X146452377Y-73330000D01*
X146452377Y-73330000D02*
X146499996Y-73282380D01*
X146499996Y-73282380D02*
X146547615Y-73187142D01*
X146547615Y-73187142D02*
X146547615Y-72901428D01*
X146547615Y-72901428D02*
X146499996Y-72806190D01*
X146499996Y-72806190D02*
X146452377Y-72758571D01*
X146452377Y-72758571D02*
X146357139Y-72710952D01*
X146357139Y-72710952D02*
X146166663Y-72710952D01*
X146166663Y-72710952D02*
X146071425Y-72758571D01*
X145595234Y-73282380D02*
X145547615Y-73330000D01*
X145547615Y-73330000D02*
X145595234Y-73377619D01*
X145595234Y-73377619D02*
X145642853Y-73330000D01*
X145642853Y-73330000D02*
X145595234Y-73282380D01*
X145595234Y-73282380D02*
X145595234Y-73377619D01*
X145595234Y-72758571D02*
X145547615Y-72806190D01*
X145547615Y-72806190D02*
X145595234Y-72853809D01*
X145595234Y-72853809D02*
X145642853Y-72806190D01*
X145642853Y-72806190D02*
X145595234Y-72758571D01*
X145595234Y-72758571D02*
X145595234Y-72853809D01*
X123809523Y-92471904D02*
X123333333Y-92471904D01*
X123904761Y-92757619D02*
X123571428Y-91757619D01*
X123571428Y-91757619D02*
X123238095Y-92757619D01*
X122761904Y-92757619D02*
X122857142Y-92710000D01*
X122857142Y-92710000D02*
X122904761Y-92614761D01*
X122904761Y-92614761D02*
X122904761Y-91757619D01*
X122238094Y-92757619D02*
X122333332Y-92710000D01*
X122333332Y-92710000D02*
X122380951Y-92614761D01*
X122380951Y-92614761D02*
X122380951Y-91757619D01*
X121095236Y-92090952D02*
X121095236Y-93090952D01*
X121095236Y-92138571D02*
X120999998Y-92090952D01*
X120999998Y-92090952D02*
X120809522Y-92090952D01*
X120809522Y-92090952D02*
X120714284Y-92138571D01*
X120714284Y-92138571D02*
X120666665Y-92186190D01*
X120666665Y-92186190D02*
X120619046Y-92281428D01*
X120619046Y-92281428D02*
X120619046Y-92567142D01*
X120619046Y-92567142D02*
X120666665Y-92662380D01*
X120666665Y-92662380D02*
X120714284Y-92710000D01*
X120714284Y-92710000D02*
X120809522Y-92757619D01*
X120809522Y-92757619D02*
X120999998Y-92757619D01*
X120999998Y-92757619D02*
X121095236Y-92710000D01*
X119761903Y-92757619D02*
X119761903Y-92233809D01*
X119761903Y-92233809D02*
X119809522Y-92138571D01*
X119809522Y-92138571D02*
X119904760Y-92090952D01*
X119904760Y-92090952D02*
X120095236Y-92090952D01*
X120095236Y-92090952D02*
X120190474Y-92138571D01*
X119761903Y-92710000D02*
X119857141Y-92757619D01*
X119857141Y-92757619D02*
X120095236Y-92757619D01*
X120095236Y-92757619D02*
X120190474Y-92710000D01*
X120190474Y-92710000D02*
X120238093Y-92614761D01*
X120238093Y-92614761D02*
X120238093Y-92519523D01*
X120238093Y-92519523D02*
X120190474Y-92424285D01*
X120190474Y-92424285D02*
X120095236Y-92376666D01*
X120095236Y-92376666D02*
X119857141Y-92376666D01*
X119857141Y-92376666D02*
X119761903Y-92329047D01*
X119333331Y-92710000D02*
X119238093Y-92757619D01*
X119238093Y-92757619D02*
X119047617Y-92757619D01*
X119047617Y-92757619D02*
X118952379Y-92710000D01*
X118952379Y-92710000D02*
X118904760Y-92614761D01*
X118904760Y-92614761D02*
X118904760Y-92567142D01*
X118904760Y-92567142D02*
X118952379Y-92471904D01*
X118952379Y-92471904D02*
X119047617Y-92424285D01*
X119047617Y-92424285D02*
X119190474Y-92424285D01*
X119190474Y-92424285D02*
X119285712Y-92376666D01*
X119285712Y-92376666D02*
X119333331Y-92281428D01*
X119333331Y-92281428D02*
X119333331Y-92233809D01*
X119333331Y-92233809D02*
X119285712Y-92138571D01*
X119285712Y-92138571D02*
X119190474Y-92090952D01*
X119190474Y-92090952D02*
X119047617Y-92090952D01*
X119047617Y-92090952D02*
X118952379Y-92138571D01*
X118523807Y-92710000D02*
X118428569Y-92757619D01*
X118428569Y-92757619D02*
X118238093Y-92757619D01*
X118238093Y-92757619D02*
X118142855Y-92710000D01*
X118142855Y-92710000D02*
X118095236Y-92614761D01*
X118095236Y-92614761D02*
X118095236Y-92567142D01*
X118095236Y-92567142D02*
X118142855Y-92471904D01*
X118142855Y-92471904D02*
X118238093Y-92424285D01*
X118238093Y-92424285D02*
X118380950Y-92424285D01*
X118380950Y-92424285D02*
X118476188Y-92376666D01*
X118476188Y-92376666D02*
X118523807Y-92281428D01*
X118523807Y-92281428D02*
X118523807Y-92233809D01*
X118523807Y-92233809D02*
X118476188Y-92138571D01*
X118476188Y-92138571D02*
X118380950Y-92090952D01*
X118380950Y-92090952D02*
X118238093Y-92090952D01*
X118238093Y-92090952D02*
X118142855Y-92138571D01*
X117666664Y-92757619D02*
X117666664Y-92090952D01*
X117666664Y-91757619D02*
X117714283Y-91805238D01*
X117714283Y-91805238D02*
X117666664Y-91852857D01*
X117666664Y-91852857D02*
X117619045Y-91805238D01*
X117619045Y-91805238D02*
X117666664Y-91757619D01*
X117666664Y-91757619D02*
X117666664Y-91852857D01*
X117285712Y-92090952D02*
X117047617Y-92757619D01*
X117047617Y-92757619D02*
X116809522Y-92090952D01*
X116047617Y-92710000D02*
X116142855Y-92757619D01*
X116142855Y-92757619D02*
X116333331Y-92757619D01*
X116333331Y-92757619D02*
X116428569Y-92710000D01*
X116428569Y-92710000D02*
X116476188Y-92614761D01*
X116476188Y-92614761D02*
X116476188Y-92233809D01*
X116476188Y-92233809D02*
X116428569Y-92138571D01*
X116428569Y-92138571D02*
X116333331Y-92090952D01*
X116333331Y-92090952D02*
X116142855Y-92090952D01*
X116142855Y-92090952D02*
X116047617Y-92138571D01*
X116047617Y-92138571D02*
X115999998Y-92233809D01*
X115999998Y-92233809D02*
X115999998Y-92329047D01*
X115999998Y-92329047D02*
X116476188Y-92424285D01*
X115619045Y-92710000D02*
X115523807Y-92757619D01*
X115523807Y-92757619D02*
X115333331Y-92757619D01*
X115333331Y-92757619D02*
X115238093Y-92710000D01*
X115238093Y-92710000D02*
X115190474Y-92614761D01*
X115190474Y-92614761D02*
X115190474Y-92567142D01*
X115190474Y-92567142D02*
X115238093Y-92471904D01*
X115238093Y-92471904D02*
X115333331Y-92424285D01*
X115333331Y-92424285D02*
X115476188Y-92424285D01*
X115476188Y-92424285D02*
X115571426Y-92376666D01*
X115571426Y-92376666D02*
X115619045Y-92281428D01*
X115619045Y-92281428D02*
X115619045Y-92233809D01*
X115619045Y-92233809D02*
X115571426Y-92138571D01*
X115571426Y-92138571D02*
X115476188Y-92090952D01*
X115476188Y-92090952D02*
X115333331Y-92090952D01*
X115333331Y-92090952D02*
X115238093Y-92138571D01*
X123333333Y-94377619D02*
X123333333Y-93853809D01*
X123333333Y-93853809D02*
X123380952Y-93758571D01*
X123380952Y-93758571D02*
X123476190Y-93710952D01*
X123476190Y-93710952D02*
X123666666Y-93710952D01*
X123666666Y-93710952D02*
X123761904Y-93758571D01*
X123333333Y-94330000D02*
X123428571Y-94377619D01*
X123428571Y-94377619D02*
X123666666Y-94377619D01*
X123666666Y-94377619D02*
X123761904Y-94330000D01*
X123761904Y-94330000D02*
X123809523Y-94234761D01*
X123809523Y-94234761D02*
X123809523Y-94139523D01*
X123809523Y-94139523D02*
X123761904Y-94044285D01*
X123761904Y-94044285D02*
X123666666Y-93996666D01*
X123666666Y-93996666D02*
X123428571Y-93996666D01*
X123428571Y-93996666D02*
X123333333Y-93949047D01*
X122857142Y-94377619D02*
X122857142Y-93710952D01*
X122857142Y-93901428D02*
X122809523Y-93806190D01*
X122809523Y-93806190D02*
X122761904Y-93758571D01*
X122761904Y-93758571D02*
X122666666Y-93710952D01*
X122666666Y-93710952D02*
X122571428Y-93710952D01*
X121857142Y-94330000D02*
X121952380Y-94377619D01*
X121952380Y-94377619D02*
X122142856Y-94377619D01*
X122142856Y-94377619D02*
X122238094Y-94330000D01*
X122238094Y-94330000D02*
X122285713Y-94234761D01*
X122285713Y-94234761D02*
X122285713Y-93853809D01*
X122285713Y-93853809D02*
X122238094Y-93758571D01*
X122238094Y-93758571D02*
X122142856Y-93710952D01*
X122142856Y-93710952D02*
X121952380Y-93710952D01*
X121952380Y-93710952D02*
X121857142Y-93758571D01*
X121857142Y-93758571D02*
X121809523Y-93853809D01*
X121809523Y-93853809D02*
X121809523Y-93949047D01*
X121809523Y-93949047D02*
X122285713Y-94044285D01*
X116380950Y-94377619D02*
X116380950Y-93853809D01*
X116380950Y-93853809D02*
X116428569Y-93758571D01*
X116428569Y-93758571D02*
X116523807Y-93710952D01*
X116523807Y-93710952D02*
X116714283Y-93710952D01*
X116714283Y-93710952D02*
X116809521Y-93758571D01*
X116380950Y-94330000D02*
X116476188Y-94377619D01*
X116476188Y-94377619D02*
X116714283Y-94377619D01*
X116714283Y-94377619D02*
X116809521Y-94330000D01*
X116809521Y-94330000D02*
X116857140Y-94234761D01*
X116857140Y-94234761D02*
X116857140Y-94139523D01*
X116857140Y-94139523D02*
X116809521Y-94044285D01*
X116809521Y-94044285D02*
X116714283Y-93996666D01*
X116714283Y-93996666D02*
X116476188Y-93996666D01*
X116476188Y-93996666D02*
X116380950Y-93949047D01*
X115904759Y-93710952D02*
X115904759Y-94377619D01*
X115904759Y-93806190D02*
X115857140Y-93758571D01*
X115857140Y-93758571D02*
X115761902Y-93710952D01*
X115761902Y-93710952D02*
X115619045Y-93710952D01*
X115619045Y-93710952D02*
X115523807Y-93758571D01*
X115523807Y-93758571D02*
X115476188Y-93853809D01*
X115476188Y-93853809D02*
X115476188Y-94377619D01*
X114571426Y-94377619D02*
X114571426Y-93377619D01*
X114571426Y-94330000D02*
X114666664Y-94377619D01*
X114666664Y-94377619D02*
X114857140Y-94377619D01*
X114857140Y-94377619D02*
X114952378Y-94330000D01*
X114952378Y-94330000D02*
X114999997Y-94282380D01*
X114999997Y-94282380D02*
X115047616Y-94187142D01*
X115047616Y-94187142D02*
X115047616Y-93901428D01*
X115047616Y-93901428D02*
X114999997Y-93806190D01*
X114999997Y-93806190D02*
X114952378Y-93758571D01*
X114952378Y-93758571D02*
X114857140Y-93710952D01*
X114857140Y-93710952D02*
X114666664Y-93710952D01*
X114666664Y-93710952D02*
X114571426Y-93758571D01*
X112904759Y-93710952D02*
X112904759Y-94377619D01*
X113333330Y-93710952D02*
X113333330Y-94234761D01*
X113333330Y-94234761D02*
X113285711Y-94330000D01*
X113285711Y-94330000D02*
X113190473Y-94377619D01*
X113190473Y-94377619D02*
X113047616Y-94377619D01*
X113047616Y-94377619D02*
X112952378Y-94330000D01*
X112952378Y-94330000D02*
X112904759Y-94282380D01*
X112428568Y-93710952D02*
X112428568Y-94710952D01*
X112428568Y-93758571D02*
X112333330Y-93710952D01*
X112333330Y-93710952D02*
X112142854Y-93710952D01*
X112142854Y-93710952D02*
X112047616Y-93758571D01*
X112047616Y-93758571D02*
X111999997Y-93806190D01*
X111999997Y-93806190D02*
X111952378Y-93901428D01*
X111952378Y-93901428D02*
X111952378Y-94187142D01*
X111952378Y-94187142D02*
X111999997Y-94282380D01*
X111999997Y-94282380D02*
X112047616Y-94330000D01*
X112047616Y-94330000D02*
X112142854Y-94377619D01*
X112142854Y-94377619D02*
X112333330Y-94377619D01*
X112333330Y-94377619D02*
X112428568Y-94330000D01*
X123904761Y-70507619D02*
X123333333Y-70507619D01*
X123619047Y-71507619D02*
X123619047Y-70507619D01*
X122999999Y-71507619D02*
X122999999Y-70840952D01*
X122999999Y-71031428D02*
X122952380Y-70936190D01*
X122952380Y-70936190D02*
X122904761Y-70888571D01*
X122904761Y-70888571D02*
X122809523Y-70840952D01*
X122809523Y-70840952D02*
X122714285Y-70840952D01*
X121952380Y-71507619D02*
X121952380Y-70983809D01*
X121952380Y-70983809D02*
X121999999Y-70888571D01*
X121999999Y-70888571D02*
X122095237Y-70840952D01*
X122095237Y-70840952D02*
X122285713Y-70840952D01*
X122285713Y-70840952D02*
X122380951Y-70888571D01*
X121952380Y-71460000D02*
X122047618Y-71507619D01*
X122047618Y-71507619D02*
X122285713Y-71507619D01*
X122285713Y-71507619D02*
X122380951Y-71460000D01*
X122380951Y-71460000D02*
X122428570Y-71364761D01*
X122428570Y-71364761D02*
X122428570Y-71269523D01*
X122428570Y-71269523D02*
X122380951Y-71174285D01*
X122380951Y-71174285D02*
X122285713Y-71126666D01*
X122285713Y-71126666D02*
X122047618Y-71126666D01*
X122047618Y-71126666D02*
X121952380Y-71079047D01*
X121476189Y-70840952D02*
X121476189Y-71507619D01*
X121476189Y-70936190D02*
X121428570Y-70888571D01*
X121428570Y-70888571D02*
X121333332Y-70840952D01*
X121333332Y-70840952D02*
X121190475Y-70840952D01*
X121190475Y-70840952D02*
X121095237Y-70888571D01*
X121095237Y-70888571D02*
X121047618Y-70983809D01*
X121047618Y-70983809D02*
X121047618Y-71507619D01*
X120619046Y-71460000D02*
X120523808Y-71507619D01*
X120523808Y-71507619D02*
X120333332Y-71507619D01*
X120333332Y-71507619D02*
X120238094Y-71460000D01*
X120238094Y-71460000D02*
X120190475Y-71364761D01*
X120190475Y-71364761D02*
X120190475Y-71317142D01*
X120190475Y-71317142D02*
X120238094Y-71221904D01*
X120238094Y-71221904D02*
X120333332Y-71174285D01*
X120333332Y-71174285D02*
X120476189Y-71174285D01*
X120476189Y-71174285D02*
X120571427Y-71126666D01*
X120571427Y-71126666D02*
X120619046Y-71031428D01*
X120619046Y-71031428D02*
X120619046Y-70983809D01*
X120619046Y-70983809D02*
X120571427Y-70888571D01*
X120571427Y-70888571D02*
X120476189Y-70840952D01*
X120476189Y-70840952D02*
X120333332Y-70840952D01*
X120333332Y-70840952D02*
X120238094Y-70888571D01*
X119761903Y-71507619D02*
X119761903Y-70840952D01*
X119761903Y-70507619D02*
X119809522Y-70555238D01*
X119809522Y-70555238D02*
X119761903Y-70602857D01*
X119761903Y-70602857D02*
X119714284Y-70555238D01*
X119714284Y-70555238D02*
X119761903Y-70507619D01*
X119761903Y-70507619D02*
X119761903Y-70602857D01*
X119333332Y-71460000D02*
X119238094Y-71507619D01*
X119238094Y-71507619D02*
X119047618Y-71507619D01*
X119047618Y-71507619D02*
X118952380Y-71460000D01*
X118952380Y-71460000D02*
X118904761Y-71364761D01*
X118904761Y-71364761D02*
X118904761Y-71317142D01*
X118904761Y-71317142D02*
X118952380Y-71221904D01*
X118952380Y-71221904D02*
X119047618Y-71174285D01*
X119047618Y-71174285D02*
X119190475Y-71174285D01*
X119190475Y-71174285D02*
X119285713Y-71126666D01*
X119285713Y-71126666D02*
X119333332Y-71031428D01*
X119333332Y-71031428D02*
X119333332Y-70983809D01*
X119333332Y-70983809D02*
X119285713Y-70888571D01*
X119285713Y-70888571D02*
X119190475Y-70840952D01*
X119190475Y-70840952D02*
X119047618Y-70840952D01*
X119047618Y-70840952D02*
X118952380Y-70888571D01*
X118619046Y-70840952D02*
X118238094Y-70840952D01*
X118476189Y-70507619D02*
X118476189Y-71364761D01*
X118476189Y-71364761D02*
X118428570Y-71460000D01*
X118428570Y-71460000D02*
X118333332Y-71507619D01*
X118333332Y-71507619D02*
X118238094Y-71507619D01*
X117761903Y-71507619D02*
X117857141Y-71460000D01*
X117857141Y-71460000D02*
X117904760Y-71412380D01*
X117904760Y-71412380D02*
X117952379Y-71317142D01*
X117952379Y-71317142D02*
X117952379Y-71031428D01*
X117952379Y-71031428D02*
X117904760Y-70936190D01*
X117904760Y-70936190D02*
X117857141Y-70888571D01*
X117857141Y-70888571D02*
X117761903Y-70840952D01*
X117761903Y-70840952D02*
X117619046Y-70840952D01*
X117619046Y-70840952D02*
X117523808Y-70888571D01*
X117523808Y-70888571D02*
X117476189Y-70936190D01*
X117476189Y-70936190D02*
X117428570Y-71031428D01*
X117428570Y-71031428D02*
X117428570Y-71317142D01*
X117428570Y-71317142D02*
X117476189Y-71412380D01*
X117476189Y-71412380D02*
X117523808Y-71460000D01*
X117523808Y-71460000D02*
X117619046Y-71507619D01*
X117619046Y-71507619D02*
X117761903Y-71507619D01*
X116999998Y-71507619D02*
X116999998Y-70840952D01*
X116999998Y-71031428D02*
X116952379Y-70936190D01*
X116952379Y-70936190D02*
X116904760Y-70888571D01*
X116904760Y-70888571D02*
X116809522Y-70840952D01*
X116809522Y-70840952D02*
X116714284Y-70840952D01*
X116428569Y-71460000D02*
X116333331Y-71507619D01*
X116333331Y-71507619D02*
X116142855Y-71507619D01*
X116142855Y-71507619D02*
X116047617Y-71460000D01*
X116047617Y-71460000D02*
X115999998Y-71364761D01*
X115999998Y-71364761D02*
X115999998Y-71317142D01*
X115999998Y-71317142D02*
X116047617Y-71221904D01*
X116047617Y-71221904D02*
X116142855Y-71174285D01*
X116142855Y-71174285D02*
X116285712Y-71174285D01*
X116285712Y-71174285D02*
X116380950Y-71126666D01*
X116380950Y-71126666D02*
X116428569Y-71031428D01*
X116428569Y-71031428D02*
X116428569Y-70983809D01*
X116428569Y-70983809D02*
X116380950Y-70888571D01*
X116380950Y-70888571D02*
X116285712Y-70840952D01*
X116285712Y-70840952D02*
X116142855Y-70840952D01*
X116142855Y-70840952D02*
X116047617Y-70888571D01*
X114380950Y-71507619D02*
X114380950Y-70983809D01*
X114380950Y-70983809D02*
X114428569Y-70888571D01*
X114428569Y-70888571D02*
X114523807Y-70840952D01*
X114523807Y-70840952D02*
X114714283Y-70840952D01*
X114714283Y-70840952D02*
X114809521Y-70888571D01*
X114380950Y-71460000D02*
X114476188Y-71507619D01*
X114476188Y-71507619D02*
X114714283Y-71507619D01*
X114714283Y-71507619D02*
X114809521Y-71460000D01*
X114809521Y-71460000D02*
X114857140Y-71364761D01*
X114857140Y-71364761D02*
X114857140Y-71269523D01*
X114857140Y-71269523D02*
X114809521Y-71174285D01*
X114809521Y-71174285D02*
X114714283Y-71126666D01*
X114714283Y-71126666D02*
X114476188Y-71126666D01*
X114476188Y-71126666D02*
X114380950Y-71079047D01*
X113904759Y-71507619D02*
X113904759Y-70840952D01*
X113904759Y-71031428D02*
X113857140Y-70936190D01*
X113857140Y-70936190D02*
X113809521Y-70888571D01*
X113809521Y-70888571D02*
X113714283Y-70840952D01*
X113714283Y-70840952D02*
X113619045Y-70840952D01*
X112904759Y-71460000D02*
X112999997Y-71507619D01*
X112999997Y-71507619D02*
X113190473Y-71507619D01*
X113190473Y-71507619D02*
X113285711Y-71460000D01*
X113285711Y-71460000D02*
X113333330Y-71364761D01*
X113333330Y-71364761D02*
X113333330Y-70983809D01*
X113333330Y-70983809D02*
X113285711Y-70888571D01*
X113285711Y-70888571D02*
X113190473Y-70840952D01*
X113190473Y-70840952D02*
X112999997Y-70840952D01*
X112999997Y-70840952D02*
X112904759Y-70888571D01*
X112904759Y-70888571D02*
X112857140Y-70983809D01*
X112857140Y-70983809D02*
X112857140Y-71079047D01*
X112857140Y-71079047D02*
X113333330Y-71174285D01*
X111333330Y-70983809D02*
X111190473Y-71031428D01*
X111190473Y-71031428D02*
X111142854Y-71079047D01*
X111142854Y-71079047D02*
X111095235Y-71174285D01*
X111095235Y-71174285D02*
X111095235Y-71317142D01*
X111095235Y-71317142D02*
X111142854Y-71412380D01*
X111142854Y-71412380D02*
X111190473Y-71460000D01*
X111190473Y-71460000D02*
X111285711Y-71507619D01*
X111285711Y-71507619D02*
X111666663Y-71507619D01*
X111666663Y-71507619D02*
X111666663Y-70507619D01*
X111666663Y-70507619D02*
X111333330Y-70507619D01*
X111333330Y-70507619D02*
X111238092Y-70555238D01*
X111238092Y-70555238D02*
X111190473Y-70602857D01*
X111190473Y-70602857D02*
X111142854Y-70698095D01*
X111142854Y-70698095D02*
X111142854Y-70793333D01*
X111142854Y-70793333D02*
X111190473Y-70888571D01*
X111190473Y-70888571D02*
X111238092Y-70936190D01*
X111238092Y-70936190D02*
X111333330Y-70983809D01*
X111333330Y-70983809D02*
X111666663Y-70983809D01*
X110380949Y-70507619D02*
X110380949Y-71221904D01*
X110380949Y-71221904D02*
X110428568Y-71364761D01*
X110428568Y-71364761D02*
X110523806Y-71460000D01*
X110523806Y-71460000D02*
X110666663Y-71507619D01*
X110666663Y-71507619D02*
X110761901Y-71507619D01*
X110047615Y-70507619D02*
X109476187Y-70507619D01*
X109761901Y-71507619D02*
X109761901Y-70507619D01*
X108380948Y-71507619D02*
X108380948Y-70507619D01*
X108380948Y-70507619D02*
X107809520Y-71507619D01*
X107809520Y-71507619D02*
X107809520Y-70507619D01*
X107333329Y-71507619D02*
X107333329Y-70507619D01*
X107333329Y-70507619D02*
X106952377Y-70507619D01*
X106952377Y-70507619D02*
X106857139Y-70555238D01*
X106857139Y-70555238D02*
X106809520Y-70602857D01*
X106809520Y-70602857D02*
X106761901Y-70698095D01*
X106761901Y-70698095D02*
X106761901Y-70840952D01*
X106761901Y-70840952D02*
X106809520Y-70936190D01*
X106809520Y-70936190D02*
X106857139Y-70983809D01*
X106857139Y-70983809D02*
X106952377Y-71031428D01*
X106952377Y-71031428D02*
X107333329Y-71031428D01*
X106333329Y-71507619D02*
X106333329Y-70507619D01*
X106333329Y-70507619D02*
X105761901Y-71507619D01*
X105761901Y-71507619D02*
X105761901Y-70507619D01*
X123428571Y-72603809D02*
X123285714Y-72651428D01*
X123285714Y-72651428D02*
X123238095Y-72699047D01*
X123238095Y-72699047D02*
X123190476Y-72794285D01*
X123190476Y-72794285D02*
X123190476Y-72937142D01*
X123190476Y-72937142D02*
X123238095Y-73032380D01*
X123238095Y-73032380D02*
X123285714Y-73080000D01*
X123285714Y-73080000D02*
X123380952Y-73127619D01*
X123380952Y-73127619D02*
X123761904Y-73127619D01*
X123761904Y-73127619D02*
X123761904Y-72127619D01*
X123761904Y-72127619D02*
X123428571Y-72127619D01*
X123428571Y-72127619D02*
X123333333Y-72175238D01*
X123333333Y-72175238D02*
X123285714Y-72222857D01*
X123285714Y-72222857D02*
X123238095Y-72318095D01*
X123238095Y-72318095D02*
X123238095Y-72413333D01*
X123238095Y-72413333D02*
X123285714Y-72508571D01*
X123285714Y-72508571D02*
X123333333Y-72556190D01*
X123333333Y-72556190D02*
X123428571Y-72603809D01*
X123428571Y-72603809D02*
X123761904Y-72603809D01*
X122190476Y-73032380D02*
X122238095Y-73080000D01*
X122238095Y-73080000D02*
X122380952Y-73127619D01*
X122380952Y-73127619D02*
X122476190Y-73127619D01*
X122476190Y-73127619D02*
X122619047Y-73080000D01*
X122619047Y-73080000D02*
X122714285Y-72984761D01*
X122714285Y-72984761D02*
X122761904Y-72889523D01*
X122761904Y-72889523D02*
X122809523Y-72699047D01*
X122809523Y-72699047D02*
X122809523Y-72556190D01*
X122809523Y-72556190D02*
X122761904Y-72365714D01*
X122761904Y-72365714D02*
X122714285Y-72270476D01*
X122714285Y-72270476D02*
X122619047Y-72175238D01*
X122619047Y-72175238D02*
X122476190Y-72127619D01*
X122476190Y-72127619D02*
X122380952Y-72127619D01*
X122380952Y-72127619D02*
X122238095Y-72175238D01*
X122238095Y-72175238D02*
X122190476Y-72222857D01*
X121857142Y-72127619D02*
X121238095Y-72127619D01*
X121238095Y-72127619D02*
X121571428Y-72508571D01*
X121571428Y-72508571D02*
X121428571Y-72508571D01*
X121428571Y-72508571D02*
X121333333Y-72556190D01*
X121333333Y-72556190D02*
X121285714Y-72603809D01*
X121285714Y-72603809D02*
X121238095Y-72699047D01*
X121238095Y-72699047D02*
X121238095Y-72937142D01*
X121238095Y-72937142D02*
X121285714Y-73032380D01*
X121285714Y-73032380D02*
X121333333Y-73080000D01*
X121333333Y-73080000D02*
X121428571Y-73127619D01*
X121428571Y-73127619D02*
X121714285Y-73127619D01*
X121714285Y-73127619D02*
X121809523Y-73080000D01*
X121809523Y-73080000D02*
X121857142Y-73032380D01*
X120904761Y-72127619D02*
X120285714Y-72127619D01*
X120285714Y-72127619D02*
X120619047Y-72508571D01*
X120619047Y-72508571D02*
X120476190Y-72508571D01*
X120476190Y-72508571D02*
X120380952Y-72556190D01*
X120380952Y-72556190D02*
X120333333Y-72603809D01*
X120333333Y-72603809D02*
X120285714Y-72699047D01*
X120285714Y-72699047D02*
X120285714Y-72937142D01*
X120285714Y-72937142D02*
X120333333Y-73032380D01*
X120333333Y-73032380D02*
X120380952Y-73080000D01*
X120380952Y-73080000D02*
X120476190Y-73127619D01*
X120476190Y-73127619D02*
X120761904Y-73127619D01*
X120761904Y-73127619D02*
X120857142Y-73080000D01*
X120857142Y-73080000D02*
X120904761Y-73032380D01*
X119952380Y-72127619D02*
X119285714Y-72127619D01*
X119285714Y-72127619D02*
X119714285Y-73127619D01*
X117999999Y-73127619D02*
X118095237Y-73080000D01*
X118095237Y-73080000D02*
X118142856Y-73032380D01*
X118142856Y-73032380D02*
X118190475Y-72937142D01*
X118190475Y-72937142D02*
X118190475Y-72651428D01*
X118190475Y-72651428D02*
X118142856Y-72556190D01*
X118142856Y-72556190D02*
X118095237Y-72508571D01*
X118095237Y-72508571D02*
X117999999Y-72460952D01*
X117999999Y-72460952D02*
X117857142Y-72460952D01*
X117857142Y-72460952D02*
X117761904Y-72508571D01*
X117761904Y-72508571D02*
X117714285Y-72556190D01*
X117714285Y-72556190D02*
X117666666Y-72651428D01*
X117666666Y-72651428D02*
X117666666Y-72937142D01*
X117666666Y-72937142D02*
X117714285Y-73032380D01*
X117714285Y-73032380D02*
X117761904Y-73080000D01*
X117761904Y-73080000D02*
X117857142Y-73127619D01*
X117857142Y-73127619D02*
X117999999Y-73127619D01*
X117238094Y-73127619D02*
X117238094Y-72460952D01*
X117238094Y-72651428D02*
X117190475Y-72556190D01*
X117190475Y-72556190D02*
X117142856Y-72508571D01*
X117142856Y-72508571D02*
X117047618Y-72460952D01*
X117047618Y-72460952D02*
X116952380Y-72460952D01*
X115428570Y-73080000D02*
X115523808Y-73127619D01*
X115523808Y-73127619D02*
X115714284Y-73127619D01*
X115714284Y-73127619D02*
X115809522Y-73080000D01*
X115809522Y-73080000D02*
X115857141Y-73032380D01*
X115857141Y-73032380D02*
X115904760Y-72937142D01*
X115904760Y-72937142D02*
X115904760Y-72651428D01*
X115904760Y-72651428D02*
X115857141Y-72556190D01*
X115857141Y-72556190D02*
X115809522Y-72508571D01*
X115809522Y-72508571D02*
X115714284Y-72460952D01*
X115714284Y-72460952D02*
X115523808Y-72460952D01*
X115523808Y-72460952D02*
X115428570Y-72508571D01*
X114857141Y-73127619D02*
X114952379Y-73080000D01*
X114952379Y-73080000D02*
X114999998Y-73032380D01*
X114999998Y-73032380D02*
X115047617Y-72937142D01*
X115047617Y-72937142D02*
X115047617Y-72651428D01*
X115047617Y-72651428D02*
X114999998Y-72556190D01*
X114999998Y-72556190D02*
X114952379Y-72508571D01*
X114952379Y-72508571D02*
X114857141Y-72460952D01*
X114857141Y-72460952D02*
X114714284Y-72460952D01*
X114714284Y-72460952D02*
X114619046Y-72508571D01*
X114619046Y-72508571D02*
X114571427Y-72556190D01*
X114571427Y-72556190D02*
X114523808Y-72651428D01*
X114523808Y-72651428D02*
X114523808Y-72937142D01*
X114523808Y-72937142D02*
X114571427Y-73032380D01*
X114571427Y-73032380D02*
X114619046Y-73080000D01*
X114619046Y-73080000D02*
X114714284Y-73127619D01*
X114714284Y-73127619D02*
X114857141Y-73127619D01*
X114095236Y-73127619D02*
X114095236Y-72460952D01*
X114095236Y-72556190D02*
X114047617Y-72508571D01*
X114047617Y-72508571D02*
X113952379Y-72460952D01*
X113952379Y-72460952D02*
X113809522Y-72460952D01*
X113809522Y-72460952D02*
X113714284Y-72508571D01*
X113714284Y-72508571D02*
X113666665Y-72603809D01*
X113666665Y-72603809D02*
X113666665Y-73127619D01*
X113666665Y-72603809D02*
X113619046Y-72508571D01*
X113619046Y-72508571D02*
X113523808Y-72460952D01*
X113523808Y-72460952D02*
X113380951Y-72460952D01*
X113380951Y-72460952D02*
X113285712Y-72508571D01*
X113285712Y-72508571D02*
X113238093Y-72603809D01*
X113238093Y-72603809D02*
X113238093Y-73127619D01*
X112761903Y-72460952D02*
X112761903Y-73460952D01*
X112761903Y-72508571D02*
X112666665Y-72460952D01*
X112666665Y-72460952D02*
X112476189Y-72460952D01*
X112476189Y-72460952D02*
X112380951Y-72508571D01*
X112380951Y-72508571D02*
X112333332Y-72556190D01*
X112333332Y-72556190D02*
X112285713Y-72651428D01*
X112285713Y-72651428D02*
X112285713Y-72937142D01*
X112285713Y-72937142D02*
X112333332Y-73032380D01*
X112333332Y-73032380D02*
X112380951Y-73080000D01*
X112380951Y-73080000D02*
X112476189Y-73127619D01*
X112476189Y-73127619D02*
X112666665Y-73127619D01*
X112666665Y-73127619D02*
X112761903Y-73080000D01*
X111428570Y-73127619D02*
X111428570Y-72603809D01*
X111428570Y-72603809D02*
X111476189Y-72508571D01*
X111476189Y-72508571D02*
X111571427Y-72460952D01*
X111571427Y-72460952D02*
X111761903Y-72460952D01*
X111761903Y-72460952D02*
X111857141Y-72508571D01*
X111428570Y-73080000D02*
X111523808Y-73127619D01*
X111523808Y-73127619D02*
X111761903Y-73127619D01*
X111761903Y-73127619D02*
X111857141Y-73080000D01*
X111857141Y-73080000D02*
X111904760Y-72984761D01*
X111904760Y-72984761D02*
X111904760Y-72889523D01*
X111904760Y-72889523D02*
X111857141Y-72794285D01*
X111857141Y-72794285D02*
X111761903Y-72746666D01*
X111761903Y-72746666D02*
X111523808Y-72746666D01*
X111523808Y-72746666D02*
X111428570Y-72699047D01*
X111095236Y-72460952D02*
X110714284Y-72460952D01*
X110952379Y-72127619D02*
X110952379Y-72984761D01*
X110952379Y-72984761D02*
X110904760Y-73080000D01*
X110904760Y-73080000D02*
X110809522Y-73127619D01*
X110809522Y-73127619D02*
X110714284Y-73127619D01*
X110380950Y-73127619D02*
X110380950Y-72460952D01*
X110380950Y-72127619D02*
X110428569Y-72175238D01*
X110428569Y-72175238D02*
X110380950Y-72222857D01*
X110380950Y-72222857D02*
X110333331Y-72175238D01*
X110333331Y-72175238D02*
X110380950Y-72127619D01*
X110380950Y-72127619D02*
X110380950Y-72222857D01*
X109904760Y-73127619D02*
X109904760Y-72127619D01*
X109904760Y-72508571D02*
X109809522Y-72460952D01*
X109809522Y-72460952D02*
X109619046Y-72460952D01*
X109619046Y-72460952D02*
X109523808Y-72508571D01*
X109523808Y-72508571D02*
X109476189Y-72556190D01*
X109476189Y-72556190D02*
X109428570Y-72651428D01*
X109428570Y-72651428D02*
X109428570Y-72937142D01*
X109428570Y-72937142D02*
X109476189Y-73032380D01*
X109476189Y-73032380D02*
X109523808Y-73080000D01*
X109523808Y-73080000D02*
X109619046Y-73127619D01*
X109619046Y-73127619D02*
X109809522Y-73127619D01*
X109809522Y-73127619D02*
X109904760Y-73080000D01*
X108857141Y-73127619D02*
X108952379Y-73080000D01*
X108952379Y-73080000D02*
X108999998Y-72984761D01*
X108999998Y-72984761D02*
X108999998Y-72127619D01*
X108095236Y-73080000D02*
X108190474Y-73127619D01*
X108190474Y-73127619D02*
X108380950Y-73127619D01*
X108380950Y-73127619D02*
X108476188Y-73080000D01*
X108476188Y-73080000D02*
X108523807Y-72984761D01*
X108523807Y-72984761D02*
X108523807Y-72603809D01*
X108523807Y-72603809D02*
X108476188Y-72508571D01*
X108476188Y-72508571D02*
X108380950Y-72460952D01*
X108380950Y-72460952D02*
X108190474Y-72460952D01*
X108190474Y-72460952D02*
X108095236Y-72508571D01*
X108095236Y-72508571D02*
X108047617Y-72603809D01*
X108047617Y-72603809D02*
X108047617Y-72699047D01*
X108047617Y-72699047D02*
X108523807Y-72794285D01*
X123761904Y-63507619D02*
X123761904Y-62507619D01*
X123190476Y-63507619D02*
X123619047Y-62936190D01*
X123190476Y-62507619D02*
X123761904Y-63079047D01*
X122238095Y-63507619D02*
X122809523Y-63507619D01*
X122523809Y-63507619D02*
X122523809Y-62507619D01*
X122523809Y-62507619D02*
X122619047Y-62650476D01*
X122619047Y-62650476D02*
X122714285Y-62745714D01*
X122714285Y-62745714D02*
X122809523Y-62793333D01*
X121809523Y-63412380D02*
X121761904Y-63460000D01*
X121761904Y-63460000D02*
X121809523Y-63507619D01*
X121809523Y-63507619D02*
X121857142Y-63460000D01*
X121857142Y-63460000D02*
X121809523Y-63412380D01*
X121809523Y-63412380D02*
X121809523Y-63507619D01*
X121809523Y-62888571D02*
X121761904Y-62936190D01*
X121761904Y-62936190D02*
X121809523Y-62983809D01*
X121809523Y-62983809D02*
X121857142Y-62936190D01*
X121857142Y-62936190D02*
X121809523Y-62888571D01*
X121809523Y-62888571D02*
X121809523Y-62983809D01*
X120047619Y-62555238D02*
X120142857Y-62507619D01*
X120142857Y-62507619D02*
X120285714Y-62507619D01*
X120285714Y-62507619D02*
X120428571Y-62555238D01*
X120428571Y-62555238D02*
X120523809Y-62650476D01*
X120523809Y-62650476D02*
X120571428Y-62745714D01*
X120571428Y-62745714D02*
X120619047Y-62936190D01*
X120619047Y-62936190D02*
X120619047Y-63079047D01*
X120619047Y-63079047D02*
X120571428Y-63269523D01*
X120571428Y-63269523D02*
X120523809Y-63364761D01*
X120523809Y-63364761D02*
X120428571Y-63460000D01*
X120428571Y-63460000D02*
X120285714Y-63507619D01*
X120285714Y-63507619D02*
X120190476Y-63507619D01*
X120190476Y-63507619D02*
X120047619Y-63460000D01*
X120047619Y-63460000D02*
X120000000Y-63412380D01*
X120000000Y-63412380D02*
X120000000Y-63079047D01*
X120000000Y-63079047D02*
X120190476Y-63079047D01*
X119142857Y-62507619D02*
X119333333Y-62507619D01*
X119333333Y-62507619D02*
X119428571Y-62555238D01*
X119428571Y-62555238D02*
X119476190Y-62602857D01*
X119476190Y-62602857D02*
X119571428Y-62745714D01*
X119571428Y-62745714D02*
X119619047Y-62936190D01*
X119619047Y-62936190D02*
X119619047Y-63317142D01*
X119619047Y-63317142D02*
X119571428Y-63412380D01*
X119571428Y-63412380D02*
X119523809Y-63460000D01*
X119523809Y-63460000D02*
X119428571Y-63507619D01*
X119428571Y-63507619D02*
X119238095Y-63507619D01*
X119238095Y-63507619D02*
X119142857Y-63460000D01*
X119142857Y-63460000D02*
X119095238Y-63412380D01*
X119095238Y-63412380D02*
X119047619Y-63317142D01*
X119047619Y-63317142D02*
X119047619Y-63079047D01*
X119047619Y-63079047D02*
X119095238Y-62983809D01*
X119095238Y-62983809D02*
X119142857Y-62936190D01*
X119142857Y-62936190D02*
X119238095Y-62888571D01*
X119238095Y-62888571D02*
X119428571Y-62888571D01*
X119428571Y-62888571D02*
X119523809Y-62936190D01*
X119523809Y-62936190D02*
X119571428Y-62983809D01*
X119571428Y-62983809D02*
X119619047Y-63079047D01*
X118619047Y-63507619D02*
X118619047Y-62507619D01*
X118047619Y-63507619D02*
X118476190Y-62936190D01*
X118047619Y-62507619D02*
X118619047Y-63079047D01*
X117619047Y-63126666D02*
X116857143Y-63126666D01*
X116428571Y-62602857D02*
X116380952Y-62555238D01*
X116380952Y-62555238D02*
X116285714Y-62507619D01*
X116285714Y-62507619D02*
X116047619Y-62507619D01*
X116047619Y-62507619D02*
X115952381Y-62555238D01*
X115952381Y-62555238D02*
X115904762Y-62602857D01*
X115904762Y-62602857D02*
X115857143Y-62698095D01*
X115857143Y-62698095D02*
X115857143Y-62793333D01*
X115857143Y-62793333D02*
X115904762Y-62936190D01*
X115904762Y-62936190D02*
X116476190Y-63507619D01*
X116476190Y-63507619D02*
X115857143Y-63507619D01*
X115095238Y-62983809D02*
X115428571Y-62983809D01*
X115428571Y-63507619D02*
X115428571Y-62507619D01*
X115428571Y-62507619D02*
X114952381Y-62507619D01*
X113809523Y-63507619D02*
X113809523Y-62840952D01*
X113809523Y-63031428D02*
X113761904Y-62936190D01*
X113761904Y-62936190D02*
X113714285Y-62888571D01*
X113714285Y-62888571D02*
X113619047Y-62840952D01*
X113619047Y-62840952D02*
X113523809Y-62840952D01*
X112809523Y-63460000D02*
X112904761Y-63507619D01*
X112904761Y-63507619D02*
X113095237Y-63507619D01*
X113095237Y-63507619D02*
X113190475Y-63460000D01*
X113190475Y-63460000D02*
X113238094Y-63364761D01*
X113238094Y-63364761D02*
X113238094Y-62983809D01*
X113238094Y-62983809D02*
X113190475Y-62888571D01*
X113190475Y-62888571D02*
X113095237Y-62840952D01*
X113095237Y-62840952D02*
X112904761Y-62840952D01*
X112904761Y-62840952D02*
X112809523Y-62888571D01*
X112809523Y-62888571D02*
X112761904Y-62983809D01*
X112761904Y-62983809D02*
X112761904Y-63079047D01*
X112761904Y-63079047D02*
X113238094Y-63174285D01*
X112190475Y-63507619D02*
X112285713Y-63460000D01*
X112285713Y-63460000D02*
X112333332Y-63364761D01*
X112333332Y-63364761D02*
X112333332Y-62507619D01*
X111380951Y-63507619D02*
X111380951Y-62983809D01*
X111380951Y-62983809D02*
X111428570Y-62888571D01*
X111428570Y-62888571D02*
X111523808Y-62840952D01*
X111523808Y-62840952D02*
X111714284Y-62840952D01*
X111714284Y-62840952D02*
X111809522Y-62888571D01*
X111380951Y-63460000D02*
X111476189Y-63507619D01*
X111476189Y-63507619D02*
X111714284Y-63507619D01*
X111714284Y-63507619D02*
X111809522Y-63460000D01*
X111809522Y-63460000D02*
X111857141Y-63364761D01*
X111857141Y-63364761D02*
X111857141Y-63269523D01*
X111857141Y-63269523D02*
X111809522Y-63174285D01*
X111809522Y-63174285D02*
X111714284Y-63126666D01*
X111714284Y-63126666D02*
X111476189Y-63126666D01*
X111476189Y-63126666D02*
X111380951Y-63079047D01*
X110999998Y-62840952D02*
X110761903Y-63507619D01*
X110523808Y-62840952D02*
X110761903Y-63507619D01*
X110761903Y-63507619D02*
X110857141Y-63745714D01*
X110857141Y-63745714D02*
X110904760Y-63793333D01*
X110904760Y-63793333D02*
X110999998Y-63840952D01*
X123619047Y-65127619D02*
X123714285Y-65080000D01*
X123714285Y-65080000D02*
X123761904Y-65032380D01*
X123761904Y-65032380D02*
X123809523Y-64937142D01*
X123809523Y-64937142D02*
X123809523Y-64651428D01*
X123809523Y-64651428D02*
X123761904Y-64556190D01*
X123761904Y-64556190D02*
X123714285Y-64508571D01*
X123714285Y-64508571D02*
X123619047Y-64460952D01*
X123619047Y-64460952D02*
X123476190Y-64460952D01*
X123476190Y-64460952D02*
X123380952Y-64508571D01*
X123380952Y-64508571D02*
X123333333Y-64556190D01*
X123333333Y-64556190D02*
X123285714Y-64651428D01*
X123285714Y-64651428D02*
X123285714Y-64937142D01*
X123285714Y-64937142D02*
X123333333Y-65032380D01*
X123333333Y-65032380D02*
X123380952Y-65080000D01*
X123380952Y-65080000D02*
X123476190Y-65127619D01*
X123476190Y-65127619D02*
X123619047Y-65127619D01*
X122857142Y-65127619D02*
X122857142Y-64460952D01*
X122857142Y-64651428D02*
X122809523Y-64556190D01*
X122809523Y-64556190D02*
X122761904Y-64508571D01*
X122761904Y-64508571D02*
X122666666Y-64460952D01*
X122666666Y-64460952D02*
X122571428Y-64460952D01*
X121047618Y-65080000D02*
X121142856Y-65127619D01*
X121142856Y-65127619D02*
X121333332Y-65127619D01*
X121333332Y-65127619D02*
X121428570Y-65080000D01*
X121428570Y-65080000D02*
X121476189Y-65032380D01*
X121476189Y-65032380D02*
X121523808Y-64937142D01*
X121523808Y-64937142D02*
X121523808Y-64651428D01*
X121523808Y-64651428D02*
X121476189Y-64556190D01*
X121476189Y-64556190D02*
X121428570Y-64508571D01*
X121428570Y-64508571D02*
X121333332Y-64460952D01*
X121333332Y-64460952D02*
X121142856Y-64460952D01*
X121142856Y-64460952D02*
X121047618Y-64508571D01*
X120476189Y-65127619D02*
X120571427Y-65080000D01*
X120571427Y-65080000D02*
X120619046Y-65032380D01*
X120619046Y-65032380D02*
X120666665Y-64937142D01*
X120666665Y-64937142D02*
X120666665Y-64651428D01*
X120666665Y-64651428D02*
X120619046Y-64556190D01*
X120619046Y-64556190D02*
X120571427Y-64508571D01*
X120571427Y-64508571D02*
X120476189Y-64460952D01*
X120476189Y-64460952D02*
X120333332Y-64460952D01*
X120333332Y-64460952D02*
X120238094Y-64508571D01*
X120238094Y-64508571D02*
X120190475Y-64556190D01*
X120190475Y-64556190D02*
X120142856Y-64651428D01*
X120142856Y-64651428D02*
X120142856Y-64937142D01*
X120142856Y-64937142D02*
X120190475Y-65032380D01*
X120190475Y-65032380D02*
X120238094Y-65080000D01*
X120238094Y-65080000D02*
X120333332Y-65127619D01*
X120333332Y-65127619D02*
X120476189Y-65127619D01*
X119714284Y-65127619D02*
X119714284Y-64460952D01*
X119714284Y-64556190D02*
X119666665Y-64508571D01*
X119666665Y-64508571D02*
X119571427Y-64460952D01*
X119571427Y-64460952D02*
X119428570Y-64460952D01*
X119428570Y-64460952D02*
X119333332Y-64508571D01*
X119333332Y-64508571D02*
X119285713Y-64603809D01*
X119285713Y-64603809D02*
X119285713Y-65127619D01*
X119285713Y-64603809D02*
X119238094Y-64508571D01*
X119238094Y-64508571D02*
X119142856Y-64460952D01*
X119142856Y-64460952D02*
X118999999Y-64460952D01*
X118999999Y-64460952D02*
X118904760Y-64508571D01*
X118904760Y-64508571D02*
X118857141Y-64603809D01*
X118857141Y-64603809D02*
X118857141Y-65127619D01*
X118380951Y-64460952D02*
X118380951Y-65460952D01*
X118380951Y-64508571D02*
X118285713Y-64460952D01*
X118285713Y-64460952D02*
X118095237Y-64460952D01*
X118095237Y-64460952D02*
X117999999Y-64508571D01*
X117999999Y-64508571D02*
X117952380Y-64556190D01*
X117952380Y-64556190D02*
X117904761Y-64651428D01*
X117904761Y-64651428D02*
X117904761Y-64937142D01*
X117904761Y-64937142D02*
X117952380Y-65032380D01*
X117952380Y-65032380D02*
X117999999Y-65080000D01*
X117999999Y-65080000D02*
X118095237Y-65127619D01*
X118095237Y-65127619D02*
X118285713Y-65127619D01*
X118285713Y-65127619D02*
X118380951Y-65080000D01*
X117047618Y-65127619D02*
X117047618Y-64603809D01*
X117047618Y-64603809D02*
X117095237Y-64508571D01*
X117095237Y-64508571D02*
X117190475Y-64460952D01*
X117190475Y-64460952D02*
X117380951Y-64460952D01*
X117380951Y-64460952D02*
X117476189Y-64508571D01*
X117047618Y-65080000D02*
X117142856Y-65127619D01*
X117142856Y-65127619D02*
X117380951Y-65127619D01*
X117380951Y-65127619D02*
X117476189Y-65080000D01*
X117476189Y-65080000D02*
X117523808Y-64984761D01*
X117523808Y-64984761D02*
X117523808Y-64889523D01*
X117523808Y-64889523D02*
X117476189Y-64794285D01*
X117476189Y-64794285D02*
X117380951Y-64746666D01*
X117380951Y-64746666D02*
X117142856Y-64746666D01*
X117142856Y-64746666D02*
X117047618Y-64699047D01*
X116714284Y-64460952D02*
X116333332Y-64460952D01*
X116571427Y-64127619D02*
X116571427Y-64984761D01*
X116571427Y-64984761D02*
X116523808Y-65080000D01*
X116523808Y-65080000D02*
X116428570Y-65127619D01*
X116428570Y-65127619D02*
X116333332Y-65127619D01*
X115999998Y-65127619D02*
X115999998Y-64460952D01*
X115999998Y-64127619D02*
X116047617Y-64175238D01*
X116047617Y-64175238D02*
X115999998Y-64222857D01*
X115999998Y-64222857D02*
X115952379Y-64175238D01*
X115952379Y-64175238D02*
X115999998Y-64127619D01*
X115999998Y-64127619D02*
X115999998Y-64222857D01*
X115523808Y-65127619D02*
X115523808Y-64127619D01*
X115523808Y-64508571D02*
X115428570Y-64460952D01*
X115428570Y-64460952D02*
X115238094Y-64460952D01*
X115238094Y-64460952D02*
X115142856Y-64508571D01*
X115142856Y-64508571D02*
X115095237Y-64556190D01*
X115095237Y-64556190D02*
X115047618Y-64651428D01*
X115047618Y-64651428D02*
X115047618Y-64937142D01*
X115047618Y-64937142D02*
X115095237Y-65032380D01*
X115095237Y-65032380D02*
X115142856Y-65080000D01*
X115142856Y-65080000D02*
X115238094Y-65127619D01*
X115238094Y-65127619D02*
X115428570Y-65127619D01*
X115428570Y-65127619D02*
X115523808Y-65080000D01*
X114476189Y-65127619D02*
X114571427Y-65080000D01*
X114571427Y-65080000D02*
X114619046Y-64984761D01*
X114619046Y-64984761D02*
X114619046Y-64127619D01*
X113714284Y-65080000D02*
X113809522Y-65127619D01*
X113809522Y-65127619D02*
X113999998Y-65127619D01*
X113999998Y-65127619D02*
X114095236Y-65080000D01*
X114095236Y-65080000D02*
X114142855Y-64984761D01*
X114142855Y-64984761D02*
X114142855Y-64603809D01*
X114142855Y-64603809D02*
X114095236Y-64508571D01*
X114095236Y-64508571D02*
X113999998Y-64460952D01*
X113999998Y-64460952D02*
X113809522Y-64460952D01*
X113809522Y-64460952D02*
X113714284Y-64508571D01*
X113714284Y-64508571D02*
X113666665Y-64603809D01*
X113666665Y-64603809D02*
X113666665Y-64699047D01*
X113666665Y-64699047D02*
X114142855Y-64794285D01*
X123904761Y-66507619D02*
X123333333Y-66507619D01*
X123619047Y-67507619D02*
X123619047Y-66507619D01*
X122999999Y-67507619D02*
X122999999Y-66507619D01*
X122999999Y-66507619D02*
X122619047Y-66507619D01*
X122619047Y-66507619D02*
X122523809Y-66555238D01*
X122523809Y-66555238D02*
X122476190Y-66602857D01*
X122476190Y-66602857D02*
X122428571Y-66698095D01*
X122428571Y-66698095D02*
X122428571Y-66840952D01*
X122428571Y-66840952D02*
X122476190Y-66936190D01*
X122476190Y-66936190D02*
X122523809Y-66983809D01*
X122523809Y-66983809D02*
X122619047Y-67031428D01*
X122619047Y-67031428D02*
X122999999Y-67031428D01*
X122095237Y-67507619D02*
X121571428Y-66840952D01*
X122095237Y-66840952D02*
X121571428Y-67507619D01*
X121190475Y-67412380D02*
X121142856Y-67460000D01*
X121142856Y-67460000D02*
X121190475Y-67507619D01*
X121190475Y-67507619D02*
X121238094Y-67460000D01*
X121238094Y-67460000D02*
X121190475Y-67412380D01*
X121190475Y-67412380D02*
X121190475Y-67507619D01*
X121190475Y-66888571D02*
X121142856Y-66936190D01*
X121142856Y-66936190D02*
X121190475Y-66983809D01*
X121190475Y-66983809D02*
X121238094Y-66936190D01*
X121238094Y-66936190D02*
X121190475Y-66888571D01*
X121190475Y-66888571D02*
X121190475Y-66983809D01*
X119380952Y-67507619D02*
X119714285Y-67031428D01*
X119952380Y-67507619D02*
X119952380Y-66507619D01*
X119952380Y-66507619D02*
X119571428Y-66507619D01*
X119571428Y-66507619D02*
X119476190Y-66555238D01*
X119476190Y-66555238D02*
X119428571Y-66602857D01*
X119428571Y-66602857D02*
X119380952Y-66698095D01*
X119380952Y-66698095D02*
X119380952Y-66840952D01*
X119380952Y-66840952D02*
X119428571Y-66936190D01*
X119428571Y-66936190D02*
X119476190Y-66983809D01*
X119476190Y-66983809D02*
X119571428Y-67031428D01*
X119571428Y-67031428D02*
X119952380Y-67031428D01*
X118999999Y-67460000D02*
X118857142Y-67507619D01*
X118857142Y-67507619D02*
X118619047Y-67507619D01*
X118619047Y-67507619D02*
X118523809Y-67460000D01*
X118523809Y-67460000D02*
X118476190Y-67412380D01*
X118476190Y-67412380D02*
X118428571Y-67317142D01*
X118428571Y-67317142D02*
X118428571Y-67221904D01*
X118428571Y-67221904D02*
X118476190Y-67126666D01*
X118476190Y-67126666D02*
X118523809Y-67079047D01*
X118523809Y-67079047D02*
X118619047Y-67031428D01*
X118619047Y-67031428D02*
X118809523Y-66983809D01*
X118809523Y-66983809D02*
X118904761Y-66936190D01*
X118904761Y-66936190D02*
X118952380Y-66888571D01*
X118952380Y-66888571D02*
X118999999Y-66793333D01*
X118999999Y-66793333D02*
X118999999Y-66698095D01*
X118999999Y-66698095D02*
X118952380Y-66602857D01*
X118952380Y-66602857D02*
X118904761Y-66555238D01*
X118904761Y-66555238D02*
X118809523Y-66507619D01*
X118809523Y-66507619D02*
X118571428Y-66507619D01*
X118571428Y-66507619D02*
X118428571Y-66555238D01*
X117999999Y-67507619D02*
X117999999Y-66507619D01*
X117999999Y-66507619D02*
X117619047Y-66507619D01*
X117619047Y-66507619D02*
X117523809Y-66555238D01*
X117523809Y-66555238D02*
X117476190Y-66602857D01*
X117476190Y-66602857D02*
X117428571Y-66698095D01*
X117428571Y-66698095D02*
X117428571Y-66840952D01*
X117428571Y-66840952D02*
X117476190Y-66936190D01*
X117476190Y-66936190D02*
X117523809Y-66983809D01*
X117523809Y-66983809D02*
X117619047Y-67031428D01*
X117619047Y-67031428D02*
X117999999Y-67031428D01*
X116428571Y-67507619D02*
X116761904Y-67031428D01*
X116999999Y-67507619D02*
X116999999Y-66507619D01*
X116999999Y-66507619D02*
X116619047Y-66507619D01*
X116619047Y-66507619D02*
X116523809Y-66555238D01*
X116523809Y-66555238D02*
X116476190Y-66602857D01*
X116476190Y-66602857D02*
X116428571Y-66698095D01*
X116428571Y-66698095D02*
X116428571Y-66840952D01*
X116428571Y-66840952D02*
X116476190Y-66936190D01*
X116476190Y-66936190D02*
X116523809Y-66983809D01*
X116523809Y-66983809D02*
X116619047Y-67031428D01*
X116619047Y-67031428D02*
X116999999Y-67031428D01*
X115809523Y-66507619D02*
X115619047Y-66507619D01*
X115619047Y-66507619D02*
X115523809Y-66555238D01*
X115523809Y-66555238D02*
X115428571Y-66650476D01*
X115428571Y-66650476D02*
X115380952Y-66840952D01*
X115380952Y-66840952D02*
X115380952Y-67174285D01*
X115380952Y-67174285D02*
X115428571Y-67364761D01*
X115428571Y-67364761D02*
X115523809Y-67460000D01*
X115523809Y-67460000D02*
X115619047Y-67507619D01*
X115619047Y-67507619D02*
X115809523Y-67507619D01*
X115809523Y-67507619D02*
X115904761Y-67460000D01*
X115904761Y-67460000D02*
X115999999Y-67364761D01*
X115999999Y-67364761D02*
X116047618Y-67174285D01*
X116047618Y-67174285D02*
X116047618Y-66840952D01*
X116047618Y-66840952D02*
X115999999Y-66650476D01*
X115999999Y-66650476D02*
X115904761Y-66555238D01*
X115904761Y-66555238D02*
X115809523Y-66507619D01*
X114238094Y-66602857D02*
X114190475Y-66555238D01*
X114190475Y-66555238D02*
X114095237Y-66507619D01*
X114095237Y-66507619D02*
X113857142Y-66507619D01*
X113857142Y-66507619D02*
X113761904Y-66555238D01*
X113761904Y-66555238D02*
X113714285Y-66602857D01*
X113714285Y-66602857D02*
X113666666Y-66698095D01*
X113666666Y-66698095D02*
X113666666Y-66793333D01*
X113666666Y-66793333D02*
X113714285Y-66936190D01*
X113714285Y-66936190D02*
X114285713Y-67507619D01*
X114285713Y-67507619D02*
X113666666Y-67507619D01*
X112809523Y-66507619D02*
X112999999Y-66507619D01*
X112999999Y-66507619D02*
X113095237Y-66555238D01*
X113095237Y-66555238D02*
X113142856Y-66602857D01*
X113142856Y-66602857D02*
X113238094Y-66745714D01*
X113238094Y-66745714D02*
X113285713Y-66936190D01*
X113285713Y-66936190D02*
X113285713Y-67317142D01*
X113285713Y-67317142D02*
X113238094Y-67412380D01*
X113238094Y-67412380D02*
X113190475Y-67460000D01*
X113190475Y-67460000D02*
X113095237Y-67507619D01*
X113095237Y-67507619D02*
X112904761Y-67507619D01*
X112904761Y-67507619D02*
X112809523Y-67460000D01*
X112809523Y-67460000D02*
X112761904Y-67412380D01*
X112761904Y-67412380D02*
X112714285Y-67317142D01*
X112714285Y-67317142D02*
X112714285Y-67079047D01*
X112714285Y-67079047D02*
X112761904Y-66983809D01*
X112761904Y-66983809D02*
X112809523Y-66936190D01*
X112809523Y-66936190D02*
X112904761Y-66888571D01*
X112904761Y-66888571D02*
X113095237Y-66888571D01*
X113095237Y-66888571D02*
X113190475Y-66936190D01*
X113190475Y-66936190D02*
X113238094Y-66983809D01*
X113238094Y-66983809D02*
X113285713Y-67079047D01*
X112333332Y-66602857D02*
X112285713Y-66555238D01*
X112285713Y-66555238D02*
X112190475Y-66507619D01*
X112190475Y-66507619D02*
X111952380Y-66507619D01*
X111952380Y-66507619D02*
X111857142Y-66555238D01*
X111857142Y-66555238D02*
X111809523Y-66602857D01*
X111809523Y-66602857D02*
X111761904Y-66698095D01*
X111761904Y-66698095D02*
X111761904Y-66793333D01*
X111761904Y-66793333D02*
X111809523Y-66936190D01*
X111809523Y-66936190D02*
X112380951Y-67507619D01*
X112380951Y-67507619D02*
X111761904Y-67507619D01*
X111333332Y-67126666D02*
X110571428Y-67126666D01*
X110142856Y-66602857D02*
X110095237Y-66555238D01*
X110095237Y-66555238D02*
X109999999Y-66507619D01*
X109999999Y-66507619D02*
X109761904Y-66507619D01*
X109761904Y-66507619D02*
X109666666Y-66555238D01*
X109666666Y-66555238D02*
X109619047Y-66602857D01*
X109619047Y-66602857D02*
X109571428Y-66698095D01*
X109571428Y-66698095D02*
X109571428Y-66793333D01*
X109571428Y-66793333D02*
X109619047Y-66936190D01*
X109619047Y-66936190D02*
X110190475Y-67507619D01*
X110190475Y-67507619D02*
X109571428Y-67507619D01*
X108952380Y-66507619D02*
X108857142Y-66507619D01*
X108857142Y-66507619D02*
X108761904Y-66555238D01*
X108761904Y-66555238D02*
X108714285Y-66602857D01*
X108714285Y-66602857D02*
X108666666Y-66698095D01*
X108666666Y-66698095D02*
X108619047Y-66888571D01*
X108619047Y-66888571D02*
X108619047Y-67126666D01*
X108619047Y-67126666D02*
X108666666Y-67317142D01*
X108666666Y-67317142D02*
X108714285Y-67412380D01*
X108714285Y-67412380D02*
X108761904Y-67460000D01*
X108761904Y-67460000D02*
X108857142Y-67507619D01*
X108857142Y-67507619D02*
X108952380Y-67507619D01*
X108952380Y-67507619D02*
X109047618Y-67460000D01*
X109047618Y-67460000D02*
X109095237Y-67412380D01*
X109095237Y-67412380D02*
X109142856Y-67317142D01*
X109142856Y-67317142D02*
X109190475Y-67126666D01*
X109190475Y-67126666D02*
X109190475Y-66888571D01*
X109190475Y-66888571D02*
X109142856Y-66698095D01*
X109142856Y-66698095D02*
X109095237Y-66602857D01*
X109095237Y-66602857D02*
X109047618Y-66555238D01*
X109047618Y-66555238D02*
X108952380Y-66507619D01*
X108285713Y-66507619D02*
X107666666Y-66507619D01*
X107666666Y-66507619D02*
X107999999Y-66888571D01*
X107999999Y-66888571D02*
X107857142Y-66888571D01*
X107857142Y-66888571D02*
X107761904Y-66936190D01*
X107761904Y-66936190D02*
X107714285Y-66983809D01*
X107714285Y-66983809D02*
X107666666Y-67079047D01*
X107666666Y-67079047D02*
X107666666Y-67317142D01*
X107666666Y-67317142D02*
X107714285Y-67412380D01*
X107714285Y-67412380D02*
X107761904Y-67460000D01*
X107761904Y-67460000D02*
X107857142Y-67507619D01*
X107857142Y-67507619D02*
X108142856Y-67507619D01*
X108142856Y-67507619D02*
X108238094Y-67460000D01*
X108238094Y-67460000D02*
X108285713Y-67412380D01*
X106809523Y-66840952D02*
X106809523Y-67507619D01*
X107047618Y-66460000D02*
X107285713Y-67174285D01*
X107285713Y-67174285D02*
X106666666Y-67174285D01*
X105666665Y-66840952D02*
X105285713Y-66840952D01*
X105523808Y-66507619D02*
X105523808Y-67364761D01*
X105523808Y-67364761D02*
X105476189Y-67460000D01*
X105476189Y-67460000D02*
X105380951Y-67507619D01*
X105380951Y-67507619D02*
X105285713Y-67507619D01*
X104571427Y-67460000D02*
X104666665Y-67507619D01*
X104666665Y-67507619D02*
X104857141Y-67507619D01*
X104857141Y-67507619D02*
X104952379Y-67460000D01*
X104952379Y-67460000D02*
X104999998Y-67364761D01*
X104999998Y-67364761D02*
X104999998Y-66983809D01*
X104999998Y-66983809D02*
X104952379Y-66888571D01*
X104952379Y-66888571D02*
X104857141Y-66840952D01*
X104857141Y-66840952D02*
X104666665Y-66840952D01*
X104666665Y-66840952D02*
X104571427Y-66888571D01*
X104571427Y-66888571D02*
X104523808Y-66983809D01*
X104523808Y-66983809D02*
X104523808Y-67079047D01*
X104523808Y-67079047D02*
X104999998Y-67174285D01*
X104142855Y-67460000D02*
X104047617Y-67507619D01*
X104047617Y-67507619D02*
X103857141Y-67507619D01*
X103857141Y-67507619D02*
X103761903Y-67460000D01*
X103761903Y-67460000D02*
X103714284Y-67364761D01*
X103714284Y-67364761D02*
X103714284Y-67317142D01*
X103714284Y-67317142D02*
X103761903Y-67221904D01*
X103761903Y-67221904D02*
X103857141Y-67174285D01*
X103857141Y-67174285D02*
X103999998Y-67174285D01*
X103999998Y-67174285D02*
X104095236Y-67126666D01*
X104095236Y-67126666D02*
X104142855Y-67031428D01*
X104142855Y-67031428D02*
X104142855Y-66983809D01*
X104142855Y-66983809D02*
X104095236Y-66888571D01*
X104095236Y-66888571D02*
X103999998Y-66840952D01*
X103999998Y-66840952D02*
X103857141Y-66840952D01*
X103857141Y-66840952D02*
X103761903Y-66888571D01*
X103428569Y-66840952D02*
X103047617Y-66840952D01*
X103285712Y-66507619D02*
X103285712Y-67364761D01*
X103285712Y-67364761D02*
X103238093Y-67460000D01*
X103238093Y-67460000D02*
X103142855Y-67507619D01*
X103142855Y-67507619D02*
X103047617Y-67507619D01*
X123619047Y-69127619D02*
X123714285Y-69080000D01*
X123714285Y-69080000D02*
X123761904Y-68984761D01*
X123761904Y-68984761D02*
X123761904Y-68127619D01*
X123095237Y-69127619D02*
X123190475Y-69080000D01*
X123190475Y-69080000D02*
X123238094Y-69032380D01*
X123238094Y-69032380D02*
X123285713Y-68937142D01*
X123285713Y-68937142D02*
X123285713Y-68651428D01*
X123285713Y-68651428D02*
X123238094Y-68556190D01*
X123238094Y-68556190D02*
X123190475Y-68508571D01*
X123190475Y-68508571D02*
X123095237Y-68460952D01*
X123095237Y-68460952D02*
X122952380Y-68460952D01*
X122952380Y-68460952D02*
X122857142Y-68508571D01*
X122857142Y-68508571D02*
X122809523Y-68556190D01*
X122809523Y-68556190D02*
X122761904Y-68651428D01*
X122761904Y-68651428D02*
X122761904Y-68937142D01*
X122761904Y-68937142D02*
X122809523Y-69032380D01*
X122809523Y-69032380D02*
X122857142Y-69080000D01*
X122857142Y-69080000D02*
X122952380Y-69127619D01*
X122952380Y-69127619D02*
X123095237Y-69127619D01*
X122190475Y-69127619D02*
X122285713Y-69080000D01*
X122285713Y-69080000D02*
X122333332Y-69032380D01*
X122333332Y-69032380D02*
X122380951Y-68937142D01*
X122380951Y-68937142D02*
X122380951Y-68651428D01*
X122380951Y-68651428D02*
X122333332Y-68556190D01*
X122333332Y-68556190D02*
X122285713Y-68508571D01*
X122285713Y-68508571D02*
X122190475Y-68460952D01*
X122190475Y-68460952D02*
X122047618Y-68460952D01*
X122047618Y-68460952D02*
X121952380Y-68508571D01*
X121952380Y-68508571D02*
X121904761Y-68556190D01*
X121904761Y-68556190D02*
X121857142Y-68651428D01*
X121857142Y-68651428D02*
X121857142Y-68937142D01*
X121857142Y-68937142D02*
X121904761Y-69032380D01*
X121904761Y-69032380D02*
X121952380Y-69080000D01*
X121952380Y-69080000D02*
X122047618Y-69127619D01*
X122047618Y-69127619D02*
X122190475Y-69127619D01*
X121428570Y-68460952D02*
X121428570Y-69460952D01*
X121428570Y-68508571D02*
X121333332Y-68460952D01*
X121333332Y-68460952D02*
X121142856Y-68460952D01*
X121142856Y-68460952D02*
X121047618Y-68508571D01*
X121047618Y-68508571D02*
X120999999Y-68556190D01*
X120999999Y-68556190D02*
X120952380Y-68651428D01*
X120952380Y-68651428D02*
X120952380Y-68937142D01*
X120952380Y-68937142D02*
X120999999Y-69032380D01*
X120999999Y-69032380D02*
X121047618Y-69080000D01*
X121047618Y-69080000D02*
X121142856Y-69127619D01*
X121142856Y-69127619D02*
X121333332Y-69127619D01*
X121333332Y-69127619D02*
X121428570Y-69080000D01*
X120571427Y-69080000D02*
X120476189Y-69127619D01*
X120476189Y-69127619D02*
X120285713Y-69127619D01*
X120285713Y-69127619D02*
X120190475Y-69080000D01*
X120190475Y-69080000D02*
X120142856Y-68984761D01*
X120142856Y-68984761D02*
X120142856Y-68937142D01*
X120142856Y-68937142D02*
X120190475Y-68841904D01*
X120190475Y-68841904D02*
X120285713Y-68794285D01*
X120285713Y-68794285D02*
X120428570Y-68794285D01*
X120428570Y-68794285D02*
X120523808Y-68746666D01*
X120523808Y-68746666D02*
X120571427Y-68651428D01*
X120571427Y-68651428D02*
X120571427Y-68603809D01*
X120571427Y-68603809D02*
X120523808Y-68508571D01*
X120523808Y-68508571D02*
X120428570Y-68460952D01*
X120428570Y-68460952D02*
X120285713Y-68460952D01*
X120285713Y-68460952D02*
X120190475Y-68508571D01*
X118809522Y-69127619D02*
X118904760Y-69080000D01*
X118904760Y-69080000D02*
X118952379Y-69032380D01*
X118952379Y-69032380D02*
X118999998Y-68937142D01*
X118999998Y-68937142D02*
X118999998Y-68651428D01*
X118999998Y-68651428D02*
X118952379Y-68556190D01*
X118952379Y-68556190D02*
X118904760Y-68508571D01*
X118904760Y-68508571D02*
X118809522Y-68460952D01*
X118809522Y-68460952D02*
X118666665Y-68460952D01*
X118666665Y-68460952D02*
X118571427Y-68508571D01*
X118571427Y-68508571D02*
X118523808Y-68556190D01*
X118523808Y-68556190D02*
X118476189Y-68651428D01*
X118476189Y-68651428D02*
X118476189Y-68937142D01*
X118476189Y-68937142D02*
X118523808Y-69032380D01*
X118523808Y-69032380D02*
X118571427Y-69080000D01*
X118571427Y-69080000D02*
X118666665Y-69127619D01*
X118666665Y-69127619D02*
X118809522Y-69127619D01*
X118047617Y-69127619D02*
X118047617Y-68460952D01*
X118047617Y-68651428D02*
X117999998Y-68556190D01*
X117999998Y-68556190D02*
X117952379Y-68508571D01*
X117952379Y-68508571D02*
X117857141Y-68460952D01*
X117857141Y-68460952D02*
X117761903Y-68460952D01*
X116714283Y-69080000D02*
X116619045Y-69127619D01*
X116619045Y-69127619D02*
X116428569Y-69127619D01*
X116428569Y-69127619D02*
X116333331Y-69080000D01*
X116333331Y-69080000D02*
X116285712Y-68984761D01*
X116285712Y-68984761D02*
X116285712Y-68937142D01*
X116285712Y-68937142D02*
X116333331Y-68841904D01*
X116333331Y-68841904D02*
X116428569Y-68794285D01*
X116428569Y-68794285D02*
X116571426Y-68794285D01*
X116571426Y-68794285D02*
X116666664Y-68746666D01*
X116666664Y-68746666D02*
X116714283Y-68651428D01*
X116714283Y-68651428D02*
X116714283Y-68603809D01*
X116714283Y-68603809D02*
X116666664Y-68508571D01*
X116666664Y-68508571D02*
X116571426Y-68460952D01*
X116571426Y-68460952D02*
X116428569Y-68460952D01*
X116428569Y-68460952D02*
X116333331Y-68508571D01*
X115857140Y-69127619D02*
X115857140Y-68460952D01*
X115857140Y-68127619D02*
X115904759Y-68175238D01*
X115904759Y-68175238D02*
X115857140Y-68222857D01*
X115857140Y-68222857D02*
X115809521Y-68175238D01*
X115809521Y-68175238D02*
X115857140Y-68127619D01*
X115857140Y-68127619D02*
X115857140Y-68222857D01*
X115380950Y-69127619D02*
X115380950Y-68460952D01*
X115380950Y-68556190D02*
X115333331Y-68508571D01*
X115333331Y-68508571D02*
X115238093Y-68460952D01*
X115238093Y-68460952D02*
X115095236Y-68460952D01*
X115095236Y-68460952D02*
X114999998Y-68508571D01*
X114999998Y-68508571D02*
X114952379Y-68603809D01*
X114952379Y-68603809D02*
X114952379Y-69127619D01*
X114952379Y-68603809D02*
X114904760Y-68508571D01*
X114904760Y-68508571D02*
X114809522Y-68460952D01*
X114809522Y-68460952D02*
X114666665Y-68460952D01*
X114666665Y-68460952D02*
X114571426Y-68508571D01*
X114571426Y-68508571D02*
X114523807Y-68603809D01*
X114523807Y-68603809D02*
X114523807Y-69127619D01*
X114047617Y-69127619D02*
X114047617Y-68460952D01*
X114047617Y-68127619D02*
X114095236Y-68175238D01*
X114095236Y-68175238D02*
X114047617Y-68222857D01*
X114047617Y-68222857D02*
X113999998Y-68175238D01*
X113999998Y-68175238D02*
X114047617Y-68127619D01*
X114047617Y-68127619D02*
X114047617Y-68222857D01*
X113428570Y-69127619D02*
X113523808Y-69080000D01*
X113523808Y-69080000D02*
X113571427Y-68984761D01*
X113571427Y-68984761D02*
X113571427Y-68127619D01*
X112619046Y-69127619D02*
X112619046Y-68603809D01*
X112619046Y-68603809D02*
X112666665Y-68508571D01*
X112666665Y-68508571D02*
X112761903Y-68460952D01*
X112761903Y-68460952D02*
X112952379Y-68460952D01*
X112952379Y-68460952D02*
X113047617Y-68508571D01*
X112619046Y-69080000D02*
X112714284Y-69127619D01*
X112714284Y-69127619D02*
X112952379Y-69127619D01*
X112952379Y-69127619D02*
X113047617Y-69080000D01*
X113047617Y-69080000D02*
X113095236Y-68984761D01*
X113095236Y-68984761D02*
X113095236Y-68889523D01*
X113095236Y-68889523D02*
X113047617Y-68794285D01*
X113047617Y-68794285D02*
X112952379Y-68746666D01*
X112952379Y-68746666D02*
X112714284Y-68746666D01*
X112714284Y-68746666D02*
X112619046Y-68699047D01*
X112142855Y-69127619D02*
X112142855Y-68460952D01*
X112142855Y-68651428D02*
X112095236Y-68556190D01*
X112095236Y-68556190D02*
X112047617Y-68508571D01*
X112047617Y-68508571D02*
X111952379Y-68460952D01*
X111952379Y-68460952D02*
X111857141Y-68460952D01*
X111523807Y-69032380D02*
X111476188Y-69080000D01*
X111476188Y-69080000D02*
X111523807Y-69127619D01*
X111523807Y-69127619D02*
X111571426Y-69080000D01*
X111571426Y-69080000D02*
X111523807Y-69032380D01*
X111523807Y-69032380D02*
X111523807Y-69127619D01*
X109761903Y-68460952D02*
X110380950Y-69127619D01*
X110142855Y-69127619D02*
X110238093Y-69080000D01*
X110238093Y-69080000D02*
X110285712Y-69032380D01*
X110285712Y-69032380D02*
X110333331Y-68937142D01*
X110333331Y-68937142D02*
X110333331Y-68651428D01*
X110333331Y-68651428D02*
X110285712Y-68556190D01*
X110285712Y-68556190D02*
X110238093Y-68508571D01*
X110238093Y-68508571D02*
X110142855Y-68460952D01*
X110142855Y-68460952D02*
X109999998Y-68460952D01*
X109999998Y-68460952D02*
X109904760Y-68508571D01*
X109904760Y-68508571D02*
X109857141Y-68556190D01*
X109857141Y-68556190D02*
X109809522Y-68651428D01*
X109809522Y-68651428D02*
X109809522Y-68937142D01*
X109809522Y-68937142D02*
X109857141Y-69032380D01*
X109857141Y-69032380D02*
X109904760Y-69080000D01*
X109904760Y-69080000D02*
X109999998Y-69127619D01*
X109999998Y-69127619D02*
X110142855Y-69127619D01*
X108857141Y-69127619D02*
X109428569Y-69127619D01*
X109142855Y-69127619D02*
X109142855Y-68127619D01*
X109142855Y-68127619D02*
X109238093Y-68270476D01*
X109238093Y-68270476D02*
X109333331Y-68365714D01*
X109333331Y-68365714D02*
X109428569Y-68413333D01*
X108428569Y-69127619D02*
X108428569Y-68460952D01*
X108428569Y-68556190D02*
X108380950Y-68508571D01*
X108380950Y-68508571D02*
X108285712Y-68460952D01*
X108285712Y-68460952D02*
X108142855Y-68460952D01*
X108142855Y-68460952D02*
X108047617Y-68508571D01*
X108047617Y-68508571D02*
X107999998Y-68603809D01*
X107999998Y-68603809D02*
X107999998Y-69127619D01*
X107999998Y-68603809D02*
X107952379Y-68508571D01*
X107952379Y-68508571D02*
X107857141Y-68460952D01*
X107857141Y-68460952D02*
X107714284Y-68460952D01*
X107714284Y-68460952D02*
X107619045Y-68508571D01*
X107619045Y-68508571D02*
X107571426Y-68603809D01*
X107571426Y-68603809D02*
X107571426Y-69127619D01*
X107095236Y-69127619D02*
X107095236Y-68460952D01*
X107095236Y-68556190D02*
X107047617Y-68508571D01*
X107047617Y-68508571D02*
X106952379Y-68460952D01*
X106952379Y-68460952D02*
X106809522Y-68460952D01*
X106809522Y-68460952D02*
X106714284Y-68508571D01*
X106714284Y-68508571D02*
X106666665Y-68603809D01*
X106666665Y-68603809D02*
X106666665Y-69127619D01*
X106666665Y-68603809D02*
X106619046Y-68508571D01*
X106619046Y-68508571D02*
X106523808Y-68460952D01*
X106523808Y-68460952D02*
X106380951Y-68460952D01*
X106380951Y-68460952D02*
X106285712Y-68508571D01*
X106285712Y-68508571D02*
X106238093Y-68603809D01*
X106238093Y-68603809D02*
X106238093Y-69127619D01*
X123476190Y-82387619D02*
X123476190Y-83101904D01*
X123476190Y-83101904D02*
X123523809Y-83244761D01*
X123523809Y-83244761D02*
X123619047Y-83340000D01*
X123619047Y-83340000D02*
X123761904Y-83387619D01*
X123761904Y-83387619D02*
X123857142Y-83387619D01*
X122523809Y-82387619D02*
X122999999Y-82387619D01*
X122999999Y-82387619D02*
X123047618Y-82863809D01*
X123047618Y-82863809D02*
X122999999Y-82816190D01*
X122999999Y-82816190D02*
X122904761Y-82768571D01*
X122904761Y-82768571D02*
X122666666Y-82768571D01*
X122666666Y-82768571D02*
X122571428Y-82816190D01*
X122571428Y-82816190D02*
X122523809Y-82863809D01*
X122523809Y-82863809D02*
X122476190Y-82959047D01*
X122476190Y-82959047D02*
X122476190Y-83197142D01*
X122476190Y-83197142D02*
X122523809Y-83292380D01*
X122523809Y-83292380D02*
X122571428Y-83340000D01*
X122571428Y-83340000D02*
X122666666Y-83387619D01*
X122666666Y-83387619D02*
X122904761Y-83387619D01*
X122904761Y-83387619D02*
X122999999Y-83340000D01*
X122999999Y-83340000D02*
X123047618Y-83292380D01*
X121333333Y-82340000D02*
X122190475Y-83625714D01*
X120714285Y-82387619D02*
X120714285Y-83101904D01*
X120714285Y-83101904D02*
X120761904Y-83244761D01*
X120761904Y-83244761D02*
X120857142Y-83340000D01*
X120857142Y-83340000D02*
X120999999Y-83387619D01*
X120999999Y-83387619D02*
X121095237Y-83387619D01*
X119809523Y-82387619D02*
X119999999Y-82387619D01*
X119999999Y-82387619D02*
X120095237Y-82435238D01*
X120095237Y-82435238D02*
X120142856Y-82482857D01*
X120142856Y-82482857D02*
X120238094Y-82625714D01*
X120238094Y-82625714D02*
X120285713Y-82816190D01*
X120285713Y-82816190D02*
X120285713Y-83197142D01*
X120285713Y-83197142D02*
X120238094Y-83292380D01*
X120238094Y-83292380D02*
X120190475Y-83340000D01*
X120190475Y-83340000D02*
X120095237Y-83387619D01*
X120095237Y-83387619D02*
X119904761Y-83387619D01*
X119904761Y-83387619D02*
X119809523Y-83340000D01*
X119809523Y-83340000D02*
X119761904Y-83292380D01*
X119761904Y-83292380D02*
X119714285Y-83197142D01*
X119714285Y-83197142D02*
X119714285Y-82959047D01*
X119714285Y-82959047D02*
X119761904Y-82863809D01*
X119761904Y-82863809D02*
X119809523Y-82816190D01*
X119809523Y-82816190D02*
X119904761Y-82768571D01*
X119904761Y-82768571D02*
X120095237Y-82768571D01*
X120095237Y-82768571D02*
X120190475Y-82816190D01*
X120190475Y-82816190D02*
X120238094Y-82863809D01*
X120238094Y-82863809D02*
X120285713Y-82959047D01*
X119285713Y-83292380D02*
X119238094Y-83340000D01*
X119238094Y-83340000D02*
X119285713Y-83387619D01*
X119285713Y-83387619D02*
X119333332Y-83340000D01*
X119333332Y-83340000D02*
X119285713Y-83292380D01*
X119285713Y-83292380D02*
X119285713Y-83387619D01*
X119285713Y-82768571D02*
X119238094Y-82816190D01*
X119238094Y-82816190D02*
X119285713Y-82863809D01*
X119285713Y-82863809D02*
X119333332Y-82816190D01*
X119333332Y-82816190D02*
X119285713Y-82768571D01*
X119285713Y-82768571D02*
X119285713Y-82863809D01*
X118095237Y-83101904D02*
X117619047Y-83101904D01*
X118190475Y-83387619D02*
X117857142Y-82387619D01*
X117857142Y-82387619D02*
X117523809Y-83387619D01*
X117190475Y-83387619D02*
X117190475Y-82720952D01*
X117190475Y-82816190D02*
X117142856Y-82768571D01*
X117142856Y-82768571D02*
X117047618Y-82720952D01*
X117047618Y-82720952D02*
X116904761Y-82720952D01*
X116904761Y-82720952D02*
X116809523Y-82768571D01*
X116809523Y-82768571D02*
X116761904Y-82863809D01*
X116761904Y-82863809D02*
X116761904Y-83387619D01*
X116761904Y-82863809D02*
X116714285Y-82768571D01*
X116714285Y-82768571D02*
X116619047Y-82720952D01*
X116619047Y-82720952D02*
X116476190Y-82720952D01*
X116476190Y-82720952D02*
X116380951Y-82768571D01*
X116380951Y-82768571D02*
X116333332Y-82863809D01*
X116333332Y-82863809D02*
X116333332Y-83387619D01*
X115857142Y-82720952D02*
X115857142Y-83720952D01*
X115857142Y-82768571D02*
X115761904Y-82720952D01*
X115761904Y-82720952D02*
X115571428Y-82720952D01*
X115571428Y-82720952D02*
X115476190Y-82768571D01*
X115476190Y-82768571D02*
X115428571Y-82816190D01*
X115428571Y-82816190D02*
X115380952Y-82911428D01*
X115380952Y-82911428D02*
X115380952Y-83197142D01*
X115380952Y-83197142D02*
X115428571Y-83292380D01*
X115428571Y-83292380D02*
X115476190Y-83340000D01*
X115476190Y-83340000D02*
X115571428Y-83387619D01*
X115571428Y-83387619D02*
X115761904Y-83387619D01*
X115761904Y-83387619D02*
X115857142Y-83340000D01*
X114952380Y-83387619D02*
X114952380Y-82387619D01*
X114523809Y-83387619D02*
X114523809Y-82863809D01*
X114523809Y-82863809D02*
X114571428Y-82768571D01*
X114571428Y-82768571D02*
X114666666Y-82720952D01*
X114666666Y-82720952D02*
X114809523Y-82720952D01*
X114809523Y-82720952D02*
X114904761Y-82768571D01*
X114904761Y-82768571D02*
X114952380Y-82816190D01*
X113666666Y-83340000D02*
X113761904Y-83387619D01*
X113761904Y-83387619D02*
X113952380Y-83387619D01*
X113952380Y-83387619D02*
X114047618Y-83340000D01*
X114047618Y-83340000D02*
X114095237Y-83244761D01*
X114095237Y-83244761D02*
X114095237Y-82863809D01*
X114095237Y-82863809D02*
X114047618Y-82768571D01*
X114047618Y-82768571D02*
X113952380Y-82720952D01*
X113952380Y-82720952D02*
X113761904Y-82720952D01*
X113761904Y-82720952D02*
X113666666Y-82768571D01*
X113666666Y-82768571D02*
X113619047Y-82863809D01*
X113619047Y-82863809D02*
X113619047Y-82959047D01*
X113619047Y-82959047D02*
X114095237Y-83054285D01*
X113190475Y-82720952D02*
X113190475Y-83387619D01*
X113190475Y-82816190D02*
X113142856Y-82768571D01*
X113142856Y-82768571D02*
X113047618Y-82720952D01*
X113047618Y-82720952D02*
X112904761Y-82720952D01*
X112904761Y-82720952D02*
X112809523Y-82768571D01*
X112809523Y-82768571D02*
X112761904Y-82863809D01*
X112761904Y-82863809D02*
X112761904Y-83387619D01*
X112142856Y-83387619D02*
X112238094Y-83340000D01*
X112238094Y-83340000D02*
X112285713Y-83292380D01*
X112285713Y-83292380D02*
X112333332Y-83197142D01*
X112333332Y-83197142D02*
X112333332Y-82911428D01*
X112333332Y-82911428D02*
X112285713Y-82816190D01*
X112285713Y-82816190D02*
X112238094Y-82768571D01*
X112238094Y-82768571D02*
X112142856Y-82720952D01*
X112142856Y-82720952D02*
X111999999Y-82720952D01*
X111999999Y-82720952D02*
X111904761Y-82768571D01*
X111904761Y-82768571D02*
X111857142Y-82816190D01*
X111857142Y-82816190D02*
X111809523Y-82911428D01*
X111809523Y-82911428D02*
X111809523Y-83197142D01*
X111809523Y-83197142D02*
X111857142Y-83292380D01*
X111857142Y-83292380D02*
X111904761Y-83340000D01*
X111904761Y-83340000D02*
X111999999Y-83387619D01*
X111999999Y-83387619D02*
X112142856Y-83387619D01*
X111238094Y-83387619D02*
X111333332Y-83340000D01*
X111333332Y-83340000D02*
X111380951Y-83244761D01*
X111380951Y-83244761D02*
X111380951Y-82387619D01*
X123428571Y-84483809D02*
X123285714Y-84531428D01*
X123285714Y-84531428D02*
X123238095Y-84579047D01*
X123238095Y-84579047D02*
X123190476Y-84674285D01*
X123190476Y-84674285D02*
X123190476Y-84817142D01*
X123190476Y-84817142D02*
X123238095Y-84912380D01*
X123238095Y-84912380D02*
X123285714Y-84960000D01*
X123285714Y-84960000D02*
X123380952Y-85007619D01*
X123380952Y-85007619D02*
X123761904Y-85007619D01*
X123761904Y-85007619D02*
X123761904Y-84007619D01*
X123761904Y-84007619D02*
X123428571Y-84007619D01*
X123428571Y-84007619D02*
X123333333Y-84055238D01*
X123333333Y-84055238D02*
X123285714Y-84102857D01*
X123285714Y-84102857D02*
X123238095Y-84198095D01*
X123238095Y-84198095D02*
X123238095Y-84293333D01*
X123238095Y-84293333D02*
X123285714Y-84388571D01*
X123285714Y-84388571D02*
X123333333Y-84436190D01*
X123333333Y-84436190D02*
X123428571Y-84483809D01*
X123428571Y-84483809D02*
X123761904Y-84483809D01*
X122333333Y-84007619D02*
X122523809Y-84007619D01*
X122523809Y-84007619D02*
X122619047Y-84055238D01*
X122619047Y-84055238D02*
X122666666Y-84102857D01*
X122666666Y-84102857D02*
X122761904Y-84245714D01*
X122761904Y-84245714D02*
X122809523Y-84436190D01*
X122809523Y-84436190D02*
X122809523Y-84817142D01*
X122809523Y-84817142D02*
X122761904Y-84912380D01*
X122761904Y-84912380D02*
X122714285Y-84960000D01*
X122714285Y-84960000D02*
X122619047Y-85007619D01*
X122619047Y-85007619D02*
X122428571Y-85007619D01*
X122428571Y-85007619D02*
X122333333Y-84960000D01*
X122333333Y-84960000D02*
X122285714Y-84912380D01*
X122285714Y-84912380D02*
X122238095Y-84817142D01*
X122238095Y-84817142D02*
X122238095Y-84579047D01*
X122238095Y-84579047D02*
X122285714Y-84483809D01*
X122285714Y-84483809D02*
X122333333Y-84436190D01*
X122333333Y-84436190D02*
X122428571Y-84388571D01*
X122428571Y-84388571D02*
X122619047Y-84388571D01*
X122619047Y-84388571D02*
X122714285Y-84436190D01*
X122714285Y-84436190D02*
X122761904Y-84483809D01*
X122761904Y-84483809D02*
X122809523Y-84579047D01*
X121857142Y-84102857D02*
X121809523Y-84055238D01*
X121809523Y-84055238D02*
X121714285Y-84007619D01*
X121714285Y-84007619D02*
X121476190Y-84007619D01*
X121476190Y-84007619D02*
X121380952Y-84055238D01*
X121380952Y-84055238D02*
X121333333Y-84102857D01*
X121333333Y-84102857D02*
X121285714Y-84198095D01*
X121285714Y-84198095D02*
X121285714Y-84293333D01*
X121285714Y-84293333D02*
X121333333Y-84436190D01*
X121333333Y-84436190D02*
X121904761Y-85007619D01*
X121904761Y-85007619D02*
X121285714Y-85007619D01*
X120380952Y-84007619D02*
X120857142Y-84007619D01*
X120857142Y-84007619D02*
X120904761Y-84483809D01*
X120904761Y-84483809D02*
X120857142Y-84436190D01*
X120857142Y-84436190D02*
X120761904Y-84388571D01*
X120761904Y-84388571D02*
X120523809Y-84388571D01*
X120523809Y-84388571D02*
X120428571Y-84436190D01*
X120428571Y-84436190D02*
X120380952Y-84483809D01*
X120380952Y-84483809D02*
X120333333Y-84579047D01*
X120333333Y-84579047D02*
X120333333Y-84817142D01*
X120333333Y-84817142D02*
X120380952Y-84912380D01*
X120380952Y-84912380D02*
X120428571Y-84960000D01*
X120428571Y-84960000D02*
X120523809Y-85007619D01*
X120523809Y-85007619D02*
X120761904Y-85007619D01*
X120761904Y-85007619D02*
X120857142Y-84960000D01*
X120857142Y-84960000D02*
X120904761Y-84912380D01*
X119952380Y-84102857D02*
X119904761Y-84055238D01*
X119904761Y-84055238D02*
X119809523Y-84007619D01*
X119809523Y-84007619D02*
X119571428Y-84007619D01*
X119571428Y-84007619D02*
X119476190Y-84055238D01*
X119476190Y-84055238D02*
X119428571Y-84102857D01*
X119428571Y-84102857D02*
X119380952Y-84198095D01*
X119380952Y-84198095D02*
X119380952Y-84293333D01*
X119380952Y-84293333D02*
X119428571Y-84436190D01*
X119428571Y-84436190D02*
X119999999Y-85007619D01*
X119999999Y-85007619D02*
X119380952Y-85007619D01*
X118952380Y-85007619D02*
X118952380Y-84007619D01*
X118952380Y-84483809D02*
X118380952Y-84483809D01*
X118380952Y-85007619D02*
X118380952Y-84007619D01*
X117999999Y-84007619D02*
X117333333Y-84007619D01*
X117333333Y-84007619D02*
X117761904Y-85007619D01*
X116952380Y-84626666D02*
X116190476Y-84626666D01*
X115714285Y-85007619D02*
X115714285Y-84007619D01*
X115714285Y-84007619D02*
X115142857Y-85007619D01*
X115142857Y-85007619D02*
X115142857Y-84007619D01*
X114666666Y-85007619D02*
X114666666Y-84007619D01*
X114666666Y-84007619D02*
X114285714Y-84007619D01*
X114285714Y-84007619D02*
X114190476Y-84055238D01*
X114190476Y-84055238D02*
X114142857Y-84102857D01*
X114142857Y-84102857D02*
X114095238Y-84198095D01*
X114095238Y-84198095D02*
X114095238Y-84340952D01*
X114095238Y-84340952D02*
X114142857Y-84436190D01*
X114142857Y-84436190D02*
X114190476Y-84483809D01*
X114190476Y-84483809D02*
X114285714Y-84531428D01*
X114285714Y-84531428D02*
X114666666Y-84531428D01*
X113666666Y-85007619D02*
X113666666Y-84007619D01*
X113666666Y-84007619D02*
X113285714Y-84007619D01*
X113285714Y-84007619D02*
X113190476Y-84055238D01*
X113190476Y-84055238D02*
X113142857Y-84102857D01*
X113142857Y-84102857D02*
X113095238Y-84198095D01*
X113095238Y-84198095D02*
X113095238Y-84340952D01*
X113095238Y-84340952D02*
X113142857Y-84436190D01*
X113142857Y-84436190D02*
X113190476Y-84483809D01*
X113190476Y-84483809D02*
X113285714Y-84531428D01*
X113285714Y-84531428D02*
X113666666Y-84531428D01*
X112761904Y-84007619D02*
X112142857Y-84007619D01*
X112142857Y-84007619D02*
X112476190Y-84388571D01*
X112476190Y-84388571D02*
X112333333Y-84388571D01*
X112333333Y-84388571D02*
X112238095Y-84436190D01*
X112238095Y-84436190D02*
X112190476Y-84483809D01*
X112190476Y-84483809D02*
X112142857Y-84579047D01*
X112142857Y-84579047D02*
X112142857Y-84817142D01*
X112142857Y-84817142D02*
X112190476Y-84912380D01*
X112190476Y-84912380D02*
X112238095Y-84960000D01*
X112238095Y-84960000D02*
X112333333Y-85007619D01*
X112333333Y-85007619D02*
X112619047Y-85007619D01*
X112619047Y-85007619D02*
X112714285Y-84960000D01*
X112714285Y-84960000D02*
X112761904Y-84912380D01*
X111190476Y-84055238D02*
X111285714Y-84007619D01*
X111285714Y-84007619D02*
X111428571Y-84007619D01*
X111428571Y-84007619D02*
X111571428Y-84055238D01*
X111571428Y-84055238D02*
X111666666Y-84150476D01*
X111666666Y-84150476D02*
X111714285Y-84245714D01*
X111714285Y-84245714D02*
X111761904Y-84436190D01*
X111761904Y-84436190D02*
X111761904Y-84579047D01*
X111761904Y-84579047D02*
X111714285Y-84769523D01*
X111714285Y-84769523D02*
X111666666Y-84864761D01*
X111666666Y-84864761D02*
X111571428Y-84960000D01*
X111571428Y-84960000D02*
X111428571Y-85007619D01*
X111428571Y-85007619D02*
X111333333Y-85007619D01*
X111333333Y-85007619D02*
X111190476Y-84960000D01*
X111190476Y-84960000D02*
X111142857Y-84912380D01*
X111142857Y-84912380D02*
X111142857Y-84579047D01*
X111142857Y-84579047D02*
X111333333Y-84579047D01*
X110714285Y-84626666D02*
X109952381Y-84626666D01*
X109000000Y-84007619D02*
X109476190Y-84007619D01*
X109476190Y-84007619D02*
X109523809Y-84483809D01*
X109523809Y-84483809D02*
X109476190Y-84436190D01*
X109476190Y-84436190D02*
X109380952Y-84388571D01*
X109380952Y-84388571D02*
X109142857Y-84388571D01*
X109142857Y-84388571D02*
X109047619Y-84436190D01*
X109047619Y-84436190D02*
X109000000Y-84483809D01*
X109000000Y-84483809D02*
X108952381Y-84579047D01*
X108952381Y-84579047D02*
X108952381Y-84817142D01*
X108952381Y-84817142D02*
X109000000Y-84912380D01*
X109000000Y-84912380D02*
X109047619Y-84960000D01*
X109047619Y-84960000D02*
X109142857Y-85007619D01*
X109142857Y-85007619D02*
X109380952Y-85007619D01*
X109380952Y-85007619D02*
X109476190Y-84960000D01*
X109476190Y-84960000D02*
X109523809Y-84912380D01*
X108333333Y-84007619D02*
X108238095Y-84007619D01*
X108238095Y-84007619D02*
X108142857Y-84055238D01*
X108142857Y-84055238D02*
X108095238Y-84102857D01*
X108095238Y-84102857D02*
X108047619Y-84198095D01*
X108047619Y-84198095D02*
X108000000Y-84388571D01*
X108000000Y-84388571D02*
X108000000Y-84626666D01*
X108000000Y-84626666D02*
X108047619Y-84817142D01*
X108047619Y-84817142D02*
X108095238Y-84912380D01*
X108095238Y-84912380D02*
X108142857Y-84960000D01*
X108142857Y-84960000D02*
X108238095Y-85007619D01*
X108238095Y-85007619D02*
X108333333Y-85007619D01*
X108333333Y-85007619D02*
X108428571Y-84960000D01*
X108428571Y-84960000D02*
X108476190Y-84912380D01*
X108476190Y-84912380D02*
X108523809Y-84817142D01*
X108523809Y-84817142D02*
X108571428Y-84626666D01*
X108571428Y-84626666D02*
X108571428Y-84388571D01*
X108571428Y-84388571D02*
X108523809Y-84198095D01*
X108523809Y-84198095D02*
X108476190Y-84102857D01*
X108476190Y-84102857D02*
X108428571Y-84055238D01*
X108428571Y-84055238D02*
X108333333Y-84007619D01*
X123619047Y-86627619D02*
X123714285Y-86580000D01*
X123714285Y-86580000D02*
X123761904Y-86532380D01*
X123761904Y-86532380D02*
X123809523Y-86437142D01*
X123809523Y-86437142D02*
X123809523Y-86151428D01*
X123809523Y-86151428D02*
X123761904Y-86056190D01*
X123761904Y-86056190D02*
X123714285Y-86008571D01*
X123714285Y-86008571D02*
X123619047Y-85960952D01*
X123619047Y-85960952D02*
X123476190Y-85960952D01*
X123476190Y-85960952D02*
X123380952Y-86008571D01*
X123380952Y-86008571D02*
X123333333Y-86056190D01*
X123333333Y-86056190D02*
X123285714Y-86151428D01*
X123285714Y-86151428D02*
X123285714Y-86437142D01*
X123285714Y-86437142D02*
X123333333Y-86532380D01*
X123333333Y-86532380D02*
X123380952Y-86580000D01*
X123380952Y-86580000D02*
X123476190Y-86627619D01*
X123476190Y-86627619D02*
X123619047Y-86627619D01*
X122857142Y-86627619D02*
X122857142Y-85960952D01*
X122857142Y-86151428D02*
X122809523Y-86056190D01*
X122809523Y-86056190D02*
X122761904Y-86008571D01*
X122761904Y-86008571D02*
X122666666Y-85960952D01*
X122666666Y-85960952D02*
X122571428Y-85960952D01*
X121476189Y-86627619D02*
X121476189Y-85960952D01*
X121476189Y-86056190D02*
X121428570Y-86008571D01*
X121428570Y-86008571D02*
X121333332Y-85960952D01*
X121333332Y-85960952D02*
X121190475Y-85960952D01*
X121190475Y-85960952D02*
X121095237Y-86008571D01*
X121095237Y-86008571D02*
X121047618Y-86103809D01*
X121047618Y-86103809D02*
X121047618Y-86627619D01*
X121047618Y-86103809D02*
X120999999Y-86008571D01*
X120999999Y-86008571D02*
X120904761Y-85960952D01*
X120904761Y-85960952D02*
X120761904Y-85960952D01*
X120761904Y-85960952D02*
X120666665Y-86008571D01*
X120666665Y-86008571D02*
X120619046Y-86103809D01*
X120619046Y-86103809D02*
X120619046Y-86627619D01*
X119714285Y-86627619D02*
X119714285Y-86103809D01*
X119714285Y-86103809D02*
X119761904Y-86008571D01*
X119761904Y-86008571D02*
X119857142Y-85960952D01*
X119857142Y-85960952D02*
X120047618Y-85960952D01*
X120047618Y-85960952D02*
X120142856Y-86008571D01*
X119714285Y-86580000D02*
X119809523Y-86627619D01*
X119809523Y-86627619D02*
X120047618Y-86627619D01*
X120047618Y-86627619D02*
X120142856Y-86580000D01*
X120142856Y-86580000D02*
X120190475Y-86484761D01*
X120190475Y-86484761D02*
X120190475Y-86389523D01*
X120190475Y-86389523D02*
X120142856Y-86294285D01*
X120142856Y-86294285D02*
X120047618Y-86246666D01*
X120047618Y-86246666D02*
X119809523Y-86246666D01*
X119809523Y-86246666D02*
X119714285Y-86199047D01*
X119380951Y-85960952D02*
X118999999Y-85960952D01*
X119238094Y-85627619D02*
X119238094Y-86484761D01*
X119238094Y-86484761D02*
X119190475Y-86580000D01*
X119190475Y-86580000D02*
X119095237Y-86627619D01*
X119095237Y-86627619D02*
X118999999Y-86627619D01*
X118238094Y-86580000D02*
X118333332Y-86627619D01*
X118333332Y-86627619D02*
X118523808Y-86627619D01*
X118523808Y-86627619D02*
X118619046Y-86580000D01*
X118619046Y-86580000D02*
X118666665Y-86532380D01*
X118666665Y-86532380D02*
X118714284Y-86437142D01*
X118714284Y-86437142D02*
X118714284Y-86151428D01*
X118714284Y-86151428D02*
X118666665Y-86056190D01*
X118666665Y-86056190D02*
X118619046Y-86008571D01*
X118619046Y-86008571D02*
X118523808Y-85960952D01*
X118523808Y-85960952D02*
X118333332Y-85960952D01*
X118333332Y-85960952D02*
X118238094Y-86008571D01*
X117809522Y-86627619D02*
X117809522Y-85627619D01*
X117380951Y-86627619D02*
X117380951Y-86103809D01*
X117380951Y-86103809D02*
X117428570Y-86008571D01*
X117428570Y-86008571D02*
X117523808Y-85960952D01*
X117523808Y-85960952D02*
X117666665Y-85960952D01*
X117666665Y-85960952D02*
X117761903Y-86008571D01*
X117761903Y-86008571D02*
X117809522Y-86056190D01*
X116904760Y-86627619D02*
X116904760Y-85960952D01*
X116904760Y-85627619D02*
X116952379Y-85675238D01*
X116952379Y-85675238D02*
X116904760Y-85722857D01*
X116904760Y-85722857D02*
X116857141Y-85675238D01*
X116857141Y-85675238D02*
X116904760Y-85627619D01*
X116904760Y-85627619D02*
X116904760Y-85722857D01*
X116428570Y-85960952D02*
X116428570Y-86627619D01*
X116428570Y-86056190D02*
X116380951Y-86008571D01*
X116380951Y-86008571D02*
X116285713Y-85960952D01*
X116285713Y-85960952D02*
X116142856Y-85960952D01*
X116142856Y-85960952D02*
X116047618Y-86008571D01*
X116047618Y-86008571D02*
X115999999Y-86103809D01*
X115999999Y-86103809D02*
X115999999Y-86627619D01*
X115095237Y-85960952D02*
X115095237Y-86770476D01*
X115095237Y-86770476D02*
X115142856Y-86865714D01*
X115142856Y-86865714D02*
X115190475Y-86913333D01*
X115190475Y-86913333D02*
X115285713Y-86960952D01*
X115285713Y-86960952D02*
X115428570Y-86960952D01*
X115428570Y-86960952D02*
X115523808Y-86913333D01*
X115095237Y-86580000D02*
X115190475Y-86627619D01*
X115190475Y-86627619D02*
X115380951Y-86627619D01*
X115380951Y-86627619D02*
X115476189Y-86580000D01*
X115476189Y-86580000D02*
X115523808Y-86532380D01*
X115523808Y-86532380D02*
X115571427Y-86437142D01*
X115571427Y-86437142D02*
X115571427Y-86151428D01*
X115571427Y-86151428D02*
X115523808Y-86056190D01*
X115523808Y-86056190D02*
X115476189Y-86008571D01*
X115476189Y-86008571D02*
X115380951Y-85960952D01*
X115380951Y-85960952D02*
X115190475Y-85960952D01*
X115190475Y-85960952D02*
X115095237Y-86008571D01*
X113523808Y-86103809D02*
X113380951Y-86151428D01*
X113380951Y-86151428D02*
X113333332Y-86199047D01*
X113333332Y-86199047D02*
X113285713Y-86294285D01*
X113285713Y-86294285D02*
X113285713Y-86437142D01*
X113285713Y-86437142D02*
X113333332Y-86532380D01*
X113333332Y-86532380D02*
X113380951Y-86580000D01*
X113380951Y-86580000D02*
X113476189Y-86627619D01*
X113476189Y-86627619D02*
X113857141Y-86627619D01*
X113857141Y-86627619D02*
X113857141Y-85627619D01*
X113857141Y-85627619D02*
X113523808Y-85627619D01*
X113523808Y-85627619D02*
X113428570Y-85675238D01*
X113428570Y-85675238D02*
X113380951Y-85722857D01*
X113380951Y-85722857D02*
X113333332Y-85818095D01*
X113333332Y-85818095D02*
X113333332Y-85913333D01*
X113333332Y-85913333D02*
X113380951Y-86008571D01*
X113380951Y-86008571D02*
X113428570Y-86056190D01*
X113428570Y-86056190D02*
X113523808Y-86103809D01*
X113523808Y-86103809D02*
X113857141Y-86103809D01*
X112857141Y-86627619D02*
X112857141Y-85627619D01*
X112857141Y-85627619D02*
X112285713Y-86627619D01*
X112285713Y-86627619D02*
X112285713Y-85627619D01*
X111238094Y-86532380D02*
X111285713Y-86580000D01*
X111285713Y-86580000D02*
X111428570Y-86627619D01*
X111428570Y-86627619D02*
X111523808Y-86627619D01*
X111523808Y-86627619D02*
X111666665Y-86580000D01*
X111666665Y-86580000D02*
X111761903Y-86484761D01*
X111761903Y-86484761D02*
X111809522Y-86389523D01*
X111809522Y-86389523D02*
X111857141Y-86199047D01*
X111857141Y-86199047D02*
X111857141Y-86056190D01*
X111857141Y-86056190D02*
X111809522Y-85865714D01*
X111809522Y-85865714D02*
X111761903Y-85770476D01*
X111761903Y-85770476D02*
X111666665Y-85675238D01*
X111666665Y-85675238D02*
X111523808Y-85627619D01*
X111523808Y-85627619D02*
X111428570Y-85627619D01*
X111428570Y-85627619D02*
X111285713Y-85675238D01*
X111285713Y-85675238D02*
X111238094Y-85722857D01*
X123190476Y-75507619D02*
X123523809Y-75031428D01*
X123761904Y-75507619D02*
X123761904Y-74507619D01*
X123761904Y-74507619D02*
X123380952Y-74507619D01*
X123380952Y-74507619D02*
X123285714Y-74555238D01*
X123285714Y-74555238D02*
X123238095Y-74602857D01*
X123238095Y-74602857D02*
X123190476Y-74698095D01*
X123190476Y-74698095D02*
X123190476Y-74840952D01*
X123190476Y-74840952D02*
X123238095Y-74936190D01*
X123238095Y-74936190D02*
X123285714Y-74983809D01*
X123285714Y-74983809D02*
X123380952Y-75031428D01*
X123380952Y-75031428D02*
X123761904Y-75031428D01*
X122714285Y-75507619D02*
X122523809Y-75507619D01*
X122523809Y-75507619D02*
X122428571Y-75460000D01*
X122428571Y-75460000D02*
X122380952Y-75412380D01*
X122380952Y-75412380D02*
X122285714Y-75269523D01*
X122285714Y-75269523D02*
X122238095Y-75079047D01*
X122238095Y-75079047D02*
X122238095Y-74698095D01*
X122238095Y-74698095D02*
X122285714Y-74602857D01*
X122285714Y-74602857D02*
X122333333Y-74555238D01*
X122333333Y-74555238D02*
X122428571Y-74507619D01*
X122428571Y-74507619D02*
X122619047Y-74507619D01*
X122619047Y-74507619D02*
X122714285Y-74555238D01*
X122714285Y-74555238D02*
X122761904Y-74602857D01*
X122761904Y-74602857D02*
X122809523Y-74698095D01*
X122809523Y-74698095D02*
X122809523Y-74936190D01*
X122809523Y-74936190D02*
X122761904Y-75031428D01*
X122761904Y-75031428D02*
X122714285Y-75079047D01*
X122714285Y-75079047D02*
X122619047Y-75126666D01*
X122619047Y-75126666D02*
X122428571Y-75126666D01*
X122428571Y-75126666D02*
X122333333Y-75079047D01*
X122333333Y-75079047D02*
X122285714Y-75031428D01*
X122285714Y-75031428D02*
X122238095Y-74936190D01*
X121095238Y-74460000D02*
X121952380Y-75745714D01*
X120190476Y-75507619D02*
X120523809Y-75031428D01*
X120761904Y-75507619D02*
X120761904Y-74507619D01*
X120761904Y-74507619D02*
X120380952Y-74507619D01*
X120380952Y-74507619D02*
X120285714Y-74555238D01*
X120285714Y-74555238D02*
X120238095Y-74602857D01*
X120238095Y-74602857D02*
X120190476Y-74698095D01*
X120190476Y-74698095D02*
X120190476Y-74840952D01*
X120190476Y-74840952D02*
X120238095Y-74936190D01*
X120238095Y-74936190D02*
X120285714Y-74983809D01*
X120285714Y-74983809D02*
X120380952Y-75031428D01*
X120380952Y-75031428D02*
X120761904Y-75031428D01*
X119619047Y-74936190D02*
X119714285Y-74888571D01*
X119714285Y-74888571D02*
X119761904Y-74840952D01*
X119761904Y-74840952D02*
X119809523Y-74745714D01*
X119809523Y-74745714D02*
X119809523Y-74698095D01*
X119809523Y-74698095D02*
X119761904Y-74602857D01*
X119761904Y-74602857D02*
X119714285Y-74555238D01*
X119714285Y-74555238D02*
X119619047Y-74507619D01*
X119619047Y-74507619D02*
X119428571Y-74507619D01*
X119428571Y-74507619D02*
X119333333Y-74555238D01*
X119333333Y-74555238D02*
X119285714Y-74602857D01*
X119285714Y-74602857D02*
X119238095Y-74698095D01*
X119238095Y-74698095D02*
X119238095Y-74745714D01*
X119238095Y-74745714D02*
X119285714Y-74840952D01*
X119285714Y-74840952D02*
X119333333Y-74888571D01*
X119333333Y-74888571D02*
X119428571Y-74936190D01*
X119428571Y-74936190D02*
X119619047Y-74936190D01*
X119619047Y-74936190D02*
X119714285Y-74983809D01*
X119714285Y-74983809D02*
X119761904Y-75031428D01*
X119761904Y-75031428D02*
X119809523Y-75126666D01*
X119809523Y-75126666D02*
X119809523Y-75317142D01*
X119809523Y-75317142D02*
X119761904Y-75412380D01*
X119761904Y-75412380D02*
X119714285Y-75460000D01*
X119714285Y-75460000D02*
X119619047Y-75507619D01*
X119619047Y-75507619D02*
X119428571Y-75507619D01*
X119428571Y-75507619D02*
X119333333Y-75460000D01*
X119333333Y-75460000D02*
X119285714Y-75412380D01*
X119285714Y-75412380D02*
X119238095Y-75317142D01*
X119238095Y-75317142D02*
X119238095Y-75126666D01*
X119238095Y-75126666D02*
X119285714Y-75031428D01*
X119285714Y-75031428D02*
X119333333Y-74983809D01*
X119333333Y-74983809D02*
X119428571Y-74936190D01*
X117619047Y-75507619D02*
X117619047Y-74507619D01*
X117619047Y-75460000D02*
X117714285Y-75507619D01*
X117714285Y-75507619D02*
X117904761Y-75507619D01*
X117904761Y-75507619D02*
X117999999Y-75460000D01*
X117999999Y-75460000D02*
X118047618Y-75412380D01*
X118047618Y-75412380D02*
X118095237Y-75317142D01*
X118095237Y-75317142D02*
X118095237Y-75031428D01*
X118095237Y-75031428D02*
X118047618Y-74936190D01*
X118047618Y-74936190D02*
X117999999Y-74888571D01*
X117999999Y-74888571D02*
X117904761Y-74840952D01*
X117904761Y-74840952D02*
X117714285Y-74840952D01*
X117714285Y-74840952D02*
X117619047Y-74888571D01*
X117142856Y-75507619D02*
X117142856Y-74840952D01*
X117142856Y-74507619D02*
X117190475Y-74555238D01*
X117190475Y-74555238D02*
X117142856Y-74602857D01*
X117142856Y-74602857D02*
X117095237Y-74555238D01*
X117095237Y-74555238D02*
X117142856Y-74507619D01*
X117142856Y-74507619D02*
X117142856Y-74602857D01*
X116714285Y-75460000D02*
X116619047Y-75507619D01*
X116619047Y-75507619D02*
X116428571Y-75507619D01*
X116428571Y-75507619D02*
X116333333Y-75460000D01*
X116333333Y-75460000D02*
X116285714Y-75364761D01*
X116285714Y-75364761D02*
X116285714Y-75317142D01*
X116285714Y-75317142D02*
X116333333Y-75221904D01*
X116333333Y-75221904D02*
X116428571Y-75174285D01*
X116428571Y-75174285D02*
X116571428Y-75174285D01*
X116571428Y-75174285D02*
X116666666Y-75126666D01*
X116666666Y-75126666D02*
X116714285Y-75031428D01*
X116714285Y-75031428D02*
X116714285Y-74983809D01*
X116714285Y-74983809D02*
X116666666Y-74888571D01*
X116666666Y-74888571D02*
X116571428Y-74840952D01*
X116571428Y-74840952D02*
X116428571Y-74840952D01*
X116428571Y-74840952D02*
X116333333Y-74888571D01*
X115428571Y-75460000D02*
X115523809Y-75507619D01*
X115523809Y-75507619D02*
X115714285Y-75507619D01*
X115714285Y-75507619D02*
X115809523Y-75460000D01*
X115809523Y-75460000D02*
X115857142Y-75412380D01*
X115857142Y-75412380D02*
X115904761Y-75317142D01*
X115904761Y-75317142D02*
X115904761Y-75031428D01*
X115904761Y-75031428D02*
X115857142Y-74936190D01*
X115857142Y-74936190D02*
X115809523Y-74888571D01*
X115809523Y-74888571D02*
X115714285Y-74840952D01*
X115714285Y-74840952D02*
X115523809Y-74840952D01*
X115523809Y-74840952D02*
X115428571Y-74888571D01*
X114857142Y-75507619D02*
X114952380Y-75460000D01*
X114952380Y-75460000D02*
X114999999Y-75412380D01*
X114999999Y-75412380D02*
X115047618Y-75317142D01*
X115047618Y-75317142D02*
X115047618Y-75031428D01*
X115047618Y-75031428D02*
X114999999Y-74936190D01*
X114999999Y-74936190D02*
X114952380Y-74888571D01*
X114952380Y-74888571D02*
X114857142Y-74840952D01*
X114857142Y-74840952D02*
X114714285Y-74840952D01*
X114714285Y-74840952D02*
X114619047Y-74888571D01*
X114619047Y-74888571D02*
X114571428Y-74936190D01*
X114571428Y-74936190D02*
X114523809Y-75031428D01*
X114523809Y-75031428D02*
X114523809Y-75317142D01*
X114523809Y-75317142D02*
X114571428Y-75412380D01*
X114571428Y-75412380D02*
X114619047Y-75460000D01*
X114619047Y-75460000D02*
X114714285Y-75507619D01*
X114714285Y-75507619D02*
X114857142Y-75507619D01*
X114095237Y-74840952D02*
X114095237Y-75507619D01*
X114095237Y-74936190D02*
X114047618Y-74888571D01*
X114047618Y-74888571D02*
X113952380Y-74840952D01*
X113952380Y-74840952D02*
X113809523Y-74840952D01*
X113809523Y-74840952D02*
X113714285Y-74888571D01*
X113714285Y-74888571D02*
X113666666Y-74983809D01*
X113666666Y-74983809D02*
X113666666Y-75507619D01*
X113190475Y-74840952D02*
X113190475Y-75507619D01*
X113190475Y-74936190D02*
X113142856Y-74888571D01*
X113142856Y-74888571D02*
X113047618Y-74840952D01*
X113047618Y-74840952D02*
X112904761Y-74840952D01*
X112904761Y-74840952D02*
X112809523Y-74888571D01*
X112809523Y-74888571D02*
X112761904Y-74983809D01*
X112761904Y-74983809D02*
X112761904Y-75507619D01*
X111904761Y-75460000D02*
X111999999Y-75507619D01*
X111999999Y-75507619D02*
X112190475Y-75507619D01*
X112190475Y-75507619D02*
X112285713Y-75460000D01*
X112285713Y-75460000D02*
X112333332Y-75364761D01*
X112333332Y-75364761D02*
X112333332Y-74983809D01*
X112333332Y-74983809D02*
X112285713Y-74888571D01*
X112285713Y-74888571D02*
X112190475Y-74840952D01*
X112190475Y-74840952D02*
X111999999Y-74840952D01*
X111999999Y-74840952D02*
X111904761Y-74888571D01*
X111904761Y-74888571D02*
X111857142Y-74983809D01*
X111857142Y-74983809D02*
X111857142Y-75079047D01*
X111857142Y-75079047D02*
X112333332Y-75174285D01*
X110999999Y-75460000D02*
X111095237Y-75507619D01*
X111095237Y-75507619D02*
X111285713Y-75507619D01*
X111285713Y-75507619D02*
X111380951Y-75460000D01*
X111380951Y-75460000D02*
X111428570Y-75412380D01*
X111428570Y-75412380D02*
X111476189Y-75317142D01*
X111476189Y-75317142D02*
X111476189Y-75031428D01*
X111476189Y-75031428D02*
X111428570Y-74936190D01*
X111428570Y-74936190D02*
X111380951Y-74888571D01*
X111380951Y-74888571D02*
X111285713Y-74840952D01*
X111285713Y-74840952D02*
X111095237Y-74840952D01*
X111095237Y-74840952D02*
X110999999Y-74888571D01*
X110714284Y-74840952D02*
X110333332Y-74840952D01*
X110571427Y-74507619D02*
X110571427Y-75364761D01*
X110571427Y-75364761D02*
X110523808Y-75460000D01*
X110523808Y-75460000D02*
X110428570Y-75507619D01*
X110428570Y-75507619D02*
X110333332Y-75507619D01*
X108904760Y-74983809D02*
X108761903Y-75031428D01*
X108761903Y-75031428D02*
X108714284Y-75079047D01*
X108714284Y-75079047D02*
X108666665Y-75174285D01*
X108666665Y-75174285D02*
X108666665Y-75317142D01*
X108666665Y-75317142D02*
X108714284Y-75412380D01*
X108714284Y-75412380D02*
X108761903Y-75460000D01*
X108761903Y-75460000D02*
X108857141Y-75507619D01*
X108857141Y-75507619D02*
X109238093Y-75507619D01*
X109238093Y-75507619D02*
X109238093Y-74507619D01*
X109238093Y-74507619D02*
X108904760Y-74507619D01*
X108904760Y-74507619D02*
X108809522Y-74555238D01*
X108809522Y-74555238D02*
X108761903Y-74602857D01*
X108761903Y-74602857D02*
X108714284Y-74698095D01*
X108714284Y-74698095D02*
X108714284Y-74793333D01*
X108714284Y-74793333D02*
X108761903Y-74888571D01*
X108761903Y-74888571D02*
X108809522Y-74936190D01*
X108809522Y-74936190D02*
X108904760Y-74983809D01*
X108904760Y-74983809D02*
X109238093Y-74983809D01*
X108238093Y-75507619D02*
X108238093Y-74507619D01*
X108238093Y-74507619D02*
X107666665Y-75507619D01*
X107666665Y-75507619D02*
X107666665Y-74507619D01*
X106619046Y-75412380D02*
X106666665Y-75460000D01*
X106666665Y-75460000D02*
X106809522Y-75507619D01*
X106809522Y-75507619D02*
X106904760Y-75507619D01*
X106904760Y-75507619D02*
X107047617Y-75460000D01*
X107047617Y-75460000D02*
X107142855Y-75364761D01*
X107142855Y-75364761D02*
X107190474Y-75269523D01*
X107190474Y-75269523D02*
X107238093Y-75079047D01*
X107238093Y-75079047D02*
X107238093Y-74936190D01*
X107238093Y-74936190D02*
X107190474Y-74745714D01*
X107190474Y-74745714D02*
X107142855Y-74650476D01*
X107142855Y-74650476D02*
X107047617Y-74555238D01*
X107047617Y-74555238D02*
X106904760Y-74507619D01*
X106904760Y-74507619D02*
X106809522Y-74507619D01*
X106809522Y-74507619D02*
X106666665Y-74555238D01*
X106666665Y-74555238D02*
X106619046Y-74602857D01*
X123809523Y-77080000D02*
X123714285Y-77127619D01*
X123714285Y-77127619D02*
X123523809Y-77127619D01*
X123523809Y-77127619D02*
X123428571Y-77080000D01*
X123428571Y-77080000D02*
X123380952Y-76984761D01*
X123380952Y-76984761D02*
X123380952Y-76937142D01*
X123380952Y-76937142D02*
X123428571Y-76841904D01*
X123428571Y-76841904D02*
X123523809Y-76794285D01*
X123523809Y-76794285D02*
X123666666Y-76794285D01*
X123666666Y-76794285D02*
X123761904Y-76746666D01*
X123761904Y-76746666D02*
X123809523Y-76651428D01*
X123809523Y-76651428D02*
X123809523Y-76603809D01*
X123809523Y-76603809D02*
X123761904Y-76508571D01*
X123761904Y-76508571D02*
X123666666Y-76460952D01*
X123666666Y-76460952D02*
X123523809Y-76460952D01*
X123523809Y-76460952D02*
X123428571Y-76508571D01*
X122952380Y-77127619D02*
X122952380Y-76127619D01*
X122523809Y-77127619D02*
X122523809Y-76603809D01*
X122523809Y-76603809D02*
X122571428Y-76508571D01*
X122571428Y-76508571D02*
X122666666Y-76460952D01*
X122666666Y-76460952D02*
X122809523Y-76460952D01*
X122809523Y-76460952D02*
X122904761Y-76508571D01*
X122904761Y-76508571D02*
X122952380Y-76556190D01*
X122047618Y-77127619D02*
X122047618Y-76460952D01*
X122047618Y-76127619D02*
X122095237Y-76175238D01*
X122095237Y-76175238D02*
X122047618Y-76222857D01*
X122047618Y-76222857D02*
X121999999Y-76175238D01*
X121999999Y-76175238D02*
X122047618Y-76127619D01*
X122047618Y-76127619D02*
X122047618Y-76222857D01*
X121190476Y-77080000D02*
X121285714Y-77127619D01*
X121285714Y-77127619D02*
X121476190Y-77127619D01*
X121476190Y-77127619D02*
X121571428Y-77080000D01*
X121571428Y-77080000D02*
X121619047Y-76984761D01*
X121619047Y-76984761D02*
X121619047Y-76603809D01*
X121619047Y-76603809D02*
X121571428Y-76508571D01*
X121571428Y-76508571D02*
X121476190Y-76460952D01*
X121476190Y-76460952D02*
X121285714Y-76460952D01*
X121285714Y-76460952D02*
X121190476Y-76508571D01*
X121190476Y-76508571D02*
X121142857Y-76603809D01*
X121142857Y-76603809D02*
X121142857Y-76699047D01*
X121142857Y-76699047D02*
X121619047Y-76794285D01*
X120571428Y-77127619D02*
X120666666Y-77080000D01*
X120666666Y-77080000D02*
X120714285Y-76984761D01*
X120714285Y-76984761D02*
X120714285Y-76127619D01*
X119761904Y-77127619D02*
X119761904Y-76127619D01*
X119761904Y-77080000D02*
X119857142Y-77127619D01*
X119857142Y-77127619D02*
X120047618Y-77127619D01*
X120047618Y-77127619D02*
X120142856Y-77080000D01*
X120142856Y-77080000D02*
X120190475Y-77032380D01*
X120190475Y-77032380D02*
X120238094Y-76937142D01*
X120238094Y-76937142D02*
X120238094Y-76651428D01*
X120238094Y-76651428D02*
X120190475Y-76556190D01*
X120190475Y-76556190D02*
X120142856Y-76508571D01*
X120142856Y-76508571D02*
X120047618Y-76460952D01*
X120047618Y-76460952D02*
X119857142Y-76460952D01*
X119857142Y-76460952D02*
X119761904Y-76508571D01*
X118666665Y-76460952D02*
X118285713Y-76460952D01*
X118523808Y-77127619D02*
X118523808Y-76270476D01*
X118523808Y-76270476D02*
X118476189Y-76175238D01*
X118476189Y-76175238D02*
X118380951Y-76127619D01*
X118380951Y-76127619D02*
X118285713Y-76127619D01*
X117952379Y-77127619D02*
X117952379Y-76460952D01*
X117952379Y-76651428D02*
X117904760Y-76556190D01*
X117904760Y-76556190D02*
X117857141Y-76508571D01*
X117857141Y-76508571D02*
X117761903Y-76460952D01*
X117761903Y-76460952D02*
X117666665Y-76460952D01*
X117190474Y-77127619D02*
X117285712Y-77080000D01*
X117285712Y-77080000D02*
X117333331Y-77032380D01*
X117333331Y-77032380D02*
X117380950Y-76937142D01*
X117380950Y-76937142D02*
X117380950Y-76651428D01*
X117380950Y-76651428D02*
X117333331Y-76556190D01*
X117333331Y-76556190D02*
X117285712Y-76508571D01*
X117285712Y-76508571D02*
X117190474Y-76460952D01*
X117190474Y-76460952D02*
X117047617Y-76460952D01*
X117047617Y-76460952D02*
X116952379Y-76508571D01*
X116952379Y-76508571D02*
X116904760Y-76556190D01*
X116904760Y-76556190D02*
X116857141Y-76651428D01*
X116857141Y-76651428D02*
X116857141Y-76937142D01*
X116857141Y-76937142D02*
X116904760Y-77032380D01*
X116904760Y-77032380D02*
X116952379Y-77080000D01*
X116952379Y-77080000D02*
X117047617Y-77127619D01*
X117047617Y-77127619D02*
X117190474Y-77127619D01*
X116428569Y-77127619D02*
X116428569Y-76460952D01*
X116428569Y-76556190D02*
X116380950Y-76508571D01*
X116380950Y-76508571D02*
X116285712Y-76460952D01*
X116285712Y-76460952D02*
X116142855Y-76460952D01*
X116142855Y-76460952D02*
X116047617Y-76508571D01*
X116047617Y-76508571D02*
X115999998Y-76603809D01*
X115999998Y-76603809D02*
X115999998Y-77127619D01*
X115999998Y-76603809D02*
X115952379Y-76508571D01*
X115952379Y-76508571D02*
X115857141Y-76460952D01*
X115857141Y-76460952D02*
X115714284Y-76460952D01*
X115714284Y-76460952D02*
X115619045Y-76508571D01*
X115619045Y-76508571D02*
X115571426Y-76603809D01*
X115571426Y-76603809D02*
X115571426Y-77127619D01*
X113809522Y-76175238D02*
X113904760Y-76127619D01*
X113904760Y-76127619D02*
X114047617Y-76127619D01*
X114047617Y-76127619D02*
X114190474Y-76175238D01*
X114190474Y-76175238D02*
X114285712Y-76270476D01*
X114285712Y-76270476D02*
X114333331Y-76365714D01*
X114333331Y-76365714D02*
X114380950Y-76556190D01*
X114380950Y-76556190D02*
X114380950Y-76699047D01*
X114380950Y-76699047D02*
X114333331Y-76889523D01*
X114333331Y-76889523D02*
X114285712Y-76984761D01*
X114285712Y-76984761D02*
X114190474Y-77080000D01*
X114190474Y-77080000D02*
X114047617Y-77127619D01*
X114047617Y-77127619D02*
X113952379Y-77127619D01*
X113952379Y-77127619D02*
X113809522Y-77080000D01*
X113809522Y-77080000D02*
X113761903Y-77032380D01*
X113761903Y-77032380D02*
X113761903Y-76699047D01*
X113761903Y-76699047D02*
X113952379Y-76699047D01*
X113333331Y-77127619D02*
X113333331Y-76127619D01*
X113333331Y-76127619D02*
X112761903Y-77127619D01*
X112761903Y-77127619D02*
X112761903Y-76127619D01*
X112285712Y-77127619D02*
X112285712Y-76127619D01*
X112285712Y-76127619D02*
X112047617Y-76127619D01*
X112047617Y-76127619D02*
X111904760Y-76175238D01*
X111904760Y-76175238D02*
X111809522Y-76270476D01*
X111809522Y-76270476D02*
X111761903Y-76365714D01*
X111761903Y-76365714D02*
X111714284Y-76556190D01*
X111714284Y-76556190D02*
X111714284Y-76699047D01*
X111714284Y-76699047D02*
X111761903Y-76889523D01*
X111761903Y-76889523D02*
X111809522Y-76984761D01*
X111809522Y-76984761D02*
X111904760Y-77080000D01*
X111904760Y-77080000D02*
X112047617Y-77127619D01*
X112047617Y-77127619D02*
X112285712Y-77127619D01*
X123190476Y-89007619D02*
X123523809Y-88531428D01*
X123761904Y-89007619D02*
X123761904Y-88007619D01*
X123761904Y-88007619D02*
X123380952Y-88007619D01*
X123380952Y-88007619D02*
X123285714Y-88055238D01*
X123285714Y-88055238D02*
X123238095Y-88102857D01*
X123238095Y-88102857D02*
X123190476Y-88198095D01*
X123190476Y-88198095D02*
X123190476Y-88340952D01*
X123190476Y-88340952D02*
X123238095Y-88436190D01*
X123238095Y-88436190D02*
X123285714Y-88483809D01*
X123285714Y-88483809D02*
X123380952Y-88531428D01*
X123380952Y-88531428D02*
X123761904Y-88531428D01*
X122333333Y-88007619D02*
X122523809Y-88007619D01*
X122523809Y-88007619D02*
X122619047Y-88055238D01*
X122619047Y-88055238D02*
X122666666Y-88102857D01*
X122666666Y-88102857D02*
X122761904Y-88245714D01*
X122761904Y-88245714D02*
X122809523Y-88436190D01*
X122809523Y-88436190D02*
X122809523Y-88817142D01*
X122809523Y-88817142D02*
X122761904Y-88912380D01*
X122761904Y-88912380D02*
X122714285Y-88960000D01*
X122714285Y-88960000D02*
X122619047Y-89007619D01*
X122619047Y-89007619D02*
X122428571Y-89007619D01*
X122428571Y-89007619D02*
X122333333Y-88960000D01*
X122333333Y-88960000D02*
X122285714Y-88912380D01*
X122285714Y-88912380D02*
X122238095Y-88817142D01*
X122238095Y-88817142D02*
X122238095Y-88579047D01*
X122238095Y-88579047D02*
X122285714Y-88483809D01*
X122285714Y-88483809D02*
X122333333Y-88436190D01*
X122333333Y-88436190D02*
X122428571Y-88388571D01*
X122428571Y-88388571D02*
X122619047Y-88388571D01*
X122619047Y-88388571D02*
X122714285Y-88436190D01*
X122714285Y-88436190D02*
X122761904Y-88483809D01*
X122761904Y-88483809D02*
X122809523Y-88579047D01*
X120238094Y-89007619D02*
X120285714Y-89007619D01*
X120285714Y-89007619D02*
X120380952Y-88960000D01*
X120380952Y-88960000D02*
X120523809Y-88817142D01*
X120523809Y-88817142D02*
X120761904Y-88531428D01*
X120761904Y-88531428D02*
X120857142Y-88388571D01*
X120857142Y-88388571D02*
X120904761Y-88245714D01*
X120904761Y-88245714D02*
X120904761Y-88150476D01*
X120904761Y-88150476D02*
X120857142Y-88055238D01*
X120857142Y-88055238D02*
X120761904Y-88007619D01*
X120761904Y-88007619D02*
X120714285Y-88007619D01*
X120714285Y-88007619D02*
X120619047Y-88055238D01*
X120619047Y-88055238D02*
X120571428Y-88150476D01*
X120571428Y-88150476D02*
X120571428Y-88198095D01*
X120571428Y-88198095D02*
X120619047Y-88293333D01*
X120619047Y-88293333D02*
X120666666Y-88340952D01*
X120666666Y-88340952D02*
X120952380Y-88531428D01*
X120952380Y-88531428D02*
X120999999Y-88579047D01*
X120999999Y-88579047D02*
X121047618Y-88674285D01*
X121047618Y-88674285D02*
X121047618Y-88817142D01*
X121047618Y-88817142D02*
X120999999Y-88912380D01*
X120999999Y-88912380D02*
X120952380Y-88960000D01*
X120952380Y-88960000D02*
X120857142Y-89007619D01*
X120857142Y-89007619D02*
X120714285Y-89007619D01*
X120714285Y-89007619D02*
X120619047Y-88960000D01*
X120619047Y-88960000D02*
X120571428Y-88912380D01*
X120571428Y-88912380D02*
X120428571Y-88721904D01*
X120428571Y-88721904D02*
X120380952Y-88579047D01*
X120380952Y-88579047D02*
X120380952Y-88483809D01*
X118476190Y-89007619D02*
X118809523Y-88531428D01*
X119047618Y-89007619D02*
X119047618Y-88007619D01*
X119047618Y-88007619D02*
X118666666Y-88007619D01*
X118666666Y-88007619D02*
X118571428Y-88055238D01*
X118571428Y-88055238D02*
X118523809Y-88102857D01*
X118523809Y-88102857D02*
X118476190Y-88198095D01*
X118476190Y-88198095D02*
X118476190Y-88340952D01*
X118476190Y-88340952D02*
X118523809Y-88436190D01*
X118523809Y-88436190D02*
X118571428Y-88483809D01*
X118571428Y-88483809D02*
X118666666Y-88531428D01*
X118666666Y-88531428D02*
X119047618Y-88531428D01*
X118142856Y-88007619D02*
X117476190Y-88007619D01*
X117476190Y-88007619D02*
X117904761Y-89007619D01*
X116047618Y-89388571D02*
X116095237Y-89340952D01*
X116095237Y-89340952D02*
X116190475Y-89198095D01*
X116190475Y-89198095D02*
X116238094Y-89102857D01*
X116238094Y-89102857D02*
X116285713Y-88960000D01*
X116285713Y-88960000D02*
X116333332Y-88721904D01*
X116333332Y-88721904D02*
X116333332Y-88531428D01*
X116333332Y-88531428D02*
X116285713Y-88293333D01*
X116285713Y-88293333D02*
X116238094Y-88150476D01*
X116238094Y-88150476D02*
X116190475Y-88055238D01*
X116190475Y-88055238D02*
X116095237Y-87912380D01*
X116095237Y-87912380D02*
X116047618Y-87864761D01*
X115190475Y-88007619D02*
X115666665Y-88007619D01*
X115666665Y-88007619D02*
X115714284Y-88483809D01*
X115714284Y-88483809D02*
X115666665Y-88436190D01*
X115666665Y-88436190D02*
X115571427Y-88388571D01*
X115571427Y-88388571D02*
X115333332Y-88388571D01*
X115333332Y-88388571D02*
X115238094Y-88436190D01*
X115238094Y-88436190D02*
X115190475Y-88483809D01*
X115190475Y-88483809D02*
X115142856Y-88579047D01*
X115142856Y-88579047D02*
X115142856Y-88817142D01*
X115142856Y-88817142D02*
X115190475Y-88912380D01*
X115190475Y-88912380D02*
X115238094Y-88960000D01*
X115238094Y-88960000D02*
X115333332Y-89007619D01*
X115333332Y-89007619D02*
X115571427Y-89007619D01*
X115571427Y-89007619D02*
X115666665Y-88960000D01*
X115666665Y-88960000D02*
X115714284Y-88912380D01*
X114857141Y-88007619D02*
X114523808Y-89007619D01*
X114523808Y-89007619D02*
X114190475Y-88007619D01*
X113952379Y-89388571D02*
X113904760Y-89340952D01*
X113904760Y-89340952D02*
X113809522Y-89198095D01*
X113809522Y-89198095D02*
X113761903Y-89102857D01*
X113761903Y-89102857D02*
X113714284Y-88960000D01*
X113714284Y-88960000D02*
X113666665Y-88721904D01*
X113666665Y-88721904D02*
X113666665Y-88531428D01*
X113666665Y-88531428D02*
X113714284Y-88293333D01*
X113714284Y-88293333D02*
X113761903Y-88150476D01*
X113761903Y-88150476D02*
X113809522Y-88055238D01*
X113809522Y-88055238D02*
X113904760Y-87912380D01*
X113904760Y-87912380D02*
X113952379Y-87864761D01*
X112476188Y-88960000D02*
X112380950Y-89007619D01*
X112380950Y-89007619D02*
X112190474Y-89007619D01*
X112190474Y-89007619D02*
X112095236Y-88960000D01*
X112095236Y-88960000D02*
X112047617Y-88864761D01*
X112047617Y-88864761D02*
X112047617Y-88817142D01*
X112047617Y-88817142D02*
X112095236Y-88721904D01*
X112095236Y-88721904D02*
X112190474Y-88674285D01*
X112190474Y-88674285D02*
X112333331Y-88674285D01*
X112333331Y-88674285D02*
X112428569Y-88626666D01*
X112428569Y-88626666D02*
X112476188Y-88531428D01*
X112476188Y-88531428D02*
X112476188Y-88483809D01*
X112476188Y-88483809D02*
X112428569Y-88388571D01*
X112428569Y-88388571D02*
X112333331Y-88340952D01*
X112333331Y-88340952D02*
X112190474Y-88340952D01*
X112190474Y-88340952D02*
X112095236Y-88388571D01*
X111238093Y-88960000D02*
X111333331Y-89007619D01*
X111333331Y-89007619D02*
X111523807Y-89007619D01*
X111523807Y-89007619D02*
X111619045Y-88960000D01*
X111619045Y-88960000D02*
X111666664Y-88864761D01*
X111666664Y-88864761D02*
X111666664Y-88483809D01*
X111666664Y-88483809D02*
X111619045Y-88388571D01*
X111619045Y-88388571D02*
X111523807Y-88340952D01*
X111523807Y-88340952D02*
X111333331Y-88340952D01*
X111333331Y-88340952D02*
X111238093Y-88388571D01*
X111238093Y-88388571D02*
X111190474Y-88483809D01*
X111190474Y-88483809D02*
X111190474Y-88579047D01*
X111190474Y-88579047D02*
X111666664Y-88674285D01*
X110904759Y-88340952D02*
X110523807Y-88340952D01*
X110761902Y-88007619D02*
X110761902Y-88864761D01*
X110761902Y-88864761D02*
X110714283Y-88960000D01*
X110714283Y-88960000D02*
X110619045Y-89007619D01*
X110619045Y-89007619D02*
X110523807Y-89007619D01*
X123761904Y-90627619D02*
X123761904Y-89627619D01*
X123761904Y-90008571D02*
X123666666Y-89960952D01*
X123666666Y-89960952D02*
X123476190Y-89960952D01*
X123476190Y-89960952D02*
X123380952Y-90008571D01*
X123380952Y-90008571D02*
X123333333Y-90056190D01*
X123333333Y-90056190D02*
X123285714Y-90151428D01*
X123285714Y-90151428D02*
X123285714Y-90437142D01*
X123285714Y-90437142D02*
X123333333Y-90532380D01*
X123333333Y-90532380D02*
X123380952Y-90580000D01*
X123380952Y-90580000D02*
X123476190Y-90627619D01*
X123476190Y-90627619D02*
X123666666Y-90627619D01*
X123666666Y-90627619D02*
X123761904Y-90580000D01*
X122428571Y-90627619D02*
X122428571Y-90103809D01*
X122428571Y-90103809D02*
X122476190Y-90008571D01*
X122476190Y-90008571D02*
X122571428Y-89960952D01*
X122571428Y-89960952D02*
X122761904Y-89960952D01*
X122761904Y-89960952D02*
X122857142Y-90008571D01*
X122428571Y-90580000D02*
X122523809Y-90627619D01*
X122523809Y-90627619D02*
X122761904Y-90627619D01*
X122761904Y-90627619D02*
X122857142Y-90580000D01*
X122857142Y-90580000D02*
X122904761Y-90484761D01*
X122904761Y-90484761D02*
X122904761Y-90389523D01*
X122904761Y-90389523D02*
X122857142Y-90294285D01*
X122857142Y-90294285D02*
X122761904Y-90246666D01*
X122761904Y-90246666D02*
X122523809Y-90246666D01*
X122523809Y-90246666D02*
X122428571Y-90199047D01*
X121523809Y-90580000D02*
X121619047Y-90627619D01*
X121619047Y-90627619D02*
X121809523Y-90627619D01*
X121809523Y-90627619D02*
X121904761Y-90580000D01*
X121904761Y-90580000D02*
X121952380Y-90532380D01*
X121952380Y-90532380D02*
X121999999Y-90437142D01*
X121999999Y-90437142D02*
X121999999Y-90151428D01*
X121999999Y-90151428D02*
X121952380Y-90056190D01*
X121952380Y-90056190D02*
X121904761Y-90008571D01*
X121904761Y-90008571D02*
X121809523Y-89960952D01*
X121809523Y-89960952D02*
X121619047Y-89960952D01*
X121619047Y-89960952D02*
X121523809Y-90008571D01*
X121095237Y-90627619D02*
X121095237Y-89627619D01*
X120999999Y-90246666D02*
X120714285Y-90627619D01*
X120714285Y-89960952D02*
X121095237Y-90341904D01*
X120142856Y-90627619D02*
X120238094Y-90580000D01*
X120238094Y-90580000D02*
X120285713Y-90484761D01*
X120285713Y-90484761D02*
X120285713Y-89627619D01*
X119761903Y-90627619D02*
X119761903Y-89960952D01*
X119761903Y-89627619D02*
X119809522Y-89675238D01*
X119809522Y-89675238D02*
X119761903Y-89722857D01*
X119761903Y-89722857D02*
X119714284Y-89675238D01*
X119714284Y-89675238D02*
X119761903Y-89627619D01*
X119761903Y-89627619D02*
X119761903Y-89722857D01*
X118857142Y-89960952D02*
X118857142Y-90770476D01*
X118857142Y-90770476D02*
X118904761Y-90865714D01*
X118904761Y-90865714D02*
X118952380Y-90913333D01*
X118952380Y-90913333D02*
X119047618Y-90960952D01*
X119047618Y-90960952D02*
X119190475Y-90960952D01*
X119190475Y-90960952D02*
X119285713Y-90913333D01*
X118857142Y-90580000D02*
X118952380Y-90627619D01*
X118952380Y-90627619D02*
X119142856Y-90627619D01*
X119142856Y-90627619D02*
X119238094Y-90580000D01*
X119238094Y-90580000D02*
X119285713Y-90532380D01*
X119285713Y-90532380D02*
X119333332Y-90437142D01*
X119333332Y-90437142D02*
X119333332Y-90151428D01*
X119333332Y-90151428D02*
X119285713Y-90056190D01*
X119285713Y-90056190D02*
X119238094Y-90008571D01*
X119238094Y-90008571D02*
X119142856Y-89960952D01*
X119142856Y-89960952D02*
X118952380Y-89960952D01*
X118952380Y-89960952D02*
X118857142Y-90008571D01*
X118380951Y-90627619D02*
X118380951Y-89627619D01*
X117952380Y-90627619D02*
X117952380Y-90103809D01*
X117952380Y-90103809D02*
X117999999Y-90008571D01*
X117999999Y-90008571D02*
X118095237Y-89960952D01*
X118095237Y-89960952D02*
X118238094Y-89960952D01*
X118238094Y-89960952D02*
X118333332Y-90008571D01*
X118333332Y-90008571D02*
X118380951Y-90056190D01*
X117619046Y-89960952D02*
X117238094Y-89960952D01*
X117476189Y-89627619D02*
X117476189Y-90484761D01*
X117476189Y-90484761D02*
X117428570Y-90580000D01*
X117428570Y-90580000D02*
X117333332Y-90627619D01*
X117333332Y-90627619D02*
X117238094Y-90627619D01*
X116142855Y-90627619D02*
X116142855Y-89627619D01*
X116142855Y-90008571D02*
X116047617Y-89960952D01*
X116047617Y-89960952D02*
X115857141Y-89960952D01*
X115857141Y-89960952D02*
X115761903Y-90008571D01*
X115761903Y-90008571D02*
X115714284Y-90056190D01*
X115714284Y-90056190D02*
X115666665Y-90151428D01*
X115666665Y-90151428D02*
X115666665Y-90437142D01*
X115666665Y-90437142D02*
X115714284Y-90532380D01*
X115714284Y-90532380D02*
X115761903Y-90580000D01*
X115761903Y-90580000D02*
X115857141Y-90627619D01*
X115857141Y-90627619D02*
X116047617Y-90627619D01*
X116047617Y-90627619D02*
X116142855Y-90580000D01*
X115238093Y-90627619D02*
X115238093Y-89960952D01*
X115238093Y-90151428D02*
X115190474Y-90056190D01*
X115190474Y-90056190D02*
X115142855Y-90008571D01*
X115142855Y-90008571D02*
X115047617Y-89960952D01*
X115047617Y-89960952D02*
X114952379Y-89960952D01*
X114619045Y-90627619D02*
X114619045Y-89960952D01*
X114619045Y-89627619D02*
X114666664Y-89675238D01*
X114666664Y-89675238D02*
X114619045Y-89722857D01*
X114619045Y-89722857D02*
X114571426Y-89675238D01*
X114571426Y-89675238D02*
X114619045Y-89627619D01*
X114619045Y-89627619D02*
X114619045Y-89722857D01*
X113714284Y-89960952D02*
X113714284Y-90770476D01*
X113714284Y-90770476D02*
X113761903Y-90865714D01*
X113761903Y-90865714D02*
X113809522Y-90913333D01*
X113809522Y-90913333D02*
X113904760Y-90960952D01*
X113904760Y-90960952D02*
X114047617Y-90960952D01*
X114047617Y-90960952D02*
X114142855Y-90913333D01*
X113714284Y-90580000D02*
X113809522Y-90627619D01*
X113809522Y-90627619D02*
X113999998Y-90627619D01*
X113999998Y-90627619D02*
X114095236Y-90580000D01*
X114095236Y-90580000D02*
X114142855Y-90532380D01*
X114142855Y-90532380D02*
X114190474Y-90437142D01*
X114190474Y-90437142D02*
X114190474Y-90151428D01*
X114190474Y-90151428D02*
X114142855Y-90056190D01*
X114142855Y-90056190D02*
X114095236Y-90008571D01*
X114095236Y-90008571D02*
X113999998Y-89960952D01*
X113999998Y-89960952D02*
X113809522Y-89960952D01*
X113809522Y-89960952D02*
X113714284Y-90008571D01*
X113238093Y-90627619D02*
X113238093Y-89627619D01*
X112809522Y-90627619D02*
X112809522Y-90103809D01*
X112809522Y-90103809D02*
X112857141Y-90008571D01*
X112857141Y-90008571D02*
X112952379Y-89960952D01*
X112952379Y-89960952D02*
X113095236Y-89960952D01*
X113095236Y-89960952D02*
X113190474Y-90008571D01*
X113190474Y-90008571D02*
X113238093Y-90056190D01*
X112476188Y-89960952D02*
X112095236Y-89960952D01*
X112333331Y-89627619D02*
X112333331Y-90484761D01*
X112333331Y-90484761D02*
X112285712Y-90580000D01*
X112285712Y-90580000D02*
X112190474Y-90627619D01*
X112190474Y-90627619D02*
X112095236Y-90627619D01*
X111761902Y-89960952D02*
X111761902Y-90627619D01*
X111761902Y-90056190D02*
X111714283Y-90008571D01*
X111714283Y-90008571D02*
X111619045Y-89960952D01*
X111619045Y-89960952D02*
X111476188Y-89960952D01*
X111476188Y-89960952D02*
X111380950Y-90008571D01*
X111380950Y-90008571D02*
X111333331Y-90103809D01*
X111333331Y-90103809D02*
X111333331Y-90627619D01*
X110476188Y-90580000D02*
X110571426Y-90627619D01*
X110571426Y-90627619D02*
X110761902Y-90627619D01*
X110761902Y-90627619D02*
X110857140Y-90580000D01*
X110857140Y-90580000D02*
X110904759Y-90484761D01*
X110904759Y-90484761D02*
X110904759Y-90103809D01*
X110904759Y-90103809D02*
X110857140Y-90008571D01*
X110857140Y-90008571D02*
X110761902Y-89960952D01*
X110761902Y-89960952D02*
X110571426Y-89960952D01*
X110571426Y-89960952D02*
X110476188Y-90008571D01*
X110476188Y-90008571D02*
X110428569Y-90103809D01*
X110428569Y-90103809D02*
X110428569Y-90199047D01*
X110428569Y-90199047D02*
X110904759Y-90294285D01*
X110047616Y-90580000D02*
X109952378Y-90627619D01*
X109952378Y-90627619D02*
X109761902Y-90627619D01*
X109761902Y-90627619D02*
X109666664Y-90580000D01*
X109666664Y-90580000D02*
X109619045Y-90484761D01*
X109619045Y-90484761D02*
X109619045Y-90437142D01*
X109619045Y-90437142D02*
X109666664Y-90341904D01*
X109666664Y-90341904D02*
X109761902Y-90294285D01*
X109761902Y-90294285D02*
X109904759Y-90294285D01*
X109904759Y-90294285D02*
X109999997Y-90246666D01*
X109999997Y-90246666D02*
X110047616Y-90151428D01*
X110047616Y-90151428D02*
X110047616Y-90103809D01*
X110047616Y-90103809D02*
X109999997Y-90008571D01*
X109999997Y-90008571D02*
X109904759Y-89960952D01*
X109904759Y-89960952D02*
X109761902Y-89960952D01*
X109761902Y-89960952D02*
X109666664Y-90008571D01*
X109238092Y-90580000D02*
X109142854Y-90627619D01*
X109142854Y-90627619D02*
X108952378Y-90627619D01*
X108952378Y-90627619D02*
X108857140Y-90580000D01*
X108857140Y-90580000D02*
X108809521Y-90484761D01*
X108809521Y-90484761D02*
X108809521Y-90437142D01*
X108809521Y-90437142D02*
X108857140Y-90341904D01*
X108857140Y-90341904D02*
X108952378Y-90294285D01*
X108952378Y-90294285D02*
X109095235Y-90294285D01*
X109095235Y-90294285D02*
X109190473Y-90246666D01*
X109190473Y-90246666D02*
X109238092Y-90151428D01*
X109238092Y-90151428D02*
X109238092Y-90103809D01*
X109238092Y-90103809D02*
X109190473Y-90008571D01*
X109190473Y-90008571D02*
X109095235Y-89960952D01*
X109095235Y-89960952D02*
X108952378Y-89960952D01*
X108952378Y-89960952D02*
X108857140Y-90008571D01*
D11*
X120821428Y-93352619D02*
X120726190Y-93352619D01*
X120726190Y-93352619D02*
X120630952Y-93400238D01*
X120630952Y-93400238D02*
X120583333Y-93447857D01*
X120583333Y-93447857D02*
X120535714Y-93543095D01*
X120535714Y-93543095D02*
X120488095Y-93733571D01*
X120488095Y-93733571D02*
X120488095Y-93971666D01*
X120488095Y-93971666D02*
X120535714Y-94162142D01*
X120535714Y-94162142D02*
X120583333Y-94257380D01*
X120583333Y-94257380D02*
X120630952Y-94305000D01*
X120630952Y-94305000D02*
X120726190Y-94352619D01*
X120726190Y-94352619D02*
X120821428Y-94352619D01*
X120821428Y-94352619D02*
X120916666Y-94305000D01*
X120916666Y-94305000D02*
X120964285Y-94257380D01*
X120964285Y-94257380D02*
X121011904Y-94162142D01*
X121011904Y-94162142D02*
X121059523Y-93971666D01*
X121059523Y-93971666D02*
X121059523Y-93733571D01*
X121059523Y-93733571D02*
X121011904Y-93543095D01*
X121011904Y-93543095D02*
X120964285Y-93447857D01*
X120964285Y-93447857D02*
X120916666Y-93400238D01*
X120916666Y-93400238D02*
X120821428Y-93352619D01*
X119916666Y-93781190D02*
X120011904Y-93733571D01*
X120011904Y-93733571D02*
X120059523Y-93685952D01*
X120059523Y-93685952D02*
X120107142Y-93590714D01*
X120107142Y-93590714D02*
X120107142Y-93543095D01*
X120107142Y-93543095D02*
X120059523Y-93447857D01*
X120059523Y-93447857D02*
X120011904Y-93400238D01*
X120011904Y-93400238D02*
X119916666Y-93352619D01*
X119916666Y-93352619D02*
X119726190Y-93352619D01*
X119726190Y-93352619D02*
X119630952Y-93400238D01*
X119630952Y-93400238D02*
X119583333Y-93447857D01*
X119583333Y-93447857D02*
X119535714Y-93543095D01*
X119535714Y-93543095D02*
X119535714Y-93590714D01*
X119535714Y-93590714D02*
X119583333Y-93685952D01*
X119583333Y-93685952D02*
X119630952Y-93733571D01*
X119630952Y-93733571D02*
X119726190Y-93781190D01*
X119726190Y-93781190D02*
X119916666Y-93781190D01*
X119916666Y-93781190D02*
X120011904Y-93828809D01*
X120011904Y-93828809D02*
X120059523Y-93876428D01*
X120059523Y-93876428D02*
X120107142Y-93971666D01*
X120107142Y-93971666D02*
X120107142Y-94162142D01*
X120107142Y-94162142D02*
X120059523Y-94257380D01*
X120059523Y-94257380D02*
X120011904Y-94305000D01*
X120011904Y-94305000D02*
X119916666Y-94352619D01*
X119916666Y-94352619D02*
X119726190Y-94352619D01*
X119726190Y-94352619D02*
X119630952Y-94305000D01*
X119630952Y-94305000D02*
X119583333Y-94257380D01*
X119583333Y-94257380D02*
X119535714Y-94162142D01*
X119535714Y-94162142D02*
X119535714Y-93971666D01*
X119535714Y-93971666D02*
X119583333Y-93876428D01*
X119583333Y-93876428D02*
X119630952Y-93828809D01*
X119630952Y-93828809D02*
X119726190Y-93781190D01*
X118916666Y-93352619D02*
X118821428Y-93352619D01*
X118821428Y-93352619D02*
X118726190Y-93400238D01*
X118726190Y-93400238D02*
X118678571Y-93447857D01*
X118678571Y-93447857D02*
X118630952Y-93543095D01*
X118630952Y-93543095D02*
X118583333Y-93733571D01*
X118583333Y-93733571D02*
X118583333Y-93971666D01*
X118583333Y-93971666D02*
X118630952Y-94162142D01*
X118630952Y-94162142D02*
X118678571Y-94257380D01*
X118678571Y-94257380D02*
X118726190Y-94305000D01*
X118726190Y-94305000D02*
X118821428Y-94352619D01*
X118821428Y-94352619D02*
X118916666Y-94352619D01*
X118916666Y-94352619D02*
X119011904Y-94305000D01*
X119011904Y-94305000D02*
X119059523Y-94257380D01*
X119059523Y-94257380D02*
X119107142Y-94162142D01*
X119107142Y-94162142D02*
X119154761Y-93971666D01*
X119154761Y-93971666D02*
X119154761Y-93733571D01*
X119154761Y-93733571D02*
X119107142Y-93543095D01*
X119107142Y-93543095D02*
X119059523Y-93447857D01*
X119059523Y-93447857D02*
X119011904Y-93400238D01*
X119011904Y-93400238D02*
X118916666Y-93352619D01*
X117678571Y-93352619D02*
X118154761Y-93352619D01*
X118154761Y-93352619D02*
X118202380Y-93828809D01*
X118202380Y-93828809D02*
X118154761Y-93781190D01*
X118154761Y-93781190D02*
X118059523Y-93733571D01*
X118059523Y-93733571D02*
X117821428Y-93733571D01*
X117821428Y-93733571D02*
X117726190Y-93781190D01*
X117726190Y-93781190D02*
X117678571Y-93828809D01*
X117678571Y-93828809D02*
X117630952Y-93924047D01*
X117630952Y-93924047D02*
X117630952Y-94162142D01*
X117630952Y-94162142D02*
X117678571Y-94257380D01*
X117678571Y-94257380D02*
X117726190Y-94305000D01*
X117726190Y-94305000D02*
X117821428Y-94352619D01*
X117821428Y-94352619D02*
X118059523Y-94352619D01*
X118059523Y-94352619D02*
X118154761Y-94305000D01*
X118154761Y-94305000D02*
X118202380Y-94257380D01*
D10*
%TO.C,J1*%
X125072619Y-97126666D02*
X125786904Y-97126666D01*
X125786904Y-97126666D02*
X125929761Y-97079047D01*
X125929761Y-97079047D02*
X126025000Y-96983809D01*
X126025000Y-96983809D02*
X126072619Y-96840952D01*
X126072619Y-96840952D02*
X126072619Y-96745714D01*
X126072619Y-98126666D02*
X126072619Y-97555238D01*
X126072619Y-97840952D02*
X125072619Y-97840952D01*
X125072619Y-97840952D02*
X125215476Y-97745714D01*
X125215476Y-97745714D02*
X125310714Y-97650476D01*
X125310714Y-97650476D02*
X125358333Y-97555238D01*
%TO.C,J3*%
X147932619Y-97126666D02*
X148646904Y-97126666D01*
X148646904Y-97126666D02*
X148789761Y-97079047D01*
X148789761Y-97079047D02*
X148885000Y-96983809D01*
X148885000Y-96983809D02*
X148932619Y-96840952D01*
X148932619Y-96840952D02*
X148932619Y-96745714D01*
X147932619Y-97507619D02*
X147932619Y-98126666D01*
X147932619Y-98126666D02*
X148313571Y-97793333D01*
X148313571Y-97793333D02*
X148313571Y-97936190D01*
X148313571Y-97936190D02*
X148361190Y-98031428D01*
X148361190Y-98031428D02*
X148408809Y-98079047D01*
X148408809Y-98079047D02*
X148504047Y-98126666D01*
X148504047Y-98126666D02*
X148742142Y-98126666D01*
X148742142Y-98126666D02*
X148837380Y-98079047D01*
X148837380Y-98079047D02*
X148885000Y-98031428D01*
X148885000Y-98031428D02*
X148932619Y-97936190D01*
X148932619Y-97936190D02*
X148932619Y-97650476D01*
X148932619Y-97650476D02*
X148885000Y-97555238D01*
X148885000Y-97555238D02*
X148837380Y-97507619D01*
%TO.C,J2*%
X119083333Y-51712619D02*
X119083333Y-52426904D01*
X119083333Y-52426904D02*
X119130952Y-52569761D01*
X119130952Y-52569761D02*
X119226190Y-52665000D01*
X119226190Y-52665000D02*
X119369047Y-52712619D01*
X119369047Y-52712619D02*
X119464285Y-52712619D01*
X118654761Y-51807857D02*
X118607142Y-51760238D01*
X118607142Y-51760238D02*
X118511904Y-51712619D01*
X118511904Y-51712619D02*
X118273809Y-51712619D01*
X118273809Y-51712619D02*
X118178571Y-51760238D01*
X118178571Y-51760238D02*
X118130952Y-51807857D01*
X118130952Y-51807857D02*
X118083333Y-51903095D01*
X118083333Y-51903095D02*
X118083333Y-51998333D01*
X118083333Y-51998333D02*
X118130952Y-52141190D01*
X118130952Y-52141190D02*
X118702380Y-52712619D01*
X118702380Y-52712619D02*
X118083333Y-52712619D01*
%TO.C,J4*%
X146083333Y-51462619D02*
X146083333Y-52176904D01*
X146083333Y-52176904D02*
X146130952Y-52319761D01*
X146130952Y-52319761D02*
X146226190Y-52415000D01*
X146226190Y-52415000D02*
X146369047Y-52462619D01*
X146369047Y-52462619D02*
X146464285Y-52462619D01*
X145178571Y-51795952D02*
X145178571Y-52462619D01*
X145416666Y-51415000D02*
X145654761Y-52129285D01*
X145654761Y-52129285D02*
X145035714Y-52129285D01*
D12*
%TO.C,J1*%
X129210000Y-98790000D02*
X147050000Y-98790000D01*
X126610000Y-96130000D02*
X126610000Y-97460000D01*
X127940000Y-96130000D02*
X126610000Y-96130000D01*
X129210000Y-96130000D02*
X129210000Y-98790000D01*
X129210000Y-96130000D02*
X147050000Y-96130000D01*
X147050000Y-96130000D02*
X147050000Y-98790000D01*
%TO.C,J3*%
X164830000Y-96130000D02*
X164830000Y-98790000D01*
X152070000Y-96130000D02*
X164830000Y-96130000D01*
X152070000Y-96130000D02*
X152070000Y-98790000D01*
X150800000Y-96130000D02*
X149470000Y-96130000D01*
X149470000Y-96130000D02*
X149470000Y-97460000D01*
X152070000Y-98790000D02*
X164830000Y-98790000D01*
%TO.C,J2*%
X142990000Y-47870000D02*
X142990000Y-50530000D01*
X120070000Y-47870000D02*
X142990000Y-47870000D01*
X120070000Y-47870000D02*
X120070000Y-50530000D01*
X118800000Y-47870000D02*
X117470000Y-47870000D01*
X117470000Y-47870000D02*
X117470000Y-49200000D01*
X120070000Y-50530000D02*
X142990000Y-50530000D01*
%TO.C,J4*%
X164810000Y-47870000D02*
X164810000Y-50530000D01*
X146970000Y-47870000D02*
X164810000Y-47870000D01*
X146970000Y-47870000D02*
X146970000Y-50530000D01*
X145700000Y-47870000D02*
X144370000Y-47870000D01*
X144370000Y-47870000D02*
X144370000Y-49200000D01*
X146970000Y-50530000D02*
X164810000Y-50530000D01*
%TD*%
M02*
