%TF.GenerationSoftware,KiCad,Pcbnew,7.0.2*%
%TF.CreationDate,2023-10-12T23:28:15+02:00*%
%TF.ProjectId,pulse_generator_v2,70756c73-655f-4676-956e-657261746f72,rev?*%
%TF.SameCoordinates,Original*%
%TF.FileFunction,Soldermask,Top*%
%TF.FilePolarity,Negative*%
%FSLAX46Y46*%
G04 Gerber Fmt 4.6, Leading zero omitted, Abs format (unit mm)*
G04 Created by KiCad (PCBNEW 7.0.2) date 2023-10-12 23:28:15*
%MOMM*%
%LPD*%
G01*
G04 APERTURE LIST*
G04 Aperture macros list*
%AMRoundRect*
0 Rectangle with rounded corners*
0 $1 Rounding radius*
0 $2 $3 $4 $5 $6 $7 $8 $9 X,Y pos of 4 corners*
0 Add a 4 corners polygon primitive as box body*
4,1,4,$2,$3,$4,$5,$6,$7,$8,$9,$2,$3,0*
0 Add four circle primitives for the rounded corners*
1,1,$1+$1,$2,$3*
1,1,$1+$1,$4,$5*
1,1,$1+$1,$6,$7*
1,1,$1+$1,$8,$9*
0 Add four rect primitives between the rounded corners*
20,1,$1+$1,$2,$3,$4,$5,0*
20,1,$1+$1,$4,$5,$6,$7,0*
20,1,$1+$1,$6,$7,$8,$9,0*
20,1,$1+$1,$8,$9,$2,$3,0*%
G04 Aperture macros list end*
%ADD10R,2.500000X2.500000*%
%ADD11RoundRect,0.250000X0.350000X0.450000X-0.350000X0.450000X-0.350000X-0.450000X0.350000X-0.450000X0*%
%ADD12RoundRect,0.225000X0.375000X-0.225000X0.375000X0.225000X-0.375000X0.225000X-0.375000X-0.225000X0*%
%ADD13R,1.700000X1.700000*%
%ADD14C,2.100000*%
%ADD15C,1.750000*%
%ADD16R,1.800000X1.800000*%
%ADD17C,1.800000*%
%ADD18RoundRect,0.250000X-0.350000X-0.450000X0.350000X-0.450000X0.350000X0.450000X-0.350000X0.450000X0*%
%ADD19O,2.500000X1.600000*%
%ADD20O,7.000000X3.500000*%
%ADD21R,1.800000X0.800000*%
%ADD22RoundRect,0.250000X0.450000X-0.350000X0.450000X0.350000X-0.450000X0.350000X-0.450000X-0.350000X0*%
%ADD23RoundRect,0.225000X-0.225000X-0.375000X0.225000X-0.375000X0.225000X0.375000X-0.225000X0.375000X0*%
%ADD24R,1.600000X1.600000*%
%ADD25C,1.600000*%
%ADD26R,1.600000X2.400000*%
%ADD27O,1.600000X2.400000*%
%ADD28C,3.200000*%
%ADD29RoundRect,0.250000X0.337500X0.475000X-0.337500X0.475000X-0.337500X-0.475000X0.337500X-0.475000X0*%
%ADD30RoundRect,0.250000X-0.337500X-0.475000X0.337500X-0.475000X0.337500X0.475000X-0.337500X0.475000X0*%
%ADD31R,1.500000X1.500000*%
%ADD32C,1.500000*%
%ADD33RoundRect,0.250000X-0.450000X0.350000X-0.450000X-0.350000X0.450000X-0.350000X0.450000X0.350000X0*%
%ADD34O,1.700000X1.700000*%
G04 APERTURE END LIST*
D10*
%TO.C,TP5*%
X107000000Y-97750000D03*
%TD*%
D11*
%TO.C,R14*%
X145240000Y-55000000D03*
X143240000Y-55000000D03*
%TD*%
D12*
%TO.C,D1*%
X152500000Y-87850000D03*
X152500000Y-84550000D03*
%TD*%
D13*
%TO.C,TP2*%
X133500000Y-91500000D03*
%TD*%
D14*
%TO.C,SW1*%
X92702500Y-82525000D03*
X92702500Y-75515000D03*
D15*
X90212500Y-81275000D03*
X90212500Y-76775000D03*
%TD*%
D16*
%TO.C,D6*%
X92000000Y-52275000D03*
D17*
X92000000Y-49735000D03*
%TD*%
D16*
%TO.C,D3*%
X98000000Y-52300000D03*
D17*
X98000000Y-49760000D03*
%TD*%
D18*
%TO.C,R11*%
X121300000Y-54850000D03*
X123300000Y-54850000D03*
%TD*%
%TO.C,R7*%
X109250000Y-75250000D03*
X111250000Y-75250000D03*
%TD*%
D12*
%TO.C,D2*%
X155500000Y-84500000D03*
X155500000Y-81200000D03*
%TD*%
D19*
%TO.C,J5*%
X98600000Y-91500000D03*
D20*
X93520000Y-96580000D03*
D19*
X98600000Y-94040000D03*
D20*
X93520000Y-86420000D03*
%TD*%
D21*
%TO.C,K1*%
X110000000Y-61050000D03*
X110000000Y-64250000D03*
X110000000Y-66450000D03*
X110000000Y-68650000D03*
X117000000Y-68650000D03*
X117000000Y-66450000D03*
X117000000Y-64250000D03*
X117000000Y-61050000D03*
%TD*%
D16*
%TO.C,D5*%
X104500000Y-52300000D03*
D17*
X104500000Y-49760000D03*
%TD*%
D13*
%TO.C,TP4*%
X134000000Y-76000000D03*
%TD*%
D22*
%TO.C,R4*%
X106750000Y-56000000D03*
X106750000Y-58000000D03*
%TD*%
%TO.C,R17*%
X140960000Y-63110000D03*
X140960000Y-61110000D03*
%TD*%
D11*
%TO.C,R15*%
X134460000Y-64610000D03*
X132460000Y-64610000D03*
%TD*%
%TO.C,R12*%
X123300000Y-57350000D03*
X121300000Y-57350000D03*
%TD*%
D18*
%TO.C,R8*%
X105000000Y-93500000D03*
X107000000Y-93500000D03*
%TD*%
D23*
%TO.C,D7*%
X111850000Y-57250000D03*
X115150000Y-57250000D03*
%TD*%
D24*
%TO.C,C4*%
X138044888Y-92750000D03*
D25*
X140544888Y-92750000D03*
%TD*%
D18*
%TO.C,R3*%
X126200000Y-76000000D03*
X128200000Y-76000000D03*
%TD*%
D26*
%TO.C,U1*%
X126000000Y-88000000D03*
D27*
X128540000Y-88000000D03*
X131080000Y-88000000D03*
X133620000Y-88000000D03*
X133620000Y-80380000D03*
X131080000Y-80380000D03*
X128540000Y-80380000D03*
X126000000Y-80380000D03*
%TD*%
D28*
%TO.C,MH1*%
X115240000Y-49200000D03*
%TD*%
D26*
%TO.C,U3*%
X161780000Y-60000000D03*
D27*
X159240000Y-60000000D03*
X156700000Y-60000000D03*
X154160000Y-60000000D03*
X151620000Y-60000000D03*
X149080000Y-60000000D03*
X146540000Y-60000000D03*
X144000000Y-60000000D03*
X144000000Y-67620000D03*
X146540000Y-67620000D03*
X149080000Y-67620000D03*
X151620000Y-67620000D03*
X154160000Y-67620000D03*
X156700000Y-67620000D03*
X159240000Y-67620000D03*
X161780000Y-67620000D03*
%TD*%
D16*
%TO.C,D4*%
X104500000Y-76500000D03*
D17*
X104500000Y-73960000D03*
%TD*%
D24*
%TO.C,C2*%
X144044888Y-92750000D03*
D25*
X146544888Y-92750000D03*
%TD*%
D18*
%TO.C,R1*%
X147000000Y-84500000D03*
X149000000Y-84500000D03*
%TD*%
%TO.C,R10*%
X121300000Y-66350000D03*
X123300000Y-66350000D03*
%TD*%
D13*
%TO.C,TP1*%
X139000000Y-78000000D03*
%TD*%
D11*
%TO.C,R13*%
X149740000Y-55000000D03*
X147740000Y-55000000D03*
%TD*%
D29*
%TO.C,C3*%
X123037500Y-80500000D03*
X120962500Y-80500000D03*
%TD*%
D18*
%TO.C,R16*%
X136460000Y-64610000D03*
X138460000Y-64610000D03*
%TD*%
D13*
%TO.C,TP3*%
X121500000Y-97500000D03*
%TD*%
D30*
%TO.C,C5*%
X112462500Y-54000000D03*
X114537500Y-54000000D03*
%TD*%
D14*
%TO.C,SW2*%
X93990000Y-46250000D03*
X93990000Y-39240000D03*
D15*
X91500000Y-45000000D03*
X91500000Y-40500000D03*
%TD*%
D18*
%TO.C,R9*%
X105000000Y-68500000D03*
X107000000Y-68500000D03*
%TD*%
D31*
%TO.C,Q3*%
X132960000Y-61100000D03*
D32*
X135500000Y-61100000D03*
X138040000Y-61100000D03*
%TD*%
D11*
%TO.C,R5*%
X128200000Y-73500000D03*
X126200000Y-73500000D03*
%TD*%
D31*
%TO.C,Q1*%
X119760000Y-61100000D03*
D32*
X122300000Y-61100000D03*
X124840000Y-61100000D03*
%TD*%
D28*
%TO.C,MH2*%
X113970000Y-97460000D03*
%TD*%
D33*
%TO.C,R6*%
X109000000Y-50000000D03*
X109000000Y-52000000D03*
%TD*%
D28*
%TO.C,MH3*%
X166040000Y-64440000D03*
%TD*%
D31*
%TO.C,Q2*%
X128960000Y-63540000D03*
D32*
X128960000Y-61000000D03*
X128960000Y-58460000D03*
%TD*%
D28*
%TO.C,MH4*%
X166040000Y-92380000D03*
%TD*%
D33*
%TO.C,R2*%
X143500000Y-84500000D03*
X143500000Y-86500000D03*
%TD*%
D19*
%TO.C,J6*%
X98600000Y-66500000D03*
D20*
X93520000Y-71580000D03*
D19*
X98600000Y-69040000D03*
D20*
X93520000Y-61420000D03*
%TD*%
D30*
%TO.C,C1*%
X161702500Y-70500000D03*
X163777500Y-70500000D03*
%TD*%
D34*
%TO.C,J1*%
X145720000Y-97460000D03*
X143180000Y-97460000D03*
X140640000Y-97460000D03*
X138100000Y-97460000D03*
X135560000Y-97460000D03*
X133020000Y-97460000D03*
X130480000Y-97460000D03*
D13*
X127940000Y-97460000D03*
%TD*%
%TO.C,J3*%
X150800000Y-97460000D03*
D34*
X153340000Y-97460000D03*
X155880000Y-97460000D03*
X158420000Y-97460000D03*
X160960000Y-97460000D03*
X163500000Y-97460000D03*
%TD*%
D13*
%TO.C,J2*%
X118800000Y-49200000D03*
D34*
X121340000Y-49200000D03*
X123880000Y-49200000D03*
X126420000Y-49200000D03*
X128960000Y-49200000D03*
X131500000Y-49200000D03*
X134040000Y-49200000D03*
X136580000Y-49200000D03*
X139120000Y-49200000D03*
X141660000Y-49200000D03*
%TD*%
D13*
%TO.C,J4*%
X145700000Y-49200000D03*
D34*
X148240000Y-49200000D03*
X150780000Y-49200000D03*
X153320000Y-49200000D03*
X155860000Y-49200000D03*
X158400000Y-49200000D03*
X160940000Y-49200000D03*
X163480000Y-49200000D03*
%TD*%
M02*
