%TF.GenerationSoftware,KiCad,Pcbnew,7.0.2*%
%TF.CreationDate,2023-10-12T23:28:15+02:00*%
%TF.ProjectId,pulse_generator_v2,70756c73-655f-4676-956e-657261746f72,rev?*%
%TF.SameCoordinates,Original*%
%TF.FileFunction,Copper,L3,Inr*%
%TF.FilePolarity,Positive*%
%FSLAX46Y46*%
G04 Gerber Fmt 4.6, Leading zero omitted, Abs format (unit mm)*
G04 Created by KiCad (PCBNEW 7.0.2) date 2023-10-12 23:28:15*
%MOMM*%
%LPD*%
G01*
G04 APERTURE LIST*
%TA.AperFunction,ComponentPad*%
%ADD10R,1.700000X1.700000*%
%TD*%
%TA.AperFunction,ComponentPad*%
%ADD11C,2.100000*%
%TD*%
%TA.AperFunction,ComponentPad*%
%ADD12C,1.750000*%
%TD*%
%TA.AperFunction,ComponentPad*%
%ADD13R,1.800000X1.800000*%
%TD*%
%TA.AperFunction,ComponentPad*%
%ADD14C,1.800000*%
%TD*%
%TA.AperFunction,ComponentPad*%
%ADD15O,2.500000X1.600000*%
%TD*%
%TA.AperFunction,ComponentPad*%
%ADD16O,7.000000X3.500000*%
%TD*%
%TA.AperFunction,ComponentPad*%
%ADD17R,1.600000X1.600000*%
%TD*%
%TA.AperFunction,ComponentPad*%
%ADD18C,1.600000*%
%TD*%
%TA.AperFunction,ComponentPad*%
%ADD19R,1.600000X2.400000*%
%TD*%
%TA.AperFunction,ComponentPad*%
%ADD20O,1.600000X2.400000*%
%TD*%
%TA.AperFunction,ComponentPad*%
%ADD21R,1.500000X1.500000*%
%TD*%
%TA.AperFunction,ComponentPad*%
%ADD22C,1.500000*%
%TD*%
%TA.AperFunction,ComponentPad*%
%ADD23O,1.700000X1.700000*%
%TD*%
%TA.AperFunction,ViaPad*%
%ADD24C,0.600000*%
%TD*%
%TA.AperFunction,ViaPad*%
%ADD25C,0.800000*%
%TD*%
G04 APERTURE END LIST*
D10*
%TO.N,/A2*%
%TO.C,TP2*%
X133500000Y-91500000D03*
%TD*%
D11*
%TO.N,*%
%TO.C,SW1*%
X92702500Y-82525000D03*
X92702500Y-75515000D03*
D12*
%TO.N,GND*%
X90212500Y-81275000D03*
%TO.N,/~{RESET}*%
X90212500Y-76775000D03*
%TD*%
D13*
%TO.N,GND*%
%TO.C,D6*%
X92000000Y-52275000D03*
D14*
%TO.N,Net-(D6-A)*%
X92000000Y-49735000D03*
%TD*%
D13*
%TO.N,GND*%
%TO.C,D3*%
X98000000Y-52300000D03*
D14*
%TO.N,Net-(D3-A)*%
X98000000Y-49760000D03*
%TD*%
D15*
%TO.N,Net-(J5-In)*%
%TO.C,J5*%
X98600000Y-91500000D03*
D16*
%TO.N,Net-(J5-Ext)*%
X93520000Y-96580000D03*
D15*
X98600000Y-94040000D03*
D16*
X93520000Y-86420000D03*
%TD*%
D13*
%TO.N,Net-(D5-K)*%
%TO.C,D5*%
X104500000Y-52300000D03*
D14*
%TO.N,+5V*%
X104500000Y-49760000D03*
%TD*%
D10*
%TO.N,/2*%
%TO.C,TP4*%
X134000000Y-76000000D03*
%TD*%
D17*
%TO.N,+3V3*%
%TO.C,C4*%
X138044888Y-92750000D03*
D18*
%TO.N,GND*%
X140544888Y-92750000D03*
%TD*%
D19*
%TO.N,GND*%
%TO.C,U1*%
X126000000Y-88000000D03*
D20*
%TO.N,/A2*%
X128540000Y-88000000D03*
%TO.N,Net-(J5-In)*%
X131080000Y-88000000D03*
%TO.N,GND*%
X133620000Y-88000000D03*
%TO.N,unconnected-(U1-BAL-Pad5)*%
X133620000Y-80380000D03*
%TO.N,unconnected-(U1-STRB-Pad6)*%
X131080000Y-80380000D03*
%TO.N,/2*%
X128540000Y-80380000D03*
%TO.N,+5V*%
X126000000Y-80380000D03*
%TD*%
D19*
%TO.N,N/C*%
%TO.C,U3*%
X161780000Y-60000000D03*
D20*
X159240000Y-60000000D03*
X156700000Y-60000000D03*
X154160000Y-60000000D03*
%TO.N,/~{RESET}*%
X151620000Y-60000000D03*
%TO.N,Net-(U3B-2~{S})*%
X149080000Y-60000000D03*
%TO.N,ARM*%
X146540000Y-60000000D03*
%TO.N,GND*%
X144000000Y-60000000D03*
%TO.N,N/C*%
X144000000Y-67620000D03*
X146540000Y-67620000D03*
X149080000Y-67620000D03*
X151620000Y-67620000D03*
%TO.N,PULSE*%
X154160000Y-67620000D03*
%TO.N,/2*%
X156700000Y-67620000D03*
%TO.N,/4*%
X159240000Y-67620000D03*
%TO.N,+5V*%
X161780000Y-67620000D03*
%TD*%
D13*
%TO.N,Net-(D4-K)*%
%TO.C,D4*%
X104500000Y-76500000D03*
D14*
%TO.N,+5V*%
X104500000Y-73960000D03*
%TD*%
D17*
%TO.N,+5V*%
%TO.C,C2*%
X144044888Y-92750000D03*
D18*
%TO.N,GND*%
X146544888Y-92750000D03*
%TD*%
D10*
%TO.N,GND*%
%TO.C,TP1*%
X139000000Y-78000000D03*
%TD*%
%TO.N,+5V*%
%TO.C,TP3*%
X121500000Y-97500000D03*
%TD*%
D11*
%TO.N,*%
%TO.C,SW2*%
X93990000Y-46250000D03*
X93990000Y-39240000D03*
D12*
%TO.N,PULSE*%
X91500000Y-45000000D03*
%TO.N,Net-(R14-Pad2)*%
X91500000Y-40500000D03*
%TD*%
D21*
%TO.N,Net-(Q2-B)*%
%TO.C,Q3*%
X132960000Y-61100000D03*
D22*
%TO.N,Net-(Q3-B)*%
X135500000Y-61100000D03*
%TO.N,GND*%
X138040000Y-61100000D03*
%TD*%
D21*
%TO.N,COIL-*%
%TO.C,Q1*%
X119760000Y-61100000D03*
D22*
%TO.N,Net-(Q1-B)*%
X122300000Y-61100000D03*
%TO.N,GND*%
X124840000Y-61100000D03*
%TD*%
D21*
%TO.N,/~{RESET}*%
%TO.C,Q2*%
X128960000Y-63540000D03*
D22*
%TO.N,Net-(Q2-B)*%
X128960000Y-61000000D03*
%TO.N,GND*%
X128960000Y-58460000D03*
%TD*%
D15*
%TO.N,Net-(J6-In)*%
%TO.C,J6*%
X98600000Y-66500000D03*
D16*
%TO.N,Net-(J6-Ext)*%
X93520000Y-71580000D03*
D15*
X98600000Y-69040000D03*
D16*
X93520000Y-61420000D03*
%TD*%
D23*
%TO.N,VCC*%
%TO.C,J1*%
X145720000Y-97460000D03*
%TO.N,GND*%
X143180000Y-97460000D03*
X140640000Y-97460000D03*
%TO.N,+5V*%
X138100000Y-97460000D03*
%TO.N,+3V3*%
X135560000Y-97460000D03*
%TO.N,/~{RESET}*%
X133020000Y-97460000D03*
%TO.N,/IOREF*%
X130480000Y-97460000D03*
D10*
%TO.N,unconnected-(J1-Pin_1-Pad1)*%
X127940000Y-97460000D03*
%TD*%
%TO.N,/A0*%
%TO.C,J3*%
X150800000Y-97460000D03*
D23*
%TO.N,/A1*%
X153340000Y-97460000D03*
%TO.N,/A2*%
X155880000Y-97460000D03*
%TO.N,/A3*%
X158420000Y-97460000D03*
%TO.N,unconnected-(J3-Pin_5-Pad5)*%
X160960000Y-97460000D03*
%TO.N,unconnected-(J3-Pin_6-Pad6)*%
X163500000Y-97460000D03*
%TD*%
D10*
%TO.N,unconnected-(J2-Pin_1-Pad1)*%
%TO.C,J2*%
X118800000Y-49200000D03*
D23*
%TO.N,unconnected-(J2-Pin_2-Pad2)*%
X121340000Y-49200000D03*
%TO.N,/AREF*%
X123880000Y-49200000D03*
%TO.N,GND*%
X126420000Y-49200000D03*
%TO.N,/13*%
X128960000Y-49200000D03*
%TO.N,/12*%
X131500000Y-49200000D03*
%TO.N,/\u002A11*%
X134040000Y-49200000D03*
%TO.N,/\u002A10*%
X136580000Y-49200000D03*
%TO.N,/\u002A9*%
X139120000Y-49200000D03*
%TO.N,/8*%
X141660000Y-49200000D03*
%TD*%
D10*
%TO.N,/7*%
%TO.C,J4*%
X145700000Y-49200000D03*
D23*
%TO.N,/\u002A6*%
X148240000Y-49200000D03*
%TO.N,/\u002A5*%
X150780000Y-49200000D03*
%TO.N,/4*%
X153320000Y-49200000D03*
%TO.N,/\u002A3*%
X155860000Y-49200000D03*
%TO.N,/2*%
X158400000Y-49200000D03*
%TO.N,/TX{slash}1*%
X160940000Y-49200000D03*
%TO.N,/RX{slash}0*%
X163480000Y-49200000D03*
%TD*%
D24*
%TO.N,GND*%
X124500000Y-73500000D03*
X111250000Y-76750000D03*
X123300000Y-53350000D03*
D25*
X108500000Y-93500000D03*
X119715000Y-80500000D03*
X155500000Y-79500000D03*
D24*
X107000000Y-50000000D03*
D25*
X145500000Y-86500000D03*
X108300498Y-68500000D03*
X165240000Y-70500000D03*
D24*
%TO.N,+5V*%
X134500000Y-66000000D03*
X151200000Y-55000000D03*
X124800000Y-66400000D03*
X124500000Y-76000000D03*
D25*
%TO.N,+3V3*%
X119250000Y-65000000D03*
%TO.N,Net-(J5-Ext)*%
X103500000Y-93500000D03*
%TO.N,Net-(J6-Ext)*%
X103500000Y-68500000D03*
%TD*%
%TA.AperFunction,Conductor*%
%TO.N,+5V*%
G36*
X93370578Y-37595502D02*
G01*
X93417071Y-37649158D01*
X93427175Y-37719432D01*
X93397681Y-37784012D01*
X93350676Y-37817909D01*
X93280267Y-37847073D01*
X93210003Y-37890131D01*
X93071104Y-37975248D01*
X93032456Y-38008257D01*
X92884567Y-38134567D01*
X92725249Y-38321103D01*
X92597073Y-38530267D01*
X92503194Y-38756908D01*
X92445927Y-38995442D01*
X92427659Y-39227564D01*
X92402373Y-39293906D01*
X92345235Y-39336045D01*
X92274385Y-39340604D01*
X92242078Y-39328492D01*
X92057649Y-39228684D01*
X91910851Y-39178289D01*
X91840793Y-39154238D01*
X91614640Y-39116500D01*
X91385360Y-39116500D01*
X91159207Y-39154238D01*
X91159204Y-39154238D01*
X91159204Y-39154239D01*
X90942350Y-39228684D01*
X90740704Y-39337808D01*
X90559765Y-39478640D01*
X90404482Y-39647322D01*
X90279079Y-39839266D01*
X90186975Y-40049243D01*
X90130693Y-40271498D01*
X90130692Y-40271503D01*
X90111758Y-40500000D01*
X90130692Y-40728497D01*
X90130692Y-40728500D01*
X90130693Y-40728501D01*
X90186975Y-40950756D01*
X90279079Y-41160733D01*
X90404482Y-41352677D01*
X90559765Y-41521359D01*
X90559769Y-41521363D01*
X90644800Y-41587545D01*
X90740704Y-41662191D01*
X90942349Y-41771315D01*
X90942350Y-41771315D01*
X91159207Y-41845762D01*
X91385360Y-41883500D01*
X91385363Y-41883500D01*
X91614637Y-41883500D01*
X91614640Y-41883500D01*
X91840793Y-41845762D01*
X92057650Y-41771315D01*
X92166773Y-41712260D01*
X92259295Y-41662191D01*
X92280553Y-41645644D01*
X92440231Y-41521363D01*
X92595518Y-41352676D01*
X92720922Y-41160730D01*
X92813023Y-40950761D01*
X92869308Y-40728497D01*
X92879803Y-40601838D01*
X92905361Y-40535606D01*
X92962673Y-40493702D01*
X93033541Y-40489436D01*
X93071201Y-40504811D01*
X93280268Y-40632927D01*
X93506908Y-40726805D01*
X93745443Y-40784072D01*
X93990000Y-40803319D01*
X94234557Y-40784072D01*
X94473092Y-40726805D01*
X94699732Y-40632927D01*
X94908896Y-40504752D01*
X95095433Y-40345433D01*
X95254752Y-40158896D01*
X95382927Y-39949732D01*
X95476805Y-39723092D01*
X95534072Y-39484557D01*
X95553319Y-39240000D01*
X95534072Y-38995443D01*
X95476805Y-38756908D01*
X95382927Y-38530268D01*
X95254752Y-38321104D01*
X95095433Y-38134567D01*
X94908896Y-37975248D01*
X94699732Y-37847073D01*
X94629323Y-37817908D01*
X94574044Y-37773360D01*
X94551623Y-37705997D01*
X94569182Y-37637205D01*
X94621144Y-37588827D01*
X94677543Y-37575500D01*
X98916537Y-37575500D01*
X98984658Y-37595502D01*
X99005632Y-37612405D01*
X108414617Y-47021390D01*
X108426515Y-47036896D01*
X108444734Y-47052184D01*
X108452835Y-47059609D01*
X108461660Y-47068434D01*
X108471789Y-47074887D01*
X108472520Y-47075500D01*
X108472522Y-47075500D01*
X108482462Y-47079118D01*
X108492996Y-47080040D01*
X108492997Y-47080039D01*
X108492998Y-47080040D01*
X108493917Y-47079793D01*
X108526529Y-47075500D01*
X163417470Y-47075500D01*
X163485591Y-47095502D01*
X163505856Y-47111700D01*
X164141615Y-47737447D01*
X164176133Y-47799487D01*
X164171630Y-47870341D01*
X164129536Y-47927513D01*
X164063215Y-47952851D01*
X164012317Y-47946420D01*
X163921022Y-47915078D01*
X163814635Y-47878556D01*
X163592569Y-47841500D01*
X163367431Y-47841500D01*
X163145365Y-47878556D01*
X163145362Y-47878556D01*
X163145362Y-47878557D01*
X162932426Y-47951657D01*
X162734421Y-48058812D01*
X162556762Y-48197091D01*
X162404278Y-48362731D01*
X162315483Y-48498643D01*
X162261479Y-48544731D01*
X162191131Y-48554306D01*
X162126774Y-48524328D01*
X162104517Y-48498643D01*
X162015721Y-48362731D01*
X161955945Y-48297798D01*
X161863240Y-48197094D01*
X161863239Y-48197093D01*
X161863237Y-48197091D01*
X161685578Y-48058812D01*
X161487573Y-47951657D01*
X161334510Y-47899111D01*
X161274635Y-47878556D01*
X161052569Y-47841500D01*
X160827431Y-47841500D01*
X160605365Y-47878556D01*
X160605362Y-47878556D01*
X160605362Y-47878557D01*
X160392426Y-47951657D01*
X160194421Y-48058812D01*
X160016762Y-48197091D01*
X159864278Y-48362731D01*
X159775483Y-48498643D01*
X159721479Y-48544731D01*
X159651131Y-48554306D01*
X159586774Y-48524328D01*
X159564517Y-48498643D01*
X159475721Y-48362731D01*
X159415945Y-48297798D01*
X159323240Y-48197094D01*
X159323239Y-48197093D01*
X159323237Y-48197091D01*
X159145578Y-48058812D01*
X158947573Y-47951657D01*
X158794510Y-47899111D01*
X158734635Y-47878556D01*
X158512569Y-47841500D01*
X158287431Y-47841500D01*
X158065365Y-47878556D01*
X158065362Y-47878556D01*
X158065362Y-47878557D01*
X157852426Y-47951657D01*
X157654421Y-48058812D01*
X157476762Y-48197091D01*
X157324278Y-48362731D01*
X157235483Y-48498643D01*
X157181479Y-48544731D01*
X157111131Y-48554306D01*
X157046774Y-48524328D01*
X157024517Y-48498643D01*
X156935721Y-48362731D01*
X156875945Y-48297798D01*
X156783240Y-48197094D01*
X156783239Y-48197093D01*
X156783237Y-48197091D01*
X156605578Y-48058812D01*
X156407573Y-47951657D01*
X156254510Y-47899111D01*
X156194635Y-47878556D01*
X155972569Y-47841500D01*
X155747431Y-47841500D01*
X155525365Y-47878556D01*
X155525362Y-47878556D01*
X155525362Y-47878557D01*
X155312426Y-47951657D01*
X155114421Y-48058812D01*
X154936762Y-48197091D01*
X154784278Y-48362731D01*
X154695483Y-48498643D01*
X154641479Y-48544731D01*
X154571131Y-48554306D01*
X154506774Y-48524328D01*
X154484517Y-48498643D01*
X154395721Y-48362731D01*
X154335945Y-48297798D01*
X154243240Y-48197094D01*
X154243239Y-48197093D01*
X154243237Y-48197091D01*
X154065578Y-48058812D01*
X153867573Y-47951657D01*
X153714510Y-47899111D01*
X153654635Y-47878556D01*
X153432569Y-47841500D01*
X153207431Y-47841500D01*
X152985365Y-47878556D01*
X152985362Y-47878556D01*
X152985362Y-47878557D01*
X152772426Y-47951657D01*
X152574421Y-48058812D01*
X152396762Y-48197091D01*
X152244278Y-48362731D01*
X152155483Y-48498643D01*
X152101479Y-48544731D01*
X152031131Y-48554306D01*
X151966774Y-48524328D01*
X151944517Y-48498643D01*
X151855721Y-48362731D01*
X151795945Y-48297798D01*
X151703240Y-48197094D01*
X151703239Y-48197093D01*
X151703237Y-48197091D01*
X151525578Y-48058812D01*
X151327573Y-47951657D01*
X151174510Y-47899111D01*
X151114635Y-47878556D01*
X150892569Y-47841500D01*
X150667431Y-47841500D01*
X150445365Y-47878556D01*
X150445362Y-47878556D01*
X150445362Y-47878557D01*
X150232426Y-47951657D01*
X150034421Y-48058812D01*
X149856762Y-48197091D01*
X149704278Y-48362731D01*
X149615483Y-48498643D01*
X149561479Y-48544731D01*
X149491131Y-48554306D01*
X149426774Y-48524328D01*
X149404517Y-48498643D01*
X149315721Y-48362731D01*
X149255945Y-48297798D01*
X149163240Y-48197094D01*
X149163239Y-48197093D01*
X149163237Y-48197091D01*
X148985578Y-48058812D01*
X148787573Y-47951657D01*
X148634510Y-47899111D01*
X148574635Y-47878556D01*
X148352569Y-47841500D01*
X148127431Y-47841500D01*
X147905365Y-47878556D01*
X147905362Y-47878556D01*
X147905362Y-47878557D01*
X147692426Y-47951657D01*
X147494421Y-48058812D01*
X147316758Y-48197094D01*
X147255754Y-48263362D01*
X147194901Y-48299933D01*
X147123937Y-48297798D01*
X147065392Y-48257636D01*
X147044998Y-48222056D01*
X147035688Y-48197094D01*
X147000889Y-48103796D01*
X147000888Y-48103794D01*
X146913261Y-47986738D01*
X146796205Y-47899111D01*
X146719069Y-47870341D01*
X146659201Y-47848011D01*
X146598638Y-47841500D01*
X144801362Y-47841500D01*
X144798013Y-47841859D01*
X144798013Y-47841860D01*
X144740799Y-47848011D01*
X144603794Y-47899111D01*
X144486738Y-47986738D01*
X144399111Y-48103794D01*
X144364313Y-48197091D01*
X144348011Y-48240799D01*
X144341500Y-48301362D01*
X144341500Y-50098638D01*
X144348011Y-50159201D01*
X144356159Y-50181047D01*
X144399111Y-50296205D01*
X144486738Y-50413261D01*
X144603794Y-50500888D01*
X144603795Y-50500888D01*
X144603796Y-50500889D01*
X144740799Y-50551989D01*
X144801362Y-50558500D01*
X144804731Y-50558500D01*
X146595269Y-50558500D01*
X146598638Y-50558500D01*
X146659201Y-50551989D01*
X146796204Y-50500889D01*
X146913261Y-50413261D01*
X147000889Y-50296204D01*
X147044999Y-50177941D01*
X147087545Y-50121107D01*
X147154065Y-50096296D01*
X147223439Y-50111387D01*
X147255753Y-50136635D01*
X147293780Y-50177943D01*
X147316762Y-50202908D01*
X147436629Y-50296205D01*
X147494424Y-50341189D01*
X147692426Y-50448342D01*
X147905365Y-50521444D01*
X148127431Y-50558500D01*
X148127434Y-50558500D01*
X148352566Y-50558500D01*
X148352569Y-50558500D01*
X148574635Y-50521444D01*
X148787574Y-50448342D01*
X148985576Y-50341189D01*
X149163240Y-50202906D01*
X149315722Y-50037268D01*
X149404518Y-49901354D01*
X149458521Y-49855268D01*
X149528869Y-49845693D01*
X149593226Y-49875670D01*
X149615480Y-49901353D01*
X149704278Y-50037268D01*
X149816525Y-50159200D01*
X149856762Y-50202908D01*
X149976629Y-50296205D01*
X150034424Y-50341189D01*
X150232426Y-50448342D01*
X150445365Y-50521444D01*
X150667431Y-50558500D01*
X150667434Y-50558500D01*
X150892566Y-50558500D01*
X150892569Y-50558500D01*
X151114635Y-50521444D01*
X151327574Y-50448342D01*
X151525576Y-50341189D01*
X151703240Y-50202906D01*
X151855722Y-50037268D01*
X151944518Y-49901354D01*
X151998521Y-49855268D01*
X152068869Y-49845693D01*
X152133226Y-49875670D01*
X152155480Y-49901353D01*
X152244278Y-50037268D01*
X152356525Y-50159200D01*
X152396762Y-50202908D01*
X152516629Y-50296205D01*
X152574424Y-50341189D01*
X152772426Y-50448342D01*
X152985365Y-50521444D01*
X153207431Y-50558500D01*
X153207434Y-50558500D01*
X153432566Y-50558500D01*
X153432569Y-50558500D01*
X153654635Y-50521444D01*
X153867574Y-50448342D01*
X154065576Y-50341189D01*
X154243240Y-50202906D01*
X154395722Y-50037268D01*
X154484518Y-49901354D01*
X154538521Y-49855268D01*
X154608869Y-49845693D01*
X154673226Y-49875670D01*
X154695480Y-49901353D01*
X154784278Y-50037268D01*
X154896525Y-50159200D01*
X154936762Y-50202908D01*
X155056629Y-50296205D01*
X155114424Y-50341189D01*
X155312426Y-50448342D01*
X155525365Y-50521444D01*
X155747431Y-50558500D01*
X155747434Y-50558500D01*
X155972566Y-50558500D01*
X155972569Y-50558500D01*
X156194635Y-50521444D01*
X156407574Y-50448342D01*
X156605576Y-50341189D01*
X156783240Y-50202906D01*
X156935722Y-50037268D01*
X157024518Y-49901354D01*
X157078521Y-49855268D01*
X157148869Y-49845693D01*
X157213226Y-49875670D01*
X157235480Y-49901353D01*
X157324278Y-50037268D01*
X157436525Y-50159200D01*
X157476762Y-50202908D01*
X157596629Y-50296205D01*
X157654424Y-50341189D01*
X157852426Y-50448342D01*
X158065365Y-50521444D01*
X158287431Y-50558500D01*
X158287434Y-50558500D01*
X158512566Y-50558500D01*
X158512569Y-50558500D01*
X158734635Y-50521444D01*
X158947574Y-50448342D01*
X159145576Y-50341189D01*
X159323240Y-50202906D01*
X159475722Y-50037268D01*
X159564518Y-49901354D01*
X159618521Y-49855268D01*
X159688869Y-49845693D01*
X159753226Y-49875670D01*
X159775480Y-49901353D01*
X159864278Y-50037268D01*
X159976525Y-50159200D01*
X160016762Y-50202908D01*
X160136629Y-50296205D01*
X160194424Y-50341189D01*
X160392426Y-50448342D01*
X160605365Y-50521444D01*
X160827431Y-50558500D01*
X160827434Y-50558500D01*
X161052566Y-50558500D01*
X161052569Y-50558500D01*
X161274635Y-50521444D01*
X161487574Y-50448342D01*
X161685576Y-50341189D01*
X161863240Y-50202906D01*
X162015722Y-50037268D01*
X162104518Y-49901354D01*
X162158521Y-49855268D01*
X162228869Y-49845693D01*
X162293226Y-49875670D01*
X162315480Y-49901353D01*
X162404278Y-50037268D01*
X162516525Y-50159200D01*
X162556762Y-50202908D01*
X162676629Y-50296205D01*
X162734424Y-50341189D01*
X162932426Y-50448342D01*
X163145365Y-50521444D01*
X163367431Y-50558500D01*
X163367434Y-50558500D01*
X163592566Y-50558500D01*
X163592569Y-50558500D01*
X163814635Y-50521444D01*
X164027574Y-50448342D01*
X164225576Y-50341189D01*
X164403240Y-50202906D01*
X164555722Y-50037268D01*
X164678860Y-49848791D01*
X164769296Y-49642616D01*
X164824564Y-49424368D01*
X164843156Y-49200000D01*
X164824564Y-48975632D01*
X164769296Y-48757384D01*
X164722083Y-48649750D01*
X164713038Y-48579334D01*
X164743499Y-48515204D01*
X164803795Y-48477723D01*
X164874784Y-48478790D01*
X164925858Y-48509339D01*
X165924970Y-49492717D01*
X165926886Y-49494602D01*
X165961404Y-49556642D01*
X165964500Y-49584402D01*
X165964500Y-59314756D01*
X165961949Y-59334133D01*
X165964021Y-59357817D01*
X165964500Y-59368795D01*
X165964500Y-59381274D01*
X165967098Y-59392995D01*
X165967162Y-59393730D01*
X165967182Y-59393957D01*
X165971652Y-59403541D01*
X165978451Y-59411644D01*
X165978452Y-59411645D01*
X165979243Y-59412102D01*
X165979273Y-59412119D01*
X166005372Y-59432145D01*
X168467595Y-61894368D01*
X168501621Y-61956680D01*
X168504500Y-61983463D01*
X168504500Y-96106535D01*
X168484498Y-96174656D01*
X168467595Y-96195630D01*
X166018604Y-98644620D01*
X166003099Y-98656518D01*
X165987820Y-98674726D01*
X165980411Y-98682813D01*
X165971572Y-98691653D01*
X165965122Y-98701777D01*
X165964500Y-98702518D01*
X165960882Y-98712458D01*
X165959960Y-98722997D01*
X165960206Y-98723915D01*
X165964500Y-98756530D01*
X165964500Y-99231812D01*
X165963893Y-99244163D01*
X165952525Y-99359581D01*
X165947706Y-99383807D01*
X165915845Y-99488836D01*
X165906393Y-99511654D01*
X165854652Y-99608456D01*
X165840929Y-99628995D01*
X165771301Y-99713836D01*
X165753836Y-99731301D01*
X165668995Y-99800929D01*
X165648456Y-99814652D01*
X165551654Y-99866393D01*
X165528836Y-99875845D01*
X165423807Y-99907706D01*
X165399581Y-99912525D01*
X165315677Y-99920789D01*
X165284161Y-99923893D01*
X165271813Y-99924500D01*
X86508257Y-99924500D01*
X86491811Y-99923422D01*
X86406579Y-99912201D01*
X86374806Y-99903687D01*
X86303074Y-99873974D01*
X86274589Y-99857529D01*
X86212993Y-99810265D01*
X86189734Y-99787006D01*
X86142470Y-99725410D01*
X86126025Y-99696925D01*
X86096312Y-99625193D01*
X86087798Y-99593419D01*
X86076578Y-99508187D01*
X86075500Y-99491742D01*
X86075500Y-96655637D01*
X89507709Y-96655637D01*
X89508129Y-96659821D01*
X89508130Y-96659822D01*
X89537553Y-96952297D01*
X89537554Y-96952305D01*
X89537976Y-96956496D01*
X89538952Y-96960594D01*
X89538953Y-96960596D01*
X89607095Y-97246535D01*
X89607097Y-97246544D01*
X89608073Y-97250636D01*
X89609585Y-97254563D01*
X89609588Y-97254571D01*
X89688708Y-97460000D01*
X89716750Y-97532809D01*
X89718771Y-97536498D01*
X89718774Y-97536503D01*
X89858131Y-97790798D01*
X89862067Y-97797979D01*
X89864560Y-97801363D01*
X89864561Y-97801364D01*
X89956325Y-97925908D01*
X90041431Y-98041414D01*
X90044348Y-98044430D01*
X90044353Y-98044436D01*
X90146822Y-98150387D01*
X90251642Y-98258770D01*
X90300003Y-98296960D01*
X90485646Y-98443562D01*
X90485651Y-98443565D01*
X90488948Y-98446169D01*
X90749114Y-98600265D01*
X91027498Y-98718310D01*
X91319132Y-98798197D01*
X91618811Y-98838500D01*
X91623027Y-98838500D01*
X95343403Y-98838500D01*
X95345511Y-98838500D01*
X95571702Y-98823358D01*
X95868021Y-98763129D01*
X96153668Y-98663942D01*
X96423545Y-98527566D01*
X96616338Y-98395222D01*
X120142000Y-98395222D01*
X120142359Y-98401936D01*
X120148505Y-98459093D01*
X120199554Y-98595962D01*
X120287095Y-98712904D01*
X120404037Y-98800445D01*
X120540906Y-98851494D01*
X120598063Y-98857640D01*
X120604777Y-98858000D01*
X121246000Y-98858000D01*
X121246000Y-97933674D01*
X121357685Y-97984680D01*
X121464237Y-98000000D01*
X121535763Y-98000000D01*
X121642315Y-97984680D01*
X121754000Y-97933674D01*
X121754000Y-98858000D01*
X122395223Y-98858000D01*
X122401936Y-98857640D01*
X122459093Y-98851494D01*
X122595962Y-98800445D01*
X122712904Y-98712904D01*
X122800445Y-98595962D01*
X122851494Y-98459093D01*
X122857640Y-98401936D01*
X122858000Y-98395222D01*
X122858000Y-98358638D01*
X126581500Y-98358638D01*
X126588011Y-98419201D01*
X126598070Y-98446169D01*
X126639111Y-98556205D01*
X126726738Y-98673261D01*
X126843794Y-98760888D01*
X126843795Y-98760888D01*
X126843796Y-98760889D01*
X126980799Y-98811989D01*
X127041362Y-98818500D01*
X127044731Y-98818500D01*
X128835269Y-98818500D01*
X128838638Y-98818500D01*
X128899201Y-98811989D01*
X129036204Y-98760889D01*
X129153261Y-98673261D01*
X129240889Y-98556204D01*
X129284999Y-98437941D01*
X129327545Y-98381107D01*
X129394065Y-98356296D01*
X129463439Y-98371387D01*
X129495753Y-98396635D01*
X129543325Y-98448312D01*
X129556762Y-98462908D01*
X129734421Y-98601187D01*
X129734424Y-98601189D01*
X129932426Y-98708342D01*
X130145365Y-98781444D01*
X130367431Y-98818500D01*
X130367434Y-98818500D01*
X130592566Y-98818500D01*
X130592569Y-98818500D01*
X130814635Y-98781444D01*
X131027574Y-98708342D01*
X131225576Y-98601189D01*
X131403240Y-98462906D01*
X131555722Y-98297268D01*
X131644518Y-98161354D01*
X131698521Y-98115268D01*
X131768869Y-98105693D01*
X131833226Y-98135670D01*
X131855480Y-98161353D01*
X131944278Y-98297268D01*
X132078952Y-98443562D01*
X132096762Y-98462908D01*
X132274421Y-98601187D01*
X132274424Y-98601189D01*
X132472426Y-98708342D01*
X132685365Y-98781444D01*
X132907431Y-98818500D01*
X132907434Y-98818500D01*
X133132566Y-98818500D01*
X133132569Y-98818500D01*
X133354635Y-98781444D01*
X133567574Y-98708342D01*
X133765576Y-98601189D01*
X133943240Y-98462906D01*
X134095722Y-98297268D01*
X134184518Y-98161354D01*
X134238521Y-98115268D01*
X134308869Y-98105693D01*
X134373226Y-98135670D01*
X134395480Y-98161353D01*
X134484278Y-98297268D01*
X134618952Y-98443562D01*
X134636762Y-98462908D01*
X134814421Y-98601187D01*
X134814424Y-98601189D01*
X135012426Y-98708342D01*
X135225365Y-98781444D01*
X135447431Y-98818500D01*
X135447434Y-98818500D01*
X135672566Y-98818500D01*
X135672569Y-98818500D01*
X135894635Y-98781444D01*
X136107574Y-98708342D01*
X136305576Y-98601189D01*
X136483240Y-98462906D01*
X136635722Y-98297268D01*
X136724817Y-98160896D01*
X136778819Y-98114809D01*
X136849167Y-98105234D01*
X136913524Y-98135211D01*
X136935782Y-98160897D01*
X137024678Y-98296962D01*
X137177096Y-98462533D01*
X137354697Y-98600766D01*
X137552631Y-98707883D01*
X137765485Y-98780955D01*
X137846000Y-98794391D01*
X137846000Y-97893674D01*
X137957685Y-97944680D01*
X138064237Y-97960000D01*
X138135763Y-97960000D01*
X138242315Y-97944680D01*
X138354000Y-97893674D01*
X138354000Y-98794390D01*
X138434514Y-98780955D01*
X138647368Y-98707883D01*
X138845302Y-98600766D01*
X139022903Y-98462533D01*
X139175323Y-98296960D01*
X139264217Y-98160899D01*
X139318220Y-98114810D01*
X139388568Y-98105235D01*
X139452926Y-98135212D01*
X139475183Y-98160898D01*
X139564278Y-98297268D01*
X139698952Y-98443562D01*
X139716762Y-98462908D01*
X139894421Y-98601187D01*
X139894424Y-98601189D01*
X140092426Y-98708342D01*
X140305365Y-98781444D01*
X140527431Y-98818500D01*
X140527434Y-98818500D01*
X140752566Y-98818500D01*
X140752569Y-98818500D01*
X140974635Y-98781444D01*
X141187574Y-98708342D01*
X141385576Y-98601189D01*
X141563240Y-98462906D01*
X141715722Y-98297268D01*
X141804518Y-98161354D01*
X141858521Y-98115268D01*
X141928869Y-98105693D01*
X141993226Y-98135670D01*
X142015480Y-98161353D01*
X142104278Y-98297268D01*
X142238952Y-98443562D01*
X142256762Y-98462908D01*
X142434421Y-98601187D01*
X142434424Y-98601189D01*
X142632426Y-98708342D01*
X142845365Y-98781444D01*
X143067431Y-98818500D01*
X143067434Y-98818500D01*
X143292566Y-98818500D01*
X143292569Y-98818500D01*
X143514635Y-98781444D01*
X143727574Y-98708342D01*
X143925576Y-98601189D01*
X144103240Y-98462906D01*
X144255722Y-98297268D01*
X144344518Y-98161354D01*
X144398521Y-98115268D01*
X144468869Y-98105693D01*
X144533226Y-98135670D01*
X144555480Y-98161353D01*
X144644278Y-98297268D01*
X144778952Y-98443562D01*
X144796762Y-98462908D01*
X144974421Y-98601187D01*
X144974424Y-98601189D01*
X145172426Y-98708342D01*
X145385365Y-98781444D01*
X145607431Y-98818500D01*
X145607434Y-98818500D01*
X145832566Y-98818500D01*
X145832569Y-98818500D01*
X146054635Y-98781444D01*
X146267574Y-98708342D01*
X146465576Y-98601189D01*
X146643240Y-98462906D01*
X146739226Y-98358638D01*
X149441500Y-98358638D01*
X149448011Y-98419201D01*
X149458070Y-98446169D01*
X149499111Y-98556205D01*
X149586738Y-98673261D01*
X149703794Y-98760888D01*
X149703795Y-98760888D01*
X149703796Y-98760889D01*
X149840799Y-98811989D01*
X149901362Y-98818500D01*
X149904731Y-98818500D01*
X151695269Y-98818500D01*
X151698638Y-98818500D01*
X151759201Y-98811989D01*
X151896204Y-98760889D01*
X152013261Y-98673261D01*
X152100889Y-98556204D01*
X152144999Y-98437941D01*
X152187545Y-98381107D01*
X152254065Y-98356296D01*
X152323439Y-98371387D01*
X152355753Y-98396635D01*
X152403325Y-98448312D01*
X152416762Y-98462908D01*
X152594421Y-98601187D01*
X152594424Y-98601189D01*
X152792426Y-98708342D01*
X153005365Y-98781444D01*
X153227431Y-98818500D01*
X153227434Y-98818500D01*
X153452566Y-98818500D01*
X153452569Y-98818500D01*
X153674635Y-98781444D01*
X153887574Y-98708342D01*
X154085576Y-98601189D01*
X154263240Y-98462906D01*
X154415722Y-98297268D01*
X154504518Y-98161354D01*
X154558521Y-98115268D01*
X154628869Y-98105693D01*
X154693226Y-98135670D01*
X154715480Y-98161353D01*
X154804278Y-98297268D01*
X154938952Y-98443562D01*
X154956762Y-98462908D01*
X155134421Y-98601187D01*
X155134424Y-98601189D01*
X155332426Y-98708342D01*
X155545365Y-98781444D01*
X155767431Y-98818500D01*
X155767434Y-98818500D01*
X155992566Y-98818500D01*
X155992569Y-98818500D01*
X156214635Y-98781444D01*
X156427574Y-98708342D01*
X156625576Y-98601189D01*
X156803240Y-98462906D01*
X156955722Y-98297268D01*
X157044518Y-98161354D01*
X157098521Y-98115268D01*
X157168869Y-98105693D01*
X157233226Y-98135670D01*
X157255480Y-98161353D01*
X157344278Y-98297268D01*
X157478952Y-98443562D01*
X157496762Y-98462908D01*
X157674421Y-98601187D01*
X157674424Y-98601189D01*
X157872426Y-98708342D01*
X158085365Y-98781444D01*
X158307431Y-98818500D01*
X158307434Y-98818500D01*
X158532566Y-98818500D01*
X158532569Y-98818500D01*
X158754635Y-98781444D01*
X158967574Y-98708342D01*
X159165576Y-98601189D01*
X159343240Y-98462906D01*
X159495722Y-98297268D01*
X159584518Y-98161354D01*
X159638521Y-98115268D01*
X159708869Y-98105693D01*
X159773226Y-98135670D01*
X159795480Y-98161353D01*
X159884278Y-98297268D01*
X160018952Y-98443562D01*
X160036762Y-98462908D01*
X160214421Y-98601187D01*
X160214424Y-98601189D01*
X160412426Y-98708342D01*
X160625365Y-98781444D01*
X160847431Y-98818500D01*
X160847434Y-98818500D01*
X161072566Y-98818500D01*
X161072569Y-98818500D01*
X161294635Y-98781444D01*
X161507574Y-98708342D01*
X161705576Y-98601189D01*
X161883240Y-98462906D01*
X162035722Y-98297268D01*
X162124518Y-98161354D01*
X162178521Y-98115268D01*
X162248869Y-98105693D01*
X162313226Y-98135670D01*
X162335480Y-98161353D01*
X162424278Y-98297268D01*
X162558952Y-98443562D01*
X162576762Y-98462908D01*
X162754421Y-98601187D01*
X162754424Y-98601189D01*
X162952426Y-98708342D01*
X163165365Y-98781444D01*
X163387431Y-98818500D01*
X163387434Y-98818500D01*
X163612566Y-98818500D01*
X163612569Y-98818500D01*
X163834635Y-98781444D01*
X164047574Y-98708342D01*
X164245576Y-98601189D01*
X164423240Y-98462906D01*
X164575722Y-98297268D01*
X164698860Y-98108791D01*
X164789296Y-97902616D01*
X164844564Y-97684368D01*
X164863156Y-97460000D01*
X164844564Y-97235632D01*
X164789296Y-97017384D01*
X164698860Y-96811209D01*
X164575722Y-96622732D01*
X164423240Y-96457094D01*
X164423239Y-96457093D01*
X164423237Y-96457091D01*
X164245578Y-96318812D01*
X164047573Y-96211657D01*
X163863615Y-96148505D01*
X163834635Y-96138556D01*
X163612569Y-96101500D01*
X163387431Y-96101500D01*
X163165365Y-96138556D01*
X163165362Y-96138556D01*
X163165362Y-96138557D01*
X162952426Y-96211657D01*
X162754421Y-96318812D01*
X162576762Y-96457091D01*
X162424278Y-96622731D01*
X162335483Y-96758643D01*
X162281479Y-96804731D01*
X162211131Y-96814306D01*
X162146774Y-96784328D01*
X162124517Y-96758643D01*
X162035721Y-96622731D01*
X161960395Y-96540906D01*
X161883240Y-96457094D01*
X161883239Y-96457093D01*
X161883237Y-96457091D01*
X161705578Y-96318812D01*
X161507573Y-96211657D01*
X161323615Y-96148505D01*
X161294635Y-96138556D01*
X161072569Y-96101500D01*
X160847431Y-96101500D01*
X160625365Y-96138556D01*
X160625362Y-96138556D01*
X160625362Y-96138557D01*
X160412426Y-96211657D01*
X160214421Y-96318812D01*
X160036762Y-96457091D01*
X159884278Y-96622731D01*
X159795483Y-96758643D01*
X159741479Y-96804731D01*
X159671131Y-96814306D01*
X159606774Y-96784328D01*
X159584517Y-96758643D01*
X159495721Y-96622731D01*
X159420395Y-96540906D01*
X159343240Y-96457094D01*
X159343239Y-96457093D01*
X159343237Y-96457091D01*
X159165578Y-96318812D01*
X158967573Y-96211657D01*
X158783615Y-96148505D01*
X158754635Y-96138556D01*
X158532569Y-96101500D01*
X158307431Y-96101500D01*
X158085365Y-96138556D01*
X158085362Y-96138556D01*
X158085362Y-96138557D01*
X157872426Y-96211657D01*
X157674421Y-96318812D01*
X157496762Y-96457091D01*
X157344278Y-96622731D01*
X157255483Y-96758643D01*
X157201479Y-96804731D01*
X157131131Y-96814306D01*
X157066774Y-96784328D01*
X157044517Y-96758643D01*
X156955721Y-96622731D01*
X156880395Y-96540906D01*
X156803240Y-96457094D01*
X156803239Y-96457093D01*
X156803237Y-96457091D01*
X156625578Y-96318812D01*
X156427573Y-96211657D01*
X156243615Y-96148505D01*
X156214635Y-96138556D01*
X155992569Y-96101500D01*
X155767431Y-96101500D01*
X155545365Y-96138556D01*
X155545362Y-96138556D01*
X155545362Y-96138557D01*
X155332426Y-96211657D01*
X155134421Y-96318812D01*
X154956762Y-96457091D01*
X154804278Y-96622731D01*
X154715483Y-96758643D01*
X154661479Y-96804731D01*
X154591131Y-96814306D01*
X154526774Y-96784328D01*
X154504517Y-96758643D01*
X154415721Y-96622731D01*
X154340395Y-96540906D01*
X154263240Y-96457094D01*
X154263239Y-96457093D01*
X154263237Y-96457091D01*
X154085578Y-96318812D01*
X153887573Y-96211657D01*
X153703615Y-96148505D01*
X153674635Y-96138556D01*
X153452569Y-96101500D01*
X153227431Y-96101500D01*
X153005365Y-96138556D01*
X153005362Y-96138556D01*
X153005362Y-96138557D01*
X152792426Y-96211657D01*
X152594421Y-96318812D01*
X152416758Y-96457094D01*
X152355754Y-96523362D01*
X152294901Y-96559933D01*
X152223937Y-96557798D01*
X152165392Y-96517636D01*
X152144998Y-96482056D01*
X152135688Y-96457094D01*
X152100889Y-96363796D01*
X152100888Y-96363794D01*
X152013261Y-96246738D01*
X151896205Y-96159111D01*
X151806377Y-96125607D01*
X151759201Y-96108011D01*
X151698638Y-96101500D01*
X149901362Y-96101500D01*
X149898013Y-96101859D01*
X149898013Y-96101860D01*
X149840799Y-96108011D01*
X149703794Y-96159111D01*
X149586738Y-96246738D01*
X149499111Y-96363794D01*
X149455002Y-96482056D01*
X149448011Y-96500799D01*
X149441500Y-96561362D01*
X149441500Y-98358638D01*
X146739226Y-98358638D01*
X146795722Y-98297268D01*
X146918860Y-98108791D01*
X147009296Y-97902616D01*
X147064564Y-97684368D01*
X147083156Y-97460000D01*
X147064564Y-97235632D01*
X147009296Y-97017384D01*
X146918860Y-96811209D01*
X146795722Y-96622732D01*
X146643240Y-96457094D01*
X146643239Y-96457093D01*
X146643237Y-96457091D01*
X146465578Y-96318812D01*
X146267573Y-96211657D01*
X146083615Y-96148505D01*
X146054635Y-96138556D01*
X145832569Y-96101500D01*
X145607431Y-96101500D01*
X145385365Y-96138556D01*
X145385362Y-96138556D01*
X145385362Y-96138557D01*
X145172426Y-96211657D01*
X144974421Y-96318812D01*
X144796762Y-96457091D01*
X144644278Y-96622731D01*
X144555483Y-96758643D01*
X144501479Y-96804731D01*
X144431131Y-96814306D01*
X144366774Y-96784328D01*
X144344517Y-96758643D01*
X144255721Y-96622731D01*
X144180395Y-96540906D01*
X144103240Y-96457094D01*
X144103239Y-96457093D01*
X144103237Y-96457091D01*
X143925578Y-96318812D01*
X143727573Y-96211657D01*
X143543615Y-96148505D01*
X143514635Y-96138556D01*
X143292569Y-96101500D01*
X143067431Y-96101500D01*
X142845365Y-96138556D01*
X142845362Y-96138556D01*
X142845362Y-96138557D01*
X142632426Y-96211657D01*
X142434421Y-96318812D01*
X142256762Y-96457091D01*
X142104278Y-96622731D01*
X142015483Y-96758643D01*
X141961479Y-96804731D01*
X141891131Y-96814306D01*
X141826774Y-96784328D01*
X141804517Y-96758643D01*
X141715721Y-96622731D01*
X141640395Y-96540906D01*
X141563240Y-96457094D01*
X141563239Y-96457093D01*
X141563237Y-96457091D01*
X141385578Y-96318812D01*
X141187573Y-96211657D01*
X141003615Y-96148505D01*
X140974635Y-96138556D01*
X140752569Y-96101500D01*
X140527431Y-96101500D01*
X140305365Y-96138556D01*
X140305362Y-96138556D01*
X140305362Y-96138557D01*
X140092426Y-96211657D01*
X139894421Y-96318812D01*
X139716762Y-96457091D01*
X139564275Y-96622735D01*
X139475182Y-96759101D01*
X139421179Y-96805189D01*
X139350831Y-96814764D01*
X139286473Y-96784786D01*
X139264217Y-96759101D01*
X139175321Y-96623037D01*
X139022903Y-96457466D01*
X138845302Y-96319233D01*
X138647368Y-96212116D01*
X138434510Y-96139042D01*
X138354000Y-96125606D01*
X138354000Y-97026325D01*
X138242315Y-96975320D01*
X138135763Y-96960000D01*
X138064237Y-96960000D01*
X137957685Y-96975320D01*
X137846000Y-97026325D01*
X137846000Y-96125607D01*
X137845999Y-96125606D01*
X137765489Y-96139042D01*
X137552631Y-96212116D01*
X137354697Y-96319233D01*
X137177096Y-96457466D01*
X137024678Y-96623037D01*
X136935782Y-96759102D01*
X136881778Y-96805190D01*
X136811430Y-96814765D01*
X136747073Y-96784787D01*
X136724816Y-96759101D01*
X136635723Y-96622734D01*
X136635722Y-96622732D01*
X136483240Y-96457094D01*
X136483239Y-96457093D01*
X136483237Y-96457091D01*
X136305578Y-96318812D01*
X136107573Y-96211657D01*
X135923615Y-96148505D01*
X135894635Y-96138556D01*
X135672569Y-96101500D01*
X135447431Y-96101500D01*
X135225365Y-96138556D01*
X135225362Y-96138556D01*
X135225362Y-96138557D01*
X135012426Y-96211657D01*
X134814421Y-96318812D01*
X134636762Y-96457091D01*
X134484278Y-96622731D01*
X134395483Y-96758643D01*
X134341479Y-96804731D01*
X134271131Y-96814306D01*
X134206774Y-96784328D01*
X134184517Y-96758643D01*
X134095721Y-96622731D01*
X134020395Y-96540906D01*
X133943240Y-96457094D01*
X133943239Y-96457093D01*
X133943237Y-96457091D01*
X133765578Y-96318812D01*
X133567573Y-96211657D01*
X133383615Y-96148505D01*
X133354635Y-96138556D01*
X133132569Y-96101500D01*
X132907431Y-96101500D01*
X132685365Y-96138556D01*
X132685362Y-96138556D01*
X132685362Y-96138557D01*
X132472426Y-96211657D01*
X132274421Y-96318812D01*
X132096762Y-96457091D01*
X131944278Y-96622731D01*
X131855483Y-96758643D01*
X131801479Y-96804731D01*
X131731131Y-96814306D01*
X131666774Y-96784328D01*
X131644517Y-96758643D01*
X131555721Y-96622731D01*
X131480395Y-96540906D01*
X131403240Y-96457094D01*
X131403239Y-96457093D01*
X131403237Y-96457091D01*
X131225578Y-96318812D01*
X131027573Y-96211657D01*
X130843615Y-96148505D01*
X130814635Y-96138556D01*
X130592569Y-96101500D01*
X130367431Y-96101500D01*
X130145365Y-96138556D01*
X130145362Y-96138556D01*
X130145362Y-96138557D01*
X129932426Y-96211657D01*
X129734421Y-96318812D01*
X129556758Y-96457094D01*
X129495754Y-96523362D01*
X129434901Y-96559933D01*
X129363937Y-96557798D01*
X129305392Y-96517636D01*
X129284998Y-96482056D01*
X129275688Y-96457094D01*
X129240889Y-96363796D01*
X129240888Y-96363794D01*
X129153261Y-96246738D01*
X129036205Y-96159111D01*
X128946377Y-96125607D01*
X128899201Y-96108011D01*
X128838638Y-96101500D01*
X127041362Y-96101500D01*
X127038013Y-96101859D01*
X127038013Y-96101860D01*
X126980799Y-96108011D01*
X126843794Y-96159111D01*
X126726738Y-96246738D01*
X126639111Y-96363794D01*
X126595002Y-96482056D01*
X126588011Y-96500799D01*
X126581500Y-96561362D01*
X126581500Y-98358638D01*
X122858000Y-98358638D01*
X122858000Y-97754000D01*
X121931116Y-97754000D01*
X121959493Y-97709844D01*
X122000000Y-97571889D01*
X122000000Y-97428111D01*
X121959493Y-97290156D01*
X121931116Y-97246000D01*
X122858000Y-97246000D01*
X122858000Y-96604777D01*
X122857640Y-96598063D01*
X122851494Y-96540906D01*
X122800445Y-96404037D01*
X122712904Y-96287095D01*
X122595962Y-96199554D01*
X122459093Y-96148505D01*
X122401936Y-96142359D01*
X122395223Y-96142000D01*
X121754000Y-96142000D01*
X121754000Y-97066325D01*
X121642315Y-97015320D01*
X121535763Y-97000000D01*
X121464237Y-97000000D01*
X121357685Y-97015320D01*
X121246000Y-97066325D01*
X121246000Y-96142000D01*
X120604777Y-96142000D01*
X120598063Y-96142359D01*
X120540906Y-96148505D01*
X120404037Y-96199554D01*
X120287095Y-96287095D01*
X120199554Y-96404037D01*
X120148505Y-96540906D01*
X120142359Y-96598063D01*
X120142000Y-96604777D01*
X120142000Y-97246000D01*
X121068884Y-97246000D01*
X121040507Y-97290156D01*
X121000000Y-97428111D01*
X121000000Y-97571889D01*
X121040507Y-97709844D01*
X121068884Y-97754000D01*
X120142000Y-97754000D01*
X120142000Y-98395222D01*
X96616338Y-98395222D01*
X96672838Y-98356437D01*
X96897097Y-98153606D01*
X97092320Y-97922695D01*
X97255024Y-97667823D01*
X97382306Y-97393539D01*
X97471893Y-97104738D01*
X97522187Y-96806572D01*
X97532291Y-96504363D01*
X97502024Y-96203504D01*
X97431927Y-95909364D01*
X97323250Y-95627191D01*
X97177933Y-95362021D01*
X96998569Y-95118586D01*
X96995650Y-95115568D01*
X96995646Y-95115563D01*
X96887331Y-95003567D01*
X96788358Y-94901230D01*
X96661665Y-94801181D01*
X96554353Y-94716437D01*
X96554345Y-94716431D01*
X96551052Y-94713831D01*
X96290886Y-94559735D01*
X96012502Y-94441690D01*
X96008449Y-94440579D01*
X96008444Y-94440578D01*
X95724932Y-94362916D01*
X95724928Y-94362915D01*
X95720868Y-94361803D01*
X95716697Y-94361242D01*
X95716692Y-94361241D01*
X95425365Y-94322061D01*
X95425355Y-94322060D01*
X95421189Y-94321500D01*
X91694489Y-94321500D01*
X91692405Y-94321639D01*
X91692390Y-94321640D01*
X91472496Y-94336360D01*
X91472481Y-94336361D01*
X91468298Y-94336642D01*
X91464170Y-94337480D01*
X91464170Y-94337481D01*
X91176111Y-94396031D01*
X91176109Y-94396031D01*
X91171979Y-94396871D01*
X91168000Y-94398252D01*
X91167995Y-94398254D01*
X90890318Y-94494673D01*
X90890306Y-94494678D01*
X90886332Y-94496058D01*
X90882573Y-94497957D01*
X90882567Y-94497960D01*
X90620213Y-94630534D01*
X90620201Y-94630540D01*
X90616455Y-94632434D01*
X90612987Y-94634814D01*
X90612983Y-94634817D01*
X90370631Y-94801181D01*
X90370624Y-94801186D01*
X90367162Y-94803563D01*
X90364046Y-94806381D01*
X90364040Y-94806386D01*
X90146028Y-95003567D01*
X90146023Y-95003571D01*
X90142903Y-95006394D01*
X90140191Y-95009600D01*
X90140181Y-95009612D01*
X89950396Y-95234091D01*
X89950387Y-95234102D01*
X89947680Y-95237305D01*
X89945421Y-95240842D01*
X89945414Y-95240853D01*
X89787248Y-95488617D01*
X89787244Y-95488623D01*
X89784976Y-95492177D01*
X89783199Y-95496004D01*
X89783199Y-95496006D01*
X89659466Y-95762641D01*
X89659462Y-95762649D01*
X89657694Y-95766461D01*
X89656450Y-95770470D01*
X89656447Y-95770479D01*
X89569354Y-96051238D01*
X89569349Y-96051255D01*
X89568107Y-96055262D01*
X89567407Y-96059411D01*
X89567406Y-96059416D01*
X89541727Y-96211657D01*
X89517813Y-96353428D01*
X89517672Y-96357628D01*
X89517672Y-96357634D01*
X89510909Y-96559933D01*
X89507709Y-96655637D01*
X86075500Y-96655637D01*
X86075500Y-94040000D01*
X96836502Y-94040000D01*
X96856457Y-94268087D01*
X96915715Y-94489243D01*
X97012477Y-94696750D01*
X97143804Y-94884303D01*
X97305696Y-95046195D01*
X97493249Y-95177522D01*
X97700756Y-95274284D01*
X97760014Y-95290162D01*
X97921913Y-95333543D01*
X98092873Y-95348500D01*
X98095613Y-95348500D01*
X99104387Y-95348500D01*
X99107127Y-95348500D01*
X99278087Y-95333543D01*
X99499243Y-95274284D01*
X99706749Y-95177523D01*
X99894300Y-95046198D01*
X100056198Y-94884300D01*
X100187523Y-94696749D01*
X100284284Y-94489243D01*
X100343543Y-94268087D01*
X100363498Y-94040000D01*
X100343543Y-93811913D01*
X100289671Y-93610860D01*
X100284284Y-93590756D01*
X100241963Y-93499999D01*
X102586496Y-93499999D01*
X102606458Y-93689929D01*
X102665472Y-93871556D01*
X102760958Y-94036942D01*
X102779595Y-94057640D01*
X102888747Y-94178866D01*
X103043248Y-94291118D01*
X103217712Y-94368794D01*
X103404513Y-94408500D01*
X103404515Y-94408500D01*
X103595485Y-94408500D01*
X103595487Y-94408500D01*
X103782288Y-94368794D01*
X103956752Y-94291118D01*
X104111253Y-94178866D01*
X104239040Y-94036944D01*
X104334527Y-93871556D01*
X104393542Y-93689928D01*
X104413504Y-93500000D01*
X107586496Y-93500000D01*
X107606458Y-93689929D01*
X107665472Y-93871556D01*
X107760958Y-94036942D01*
X107779595Y-94057640D01*
X107888747Y-94178866D01*
X108043248Y-94291118D01*
X108217712Y-94368794D01*
X108404513Y-94408500D01*
X108404515Y-94408500D01*
X108595485Y-94408500D01*
X108595487Y-94408500D01*
X108782288Y-94368794D01*
X108956752Y-94291118D01*
X109111253Y-94178866D01*
X109239040Y-94036944D01*
X109334527Y-93871556D01*
X109393542Y-93689928D01*
X109403137Y-93598638D01*
X136736388Y-93598638D01*
X136736748Y-93601986D01*
X136742899Y-93659200D01*
X136793999Y-93796205D01*
X136881626Y-93913261D01*
X136998682Y-94000888D01*
X136998683Y-94000888D01*
X136998684Y-94000889D01*
X137135687Y-94051989D01*
X137196250Y-94058500D01*
X137199619Y-94058500D01*
X138890157Y-94058500D01*
X138893526Y-94058500D01*
X138954089Y-94051989D01*
X139091092Y-94000889D01*
X139208149Y-93913261D01*
X139295777Y-93796204D01*
X139346877Y-93659201D01*
X139346877Y-93659194D01*
X139348098Y-93655923D01*
X139390644Y-93599087D01*
X139457164Y-93574276D01*
X139526538Y-93589367D01*
X139555249Y-93610860D01*
X139700584Y-93756195D01*
X139888137Y-93887522D01*
X140095644Y-93984284D01*
X140154903Y-94000162D01*
X140316801Y-94043543D01*
X140544888Y-94063498D01*
X140772975Y-94043543D01*
X140994131Y-93984284D01*
X141201637Y-93887523D01*
X141389188Y-93756198D01*
X141550164Y-93595222D01*
X142736888Y-93595222D01*
X142737247Y-93601936D01*
X142743393Y-93659093D01*
X142794442Y-93795962D01*
X142881983Y-93912904D01*
X142998925Y-94000445D01*
X143135794Y-94051494D01*
X143192951Y-94057640D01*
X143199665Y-94058000D01*
X143790888Y-94058000D01*
X143790888Y-93061685D01*
X143806843Y-93077641D01*
X143919740Y-93135165D01*
X144013407Y-93150000D01*
X144076369Y-93150000D01*
X144170036Y-93135165D01*
X144282933Y-93077641D01*
X144298888Y-93061686D01*
X144298888Y-94058000D01*
X144890111Y-94058000D01*
X144896824Y-94057640D01*
X144953981Y-94051494D01*
X145090850Y-94000445D01*
X145207792Y-93912904D01*
X145295334Y-93795962D01*
X145347709Y-93655535D01*
X145390255Y-93598699D01*
X145456775Y-93573887D01*
X145526149Y-93588978D01*
X145554860Y-93610471D01*
X145700584Y-93756195D01*
X145888137Y-93887522D01*
X146095644Y-93984284D01*
X146154903Y-94000162D01*
X146316801Y-94043543D01*
X146544888Y-94063498D01*
X146772975Y-94043543D01*
X146994131Y-93984284D01*
X147201637Y-93887523D01*
X147389188Y-93756198D01*
X147551086Y-93594300D01*
X147682411Y-93406749D01*
X147779172Y-93199243D01*
X147838431Y-92978087D01*
X147858386Y-92750000D01*
X147838431Y-92521913D01*
X147779172Y-92300757D01*
X147712020Y-92156749D01*
X147682410Y-92093249D01*
X147581575Y-91949243D01*
X147551086Y-91905700D01*
X147551085Y-91905699D01*
X147551083Y-91905696D01*
X147389191Y-91743804D01*
X147201638Y-91612477D01*
X146994131Y-91515715D01*
X146772975Y-91456457D01*
X146682083Y-91448505D01*
X146544888Y-91436502D01*
X146544887Y-91436502D01*
X146316800Y-91456457D01*
X146095644Y-91515715D01*
X145888137Y-91612477D01*
X145700587Y-91743802D01*
X145554860Y-91889529D01*
X145492548Y-91923554D01*
X145421732Y-91918489D01*
X145364897Y-91875942D01*
X145347709Y-91844464D01*
X145295334Y-91704037D01*
X145207792Y-91587095D01*
X145090850Y-91499554D01*
X144953981Y-91448505D01*
X144896824Y-91442359D01*
X144890111Y-91442000D01*
X144298888Y-91442000D01*
X144298888Y-92438313D01*
X144282933Y-92422359D01*
X144170036Y-92364835D01*
X144076369Y-92350000D01*
X144013407Y-92350000D01*
X143919740Y-92364835D01*
X143806843Y-92422359D01*
X143790888Y-92438314D01*
X143790888Y-91442000D01*
X143199665Y-91442000D01*
X143192951Y-91442359D01*
X143135794Y-91448505D01*
X142998925Y-91499554D01*
X142881983Y-91587095D01*
X142794442Y-91704037D01*
X142743393Y-91840906D01*
X142737247Y-91898063D01*
X142736888Y-91904777D01*
X142736888Y-92496000D01*
X143733202Y-92496000D01*
X143717247Y-92511955D01*
X143659723Y-92624852D01*
X143639902Y-92750000D01*
X143659723Y-92875148D01*
X143717247Y-92988045D01*
X143733202Y-93004000D01*
X142736888Y-93004000D01*
X142736888Y-93595222D01*
X141550164Y-93595222D01*
X141551086Y-93594300D01*
X141682411Y-93406749D01*
X141779172Y-93199243D01*
X141838431Y-92978087D01*
X141858386Y-92750000D01*
X141838431Y-92521913D01*
X141779172Y-92300757D01*
X141712020Y-92156749D01*
X141682410Y-92093249D01*
X141581575Y-91949243D01*
X141551086Y-91905700D01*
X141551085Y-91905699D01*
X141551083Y-91905696D01*
X141389191Y-91743804D01*
X141201638Y-91612477D01*
X140994131Y-91515715D01*
X140772975Y-91456457D01*
X140682083Y-91448505D01*
X140544888Y-91436502D01*
X140544887Y-91436502D01*
X140316800Y-91456457D01*
X140095644Y-91515715D01*
X139888137Y-91612477D01*
X139700587Y-91743802D01*
X139555249Y-91889140D01*
X139492937Y-91923165D01*
X139422121Y-91918100D01*
X139365286Y-91875553D01*
X139348098Y-91844076D01*
X139346877Y-91840803D01*
X139346877Y-91840799D01*
X139295777Y-91703796D01*
X139295776Y-91703794D01*
X139208149Y-91586738D01*
X139091093Y-91499111D01*
X138976733Y-91456457D01*
X138954089Y-91448011D01*
X138893526Y-91441500D01*
X137196250Y-91441500D01*
X137192901Y-91441859D01*
X137192901Y-91441860D01*
X137135687Y-91448011D01*
X136998682Y-91499111D01*
X136881626Y-91586738D01*
X136793999Y-91703794D01*
X136742898Y-91840798D01*
X136742899Y-91840799D01*
X136736388Y-91901362D01*
X136736388Y-93598638D01*
X109403137Y-93598638D01*
X109413504Y-93500000D01*
X109393542Y-93310072D01*
X109334527Y-93128444D01*
X109334527Y-93128443D01*
X109239041Y-92963057D01*
X109111252Y-92821133D01*
X108956753Y-92708883D01*
X108956752Y-92708882D01*
X108782288Y-92631206D01*
X108595487Y-92591500D01*
X108404513Y-92591500D01*
X108279978Y-92617970D01*
X108217711Y-92631206D01*
X108043246Y-92708883D01*
X107888747Y-92821133D01*
X107760958Y-92963057D01*
X107665472Y-93128443D01*
X107606458Y-93310070D01*
X107586496Y-93500000D01*
X104413504Y-93500000D01*
X104393542Y-93310072D01*
X104334527Y-93128444D01*
X104334527Y-93128443D01*
X104239041Y-92963057D01*
X104111252Y-92821133D01*
X103956753Y-92708883D01*
X103956752Y-92708882D01*
X103782288Y-92631206D01*
X103595487Y-92591500D01*
X103404513Y-92591500D01*
X103279978Y-92617970D01*
X103217711Y-92631206D01*
X103043246Y-92708883D01*
X102888747Y-92821133D01*
X102760958Y-92963057D01*
X102665472Y-93128443D01*
X102606458Y-93310070D01*
X102586496Y-93499999D01*
X100241963Y-93499999D01*
X100187522Y-93383249D01*
X100056195Y-93195696D01*
X99894303Y-93033804D01*
X99706748Y-92902476D01*
X99667543Y-92884195D01*
X99614257Y-92837278D01*
X99594796Y-92769001D01*
X99615337Y-92701041D01*
X99667543Y-92655805D01*
X99672163Y-92653650D01*
X99706749Y-92637523D01*
X99894300Y-92506198D01*
X100001860Y-92398638D01*
X132141500Y-92398638D01*
X132148011Y-92459201D01*
X132171401Y-92521912D01*
X132199111Y-92596205D01*
X132286738Y-92713261D01*
X132403794Y-92800888D01*
X132403795Y-92800888D01*
X132403796Y-92800889D01*
X132540799Y-92851989D01*
X132601362Y-92858500D01*
X132604731Y-92858500D01*
X134395269Y-92858500D01*
X134398638Y-92858500D01*
X134459201Y-92851989D01*
X134596204Y-92800889D01*
X134713261Y-92713261D01*
X134800889Y-92596204D01*
X134851989Y-92459201D01*
X134858500Y-92398638D01*
X134858500Y-90601362D01*
X134851989Y-90540799D01*
X134800889Y-90403796D01*
X134769958Y-90362477D01*
X134713261Y-90286738D01*
X134596205Y-90199111D01*
X134527702Y-90173561D01*
X134459201Y-90148011D01*
X134398638Y-90141500D01*
X132601362Y-90141500D01*
X132598013Y-90141859D01*
X132598013Y-90141860D01*
X132540799Y-90148011D01*
X132403794Y-90199111D01*
X132286738Y-90286738D01*
X132199111Y-90403794D01*
X132165540Y-90493802D01*
X132148011Y-90540799D01*
X132141500Y-90601362D01*
X132141500Y-92398638D01*
X100001860Y-92398638D01*
X100056198Y-92344300D01*
X100187523Y-92156749D01*
X100284284Y-91949243D01*
X100343543Y-91728087D01*
X100363498Y-91500000D01*
X100343543Y-91271913D01*
X100284284Y-91050757D01*
X100187523Y-90843251D01*
X100056198Y-90655700D01*
X100056197Y-90655699D01*
X100056195Y-90655696D01*
X99894303Y-90493804D01*
X99706750Y-90362477D01*
X99499243Y-90265715D01*
X99278087Y-90206457D01*
X99109850Y-90191738D01*
X99109844Y-90191737D01*
X99107127Y-90191500D01*
X98092873Y-90191500D01*
X98090156Y-90191737D01*
X98090149Y-90191738D01*
X97921912Y-90206457D01*
X97700756Y-90265715D01*
X97493249Y-90362477D01*
X97305696Y-90493804D01*
X97143804Y-90655696D01*
X97012477Y-90843249D01*
X96915715Y-91050756D01*
X96856457Y-91271912D01*
X96836502Y-91499999D01*
X96856457Y-91728087D01*
X96915715Y-91949243D01*
X97012477Y-92156750D01*
X97143804Y-92344303D01*
X97305696Y-92506195D01*
X97305699Y-92506197D01*
X97305700Y-92506198D01*
X97493251Y-92637523D01*
X97528359Y-92653894D01*
X97532457Y-92655805D01*
X97585742Y-92702722D01*
X97605203Y-92771000D01*
X97584661Y-92838960D01*
X97532457Y-92884195D01*
X97493250Y-92902477D01*
X97305696Y-93033804D01*
X97143804Y-93195696D01*
X97012477Y-93383249D01*
X96915715Y-93590756D01*
X96856457Y-93811912D01*
X96836502Y-94040000D01*
X86075500Y-94040000D01*
X86075500Y-89248638D01*
X124691500Y-89248638D01*
X124691860Y-89251986D01*
X124698011Y-89309200D01*
X124749111Y-89446205D01*
X124836738Y-89563261D01*
X124953794Y-89650888D01*
X124953795Y-89650888D01*
X124953796Y-89650889D01*
X125090799Y-89701989D01*
X125151362Y-89708500D01*
X125154731Y-89708500D01*
X126845269Y-89708500D01*
X126848638Y-89708500D01*
X126909201Y-89701989D01*
X127046204Y-89650889D01*
X127163261Y-89563261D01*
X127250889Y-89446204D01*
X127301989Y-89309201D01*
X127302999Y-89299800D01*
X127330167Y-89234209D01*
X127388484Y-89193718D01*
X127459436Y-89191182D01*
X127520494Y-89227409D01*
X127531490Y-89240998D01*
X127533804Y-89244303D01*
X127695696Y-89406195D01*
X127883249Y-89537522D01*
X128090756Y-89634284D01*
X128150014Y-89650162D01*
X128311913Y-89693543D01*
X128540000Y-89713498D01*
X128768087Y-89693543D01*
X128989243Y-89634284D01*
X129196749Y-89537523D01*
X129384300Y-89406198D01*
X129546198Y-89244300D01*
X129677523Y-89056749D01*
X129695804Y-89017543D01*
X129742722Y-88964257D01*
X129810999Y-88944796D01*
X129878959Y-88965337D01*
X129924195Y-89017543D01*
X129942476Y-89056748D01*
X130073804Y-89244303D01*
X130235696Y-89406195D01*
X130423249Y-89537522D01*
X130630756Y-89634284D01*
X130690015Y-89650162D01*
X130851913Y-89693543D01*
X131080000Y-89713498D01*
X131308087Y-89693543D01*
X131529243Y-89634284D01*
X131736749Y-89537523D01*
X131924300Y-89406198D01*
X132086198Y-89244300D01*
X132217523Y-89056749D01*
X132235804Y-89017543D01*
X132282722Y-88964257D01*
X132350999Y-88944796D01*
X132418959Y-88965337D01*
X132464195Y-89017543D01*
X132482476Y-89056748D01*
X132613804Y-89244303D01*
X132775696Y-89406195D01*
X132963249Y-89537522D01*
X133170756Y-89634284D01*
X133230014Y-89650162D01*
X133391913Y-89693543D01*
X133620000Y-89713498D01*
X133848087Y-89693543D01*
X134069243Y-89634284D01*
X134276749Y-89537523D01*
X134464300Y-89406198D01*
X134626198Y-89244300D01*
X134757523Y-89056749D01*
X134854284Y-88849243D01*
X134913543Y-88628087D01*
X134928500Y-88457127D01*
X134928500Y-87542873D01*
X134913543Y-87371913D01*
X134854284Y-87150757D01*
X134828084Y-87094571D01*
X134757522Y-86943249D01*
X134654764Y-86796496D01*
X134626198Y-86755700D01*
X134626196Y-86755698D01*
X134626195Y-86755696D01*
X134464303Y-86593804D01*
X134330338Y-86500000D01*
X144586496Y-86500000D01*
X144606458Y-86689929D01*
X144665472Y-86871556D01*
X144760958Y-87036942D01*
X144858061Y-87144786D01*
X144888747Y-87178866D01*
X145043248Y-87291118D01*
X145217712Y-87368794D01*
X145404513Y-87408500D01*
X145404515Y-87408500D01*
X145595485Y-87408500D01*
X145595487Y-87408500D01*
X145782288Y-87368794D01*
X145956752Y-87291118D01*
X146111253Y-87178866D01*
X146239040Y-87036944D01*
X146334527Y-86871556D01*
X146393542Y-86689928D01*
X146413504Y-86500000D01*
X146393542Y-86310072D01*
X146334527Y-86128444D01*
X146334527Y-86128443D01*
X146239041Y-85963057D01*
X146111252Y-85821133D01*
X145956753Y-85708883D01*
X145956752Y-85708882D01*
X145782288Y-85631206D01*
X145595487Y-85591500D01*
X145404513Y-85591500D01*
X145279978Y-85617970D01*
X145217711Y-85631206D01*
X145043246Y-85708883D01*
X144888747Y-85821133D01*
X144760958Y-85963057D01*
X144665472Y-86128443D01*
X144606458Y-86310070D01*
X144586496Y-86500000D01*
X134330338Y-86500000D01*
X134276750Y-86462477D01*
X134069243Y-86365715D01*
X133848087Y-86306457D01*
X133620000Y-86286502D01*
X133391912Y-86306457D01*
X133170756Y-86365715D01*
X132963249Y-86462477D01*
X132775696Y-86593804D01*
X132613804Y-86755696D01*
X132482477Y-86943250D01*
X132464195Y-86982457D01*
X132417278Y-87035742D01*
X132349000Y-87055203D01*
X132281040Y-87034661D01*
X132235805Y-86982457D01*
X132218216Y-86944738D01*
X132217523Y-86943251D01*
X132086198Y-86755700D01*
X132086196Y-86755698D01*
X132086195Y-86755696D01*
X131924303Y-86593804D01*
X131736750Y-86462477D01*
X131529243Y-86365715D01*
X131308087Y-86306457D01*
X131080000Y-86286502D01*
X130851912Y-86306457D01*
X130630756Y-86365715D01*
X130423249Y-86462477D01*
X130235696Y-86593804D01*
X130073804Y-86755696D01*
X129942477Y-86943250D01*
X129924195Y-86982457D01*
X129877278Y-87035742D01*
X129809000Y-87055203D01*
X129741040Y-87034661D01*
X129695805Y-86982457D01*
X129678216Y-86944738D01*
X129677523Y-86943251D01*
X129546198Y-86755700D01*
X129546196Y-86755698D01*
X129546195Y-86755696D01*
X129384303Y-86593804D01*
X129196750Y-86462477D01*
X128989243Y-86365715D01*
X128768087Y-86306457D01*
X128540000Y-86286502D01*
X128539999Y-86286502D01*
X128311912Y-86306457D01*
X128090756Y-86365715D01*
X127883249Y-86462477D01*
X127695696Y-86593804D01*
X127533802Y-86755698D01*
X127531487Y-86759005D01*
X127526550Y-86762950D01*
X127526007Y-86763494D01*
X127525946Y-86763433D01*
X127476028Y-86803331D01*
X127405409Y-86810637D01*
X127342050Y-86778604D01*
X127306067Y-86717401D01*
X127302999Y-86700197D01*
X127301989Y-86690799D01*
X127250889Y-86553796D01*
X127210618Y-86500000D01*
X127163261Y-86436738D01*
X127046205Y-86349111D01*
X126931845Y-86306457D01*
X126909201Y-86298011D01*
X126848638Y-86291500D01*
X125151362Y-86291500D01*
X125148013Y-86291859D01*
X125148013Y-86291860D01*
X125090799Y-86298011D01*
X124953794Y-86349111D01*
X124836738Y-86436738D01*
X124749111Y-86553794D01*
X124716076Y-86642365D01*
X124698011Y-86690799D01*
X124691500Y-86751362D01*
X124691500Y-89248638D01*
X86075500Y-89248638D01*
X86075500Y-81275000D01*
X88824258Y-81275000D01*
X88843192Y-81503497D01*
X88843192Y-81503500D01*
X88843193Y-81503501D01*
X88899475Y-81725756D01*
X88991579Y-81935733D01*
X89116982Y-82127677D01*
X89267409Y-82291084D01*
X89272269Y-82296363D01*
X89357300Y-82362545D01*
X89453204Y-82437191D01*
X89615463Y-82525000D01*
X89654850Y-82546315D01*
X89871707Y-82620762D01*
X90097860Y-82658500D01*
X90097863Y-82658500D01*
X90327137Y-82658500D01*
X90327140Y-82658500D01*
X90553293Y-82620762D01*
X90770150Y-82546315D01*
X90955333Y-82446098D01*
X91024763Y-82431269D01*
X91091190Y-82456329D01*
X91133522Y-82513324D01*
X91140914Y-82547027D01*
X91158427Y-82769557D01*
X91215694Y-83008091D01*
X91309572Y-83234731D01*
X91309573Y-83234732D01*
X91437748Y-83443896D01*
X91597067Y-83630433D01*
X91783604Y-83789752D01*
X91992768Y-83917927D01*
X91995264Y-83918961D01*
X91995578Y-83919091D01*
X91998466Y-83921419D01*
X92001223Y-83923108D01*
X92001004Y-83923464D01*
X92050859Y-83963640D01*
X92073280Y-84031003D01*
X92055722Y-84099794D01*
X92003759Y-84148173D01*
X91947360Y-84161500D01*
X91694489Y-84161500D01*
X91692405Y-84161639D01*
X91692390Y-84161640D01*
X91472496Y-84176360D01*
X91472481Y-84176361D01*
X91468298Y-84176642D01*
X91464170Y-84177480D01*
X91464170Y-84177481D01*
X91176111Y-84236031D01*
X91176109Y-84236031D01*
X91171979Y-84236871D01*
X91168000Y-84238252D01*
X91167995Y-84238254D01*
X90890318Y-84334673D01*
X90890306Y-84334678D01*
X90886332Y-84336058D01*
X90882573Y-84337957D01*
X90882567Y-84337960D01*
X90620213Y-84470534D01*
X90620201Y-84470540D01*
X90616455Y-84472434D01*
X90612987Y-84474814D01*
X90612983Y-84474817D01*
X90370631Y-84641181D01*
X90370624Y-84641186D01*
X90367162Y-84643563D01*
X90364046Y-84646381D01*
X90364040Y-84646386D01*
X90146028Y-84843567D01*
X90146023Y-84843571D01*
X90142903Y-84846394D01*
X90140191Y-84849600D01*
X90140181Y-84849612D01*
X89950396Y-85074091D01*
X89950387Y-85074102D01*
X89947680Y-85077305D01*
X89945421Y-85080842D01*
X89945414Y-85080853D01*
X89787248Y-85328617D01*
X89787244Y-85328623D01*
X89784976Y-85332177D01*
X89783199Y-85336004D01*
X89783199Y-85336006D01*
X89659466Y-85602641D01*
X89659462Y-85602649D01*
X89657694Y-85606461D01*
X89656450Y-85610470D01*
X89656447Y-85610479D01*
X89569354Y-85891238D01*
X89569349Y-85891255D01*
X89568107Y-85895262D01*
X89567407Y-85899411D01*
X89567406Y-85899416D01*
X89528775Y-86128443D01*
X89517813Y-86193428D01*
X89517672Y-86197628D01*
X89517672Y-86197634D01*
X89508818Y-86462477D01*
X89507709Y-86495637D01*
X89508129Y-86499821D01*
X89508130Y-86499822D01*
X89537553Y-86792297D01*
X89537554Y-86792305D01*
X89537976Y-86796496D01*
X89538952Y-86800594D01*
X89538953Y-86800596D01*
X89607095Y-87086535D01*
X89607097Y-87086544D01*
X89608073Y-87090636D01*
X89609585Y-87094563D01*
X89609588Y-87094571D01*
X89715235Y-87368876D01*
X89716750Y-87372809D01*
X89718771Y-87376498D01*
X89718774Y-87376503D01*
X89811448Y-87545612D01*
X89862067Y-87637979D01*
X89864560Y-87641363D01*
X89864561Y-87641364D01*
X89956325Y-87765908D01*
X90041431Y-87881414D01*
X90044348Y-87884430D01*
X90044353Y-87884436D01*
X90146822Y-87990387D01*
X90251642Y-88098770D01*
X90351545Y-88177663D01*
X90485646Y-88283562D01*
X90485651Y-88283565D01*
X90488948Y-88286169D01*
X90749114Y-88440265D01*
X91027498Y-88558310D01*
X91319132Y-88638197D01*
X91618811Y-88678500D01*
X91623027Y-88678500D01*
X95343403Y-88678500D01*
X95345511Y-88678500D01*
X95571702Y-88663358D01*
X95868021Y-88603129D01*
X96153668Y-88503942D01*
X96423545Y-88367566D01*
X96672838Y-88196437D01*
X96897097Y-87993606D01*
X97092320Y-87762695D01*
X97255024Y-87507823D01*
X97382306Y-87233539D01*
X97471893Y-86944738D01*
X97522187Y-86646572D01*
X97532291Y-86344363D01*
X97502024Y-86043504D01*
X97431927Y-85749364D01*
X97323250Y-85467191D01*
X97177933Y-85202021D01*
X96998569Y-84958586D01*
X96995650Y-84955568D01*
X96995646Y-84955563D01*
X96887331Y-84843567D01*
X96788358Y-84741230D01*
X96661665Y-84641181D01*
X96554353Y-84556437D01*
X96554345Y-84556431D01*
X96551052Y-84553831D01*
X96290886Y-84399735D01*
X96012502Y-84281690D01*
X96008449Y-84280579D01*
X96008444Y-84280578D01*
X95724932Y-84202916D01*
X95724928Y-84202915D01*
X95720868Y-84201803D01*
X95716697Y-84201242D01*
X95716692Y-84201241D01*
X95425365Y-84162061D01*
X95425355Y-84162060D01*
X95421189Y-84161500D01*
X93457640Y-84161500D01*
X93389519Y-84141498D01*
X93343026Y-84087842D01*
X93332922Y-84017568D01*
X93362416Y-83952988D01*
X93403799Y-83923145D01*
X93403777Y-83923108D01*
X93404272Y-83922804D01*
X93409422Y-83919091D01*
X93409587Y-83919022D01*
X93412232Y-83917927D01*
X93621396Y-83789752D01*
X93807933Y-83630433D01*
X93967252Y-83443896D01*
X94095427Y-83234732D01*
X94189305Y-83008092D01*
X94246572Y-82769557D01*
X94265819Y-82525000D01*
X94246572Y-82280443D01*
X94189305Y-82041908D01*
X94095427Y-81815268D01*
X93967252Y-81606104D01*
X93807933Y-81419567D01*
X93621396Y-81260248D01*
X93412232Y-81132073D01*
X93185591Y-81038194D01*
X92947057Y-80980928D01*
X92702500Y-80961681D01*
X92457942Y-80980928D01*
X92219408Y-81038194D01*
X92079976Y-81095950D01*
X91992768Y-81132073D01*
X91992766Y-81132074D01*
X91992764Y-81132075D01*
X91782917Y-81260668D01*
X91714384Y-81279206D01*
X91646707Y-81257749D01*
X91601374Y-81203110D01*
X91591515Y-81163648D01*
X91581808Y-81046503D01*
X91525523Y-80824239D01*
X91433422Y-80614270D01*
X91433421Y-80614268D01*
X91433420Y-80614266D01*
X91358766Y-80499999D01*
X118801496Y-80499999D01*
X118821458Y-80689929D01*
X118880472Y-80871556D01*
X118975958Y-81036942D01*
X118984562Y-81046498D01*
X119103747Y-81178866D01*
X119258248Y-81291118D01*
X119432712Y-81368794D01*
X119619513Y-81408500D01*
X119619515Y-81408500D01*
X119810485Y-81408500D01*
X119810487Y-81408500D01*
X119997288Y-81368794D01*
X120171752Y-81291118D01*
X120326253Y-81178866D01*
X120454040Y-81036944D01*
X120549527Y-80871556D01*
X120561612Y-80834364D01*
X124692000Y-80834364D01*
X124692238Y-80839827D01*
X124706951Y-81008000D01*
X124766186Y-81229070D01*
X124862912Y-81436498D01*
X124994189Y-81623981D01*
X125156018Y-81785810D01*
X125343501Y-81917087D01*
X125550929Y-82013813D01*
X125745999Y-82066081D01*
X125745999Y-80691685D01*
X125761955Y-80707641D01*
X125874852Y-80765165D01*
X125968519Y-80780000D01*
X126031481Y-80780000D01*
X126125148Y-80765165D01*
X126238045Y-80707641D01*
X126253999Y-80691686D01*
X126253999Y-82066081D01*
X126449070Y-82013813D01*
X126656498Y-81917087D01*
X126843981Y-81785810D01*
X127005810Y-81623981D01*
X127137088Y-81436497D01*
X127155529Y-81396951D01*
X127202446Y-81343665D01*
X127270723Y-81324204D01*
X127338683Y-81344745D01*
X127383919Y-81396951D01*
X127402476Y-81436748D01*
X127533804Y-81624303D01*
X127695696Y-81786195D01*
X127883249Y-81917522D01*
X128090756Y-82014284D01*
X128150014Y-82030162D01*
X128311913Y-82073543D01*
X128540000Y-82093498D01*
X128768087Y-82073543D01*
X128989243Y-82014284D01*
X129196749Y-81917523D01*
X129384300Y-81786198D01*
X129546198Y-81624300D01*
X129677523Y-81436749D01*
X129695804Y-81397543D01*
X129742722Y-81344257D01*
X129810999Y-81324796D01*
X129878959Y-81345337D01*
X129924195Y-81397543D01*
X129942476Y-81436748D01*
X130073804Y-81624303D01*
X130235696Y-81786195D01*
X130423249Y-81917522D01*
X130630756Y-82014284D01*
X130690014Y-82030162D01*
X130851913Y-82073543D01*
X131080000Y-82093498D01*
X131308087Y-82073543D01*
X131529243Y-82014284D01*
X131736749Y-81917523D01*
X131924300Y-81786198D01*
X132086198Y-81624300D01*
X132217523Y-81436749D01*
X132235804Y-81397543D01*
X132282722Y-81344257D01*
X132350999Y-81324796D01*
X132418959Y-81345337D01*
X132464195Y-81397543D01*
X132482476Y-81436748D01*
X132613804Y-81624303D01*
X132775696Y-81786195D01*
X132963249Y-81917522D01*
X133170756Y-82014284D01*
X133230014Y-82030162D01*
X133391913Y-82073543D01*
X133620000Y-82093498D01*
X133848087Y-82073543D01*
X134069243Y-82014284D01*
X134276749Y-81917523D01*
X134464300Y-81786198D01*
X134626198Y-81624300D01*
X134757523Y-81436749D01*
X134854284Y-81229243D01*
X134913543Y-81008087D01*
X134928500Y-80837127D01*
X134928500Y-79922873D01*
X134913543Y-79751913D01*
X134854284Y-79530757D01*
X134839941Y-79500000D01*
X154586496Y-79500000D01*
X154606458Y-79689929D01*
X154665472Y-79871556D01*
X154760958Y-80036942D01*
X154760960Y-80036944D01*
X154888747Y-80178866D01*
X155043248Y-80291118D01*
X155217712Y-80368794D01*
X155404513Y-80408500D01*
X155404515Y-80408500D01*
X155595485Y-80408500D01*
X155595487Y-80408500D01*
X155782288Y-80368794D01*
X155956752Y-80291118D01*
X156111253Y-80178866D01*
X156239040Y-80036944D01*
X156334527Y-79871556D01*
X156393542Y-79689928D01*
X156413504Y-79500000D01*
X156393542Y-79310072D01*
X156336885Y-79135700D01*
X156334527Y-79128443D01*
X156239041Y-78963057D01*
X156111252Y-78821133D01*
X155956753Y-78708883D01*
X155956752Y-78708882D01*
X155782288Y-78631206D01*
X155595487Y-78591500D01*
X155404513Y-78591500D01*
X155279978Y-78617970D01*
X155217711Y-78631206D01*
X155043246Y-78708883D01*
X154888747Y-78821133D01*
X154760958Y-78963057D01*
X154665472Y-79128443D01*
X154606458Y-79310070D01*
X154586496Y-79500000D01*
X134839941Y-79500000D01*
X134839941Y-79499999D01*
X134757522Y-79323249D01*
X134669817Y-79197995D01*
X134626198Y-79135700D01*
X134626197Y-79135699D01*
X134626195Y-79135696D01*
X134464303Y-78973804D01*
X134356956Y-78898638D01*
X137641500Y-78898638D01*
X137648011Y-78959201D01*
X137673561Y-79027702D01*
X137699111Y-79096205D01*
X137786738Y-79213261D01*
X137903794Y-79300888D01*
X137903795Y-79300888D01*
X137903796Y-79300889D01*
X138040799Y-79351989D01*
X138101362Y-79358500D01*
X138104731Y-79358500D01*
X139895269Y-79358500D01*
X139898638Y-79358500D01*
X139959201Y-79351989D01*
X140096204Y-79300889D01*
X140213261Y-79213261D01*
X140300889Y-79096204D01*
X140351989Y-78959201D01*
X140358500Y-78898638D01*
X140358500Y-77101362D01*
X140351989Y-77040799D01*
X140300889Y-76903796D01*
X140300888Y-76903794D01*
X140213261Y-76786738D01*
X140096205Y-76699111D01*
X140027702Y-76673561D01*
X139959201Y-76648011D01*
X139898638Y-76641500D01*
X138101362Y-76641500D01*
X138098013Y-76641859D01*
X138098013Y-76641860D01*
X138040799Y-76648011D01*
X137903794Y-76699111D01*
X137786738Y-76786738D01*
X137699111Y-76903794D01*
X137648011Y-77040799D01*
X137642055Y-77096204D01*
X137641500Y-77101362D01*
X137641500Y-78898638D01*
X134356956Y-78898638D01*
X134276750Y-78842477D01*
X134069243Y-78745715D01*
X133848087Y-78686457D01*
X133620000Y-78666502D01*
X133391912Y-78686457D01*
X133170756Y-78745715D01*
X132963249Y-78842477D01*
X132775696Y-78973804D01*
X132613804Y-79135696D01*
X132482477Y-79323250D01*
X132464195Y-79362457D01*
X132417278Y-79415742D01*
X132349000Y-79435203D01*
X132281040Y-79414661D01*
X132235805Y-79362457D01*
X132230923Y-79351988D01*
X132217523Y-79323251D01*
X132086198Y-79135700D01*
X132086197Y-79135699D01*
X132086195Y-79135696D01*
X131924303Y-78973804D01*
X131736750Y-78842477D01*
X131529243Y-78745715D01*
X131308087Y-78686457D01*
X131308086Y-78686456D01*
X131080000Y-78666502D01*
X131079999Y-78666502D01*
X130851912Y-78686457D01*
X130630756Y-78745715D01*
X130423249Y-78842477D01*
X130235696Y-78973804D01*
X130073804Y-79135696D01*
X129942477Y-79323250D01*
X129924195Y-79362457D01*
X129877278Y-79415742D01*
X129809000Y-79435203D01*
X129741040Y-79414661D01*
X129695805Y-79362457D01*
X129690923Y-79351988D01*
X129677523Y-79323251D01*
X129546198Y-79135700D01*
X129546197Y-79135699D01*
X129546195Y-79135696D01*
X129384303Y-78973804D01*
X129196750Y-78842477D01*
X128989243Y-78745715D01*
X128768087Y-78686457D01*
X128540000Y-78666502D01*
X128311912Y-78686457D01*
X128090756Y-78745715D01*
X127883249Y-78842477D01*
X127695696Y-78973804D01*
X127533804Y-79135696D01*
X127402477Y-79323250D01*
X127383919Y-79363049D01*
X127337002Y-79416334D01*
X127268724Y-79435795D01*
X127200764Y-79415253D01*
X127155529Y-79363049D01*
X127137087Y-79323501D01*
X127005810Y-79136018D01*
X126843981Y-78974189D01*
X126656499Y-78842912D01*
X126449067Y-78746185D01*
X126254001Y-78693916D01*
X126253999Y-78693917D01*
X126253999Y-80068313D01*
X126238045Y-80052359D01*
X126125148Y-79994835D01*
X126031481Y-79980000D01*
X125968519Y-79980000D01*
X125874852Y-79994835D01*
X125761955Y-80052359D01*
X125745999Y-80068314D01*
X125745999Y-78693916D01*
X125745998Y-78693916D01*
X125550932Y-78746185D01*
X125343500Y-78842912D01*
X125156018Y-78974189D01*
X124994189Y-79136018D01*
X124862912Y-79323501D01*
X124766186Y-79530929D01*
X124706951Y-79751999D01*
X124692238Y-79920172D01*
X124692000Y-79925635D01*
X124692000Y-80126000D01*
X125688314Y-80126000D01*
X125672359Y-80141955D01*
X125614835Y-80254852D01*
X125595014Y-80380000D01*
X125614835Y-80505148D01*
X125672359Y-80618045D01*
X125688314Y-80634000D01*
X124692000Y-80634000D01*
X124692000Y-80834364D01*
X120561612Y-80834364D01*
X120608542Y-80689928D01*
X120628504Y-80500000D01*
X120608542Y-80310072D01*
X120549527Y-80128444D01*
X120549527Y-80128443D01*
X120454041Y-79963057D01*
X120326252Y-79821133D01*
X120171753Y-79708883D01*
X120171752Y-79708882D01*
X119997288Y-79631206D01*
X119810487Y-79591500D01*
X119619513Y-79591500D01*
X119494978Y-79617970D01*
X119432711Y-79631206D01*
X119258246Y-79708883D01*
X119103747Y-79821133D01*
X118975958Y-79963057D01*
X118880472Y-80128443D01*
X118821458Y-80310070D01*
X118801496Y-80499999D01*
X91358766Y-80499999D01*
X91308017Y-80422322D01*
X91152734Y-80253640D01*
X91152733Y-80253639D01*
X91152731Y-80253637D01*
X91056665Y-80178866D01*
X90971795Y-80112808D01*
X90770149Y-80003684D01*
X90623351Y-79953289D01*
X90553293Y-79929238D01*
X90327140Y-79891500D01*
X90097860Y-79891500D01*
X89871707Y-79929238D01*
X89871704Y-79929238D01*
X89871704Y-79929239D01*
X89654850Y-80003684D01*
X89453204Y-80112808D01*
X89272265Y-80253640D01*
X89116982Y-80422322D01*
X88991579Y-80614266D01*
X88899475Y-80824243D01*
X88843193Y-81046498D01*
X88843192Y-81046503D01*
X88824258Y-81275000D01*
X86075500Y-81275000D01*
X86075500Y-76775000D01*
X88824258Y-76775000D01*
X88843192Y-77003497D01*
X88843192Y-77003500D01*
X88843193Y-77003501D01*
X88899475Y-77225756D01*
X88899476Y-77225759D01*
X88899477Y-77225761D01*
X88932431Y-77300888D01*
X88991579Y-77435733D01*
X89116982Y-77627677D01*
X89272265Y-77796359D01*
X89272269Y-77796363D01*
X89342323Y-77850888D01*
X89453204Y-77937191D01*
X89654850Y-78046314D01*
X89654850Y-78046315D01*
X89871707Y-78120762D01*
X90097860Y-78158500D01*
X90097863Y-78158500D01*
X90327137Y-78158500D01*
X90327140Y-78158500D01*
X90553293Y-78120762D01*
X90770150Y-78046315D01*
X90879273Y-77987260D01*
X90971795Y-77937191D01*
X91017022Y-77901989D01*
X91152731Y-77796363D01*
X91308018Y-77627676D01*
X91433422Y-77435730D01*
X91525523Y-77225761D01*
X91581808Y-77003497D01*
X91592303Y-76876838D01*
X91617861Y-76810606D01*
X91675173Y-76768702D01*
X91746041Y-76764436D01*
X91783701Y-76779811D01*
X91992768Y-76907927D01*
X92219408Y-77001805D01*
X92457943Y-77059072D01*
X92702500Y-77078319D01*
X92947057Y-77059072D01*
X93185592Y-77001805D01*
X93412232Y-76907927D01*
X93621396Y-76779752D01*
X93807933Y-76620433D01*
X93967252Y-76433896D01*
X94095427Y-76224732D01*
X94189305Y-75998092D01*
X94246572Y-75759557D01*
X94265819Y-75515000D01*
X94246572Y-75270443D01*
X94189305Y-75031908D01*
X94095427Y-74805268D01*
X93967252Y-74596104D01*
X93807933Y-74409567D01*
X93621396Y-74250248D01*
X93412232Y-74122073D01*
X93312854Y-74080909D01*
X93257573Y-74036360D01*
X93235152Y-73968997D01*
X93237449Y-73959999D01*
X103087174Y-73959999D01*
X103106444Y-74192548D01*
X103163723Y-74418739D01*
X103257458Y-74632434D01*
X103340795Y-74759991D01*
X103340796Y-74759992D01*
X104055155Y-74045633D01*
X104056327Y-74061265D01*
X104105887Y-74187541D01*
X104190465Y-74293599D01*
X104302547Y-74370016D01*
X104414623Y-74404586D01*
X103764616Y-75054595D01*
X103702303Y-75088620D01*
X103675520Y-75091500D01*
X103551362Y-75091500D01*
X103548013Y-75091859D01*
X103548013Y-75091860D01*
X103490799Y-75098011D01*
X103353794Y-75149111D01*
X103236738Y-75236738D01*
X103149111Y-75353794D01*
X103120972Y-75429238D01*
X103098011Y-75490799D01*
X103091500Y-75551362D01*
X103091500Y-77448638D01*
X103098011Y-77509201D01*
X103118307Y-77563615D01*
X103149111Y-77646205D01*
X103236738Y-77763261D01*
X103353794Y-77850888D01*
X103353795Y-77850888D01*
X103353796Y-77850889D01*
X103490799Y-77901989D01*
X103551362Y-77908500D01*
X103554731Y-77908500D01*
X105445269Y-77908500D01*
X105448638Y-77908500D01*
X105509201Y-77901989D01*
X105646204Y-77850889D01*
X105763261Y-77763261D01*
X105850889Y-77646204D01*
X105901989Y-77509201D01*
X105908500Y-77448638D01*
X105908500Y-76750000D01*
X110436384Y-76750000D01*
X110443183Y-76810349D01*
X110456783Y-76931049D01*
X110516956Y-77103014D01*
X110613889Y-77257282D01*
X110742717Y-77386110D01*
X110896985Y-77483043D01*
X110971740Y-77509201D01*
X111068953Y-77543217D01*
X111250000Y-77563616D01*
X111431047Y-77543217D01*
X111603015Y-77483043D01*
X111757281Y-77386111D01*
X111886111Y-77257281D01*
X111983043Y-77103015D01*
X112043217Y-76931047D01*
X112046869Y-76898638D01*
X132641500Y-76898638D01*
X132644984Y-76931049D01*
X132648011Y-76959200D01*
X132699111Y-77096205D01*
X132786738Y-77213261D01*
X132903794Y-77300888D01*
X132903795Y-77300888D01*
X132903796Y-77300889D01*
X133040799Y-77351989D01*
X133101362Y-77358500D01*
X133104731Y-77358500D01*
X134895269Y-77358500D01*
X134898638Y-77358500D01*
X134959201Y-77351989D01*
X135096204Y-77300889D01*
X135213261Y-77213261D01*
X135300889Y-77096204D01*
X135351989Y-76959201D01*
X135358500Y-76898638D01*
X135358500Y-75101362D01*
X135351989Y-75040799D01*
X135300889Y-74903796D01*
X135227132Y-74805268D01*
X135213261Y-74786738D01*
X135096205Y-74699111D01*
X135027702Y-74673561D01*
X134959201Y-74648011D01*
X134898638Y-74641500D01*
X133101362Y-74641500D01*
X133098013Y-74641859D01*
X133098013Y-74641860D01*
X133040799Y-74648011D01*
X132903794Y-74699111D01*
X132786738Y-74786738D01*
X132699111Y-74903794D01*
X132651327Y-75031908D01*
X132648011Y-75040799D01*
X132641500Y-75101362D01*
X132641500Y-76898638D01*
X112046869Y-76898638D01*
X112063616Y-76750000D01*
X112043217Y-76568953D01*
X111983043Y-76396985D01*
X111886111Y-76242719D01*
X111886110Y-76242717D01*
X111757282Y-76113889D01*
X111603014Y-76016956D01*
X111431049Y-75956783D01*
X111250000Y-75936384D01*
X111068950Y-75956783D01*
X110896985Y-76016956D01*
X110742717Y-76113889D01*
X110613889Y-76242717D01*
X110516956Y-76396985D01*
X110456783Y-76568950D01*
X110448609Y-76641500D01*
X110436384Y-76750000D01*
X105908500Y-76750000D01*
X105908500Y-75551362D01*
X105901989Y-75490799D01*
X105850889Y-75353796D01*
X105788491Y-75270442D01*
X105763261Y-75236738D01*
X105646205Y-75149111D01*
X105577702Y-75123561D01*
X105509201Y-75098011D01*
X105448638Y-75091500D01*
X105324480Y-75091500D01*
X105256359Y-75071498D01*
X105235384Y-75054595D01*
X104583315Y-74402525D01*
X104634138Y-74394865D01*
X104756357Y-74336007D01*
X104855798Y-74243740D01*
X104923625Y-74126260D01*
X104942550Y-74043339D01*
X105659202Y-74759990D01*
X105742544Y-74632428D01*
X105836275Y-74418742D01*
X105893555Y-74192548D01*
X105912825Y-73960000D01*
X105893555Y-73727451D01*
X105836276Y-73501260D01*
X105835723Y-73500000D01*
X123686384Y-73500000D01*
X123706783Y-73681049D01*
X123766956Y-73853014D01*
X123863889Y-74007282D01*
X123992717Y-74136110D01*
X123992719Y-74136111D01*
X124146985Y-74233043D01*
X124318953Y-74293217D01*
X124500000Y-74313616D01*
X124681047Y-74293217D01*
X124853015Y-74233043D01*
X125007281Y-74136111D01*
X125136111Y-74007281D01*
X125233043Y-73853015D01*
X125293217Y-73681047D01*
X125313616Y-73500000D01*
X125293217Y-73318953D01*
X125233043Y-73146985D01*
X125166708Y-73041414D01*
X125136110Y-72992717D01*
X125007282Y-72863889D01*
X124853014Y-72766956D01*
X124681049Y-72706783D01*
X124560349Y-72693183D01*
X124500000Y-72686384D01*
X124499999Y-72686384D01*
X124318950Y-72706783D01*
X124146985Y-72766956D01*
X123992717Y-72863889D01*
X123863889Y-72992717D01*
X123766956Y-73146985D01*
X123706783Y-73318950D01*
X123686384Y-73500000D01*
X105835723Y-73500000D01*
X105742543Y-73287569D01*
X105659202Y-73160007D01*
X104944844Y-73874363D01*
X104943673Y-73858735D01*
X104894113Y-73732459D01*
X104809535Y-73626401D01*
X104697453Y-73549984D01*
X104585375Y-73515413D01*
X105301318Y-72799470D01*
X105301317Y-72799469D01*
X105272745Y-72777230D01*
X105067525Y-72666171D01*
X104846830Y-72590407D01*
X104616668Y-72552000D01*
X104383332Y-72552000D01*
X104153169Y-72590407D01*
X103932474Y-72666171D01*
X103727255Y-72777230D01*
X103698681Y-72799469D01*
X103698681Y-72799470D01*
X104416684Y-73517474D01*
X104365862Y-73525135D01*
X104243643Y-73583993D01*
X104144202Y-73676260D01*
X104076375Y-73793740D01*
X104057449Y-73876659D01*
X103340796Y-73160007D01*
X103257456Y-73287571D01*
X103163723Y-73501260D01*
X103106444Y-73727451D01*
X103087174Y-73959999D01*
X93237449Y-73959999D01*
X93252710Y-73900206D01*
X93304672Y-73851828D01*
X93361072Y-73838500D01*
X95343403Y-73838500D01*
X95345511Y-73838500D01*
X95571702Y-73823358D01*
X95868021Y-73763129D01*
X96153668Y-73663942D01*
X96423545Y-73527566D01*
X96672838Y-73356437D01*
X96897097Y-73153606D01*
X97092320Y-72922695D01*
X97255024Y-72667823D01*
X97382306Y-72393539D01*
X97471893Y-72104738D01*
X97522187Y-71806572D01*
X97532291Y-71504363D01*
X97502024Y-71203504D01*
X97431927Y-70909364D01*
X97323250Y-70627191D01*
X97253547Y-70500000D01*
X164326496Y-70500000D01*
X164346458Y-70689929D01*
X164405472Y-70871556D01*
X164500958Y-71036942D01*
X164521194Y-71059416D01*
X164628747Y-71178866D01*
X164783248Y-71291118D01*
X164957712Y-71368794D01*
X165144513Y-71408500D01*
X165144515Y-71408500D01*
X165335485Y-71408500D01*
X165335487Y-71408500D01*
X165522288Y-71368794D01*
X165696752Y-71291118D01*
X165851253Y-71178866D01*
X165979040Y-71036944D01*
X166074527Y-70871556D01*
X166133542Y-70689928D01*
X166153504Y-70500000D01*
X166133542Y-70310072D01*
X166074527Y-70128444D01*
X166074527Y-70128443D01*
X165979041Y-69963057D01*
X165851252Y-69821133D01*
X165774002Y-69765007D01*
X165696752Y-69708882D01*
X165522288Y-69631206D01*
X165335487Y-69591500D01*
X165144513Y-69591500D01*
X165019979Y-69617970D01*
X164957711Y-69631206D01*
X164783246Y-69708883D01*
X164628747Y-69821133D01*
X164500958Y-69963057D01*
X164405472Y-70128443D01*
X164346458Y-70310070D01*
X164326496Y-70500000D01*
X97253547Y-70500000D01*
X97177933Y-70362021D01*
X97041993Y-70177522D01*
X97001061Y-70121968D01*
X97001060Y-70121966D01*
X96998569Y-70118586D01*
X96995650Y-70115568D01*
X96995646Y-70115563D01*
X96887331Y-70003567D01*
X96788358Y-69901230D01*
X96738117Y-69861555D01*
X96554353Y-69716437D01*
X96554345Y-69716431D01*
X96551052Y-69713831D01*
X96290886Y-69559735D01*
X96012502Y-69441690D01*
X96008449Y-69440579D01*
X96008444Y-69440578D01*
X95724932Y-69362916D01*
X95724928Y-69362915D01*
X95720868Y-69361803D01*
X95716697Y-69361242D01*
X95716692Y-69361241D01*
X95425365Y-69322061D01*
X95425355Y-69322060D01*
X95421189Y-69321500D01*
X91694489Y-69321500D01*
X91692405Y-69321639D01*
X91692390Y-69321640D01*
X91472496Y-69336360D01*
X91472481Y-69336361D01*
X91468298Y-69336642D01*
X91464170Y-69337480D01*
X91464170Y-69337481D01*
X91176111Y-69396031D01*
X91176109Y-69396031D01*
X91171979Y-69396871D01*
X91168000Y-69398252D01*
X91167995Y-69398254D01*
X90890318Y-69494673D01*
X90890306Y-69494678D01*
X90886332Y-69496058D01*
X90882573Y-69497957D01*
X90882567Y-69497960D01*
X90620213Y-69630534D01*
X90620201Y-69630540D01*
X90616455Y-69632434D01*
X90612987Y-69634814D01*
X90612983Y-69634817D01*
X90370631Y-69801181D01*
X90370624Y-69801186D01*
X90367162Y-69803563D01*
X90364046Y-69806381D01*
X90364040Y-69806386D01*
X90146028Y-70003567D01*
X90146023Y-70003571D01*
X90142903Y-70006394D01*
X90140191Y-70009600D01*
X90140181Y-70009612D01*
X89950396Y-70234091D01*
X89950387Y-70234102D01*
X89947680Y-70237305D01*
X89945421Y-70240842D01*
X89945414Y-70240853D01*
X89787248Y-70488617D01*
X89787244Y-70488623D01*
X89784976Y-70492177D01*
X89783199Y-70496004D01*
X89783199Y-70496006D01*
X89659466Y-70762641D01*
X89659462Y-70762649D01*
X89657694Y-70766461D01*
X89656450Y-70770470D01*
X89656447Y-70770479D01*
X89569354Y-71051238D01*
X89569349Y-71051255D01*
X89568107Y-71055262D01*
X89567407Y-71059411D01*
X89567406Y-71059416D01*
X89528324Y-71291116D01*
X89517813Y-71353428D01*
X89517672Y-71357628D01*
X89517672Y-71357634D01*
X89512767Y-71504363D01*
X89507709Y-71655637D01*
X89508129Y-71659821D01*
X89508130Y-71659822D01*
X89537553Y-71952297D01*
X89537554Y-71952305D01*
X89537976Y-71956496D01*
X89538952Y-71960594D01*
X89538953Y-71960596D01*
X89607095Y-72246535D01*
X89607097Y-72246544D01*
X89608073Y-72250636D01*
X89609585Y-72254563D01*
X89609588Y-72254571D01*
X89661563Y-72389520D01*
X89716750Y-72532809D01*
X89718771Y-72536498D01*
X89718774Y-72536503D01*
X89790739Y-72667823D01*
X89862067Y-72797979D01*
X89864560Y-72801363D01*
X89864561Y-72801364D01*
X89956325Y-72925908D01*
X90041431Y-73041414D01*
X90044348Y-73044430D01*
X90044353Y-73044436D01*
X90143532Y-73146985D01*
X90251642Y-73258770D01*
X90288111Y-73287569D01*
X90485646Y-73443562D01*
X90485651Y-73443565D01*
X90488948Y-73446169D01*
X90749114Y-73600265D01*
X91027498Y-73718310D01*
X91319132Y-73798197D01*
X91618811Y-73838500D01*
X91623027Y-73838500D01*
X92043928Y-73838500D01*
X92112049Y-73858502D01*
X92158542Y-73912158D01*
X92168646Y-73982432D01*
X92139152Y-74047012D01*
X92092146Y-74080909D01*
X91992769Y-74122072D01*
X91888186Y-74186160D01*
X91783604Y-74250248D01*
X91597067Y-74409567D01*
X91437748Y-74596104D01*
X91409709Y-74641860D01*
X91309573Y-74805267D01*
X91215694Y-75031908D01*
X91158427Y-75270442D01*
X91140159Y-75502564D01*
X91114873Y-75568906D01*
X91057735Y-75611045D01*
X90986885Y-75615604D01*
X90954578Y-75603492D01*
X90770149Y-75503684D01*
X90623351Y-75453289D01*
X90553293Y-75429238D01*
X90327140Y-75391500D01*
X90097860Y-75391500D01*
X89871707Y-75429238D01*
X89871704Y-75429238D01*
X89871704Y-75429239D01*
X89654850Y-75503684D01*
X89453204Y-75612808D01*
X89272265Y-75753640D01*
X89116982Y-75922322D01*
X88991579Y-76114266D01*
X88899475Y-76324243D01*
X88843193Y-76546498D01*
X88843192Y-76546503D01*
X88824258Y-76775000D01*
X86075500Y-76775000D01*
X86075500Y-69040000D01*
X96836502Y-69040000D01*
X96856457Y-69268087D01*
X96915715Y-69489243D01*
X97012477Y-69696750D01*
X97143804Y-69884303D01*
X97305696Y-70046195D01*
X97493249Y-70177522D01*
X97700756Y-70274284D01*
X97760015Y-70290162D01*
X97921913Y-70333543D01*
X98092873Y-70348500D01*
X98095613Y-70348500D01*
X99104387Y-70348500D01*
X99107127Y-70348500D01*
X99278087Y-70333543D01*
X99499243Y-70274284D01*
X99706749Y-70177523D01*
X99894300Y-70046198D01*
X100056198Y-69884300D01*
X100187523Y-69696749D01*
X100284284Y-69489243D01*
X100343543Y-69268087D01*
X100363498Y-69040000D01*
X100343543Y-68811913D01*
X100284284Y-68590757D01*
X100272178Y-68564796D01*
X100241963Y-68499999D01*
X102586496Y-68499999D01*
X102606458Y-68689929D01*
X102665472Y-68871556D01*
X102760958Y-69036942D01*
X102869137Y-69157087D01*
X102888747Y-69178866D01*
X103043248Y-69291118D01*
X103217712Y-69368794D01*
X103404513Y-69408500D01*
X103404515Y-69408500D01*
X103595485Y-69408500D01*
X103595487Y-69408500D01*
X103782288Y-69368794D01*
X103956752Y-69291118D01*
X104111253Y-69178866D01*
X104239040Y-69036944D01*
X104334527Y-68871556D01*
X104393542Y-68689928D01*
X104413504Y-68500000D01*
X107386994Y-68500000D01*
X107406956Y-68689929D01*
X107465970Y-68871556D01*
X107561456Y-69036942D01*
X107669635Y-69157087D01*
X107689245Y-69178866D01*
X107843746Y-69291118D01*
X108018210Y-69368794D01*
X108205011Y-69408500D01*
X108205013Y-69408500D01*
X108395983Y-69408500D01*
X108395985Y-69408500D01*
X108582786Y-69368794D01*
X108757250Y-69291118D01*
X108911751Y-69178866D01*
X109039538Y-69036944D01*
X109135025Y-68871556D01*
X109194040Y-68689928D01*
X109214002Y-68500000D01*
X109194040Y-68310072D01*
X109135025Y-68128444D01*
X109135025Y-68128443D01*
X109105398Y-68077127D01*
X142691500Y-68077127D01*
X142691737Y-68079844D01*
X142691738Y-68079850D01*
X142706457Y-68248087D01*
X142765715Y-68469243D01*
X142862477Y-68676750D01*
X142993804Y-68864303D01*
X143155696Y-69026195D01*
X143343249Y-69157522D01*
X143550756Y-69254284D01*
X143602270Y-69268087D01*
X143771913Y-69313543D01*
X144000000Y-69333498D01*
X144228087Y-69313543D01*
X144449243Y-69254284D01*
X144656749Y-69157523D01*
X144844300Y-69026198D01*
X145006198Y-68864300D01*
X145137523Y-68676749D01*
X145155804Y-68637543D01*
X145202722Y-68584257D01*
X145270999Y-68564796D01*
X145338959Y-68585337D01*
X145384195Y-68637543D01*
X145402476Y-68676748D01*
X145533804Y-68864303D01*
X145695696Y-69026195D01*
X145883249Y-69157522D01*
X146090756Y-69254284D01*
X146142270Y-69268087D01*
X146311913Y-69313543D01*
X146540000Y-69333498D01*
X146768087Y-69313543D01*
X146989243Y-69254284D01*
X147196749Y-69157523D01*
X147384300Y-69026198D01*
X147546198Y-68864300D01*
X147677523Y-68676749D01*
X147695804Y-68637543D01*
X147742722Y-68584257D01*
X147810999Y-68564796D01*
X147878959Y-68585337D01*
X147924195Y-68637543D01*
X147942476Y-68676748D01*
X148073804Y-68864303D01*
X148235696Y-69026195D01*
X148423249Y-69157522D01*
X148630756Y-69254284D01*
X148682270Y-69268087D01*
X148851913Y-69313543D01*
X149080000Y-69333498D01*
X149308087Y-69313543D01*
X149529243Y-69254284D01*
X149736749Y-69157523D01*
X149924300Y-69026198D01*
X150086198Y-68864300D01*
X150217523Y-68676749D01*
X150235804Y-68637543D01*
X150282722Y-68584257D01*
X150350999Y-68564796D01*
X150418959Y-68585337D01*
X150464195Y-68637543D01*
X150482476Y-68676748D01*
X150613804Y-68864303D01*
X150775696Y-69026195D01*
X150963249Y-69157522D01*
X151170756Y-69254284D01*
X151222270Y-69268087D01*
X151391913Y-69313543D01*
X151620000Y-69333498D01*
X151848087Y-69313543D01*
X152069243Y-69254284D01*
X152276749Y-69157523D01*
X152464300Y-69026198D01*
X152626198Y-68864300D01*
X152757523Y-68676749D01*
X152775804Y-68637543D01*
X152822722Y-68584257D01*
X152890999Y-68564796D01*
X152958959Y-68585337D01*
X153004195Y-68637543D01*
X153022476Y-68676748D01*
X153153804Y-68864303D01*
X153315696Y-69026195D01*
X153503249Y-69157522D01*
X153710756Y-69254284D01*
X153762270Y-69268087D01*
X153931913Y-69313543D01*
X154160000Y-69333498D01*
X154388087Y-69313543D01*
X154609243Y-69254284D01*
X154816749Y-69157523D01*
X155004300Y-69026198D01*
X155166198Y-68864300D01*
X155297523Y-68676749D01*
X155315804Y-68637543D01*
X155362722Y-68584257D01*
X155430999Y-68564796D01*
X155498959Y-68585337D01*
X155544195Y-68637543D01*
X155562476Y-68676748D01*
X155693804Y-68864303D01*
X155855696Y-69026195D01*
X156043249Y-69157522D01*
X156250756Y-69254284D01*
X156302270Y-69268087D01*
X156471913Y-69313543D01*
X156700000Y-69333498D01*
X156928087Y-69313543D01*
X157149243Y-69254284D01*
X157356749Y-69157523D01*
X157544300Y-69026198D01*
X157706198Y-68864300D01*
X157837523Y-68676749D01*
X157855804Y-68637543D01*
X157902722Y-68584257D01*
X157970999Y-68564796D01*
X158038959Y-68585337D01*
X158084195Y-68637543D01*
X158102476Y-68676748D01*
X158233804Y-68864303D01*
X158395696Y-69026195D01*
X158583249Y-69157522D01*
X158790756Y-69254284D01*
X158842270Y-69268087D01*
X159011913Y-69313543D01*
X159240000Y-69333498D01*
X159468087Y-69313543D01*
X159689243Y-69254284D01*
X159896749Y-69157523D01*
X160084300Y-69026198D01*
X160246198Y-68864300D01*
X160377523Y-68676749D01*
X160396080Y-68636951D01*
X160442998Y-68583665D01*
X160511275Y-68564204D01*
X160579235Y-68584745D01*
X160624471Y-68636951D01*
X160642911Y-68676497D01*
X160774189Y-68863981D01*
X160936018Y-69025810D01*
X161123501Y-69157087D01*
X161330929Y-69253813D01*
X161526000Y-69306082D01*
X161526000Y-67931685D01*
X161541955Y-67947641D01*
X161654852Y-68005165D01*
X161748519Y-68020000D01*
X161811481Y-68020000D01*
X161905148Y-68005165D01*
X162018045Y-67947641D01*
X162034000Y-67931686D01*
X162034000Y-69306081D01*
X162229070Y-69253813D01*
X162436498Y-69157087D01*
X162623981Y-69025810D01*
X162785810Y-68863981D01*
X162917087Y-68676498D01*
X163013813Y-68469070D01*
X163073048Y-68248000D01*
X163087761Y-68079827D01*
X163088000Y-68074364D01*
X163088000Y-67874000D01*
X162091686Y-67874000D01*
X162107641Y-67858045D01*
X162165165Y-67745148D01*
X162184986Y-67620000D01*
X162165165Y-67494852D01*
X162107641Y-67381955D01*
X162091686Y-67366000D01*
X163088000Y-67366000D01*
X163088000Y-67165635D01*
X163087761Y-67160172D01*
X163073048Y-66991999D01*
X163013813Y-66770929D01*
X162917087Y-66563501D01*
X162785810Y-66376018D01*
X162623981Y-66214189D01*
X162436499Y-66082912D01*
X162229067Y-65986185D01*
X162034001Y-65933916D01*
X162034000Y-65933917D01*
X162034000Y-67308314D01*
X162018045Y-67292359D01*
X161905148Y-67234835D01*
X161811481Y-67220000D01*
X161748519Y-67220000D01*
X161654852Y-67234835D01*
X161541955Y-67292359D01*
X161526000Y-67308314D01*
X161526000Y-65933917D01*
X161525998Y-65933916D01*
X161330932Y-65986185D01*
X161123500Y-66082912D01*
X160936018Y-66214189D01*
X160774189Y-66376018D01*
X160642911Y-66563502D01*
X160624469Y-66603051D01*
X160577551Y-66656335D01*
X160509273Y-66675795D01*
X160441314Y-66655252D01*
X160396081Y-66603049D01*
X160377523Y-66563251D01*
X160246198Y-66375700D01*
X160246197Y-66375699D01*
X160246195Y-66375696D01*
X160084303Y-66213804D01*
X159896750Y-66082477D01*
X159689243Y-65985715D01*
X159468087Y-65926457D01*
X159240000Y-65906502D01*
X159011912Y-65926457D01*
X158790756Y-65985715D01*
X158583249Y-66082477D01*
X158395696Y-66213804D01*
X158233804Y-66375696D01*
X158102477Y-66563250D01*
X158084195Y-66602457D01*
X158037278Y-66655742D01*
X157969000Y-66675203D01*
X157901040Y-66654661D01*
X157855805Y-66602457D01*
X157837640Y-66563502D01*
X157837523Y-66563251D01*
X157706198Y-66375700D01*
X157706197Y-66375699D01*
X157706195Y-66375696D01*
X157544303Y-66213804D01*
X157356750Y-66082477D01*
X157149243Y-65985715D01*
X156928087Y-65926457D01*
X156700000Y-65906502D01*
X156471912Y-65926457D01*
X156250756Y-65985715D01*
X156043249Y-66082477D01*
X155855696Y-66213804D01*
X155693804Y-66375696D01*
X155562477Y-66563250D01*
X155544195Y-66602457D01*
X155497278Y-66655742D01*
X155429000Y-66675203D01*
X155361040Y-66654661D01*
X155315805Y-66602457D01*
X155297640Y-66563502D01*
X155297523Y-66563251D01*
X155166198Y-66375700D01*
X155166197Y-66375699D01*
X155166195Y-66375696D01*
X155004303Y-66213804D01*
X154816750Y-66082477D01*
X154609243Y-65985715D01*
X154388087Y-65926457D01*
X154160000Y-65906502D01*
X153931912Y-65926457D01*
X153710756Y-65985715D01*
X153503249Y-66082477D01*
X153315696Y-66213804D01*
X153153804Y-66375696D01*
X153022477Y-66563250D01*
X153004195Y-66602457D01*
X152957278Y-66655742D01*
X152889000Y-66675203D01*
X152821040Y-66654661D01*
X152775805Y-66602457D01*
X152757640Y-66563502D01*
X152757523Y-66563251D01*
X152626198Y-66375700D01*
X152626197Y-66375699D01*
X152626195Y-66375696D01*
X152464303Y-66213804D01*
X152276750Y-66082477D01*
X152069243Y-65985715D01*
X151848087Y-65926457D01*
X151620000Y-65906502D01*
X151619999Y-65906502D01*
X151391912Y-65926457D01*
X151170756Y-65985715D01*
X150963249Y-66082477D01*
X150775696Y-66213804D01*
X150613804Y-66375696D01*
X150482477Y-66563250D01*
X150464195Y-66602457D01*
X150417278Y-66655742D01*
X150349000Y-66675203D01*
X150281040Y-66654661D01*
X150235805Y-66602457D01*
X150217640Y-66563502D01*
X150217523Y-66563251D01*
X150086198Y-66375700D01*
X150086197Y-66375699D01*
X150086195Y-66375696D01*
X149924303Y-66213804D01*
X149736750Y-66082477D01*
X149529243Y-65985715D01*
X149308087Y-65926457D01*
X149080000Y-65906502D01*
X148851912Y-65926457D01*
X148630756Y-65985715D01*
X148423249Y-66082477D01*
X148235696Y-66213804D01*
X148073804Y-66375696D01*
X147942477Y-66563250D01*
X147924195Y-66602457D01*
X147877278Y-66655742D01*
X147809000Y-66675203D01*
X147741040Y-66654661D01*
X147695805Y-66602457D01*
X147677640Y-66563502D01*
X147677523Y-66563251D01*
X147546198Y-66375700D01*
X147546197Y-66375699D01*
X147546195Y-66375696D01*
X147384303Y-66213804D01*
X147196750Y-66082477D01*
X146989243Y-65985715D01*
X146768087Y-65926457D01*
X146540000Y-65906502D01*
X146311912Y-65926457D01*
X146090756Y-65985715D01*
X145883249Y-66082477D01*
X145695696Y-66213804D01*
X145533804Y-66375696D01*
X145402477Y-66563250D01*
X145384195Y-66602457D01*
X145337278Y-66655742D01*
X145269000Y-66675203D01*
X145201040Y-66654661D01*
X145155805Y-66602457D01*
X145137640Y-66563502D01*
X145137523Y-66563251D01*
X145006198Y-66375700D01*
X145006197Y-66375699D01*
X145006195Y-66375696D01*
X144844303Y-66213804D01*
X144656750Y-66082477D01*
X144449243Y-65985715D01*
X144228087Y-65926457D01*
X144000000Y-65906502D01*
X143771912Y-65926457D01*
X143550756Y-65985715D01*
X143343249Y-66082477D01*
X143155696Y-66213804D01*
X142993804Y-66375696D01*
X142862477Y-66563249D01*
X142765715Y-66770756D01*
X142706457Y-66991912D01*
X142692036Y-67156750D01*
X142691500Y-67162873D01*
X142691500Y-68077127D01*
X109105398Y-68077127D01*
X109039539Y-67963057D01*
X108911750Y-67821133D01*
X108757251Y-67708883D01*
X108757250Y-67708882D01*
X108582786Y-67631206D01*
X108395985Y-67591500D01*
X108205011Y-67591500D01*
X108080477Y-67617970D01*
X108018209Y-67631206D01*
X107843744Y-67708883D01*
X107689245Y-67821133D01*
X107561456Y-67963057D01*
X107465970Y-68128443D01*
X107406956Y-68310070D01*
X107386994Y-68500000D01*
X104413504Y-68500000D01*
X104393542Y-68310072D01*
X104334527Y-68128444D01*
X104334527Y-68128443D01*
X104239041Y-67963057D01*
X104111252Y-67821133D01*
X103956753Y-67708883D01*
X103956752Y-67708882D01*
X103782288Y-67631206D01*
X103595487Y-67591500D01*
X103404513Y-67591500D01*
X103279979Y-67617970D01*
X103217711Y-67631206D01*
X103043246Y-67708883D01*
X102888747Y-67821133D01*
X102760958Y-67963057D01*
X102665472Y-68128443D01*
X102606458Y-68310070D01*
X102586496Y-68499999D01*
X100241963Y-68499999D01*
X100187522Y-68383249D01*
X100056195Y-68195696D01*
X99894303Y-68033804D01*
X99706748Y-67902476D01*
X99667543Y-67884195D01*
X99614257Y-67837278D01*
X99594796Y-67769001D01*
X99615337Y-67701041D01*
X99667543Y-67655805D01*
X99672163Y-67653650D01*
X99706749Y-67637523D01*
X99894300Y-67506198D01*
X100056198Y-67344300D01*
X100187523Y-67156749D01*
X100284284Y-66949243D01*
X100343543Y-66728087D01*
X100363498Y-66500000D01*
X100343543Y-66271913D01*
X100292900Y-66082912D01*
X100284284Y-66050756D01*
X100187522Y-65843249D01*
X100056195Y-65655696D01*
X99894303Y-65493804D01*
X99706750Y-65362477D01*
X99499243Y-65265715D01*
X99278087Y-65206457D01*
X99109850Y-65191738D01*
X99109844Y-65191737D01*
X99107127Y-65191500D01*
X98092873Y-65191500D01*
X98090156Y-65191737D01*
X98090149Y-65191738D01*
X97921912Y-65206457D01*
X97700756Y-65265715D01*
X97493249Y-65362477D01*
X97305696Y-65493804D01*
X97143804Y-65655696D01*
X97012477Y-65843249D01*
X96915715Y-66050756D01*
X96856457Y-66271912D01*
X96836502Y-66500000D01*
X96856457Y-66728087D01*
X96915715Y-66949243D01*
X97012477Y-67156750D01*
X97143804Y-67344303D01*
X97305696Y-67506195D01*
X97305699Y-67506197D01*
X97305700Y-67506198D01*
X97493251Y-67637523D01*
X97528359Y-67653894D01*
X97532457Y-67655805D01*
X97585742Y-67702722D01*
X97605203Y-67771000D01*
X97584661Y-67838960D01*
X97532457Y-67884195D01*
X97493250Y-67902477D01*
X97305696Y-68033804D01*
X97143804Y-68195696D01*
X97012477Y-68383249D01*
X96915715Y-68590756D01*
X96856457Y-68811912D01*
X96836502Y-69040000D01*
X86075500Y-69040000D01*
X86075500Y-65000000D01*
X118336496Y-65000000D01*
X118356458Y-65189929D01*
X118415472Y-65371556D01*
X118510958Y-65536942D01*
X118510960Y-65536944D01*
X118638747Y-65678866D01*
X118793248Y-65791118D01*
X118967712Y-65868794D01*
X119154513Y-65908500D01*
X119154515Y-65908500D01*
X119345485Y-65908500D01*
X119345487Y-65908500D01*
X119532288Y-65868794D01*
X119706752Y-65791118D01*
X119861253Y-65678866D01*
X119989040Y-65536944D01*
X120084527Y-65371556D01*
X120143542Y-65189928D01*
X120163504Y-65000000D01*
X120143542Y-64810072D01*
X120084527Y-64628444D01*
X120084527Y-64628443D01*
X119989041Y-64463057D01*
X119861252Y-64321133D01*
X119706753Y-64208883D01*
X119706752Y-64208882D01*
X119532288Y-64131206D01*
X119345487Y-64091500D01*
X119154513Y-64091500D01*
X119029979Y-64117970D01*
X118967711Y-64131206D01*
X118793246Y-64208883D01*
X118638747Y-64321133D01*
X118510958Y-64463057D01*
X118415472Y-64628443D01*
X118356458Y-64810070D01*
X118336496Y-65000000D01*
X86075500Y-65000000D01*
X86075500Y-61495637D01*
X89507709Y-61495637D01*
X89508129Y-61499821D01*
X89508130Y-61499822D01*
X89537553Y-61792297D01*
X89537554Y-61792305D01*
X89537976Y-61796496D01*
X89538952Y-61800594D01*
X89538953Y-61800596D01*
X89607095Y-62086535D01*
X89607097Y-62086544D01*
X89608073Y-62090636D01*
X89609585Y-62094563D01*
X89609588Y-62094571D01*
X89708731Y-62351988D01*
X89716750Y-62372809D01*
X89718771Y-62376498D01*
X89718774Y-62376503D01*
X89790739Y-62507823D01*
X89862067Y-62637979D01*
X89864560Y-62641363D01*
X89864561Y-62641364D01*
X89956325Y-62765908D01*
X90041431Y-62881414D01*
X90044348Y-62884430D01*
X90044353Y-62884436D01*
X90146822Y-62990387D01*
X90251642Y-63098770D01*
X90351545Y-63177663D01*
X90485646Y-63283562D01*
X90485651Y-63283565D01*
X90488948Y-63286169D01*
X90749114Y-63440265D01*
X91027498Y-63558310D01*
X91319132Y-63638197D01*
X91618811Y-63678500D01*
X91623027Y-63678500D01*
X95343403Y-63678500D01*
X95345511Y-63678500D01*
X95571702Y-63663358D01*
X95868021Y-63603129D01*
X96153668Y-63503942D01*
X96423545Y-63367566D01*
X96672838Y-63196437D01*
X96897097Y-62993606D01*
X97092320Y-62762695D01*
X97255024Y-62507823D01*
X97382306Y-62233539D01*
X97471893Y-61944738D01*
X97479669Y-61898638D01*
X118501500Y-61898638D01*
X118508011Y-61959201D01*
X118533561Y-62027702D01*
X118559111Y-62096205D01*
X118646738Y-62213261D01*
X118763794Y-62300888D01*
X118763795Y-62300888D01*
X118763796Y-62300889D01*
X118900799Y-62351989D01*
X118961362Y-62358500D01*
X118964731Y-62358500D01*
X120555269Y-62358500D01*
X120558638Y-62358500D01*
X120619201Y-62351989D01*
X120756204Y-62300889D01*
X120873261Y-62213261D01*
X120960889Y-62096204D01*
X121011989Y-61959201D01*
X121018500Y-61898638D01*
X121018500Y-61863575D01*
X121038502Y-61795455D01*
X121092158Y-61748962D01*
X121162432Y-61738858D01*
X121227012Y-61768352D01*
X121247710Y-61791301D01*
X121312281Y-61883518D01*
X121332253Y-61912041D01*
X121487958Y-62067746D01*
X121487961Y-62067748D01*
X121487962Y-62067749D01*
X121668346Y-62194056D01*
X121867924Y-62287120D01*
X121919310Y-62300889D01*
X122080624Y-62344114D01*
X122080625Y-62344114D01*
X122080629Y-62344115D01*
X122300000Y-62363307D01*
X122519371Y-62344115D01*
X122732076Y-62287120D01*
X122931654Y-62194056D01*
X123112038Y-62067749D01*
X123267749Y-61912038D01*
X123394056Y-61731654D01*
X123455805Y-61599230D01*
X123502722Y-61545945D01*
X123570999Y-61526484D01*
X123638959Y-61547025D01*
X123684194Y-61599230D01*
X123708283Y-61650889D01*
X123745943Y-61731653D01*
X123872253Y-61912041D01*
X124027958Y-62067746D01*
X124027961Y-62067748D01*
X124027962Y-62067749D01*
X124208346Y-62194056D01*
X124407924Y-62287120D01*
X124459310Y-62300889D01*
X124620624Y-62344114D01*
X124620625Y-62344114D01*
X124620629Y-62344115D01*
X124840000Y-62363307D01*
X125059371Y-62344115D01*
X125272076Y-62287120D01*
X125471654Y-62194056D01*
X125652038Y-62067749D01*
X125807749Y-61912038D01*
X125934056Y-61731654D01*
X126027120Y-61532076D01*
X126084115Y-61319371D01*
X126103307Y-61100000D01*
X126094558Y-61000000D01*
X127696693Y-61000000D01*
X127715885Y-61219375D01*
X127772879Y-61432074D01*
X127865943Y-61631653D01*
X127992253Y-61812041D01*
X128147958Y-61967746D01*
X128268694Y-62052287D01*
X128313022Y-62107744D01*
X128320331Y-62178364D01*
X128288300Y-62241724D01*
X128227099Y-62277709D01*
X128196423Y-62281500D01*
X128161362Y-62281500D01*
X128158013Y-62281859D01*
X128158013Y-62281860D01*
X128100799Y-62288011D01*
X127963794Y-62339111D01*
X127846738Y-62426738D01*
X127759111Y-62543794D01*
X127708011Y-62680799D01*
X127701500Y-62741362D01*
X127701500Y-64338638D01*
X127701860Y-64341986D01*
X127708011Y-64399200D01*
X127759111Y-64536205D01*
X127846738Y-64653261D01*
X127963794Y-64740888D01*
X127963795Y-64740888D01*
X127963796Y-64740889D01*
X128100799Y-64791989D01*
X128161362Y-64798500D01*
X128164731Y-64798500D01*
X129755269Y-64798500D01*
X129758638Y-64798500D01*
X129819201Y-64791989D01*
X129956204Y-64740889D01*
X130073261Y-64653261D01*
X130160889Y-64536204D01*
X130211989Y-64399201D01*
X130218500Y-64338638D01*
X130218500Y-62741362D01*
X130211989Y-62680799D01*
X130160889Y-62543796D01*
X130160888Y-62543794D01*
X130073261Y-62426738D01*
X129956205Y-62339111D01*
X129887702Y-62313560D01*
X129819201Y-62288011D01*
X129758638Y-62281500D01*
X129723577Y-62281500D01*
X129655456Y-62261498D01*
X129608963Y-62207842D01*
X129598859Y-62137568D01*
X129628353Y-62072988D01*
X129651306Y-62052287D01*
X129655520Y-62049335D01*
X129772038Y-61967749D01*
X129841149Y-61898638D01*
X131701500Y-61898638D01*
X131708011Y-61959201D01*
X131733561Y-62027702D01*
X131759111Y-62096205D01*
X131846738Y-62213261D01*
X131963794Y-62300888D01*
X131963795Y-62300888D01*
X131963796Y-62300889D01*
X132100799Y-62351989D01*
X132161362Y-62358500D01*
X132164731Y-62358500D01*
X133755269Y-62358500D01*
X133758638Y-62358500D01*
X133819201Y-62351989D01*
X133956204Y-62300889D01*
X134073261Y-62213261D01*
X134160889Y-62096204D01*
X134211989Y-61959201D01*
X134218500Y-61898638D01*
X134218500Y-61863576D01*
X134238502Y-61795455D01*
X134292158Y-61748962D01*
X134362432Y-61738858D01*
X134427012Y-61768352D01*
X134447710Y-61791301D01*
X134512281Y-61883518D01*
X134532253Y-61912041D01*
X134687958Y-62067746D01*
X134687961Y-62067748D01*
X134687962Y-62067749D01*
X134868346Y-62194056D01*
X135067924Y-62287120D01*
X135119310Y-62300889D01*
X135280624Y-62344114D01*
X135280625Y-62344114D01*
X135280629Y-62344115D01*
X135500000Y-62363307D01*
X135719371Y-62344115D01*
X135932076Y-62287120D01*
X136131654Y-62194056D01*
X136312038Y-62067749D01*
X136467749Y-61912038D01*
X136594056Y-61731654D01*
X136655805Y-61599230D01*
X136702722Y-61545945D01*
X136770999Y-61526484D01*
X136838959Y-61547025D01*
X136884194Y-61599230D01*
X136908283Y-61650889D01*
X136945943Y-61731653D01*
X137072253Y-61912041D01*
X137227958Y-62067746D01*
X137227961Y-62067748D01*
X137227962Y-62067749D01*
X137408346Y-62194056D01*
X137607924Y-62287120D01*
X137659310Y-62300889D01*
X137820624Y-62344114D01*
X137820625Y-62344114D01*
X137820629Y-62344115D01*
X138040000Y-62363307D01*
X138259371Y-62344115D01*
X138472076Y-62287120D01*
X138671654Y-62194056D01*
X138852038Y-62067749D01*
X139007749Y-61912038D01*
X139134056Y-61731654D01*
X139227120Y-61532076D01*
X139284115Y-61319371D01*
X139303307Y-61100000D01*
X139284115Y-60880629D01*
X139227120Y-60667924D01*
X139134056Y-60468347D01*
X139126200Y-60457127D01*
X142691500Y-60457127D01*
X142691737Y-60459844D01*
X142691738Y-60459850D01*
X142706457Y-60628087D01*
X142765715Y-60849243D01*
X142862477Y-61056750D01*
X142993804Y-61244303D01*
X143155696Y-61406195D01*
X143343249Y-61537522D01*
X143550756Y-61634284D01*
X143580915Y-61642365D01*
X143771913Y-61693543D01*
X144000000Y-61713498D01*
X144228087Y-61693543D01*
X144449243Y-61634284D01*
X144656749Y-61537523D01*
X144844300Y-61406198D01*
X145006198Y-61244300D01*
X145137523Y-61056749D01*
X145155804Y-61017543D01*
X145202722Y-60964257D01*
X145270999Y-60944796D01*
X145338959Y-60965337D01*
X145384195Y-61017543D01*
X145402476Y-61056748D01*
X145533804Y-61244303D01*
X145695696Y-61406195D01*
X145883249Y-61537522D01*
X146090756Y-61634284D01*
X146120915Y-61642365D01*
X146311913Y-61693543D01*
X146540000Y-61713498D01*
X146768087Y-61693543D01*
X146989243Y-61634284D01*
X147196749Y-61537523D01*
X147384300Y-61406198D01*
X147546198Y-61244300D01*
X147677523Y-61056749D01*
X147695804Y-61017543D01*
X147742722Y-60964257D01*
X147810999Y-60944796D01*
X147878959Y-60965337D01*
X147924195Y-61017543D01*
X147942476Y-61056748D01*
X148073804Y-61244303D01*
X148235696Y-61406195D01*
X148423249Y-61537522D01*
X148630756Y-61634284D01*
X148660915Y-61642365D01*
X148851913Y-61693543D01*
X149080000Y-61713498D01*
X149308087Y-61693543D01*
X149529243Y-61634284D01*
X149736749Y-61537523D01*
X149924300Y-61406198D01*
X150086198Y-61244300D01*
X150217523Y-61056749D01*
X150235804Y-61017543D01*
X150282722Y-60964257D01*
X150350999Y-60944796D01*
X150418959Y-60965337D01*
X150464195Y-61017543D01*
X150482476Y-61056748D01*
X150613804Y-61244303D01*
X150775696Y-61406195D01*
X150963249Y-61537522D01*
X151170756Y-61634284D01*
X151200915Y-61642365D01*
X151391913Y-61693543D01*
X151620000Y-61713498D01*
X151848087Y-61693543D01*
X152069243Y-61634284D01*
X152276749Y-61537523D01*
X152464300Y-61406198D01*
X152626198Y-61244300D01*
X152757523Y-61056749D01*
X152775804Y-61017543D01*
X152822722Y-60964257D01*
X152890999Y-60944796D01*
X152958959Y-60965337D01*
X153004195Y-61017543D01*
X153022476Y-61056748D01*
X153153804Y-61244303D01*
X153315696Y-61406195D01*
X153503249Y-61537522D01*
X153710756Y-61634284D01*
X153740915Y-61642365D01*
X153931913Y-61693543D01*
X154160000Y-61713498D01*
X154388087Y-61693543D01*
X154609243Y-61634284D01*
X154816749Y-61537523D01*
X155004300Y-61406198D01*
X155166198Y-61244300D01*
X155297523Y-61056749D01*
X155315804Y-61017543D01*
X155362722Y-60964257D01*
X155430999Y-60944796D01*
X155498959Y-60965337D01*
X155544195Y-61017543D01*
X155562476Y-61056748D01*
X155693804Y-61244303D01*
X155855696Y-61406195D01*
X156043249Y-61537522D01*
X156250756Y-61634284D01*
X156280915Y-61642365D01*
X156471913Y-61693543D01*
X156700000Y-61713498D01*
X156928087Y-61693543D01*
X157149243Y-61634284D01*
X157356749Y-61537523D01*
X157544300Y-61406198D01*
X157706198Y-61244300D01*
X157837523Y-61056749D01*
X157855804Y-61017543D01*
X157902722Y-60964257D01*
X157970999Y-60944796D01*
X158038959Y-60965337D01*
X158084195Y-61017543D01*
X158102476Y-61056748D01*
X158233804Y-61244303D01*
X158395696Y-61406195D01*
X158583249Y-61537522D01*
X158790756Y-61634284D01*
X158820915Y-61642365D01*
X159011913Y-61693543D01*
X159240000Y-61713498D01*
X159468087Y-61693543D01*
X159689243Y-61634284D01*
X159896749Y-61537523D01*
X160084300Y-61406198D01*
X160246198Y-61244300D01*
X160248507Y-61241002D01*
X160253440Y-61237058D01*
X160253993Y-61236506D01*
X160254054Y-61236567D01*
X160303960Y-61196672D01*
X160374579Y-61189360D01*
X160437941Y-61221387D01*
X160473929Y-61282587D01*
X160476999Y-61299796D01*
X160478011Y-61309201D01*
X160481806Y-61319375D01*
X160529111Y-61446205D01*
X160616738Y-61563261D01*
X160733794Y-61650888D01*
X160733795Y-61650888D01*
X160733796Y-61650889D01*
X160870799Y-61701989D01*
X160931362Y-61708500D01*
X160934731Y-61708500D01*
X162625269Y-61708500D01*
X162628638Y-61708500D01*
X162689201Y-61701989D01*
X162826204Y-61650889D01*
X162943261Y-61563261D01*
X163030889Y-61446204D01*
X163081989Y-61309201D01*
X163088500Y-61248638D01*
X163088500Y-58751362D01*
X163081989Y-58690799D01*
X163030889Y-58553796D01*
X163030888Y-58553794D01*
X162943261Y-58436738D01*
X162826205Y-58349111D01*
X162711845Y-58306457D01*
X162689201Y-58298011D01*
X162628638Y-58291500D01*
X160931362Y-58291500D01*
X160928013Y-58291859D01*
X160928013Y-58291860D01*
X160870799Y-58298011D01*
X160733794Y-58349111D01*
X160616738Y-58436738D01*
X160529111Y-58553794D01*
X160495044Y-58645131D01*
X160482274Y-58679371D01*
X160478011Y-58690800D01*
X160477000Y-58700202D01*
X160449829Y-58765794D01*
X160391509Y-58806283D01*
X160320558Y-58808815D01*
X160259501Y-58772586D01*
X160248508Y-58758999D01*
X160246195Y-58755696D01*
X160084303Y-58593804D01*
X159896750Y-58462477D01*
X159689243Y-58365715D01*
X159468087Y-58306457D01*
X159240000Y-58286502D01*
X159011912Y-58306457D01*
X158790756Y-58365715D01*
X158583249Y-58462477D01*
X158395696Y-58593804D01*
X158233804Y-58755696D01*
X158102477Y-58943250D01*
X158084195Y-58982457D01*
X158037278Y-59035742D01*
X157969000Y-59055203D01*
X157901040Y-59034661D01*
X157855805Y-58982457D01*
X157853894Y-58978359D01*
X157837523Y-58943251D01*
X157706198Y-58755700D01*
X157706197Y-58755699D01*
X157706195Y-58755696D01*
X157544303Y-58593804D01*
X157356750Y-58462477D01*
X157149243Y-58365715D01*
X156928087Y-58306457D01*
X156700000Y-58286502D01*
X156471912Y-58306457D01*
X156250756Y-58365715D01*
X156043249Y-58462477D01*
X155855696Y-58593804D01*
X155693804Y-58755696D01*
X155562477Y-58943250D01*
X155544195Y-58982457D01*
X155497278Y-59035742D01*
X155429000Y-59055203D01*
X155361040Y-59034661D01*
X155315805Y-58982457D01*
X155313894Y-58978359D01*
X155297523Y-58943251D01*
X155166198Y-58755700D01*
X155166197Y-58755699D01*
X155166195Y-58755696D01*
X155004303Y-58593804D01*
X154816750Y-58462477D01*
X154609243Y-58365715D01*
X154388087Y-58306457D01*
X154160000Y-58286502D01*
X153931912Y-58306457D01*
X153710756Y-58365715D01*
X153503249Y-58462477D01*
X153315696Y-58593804D01*
X153153804Y-58755696D01*
X153022477Y-58943250D01*
X153004195Y-58982457D01*
X152957278Y-59035742D01*
X152889000Y-59055203D01*
X152821040Y-59034661D01*
X152775805Y-58982457D01*
X152773894Y-58978359D01*
X152757523Y-58943251D01*
X152626198Y-58755700D01*
X152626197Y-58755699D01*
X152626195Y-58755696D01*
X152464303Y-58593804D01*
X152276750Y-58462477D01*
X152069243Y-58365715D01*
X151848087Y-58306457D01*
X151620000Y-58286502D01*
X151391912Y-58306457D01*
X151170756Y-58365715D01*
X150963249Y-58462477D01*
X150775696Y-58593804D01*
X150613804Y-58755696D01*
X150482477Y-58943250D01*
X150464195Y-58982457D01*
X150417278Y-59035742D01*
X150349000Y-59055203D01*
X150281040Y-59034661D01*
X150235805Y-58982457D01*
X150233894Y-58978359D01*
X150217523Y-58943251D01*
X150086198Y-58755700D01*
X150086197Y-58755699D01*
X150086195Y-58755696D01*
X149924303Y-58593804D01*
X149736750Y-58462477D01*
X149529243Y-58365715D01*
X149308087Y-58306457D01*
X149080000Y-58286502D01*
X148851912Y-58306457D01*
X148630756Y-58365715D01*
X148423249Y-58462477D01*
X148235696Y-58593804D01*
X148073804Y-58755696D01*
X147942477Y-58943250D01*
X147924195Y-58982457D01*
X147877278Y-59035742D01*
X147809000Y-59055203D01*
X147741040Y-59034661D01*
X147695805Y-58982457D01*
X147693894Y-58978359D01*
X147677523Y-58943251D01*
X147546198Y-58755700D01*
X147546197Y-58755699D01*
X147546195Y-58755696D01*
X147384303Y-58593804D01*
X147196750Y-58462477D01*
X146989243Y-58365715D01*
X146768087Y-58306457D01*
X146540000Y-58286502D01*
X146311912Y-58306457D01*
X146090756Y-58365715D01*
X145883249Y-58462477D01*
X145695696Y-58593804D01*
X145533804Y-58755696D01*
X145402477Y-58943250D01*
X145384195Y-58982457D01*
X145337278Y-59035742D01*
X145269000Y-59055203D01*
X145201040Y-59034661D01*
X145155805Y-58982457D01*
X145153894Y-58978359D01*
X145137523Y-58943251D01*
X145006198Y-58755700D01*
X145006197Y-58755699D01*
X145006195Y-58755696D01*
X144844303Y-58593804D01*
X144656750Y-58462477D01*
X144449243Y-58365715D01*
X144228087Y-58306457D01*
X144000000Y-58286502D01*
X143771912Y-58306457D01*
X143550756Y-58365715D01*
X143343249Y-58462477D01*
X143155696Y-58593804D01*
X142993804Y-58755696D01*
X142862477Y-58943249D01*
X142765715Y-59150756D01*
X142706457Y-59371912D01*
X142697663Y-59472434D01*
X142691500Y-59542873D01*
X142691500Y-60457127D01*
X139126200Y-60457127D01*
X139007749Y-60287962D01*
X139007748Y-60287961D01*
X139007746Y-60287958D01*
X138852041Y-60132253D01*
X138671653Y-60005943D01*
X138472074Y-59912879D01*
X138259375Y-59855885D01*
X138083874Y-59840531D01*
X138040000Y-59836693D01*
X138039999Y-59836693D01*
X137820624Y-59855885D01*
X137607925Y-59912879D01*
X137408347Y-60005943D01*
X137227958Y-60132253D01*
X137072253Y-60287958D01*
X136945944Y-60468345D01*
X136884195Y-60600769D01*
X136837278Y-60654054D01*
X136769001Y-60673515D01*
X136701041Y-60652973D01*
X136655805Y-60600769D01*
X136594055Y-60468345D01*
X136467746Y-60287958D01*
X136312041Y-60132253D01*
X136131653Y-60005943D01*
X135932074Y-59912879D01*
X135719375Y-59855885D01*
X135500000Y-59836693D01*
X135280624Y-59855885D01*
X135067925Y-59912879D01*
X134868347Y-60005943D01*
X134687958Y-60132253D01*
X134532253Y-60287958D01*
X134447713Y-60408694D01*
X134392256Y-60453022D01*
X134321636Y-60460331D01*
X134258276Y-60428300D01*
X134222291Y-60367099D01*
X134218500Y-60336423D01*
X134218500Y-60304730D01*
X134218500Y-60304729D01*
X134218500Y-60301362D01*
X134211989Y-60240799D01*
X134160889Y-60103796D01*
X134160888Y-60103794D01*
X134073261Y-59986738D01*
X133956205Y-59899111D01*
X133887702Y-59873560D01*
X133819201Y-59848011D01*
X133758638Y-59841500D01*
X132161362Y-59841500D01*
X132158013Y-59841859D01*
X132158013Y-59841860D01*
X132100799Y-59848011D01*
X131963794Y-59899111D01*
X131846738Y-59986738D01*
X131759111Y-60103794D01*
X131721099Y-60205709D01*
X131708011Y-60240799D01*
X131701500Y-60301362D01*
X131701500Y-61898638D01*
X129841149Y-61898638D01*
X129927749Y-61812038D01*
X130054056Y-61631654D01*
X130147120Y-61432076D01*
X130204115Y-61219371D01*
X130223307Y-61000000D01*
X130204115Y-60780629D01*
X130195737Y-60749364D01*
X130157446Y-60606461D01*
X130147120Y-60567924D01*
X130054056Y-60368347D01*
X129927749Y-60187962D01*
X129927748Y-60187961D01*
X129927746Y-60187958D01*
X129772041Y-60032253D01*
X129591653Y-59905943D01*
X129484301Y-59855885D01*
X129459230Y-59844194D01*
X129405945Y-59797278D01*
X129386484Y-59729001D01*
X129407025Y-59661041D01*
X129459230Y-59615805D01*
X129591654Y-59554056D01*
X129772038Y-59427749D01*
X129927749Y-59272038D01*
X130054056Y-59091654D01*
X130147120Y-58892076D01*
X130204115Y-58679371D01*
X130223307Y-58460000D01*
X130204115Y-58240629D01*
X130147120Y-58027924D01*
X130054056Y-57828347D01*
X129927749Y-57647962D01*
X129927748Y-57647961D01*
X129927746Y-57647958D01*
X129772041Y-57492253D01*
X129591653Y-57365943D01*
X129392074Y-57272879D01*
X129179375Y-57215885D01*
X128960000Y-57196693D01*
X128740624Y-57215885D01*
X128527925Y-57272879D01*
X128328347Y-57365943D01*
X128147958Y-57492253D01*
X127992253Y-57647958D01*
X127865943Y-57828347D01*
X127772879Y-58027925D01*
X127715885Y-58240624D01*
X127696693Y-58459999D01*
X127715885Y-58679375D01*
X127772879Y-58892074D01*
X127865943Y-59091653D01*
X127992253Y-59272041D01*
X128147958Y-59427746D01*
X128147961Y-59427748D01*
X128147962Y-59427749D01*
X128215182Y-59474817D01*
X128328346Y-59554056D01*
X128460768Y-59615805D01*
X128514054Y-59662722D01*
X128533515Y-59730999D01*
X128512973Y-59798959D01*
X128460769Y-59844195D01*
X128328345Y-59905944D01*
X128147958Y-60032253D01*
X127992253Y-60187958D01*
X127865943Y-60368347D01*
X127772879Y-60567925D01*
X127715885Y-60780624D01*
X127696693Y-61000000D01*
X126094558Y-61000000D01*
X126084115Y-60880629D01*
X126027120Y-60667924D01*
X125934056Y-60468347D01*
X125807749Y-60287962D01*
X125807748Y-60287961D01*
X125807746Y-60287958D01*
X125652041Y-60132253D01*
X125471653Y-60005943D01*
X125272074Y-59912879D01*
X125059375Y-59855885D01*
X124840000Y-59836693D01*
X124620624Y-59855885D01*
X124407925Y-59912879D01*
X124208347Y-60005943D01*
X124027958Y-60132253D01*
X123872253Y-60287958D01*
X123745944Y-60468345D01*
X123684195Y-60600769D01*
X123637278Y-60654054D01*
X123569001Y-60673515D01*
X123501041Y-60652973D01*
X123455805Y-60600769D01*
X123394055Y-60468345D01*
X123267746Y-60287958D01*
X123112041Y-60132253D01*
X122931653Y-60005943D01*
X122732074Y-59912879D01*
X122519375Y-59855885D01*
X122343874Y-59840531D01*
X122300000Y-59836693D01*
X122299999Y-59836693D01*
X122080624Y-59855885D01*
X121867925Y-59912879D01*
X121668347Y-60005943D01*
X121487958Y-60132253D01*
X121332253Y-60287958D01*
X121247713Y-60408694D01*
X121192256Y-60453022D01*
X121121636Y-60460331D01*
X121058276Y-60428300D01*
X121022291Y-60367099D01*
X121018500Y-60336423D01*
X121018500Y-60304730D01*
X121018500Y-60304729D01*
X121018500Y-60301362D01*
X121011989Y-60240799D01*
X120960889Y-60103796D01*
X120960888Y-60103794D01*
X120873261Y-59986738D01*
X120756205Y-59899111D01*
X120687702Y-59873560D01*
X120619201Y-59848011D01*
X120558638Y-59841500D01*
X118961362Y-59841500D01*
X118958013Y-59841859D01*
X118958013Y-59841860D01*
X118900799Y-59848011D01*
X118763794Y-59899111D01*
X118646738Y-59986738D01*
X118559111Y-60103794D01*
X118521099Y-60205709D01*
X118508011Y-60240799D01*
X118501500Y-60301362D01*
X118501500Y-61898638D01*
X97479669Y-61898638D01*
X97522187Y-61646572D01*
X97532291Y-61344363D01*
X97502024Y-61043504D01*
X97431927Y-60749364D01*
X97323250Y-60467191D01*
X97177933Y-60202021D01*
X96998569Y-59958586D01*
X96995650Y-59955568D01*
X96995646Y-59955563D01*
X96880683Y-59836693D01*
X96788358Y-59741230D01*
X96686814Y-59661041D01*
X96554353Y-59556437D01*
X96554345Y-59556431D01*
X96551052Y-59553831D01*
X96310994Y-59411645D01*
X96294511Y-59401882D01*
X96294510Y-59401881D01*
X96290886Y-59399735D01*
X96012502Y-59281690D01*
X96008449Y-59280579D01*
X96008444Y-59280578D01*
X95724932Y-59202916D01*
X95724928Y-59202915D01*
X95720868Y-59201803D01*
X95716697Y-59201242D01*
X95716692Y-59201241D01*
X95425365Y-59162061D01*
X95425355Y-59162060D01*
X95421189Y-59161500D01*
X91694489Y-59161500D01*
X91692405Y-59161639D01*
X91692390Y-59161640D01*
X91472496Y-59176360D01*
X91472481Y-59176361D01*
X91468298Y-59176642D01*
X91464170Y-59177480D01*
X91464170Y-59177481D01*
X91176111Y-59236031D01*
X91176109Y-59236031D01*
X91171979Y-59236871D01*
X91168000Y-59238252D01*
X91167995Y-59238254D01*
X90890318Y-59334673D01*
X90890306Y-59334678D01*
X90886332Y-59336058D01*
X90882573Y-59337957D01*
X90882567Y-59337960D01*
X90620213Y-59470534D01*
X90620201Y-59470540D01*
X90616455Y-59472434D01*
X90612987Y-59474814D01*
X90612983Y-59474817D01*
X90370631Y-59641181D01*
X90370624Y-59641186D01*
X90367162Y-59643563D01*
X90364046Y-59646381D01*
X90364040Y-59646386D01*
X90146028Y-59843567D01*
X90146023Y-59843571D01*
X90142903Y-59846394D01*
X90140191Y-59849600D01*
X90140181Y-59849612D01*
X89950396Y-60074091D01*
X89950387Y-60074102D01*
X89947680Y-60077305D01*
X89945421Y-60080842D01*
X89945414Y-60080853D01*
X89787248Y-60328617D01*
X89787244Y-60328623D01*
X89784976Y-60332177D01*
X89783199Y-60336004D01*
X89783199Y-60336006D01*
X89659466Y-60602641D01*
X89659462Y-60602649D01*
X89657694Y-60606461D01*
X89656450Y-60610470D01*
X89656447Y-60610479D01*
X89569354Y-60891238D01*
X89569349Y-60891255D01*
X89568107Y-60895262D01*
X89567407Y-60899411D01*
X89567406Y-60899416D01*
X89540868Y-61056750D01*
X89517813Y-61193428D01*
X89517672Y-61197628D01*
X89517672Y-61197634D01*
X89509362Y-61446205D01*
X89507709Y-61495637D01*
X86075500Y-61495637D01*
X86075500Y-49735000D01*
X90586673Y-49735000D01*
X90605949Y-49967626D01*
X90605949Y-49967629D01*
X90605950Y-49967630D01*
X90663250Y-50193905D01*
X90757016Y-50407669D01*
X90817919Y-50500889D01*
X90884686Y-50603083D01*
X90969842Y-50695587D01*
X91001263Y-50759251D01*
X90993276Y-50829797D01*
X90948417Y-50884826D01*
X90921174Y-50898980D01*
X90853793Y-50924111D01*
X90736738Y-51011738D01*
X90649111Y-51128794D01*
X90639787Y-51153794D01*
X90598011Y-51265799D01*
X90591500Y-51326362D01*
X90591500Y-53223638D01*
X90591860Y-53226986D01*
X90598011Y-53284200D01*
X90649111Y-53421205D01*
X90736738Y-53538261D01*
X90853794Y-53625888D01*
X90853795Y-53625888D01*
X90853796Y-53625889D01*
X90990799Y-53676989D01*
X91051362Y-53683500D01*
X91054731Y-53683500D01*
X92945269Y-53683500D01*
X92948638Y-53683500D01*
X93009201Y-53676989D01*
X93146204Y-53625889D01*
X93263261Y-53538261D01*
X93350889Y-53421204D01*
X93401989Y-53284201D01*
X93408500Y-53223638D01*
X93408500Y-51326362D01*
X93401989Y-51265799D01*
X93350889Y-51128796D01*
X93350888Y-51128794D01*
X93263261Y-51011738D01*
X93146205Y-50924111D01*
X93078826Y-50898980D01*
X93021990Y-50856433D01*
X92997179Y-50789913D01*
X93012270Y-50720539D01*
X93030151Y-50695593D01*
X93115314Y-50603083D01*
X93242984Y-50407669D01*
X93336749Y-50193907D01*
X93394051Y-49967626D01*
X93411255Y-49760000D01*
X96586673Y-49760000D01*
X96605949Y-49992626D01*
X96605949Y-49992629D01*
X96605950Y-49992630D01*
X96659199Y-50202908D01*
X96663251Y-50218907D01*
X96757016Y-50432669D01*
X96884686Y-50628083D01*
X96969842Y-50720587D01*
X97001263Y-50784251D01*
X96993276Y-50854797D01*
X96948417Y-50909826D01*
X96921174Y-50923980D01*
X96853793Y-50949111D01*
X96736738Y-51036738D01*
X96649111Y-51153794D01*
X96598011Y-51290798D01*
X96598011Y-51290799D01*
X96591500Y-51351362D01*
X96591500Y-53248638D01*
X96598011Y-53309201D01*
X96623561Y-53377702D01*
X96649111Y-53446205D01*
X96736738Y-53563261D01*
X96853794Y-53650888D01*
X96853795Y-53650888D01*
X96853796Y-53650889D01*
X96990799Y-53701989D01*
X97051362Y-53708500D01*
X97054731Y-53708500D01*
X98945269Y-53708500D01*
X98948638Y-53708500D01*
X99009201Y-53701989D01*
X99146204Y-53650889D01*
X99263261Y-53563261D01*
X99350889Y-53446204D01*
X99401989Y-53309201D01*
X99408500Y-53248638D01*
X99408500Y-51351362D01*
X99401989Y-51290799D01*
X99350889Y-51153796D01*
X99350888Y-51153794D01*
X99263261Y-51036738D01*
X99146205Y-50949111D01*
X99078826Y-50923980D01*
X99021990Y-50881433D01*
X98997179Y-50814913D01*
X99012270Y-50745539D01*
X99030151Y-50720593D01*
X99115314Y-50628083D01*
X99242984Y-50432669D01*
X99336749Y-50218907D01*
X99394051Y-49992626D01*
X99413327Y-49760000D01*
X103087174Y-49760000D01*
X103106444Y-49992548D01*
X103163723Y-50218739D01*
X103257458Y-50432434D01*
X103340795Y-50559991D01*
X103340796Y-50559991D01*
X104055155Y-49845632D01*
X104056327Y-49861265D01*
X104105887Y-49987541D01*
X104190465Y-50093599D01*
X104302547Y-50170016D01*
X104414623Y-50204586D01*
X103764616Y-50854595D01*
X103702303Y-50888620D01*
X103675520Y-50891500D01*
X103551362Y-50891500D01*
X103548013Y-50891859D01*
X103548013Y-50891860D01*
X103490799Y-50898011D01*
X103353794Y-50949111D01*
X103236738Y-51036738D01*
X103149111Y-51153794D01*
X103098011Y-51290798D01*
X103098011Y-51290799D01*
X103091500Y-51351362D01*
X103091500Y-53248638D01*
X103098011Y-53309201D01*
X103123561Y-53377702D01*
X103149111Y-53446205D01*
X103236738Y-53563261D01*
X103353794Y-53650888D01*
X103353795Y-53650888D01*
X103353796Y-53650889D01*
X103490799Y-53701989D01*
X103551362Y-53708500D01*
X103554731Y-53708500D01*
X105445269Y-53708500D01*
X105448638Y-53708500D01*
X105509201Y-53701989D01*
X105646204Y-53650889D01*
X105763261Y-53563261D01*
X105850889Y-53446204D01*
X105886772Y-53350000D01*
X122486384Y-53350000D01*
X122506783Y-53531049D01*
X122566956Y-53703014D01*
X122663889Y-53857282D01*
X122792717Y-53986110D01*
X122792719Y-53986111D01*
X122946985Y-54083043D01*
X123118953Y-54143217D01*
X123300000Y-54163616D01*
X123481047Y-54143217D01*
X123653015Y-54083043D01*
X123807281Y-53986111D01*
X123936111Y-53857281D01*
X124033043Y-53703015D01*
X124093217Y-53531047D01*
X124113616Y-53350000D01*
X124093217Y-53168953D01*
X124033043Y-52996985D01*
X123936111Y-52842719D01*
X123936110Y-52842717D01*
X123807282Y-52713889D01*
X123653014Y-52616956D01*
X123481049Y-52556783D01*
X123300000Y-52536384D01*
X123118950Y-52556783D01*
X122946985Y-52616956D01*
X122792717Y-52713889D01*
X122663889Y-52842717D01*
X122566956Y-52996985D01*
X122506783Y-53168950D01*
X122486384Y-53350000D01*
X105886772Y-53350000D01*
X105901989Y-53309201D01*
X105908500Y-53248638D01*
X105908500Y-51351362D01*
X105901989Y-51290799D01*
X105850889Y-51153796D01*
X105850888Y-51153794D01*
X105763261Y-51036738D01*
X105646205Y-50949111D01*
X105577702Y-50923560D01*
X105509201Y-50898011D01*
X105448638Y-50891500D01*
X105324480Y-50891500D01*
X105256359Y-50871498D01*
X105235384Y-50854595D01*
X104583315Y-50202525D01*
X104634138Y-50194865D01*
X104756357Y-50136007D01*
X104855798Y-50043740D01*
X104923625Y-49926260D01*
X104942550Y-49843339D01*
X105659202Y-50559990D01*
X105742544Y-50432428D01*
X105836275Y-50218742D01*
X105891668Y-50000000D01*
X106186384Y-50000000D01*
X106206783Y-50181049D01*
X106266956Y-50353014D01*
X106363889Y-50507282D01*
X106492717Y-50636110D01*
X106646985Y-50733043D01*
X106793329Y-50784251D01*
X106818953Y-50793217D01*
X107000000Y-50813616D01*
X107181047Y-50793217D01*
X107353015Y-50733043D01*
X107507281Y-50636111D01*
X107636111Y-50507281D01*
X107733043Y-50353015D01*
X107793217Y-50181047D01*
X107802502Y-50098638D01*
X117441500Y-50098638D01*
X117448011Y-50159201D01*
X117456159Y-50181047D01*
X117499111Y-50296205D01*
X117586738Y-50413261D01*
X117703794Y-50500888D01*
X117703795Y-50500888D01*
X117703796Y-50500889D01*
X117840799Y-50551989D01*
X117901362Y-50558500D01*
X117904731Y-50558500D01*
X119695269Y-50558500D01*
X119698638Y-50558500D01*
X119759201Y-50551989D01*
X119896204Y-50500889D01*
X120013261Y-50413261D01*
X120100889Y-50296204D01*
X120144999Y-50177941D01*
X120187545Y-50121107D01*
X120254065Y-50096296D01*
X120323439Y-50111387D01*
X120355753Y-50136635D01*
X120393780Y-50177943D01*
X120416762Y-50202908D01*
X120536629Y-50296205D01*
X120594424Y-50341189D01*
X120792426Y-50448342D01*
X121005365Y-50521444D01*
X121227431Y-50558500D01*
X121227434Y-50558500D01*
X121452566Y-50558500D01*
X121452569Y-50558500D01*
X121674635Y-50521444D01*
X121887574Y-50448342D01*
X122085576Y-50341189D01*
X122263240Y-50202906D01*
X122415722Y-50037268D01*
X122504518Y-49901354D01*
X122558520Y-49855267D01*
X122628868Y-49845692D01*
X122693226Y-49875669D01*
X122715480Y-49901353D01*
X122804278Y-50037268D01*
X122933780Y-50177943D01*
X122956762Y-50202908D01*
X123076629Y-50296205D01*
X123134424Y-50341189D01*
X123332426Y-50448342D01*
X123545365Y-50521444D01*
X123767431Y-50558500D01*
X123767434Y-50558500D01*
X123992566Y-50558500D01*
X123992569Y-50558500D01*
X124214635Y-50521444D01*
X124427574Y-50448342D01*
X124625576Y-50341189D01*
X124803240Y-50202906D01*
X124955722Y-50037268D01*
X125044518Y-49901354D01*
X125098521Y-49855268D01*
X125168869Y-49845693D01*
X125233226Y-49875670D01*
X125255480Y-49901353D01*
X125344278Y-50037268D01*
X125456525Y-50159200D01*
X125496762Y-50202908D01*
X125616629Y-50296205D01*
X125674424Y-50341189D01*
X125872426Y-50448342D01*
X126085365Y-50521444D01*
X126307431Y-50558500D01*
X126307434Y-50558500D01*
X126532566Y-50558500D01*
X126532569Y-50558500D01*
X126754635Y-50521444D01*
X126967574Y-50448342D01*
X127165576Y-50341189D01*
X127343240Y-50202906D01*
X127495722Y-50037268D01*
X127584518Y-49901354D01*
X127638521Y-49855268D01*
X127708869Y-49845693D01*
X127773226Y-49875670D01*
X127795480Y-49901353D01*
X127884278Y-50037268D01*
X127996525Y-50159200D01*
X128036762Y-50202908D01*
X128156629Y-50296205D01*
X128214424Y-50341189D01*
X128412426Y-50448342D01*
X128625365Y-50521444D01*
X128847431Y-50558500D01*
X128847434Y-50558500D01*
X129072566Y-50558500D01*
X129072569Y-50558500D01*
X129294635Y-50521444D01*
X129507574Y-50448342D01*
X129705576Y-50341189D01*
X129883240Y-50202906D01*
X130035722Y-50037268D01*
X130124518Y-49901354D01*
X130178521Y-49855268D01*
X130248869Y-49845693D01*
X130313226Y-49875670D01*
X130335480Y-49901353D01*
X130424278Y-50037268D01*
X130536525Y-50159200D01*
X130576762Y-50202908D01*
X130696629Y-50296205D01*
X130754424Y-50341189D01*
X130952426Y-50448342D01*
X131165365Y-50521444D01*
X131387431Y-50558500D01*
X131387434Y-50558500D01*
X131612566Y-50558500D01*
X131612569Y-50558500D01*
X131834635Y-50521444D01*
X132047574Y-50448342D01*
X132245576Y-50341189D01*
X132423240Y-50202906D01*
X132575722Y-50037268D01*
X132664518Y-49901354D01*
X132718520Y-49855267D01*
X132788868Y-49845692D01*
X132853226Y-49875669D01*
X132875480Y-49901353D01*
X132964278Y-50037268D01*
X133093780Y-50177943D01*
X133116762Y-50202908D01*
X133236629Y-50296205D01*
X133294424Y-50341189D01*
X133492426Y-50448342D01*
X133705365Y-50521444D01*
X133927431Y-50558500D01*
X133927434Y-50558500D01*
X134152566Y-50558500D01*
X134152569Y-50558500D01*
X134374635Y-50521444D01*
X134587574Y-50448342D01*
X134785576Y-50341189D01*
X134963240Y-50202906D01*
X135115722Y-50037268D01*
X135204518Y-49901354D01*
X135258521Y-49855268D01*
X135328869Y-49845693D01*
X135393226Y-49875670D01*
X135415480Y-49901353D01*
X135504278Y-50037268D01*
X135616525Y-50159200D01*
X135656762Y-50202908D01*
X135776629Y-50296205D01*
X135834424Y-50341189D01*
X136032426Y-50448342D01*
X136245365Y-50521444D01*
X136467431Y-50558500D01*
X136467434Y-50558500D01*
X136692566Y-50558500D01*
X136692569Y-50558500D01*
X136914635Y-50521444D01*
X137127574Y-50448342D01*
X137325576Y-50341189D01*
X137503240Y-50202906D01*
X137655722Y-50037268D01*
X137744518Y-49901354D01*
X137798521Y-49855268D01*
X137868869Y-49845693D01*
X137933226Y-49875670D01*
X137955480Y-49901353D01*
X138044278Y-50037268D01*
X138156525Y-50159200D01*
X138196762Y-50202908D01*
X138316629Y-50296205D01*
X138374424Y-50341189D01*
X138572426Y-50448342D01*
X138785365Y-50521444D01*
X139007431Y-50558500D01*
X139007434Y-50558500D01*
X139232566Y-50558500D01*
X139232569Y-50558500D01*
X139454635Y-50521444D01*
X139667574Y-50448342D01*
X139865576Y-50341189D01*
X140043240Y-50202906D01*
X140195722Y-50037268D01*
X140284518Y-49901354D01*
X140338521Y-49855268D01*
X140408869Y-49845693D01*
X140473226Y-49875670D01*
X140495480Y-49901353D01*
X140584278Y-50037268D01*
X140696525Y-50159200D01*
X140736762Y-50202908D01*
X140856629Y-50296205D01*
X140914424Y-50341189D01*
X141112426Y-50448342D01*
X141325365Y-50521444D01*
X141547431Y-50558500D01*
X141547434Y-50558500D01*
X141772566Y-50558500D01*
X141772569Y-50558500D01*
X141994635Y-50521444D01*
X142207574Y-50448342D01*
X142405576Y-50341189D01*
X142583240Y-50202906D01*
X142735722Y-50037268D01*
X142858860Y-49848791D01*
X142949296Y-49642616D01*
X143004564Y-49424368D01*
X143023156Y-49200000D01*
X143004564Y-48975632D01*
X142949296Y-48757384D01*
X142858860Y-48551209D01*
X142735722Y-48362732D01*
X142583240Y-48197094D01*
X142583239Y-48197093D01*
X142583237Y-48197091D01*
X142405578Y-48058812D01*
X142207573Y-47951657D01*
X142054510Y-47899111D01*
X141994635Y-47878556D01*
X141772569Y-47841500D01*
X141547431Y-47841500D01*
X141325365Y-47878556D01*
X141325362Y-47878556D01*
X141325362Y-47878557D01*
X141112426Y-47951657D01*
X140914421Y-48058812D01*
X140736762Y-48197091D01*
X140584278Y-48362731D01*
X140495483Y-48498643D01*
X140441479Y-48544731D01*
X140371131Y-48554306D01*
X140306774Y-48524328D01*
X140284517Y-48498643D01*
X140195721Y-48362731D01*
X140135945Y-48297798D01*
X140043240Y-48197094D01*
X140043239Y-48197093D01*
X140043237Y-48197091D01*
X139865578Y-48058812D01*
X139667573Y-47951657D01*
X139514510Y-47899111D01*
X139454635Y-47878556D01*
X139232569Y-47841500D01*
X139007431Y-47841500D01*
X138785365Y-47878556D01*
X138785362Y-47878556D01*
X138785362Y-47878557D01*
X138572426Y-47951657D01*
X138374421Y-48058812D01*
X138196762Y-48197091D01*
X138044278Y-48362731D01*
X137955483Y-48498643D01*
X137901479Y-48544731D01*
X137831131Y-48554306D01*
X137766774Y-48524328D01*
X137744517Y-48498643D01*
X137655721Y-48362731D01*
X137595945Y-48297798D01*
X137503240Y-48197094D01*
X137503239Y-48197093D01*
X137503237Y-48197091D01*
X137325578Y-48058812D01*
X137127573Y-47951657D01*
X136974510Y-47899111D01*
X136914635Y-47878556D01*
X136692569Y-47841500D01*
X136467431Y-47841500D01*
X136245365Y-47878556D01*
X136245362Y-47878556D01*
X136245362Y-47878557D01*
X136032426Y-47951657D01*
X135834421Y-48058812D01*
X135656762Y-48197091D01*
X135504278Y-48362731D01*
X135415483Y-48498643D01*
X135361479Y-48544731D01*
X135291131Y-48554306D01*
X135226774Y-48524328D01*
X135204517Y-48498643D01*
X135115721Y-48362731D01*
X135055945Y-48297798D01*
X134963240Y-48197094D01*
X134963239Y-48197093D01*
X134963237Y-48197091D01*
X134785578Y-48058812D01*
X134587573Y-47951657D01*
X134434510Y-47899111D01*
X134374635Y-47878556D01*
X134152569Y-47841500D01*
X133927431Y-47841500D01*
X133705365Y-47878556D01*
X133705362Y-47878556D01*
X133705362Y-47878557D01*
X133492426Y-47951657D01*
X133294421Y-48058812D01*
X133116762Y-48197091D01*
X132964278Y-48362731D01*
X132946197Y-48390407D01*
X132875481Y-48498645D01*
X132821479Y-48544732D01*
X132751131Y-48554307D01*
X132686774Y-48524330D01*
X132664519Y-48498646D01*
X132575722Y-48362732D01*
X132423240Y-48197094D01*
X132423239Y-48197093D01*
X132423237Y-48197091D01*
X132245578Y-48058812D01*
X132047573Y-47951657D01*
X131894510Y-47899111D01*
X131834635Y-47878556D01*
X131612569Y-47841500D01*
X131387431Y-47841500D01*
X131165365Y-47878556D01*
X131165362Y-47878556D01*
X131165362Y-47878557D01*
X130952426Y-47951657D01*
X130754421Y-48058812D01*
X130576762Y-48197091D01*
X130424278Y-48362731D01*
X130335483Y-48498643D01*
X130281479Y-48544731D01*
X130211131Y-48554306D01*
X130146774Y-48524328D01*
X130124517Y-48498643D01*
X130035721Y-48362731D01*
X129975945Y-48297798D01*
X129883240Y-48197094D01*
X129883239Y-48197093D01*
X129883237Y-48197091D01*
X129705578Y-48058812D01*
X129507573Y-47951657D01*
X129354510Y-47899111D01*
X129294635Y-47878556D01*
X129072569Y-47841500D01*
X128847431Y-47841500D01*
X128625365Y-47878556D01*
X128625362Y-47878556D01*
X128625362Y-47878557D01*
X128412426Y-47951657D01*
X128214421Y-48058812D01*
X128036762Y-48197091D01*
X127884278Y-48362731D01*
X127795483Y-48498643D01*
X127741479Y-48544731D01*
X127671131Y-48554306D01*
X127606774Y-48524328D01*
X127584517Y-48498643D01*
X127495721Y-48362731D01*
X127435945Y-48297798D01*
X127343240Y-48197094D01*
X127343239Y-48197093D01*
X127343237Y-48197091D01*
X127165578Y-48058812D01*
X126967573Y-47951657D01*
X126814510Y-47899111D01*
X126754635Y-47878556D01*
X126532569Y-47841500D01*
X126307431Y-47841500D01*
X126085365Y-47878556D01*
X126085362Y-47878556D01*
X126085362Y-47878557D01*
X125872426Y-47951657D01*
X125674421Y-48058812D01*
X125496762Y-48197091D01*
X125344278Y-48362731D01*
X125255483Y-48498643D01*
X125201479Y-48544731D01*
X125131131Y-48554306D01*
X125066774Y-48524328D01*
X125044517Y-48498643D01*
X124955721Y-48362731D01*
X124895945Y-48297798D01*
X124803240Y-48197094D01*
X124803239Y-48197093D01*
X124803237Y-48197091D01*
X124625578Y-48058812D01*
X124427573Y-47951657D01*
X124274510Y-47899111D01*
X124214635Y-47878556D01*
X123992569Y-47841500D01*
X123767431Y-47841500D01*
X123545365Y-47878556D01*
X123545362Y-47878556D01*
X123545362Y-47878557D01*
X123332426Y-47951657D01*
X123134421Y-48058812D01*
X122956762Y-48197091D01*
X122804278Y-48362731D01*
X122786197Y-48390407D01*
X122715481Y-48498645D01*
X122661479Y-48544732D01*
X122591131Y-48554307D01*
X122526774Y-48524330D01*
X122504519Y-48498646D01*
X122415722Y-48362732D01*
X122263240Y-48197094D01*
X122263239Y-48197093D01*
X122263237Y-48197091D01*
X122085578Y-48058812D01*
X121887573Y-47951657D01*
X121734510Y-47899111D01*
X121674635Y-47878556D01*
X121452569Y-47841500D01*
X121227431Y-47841500D01*
X121005365Y-47878556D01*
X121005362Y-47878556D01*
X121005362Y-47878557D01*
X120792426Y-47951657D01*
X120594421Y-48058812D01*
X120416758Y-48197094D01*
X120355754Y-48263362D01*
X120294901Y-48299933D01*
X120223937Y-48297798D01*
X120165392Y-48257636D01*
X120144998Y-48222056D01*
X120135688Y-48197094D01*
X120100889Y-48103796D01*
X120100888Y-48103794D01*
X120013261Y-47986738D01*
X119896205Y-47899111D01*
X119819069Y-47870341D01*
X119759201Y-47848011D01*
X119698638Y-47841500D01*
X117901362Y-47841500D01*
X117898013Y-47841859D01*
X117898013Y-47841860D01*
X117840799Y-47848011D01*
X117703794Y-47899111D01*
X117586738Y-47986738D01*
X117499111Y-48103794D01*
X117464313Y-48197091D01*
X117448011Y-48240799D01*
X117441500Y-48301362D01*
X117441500Y-50098638D01*
X107802502Y-50098638D01*
X107813616Y-50000000D01*
X107793217Y-49818953D01*
X107733043Y-49646985D01*
X107676277Y-49556642D01*
X107636110Y-49492717D01*
X107507282Y-49363889D01*
X107353014Y-49266956D01*
X107181049Y-49206783D01*
X107060349Y-49193183D01*
X107000000Y-49186384D01*
X106999999Y-49186384D01*
X106818950Y-49206783D01*
X106646985Y-49266956D01*
X106492717Y-49363889D01*
X106363889Y-49492717D01*
X106266956Y-49646985D01*
X106206783Y-49818950D01*
X106186384Y-50000000D01*
X105891668Y-50000000D01*
X105893555Y-49992548D01*
X105912825Y-49760000D01*
X105893555Y-49527451D01*
X105836276Y-49301260D01*
X105742543Y-49087569D01*
X105659202Y-48960007D01*
X104944844Y-49674363D01*
X104943673Y-49658735D01*
X104894113Y-49532459D01*
X104809535Y-49426401D01*
X104697453Y-49349984D01*
X104585375Y-49315413D01*
X105301318Y-48599470D01*
X105301317Y-48599469D01*
X105272745Y-48577230D01*
X105067525Y-48466171D01*
X104846830Y-48390407D01*
X104616668Y-48352000D01*
X104383332Y-48352000D01*
X104153169Y-48390407D01*
X103932474Y-48466171D01*
X103727255Y-48577230D01*
X103698681Y-48599469D01*
X103698681Y-48599470D01*
X104416684Y-49317474D01*
X104365862Y-49325135D01*
X104243643Y-49383993D01*
X104144202Y-49476260D01*
X104076375Y-49593740D01*
X104057449Y-49676659D01*
X103340796Y-48960006D01*
X103257456Y-49087571D01*
X103163723Y-49301260D01*
X103106444Y-49527451D01*
X103087174Y-49760000D01*
X99413327Y-49760000D01*
X99394051Y-49527374D01*
X99336749Y-49301093D01*
X99242984Y-49087331D01*
X99115314Y-48891917D01*
X98957220Y-48720182D01*
X98773017Y-48576810D01*
X98713740Y-48544731D01*
X98567726Y-48465712D01*
X98418275Y-48414405D01*
X98346951Y-48389920D01*
X98116712Y-48351500D01*
X97883288Y-48351500D01*
X97653049Y-48389920D01*
X97653046Y-48389920D01*
X97653046Y-48389921D01*
X97432273Y-48465712D01*
X97226984Y-48576809D01*
X97042779Y-48720182D01*
X96884684Y-48891919D01*
X96757016Y-49087330D01*
X96663250Y-49301094D01*
X96614248Y-49494602D01*
X96605949Y-49527374D01*
X96586673Y-49760000D01*
X93411255Y-49760000D01*
X93413327Y-49735000D01*
X93394051Y-49502374D01*
X93336749Y-49276093D01*
X93242984Y-49062331D01*
X93115314Y-48866917D01*
X92957220Y-48695182D01*
X92773017Y-48551810D01*
X92694537Y-48509339D01*
X92567726Y-48440712D01*
X92418275Y-48389405D01*
X92346951Y-48364920D01*
X92116712Y-48326500D01*
X91883288Y-48326500D01*
X91653049Y-48364920D01*
X91653046Y-48364920D01*
X91653046Y-48364921D01*
X91432273Y-48440712D01*
X91226984Y-48551809D01*
X91042779Y-48695182D01*
X90884684Y-48866919D01*
X90757016Y-49062330D01*
X90663250Y-49276094D01*
X90609921Y-49486688D01*
X90605949Y-49502374D01*
X90586673Y-49735000D01*
X86075500Y-49735000D01*
X86075500Y-45000000D01*
X90111758Y-45000000D01*
X90130692Y-45228497D01*
X90130692Y-45228500D01*
X90130693Y-45228501D01*
X90186975Y-45450756D01*
X90279079Y-45660733D01*
X90404482Y-45852677D01*
X90554909Y-46016084D01*
X90559769Y-46021363D01*
X90644800Y-46087545D01*
X90740704Y-46162191D01*
X90902963Y-46250000D01*
X90942350Y-46271315D01*
X91159207Y-46345762D01*
X91385360Y-46383500D01*
X91385363Y-46383500D01*
X91614637Y-46383500D01*
X91614640Y-46383500D01*
X91840793Y-46345762D01*
X92057650Y-46271315D01*
X92242833Y-46171098D01*
X92312263Y-46156269D01*
X92378690Y-46181329D01*
X92421022Y-46238324D01*
X92428414Y-46272027D01*
X92445927Y-46494557D01*
X92503194Y-46733091D01*
X92580577Y-46919907D01*
X92597073Y-46959732D01*
X92725248Y-47168896D01*
X92884567Y-47355433D01*
X93071104Y-47514752D01*
X93280268Y-47642927D01*
X93506908Y-47736805D01*
X93745443Y-47794072D01*
X93990000Y-47813319D01*
X94234557Y-47794072D01*
X94473092Y-47736805D01*
X94699732Y-47642927D01*
X94908896Y-47514752D01*
X95095433Y-47355433D01*
X95254752Y-47168896D01*
X95382927Y-46959732D01*
X95476805Y-46733092D01*
X95534072Y-46494557D01*
X95553319Y-46250000D01*
X95534072Y-46005443D01*
X95476805Y-45766908D01*
X95382927Y-45540268D01*
X95254752Y-45331104D01*
X95095433Y-45144567D01*
X94908896Y-44985248D01*
X94699732Y-44857073D01*
X94699731Y-44857072D01*
X94473091Y-44763194D01*
X94234557Y-44705928D01*
X93990000Y-44686681D01*
X93989999Y-44686681D01*
X93745442Y-44705928D01*
X93506908Y-44763194D01*
X93338165Y-44833090D01*
X93280268Y-44857073D01*
X93280266Y-44857074D01*
X93280264Y-44857075D01*
X93070417Y-44985668D01*
X93001884Y-45004206D01*
X92934207Y-44982749D01*
X92888874Y-44928110D01*
X92879015Y-44888648D01*
X92869308Y-44771503D01*
X92813023Y-44549239D01*
X92720922Y-44339270D01*
X92720921Y-44339268D01*
X92720920Y-44339266D01*
X92595517Y-44147322D01*
X92440234Y-43978640D01*
X92440233Y-43978639D01*
X92440231Y-43978637D01*
X92376457Y-43928999D01*
X92259295Y-43837808D01*
X92057649Y-43728684D01*
X91910851Y-43678289D01*
X91840793Y-43654238D01*
X91614640Y-43616500D01*
X91385360Y-43616500D01*
X91159207Y-43654238D01*
X91159204Y-43654238D01*
X91159204Y-43654239D01*
X90942350Y-43728684D01*
X90740704Y-43837808D01*
X90559765Y-43978640D01*
X90404482Y-44147322D01*
X90279079Y-44339266D01*
X90186975Y-44549243D01*
X90130693Y-44771498D01*
X90130692Y-44771503D01*
X90111758Y-45000000D01*
X86075500Y-45000000D01*
X86075500Y-38008257D01*
X86076578Y-37991812D01*
X86078758Y-37975249D01*
X86087799Y-37906576D01*
X86096312Y-37874806D01*
X86126025Y-37803074D01*
X86142467Y-37774593D01*
X86189738Y-37712988D01*
X86212988Y-37689738D01*
X86274593Y-37642467D01*
X86303074Y-37626025D01*
X86374806Y-37596312D01*
X86406576Y-37587799D01*
X86481982Y-37577871D01*
X86491812Y-37576578D01*
X86508257Y-37575500D01*
X86524531Y-37575500D01*
X93302457Y-37575500D01*
X93370578Y-37595502D01*
G37*
%TD.AperFunction*%
%TD*%
M02*
