%TF.GenerationSoftware,KiCad,Pcbnew,7.0.2*%
%TF.CreationDate,2023-10-12T23:28:15+02:00*%
%TF.ProjectId,pulse_generator_v2,70756c73-655f-4676-956e-657261746f72,rev?*%
%TF.SameCoordinates,Original*%
%TF.FileFunction,Copper,L1,Top*%
%TF.FilePolarity,Positive*%
%FSLAX46Y46*%
G04 Gerber Fmt 4.6, Leading zero omitted, Abs format (unit mm)*
G04 Created by KiCad (PCBNEW 7.0.2) date 2023-10-12 23:28:15*
%MOMM*%
%LPD*%
G01*
G04 APERTURE LIST*
G04 Aperture macros list*
%AMRoundRect*
0 Rectangle with rounded corners*
0 $1 Rounding radius*
0 $2 $3 $4 $5 $6 $7 $8 $9 X,Y pos of 4 corners*
0 Add a 4 corners polygon primitive as box body*
4,1,4,$2,$3,$4,$5,$6,$7,$8,$9,$2,$3,0*
0 Add four circle primitives for the rounded corners*
1,1,$1+$1,$2,$3*
1,1,$1+$1,$4,$5*
1,1,$1+$1,$6,$7*
1,1,$1+$1,$8,$9*
0 Add four rect primitives between the rounded corners*
20,1,$1+$1,$2,$3,$4,$5,0*
20,1,$1+$1,$4,$5,$6,$7,0*
20,1,$1+$1,$6,$7,$8,$9,0*
20,1,$1+$1,$8,$9,$2,$3,0*%
G04 Aperture macros list end*
%TA.AperFunction,SMDPad,CuDef*%
%ADD10R,2.500000X2.500000*%
%TD*%
%TA.AperFunction,SMDPad,CuDef*%
%ADD11RoundRect,0.250000X0.350000X0.450000X-0.350000X0.450000X-0.350000X-0.450000X0.350000X-0.450000X0*%
%TD*%
%TA.AperFunction,SMDPad,CuDef*%
%ADD12RoundRect,0.225000X0.375000X-0.225000X0.375000X0.225000X-0.375000X0.225000X-0.375000X-0.225000X0*%
%TD*%
%TA.AperFunction,ComponentPad*%
%ADD13R,1.700000X1.700000*%
%TD*%
%TA.AperFunction,ComponentPad*%
%ADD14C,2.100000*%
%TD*%
%TA.AperFunction,ComponentPad*%
%ADD15C,1.750000*%
%TD*%
%TA.AperFunction,ComponentPad*%
%ADD16R,1.800000X1.800000*%
%TD*%
%TA.AperFunction,ComponentPad*%
%ADD17C,1.800000*%
%TD*%
%TA.AperFunction,SMDPad,CuDef*%
%ADD18RoundRect,0.250000X-0.350000X-0.450000X0.350000X-0.450000X0.350000X0.450000X-0.350000X0.450000X0*%
%TD*%
%TA.AperFunction,ComponentPad*%
%ADD19O,2.500000X1.600000*%
%TD*%
%TA.AperFunction,ComponentPad*%
%ADD20O,7.000000X3.500000*%
%TD*%
%TA.AperFunction,SMDPad,CuDef*%
%ADD21R,1.800000X0.800000*%
%TD*%
%TA.AperFunction,SMDPad,CuDef*%
%ADD22RoundRect,0.250000X0.450000X-0.350000X0.450000X0.350000X-0.450000X0.350000X-0.450000X-0.350000X0*%
%TD*%
%TA.AperFunction,SMDPad,CuDef*%
%ADD23RoundRect,0.225000X-0.225000X-0.375000X0.225000X-0.375000X0.225000X0.375000X-0.225000X0.375000X0*%
%TD*%
%TA.AperFunction,ComponentPad*%
%ADD24R,1.600000X1.600000*%
%TD*%
%TA.AperFunction,ComponentPad*%
%ADD25C,1.600000*%
%TD*%
%TA.AperFunction,ComponentPad*%
%ADD26R,1.600000X2.400000*%
%TD*%
%TA.AperFunction,ComponentPad*%
%ADD27O,1.600000X2.400000*%
%TD*%
%TA.AperFunction,SMDPad,CuDef*%
%ADD28RoundRect,0.250000X0.337500X0.475000X-0.337500X0.475000X-0.337500X-0.475000X0.337500X-0.475000X0*%
%TD*%
%TA.AperFunction,SMDPad,CuDef*%
%ADD29RoundRect,0.250000X-0.337500X-0.475000X0.337500X-0.475000X0.337500X0.475000X-0.337500X0.475000X0*%
%TD*%
%TA.AperFunction,ComponentPad*%
%ADD30R,1.500000X1.500000*%
%TD*%
%TA.AperFunction,ComponentPad*%
%ADD31C,1.500000*%
%TD*%
%TA.AperFunction,SMDPad,CuDef*%
%ADD32RoundRect,0.250000X-0.450000X0.350000X-0.450000X-0.350000X0.450000X-0.350000X0.450000X0.350000X0*%
%TD*%
%TA.AperFunction,ComponentPad*%
%ADD33O,1.700000X1.700000*%
%TD*%
%TA.AperFunction,ViaPad*%
%ADD34C,0.600000*%
%TD*%
%TA.AperFunction,ViaPad*%
%ADD35C,0.800000*%
%TD*%
%TA.AperFunction,Conductor*%
%ADD36C,0.400000*%
%TD*%
%TA.AperFunction,Conductor*%
%ADD37C,0.250000*%
%TD*%
%TA.AperFunction,Conductor*%
%ADD38C,0.600000*%
%TD*%
G04 APERTURE END LIST*
D10*
%TO.P,TP5,1,1*%
%TO.N,GND*%
X107000000Y-97750000D03*
%TD*%
D11*
%TO.P,R14,1*%
%TO.N,Net-(U3B-2~{S})*%
X145240000Y-55000000D03*
%TO.P,R14,2*%
%TO.N,Net-(R14-Pad2)*%
X143240000Y-55000000D03*
%TD*%
D12*
%TO.P,D1,1,K*%
%TO.N,+3V3*%
X152500000Y-87850000D03*
%TO.P,D1,2,A*%
%TO.N,/A0*%
X152500000Y-84550000D03*
%TD*%
D13*
%TO.P,TP2,1,1*%
%TO.N,/A2*%
X133500000Y-91500000D03*
%TD*%
D14*
%TO.P,SW1,*%
%TO.N,*%
X92702500Y-82525000D03*
X92702500Y-75515000D03*
D15*
%TO.P,SW1,1,1*%
%TO.N,GND*%
X90212500Y-81275000D03*
%TO.P,SW1,2,2*%
%TO.N,/~{RESET}*%
X90212500Y-76775000D03*
%TD*%
D16*
%TO.P,D6,1,K*%
%TO.N,GND*%
X92000000Y-52275000D03*
D17*
%TO.P,D6,2,A*%
%TO.N,Net-(D6-A)*%
X92000000Y-49735000D03*
%TD*%
D16*
%TO.P,D3,1,K*%
%TO.N,GND*%
X98000000Y-52300000D03*
D17*
%TO.P,D3,2,A*%
%TO.N,Net-(D3-A)*%
X98000000Y-49760000D03*
%TD*%
D18*
%TO.P,R11,1*%
%TO.N,Net-(Q1-B)*%
X121300000Y-54850000D03*
%TO.P,R11,2*%
%TO.N,GND*%
X123300000Y-54850000D03*
%TD*%
%TO.P,R7,1*%
%TO.N,Net-(D4-K)*%
X109250000Y-75250000D03*
%TO.P,R7,2*%
%TO.N,GND*%
X111250000Y-75250000D03*
%TD*%
D12*
%TO.P,D2,1,K*%
%TO.N,/A0*%
X155500000Y-84500000D03*
%TO.P,D2,2,A*%
%TO.N,GND*%
X155500000Y-81200000D03*
%TD*%
D19*
%TO.P,J5,1,In*%
%TO.N,Net-(J5-In)*%
X98600000Y-91500000D03*
D20*
%TO.P,J5,2,Ext*%
%TO.N,Net-(J5-Ext)*%
X93520000Y-96580000D03*
D19*
X98600000Y-94040000D03*
D20*
X93520000Y-86420000D03*
%TD*%
D21*
%TO.P,K1,1*%
%TO.N,+3V3*%
X110000000Y-61050000D03*
%TO.P,K1,2*%
%TO.N,unconnected-(K1-Pad2)*%
X110000000Y-64250000D03*
%TO.P,K1,3*%
%TO.N,Net-(J6-In)*%
X110000000Y-66450000D03*
%TO.P,K1,4*%
%TO.N,PULSE*%
X110000000Y-68650000D03*
%TO.P,K1,5*%
%TO.N,Net-(D6-A)*%
X117000000Y-68650000D03*
%TO.P,K1,6*%
%TO.N,Net-(K1-Pad6)*%
X117000000Y-66450000D03*
%TO.P,K1,7*%
%TO.N,unconnected-(K1-Pad7)*%
X117000000Y-64250000D03*
%TO.P,K1,8*%
%TO.N,COIL-*%
X117000000Y-61050000D03*
%TD*%
D16*
%TO.P,D5,1,K*%
%TO.N,Net-(D5-K)*%
X104500000Y-52300000D03*
D17*
%TO.P,D5,2,A*%
%TO.N,+5V*%
X104500000Y-49760000D03*
%TD*%
D13*
%TO.P,TP4,1,1*%
%TO.N,/2*%
X134000000Y-76000000D03*
%TD*%
D22*
%TO.P,R4,2*%
%TO.N,Net-(D3-A)*%
X106750000Y-56000000D03*
%TO.P,R4,1*%
%TO.N,PULSE*%
X106750000Y-58000000D03*
%TD*%
%TO.P,R17,1*%
%TO.N,Net-(Q3-B)*%
X140960000Y-63110000D03*
%TO.P,R17,2*%
%TO.N,ARM*%
X140960000Y-61110000D03*
%TD*%
D11*
%TO.P,R15,1*%
%TO.N,+5V*%
X134460000Y-64610000D03*
%TO.P,R15,2*%
%TO.N,/~{RESET}*%
X132460000Y-64610000D03*
%TD*%
%TO.P,R12,1*%
%TO.N,ARM*%
X123300000Y-57350000D03*
%TO.P,R12,2*%
%TO.N,Net-(Q1-B)*%
X121300000Y-57350000D03*
%TD*%
D18*
%TO.P,R8,1*%
%TO.N,Net-(J5-Ext)*%
X105000000Y-93500000D03*
%TO.P,R8,2*%
%TO.N,GND*%
X107000000Y-93500000D03*
%TD*%
D23*
%TO.P,D7,1,K*%
%TO.N,+3V3*%
X111850000Y-57250000D03*
%TO.P,D7,2,A*%
%TO.N,COIL-*%
X115150000Y-57250000D03*
%TD*%
D24*
%TO.P,C4,1*%
%TO.N,+3V3*%
X138044888Y-92750000D03*
D25*
%TO.P,C4,2*%
%TO.N,GND*%
X140544888Y-92750000D03*
%TD*%
D18*
%TO.P,R3,1*%
%TO.N,+5V*%
X126200000Y-76000000D03*
%TO.P,R3,2*%
%TO.N,/2*%
X128200000Y-76000000D03*
%TD*%
D26*
%TO.P,U1,1,GND*%
%TO.N,GND*%
X126000000Y-88000000D03*
D27*
%TO.P,U1,2,+*%
%TO.N,/A2*%
X128540000Y-88000000D03*
%TO.P,U1,3,-*%
%TO.N,Net-(J5-In)*%
X131080000Y-88000000D03*
%TO.P,U1,4,V-*%
%TO.N,GND*%
X133620000Y-88000000D03*
%TO.P,U1,5,BAL*%
%TO.N,unconnected-(U1-BAL-Pad5)*%
X133620000Y-80380000D03*
%TO.P,U1,6,STRB*%
%TO.N,unconnected-(U1-STRB-Pad6)*%
X131080000Y-80380000D03*
%TO.P,U1,7*%
%TO.N,/2*%
X128540000Y-80380000D03*
%TO.P,U1,8,V+*%
%TO.N,+5V*%
X126000000Y-80380000D03*
%TD*%
D26*
%TO.P,U3,1*%
%TO.N,N/C*%
X161780000Y-60000000D03*
D27*
%TO.P,U3,2*%
X159240000Y-60000000D03*
%TO.P,U3,3*%
X156700000Y-60000000D03*
%TO.P,U3,4*%
X154160000Y-60000000D03*
%TO.P,U3,5,2~{R}*%
%TO.N,/~{RESET}*%
X151620000Y-60000000D03*
%TO.P,U3,6,2~{S}*%
%TO.N,Net-(U3B-2~{S})*%
X149080000Y-60000000D03*
%TO.P,U3,7,2Q*%
%TO.N,ARM*%
X146540000Y-60000000D03*
%TO.P,U3,8,GND*%
%TO.N,GND*%
X144000000Y-60000000D03*
%TO.P,U3,9*%
%TO.N,N/C*%
X144000000Y-67620000D03*
%TO.P,U3,10*%
X146540000Y-67620000D03*
%TO.P,U3,11*%
X149080000Y-67620000D03*
%TO.P,U3,12*%
X151620000Y-67620000D03*
%TO.P,U3,13,4Q*%
%TO.N,PULSE*%
X154160000Y-67620000D03*
%TO.P,U3,14,4~{R}*%
%TO.N,/2*%
X156700000Y-67620000D03*
%TO.P,U3,15,4~{S}*%
%TO.N,/4*%
X159240000Y-67620000D03*
%TO.P,U3,16,VCC*%
%TO.N,+5V*%
X161780000Y-67620000D03*
%TD*%
D16*
%TO.P,D4,1,K*%
%TO.N,Net-(D4-K)*%
X104500000Y-76500000D03*
D17*
%TO.P,D4,2,A*%
%TO.N,+5V*%
X104500000Y-73960000D03*
%TD*%
D24*
%TO.P,C2,1*%
%TO.N,+5V*%
X144044888Y-92750000D03*
D25*
%TO.P,C2,2*%
%TO.N,GND*%
X146544888Y-92750000D03*
%TD*%
D18*
%TO.P,R1,1*%
%TO.N,Net-(J5-In)*%
X147000000Y-84500000D03*
%TO.P,R1,2*%
%TO.N,/A0*%
X149000000Y-84500000D03*
%TD*%
%TO.P,R10,1*%
%TO.N,Net-(K1-Pad6)*%
X121300000Y-66350000D03*
%TO.P,R10,2*%
%TO.N,+5V*%
X123300000Y-66350000D03*
%TD*%
D13*
%TO.P,TP1,1,1*%
%TO.N,GND*%
X139000000Y-78000000D03*
%TD*%
D11*
%TO.P,R13,1*%
%TO.N,+5V*%
X149740000Y-55000000D03*
%TO.P,R13,2*%
%TO.N,Net-(U3B-2~{S})*%
X147740000Y-55000000D03*
%TD*%
D28*
%TO.P,C3,1*%
%TO.N,+5V*%
X123037500Y-80500000D03*
%TO.P,C3,2*%
%TO.N,GND*%
X120962500Y-80500000D03*
%TD*%
D18*
%TO.P,R16,1*%
%TO.N,Net-(Q2-B)*%
X136460000Y-64610000D03*
%TO.P,R16,2*%
%TO.N,PULSE*%
X138460000Y-64610000D03*
%TD*%
D13*
%TO.P,TP3,1,1*%
%TO.N,+5V*%
X121500000Y-97500000D03*
%TD*%
D29*
%TO.P,C5,1*%
%TO.N,+3V3*%
X112462500Y-54000000D03*
%TO.P,C5,2*%
%TO.N,COIL-*%
X114537500Y-54000000D03*
%TD*%
D14*
%TO.P,SW2,*%
%TO.N,*%
X93990000Y-46250000D03*
X93990000Y-39240000D03*
D15*
%TO.P,SW2,1,1*%
%TO.N,PULSE*%
X91500000Y-45000000D03*
%TO.P,SW2,2,2*%
%TO.N,Net-(R14-Pad2)*%
X91500000Y-40500000D03*
%TD*%
D18*
%TO.P,R9,1*%
%TO.N,Net-(J6-Ext)*%
X105000000Y-68500000D03*
%TO.P,R9,2*%
%TO.N,GND*%
X107000000Y-68500000D03*
%TD*%
D30*
%TO.P,Q3,1,C*%
%TO.N,Net-(Q2-B)*%
X132960000Y-61100000D03*
D31*
%TO.P,Q3,2,B*%
%TO.N,Net-(Q3-B)*%
X135500000Y-61100000D03*
%TO.P,Q3,3,E*%
%TO.N,GND*%
X138040000Y-61100000D03*
%TD*%
D11*
%TO.P,R5,1*%
%TO.N,/2*%
X128200000Y-73500000D03*
%TO.P,R5,2*%
%TO.N,GND*%
X126200000Y-73500000D03*
%TD*%
D30*
%TO.P,Q1,1,C*%
%TO.N,COIL-*%
X119760000Y-61100000D03*
D31*
%TO.P,Q1,2,B*%
%TO.N,Net-(Q1-B)*%
X122300000Y-61100000D03*
%TO.P,Q1,3,E*%
%TO.N,GND*%
X124840000Y-61100000D03*
%TD*%
D32*
%TO.P,R6,1*%
%TO.N,GND*%
X109000000Y-50000000D03*
%TO.P,R6,2*%
%TO.N,Net-(D5-K)*%
X109000000Y-52000000D03*
%TD*%
D30*
%TO.P,Q2,1,C*%
%TO.N,/~{RESET}*%
X128960000Y-63540000D03*
D31*
%TO.P,Q2,2,B*%
%TO.N,Net-(Q2-B)*%
X128960000Y-61000000D03*
%TO.P,Q2,3,E*%
%TO.N,GND*%
X128960000Y-58460000D03*
%TD*%
D32*
%TO.P,R2,1*%
%TO.N,Net-(J5-In)*%
X143500000Y-84500000D03*
%TO.P,R2,2*%
%TO.N,GND*%
X143500000Y-86500000D03*
%TD*%
D19*
%TO.P,J6,1,In*%
%TO.N,Net-(J6-In)*%
X98600000Y-66500000D03*
D20*
%TO.P,J6,2,Ext*%
%TO.N,Net-(J6-Ext)*%
X93520000Y-71580000D03*
D19*
X98600000Y-69040000D03*
D20*
X93520000Y-61420000D03*
%TD*%
D29*
%TO.P,C1,1*%
%TO.N,+5V*%
X161702500Y-70500000D03*
%TO.P,C1,2*%
%TO.N,GND*%
X163777500Y-70500000D03*
%TD*%
D33*
%TO.P,J1,8,Pin_8*%
%TO.N,VCC*%
X145720000Y-97460000D03*
%TO.P,J1,7,Pin_7*%
%TO.N,GND*%
X143180000Y-97460000D03*
%TO.P,J1,6,Pin_6*%
X140640000Y-97460000D03*
%TO.P,J1,5,Pin_5*%
%TO.N,+5V*%
X138100000Y-97460000D03*
%TO.P,J1,4,Pin_4*%
%TO.N,+3V3*%
X135560000Y-97460000D03*
%TO.P,J1,3,Pin_3*%
%TO.N,/~{RESET}*%
X133020000Y-97460000D03*
%TO.P,J1,2,Pin_2*%
%TO.N,/IOREF*%
X130480000Y-97460000D03*
D13*
%TO.P,J1,1,Pin_1*%
%TO.N,unconnected-(J1-Pin_1-Pad1)*%
X127940000Y-97460000D03*
%TD*%
%TO.P,J3,1,Pin_1*%
%TO.N,/A0*%
X150800000Y-97460000D03*
D33*
%TO.P,J3,2,Pin_2*%
%TO.N,/A1*%
X153340000Y-97460000D03*
%TO.P,J3,3,Pin_3*%
%TO.N,/A2*%
X155880000Y-97460000D03*
%TO.P,J3,4,Pin_4*%
%TO.N,/A3*%
X158420000Y-97460000D03*
%TO.P,J3,5,Pin_5*%
%TO.N,unconnected-(J3-Pin_5-Pad5)*%
X160960000Y-97460000D03*
%TO.P,J3,6,Pin_6*%
%TO.N,unconnected-(J3-Pin_6-Pad6)*%
X163500000Y-97460000D03*
%TD*%
D13*
%TO.P,J2,1,Pin_1*%
%TO.N,unconnected-(J2-Pin_1-Pad1)*%
X118800000Y-49200000D03*
D33*
%TO.P,J2,2,Pin_2*%
%TO.N,unconnected-(J2-Pin_2-Pad2)*%
X121340000Y-49200000D03*
%TO.P,J2,3,Pin_3*%
%TO.N,/AREF*%
X123880000Y-49200000D03*
%TO.P,J2,4,Pin_4*%
%TO.N,GND*%
X126420000Y-49200000D03*
%TO.P,J2,5,Pin_5*%
%TO.N,/13*%
X128960000Y-49200000D03*
%TO.P,J2,6,Pin_6*%
%TO.N,/12*%
X131500000Y-49200000D03*
%TO.P,J2,7,Pin_7*%
%TO.N,/\u002A11*%
X134040000Y-49200000D03*
%TO.P,J2,8,Pin_8*%
%TO.N,/\u002A10*%
X136580000Y-49200000D03*
%TO.P,J2,9,Pin_9*%
%TO.N,/\u002A9*%
X139120000Y-49200000D03*
%TO.P,J2,10,Pin_10*%
%TO.N,/8*%
X141660000Y-49200000D03*
%TD*%
D13*
%TO.P,J4,1,Pin_1*%
%TO.N,/7*%
X145700000Y-49200000D03*
D33*
%TO.P,J4,2,Pin_2*%
%TO.N,/\u002A6*%
X148240000Y-49200000D03*
%TO.P,J4,3,Pin_3*%
%TO.N,/\u002A5*%
X150780000Y-49200000D03*
%TO.P,J4,4,Pin_4*%
%TO.N,/4*%
X153320000Y-49200000D03*
%TO.P,J4,5,Pin_5*%
%TO.N,/\u002A3*%
X155860000Y-49200000D03*
%TO.P,J4,6,Pin_6*%
%TO.N,/2*%
X158400000Y-49200000D03*
%TO.P,J4,7,Pin_7*%
%TO.N,/TX{slash}1*%
X160940000Y-49200000D03*
%TO.P,J4,8,Pin_8*%
%TO.N,/RX{slash}0*%
X163480000Y-49200000D03*
%TD*%
D34*
%TO.N,GND*%
X124500000Y-73500000D03*
X111250000Y-76750000D03*
X123300000Y-53350000D03*
D35*
X108500000Y-93500000D03*
X119715000Y-80500000D03*
X155500000Y-79500000D03*
D34*
X107000000Y-50000000D03*
D35*
X145500000Y-86500000D03*
X108300498Y-68500000D03*
X165240000Y-70500000D03*
D34*
%TO.N,+5V*%
X134500000Y-66000000D03*
X151200000Y-55000000D03*
X124800000Y-66400000D03*
X124500000Y-76000000D03*
D35*
%TO.N,+3V3*%
X119250000Y-65000000D03*
%TO.N,Net-(J5-Ext)*%
X103500000Y-93500000D03*
%TO.N,Net-(J6-Ext)*%
X103500000Y-68500000D03*
%TD*%
D36*
%TO.N,GND*%
X107000000Y-97250000D02*
X107000000Y-93500000D01*
D37*
%TO.N,Net-(K1-Pad6)*%
X121200000Y-66450000D02*
X121300000Y-66350000D01*
X117000000Y-66450000D02*
X121200000Y-66450000D01*
D38*
%TO.N,+5V*%
X123037500Y-80500000D02*
X125880000Y-80500000D01*
X125880000Y-80500000D02*
X126000000Y-80380000D01*
D37*
%TO.N,Net-(D6-A)*%
X113750000Y-67250000D02*
X115150000Y-68650000D01*
X113750000Y-63750000D02*
X113750000Y-67250000D01*
X112250000Y-62250000D02*
X113750000Y-63750000D01*
X109000000Y-62250000D02*
X112250000Y-62250000D01*
X108250000Y-61500000D02*
X109000000Y-62250000D01*
X108250000Y-55000000D02*
X108250000Y-61500000D01*
X107300000Y-54050000D02*
X108250000Y-55000000D01*
X102550000Y-54050000D02*
X107300000Y-54050000D01*
X101000000Y-49000000D02*
X101000000Y-52500000D01*
X100000000Y-48000000D02*
X101000000Y-49000000D01*
X93735000Y-48000000D02*
X100000000Y-48000000D01*
X101000000Y-52500000D02*
X102550000Y-54050000D01*
X92000000Y-49735000D02*
X93735000Y-48000000D01*
X115150000Y-68650000D02*
X117000000Y-68650000D01*
%TO.N,PULSE*%
X106750000Y-58000000D02*
X106750000Y-61500000D01*
X108250000Y-63000000D02*
X111750000Y-63000000D01*
X112500000Y-63750000D02*
X112500000Y-68000000D01*
X106750000Y-61500000D02*
X108250000Y-63000000D01*
X111750000Y-63000000D02*
X112500000Y-63750000D01*
X104500000Y-56750000D02*
X105750000Y-58000000D01*
X105750000Y-58000000D02*
X106750000Y-58000000D01*
%TO.N,Net-(D3-A)*%
X105250000Y-56000000D02*
X106750000Y-56000000D01*
X103750000Y-55000000D02*
X104250000Y-55000000D01*
X104250000Y-55000000D02*
X105250000Y-56000000D01*
X103750000Y-55000000D02*
X97500000Y-55000000D01*
%TO.N,PULSE*%
X103750000Y-56000000D02*
X104500000Y-56750000D01*
%TO.N,Net-(D3-A)*%
X96500000Y-49760000D02*
X98000000Y-49760000D01*
X97500000Y-55000000D02*
X96000000Y-53500000D01*
X96000000Y-53500000D02*
X96000000Y-50260000D01*
X96000000Y-50260000D02*
X96500000Y-49760000D01*
%TO.N,PULSE*%
X92500000Y-56000000D02*
X103750000Y-56000000D01*
X90000000Y-53500000D02*
X92500000Y-56000000D01*
X90000000Y-46500000D02*
X90000000Y-53500000D01*
X91500000Y-45000000D02*
X90000000Y-46500000D01*
%TO.N,GND*%
X143500000Y-86500000D02*
X145500000Y-86500000D01*
D38*
X120992500Y-80500000D02*
X119715000Y-80500000D01*
D37*
X155500000Y-81200000D02*
X155500000Y-79500000D01*
X111250000Y-75250000D02*
X111250000Y-76750000D01*
D38*
X107000000Y-68500000D02*
X108300498Y-68500000D01*
D37*
X126200000Y-73500000D02*
X124500000Y-73500000D01*
D38*
X163777500Y-70500000D02*
X165240000Y-70500000D01*
D37*
X123300000Y-54850000D02*
X123300000Y-53350000D01*
D38*
X107000000Y-93500000D02*
X108500000Y-93500000D01*
D37*
X109000000Y-50000000D02*
X107000000Y-50000000D01*
D38*
%TO.N,+5V*%
X125915000Y-80780000D02*
X126325000Y-81190000D01*
D37*
X123300000Y-66350000D02*
X124750000Y-66350000D01*
D38*
X126185000Y-81000000D02*
X126200000Y-80985000D01*
D37*
X149740000Y-55000000D02*
X151200000Y-55000000D01*
X126325000Y-81190000D02*
X126000000Y-80865000D01*
X124750000Y-66350000D02*
X124800000Y-66400000D01*
D36*
X161780000Y-70422500D02*
X161702500Y-70500000D01*
D37*
X126000000Y-78000000D02*
X126000000Y-80380000D01*
D36*
X161780000Y-67620000D02*
X161780000Y-70422500D01*
D37*
X134460000Y-65960000D02*
X134500000Y-66000000D01*
X126200000Y-77800000D02*
X126000000Y-78000000D01*
D38*
X125995000Y-80780000D02*
X126200000Y-80985000D01*
D37*
X126200000Y-76000000D02*
X124500000Y-76000000D01*
X134460000Y-64610000D02*
X134460000Y-65960000D01*
X126200000Y-76000000D02*
X126200000Y-77800000D01*
%TO.N,/A0*%
X149000000Y-84500000D02*
X149050000Y-84550000D01*
X150800000Y-94700000D02*
X150800000Y-97460000D01*
X155450000Y-84550000D02*
X155500000Y-84500000D01*
X152500000Y-84550000D02*
X155450000Y-84550000D01*
X155500000Y-84500000D02*
X155500000Y-90000000D01*
X155500000Y-90000000D02*
X150800000Y-94700000D01*
X149050000Y-84550000D02*
X152500000Y-84550000D01*
%TO.N,/4*%
X159240000Y-67620000D02*
X159240000Y-65540000D01*
X162200000Y-55500000D02*
X155200000Y-55500000D01*
X160700000Y-64000000D02*
X163200000Y-64000000D01*
X164700000Y-58000000D02*
X162200000Y-55500000D01*
X163200000Y-64000000D02*
X164700000Y-62500000D01*
X155200000Y-55500000D02*
X153520000Y-53820000D01*
X153320000Y-49200000D02*
X153320000Y-53620000D01*
X159240000Y-65540000D02*
X159200000Y-65500000D01*
X164700000Y-62500000D02*
X164700000Y-58000000D01*
X153320000Y-53620000D02*
X153520000Y-53820000D01*
X159200000Y-65500000D02*
X160700000Y-64000000D01*
%TO.N,/2*%
X128200000Y-73500000D02*
X154700000Y-73500000D01*
X128200000Y-76000000D02*
X128200000Y-73500000D01*
X128200000Y-76000000D02*
X128200000Y-77660000D01*
X128540000Y-78000000D02*
X128540000Y-80380000D01*
X154700000Y-73500000D02*
X156700000Y-71500000D01*
X128200000Y-77660000D02*
X128540000Y-78000000D01*
X156700000Y-71500000D02*
X156700000Y-67620000D01*
D38*
%TO.N,+3V3*%
X111850000Y-57250000D02*
X111850000Y-56350000D01*
X112462500Y-55037500D02*
X112462500Y-54000000D01*
D37*
X149150000Y-87850000D02*
X148000000Y-89000000D01*
D38*
X118000000Y-62500000D02*
X119250000Y-63750000D01*
X111850000Y-55650000D02*
X112462500Y-55037500D01*
X115000000Y-62500000D02*
X118000000Y-62500000D01*
D37*
X148000000Y-89000000D02*
X148000000Y-93250000D01*
D38*
X111850000Y-56350000D02*
X111850000Y-55650000D01*
X110000000Y-59250000D02*
X110000000Y-61050000D01*
X119250000Y-63750000D02*
X119250000Y-65000000D01*
X111000000Y-57250000D02*
X111850000Y-57250000D01*
D37*
X148000000Y-93250000D02*
X146750000Y-94500000D01*
D38*
X110000000Y-59250000D02*
X110000000Y-58250000D01*
X113550000Y-61050000D02*
X115000000Y-62500000D01*
D37*
X146750000Y-94500000D02*
X136000000Y-94500000D01*
D38*
X110000000Y-58250000D02*
X111000000Y-57250000D01*
D37*
X136000000Y-94500000D02*
X135580000Y-94920000D01*
X135560000Y-94920000D02*
X135560000Y-97460000D01*
X135580000Y-94920000D02*
X135560000Y-94920000D01*
D38*
X110000000Y-61050000D02*
X113550000Y-61050000D01*
D37*
X152500000Y-87850000D02*
X149150000Y-87850000D01*
%TO.N,/~{RESET}*%
X128960000Y-63540000D02*
X129930000Y-63540000D01*
X129930000Y-63540000D02*
X131000000Y-64610000D01*
X131000000Y-64610000D02*
X132460000Y-64610000D01*
%TO.N,Net-(J5-In)*%
X131080000Y-85420000D02*
X132000000Y-84500000D01*
X131080000Y-90920000D02*
X130500000Y-91500000D01*
X131080000Y-88000000D02*
X131080000Y-85420000D01*
X143500000Y-84500000D02*
X147000000Y-84500000D01*
X130500000Y-91500000D02*
X98800000Y-91500000D01*
X131080000Y-88000000D02*
X131080000Y-90920000D01*
X132000000Y-84500000D02*
X143500000Y-84500000D01*
%TO.N,Net-(J6-In)*%
X98850000Y-66450000D02*
X98800000Y-66500000D01*
X110000000Y-66450000D02*
X98850000Y-66450000D01*
%TO.N,Net-(D4-K)*%
X109250000Y-75250000D02*
X107750000Y-75250000D01*
X107750000Y-75250000D02*
X106500000Y-76500000D01*
X106500000Y-76500000D02*
X104500000Y-76500000D01*
%TO.N,Net-(D5-K)*%
X109000000Y-52000000D02*
X107000000Y-52000000D01*
X106725000Y-52275000D02*
X104500000Y-52275000D01*
X107000000Y-52000000D02*
X106725000Y-52275000D01*
D38*
%TO.N,Net-(J5-Ext)*%
X105000000Y-93500000D02*
X103500000Y-93500000D01*
%TO.N,Net-(J6-Ext)*%
X105000000Y-68500000D02*
X103500000Y-68500000D01*
%TO.N,COIL-*%
X115150000Y-57250000D02*
X115150000Y-56350000D01*
X117000000Y-58000000D02*
X116250000Y-57250000D01*
X115150000Y-55650000D02*
X114537500Y-55037500D01*
X117000000Y-59250000D02*
X117000000Y-61050000D01*
X115150000Y-56350000D02*
X115150000Y-55650000D01*
X117000000Y-59250000D02*
X117000000Y-58000000D01*
X117000000Y-61050000D02*
X119710000Y-61050000D01*
X119710000Y-61050000D02*
X119760000Y-61100000D01*
X114537500Y-55037500D02*
X114537500Y-54000000D01*
X116250000Y-57250000D02*
X115150000Y-57250000D01*
D37*
%TO.N,PULSE*%
X112500000Y-68000000D02*
X111850000Y-68650000D01*
X112500000Y-68000000D02*
X115000000Y-70500000D01*
X111850000Y-68650000D02*
X110000000Y-68650000D01*
X138500000Y-70000000D02*
X153620000Y-70000000D01*
X153620000Y-70000000D02*
X154120000Y-69500000D01*
X138460000Y-69960000D02*
X138500000Y-70000000D01*
X154120000Y-69500000D02*
X154120000Y-67120000D01*
X138460000Y-64610000D02*
X138460000Y-69960000D01*
X115000000Y-70500000D02*
X138000000Y-70500000D01*
X138000000Y-70500000D02*
X138500000Y-70000000D01*
%TO.N,Net-(Q1-B)*%
X121300000Y-58850000D02*
X122300000Y-59850000D01*
X122300000Y-59850000D02*
X122300000Y-61100000D01*
X121300000Y-57350000D02*
X121300000Y-54850000D01*
X121300000Y-57350000D02*
X121300000Y-58850000D01*
%TO.N,Net-(Q2-B)*%
X132960000Y-62210000D02*
X132960000Y-61100000D01*
X133750000Y-63000000D02*
X132960000Y-62210000D01*
X136000000Y-63000000D02*
X133750000Y-63000000D01*
X132960000Y-61100000D02*
X129060000Y-61100000D01*
X129060000Y-61100000D02*
X128960000Y-61000000D01*
X136460000Y-63540000D02*
X136500000Y-63500000D01*
X136500000Y-63500000D02*
X136000000Y-63000000D01*
X136460000Y-64610000D02*
X136460000Y-63540000D01*
%TO.N,Net-(Q3-B)*%
X140960000Y-63110000D02*
X137500000Y-63110000D01*
X137500000Y-63110000D02*
X135500000Y-61110000D01*
%TO.N,ARM*%
X146540000Y-61960000D02*
X145750000Y-62750000D01*
X145750000Y-62750000D02*
X142600000Y-62750000D01*
X140960000Y-61110000D02*
X140960000Y-59210000D01*
X123300000Y-57350000D02*
X139100000Y-57350000D01*
X140960000Y-59210000D02*
X139100000Y-57350000D01*
X142600000Y-62750000D02*
X140960000Y-61110000D01*
X146540000Y-60000000D02*
X146540000Y-61960000D01*
%TO.N,Net-(U3B-2~{S})*%
X149080000Y-60000000D02*
X149080000Y-57880000D01*
X147740000Y-56540000D02*
X147740000Y-55000000D01*
X149080000Y-57880000D02*
X147740000Y-56540000D01*
X145240000Y-55000000D02*
X147740000Y-55000000D01*
%TO.N,Net-(R14-Pad2)*%
X107000000Y-48500000D02*
X100000000Y-41500000D01*
X110000000Y-48500000D02*
X107000000Y-48500000D01*
X138500000Y-52500000D02*
X114000000Y-52500000D01*
X92500000Y-41500000D02*
X93250000Y-41500000D01*
X100000000Y-41500000D02*
X94750000Y-41500000D01*
X143240000Y-55000000D02*
X141000000Y-55000000D01*
X94750000Y-41500000D02*
X93250000Y-41500000D01*
X141000000Y-55000000D02*
X138500000Y-52500000D01*
X91500000Y-40500000D02*
X92500000Y-41500000D01*
X114000000Y-52500000D02*
X110000000Y-48500000D01*
%TD*%
M02*
