M48
; DRILL file {KiCad 7.0.2} date Thu Oct 12 23:30:03 2023
; FORMAT={-:-/ absolute / metric / decimal}
; #@! TF.CreationDate,2023-10-12T23:30:03+02:00
; #@! TF.GenerationSoftware,Kicad,Pcbnew,7.0.2
; #@! TF.FileFunction,MixedPlating,1,4
FMAT,2
METRIC
; #@! TA.AperFunction,Plated,PTH,ViaDrill
T1C0.300
; #@! TA.AperFunction,Plated,PTH,ViaDrill
T2C0.400
; #@! TA.AperFunction,Plated,PTH,ComponentDrill
T3C0.800
; #@! TA.AperFunction,Plated,PTH,ComponentDrill
T4C0.890
; #@! TA.AperFunction,Plated,PTH,ComponentDrill
T5C0.900
; #@! TA.AperFunction,Plated,PTH,ComponentDrill
T6C0.990
; #@! TA.AperFunction,Plated,PTH,ComponentDrill
T7C1.000
; #@! TA.AperFunction,Plated,PTH,ComponentDrill
T8C1.300
; #@! TA.AperFunction,Plated,PTH,ComponentDrill
T9C2.010
; #@! TA.AperFunction,NonPlated,NPTH,ComponentDrill
T10C3.200
%
G90
G05
T1
X111.25Y-76.75
X134.5Y-66.0
T2
X103.5Y-68.5
X103.5Y-93.5
X107.0Y-50.0
X108.3Y-68.5
X108.5Y-93.5
X119.25Y-65.0
X119.715Y-80.5
X123.3Y-53.35
X124.5Y-73.5
X124.5Y-76.0
X124.8Y-66.4
X145.5Y-86.5
X151.2Y-55.0
X155.5Y-79.5
X165.24Y-70.5
T3
X119.76Y-61.1
X122.3Y-61.1
X124.84Y-61.1
X126.0Y-80.38
X126.0Y-88.0
X128.54Y-80.38
X128.54Y-88.0
X128.96Y-58.46
X128.96Y-61.0
X128.96Y-63.54
X131.08Y-80.38
X131.08Y-88.0
X132.96Y-61.1
X133.62Y-80.38
X133.62Y-88.0
X135.5Y-61.1
X138.04Y-61.1
X138.045Y-92.75
X140.545Y-92.75
X144.0Y-60.0
X144.0Y-67.62
X144.045Y-92.75
X146.54Y-60.0
X146.54Y-67.62
X146.545Y-92.75
X149.08Y-60.0
X149.08Y-67.62
X151.62Y-60.0
X151.62Y-67.62
X154.16Y-60.0
X154.16Y-67.62
X156.7Y-60.0
X156.7Y-67.62
X159.24Y-60.0
X159.24Y-67.62
X161.78Y-60.0
X161.78Y-67.62
T4
X98.6Y-66.5
X98.6Y-69.04
X98.6Y-91.5
X98.6Y-94.04
T5
X92.0Y-49.735
X92.0Y-52.275
X98.0Y-49.76
X98.0Y-52.3
X104.5Y-49.76
X104.5Y-52.3
X104.5Y-73.96
X104.5Y-76.5
T6
X90.212Y-76.775
X90.212Y-81.275
X91.5Y-40.5
X91.5Y-45.0
T7
X118.8Y-49.2
X121.34Y-49.2
X121.5Y-97.5
X123.88Y-49.2
X126.42Y-49.2
X127.94Y-97.46
X128.96Y-49.2
X130.48Y-97.46
X131.5Y-49.2
X133.02Y-97.46
X133.5Y-91.5
X134.0Y-76.0
X134.04Y-49.2
X135.56Y-97.46
X136.58Y-49.2
X138.1Y-97.46
X139.0Y-78.0
X139.12Y-49.2
X140.64Y-97.46
X141.66Y-49.2
X143.18Y-97.46
X145.7Y-49.2
X145.72Y-97.46
X148.24Y-49.2
X150.78Y-49.2
X150.8Y-97.46
X153.32Y-49.2
X153.34Y-97.46
X155.86Y-49.2
X155.88Y-97.46
X158.4Y-49.2
X158.42Y-97.46
X160.94Y-49.2
X160.96Y-97.46
X163.48Y-49.2
X163.5Y-97.46
T8
X92.703Y-75.515
X92.703Y-82.525
X93.99Y-39.24
X93.99Y-46.25
T9
X93.52Y-61.42
X93.52Y-71.58
X93.52Y-86.42
X93.52Y-96.58
T10
X113.97Y-97.46
X115.24Y-49.2
X166.04Y-64.44
X166.04Y-92.38
T0
M30
