%TF.GenerationSoftware,KiCad,Pcbnew,7.0.2*%
%TF.CreationDate,2023-08-08T17:25:24+02:00*%
%TF.ProjectId,pulse_generator,70756c73-655f-4676-956e-657261746f72,rev?*%
%TF.SameCoordinates,Original*%
%TF.FileFunction,Copper,L2,Inr*%
%TF.FilePolarity,Positive*%
%FSLAX46Y46*%
G04 Gerber Fmt 4.6, Leading zero omitted, Abs format (unit mm)*
G04 Created by KiCad (PCBNEW 7.0.2) date 2023-08-08 17:25:24*
%MOMM*%
%LPD*%
G01*
G04 APERTURE LIST*
%TA.AperFunction,ComponentPad*%
%ADD10R,1.700000X1.700000*%
%TD*%
%TA.AperFunction,ComponentPad*%
%ADD11O,1.700000X1.700000*%
%TD*%
%TA.AperFunction,ComponentPad*%
%ADD12R,2.000000X2.000000*%
%TD*%
%TA.AperFunction,ComponentPad*%
%ADD13C,2.100000*%
%TD*%
%TA.AperFunction,ComponentPad*%
%ADD14C,1.750000*%
%TD*%
%TA.AperFunction,ComponentPad*%
%ADD15R,1.800000X1.800000*%
%TD*%
%TA.AperFunction,ComponentPad*%
%ADD16C,1.800000*%
%TD*%
%TA.AperFunction,ComponentPad*%
%ADD17O,2.500000X1.600000*%
%TD*%
%TA.AperFunction,ComponentPad*%
%ADD18O,7.000000X3.500000*%
%TD*%
%TA.AperFunction,ComponentPad*%
%ADD19R,1.600000X2.400000*%
%TD*%
%TA.AperFunction,ComponentPad*%
%ADD20O,1.600000X2.400000*%
%TD*%
%TA.AperFunction,ViaPad*%
%ADD21C,0.600000*%
%TD*%
%TA.AperFunction,ViaPad*%
%ADD22C,0.800000*%
%TD*%
G04 APERTURE END LIST*
D10*
%TO.N,unconnected-(J1-Pin_1-Pad1)*%
%TO.C,J1*%
X127940000Y-97460000D03*
D11*
%TO.N,/IOREF*%
X130480000Y-97460000D03*
%TO.N,/~{RESET}*%
X133020000Y-97460000D03*
%TO.N,+3V3*%
X135560000Y-97460000D03*
%TO.N,+5V*%
X138100000Y-97460000D03*
%TO.N,GND*%
X140640000Y-97460000D03*
X143180000Y-97460000D03*
%TO.N,VCC*%
X145720000Y-97460000D03*
%TD*%
D10*
%TO.N,/A0*%
%TO.C,J3*%
X150800000Y-97460000D03*
D11*
%TO.N,/A1*%
X153340000Y-97460000D03*
%TO.N,/A2*%
X155880000Y-97460000D03*
%TO.N,/A3*%
X158420000Y-97460000D03*
%TO.N,unconnected-(J3-Pin_5-Pad5)*%
X160960000Y-97460000D03*
%TO.N,unconnected-(J3-Pin_6-Pad6)*%
X163500000Y-97460000D03*
%TD*%
D10*
%TO.N,unconnected-(J2-Pin_1-Pad1)*%
%TO.C,J2*%
X118800000Y-49200000D03*
D11*
%TO.N,unconnected-(J2-Pin_2-Pad2)*%
X121340000Y-49200000D03*
%TO.N,/AREF*%
X123880000Y-49200000D03*
%TO.N,GND*%
X126420000Y-49200000D03*
%TO.N,/13*%
X128960000Y-49200000D03*
%TO.N,/12*%
X131500000Y-49200000D03*
%TO.N,/\u002A11*%
X134040000Y-49200000D03*
%TO.N,/\u002A10*%
X136580000Y-49200000D03*
%TO.N,/\u002A9*%
X139120000Y-49200000D03*
%TO.N,/8*%
X141660000Y-49200000D03*
%TD*%
D10*
%TO.N,/7*%
%TO.C,J4*%
X145700000Y-49200000D03*
D11*
%TO.N,/\u002A6*%
X148240000Y-49200000D03*
%TO.N,/\u002A5*%
X150780000Y-49200000D03*
%TO.N,/4*%
X153320000Y-49200000D03*
%TO.N,/\u002A3*%
X155860000Y-49200000D03*
%TO.N,/2*%
X158400000Y-49200000D03*
%TO.N,/TX{slash}1*%
X160940000Y-49200000D03*
%TO.N,/RX{slash}0*%
X163480000Y-49200000D03*
%TD*%
D12*
%TO.N,/A0*%
%TO.C,TP2*%
X139000000Y-91500000D03*
%TD*%
D13*
%TO.N,*%
%TO.C,SW1*%
X92702500Y-82525000D03*
X92702500Y-75515000D03*
D14*
%TO.N,GND*%
X90212500Y-81275000D03*
%TO.N,/~{RESET}*%
X90212500Y-76775000D03*
%TD*%
D15*
%TO.N,GND*%
%TO.C,D3*%
X92000000Y-52300000D03*
D16*
%TO.N,Net-(D3-A)*%
X92000000Y-49760000D03*
%TD*%
D17*
%TO.N,Net-(J5-In)*%
%TO.C,J5*%
X99150000Y-91500000D03*
D18*
%TO.N,Net-(J5-Ext)*%
X94070000Y-96580000D03*
D17*
X99150000Y-94040000D03*
D18*
X94070000Y-86420000D03*
%TD*%
D19*
%TO.N,N/C*%
%TO.C,U2*%
X144000000Y-58000000D03*
D20*
X141460000Y-58000000D03*
X138920000Y-58000000D03*
X136380000Y-58000000D03*
X133840000Y-58000000D03*
X131300000Y-58000000D03*
X128760000Y-58000000D03*
%TO.N,GND*%
X126220000Y-58000000D03*
%TO.N,N/C*%
X126220000Y-65620000D03*
X128760000Y-65620000D03*
X131300000Y-65620000D03*
X133840000Y-65620000D03*
%TO.N,Net-(J6-In)*%
X136380000Y-65620000D03*
%TO.N,/4*%
X138920000Y-65620000D03*
%TO.N,/2*%
X141460000Y-65620000D03*
%TO.N,+5V*%
X144000000Y-65620000D03*
%TD*%
D19*
%TO.N,GND*%
%TO.C,U1*%
X126000000Y-88000000D03*
D20*
%TO.N,/A0*%
X128540000Y-88000000D03*
%TO.N,Net-(J5-In)*%
X131080000Y-88000000D03*
%TO.N,GND*%
X133620000Y-88000000D03*
%TO.N,unconnected-(U1-BAL-Pad5)*%
X133620000Y-80380000D03*
%TO.N,unconnected-(U1-STRB-Pad6)*%
X131080000Y-80380000D03*
%TO.N,/2*%
X128540000Y-80380000D03*
%TO.N,+5V*%
X126000000Y-80380000D03*
%TD*%
D12*
%TO.N,GND*%
%TO.C,TP1*%
X139000000Y-78000000D03*
%TD*%
D17*
%TO.N,Net-(J6-In)*%
%TO.C,J6*%
X99100000Y-66500000D03*
D18*
%TO.N,Net-(J6-Ext)*%
X94020000Y-71580000D03*
D17*
X99100000Y-69040000D03*
D18*
X94020000Y-61420000D03*
%TD*%
D21*
%TO.N,GND*%
X124000000Y-72000000D03*
X107000000Y-58500000D03*
D22*
X108500000Y-93500000D03*
X119715000Y-80000000D03*
X155500000Y-79500000D03*
X145500000Y-86500000D03*
D21*
X107000000Y-77500000D03*
D22*
X108500000Y-68500000D03*
X147500000Y-69000000D03*
D21*
%TO.N,+5V*%
X96500000Y-76000000D03*
X93000000Y-55000000D03*
D22*
%TO.N,Net-(J5-Ext)*%
X103500000Y-93500000D03*
%TO.N,Net-(J6-Ext)*%
X103500000Y-68500000D03*
%TD*%
%TA.AperFunction,Conductor*%
%TO.N,Net-(J5-Ext)*%
G36*
X90397881Y-85019685D02*
G01*
X90443636Y-85072489D01*
X90453580Y-85141647D01*
X90435361Y-85190722D01*
X90344672Y-85332783D01*
X90340703Y-85340026D01*
X90217389Y-85605761D01*
X90214416Y-85613480D01*
X90127621Y-85893281D01*
X90125705Y-85901320D01*
X90080384Y-86169999D01*
X90080385Y-86170000D01*
X93096589Y-86170000D01*
X93071466Y-86267030D01*
X93061114Y-86471165D01*
X93091574Y-86670000D01*
X90083793Y-86670000D01*
X90095960Y-86790951D01*
X90097337Y-86799112D01*
X90165248Y-87084080D01*
X90167699Y-87091981D01*
X90272987Y-87365354D01*
X90276467Y-87372855D01*
X90417254Y-87629758D01*
X90421707Y-87636733D01*
X90595476Y-87872574D01*
X90600821Y-87878896D01*
X90804474Y-88089472D01*
X90810609Y-88095020D01*
X91040518Y-88276578D01*
X91047328Y-88281253D01*
X91299393Y-88430551D01*
X91306769Y-88434278D01*
X91576482Y-88548647D01*
X91584286Y-88551357D01*
X91866820Y-88628751D01*
X91874942Y-88630402D01*
X92165278Y-88669448D01*
X92173521Y-88670000D01*
X93820000Y-88670000D01*
X93820000Y-87394625D01*
X93967801Y-87425000D01*
X94120967Y-87425000D01*
X94273348Y-87409504D01*
X94320000Y-87394867D01*
X94320000Y-88670000D01*
X95893146Y-88670000D01*
X95897306Y-88669860D01*
X96116434Y-88655191D01*
X96124627Y-88654089D01*
X96411701Y-88595739D01*
X96419690Y-88593551D01*
X96696429Y-88497457D01*
X96704041Y-88494229D01*
X96965501Y-88362107D01*
X96972618Y-88357893D01*
X97214144Y-88192094D01*
X97220632Y-88186970D01*
X97437898Y-87990464D01*
X97443648Y-87984519D01*
X97632786Y-87760806D01*
X97637692Y-87754148D01*
X97795327Y-87507216D01*
X97799296Y-87499973D01*
X97922610Y-87234238D01*
X97925583Y-87226519D01*
X98012378Y-86946718D01*
X98014294Y-86938679D01*
X98059615Y-86670000D01*
X95043411Y-86670000D01*
X95068534Y-86572970D01*
X95078886Y-86368835D01*
X95048426Y-86170000D01*
X98056207Y-86170000D01*
X98056207Y-86169999D01*
X98044039Y-86049048D01*
X98042662Y-86040887D01*
X97974751Y-85755919D01*
X97972300Y-85748018D01*
X97867012Y-85474645D01*
X97863532Y-85467144D01*
X97722745Y-85210241D01*
X97718295Y-85203271D01*
X97714084Y-85197556D01*
X97690164Y-85131908D01*
X97705534Y-85063750D01*
X97755312Y-85014720D01*
X97813912Y-85000000D01*
X99948638Y-85000000D01*
X100015677Y-85019685D01*
X100036319Y-85036319D01*
X100963681Y-85963681D01*
X100997166Y-86025004D01*
X101000000Y-86051362D01*
X101000000Y-90846807D01*
X100980315Y-90913846D01*
X100927511Y-90959601D01*
X100858353Y-90969545D01*
X100794797Y-90940520D01*
X100763618Y-90899212D01*
X100760449Y-90892416D01*
X100737523Y-90843251D01*
X100606198Y-90655700D01*
X100444300Y-90493802D01*
X100256749Y-90362477D01*
X100256746Y-90362476D01*
X100256744Y-90362474D01*
X100049246Y-90265717D01*
X100049243Y-90265716D01*
X99938665Y-90236086D01*
X99828084Y-90206456D01*
X99659827Y-90191736D01*
X99659822Y-90191735D01*
X99657127Y-90191500D01*
X98642873Y-90191500D01*
X98640178Y-90191735D01*
X98640172Y-90191736D01*
X98471915Y-90206456D01*
X98250753Y-90265717D01*
X98043255Y-90362474D01*
X97855696Y-90493805D01*
X97693805Y-90655696D01*
X97562474Y-90843255D01*
X97465717Y-91050753D01*
X97406456Y-91271915D01*
X97386501Y-91499999D01*
X97406456Y-91728084D01*
X97465717Y-91949246D01*
X97562474Y-92156744D01*
X97562476Y-92156746D01*
X97562477Y-92156749D01*
X97693802Y-92344300D01*
X97855700Y-92506198D01*
X98043251Y-92637523D01*
X98096401Y-92662307D01*
X98148839Y-92708477D01*
X98167992Y-92775670D01*
X98147777Y-92842552D01*
X98096403Y-92887069D01*
X98047520Y-92909864D01*
X97861180Y-93040341D01*
X97700341Y-93201180D01*
X97569865Y-93387519D01*
X97473733Y-93593673D01*
X97421128Y-93789999D01*
X97421128Y-93790000D01*
X98780497Y-93790000D01*
X98731083Y-93875587D01*
X98701232Y-94006370D01*
X98711257Y-94140140D01*
X98760266Y-94265013D01*
X98780193Y-94290000D01*
X97421128Y-94290000D01*
X97473733Y-94486326D01*
X97569865Y-94692480D01*
X97700341Y-94878819D01*
X97861180Y-95039658D01*
X98047519Y-95170134D01*
X98253673Y-95266266D01*
X98473397Y-95325141D01*
X98640535Y-95339763D01*
X98645946Y-95340000D01*
X98900000Y-95340000D01*
X98900000Y-94408137D01*
X98954741Y-94445459D01*
X99082927Y-94485000D01*
X99183346Y-94485000D01*
X99282647Y-94470033D01*
X99400000Y-94413518D01*
X99400000Y-95340000D01*
X99654054Y-95340000D01*
X99659464Y-95339763D01*
X99826602Y-95325141D01*
X100046326Y-95266266D01*
X100252480Y-95170134D01*
X100438819Y-95039658D01*
X100599658Y-94878819D01*
X100730134Y-94692480D01*
X100826266Y-94486326D01*
X100878872Y-94290000D01*
X99519503Y-94290000D01*
X99568917Y-94204413D01*
X99598768Y-94073630D01*
X99588743Y-93939860D01*
X99539734Y-93814987D01*
X99519807Y-93790000D01*
X100878872Y-93790000D01*
X100878871Y-93789999D01*
X100826266Y-93593673D01*
X100730134Y-93387519D01*
X100599658Y-93201180D01*
X100438819Y-93040341D01*
X100252482Y-92909866D01*
X100203597Y-92887070D01*
X100151158Y-92840897D01*
X100132007Y-92773703D01*
X100152223Y-92706822D01*
X100203595Y-92662308D01*
X100256749Y-92637523D01*
X100444300Y-92506198D01*
X100606198Y-92344300D01*
X100737523Y-92156749D01*
X100834284Y-91949243D01*
X100893543Y-91728087D01*
X100913498Y-91500000D01*
X100893543Y-91271913D01*
X100874824Y-91202053D01*
X100876487Y-91132206D01*
X100915649Y-91074343D01*
X100979877Y-91046838D01*
X101048779Y-91058424D01*
X101082280Y-91082280D01*
X102500000Y-92500000D01*
X104876000Y-92500000D01*
X104943039Y-92519685D01*
X104988794Y-92572489D01*
X105000000Y-92624000D01*
X105000000Y-94376000D01*
X104980315Y-94443039D01*
X104927511Y-94488794D01*
X104876000Y-94500000D01*
X102499999Y-94500000D01*
X101000000Y-95999999D01*
X101000000Y-99800500D01*
X100980315Y-99867539D01*
X100927511Y-99913294D01*
X100876000Y-99924500D01*
X86508126Y-99924500D01*
X86491941Y-99923439D01*
X86483318Y-99922303D01*
X86406316Y-99912166D01*
X86375050Y-99903788D01*
X86302832Y-99873875D01*
X86274800Y-99857691D01*
X86212782Y-99810103D01*
X86189896Y-99787217D01*
X86142307Y-99725197D01*
X86126124Y-99697167D01*
X86096211Y-99624949D01*
X86087833Y-99593682D01*
X86076561Y-99508059D01*
X86075500Y-99491874D01*
X86075500Y-96329999D01*
X90080384Y-96329999D01*
X90080385Y-96330000D01*
X93096589Y-96330000D01*
X93071466Y-96427030D01*
X93061114Y-96631165D01*
X93091574Y-96830000D01*
X90083793Y-96830000D01*
X90095960Y-96950951D01*
X90097337Y-96959112D01*
X90165248Y-97244080D01*
X90167699Y-97251981D01*
X90272987Y-97525354D01*
X90276467Y-97532855D01*
X90417254Y-97789758D01*
X90421707Y-97796733D01*
X90595476Y-98032574D01*
X90600821Y-98038896D01*
X90804474Y-98249472D01*
X90810609Y-98255020D01*
X91040518Y-98436578D01*
X91047328Y-98441253D01*
X91299393Y-98590551D01*
X91306769Y-98594278D01*
X91576482Y-98708647D01*
X91584286Y-98711357D01*
X91866820Y-98788751D01*
X91874942Y-98790402D01*
X92165278Y-98829448D01*
X92173521Y-98830000D01*
X93820000Y-98830000D01*
X93820000Y-97554625D01*
X93967801Y-97585000D01*
X94120967Y-97585000D01*
X94273348Y-97569504D01*
X94320000Y-97554867D01*
X94320000Y-98830000D01*
X95893146Y-98830000D01*
X95897306Y-98829860D01*
X96116434Y-98815191D01*
X96124627Y-98814089D01*
X96411701Y-98755739D01*
X96419690Y-98753551D01*
X96696429Y-98657457D01*
X96704041Y-98654229D01*
X96965501Y-98522107D01*
X96972618Y-98517893D01*
X97214144Y-98352094D01*
X97220632Y-98346970D01*
X97437898Y-98150464D01*
X97443648Y-98144519D01*
X97632786Y-97920806D01*
X97637692Y-97914148D01*
X97795327Y-97667216D01*
X97799296Y-97659973D01*
X97922610Y-97394238D01*
X97925583Y-97386519D01*
X98012378Y-97106718D01*
X98014294Y-97098679D01*
X98059615Y-96830000D01*
X95043411Y-96830000D01*
X95068534Y-96732970D01*
X95078886Y-96528835D01*
X95048426Y-96330000D01*
X98056207Y-96330000D01*
X98056207Y-96329999D01*
X98044039Y-96209048D01*
X98042662Y-96200887D01*
X97974751Y-95915919D01*
X97972300Y-95908018D01*
X97867012Y-95634645D01*
X97863532Y-95627144D01*
X97722745Y-95370241D01*
X97718292Y-95363266D01*
X97544523Y-95127425D01*
X97539178Y-95121103D01*
X97335525Y-94910527D01*
X97329390Y-94904979D01*
X97099481Y-94723421D01*
X97092671Y-94718746D01*
X96840606Y-94569448D01*
X96833230Y-94565721D01*
X96563517Y-94451352D01*
X96555713Y-94448642D01*
X96273179Y-94371248D01*
X96265057Y-94369597D01*
X95974721Y-94330551D01*
X95966479Y-94330000D01*
X94320000Y-94330000D01*
X94320000Y-95605374D01*
X94172199Y-95575000D01*
X94019033Y-95575000D01*
X93866652Y-95590496D01*
X93820000Y-95605132D01*
X93820000Y-94330000D01*
X92246854Y-94330000D01*
X92242693Y-94330139D01*
X92023565Y-94344808D01*
X92015372Y-94345910D01*
X91728298Y-94404260D01*
X91720309Y-94406448D01*
X91443570Y-94502542D01*
X91435958Y-94505770D01*
X91174498Y-94637892D01*
X91167381Y-94642106D01*
X90925855Y-94807905D01*
X90919367Y-94813029D01*
X90702101Y-95009535D01*
X90696351Y-95015480D01*
X90507213Y-95239193D01*
X90502307Y-95245851D01*
X90344672Y-95492783D01*
X90340703Y-95500026D01*
X90217389Y-95765761D01*
X90214416Y-95773480D01*
X90127621Y-96053281D01*
X90125705Y-96061320D01*
X90080384Y-96329999D01*
X86075500Y-96329999D01*
X86075500Y-85124000D01*
X86095185Y-85056961D01*
X86147989Y-85011206D01*
X86199500Y-85000000D01*
X90330842Y-85000000D01*
X90397881Y-85019685D01*
G37*
%TD.AperFunction*%
%TD*%
%TA.AperFunction,Conductor*%
%TO.N,Net-(J6-Ext)*%
G36*
X91715007Y-59019685D02*
G01*
X91760762Y-59072489D01*
X91770706Y-59141647D01*
X91741681Y-59205203D01*
X91682903Y-59242977D01*
X91680727Y-59243594D01*
X91670320Y-59246444D01*
X91393570Y-59342542D01*
X91385958Y-59345770D01*
X91124498Y-59477892D01*
X91117381Y-59482106D01*
X90875855Y-59647905D01*
X90869367Y-59653029D01*
X90652101Y-59849535D01*
X90646351Y-59855480D01*
X90457213Y-60079193D01*
X90452307Y-60085851D01*
X90294672Y-60332783D01*
X90290703Y-60340026D01*
X90167389Y-60605761D01*
X90164416Y-60613480D01*
X90077621Y-60893281D01*
X90075705Y-60901320D01*
X90030384Y-61169999D01*
X90030385Y-61170000D01*
X93046589Y-61170000D01*
X93021466Y-61267030D01*
X93011114Y-61471165D01*
X93041574Y-61670000D01*
X90033793Y-61670000D01*
X90045960Y-61790951D01*
X90047337Y-61799112D01*
X90115248Y-62084080D01*
X90117699Y-62091981D01*
X90222987Y-62365354D01*
X90226467Y-62372855D01*
X90367254Y-62629758D01*
X90371707Y-62636733D01*
X90545476Y-62872574D01*
X90550821Y-62878896D01*
X90754474Y-63089472D01*
X90760609Y-63095020D01*
X90990518Y-63276578D01*
X90997328Y-63281253D01*
X91249393Y-63430551D01*
X91256769Y-63434278D01*
X91526482Y-63548647D01*
X91534286Y-63551357D01*
X91816820Y-63628751D01*
X91824942Y-63630402D01*
X92115278Y-63669448D01*
X92123521Y-63670000D01*
X93770000Y-63670000D01*
X93770000Y-62394625D01*
X93917801Y-62425000D01*
X94070967Y-62425000D01*
X94223348Y-62409504D01*
X94270000Y-62394867D01*
X94270000Y-63670000D01*
X95843146Y-63670000D01*
X95847306Y-63669860D01*
X96066434Y-63655191D01*
X96074627Y-63654089D01*
X96361701Y-63595739D01*
X96369690Y-63593551D01*
X96646429Y-63497457D01*
X96654041Y-63494229D01*
X96915501Y-63362107D01*
X96922618Y-63357893D01*
X97164144Y-63192094D01*
X97170632Y-63186970D01*
X97387898Y-62990464D01*
X97393648Y-62984519D01*
X97582786Y-62760806D01*
X97587692Y-62754148D01*
X97745327Y-62507216D01*
X97749296Y-62499973D01*
X97872610Y-62234238D01*
X97875583Y-62226519D01*
X97962378Y-61946718D01*
X97964294Y-61938679D01*
X98009615Y-61670000D01*
X94993411Y-61670000D01*
X95018534Y-61572970D01*
X95028886Y-61368835D01*
X94998426Y-61170000D01*
X98006207Y-61170000D01*
X98006207Y-61169999D01*
X97994039Y-61049048D01*
X97992662Y-61040887D01*
X97924751Y-60755919D01*
X97922300Y-60748018D01*
X97817012Y-60474645D01*
X97813532Y-60467144D01*
X97672745Y-60210241D01*
X97668292Y-60203266D01*
X97494523Y-59967425D01*
X97489178Y-59961103D01*
X97285525Y-59750527D01*
X97279390Y-59744979D01*
X97049481Y-59563421D01*
X97042671Y-59558746D01*
X96790606Y-59409448D01*
X96783230Y-59405721D01*
X96513517Y-59291352D01*
X96505713Y-59288642D01*
X96341259Y-59243594D01*
X96281802Y-59206897D01*
X96251623Y-59143881D01*
X96260304Y-59074553D01*
X96305089Y-59020924D01*
X96371759Y-59000021D01*
X96374019Y-59000000D01*
X99948638Y-59000000D01*
X100015677Y-59019685D01*
X100036319Y-59036319D01*
X100963680Y-59963680D01*
X100997165Y-60025003D01*
X100999999Y-60051361D01*
X101000000Y-65954033D01*
X100987859Y-65995378D01*
X101013978Y-66013977D01*
X102500000Y-67500000D01*
X104876000Y-67500000D01*
X104943039Y-67519685D01*
X104988794Y-67572489D01*
X105000000Y-67624000D01*
X105000000Y-69376000D01*
X104980315Y-69443039D01*
X104927511Y-69488794D01*
X104876000Y-69500000D01*
X102499999Y-69500000D01*
X101000000Y-70999999D01*
X101000000Y-72876000D01*
X100980315Y-72943039D01*
X100927511Y-72988794D01*
X100876000Y-73000000D01*
X97759158Y-73000000D01*
X97692119Y-72980315D01*
X97646364Y-72927511D01*
X97636420Y-72858353D01*
X97654639Y-72809278D01*
X97745327Y-72667216D01*
X97749296Y-72659973D01*
X97872610Y-72394238D01*
X97875583Y-72386519D01*
X97962378Y-72106718D01*
X97964294Y-72098679D01*
X98009615Y-71830000D01*
X94993411Y-71830000D01*
X95018534Y-71732970D01*
X95028886Y-71528835D01*
X94998426Y-71330000D01*
X98006207Y-71330000D01*
X98006207Y-71329999D01*
X97994039Y-71209048D01*
X97992662Y-71200887D01*
X97924751Y-70915919D01*
X97922300Y-70908018D01*
X97817012Y-70634645D01*
X97813532Y-70627144D01*
X97672745Y-70370241D01*
X97668292Y-70363266D01*
X97494523Y-70127425D01*
X97489178Y-70121103D01*
X97285525Y-69910527D01*
X97279390Y-69904979D01*
X97049481Y-69723421D01*
X97042671Y-69718746D01*
X96790606Y-69569448D01*
X96783230Y-69565721D01*
X96513517Y-69451352D01*
X96505713Y-69448642D01*
X96223179Y-69371248D01*
X96215057Y-69369597D01*
X95924721Y-69330551D01*
X95916479Y-69330000D01*
X94270000Y-69330000D01*
X94270000Y-70605374D01*
X94122199Y-70575000D01*
X93969033Y-70575000D01*
X93816652Y-70590496D01*
X93770000Y-70605132D01*
X93770000Y-69330000D01*
X92196854Y-69330000D01*
X92192693Y-69330139D01*
X91973565Y-69344808D01*
X91965372Y-69345910D01*
X91678298Y-69404260D01*
X91670309Y-69406448D01*
X91393570Y-69502542D01*
X91385958Y-69505770D01*
X91124498Y-69637892D01*
X91117381Y-69642106D01*
X90875855Y-69807905D01*
X90869367Y-69813029D01*
X90652101Y-70009535D01*
X90646351Y-70015480D01*
X90457213Y-70239193D01*
X90452307Y-70245851D01*
X90294672Y-70492783D01*
X90290703Y-70500026D01*
X90167389Y-70765761D01*
X90164416Y-70773480D01*
X90077621Y-71053281D01*
X90075705Y-71061320D01*
X90030384Y-71329999D01*
X90030385Y-71330000D01*
X93046589Y-71330000D01*
X93021466Y-71427030D01*
X93011114Y-71631165D01*
X93041574Y-71830000D01*
X90033793Y-71830000D01*
X90045960Y-71950951D01*
X90047337Y-71959112D01*
X90115248Y-72244080D01*
X90117699Y-72251981D01*
X90222987Y-72525354D01*
X90226467Y-72532855D01*
X90367254Y-72789758D01*
X90371704Y-72796728D01*
X90375916Y-72802444D01*
X90399836Y-72868092D01*
X90384466Y-72936250D01*
X90334688Y-72985280D01*
X90276088Y-73000000D01*
X86199500Y-73000000D01*
X86132461Y-72980315D01*
X86086706Y-72927511D01*
X86075500Y-72876000D01*
X86075500Y-66499999D01*
X97336501Y-66499999D01*
X97356456Y-66728084D01*
X97415717Y-66949246D01*
X97512474Y-67156744D01*
X97512476Y-67156746D01*
X97512477Y-67156749D01*
X97643802Y-67344300D01*
X97805700Y-67506198D01*
X97993251Y-67637523D01*
X98046401Y-67662307D01*
X98098839Y-67708477D01*
X98117992Y-67775670D01*
X98097777Y-67842552D01*
X98046403Y-67887069D01*
X97997520Y-67909864D01*
X97811180Y-68040341D01*
X97650341Y-68201180D01*
X97519865Y-68387519D01*
X97423733Y-68593673D01*
X97371128Y-68789999D01*
X97371128Y-68790000D01*
X98730497Y-68790000D01*
X98681083Y-68875587D01*
X98651232Y-69006370D01*
X98661257Y-69140140D01*
X98710266Y-69265013D01*
X98730193Y-69290000D01*
X97371128Y-69290000D01*
X97423733Y-69486326D01*
X97519865Y-69692480D01*
X97650341Y-69878819D01*
X97811180Y-70039658D01*
X97997519Y-70170134D01*
X98203673Y-70266266D01*
X98423397Y-70325141D01*
X98590535Y-70339763D01*
X98595946Y-70340000D01*
X98850000Y-70340000D01*
X98849999Y-69408137D01*
X98904741Y-69445459D01*
X99032927Y-69485000D01*
X99133346Y-69485000D01*
X99232647Y-69470033D01*
X99350000Y-69413518D01*
X99350000Y-70340000D01*
X99604054Y-70340000D01*
X99609464Y-70339763D01*
X99776602Y-70325141D01*
X99996326Y-70266266D01*
X100202480Y-70170134D01*
X100388819Y-70039658D01*
X100549658Y-69878819D01*
X100680134Y-69692480D01*
X100776266Y-69486326D01*
X100828872Y-69290000D01*
X99469503Y-69290000D01*
X99518917Y-69204413D01*
X99548768Y-69073630D01*
X99538743Y-68939860D01*
X99489734Y-68814987D01*
X99469807Y-68790000D01*
X100828872Y-68790000D01*
X100828871Y-68789999D01*
X100776266Y-68593673D01*
X100680134Y-68387519D01*
X100549658Y-68201180D01*
X100388819Y-68040341D01*
X100202482Y-67909866D01*
X100153597Y-67887070D01*
X100101158Y-67840897D01*
X100082007Y-67773703D01*
X100102223Y-67706822D01*
X100153595Y-67662308D01*
X100206749Y-67637523D01*
X100394300Y-67506198D01*
X100556198Y-67344300D01*
X100687523Y-67156749D01*
X100784284Y-66949243D01*
X100843543Y-66728087D01*
X100863498Y-66500000D01*
X100843543Y-66271913D01*
X100806522Y-66133750D01*
X100808185Y-66063904D01*
X100813377Y-66056231D01*
X100794797Y-66047746D01*
X100763618Y-66006438D01*
X100739181Y-65954033D01*
X100687523Y-65843251D01*
X100556198Y-65655700D01*
X100394300Y-65493802D01*
X100206749Y-65362477D01*
X100206746Y-65362476D01*
X100206744Y-65362474D01*
X99999246Y-65265717D01*
X99999243Y-65265716D01*
X99888664Y-65236086D01*
X99778084Y-65206456D01*
X99609827Y-65191736D01*
X99609822Y-65191735D01*
X99607127Y-65191500D01*
X98592873Y-65191500D01*
X98590178Y-65191735D01*
X98590172Y-65191736D01*
X98421915Y-65206456D01*
X98200753Y-65265717D01*
X97993255Y-65362474D01*
X97805696Y-65493805D01*
X97643805Y-65655696D01*
X97512474Y-65843255D01*
X97415717Y-66050753D01*
X97356456Y-66271915D01*
X97336501Y-66499999D01*
X86075500Y-66499999D01*
X86075500Y-59124000D01*
X86095185Y-59056961D01*
X86147989Y-59011206D01*
X86199500Y-59000000D01*
X91647968Y-59000000D01*
X91715007Y-59019685D01*
G37*
%TD.AperFunction*%
%TD*%
%TA.AperFunction,Conductor*%
%TO.N,GND*%
G36*
X142720507Y-97250156D02*
G01*
X142680000Y-97388111D01*
X142680000Y-97531889D01*
X142720507Y-97669844D01*
X142746314Y-97710000D01*
X141073686Y-97710000D01*
X141099493Y-97669844D01*
X141140000Y-97531889D01*
X141140000Y-97388111D01*
X141099493Y-97250156D01*
X141073686Y-97210000D01*
X142746314Y-97210000D01*
X142720507Y-97250156D01*
G37*
%TD.AperFunction*%
%TA.AperFunction,Conductor*%
G36*
X163485329Y-47095185D02*
G01*
X163505273Y-47111126D01*
X164147891Y-47743624D01*
X164181861Y-47804679D01*
X164177430Y-47874408D01*
X164136004Y-47930672D01*
X164070735Y-47955608D01*
X164020645Y-47949279D01*
X163814636Y-47878556D01*
X163592569Y-47841500D01*
X163367431Y-47841500D01*
X163145363Y-47878556D01*
X162932427Y-47951657D01*
X162734424Y-48058811D01*
X162556760Y-48197094D01*
X162404279Y-48362730D01*
X162313809Y-48501205D01*
X162260662Y-48546561D01*
X162191431Y-48555985D01*
X162128095Y-48526483D01*
X162106191Y-48501205D01*
X162083002Y-48465712D01*
X162015722Y-48362732D01*
X161863240Y-48197094D01*
X161685576Y-48058811D01*
X161487574Y-47951658D01*
X161487573Y-47951657D01*
X161487572Y-47951657D01*
X161274636Y-47878556D01*
X161052569Y-47841500D01*
X160827431Y-47841500D01*
X160605363Y-47878556D01*
X160392427Y-47951657D01*
X160194424Y-48058811D01*
X160016760Y-48197094D01*
X159864279Y-48362730D01*
X159773809Y-48501205D01*
X159720662Y-48546561D01*
X159651431Y-48555985D01*
X159588095Y-48526483D01*
X159566191Y-48501205D01*
X159543002Y-48465712D01*
X159475722Y-48362732D01*
X159323240Y-48197094D01*
X159145576Y-48058811D01*
X158947574Y-47951658D01*
X158947573Y-47951657D01*
X158947572Y-47951657D01*
X158734636Y-47878556D01*
X158512569Y-47841500D01*
X158287431Y-47841500D01*
X158065363Y-47878556D01*
X157852427Y-47951657D01*
X157654424Y-48058811D01*
X157476760Y-48197094D01*
X157324279Y-48362730D01*
X157233809Y-48501205D01*
X157180662Y-48546561D01*
X157111431Y-48555985D01*
X157048095Y-48526483D01*
X157026191Y-48501205D01*
X157003002Y-48465712D01*
X156935722Y-48362732D01*
X156783240Y-48197094D01*
X156605576Y-48058811D01*
X156407574Y-47951658D01*
X156407573Y-47951657D01*
X156407572Y-47951657D01*
X156194636Y-47878556D01*
X155972569Y-47841500D01*
X155747431Y-47841500D01*
X155525363Y-47878556D01*
X155312427Y-47951657D01*
X155114424Y-48058811D01*
X154936760Y-48197094D01*
X154784279Y-48362730D01*
X154693809Y-48501205D01*
X154640662Y-48546561D01*
X154571431Y-48555985D01*
X154508095Y-48526483D01*
X154486191Y-48501205D01*
X154463002Y-48465712D01*
X154395722Y-48362732D01*
X154243240Y-48197094D01*
X154065576Y-48058811D01*
X153867574Y-47951658D01*
X153867573Y-47951657D01*
X153867572Y-47951657D01*
X153654636Y-47878556D01*
X153432569Y-47841500D01*
X153207431Y-47841500D01*
X152985363Y-47878556D01*
X152772427Y-47951657D01*
X152574424Y-48058811D01*
X152396760Y-48197094D01*
X152244279Y-48362730D01*
X152153809Y-48501205D01*
X152100662Y-48546561D01*
X152031431Y-48555985D01*
X151968095Y-48526483D01*
X151946191Y-48501205D01*
X151923002Y-48465712D01*
X151855722Y-48362732D01*
X151703240Y-48197094D01*
X151525576Y-48058811D01*
X151327574Y-47951658D01*
X151327573Y-47951657D01*
X151327572Y-47951657D01*
X151114636Y-47878556D01*
X150892569Y-47841500D01*
X150667431Y-47841500D01*
X150445363Y-47878556D01*
X150232427Y-47951657D01*
X150034424Y-48058811D01*
X149856760Y-48197094D01*
X149704279Y-48362730D01*
X149613809Y-48501205D01*
X149560662Y-48546561D01*
X149491431Y-48555985D01*
X149428095Y-48526483D01*
X149406191Y-48501205D01*
X149383002Y-48465712D01*
X149315722Y-48362732D01*
X149163240Y-48197094D01*
X148985576Y-48058811D01*
X148787574Y-47951658D01*
X148787573Y-47951657D01*
X148787572Y-47951657D01*
X148574636Y-47878556D01*
X148352569Y-47841500D01*
X148127431Y-47841500D01*
X147905363Y-47878556D01*
X147692427Y-47951657D01*
X147494424Y-48058811D01*
X147316759Y-48197094D01*
X147253548Y-48265759D01*
X147193660Y-48301749D01*
X147123822Y-48299648D01*
X147066207Y-48260123D01*
X147046138Y-48225110D01*
X147021427Y-48158861D01*
X147000889Y-48103796D01*
X146942951Y-48026400D01*
X146913261Y-47986738D01*
X146796203Y-47899110D01*
X146659205Y-47848011D01*
X146601924Y-47841853D01*
X146601918Y-47841852D01*
X146598638Y-47841500D01*
X144801362Y-47841500D01*
X144798082Y-47841852D01*
X144798075Y-47841853D01*
X144740794Y-47848011D01*
X144603796Y-47899110D01*
X144486738Y-47986738D01*
X144399110Y-48103796D01*
X144348011Y-48240794D01*
X144341853Y-48298075D01*
X144341500Y-48301362D01*
X144341500Y-50098638D01*
X144341852Y-50101918D01*
X144341853Y-50101924D01*
X144348011Y-50159205D01*
X144399110Y-50296203D01*
X144486738Y-50413261D01*
X144603796Y-50500889D01*
X144740794Y-50551988D01*
X144740797Y-50551988D01*
X144740799Y-50551989D01*
X144801362Y-50558500D01*
X144804672Y-50558500D01*
X146595328Y-50558500D01*
X146598638Y-50558500D01*
X146659201Y-50551989D01*
X146659203Y-50551988D01*
X146659205Y-50551988D01*
X146741097Y-50521443D01*
X146796204Y-50500889D01*
X146913261Y-50413261D01*
X147000889Y-50296204D01*
X147046137Y-50174889D01*
X147088009Y-50118956D01*
X147153474Y-50094540D01*
X147221747Y-50109392D01*
X147253548Y-50134241D01*
X147290969Y-50174890D01*
X147316760Y-50202906D01*
X147494424Y-50341189D01*
X147692426Y-50448342D01*
X147905365Y-50521444D01*
X148127431Y-50558500D01*
X148352569Y-50558500D01*
X148574635Y-50521444D01*
X148787574Y-50448342D01*
X148985576Y-50341189D01*
X149163240Y-50202906D01*
X149315722Y-50037268D01*
X149406190Y-49898795D01*
X149459337Y-49853438D01*
X149528569Y-49844014D01*
X149591905Y-49873516D01*
X149613809Y-49898795D01*
X149675108Y-49992621D01*
X149704278Y-50037268D01*
X149856760Y-50202906D01*
X150034424Y-50341189D01*
X150232426Y-50448342D01*
X150445365Y-50521444D01*
X150667431Y-50558500D01*
X150892569Y-50558500D01*
X151114635Y-50521444D01*
X151327574Y-50448342D01*
X151525576Y-50341189D01*
X151703240Y-50202906D01*
X151855722Y-50037268D01*
X151946190Y-49898795D01*
X151999337Y-49853438D01*
X152068569Y-49844014D01*
X152131905Y-49873516D01*
X152153809Y-49898795D01*
X152215108Y-49992621D01*
X152244278Y-50037268D01*
X152396760Y-50202906D01*
X152574424Y-50341189D01*
X152772426Y-50448342D01*
X152985365Y-50521444D01*
X153207431Y-50558500D01*
X153432569Y-50558500D01*
X153654635Y-50521444D01*
X153867574Y-50448342D01*
X154065576Y-50341189D01*
X154243240Y-50202906D01*
X154395722Y-50037268D01*
X154486191Y-49898793D01*
X154539336Y-49853438D01*
X154608567Y-49844014D01*
X154671903Y-49873515D01*
X154693807Y-49898794D01*
X154784275Y-50037265D01*
X154784277Y-50037267D01*
X154784278Y-50037268D01*
X154936760Y-50202906D01*
X155114424Y-50341189D01*
X155312426Y-50448342D01*
X155525365Y-50521444D01*
X155747431Y-50558500D01*
X155972569Y-50558500D01*
X156194635Y-50521444D01*
X156407574Y-50448342D01*
X156605576Y-50341189D01*
X156783240Y-50202906D01*
X156935722Y-50037268D01*
X157026190Y-49898795D01*
X157079337Y-49853438D01*
X157148569Y-49844014D01*
X157211905Y-49873516D01*
X157233809Y-49898795D01*
X157295108Y-49992621D01*
X157324278Y-50037268D01*
X157476760Y-50202906D01*
X157654424Y-50341189D01*
X157852426Y-50448342D01*
X158065365Y-50521444D01*
X158287431Y-50558500D01*
X158512569Y-50558500D01*
X158734635Y-50521444D01*
X158947574Y-50448342D01*
X159145576Y-50341189D01*
X159323240Y-50202906D01*
X159475722Y-50037268D01*
X159566190Y-49898795D01*
X159619337Y-49853438D01*
X159688569Y-49844014D01*
X159751905Y-49873516D01*
X159773809Y-49898795D01*
X159835108Y-49992621D01*
X159864278Y-50037268D01*
X160016760Y-50202906D01*
X160194424Y-50341189D01*
X160392426Y-50448342D01*
X160605365Y-50521444D01*
X160827431Y-50558500D01*
X161052569Y-50558500D01*
X161274635Y-50521444D01*
X161487574Y-50448342D01*
X161685576Y-50341189D01*
X161863240Y-50202906D01*
X162015722Y-50037268D01*
X162106190Y-49898795D01*
X162159337Y-49853438D01*
X162228569Y-49844014D01*
X162291905Y-49873516D01*
X162313809Y-49898795D01*
X162375108Y-49992621D01*
X162404278Y-50037268D01*
X162556760Y-50202906D01*
X162734424Y-50341189D01*
X162932426Y-50448342D01*
X163145365Y-50521444D01*
X163367431Y-50558500D01*
X163592569Y-50558500D01*
X163814635Y-50521444D01*
X164027574Y-50448342D01*
X164225576Y-50341189D01*
X164403240Y-50202906D01*
X164555722Y-50037268D01*
X164678860Y-49848791D01*
X164769296Y-49642616D01*
X164824564Y-49424368D01*
X164843156Y-49200000D01*
X164824564Y-48975632D01*
X164769296Y-48757384D01*
X164717906Y-48640227D01*
X164709004Y-48570928D01*
X164738982Y-48507816D01*
X164798321Y-48470929D01*
X164868183Y-48471980D01*
X164918446Y-48502044D01*
X165058841Y-48640228D01*
X165927484Y-49495191D01*
X165961453Y-49556244D01*
X165964500Y-49583563D01*
X165964500Y-59315019D01*
X165961963Y-59334292D01*
X165964028Y-59357896D01*
X165964500Y-59368702D01*
X165964500Y-59381116D01*
X165967075Y-59392733D01*
X165967182Y-59393956D01*
X165971651Y-59403541D01*
X165978451Y-59411644D01*
X165978452Y-59411645D01*
X165979500Y-59412250D01*
X166005185Y-59431958D01*
X168468182Y-61894955D01*
X168501666Y-61956276D01*
X168504500Y-61982634D01*
X168504500Y-96107363D01*
X168484815Y-96174402D01*
X168468181Y-96195044D01*
X166018418Y-98644806D01*
X166003001Y-98656636D01*
X165987760Y-98674799D01*
X165980463Y-98682762D01*
X165971683Y-98691542D01*
X165965290Y-98701577D01*
X165964501Y-98702516D01*
X165960881Y-98712463D01*
X165959960Y-98722998D01*
X165960274Y-98724169D01*
X165964500Y-98756265D01*
X165964500Y-99231907D01*
X165963903Y-99244062D01*
X165952505Y-99359778D01*
X165947763Y-99383618D01*
X165917832Y-99482290D01*
X165915789Y-99489024D01*
X165906486Y-99511482D01*
X165854561Y-99608627D01*
X165841056Y-99628839D01*
X165771176Y-99713988D01*
X165753988Y-99731176D01*
X165668839Y-99801056D01*
X165648627Y-99814561D01*
X165551482Y-99866486D01*
X165529028Y-99875787D01*
X165487028Y-99888528D01*
X165423618Y-99907763D01*
X165399778Y-99912505D01*
X165291162Y-99923203D01*
X165284060Y-99923903D01*
X165271907Y-99924500D01*
X102124000Y-99924500D01*
X102056961Y-99904815D01*
X102011206Y-99852011D01*
X102000000Y-99800500D01*
X102000000Y-98358638D01*
X126581500Y-98358638D01*
X126581852Y-98361918D01*
X126581853Y-98361924D01*
X126588011Y-98419205D01*
X126639110Y-98556203D01*
X126726738Y-98673261D01*
X126843796Y-98760889D01*
X126980794Y-98811988D01*
X126980797Y-98811988D01*
X126980799Y-98811989D01*
X127041362Y-98818500D01*
X127044672Y-98818500D01*
X128835328Y-98818500D01*
X128838638Y-98818500D01*
X128899201Y-98811989D01*
X128899203Y-98811988D01*
X128899205Y-98811988D01*
X128981097Y-98781443D01*
X129036204Y-98760889D01*
X129153261Y-98673261D01*
X129240889Y-98556204D01*
X129286137Y-98434889D01*
X129328009Y-98378956D01*
X129393474Y-98354540D01*
X129461747Y-98369392D01*
X129493548Y-98394241D01*
X129530969Y-98434890D01*
X129556760Y-98462906D01*
X129734424Y-98601189D01*
X129932426Y-98708342D01*
X130145365Y-98781444D01*
X130367431Y-98818500D01*
X130592569Y-98818500D01*
X130814635Y-98781444D01*
X131027574Y-98708342D01*
X131225576Y-98601189D01*
X131403240Y-98462906D01*
X131555722Y-98297268D01*
X131646190Y-98158795D01*
X131699337Y-98113438D01*
X131768569Y-98104014D01*
X131831905Y-98133516D01*
X131853809Y-98158795D01*
X131944278Y-98297268D01*
X132096760Y-98462906D01*
X132274424Y-98601189D01*
X132472426Y-98708342D01*
X132685365Y-98781444D01*
X132907431Y-98818500D01*
X133132569Y-98818500D01*
X133354635Y-98781444D01*
X133567574Y-98708342D01*
X133765576Y-98601189D01*
X133943240Y-98462906D01*
X134095722Y-98297268D01*
X134186190Y-98158795D01*
X134239337Y-98113438D01*
X134308569Y-98104014D01*
X134371905Y-98133516D01*
X134393809Y-98158795D01*
X134484278Y-98297268D01*
X134636760Y-98462906D01*
X134814424Y-98601189D01*
X135012426Y-98708342D01*
X135225365Y-98781444D01*
X135447431Y-98818500D01*
X135672569Y-98818500D01*
X135894635Y-98781444D01*
X136107574Y-98708342D01*
X136305576Y-98601189D01*
X136483240Y-98462906D01*
X136635722Y-98297268D01*
X136726190Y-98158795D01*
X136779337Y-98113438D01*
X136848569Y-98104014D01*
X136911905Y-98133516D01*
X136933809Y-98158795D01*
X137024278Y-98297268D01*
X137176760Y-98462906D01*
X137354424Y-98601189D01*
X137552426Y-98708342D01*
X137765365Y-98781444D01*
X137987431Y-98818500D01*
X138212569Y-98818500D01*
X138434635Y-98781444D01*
X138647574Y-98708342D01*
X138845576Y-98601189D01*
X139023240Y-98462906D01*
X139175722Y-98297268D01*
X139269748Y-98153349D01*
X139322893Y-98107994D01*
X139392124Y-98098570D01*
X139455460Y-98128072D01*
X139475131Y-98150048D01*
X139601892Y-98331080D01*
X139768918Y-98498106D01*
X139962423Y-98633600D01*
X140176509Y-98733430D01*
X140390000Y-98790634D01*
X140390000Y-97895501D01*
X140497685Y-97944680D01*
X140604237Y-97960000D01*
X140675763Y-97960000D01*
X140782315Y-97944680D01*
X140890000Y-97895501D01*
X140890000Y-98790633D01*
X141103490Y-98733430D01*
X141317576Y-98633600D01*
X141511081Y-98498106D01*
X141678106Y-98331081D01*
X141808425Y-98144968D01*
X141863002Y-98101344D01*
X141932501Y-98094151D01*
X141994855Y-98125673D01*
X142011575Y-98144968D01*
X142141893Y-98331081D01*
X142308918Y-98498106D01*
X142502423Y-98633600D01*
X142716509Y-98733430D01*
X142930000Y-98790634D01*
X142930000Y-97895501D01*
X143037685Y-97944680D01*
X143144237Y-97960000D01*
X143215763Y-97960000D01*
X143322315Y-97944680D01*
X143430000Y-97895501D01*
X143430000Y-98790633D01*
X143643490Y-98733430D01*
X143857576Y-98633600D01*
X144051081Y-98498106D01*
X144218106Y-98331081D01*
X144344868Y-98150048D01*
X144399445Y-98106424D01*
X144468944Y-98099231D01*
X144531298Y-98130753D01*
X144550252Y-98153351D01*
X144644276Y-98297267D01*
X144710673Y-98369392D01*
X144796760Y-98462906D01*
X144974424Y-98601189D01*
X145172426Y-98708342D01*
X145385365Y-98781444D01*
X145607431Y-98818500D01*
X145832569Y-98818500D01*
X146054635Y-98781444D01*
X146267574Y-98708342D01*
X146465576Y-98601189D01*
X146643240Y-98462906D01*
X146739226Y-98358638D01*
X149441500Y-98358638D01*
X149441852Y-98361918D01*
X149441853Y-98361924D01*
X149448011Y-98419205D01*
X149499110Y-98556203D01*
X149586738Y-98673261D01*
X149703796Y-98760889D01*
X149840794Y-98811988D01*
X149840797Y-98811988D01*
X149840799Y-98811989D01*
X149901362Y-98818500D01*
X149904672Y-98818500D01*
X151695328Y-98818500D01*
X151698638Y-98818500D01*
X151759201Y-98811989D01*
X151759203Y-98811988D01*
X151759205Y-98811988D01*
X151841097Y-98781443D01*
X151896204Y-98760889D01*
X152013261Y-98673261D01*
X152100889Y-98556204D01*
X152146137Y-98434889D01*
X152188009Y-98378956D01*
X152253474Y-98354540D01*
X152321747Y-98369392D01*
X152353548Y-98394241D01*
X152390969Y-98434890D01*
X152416760Y-98462906D01*
X152594424Y-98601189D01*
X152792426Y-98708342D01*
X153005365Y-98781444D01*
X153227431Y-98818500D01*
X153452569Y-98818500D01*
X153674635Y-98781444D01*
X153887574Y-98708342D01*
X154085576Y-98601189D01*
X154263240Y-98462906D01*
X154415722Y-98297268D01*
X154506190Y-98158795D01*
X154559337Y-98113438D01*
X154628569Y-98104014D01*
X154691905Y-98133516D01*
X154713809Y-98158795D01*
X154804278Y-98297268D01*
X154956760Y-98462906D01*
X155134424Y-98601189D01*
X155332426Y-98708342D01*
X155545365Y-98781444D01*
X155767431Y-98818500D01*
X155992569Y-98818500D01*
X156214635Y-98781444D01*
X156427574Y-98708342D01*
X156625576Y-98601189D01*
X156803240Y-98462906D01*
X156955722Y-98297268D01*
X157046190Y-98158795D01*
X157099337Y-98113438D01*
X157168569Y-98104014D01*
X157231905Y-98133516D01*
X157253809Y-98158795D01*
X157344278Y-98297268D01*
X157496760Y-98462906D01*
X157674424Y-98601189D01*
X157872426Y-98708342D01*
X158085365Y-98781444D01*
X158307431Y-98818500D01*
X158532569Y-98818500D01*
X158754635Y-98781444D01*
X158967574Y-98708342D01*
X159165576Y-98601189D01*
X159343240Y-98462906D01*
X159495722Y-98297268D01*
X159586190Y-98158795D01*
X159639337Y-98113438D01*
X159708569Y-98104014D01*
X159771905Y-98133516D01*
X159793809Y-98158795D01*
X159884278Y-98297268D01*
X160036760Y-98462906D01*
X160214424Y-98601189D01*
X160412426Y-98708342D01*
X160625365Y-98781444D01*
X160847431Y-98818500D01*
X161072569Y-98818500D01*
X161294635Y-98781444D01*
X161507574Y-98708342D01*
X161705576Y-98601189D01*
X161883240Y-98462906D01*
X162035722Y-98297268D01*
X162126190Y-98158795D01*
X162179337Y-98113438D01*
X162248569Y-98104014D01*
X162311905Y-98133516D01*
X162333809Y-98158795D01*
X162424278Y-98297268D01*
X162576760Y-98462906D01*
X162754424Y-98601189D01*
X162952426Y-98708342D01*
X163165365Y-98781444D01*
X163387431Y-98818500D01*
X163612569Y-98818500D01*
X163834635Y-98781444D01*
X164047574Y-98708342D01*
X164245576Y-98601189D01*
X164423240Y-98462906D01*
X164575722Y-98297268D01*
X164698860Y-98108791D01*
X164789296Y-97902616D01*
X164844564Y-97684368D01*
X164863156Y-97460000D01*
X164844564Y-97235632D01*
X164789296Y-97017384D01*
X164698860Y-96811209D01*
X164575722Y-96622732D01*
X164423240Y-96457094D01*
X164245576Y-96318811D01*
X164047574Y-96211658D01*
X164047573Y-96211657D01*
X164047572Y-96211657D01*
X163834636Y-96138556D01*
X163612569Y-96101500D01*
X163387431Y-96101500D01*
X163165363Y-96138556D01*
X162952427Y-96211657D01*
X162754424Y-96318811D01*
X162576760Y-96457094D01*
X162424279Y-96622730D01*
X162333809Y-96761205D01*
X162280662Y-96806561D01*
X162211431Y-96815985D01*
X162148095Y-96786483D01*
X162126191Y-96761205D01*
X162035723Y-96622734D01*
X162035722Y-96622732D01*
X161883240Y-96457094D01*
X161705576Y-96318811D01*
X161507574Y-96211658D01*
X161507573Y-96211657D01*
X161507572Y-96211657D01*
X161294636Y-96138556D01*
X161072569Y-96101500D01*
X160847431Y-96101500D01*
X160625363Y-96138556D01*
X160412427Y-96211657D01*
X160214424Y-96318811D01*
X160036760Y-96457094D01*
X159884279Y-96622730D01*
X159793809Y-96761205D01*
X159740662Y-96806561D01*
X159671431Y-96815985D01*
X159608095Y-96786483D01*
X159586191Y-96761205D01*
X159495723Y-96622734D01*
X159495722Y-96622732D01*
X159343240Y-96457094D01*
X159165576Y-96318811D01*
X158967574Y-96211658D01*
X158967573Y-96211657D01*
X158967572Y-96211657D01*
X158754636Y-96138556D01*
X158532569Y-96101500D01*
X158307431Y-96101500D01*
X158085363Y-96138556D01*
X157872427Y-96211657D01*
X157674424Y-96318811D01*
X157496760Y-96457094D01*
X157344279Y-96622730D01*
X157253809Y-96761205D01*
X157200662Y-96806561D01*
X157131431Y-96815985D01*
X157068095Y-96786483D01*
X157046191Y-96761205D01*
X156955723Y-96622734D01*
X156955722Y-96622732D01*
X156803240Y-96457094D01*
X156625576Y-96318811D01*
X156427574Y-96211658D01*
X156427573Y-96211657D01*
X156427572Y-96211657D01*
X156214636Y-96138556D01*
X155992569Y-96101500D01*
X155767431Y-96101500D01*
X155545363Y-96138556D01*
X155332427Y-96211657D01*
X155134424Y-96318811D01*
X154956760Y-96457094D01*
X154804279Y-96622730D01*
X154713809Y-96761205D01*
X154660662Y-96806561D01*
X154591431Y-96815985D01*
X154528095Y-96786483D01*
X154506191Y-96761205D01*
X154415723Y-96622734D01*
X154415722Y-96622732D01*
X154263240Y-96457094D01*
X154085576Y-96318811D01*
X153887574Y-96211658D01*
X153887573Y-96211657D01*
X153887572Y-96211657D01*
X153674636Y-96138556D01*
X153452569Y-96101500D01*
X153227431Y-96101500D01*
X153005363Y-96138556D01*
X152792427Y-96211657D01*
X152594424Y-96318811D01*
X152416759Y-96457094D01*
X152353548Y-96525759D01*
X152293660Y-96561749D01*
X152223822Y-96559648D01*
X152166207Y-96520123D01*
X152146138Y-96485110D01*
X152121427Y-96418861D01*
X152100889Y-96363796D01*
X152042951Y-96286400D01*
X152013261Y-96246738D01*
X151896203Y-96159110D01*
X151759205Y-96108011D01*
X151701924Y-96101853D01*
X151701918Y-96101852D01*
X151698638Y-96101500D01*
X149901362Y-96101500D01*
X149898082Y-96101852D01*
X149898075Y-96101853D01*
X149840794Y-96108011D01*
X149703796Y-96159110D01*
X149586738Y-96246738D01*
X149499110Y-96363796D01*
X149448011Y-96500794D01*
X149441853Y-96558075D01*
X149441500Y-96561362D01*
X149441500Y-98358638D01*
X146739226Y-98358638D01*
X146795722Y-98297268D01*
X146918860Y-98108791D01*
X147009296Y-97902616D01*
X147064564Y-97684368D01*
X147083156Y-97460000D01*
X147064564Y-97235632D01*
X147009296Y-97017384D01*
X146918860Y-96811209D01*
X146795722Y-96622732D01*
X146643240Y-96457094D01*
X146465576Y-96318811D01*
X146267574Y-96211658D01*
X146267573Y-96211657D01*
X146267572Y-96211657D01*
X146054636Y-96138556D01*
X145832569Y-96101500D01*
X145607431Y-96101500D01*
X145385363Y-96138556D01*
X145172427Y-96211657D01*
X144974424Y-96318811D01*
X144796760Y-96457094D01*
X144644275Y-96622734D01*
X144550250Y-96766650D01*
X144497104Y-96812006D01*
X144427873Y-96821430D01*
X144364537Y-96791928D01*
X144344867Y-96769951D01*
X144218109Y-96588921D01*
X144051081Y-96421893D01*
X143857576Y-96286399D01*
X143643492Y-96186569D01*
X143430000Y-96129364D01*
X143430000Y-97024498D01*
X143322315Y-96975320D01*
X143215763Y-96960000D01*
X143144237Y-96960000D01*
X143037685Y-96975320D01*
X142930000Y-97024498D01*
X142930000Y-96129364D01*
X142929999Y-96129364D01*
X142716507Y-96186569D01*
X142502421Y-96286400D01*
X142308921Y-96421890D01*
X142141893Y-96588918D01*
X142011575Y-96775032D01*
X141956998Y-96818656D01*
X141887499Y-96825849D01*
X141825145Y-96794327D01*
X141808425Y-96775032D01*
X141678106Y-96588918D01*
X141511081Y-96421893D01*
X141317576Y-96286399D01*
X141103492Y-96186569D01*
X140890000Y-96129364D01*
X140890000Y-97024498D01*
X140782315Y-96975320D01*
X140675763Y-96960000D01*
X140604237Y-96960000D01*
X140497685Y-96975320D01*
X140390000Y-97024498D01*
X140390000Y-96129364D01*
X140389999Y-96129364D01*
X140176507Y-96186569D01*
X139962421Y-96286400D01*
X139768921Y-96421890D01*
X139601893Y-96588918D01*
X139475132Y-96769952D01*
X139420555Y-96813576D01*
X139351056Y-96820769D01*
X139288702Y-96789247D01*
X139269748Y-96766649D01*
X139175723Y-96622732D01*
X139081263Y-96520123D01*
X139023240Y-96457094D01*
X138845576Y-96318811D01*
X138647574Y-96211658D01*
X138647573Y-96211657D01*
X138647572Y-96211657D01*
X138434636Y-96138556D01*
X138212569Y-96101500D01*
X137987431Y-96101500D01*
X137765363Y-96138556D01*
X137552427Y-96211657D01*
X137354424Y-96318811D01*
X137176760Y-96457094D01*
X137024279Y-96622730D01*
X136933809Y-96761205D01*
X136880662Y-96806561D01*
X136811431Y-96815985D01*
X136748095Y-96786483D01*
X136726191Y-96761205D01*
X136635723Y-96622734D01*
X136635722Y-96622732D01*
X136483240Y-96457094D01*
X136305576Y-96318811D01*
X136107574Y-96211658D01*
X136107573Y-96211657D01*
X136107572Y-96211657D01*
X135894636Y-96138556D01*
X135672569Y-96101500D01*
X135447431Y-96101500D01*
X135225363Y-96138556D01*
X135012427Y-96211657D01*
X134814424Y-96318811D01*
X134636760Y-96457094D01*
X134484279Y-96622730D01*
X134393809Y-96761205D01*
X134340662Y-96806561D01*
X134271431Y-96815985D01*
X134208095Y-96786483D01*
X134186191Y-96761205D01*
X134095723Y-96622734D01*
X134095722Y-96622732D01*
X133943240Y-96457094D01*
X133765576Y-96318811D01*
X133567574Y-96211658D01*
X133567573Y-96211657D01*
X133567572Y-96211657D01*
X133354636Y-96138556D01*
X133132569Y-96101500D01*
X132907431Y-96101500D01*
X132685363Y-96138556D01*
X132472427Y-96211657D01*
X132274424Y-96318811D01*
X132096760Y-96457094D01*
X131944279Y-96622730D01*
X131853809Y-96761205D01*
X131800662Y-96806561D01*
X131731431Y-96815985D01*
X131668095Y-96786483D01*
X131646191Y-96761205D01*
X131555723Y-96622734D01*
X131555722Y-96622732D01*
X131403240Y-96457094D01*
X131225576Y-96318811D01*
X131027574Y-96211658D01*
X131027573Y-96211657D01*
X131027572Y-96211657D01*
X130814636Y-96138556D01*
X130592569Y-96101500D01*
X130367431Y-96101500D01*
X130145363Y-96138556D01*
X129932427Y-96211657D01*
X129734424Y-96318811D01*
X129556759Y-96457094D01*
X129493548Y-96525759D01*
X129433660Y-96561749D01*
X129363822Y-96559648D01*
X129306207Y-96520123D01*
X129286138Y-96485110D01*
X129261427Y-96418861D01*
X129240889Y-96363796D01*
X129182951Y-96286400D01*
X129153261Y-96246738D01*
X129036203Y-96159110D01*
X128899205Y-96108011D01*
X128841924Y-96101853D01*
X128841918Y-96101852D01*
X128838638Y-96101500D01*
X127041362Y-96101500D01*
X127038082Y-96101852D01*
X127038075Y-96101853D01*
X126980794Y-96108011D01*
X126843796Y-96159110D01*
X126726738Y-96246738D01*
X126639110Y-96363796D01*
X126588011Y-96500794D01*
X126581853Y-96558075D01*
X126581500Y-96561362D01*
X126581500Y-98358638D01*
X102000000Y-98358638D01*
X102000000Y-96051362D01*
X102019685Y-95984323D01*
X102036319Y-95963681D01*
X102950181Y-95049819D01*
X103011504Y-95016334D01*
X103037862Y-95013500D01*
X104872676Y-95013500D01*
X104876000Y-95013500D01*
X104985157Y-95001764D01*
X104986428Y-95001487D01*
X105004911Y-95000000D01*
X107000000Y-95000000D01*
X107000000Y-92548638D01*
X137491500Y-92548638D01*
X137491852Y-92551918D01*
X137491853Y-92551924D01*
X137498011Y-92609205D01*
X137549110Y-92746203D01*
X137636738Y-92863261D01*
X137753796Y-92950889D01*
X137890794Y-93001988D01*
X137890797Y-93001988D01*
X137890799Y-93001989D01*
X137951362Y-93008500D01*
X137954672Y-93008500D01*
X140045328Y-93008500D01*
X140048638Y-93008500D01*
X140109201Y-93001989D01*
X140109203Y-93001988D01*
X140109205Y-93001988D01*
X140187124Y-92972924D01*
X140246204Y-92950889D01*
X140363261Y-92863261D01*
X140450889Y-92746204D01*
X140472924Y-92687124D01*
X140501988Y-92609205D01*
X140501988Y-92609203D01*
X140501989Y-92609201D01*
X140508500Y-92548638D01*
X140508500Y-90451362D01*
X140501989Y-90390799D01*
X140501988Y-90390797D01*
X140501988Y-90390794D01*
X140450889Y-90253796D01*
X140363261Y-90136738D01*
X140246203Y-90049110D01*
X140109205Y-89998011D01*
X140051924Y-89991853D01*
X140051918Y-89991852D01*
X140048638Y-89991500D01*
X137951362Y-89991500D01*
X137948082Y-89991852D01*
X137948075Y-89991853D01*
X137890794Y-89998011D01*
X137753796Y-90049110D01*
X137636738Y-90136738D01*
X137549110Y-90253796D01*
X137498011Y-90390794D01*
X137491853Y-90448075D01*
X137491500Y-90451362D01*
X137491500Y-92548638D01*
X107000000Y-92548638D01*
X107000000Y-92000000D01*
X104978765Y-92000000D01*
X104961119Y-91998738D01*
X104876000Y-91986500D01*
X103037862Y-91986500D01*
X102970823Y-91966815D01*
X102950181Y-91950181D01*
X102950180Y-91950180D01*
X102036316Y-91036316D01*
X102002833Y-90974996D01*
X102000000Y-90948647D01*
X102000000Y-89244518D01*
X124700000Y-89244518D01*
X124700354Y-89251132D01*
X124706400Y-89307371D01*
X124756647Y-89442089D01*
X124842811Y-89557188D01*
X124957910Y-89643352D01*
X125092628Y-89693599D01*
X125148867Y-89699645D01*
X125155482Y-89700000D01*
X125750000Y-89700000D01*
X125749999Y-88315685D01*
X125761955Y-88327641D01*
X125874852Y-88385165D01*
X125968519Y-88400000D01*
X126031481Y-88400000D01*
X126125148Y-88385165D01*
X126238045Y-88327641D01*
X126250000Y-88315686D01*
X126250000Y-89700000D01*
X126844518Y-89700000D01*
X126851132Y-89699645D01*
X126907371Y-89693599D01*
X127042089Y-89643352D01*
X127157188Y-89557188D01*
X127243352Y-89442089D01*
X127293597Y-89307375D01*
X127296124Y-89283873D01*
X127322861Y-89219321D01*
X127380252Y-89179472D01*
X127450077Y-89176976D01*
X127510167Y-89212627D01*
X127520987Y-89225999D01*
X127533802Y-89244300D01*
X127695700Y-89406198D01*
X127883251Y-89537523D01*
X128090757Y-89634284D01*
X128311913Y-89693543D01*
X128540000Y-89713498D01*
X128768087Y-89693543D01*
X128989243Y-89634284D01*
X129196749Y-89537523D01*
X129384300Y-89406198D01*
X129546198Y-89244300D01*
X129677523Y-89056749D01*
X129697617Y-89013655D01*
X129743790Y-88961215D01*
X129810983Y-88942063D01*
X129877864Y-88962278D01*
X129922382Y-89013655D01*
X129942477Y-89056749D01*
X130073802Y-89244300D01*
X130235700Y-89406198D01*
X130423251Y-89537523D01*
X130630757Y-89634284D01*
X130851913Y-89693543D01*
X131003970Y-89706846D01*
X131079999Y-89713498D01*
X131079999Y-89713497D01*
X131080000Y-89713498D01*
X131308087Y-89693543D01*
X131529243Y-89634284D01*
X131736749Y-89537523D01*
X131924300Y-89406198D01*
X132086198Y-89244300D01*
X132217523Y-89056749D01*
X132242308Y-89003596D01*
X132288476Y-88951160D01*
X132355669Y-88932007D01*
X132422551Y-88952221D01*
X132467070Y-89003597D01*
X132489866Y-89052482D01*
X132620341Y-89238819D01*
X132781180Y-89399658D01*
X132967519Y-89530134D01*
X133173673Y-89626266D01*
X133369999Y-89678871D01*
X133370000Y-89678871D01*
X133370000Y-88315686D01*
X133381955Y-88327641D01*
X133494852Y-88385165D01*
X133588519Y-88400000D01*
X133651481Y-88400000D01*
X133745148Y-88385165D01*
X133858045Y-88327641D01*
X133870000Y-88315686D01*
X133870000Y-89678871D01*
X134066326Y-89626266D01*
X134272480Y-89530134D01*
X134458819Y-89399658D01*
X134619658Y-89238819D01*
X134750134Y-89052480D01*
X134846266Y-88846326D01*
X134905141Y-88626602D01*
X134919763Y-88459464D01*
X134920000Y-88454053D01*
X134920000Y-88250000D01*
X133935686Y-88250000D01*
X133947641Y-88238045D01*
X134005165Y-88125148D01*
X134024986Y-88000000D01*
X134005165Y-87874852D01*
X133947641Y-87761955D01*
X133935686Y-87750000D01*
X134920000Y-87750000D01*
X134920000Y-87545946D01*
X134919763Y-87540535D01*
X134905141Y-87373397D01*
X134846266Y-87153673D01*
X134750134Y-86947519D01*
X134619658Y-86761180D01*
X134458819Y-86600341D01*
X134272480Y-86469865D01*
X134066326Y-86373733D01*
X133870000Y-86321126D01*
X133870000Y-87684314D01*
X133858045Y-87672359D01*
X133745148Y-87614835D01*
X133651481Y-87600000D01*
X133588519Y-87600000D01*
X133494852Y-87614835D01*
X133381955Y-87672359D01*
X133370000Y-87684314D01*
X133370000Y-86321127D01*
X133369999Y-86321126D01*
X133173673Y-86373733D01*
X132967519Y-86469865D01*
X132781180Y-86600341D01*
X132620341Y-86761180D01*
X132489864Y-86947520D01*
X132467069Y-86996403D01*
X132420896Y-87048841D01*
X132353702Y-87067992D01*
X132286821Y-87047775D01*
X132242307Y-86996401D01*
X132217523Y-86943251D01*
X132086198Y-86755700D01*
X131924300Y-86593802D01*
X131736749Y-86462477D01*
X131736746Y-86462476D01*
X131736744Y-86462474D01*
X131529246Y-86365717D01*
X131529243Y-86365716D01*
X131362832Y-86321126D01*
X131308084Y-86306456D01*
X131079999Y-86286501D01*
X130851915Y-86306456D01*
X130630753Y-86365717D01*
X130423255Y-86462474D01*
X130235696Y-86593805D01*
X130073805Y-86755696D01*
X130073802Y-86755699D01*
X130073802Y-86755700D01*
X130047481Y-86793290D01*
X129942475Y-86943254D01*
X129922380Y-86986347D01*
X129876207Y-87038785D01*
X129809013Y-87057936D01*
X129742132Y-87037719D01*
X129697618Y-86986345D01*
X129677523Y-86943251D01*
X129546198Y-86755700D01*
X129384300Y-86593802D01*
X129196749Y-86462477D01*
X129196746Y-86462476D01*
X129196744Y-86462474D01*
X128989246Y-86365717D01*
X128989243Y-86365716D01*
X128822832Y-86321126D01*
X128768084Y-86306456D01*
X128540000Y-86286501D01*
X128311915Y-86306456D01*
X128090753Y-86365717D01*
X127883255Y-86462474D01*
X127695696Y-86593805D01*
X127533800Y-86755701D01*
X127520986Y-86774001D01*
X127466408Y-86817624D01*
X127396909Y-86824815D01*
X127334555Y-86793290D01*
X127299144Y-86733059D01*
X127296124Y-86716126D01*
X127293597Y-86692624D01*
X127243352Y-86557910D01*
X127157188Y-86442811D01*
X127042089Y-86356647D01*
X126907371Y-86306400D01*
X126851132Y-86300354D01*
X126844518Y-86300000D01*
X126250000Y-86300000D01*
X126250000Y-87684314D01*
X126238045Y-87672359D01*
X126125148Y-87614835D01*
X126031481Y-87600000D01*
X125968519Y-87600000D01*
X125874852Y-87614835D01*
X125761955Y-87672359D01*
X125749999Y-87684314D01*
X125750000Y-86300000D01*
X125155482Y-86300000D01*
X125148867Y-86300354D01*
X125092628Y-86306400D01*
X124957910Y-86356647D01*
X124842811Y-86442811D01*
X124756647Y-86557910D01*
X124706400Y-86692628D01*
X124700354Y-86748867D01*
X124700000Y-86755481D01*
X124700000Y-87750000D01*
X125684314Y-87750000D01*
X125672359Y-87761955D01*
X125614835Y-87874852D01*
X125595014Y-88000000D01*
X125614835Y-88125148D01*
X125672359Y-88238045D01*
X125684314Y-88250000D01*
X124700000Y-88250000D01*
X124700000Y-89244518D01*
X102000000Y-89244518D01*
X102000000Y-85000000D01*
X101000000Y-84000000D01*
X93711344Y-84000000D01*
X93644305Y-83980315D01*
X93598550Y-83927511D01*
X93588606Y-83858353D01*
X93617631Y-83794797D01*
X93630812Y-83781710D01*
X93639179Y-83774562D01*
X93807933Y-83630433D01*
X93967252Y-83443896D01*
X94095427Y-83234732D01*
X94189305Y-83008092D01*
X94246572Y-82769557D01*
X94265819Y-82525000D01*
X94246572Y-82280443D01*
X94189305Y-82041908D01*
X94095427Y-81815268D01*
X93967252Y-81606104D01*
X93807933Y-81419567D01*
X93621396Y-81260248D01*
X93412232Y-81132073D01*
X93325024Y-81095950D01*
X93185592Y-81038194D01*
X92947058Y-80980928D01*
X92824778Y-80971304D01*
X92702500Y-80961681D01*
X92702499Y-80961681D01*
X92457941Y-80980928D01*
X92219407Y-81038194D01*
X91992767Y-81132073D01*
X91992768Y-81132073D01*
X91875671Y-81203830D01*
X91775282Y-81265348D01*
X91773797Y-81262926D01*
X91724064Y-81285207D01*
X91654979Y-81274765D01*
X91602506Y-81228631D01*
X91583725Y-81172584D01*
X91573394Y-81047907D01*
X91520017Y-80837127D01*
X124691500Y-80837127D01*
X124691735Y-80839822D01*
X124691736Y-80839827D01*
X124706456Y-81008084D01*
X124765717Y-81229246D01*
X124862474Y-81436744D01*
X124862475Y-81436745D01*
X124862477Y-81436749D01*
X124993802Y-81624300D01*
X125155700Y-81786198D01*
X125343251Y-81917523D01*
X125550757Y-82014284D01*
X125771913Y-82073543D01*
X126000000Y-82093498D01*
X126228087Y-82073543D01*
X126449243Y-82014284D01*
X126656749Y-81917523D01*
X126844300Y-81786198D01*
X127006198Y-81624300D01*
X127137523Y-81436749D01*
X127157617Y-81393655D01*
X127203790Y-81341215D01*
X127270983Y-81322063D01*
X127337864Y-81342278D01*
X127382382Y-81393655D01*
X127402477Y-81436749D01*
X127533802Y-81624300D01*
X127695700Y-81786198D01*
X127883251Y-81917523D01*
X128090757Y-82014284D01*
X128311913Y-82073543D01*
X128540000Y-82093498D01*
X128768087Y-82073543D01*
X128989243Y-82014284D01*
X129196749Y-81917523D01*
X129384300Y-81786198D01*
X129546198Y-81624300D01*
X129677523Y-81436749D01*
X129697617Y-81393655D01*
X129743790Y-81341215D01*
X129810983Y-81322063D01*
X129877864Y-81342278D01*
X129922382Y-81393655D01*
X129942477Y-81436749D01*
X130073802Y-81624300D01*
X130235700Y-81786198D01*
X130423251Y-81917523D01*
X130630757Y-82014284D01*
X130851913Y-82073543D01*
X131003971Y-82086846D01*
X131079999Y-82093498D01*
X131079999Y-82093497D01*
X131080000Y-82093498D01*
X131308087Y-82073543D01*
X131529243Y-82014284D01*
X131736749Y-81917523D01*
X131924300Y-81786198D01*
X132086198Y-81624300D01*
X132217523Y-81436749D01*
X132237617Y-81393655D01*
X132283790Y-81341215D01*
X132350983Y-81322063D01*
X132417864Y-81342278D01*
X132462382Y-81393655D01*
X132482477Y-81436749D01*
X132613802Y-81624300D01*
X132775700Y-81786198D01*
X132963251Y-81917523D01*
X133170757Y-82014284D01*
X133391913Y-82073543D01*
X133543970Y-82086846D01*
X133619999Y-82093498D01*
X133619999Y-82093497D01*
X133620000Y-82093498D01*
X133848087Y-82073543D01*
X134069243Y-82014284D01*
X134276749Y-81917523D01*
X134464300Y-81786198D01*
X134626198Y-81624300D01*
X134757523Y-81436749D01*
X134854284Y-81229243D01*
X134913543Y-81008087D01*
X134928500Y-80837127D01*
X134928500Y-79922873D01*
X134913543Y-79751913D01*
X134854284Y-79530757D01*
X134757523Y-79323251D01*
X134626198Y-79135700D01*
X134535016Y-79044518D01*
X137500000Y-79044518D01*
X137500354Y-79051132D01*
X137506400Y-79107371D01*
X137556647Y-79242089D01*
X137642811Y-79357188D01*
X137757910Y-79443352D01*
X137892628Y-79493599D01*
X137948867Y-79499645D01*
X137955482Y-79500000D01*
X138750000Y-79500000D01*
X138750000Y-78604310D01*
X138758817Y-78609158D01*
X138917886Y-78650000D01*
X139040894Y-78650000D01*
X139162933Y-78634583D01*
X139250000Y-78600110D01*
X139250000Y-79500000D01*
X140044518Y-79500000D01*
X140051132Y-79499645D01*
X140107371Y-79493599D01*
X140242089Y-79443352D01*
X140357188Y-79357188D01*
X140443352Y-79242089D01*
X140493599Y-79107371D01*
X140499645Y-79051132D01*
X140500000Y-79044518D01*
X140500000Y-78250000D01*
X139600728Y-78250000D01*
X139623100Y-78202457D01*
X139653873Y-78041138D01*
X139643561Y-77877234D01*
X139602220Y-77750000D01*
X140500000Y-77750000D01*
X140500000Y-76955481D01*
X140499645Y-76948867D01*
X140493599Y-76892628D01*
X140443352Y-76757910D01*
X140357188Y-76642811D01*
X140242089Y-76556647D01*
X140107371Y-76506400D01*
X140051132Y-76500354D01*
X140044518Y-76500000D01*
X139250000Y-76500000D01*
X139250000Y-77395689D01*
X139241183Y-77390842D01*
X139082114Y-77350000D01*
X138959106Y-77350000D01*
X138837067Y-77365417D01*
X138750000Y-77399889D01*
X138750000Y-76500000D01*
X137955482Y-76500000D01*
X137948867Y-76500354D01*
X137892628Y-76506400D01*
X137757910Y-76556647D01*
X137642811Y-76642811D01*
X137556647Y-76757910D01*
X137506400Y-76892628D01*
X137500354Y-76948867D01*
X137500000Y-76955481D01*
X137500000Y-77750000D01*
X138399272Y-77750000D01*
X138376900Y-77797543D01*
X138346127Y-77958862D01*
X138356439Y-78122766D01*
X138397780Y-78250000D01*
X137500000Y-78250000D01*
X137500000Y-79044518D01*
X134535016Y-79044518D01*
X134464300Y-78973802D01*
X134276749Y-78842477D01*
X134276746Y-78842476D01*
X134276744Y-78842474D01*
X134069246Y-78745717D01*
X134069243Y-78745716D01*
X133958664Y-78716086D01*
X133848084Y-78686456D01*
X133620000Y-78666501D01*
X133391915Y-78686456D01*
X133170753Y-78745717D01*
X132963255Y-78842474D01*
X132775696Y-78973805D01*
X132613805Y-79135696D01*
X132613802Y-79135699D01*
X132613802Y-79135700D01*
X132539308Y-79242089D01*
X132482476Y-79323253D01*
X132462382Y-79366345D01*
X132416209Y-79418784D01*
X132349016Y-79437936D01*
X132282135Y-79417720D01*
X132237618Y-79366345D01*
X132233348Y-79357188D01*
X132217523Y-79323251D01*
X132086198Y-79135700D01*
X131924300Y-78973802D01*
X131736749Y-78842477D01*
X131736746Y-78842476D01*
X131736744Y-78842474D01*
X131529246Y-78745717D01*
X131529243Y-78745716D01*
X131418665Y-78716086D01*
X131308084Y-78686456D01*
X131080000Y-78666501D01*
X130851915Y-78686456D01*
X130630753Y-78745717D01*
X130423255Y-78842474D01*
X130235696Y-78973805D01*
X130073805Y-79135696D01*
X130073802Y-79135699D01*
X130073802Y-79135700D01*
X129942477Y-79323251D01*
X129942475Y-79323254D01*
X129922380Y-79366347D01*
X129876207Y-79418785D01*
X129809013Y-79437936D01*
X129742132Y-79417719D01*
X129697618Y-79366345D01*
X129677523Y-79323251D01*
X129546198Y-79135700D01*
X129384300Y-78973802D01*
X129196749Y-78842477D01*
X129196746Y-78842476D01*
X129196744Y-78842474D01*
X128989246Y-78745717D01*
X128989243Y-78745716D01*
X128878665Y-78716086D01*
X128768084Y-78686456D01*
X128540000Y-78666501D01*
X128311915Y-78686456D01*
X128090753Y-78745717D01*
X127883255Y-78842474D01*
X127695696Y-78973805D01*
X127533805Y-79135696D01*
X127533802Y-79135699D01*
X127533802Y-79135700D01*
X127459308Y-79242089D01*
X127402476Y-79323253D01*
X127382382Y-79366345D01*
X127336209Y-79418784D01*
X127269016Y-79437936D01*
X127202135Y-79417720D01*
X127157618Y-79366345D01*
X127153348Y-79357188D01*
X127137523Y-79323251D01*
X127006198Y-79135700D01*
X126844300Y-78973802D01*
X126656749Y-78842477D01*
X126656746Y-78842476D01*
X126656744Y-78842474D01*
X126449246Y-78745717D01*
X126449243Y-78745716D01*
X126338664Y-78716086D01*
X126228084Y-78686456D01*
X126000000Y-78666501D01*
X125771915Y-78686456D01*
X125550753Y-78745717D01*
X125343255Y-78842474D01*
X125155696Y-78973805D01*
X124993805Y-79135696D01*
X124862474Y-79323255D01*
X124765717Y-79530753D01*
X124706456Y-79751915D01*
X124693501Y-79900000D01*
X124691500Y-79922873D01*
X124691500Y-80837127D01*
X91520017Y-80837127D01*
X91517453Y-80827004D01*
X91425920Y-80618329D01*
X91345624Y-80495427D01*
X90691548Y-81149503D01*
X90667398Y-81067255D01*
X90590443Y-80947511D01*
X90482869Y-80854298D01*
X90353392Y-80795167D01*
X90340616Y-80793330D01*
X90993483Y-80140462D01*
X90993482Y-80140461D01*
X90967134Y-80119953D01*
X90766722Y-80011496D01*
X90551202Y-79937507D01*
X90326435Y-79900000D01*
X90098565Y-79900000D01*
X89873797Y-79937507D01*
X89658277Y-80011496D01*
X89457867Y-80119952D01*
X89431516Y-80140460D01*
X89431516Y-80140462D01*
X90084384Y-80793330D01*
X90071608Y-80795167D01*
X89942131Y-80854298D01*
X89834557Y-80947511D01*
X89757602Y-81067255D01*
X89733451Y-81149505D01*
X89079373Y-80495427D01*
X88999081Y-80618326D01*
X88907546Y-80827004D01*
X88851604Y-81047912D01*
X88832787Y-81274999D01*
X88851604Y-81502087D01*
X88907546Y-81722995D01*
X88999079Y-81931669D01*
X89079374Y-82054570D01*
X89733451Y-81400494D01*
X89757602Y-81482745D01*
X89834557Y-81602489D01*
X89942131Y-81695702D01*
X90071608Y-81754833D01*
X90084382Y-81756669D01*
X89431515Y-82409536D01*
X89431516Y-82409537D01*
X89457868Y-82430048D01*
X89658277Y-82538503D01*
X89873797Y-82612492D01*
X90098565Y-82650000D01*
X90326435Y-82650000D01*
X90551202Y-82612492D01*
X90766722Y-82538503D01*
X90957309Y-82435364D01*
X91025637Y-82420769D01*
X91091009Y-82445432D01*
X91132670Y-82501523D01*
X91139944Y-82534690D01*
X91158428Y-82769558D01*
X91215694Y-83008092D01*
X91282076Y-83168349D01*
X91309573Y-83234732D01*
X91437748Y-83443896D01*
X91597067Y-83630433D01*
X91759274Y-83768972D01*
X91774188Y-83781710D01*
X91812381Y-83840217D01*
X91812879Y-83910085D01*
X91775525Y-83969131D01*
X91712178Y-83998609D01*
X91693656Y-84000000D01*
X86199500Y-84000000D01*
X86132461Y-83980315D01*
X86086706Y-83927511D01*
X86075500Y-83876000D01*
X86075500Y-74124000D01*
X86095185Y-74056961D01*
X86147989Y-74011206D01*
X86199500Y-74000000D01*
X91752301Y-74000000D01*
X91819340Y-74019685D01*
X91865095Y-74072489D01*
X91875039Y-74141647D01*
X91846014Y-74205203D01*
X91817091Y-74229727D01*
X91783605Y-74250247D01*
X91597067Y-74409567D01*
X91437748Y-74596103D01*
X91309573Y-74805268D01*
X91215694Y-75031907D01*
X91158428Y-75270441D01*
X91158428Y-75270443D01*
X91139918Y-75505631D01*
X91115035Y-75570918D01*
X91058804Y-75612389D01*
X90989079Y-75616876D01*
X90957284Y-75604956D01*
X90770148Y-75503684D01*
X90553294Y-75429238D01*
X90327140Y-75391500D01*
X90097860Y-75391500D01*
X89871705Y-75429238D01*
X89654851Y-75503684D01*
X89453204Y-75612809D01*
X89272269Y-75753636D01*
X89116983Y-75922323D01*
X88991576Y-76114272D01*
X88899478Y-76324236D01*
X88899477Y-76324239D01*
X88853124Y-76507281D01*
X88843191Y-76546507D01*
X88824257Y-76774999D01*
X88843191Y-77003492D01*
X88843191Y-77003495D01*
X88843192Y-77003497D01*
X88862139Y-77078318D01*
X88899478Y-77225763D01*
X88991576Y-77435727D01*
X88991578Y-77435730D01*
X89116982Y-77627676D01*
X89272269Y-77796363D01*
X89453204Y-77937190D01*
X89654850Y-78046315D01*
X89871707Y-78120762D01*
X90097860Y-78158500D01*
X90327140Y-78158500D01*
X90553293Y-78120762D01*
X90770150Y-78046315D01*
X90971796Y-77937190D01*
X91152731Y-77796363D01*
X91308018Y-77627676D01*
X91433422Y-77435730D01*
X91525523Y-77225761D01*
X91581808Y-77003497D01*
X91592571Y-76873602D01*
X91617724Y-76808421D01*
X91674125Y-76767182D01*
X91743869Y-76762984D01*
X91780936Y-76778117D01*
X91783603Y-76779751D01*
X91783604Y-76779752D01*
X91992768Y-76907927D01*
X92107573Y-76955481D01*
X92219407Y-77001805D01*
X92294765Y-77019896D01*
X92457943Y-77059072D01*
X92702500Y-77078319D01*
X92947057Y-77059072D01*
X93185592Y-77001805D01*
X93412232Y-76907927D01*
X93621396Y-76779752D01*
X93807933Y-76620433D01*
X93967252Y-76433896D01*
X94095427Y-76224732D01*
X94188515Y-76000000D01*
X95686383Y-76000000D01*
X95706782Y-76181044D01*
X95706782Y-76181046D01*
X95706783Y-76181047D01*
X95766957Y-76353015D01*
X95863889Y-76507281D01*
X95992719Y-76636111D01*
X96146985Y-76733043D01*
X96318953Y-76793217D01*
X96500000Y-76813616D01*
X96681047Y-76793217D01*
X96853015Y-76733043D01*
X97007281Y-76636111D01*
X97136111Y-76507281D01*
X97233043Y-76353015D01*
X97293217Y-76181047D01*
X97313616Y-76000000D01*
X97293217Y-75818953D01*
X97233043Y-75646985D01*
X97136111Y-75492719D01*
X97007281Y-75363889D01*
X96853015Y-75266957D01*
X96681047Y-75206783D01*
X96681046Y-75206782D01*
X96681044Y-75206782D01*
X96500000Y-75186383D01*
X96318955Y-75206782D01*
X96146984Y-75266957D01*
X95992717Y-75363890D01*
X95863890Y-75492717D01*
X95766957Y-75646984D01*
X95706782Y-75818955D01*
X95686383Y-76000000D01*
X94188515Y-76000000D01*
X94189305Y-75998092D01*
X94246572Y-75759557D01*
X94265819Y-75515000D01*
X94246572Y-75270443D01*
X94189305Y-75031908D01*
X94095427Y-74805268D01*
X93967252Y-74596104D01*
X93807933Y-74409567D01*
X93621396Y-74250248D01*
X93587909Y-74229727D01*
X93541034Y-74177915D01*
X93529611Y-74108986D01*
X93557268Y-74044823D01*
X93615224Y-74005798D01*
X93652699Y-74000000D01*
X101000000Y-74000000D01*
X102000000Y-73000000D01*
X102000000Y-71051362D01*
X102019685Y-70984323D01*
X102036319Y-70963681D01*
X102950181Y-70049819D01*
X103011504Y-70016334D01*
X103037862Y-70013500D01*
X104872676Y-70013500D01*
X104876000Y-70013500D01*
X104985157Y-70001764D01*
X104986428Y-70001487D01*
X105004911Y-70000000D01*
X107000000Y-70000000D01*
X107000000Y-67000000D01*
X105000000Y-67000000D01*
X104978765Y-67000000D01*
X104961119Y-66998738D01*
X104876000Y-66986500D01*
X103037862Y-66986500D01*
X102970823Y-66966815D01*
X102950181Y-66950181D01*
X102077127Y-66077127D01*
X124911500Y-66077127D01*
X124911735Y-66079822D01*
X124911736Y-66079827D01*
X124926456Y-66248084D01*
X124985717Y-66469246D01*
X125082474Y-66676744D01*
X125082476Y-66676746D01*
X125082477Y-66676749D01*
X125213802Y-66864300D01*
X125375700Y-67026198D01*
X125563251Y-67157523D01*
X125770757Y-67254284D01*
X125991913Y-67313543D01*
X126220000Y-67333498D01*
X126448087Y-67313543D01*
X126669243Y-67254284D01*
X126876749Y-67157523D01*
X127064300Y-67026198D01*
X127226198Y-66864300D01*
X127357523Y-66676749D01*
X127377617Y-66633655D01*
X127423790Y-66581215D01*
X127490983Y-66562063D01*
X127557864Y-66582278D01*
X127602382Y-66633655D01*
X127622477Y-66676749D01*
X127753802Y-66864300D01*
X127915700Y-67026198D01*
X128103251Y-67157523D01*
X128310757Y-67254284D01*
X128531913Y-67313543D01*
X128760000Y-67333498D01*
X128988087Y-67313543D01*
X129209243Y-67254284D01*
X129416749Y-67157523D01*
X129604300Y-67026198D01*
X129766198Y-66864300D01*
X129897523Y-66676749D01*
X129917617Y-66633655D01*
X129963790Y-66581215D01*
X130030983Y-66562063D01*
X130097864Y-66582278D01*
X130142382Y-66633655D01*
X130162477Y-66676749D01*
X130293802Y-66864300D01*
X130455700Y-67026198D01*
X130643251Y-67157523D01*
X130850757Y-67254284D01*
X131071913Y-67313543D01*
X131300000Y-67333498D01*
X131528087Y-67313543D01*
X131749243Y-67254284D01*
X131956749Y-67157523D01*
X132144300Y-67026198D01*
X132306198Y-66864300D01*
X132437523Y-66676749D01*
X132457617Y-66633655D01*
X132503790Y-66581215D01*
X132570983Y-66562063D01*
X132637864Y-66582278D01*
X132682382Y-66633655D01*
X132702477Y-66676749D01*
X132833802Y-66864300D01*
X132995700Y-67026198D01*
X133183251Y-67157523D01*
X133390757Y-67254284D01*
X133611913Y-67313543D01*
X133763971Y-67326846D01*
X133839999Y-67333498D01*
X133839999Y-67333497D01*
X133840000Y-67333498D01*
X134068087Y-67313543D01*
X134289243Y-67254284D01*
X134496749Y-67157523D01*
X134684300Y-67026198D01*
X134846198Y-66864300D01*
X134977523Y-66676749D01*
X134997618Y-66633654D01*
X135043787Y-66581216D01*
X135110980Y-66562063D01*
X135177862Y-66582277D01*
X135222381Y-66633653D01*
X135242477Y-66676749D01*
X135373802Y-66864300D01*
X135535700Y-67026198D01*
X135723251Y-67157523D01*
X135930757Y-67254284D01*
X136151913Y-67313543D01*
X136303970Y-67326846D01*
X136379999Y-67333498D01*
X136379999Y-67333497D01*
X136380000Y-67333498D01*
X136608087Y-67313543D01*
X136829243Y-67254284D01*
X137036749Y-67157523D01*
X137224300Y-67026198D01*
X137386198Y-66864300D01*
X137517523Y-66676749D01*
X137537617Y-66633655D01*
X137583790Y-66581215D01*
X137650983Y-66562063D01*
X137717864Y-66582278D01*
X137762382Y-66633655D01*
X137782477Y-66676749D01*
X137913802Y-66864300D01*
X138075700Y-67026198D01*
X138263251Y-67157523D01*
X138470757Y-67254284D01*
X138691913Y-67313543D01*
X138920000Y-67333498D01*
X139148087Y-67313543D01*
X139369243Y-67254284D01*
X139576749Y-67157523D01*
X139764300Y-67026198D01*
X139926198Y-66864300D01*
X140057523Y-66676749D01*
X140077617Y-66633655D01*
X140123790Y-66581215D01*
X140190983Y-66562063D01*
X140257864Y-66582278D01*
X140302382Y-66633655D01*
X140322477Y-66676749D01*
X140453802Y-66864300D01*
X140615700Y-67026198D01*
X140803251Y-67157523D01*
X141010757Y-67254284D01*
X141231913Y-67313543D01*
X141383971Y-67326846D01*
X141459999Y-67333498D01*
X141459999Y-67333497D01*
X141460000Y-67333498D01*
X141688087Y-67313543D01*
X141909243Y-67254284D01*
X142116749Y-67157523D01*
X142304300Y-67026198D01*
X142466198Y-66864300D01*
X142597523Y-66676749D01*
X142617617Y-66633655D01*
X142663790Y-66581215D01*
X142730983Y-66562063D01*
X142797864Y-66582278D01*
X142842382Y-66633655D01*
X142862477Y-66676749D01*
X142993802Y-66864300D01*
X143155700Y-67026198D01*
X143343251Y-67157523D01*
X143550757Y-67254284D01*
X143771913Y-67313543D01*
X144000000Y-67333498D01*
X144228087Y-67313543D01*
X144449243Y-67254284D01*
X144656749Y-67157523D01*
X144844300Y-67026198D01*
X145006198Y-66864300D01*
X145137523Y-66676749D01*
X145234284Y-66469243D01*
X145293543Y-66248087D01*
X145308500Y-66077127D01*
X145308500Y-65162873D01*
X145293543Y-64991913D01*
X145234284Y-64770757D01*
X145137523Y-64563251D01*
X145006198Y-64375700D01*
X144844300Y-64213802D01*
X144656749Y-64082477D01*
X144656746Y-64082476D01*
X144656744Y-64082474D01*
X144449246Y-63985717D01*
X144449243Y-63985716D01*
X144338664Y-63956086D01*
X144228084Y-63926456D01*
X143999999Y-63906501D01*
X143771915Y-63926456D01*
X143550753Y-63985717D01*
X143343255Y-64082474D01*
X143155696Y-64213805D01*
X142993805Y-64375696D01*
X142862476Y-64563253D01*
X142842382Y-64606345D01*
X142796209Y-64658784D01*
X142729016Y-64677936D01*
X142662135Y-64657720D01*
X142617618Y-64606345D01*
X142616214Y-64603334D01*
X142597523Y-64563251D01*
X142466198Y-64375700D01*
X142304300Y-64213802D01*
X142116749Y-64082477D01*
X142116746Y-64082476D01*
X142116744Y-64082474D01*
X141909246Y-63985717D01*
X141909243Y-63985716D01*
X141798664Y-63956086D01*
X141688084Y-63926456D01*
X141459999Y-63906501D01*
X141231915Y-63926456D01*
X141010753Y-63985717D01*
X140803255Y-64082474D01*
X140615696Y-64213805D01*
X140453805Y-64375696D01*
X140322476Y-64563253D01*
X140302382Y-64606345D01*
X140256209Y-64658784D01*
X140189016Y-64677936D01*
X140122135Y-64657720D01*
X140077618Y-64606345D01*
X140076214Y-64603334D01*
X140057523Y-64563251D01*
X139926198Y-64375700D01*
X139764300Y-64213802D01*
X139576749Y-64082477D01*
X139576746Y-64082476D01*
X139576744Y-64082474D01*
X139369246Y-63985717D01*
X139369243Y-63985716D01*
X139258665Y-63956086D01*
X139148084Y-63926456D01*
X138920000Y-63906501D01*
X138691915Y-63926456D01*
X138470753Y-63985717D01*
X138263255Y-64082474D01*
X138075696Y-64213805D01*
X137913805Y-64375696D01*
X137782476Y-64563253D01*
X137762382Y-64606345D01*
X137716209Y-64658784D01*
X137649016Y-64677936D01*
X137582135Y-64657720D01*
X137537618Y-64606345D01*
X137536214Y-64603334D01*
X137517523Y-64563251D01*
X137386198Y-64375700D01*
X137224300Y-64213802D01*
X137036749Y-64082477D01*
X137036746Y-64082476D01*
X137036744Y-64082474D01*
X136829246Y-63985717D01*
X136829243Y-63985716D01*
X136718665Y-63956086D01*
X136608084Y-63926456D01*
X136380000Y-63906501D01*
X136151915Y-63926456D01*
X135930753Y-63985717D01*
X135723255Y-64082474D01*
X135535696Y-64213805D01*
X135373805Y-64375696D01*
X135242476Y-64563253D01*
X135222382Y-64606345D01*
X135176209Y-64658784D01*
X135109016Y-64677936D01*
X135042135Y-64657720D01*
X134997618Y-64606345D01*
X134996214Y-64603334D01*
X134977523Y-64563251D01*
X134846198Y-64375700D01*
X134684300Y-64213802D01*
X134496749Y-64082477D01*
X134496746Y-64082476D01*
X134496744Y-64082474D01*
X134289246Y-63985717D01*
X134289243Y-63985716D01*
X134178664Y-63956086D01*
X134068084Y-63926456D01*
X133840000Y-63906501D01*
X133611915Y-63926456D01*
X133390753Y-63985717D01*
X133183255Y-64082474D01*
X132995696Y-64213805D01*
X132833805Y-64375696D01*
X132702475Y-64563254D01*
X132682380Y-64606347D01*
X132636207Y-64658785D01*
X132569013Y-64677936D01*
X132502132Y-64657719D01*
X132457618Y-64606345D01*
X132437523Y-64563251D01*
X132306198Y-64375700D01*
X132144300Y-64213802D01*
X131956749Y-64082477D01*
X131956746Y-64082476D01*
X131956744Y-64082474D01*
X131749246Y-63985717D01*
X131749243Y-63985716D01*
X131638664Y-63956086D01*
X131528084Y-63926456D01*
X131300000Y-63906501D01*
X131071915Y-63926456D01*
X130850753Y-63985717D01*
X130643255Y-64082474D01*
X130455696Y-64213805D01*
X130293805Y-64375696D01*
X130162476Y-64563253D01*
X130142382Y-64606345D01*
X130096209Y-64658784D01*
X130029016Y-64677936D01*
X129962135Y-64657720D01*
X129917618Y-64606345D01*
X129916214Y-64603334D01*
X129897523Y-64563251D01*
X129766198Y-64375700D01*
X129604300Y-64213802D01*
X129416749Y-64082477D01*
X129416746Y-64082476D01*
X129416744Y-64082474D01*
X129209246Y-63985717D01*
X129209243Y-63985716D01*
X129098665Y-63956086D01*
X128988084Y-63926456D01*
X128760000Y-63906501D01*
X128531915Y-63926456D01*
X128310753Y-63985717D01*
X128103255Y-64082474D01*
X127915696Y-64213805D01*
X127753805Y-64375696D01*
X127622476Y-64563253D01*
X127602382Y-64606345D01*
X127556209Y-64658784D01*
X127489016Y-64677936D01*
X127422135Y-64657720D01*
X127377618Y-64606345D01*
X127376214Y-64603334D01*
X127357523Y-64563251D01*
X127226198Y-64375700D01*
X127064300Y-64213802D01*
X126876749Y-64082477D01*
X126876746Y-64082476D01*
X126876744Y-64082474D01*
X126669246Y-63985717D01*
X126669243Y-63985716D01*
X126558665Y-63956086D01*
X126448084Y-63926456D01*
X126219999Y-63906501D01*
X125991915Y-63926456D01*
X125770753Y-63985717D01*
X125563255Y-64082474D01*
X125375696Y-64213805D01*
X125213805Y-64375696D01*
X125082474Y-64563255D01*
X124985717Y-64770753D01*
X124926456Y-64991915D01*
X124911736Y-65160172D01*
X124911500Y-65162873D01*
X124911500Y-66077127D01*
X102077127Y-66077127D01*
X102036319Y-66036319D01*
X102002834Y-65974996D01*
X102000000Y-65948638D01*
X102000000Y-59000000D01*
X101454053Y-58454053D01*
X124920000Y-58454053D01*
X124920236Y-58459464D01*
X124934858Y-58626602D01*
X124993733Y-58846326D01*
X125089865Y-59052480D01*
X125220341Y-59238819D01*
X125381180Y-59399658D01*
X125567519Y-59530134D01*
X125773673Y-59626266D01*
X125970000Y-59678871D01*
X125970000Y-58315686D01*
X125981955Y-58327641D01*
X126094852Y-58385165D01*
X126188519Y-58400000D01*
X126251481Y-58400000D01*
X126345148Y-58385165D01*
X126458045Y-58327641D01*
X126469999Y-58315686D01*
X126470000Y-59678871D01*
X126666326Y-59626266D01*
X126872480Y-59530134D01*
X127058819Y-59399658D01*
X127219658Y-59238819D01*
X127350133Y-59052481D01*
X127372927Y-59003600D01*
X127419098Y-58951160D01*
X127486292Y-58932007D01*
X127553173Y-58952222D01*
X127597692Y-59003598D01*
X127622475Y-59056746D01*
X127622476Y-59056748D01*
X127622477Y-59056749D01*
X127753802Y-59244300D01*
X127915700Y-59406198D01*
X128103251Y-59537523D01*
X128310757Y-59634284D01*
X128531913Y-59693543D01*
X128760000Y-59713498D01*
X128988087Y-59693543D01*
X129209243Y-59634284D01*
X129416749Y-59537523D01*
X129604300Y-59406198D01*
X129766198Y-59244300D01*
X129897523Y-59056749D01*
X129917618Y-59013654D01*
X129963787Y-58961216D01*
X130030980Y-58942063D01*
X130097862Y-58962277D01*
X130142381Y-59013653D01*
X130162477Y-59056749D01*
X130293802Y-59244300D01*
X130455700Y-59406198D01*
X130643251Y-59537523D01*
X130850757Y-59634284D01*
X131071913Y-59693543D01*
X131300000Y-59713498D01*
X131528087Y-59693543D01*
X131749243Y-59634284D01*
X131956749Y-59537523D01*
X132144300Y-59406198D01*
X132306198Y-59244300D01*
X132437523Y-59056749D01*
X132457617Y-59013655D01*
X132503790Y-58961215D01*
X132570983Y-58942063D01*
X132637864Y-58962278D01*
X132682382Y-59013655D01*
X132702477Y-59056749D01*
X132833802Y-59244300D01*
X132995700Y-59406198D01*
X133183251Y-59537523D01*
X133390757Y-59634284D01*
X133611913Y-59693543D01*
X133840000Y-59713498D01*
X134068087Y-59693543D01*
X134289243Y-59634284D01*
X134496749Y-59537523D01*
X134684300Y-59406198D01*
X134846198Y-59244300D01*
X134977523Y-59056749D01*
X134997618Y-59013654D01*
X135043787Y-58961216D01*
X135110980Y-58942063D01*
X135177862Y-58962277D01*
X135222381Y-59013653D01*
X135242477Y-59056749D01*
X135373802Y-59244300D01*
X135535700Y-59406198D01*
X135723251Y-59537523D01*
X135930757Y-59634284D01*
X136151913Y-59693543D01*
X136303971Y-59706846D01*
X136379999Y-59713498D01*
X136379999Y-59713497D01*
X136380000Y-59713498D01*
X136608087Y-59693543D01*
X136829243Y-59634284D01*
X137036749Y-59537523D01*
X137224300Y-59406198D01*
X137386198Y-59244300D01*
X137517523Y-59056749D01*
X137537617Y-59013655D01*
X137583790Y-58961215D01*
X137650983Y-58942063D01*
X137717864Y-58962278D01*
X137762382Y-59013655D01*
X137782477Y-59056749D01*
X137913802Y-59244300D01*
X138075700Y-59406198D01*
X138263251Y-59537523D01*
X138470757Y-59634284D01*
X138691913Y-59693543D01*
X138920000Y-59713498D01*
X139148087Y-59693543D01*
X139369243Y-59634284D01*
X139576749Y-59537523D01*
X139764300Y-59406198D01*
X139926198Y-59244300D01*
X140057523Y-59056749D01*
X140077617Y-59013655D01*
X140123790Y-58961215D01*
X140190983Y-58942063D01*
X140257864Y-58962278D01*
X140302382Y-59013655D01*
X140322477Y-59056749D01*
X140453802Y-59244300D01*
X140615700Y-59406198D01*
X140803251Y-59537523D01*
X141010757Y-59634284D01*
X141231913Y-59693543D01*
X141460000Y-59713498D01*
X141688087Y-59693543D01*
X141909243Y-59634284D01*
X142116749Y-59537523D01*
X142304300Y-59406198D01*
X142466198Y-59244300D01*
X142471564Y-59236636D01*
X142526136Y-59193010D01*
X142595634Y-59185813D01*
X142657991Y-59217333D01*
X142693407Y-59277561D01*
X142696429Y-59294498D01*
X142698010Y-59309201D01*
X142749110Y-59446203D01*
X142836738Y-59563261D01*
X142953796Y-59650889D01*
X143090794Y-59701988D01*
X143090797Y-59701988D01*
X143090799Y-59701989D01*
X143151362Y-59708500D01*
X143154672Y-59708500D01*
X144845328Y-59708500D01*
X144848638Y-59708500D01*
X144909201Y-59701989D01*
X144909203Y-59701988D01*
X144909205Y-59701988D01*
X144987124Y-59672924D01*
X145046204Y-59650889D01*
X145163261Y-59563261D01*
X145250889Y-59446204D01*
X145291921Y-59336195D01*
X145301988Y-59309205D01*
X145301988Y-59309203D01*
X145301989Y-59309201D01*
X145308500Y-59248638D01*
X145308500Y-56751362D01*
X145301989Y-56690799D01*
X145301988Y-56690797D01*
X145301988Y-56690794D01*
X145250889Y-56553796D01*
X145163261Y-56436738D01*
X145046203Y-56349110D01*
X144909205Y-56298011D01*
X144851924Y-56291853D01*
X144851918Y-56291852D01*
X144848638Y-56291500D01*
X143151362Y-56291500D01*
X143148082Y-56291852D01*
X143148075Y-56291853D01*
X143090794Y-56298011D01*
X142953796Y-56349110D01*
X142836738Y-56436738D01*
X142749110Y-56553796D01*
X142698009Y-56690799D01*
X142696429Y-56705501D01*
X142669690Y-56770052D01*
X142612296Y-56809898D01*
X142542471Y-56812390D01*
X142482383Y-56776737D01*
X142471564Y-56763364D01*
X142466197Y-56755699D01*
X142304303Y-56593805D01*
X142304300Y-56593802D01*
X142116749Y-56462477D01*
X142116746Y-56462476D01*
X142116744Y-56462474D01*
X141909246Y-56365717D01*
X141909243Y-56365716D01*
X141742832Y-56321126D01*
X141688084Y-56306456D01*
X141460000Y-56286501D01*
X141231915Y-56306456D01*
X141010753Y-56365717D01*
X140803255Y-56462474D01*
X140615696Y-56593805D01*
X140453805Y-56755696D01*
X140322476Y-56943253D01*
X140302382Y-56986345D01*
X140256209Y-57038784D01*
X140189016Y-57057936D01*
X140122135Y-57037720D01*
X140077618Y-56986345D01*
X140076214Y-56983334D01*
X140057523Y-56943251D01*
X139926198Y-56755700D01*
X139764300Y-56593802D01*
X139576749Y-56462477D01*
X139576746Y-56462476D01*
X139576744Y-56462474D01*
X139369246Y-56365717D01*
X139369243Y-56365716D01*
X139202832Y-56321126D01*
X139148084Y-56306456D01*
X138920000Y-56286501D01*
X138691915Y-56306456D01*
X138470753Y-56365717D01*
X138263255Y-56462474D01*
X138075696Y-56593805D01*
X137913805Y-56755696D01*
X137782476Y-56943253D01*
X137762382Y-56986345D01*
X137716209Y-57038784D01*
X137649016Y-57057936D01*
X137582135Y-57037720D01*
X137537618Y-56986345D01*
X137536214Y-56983334D01*
X137517523Y-56943251D01*
X137386198Y-56755700D01*
X137224300Y-56593802D01*
X137036749Y-56462477D01*
X137036746Y-56462476D01*
X137036744Y-56462474D01*
X136829246Y-56365717D01*
X136829243Y-56365716D01*
X136662832Y-56321126D01*
X136608084Y-56306456D01*
X136379999Y-56286501D01*
X136151915Y-56306456D01*
X135930753Y-56365717D01*
X135723255Y-56462474D01*
X135535696Y-56593805D01*
X135373805Y-56755696D01*
X135242476Y-56943253D01*
X135222382Y-56986345D01*
X135176209Y-57038784D01*
X135109016Y-57057936D01*
X135042135Y-57037720D01*
X134997618Y-56986345D01*
X134996214Y-56983334D01*
X134977523Y-56943251D01*
X134846198Y-56755700D01*
X134684300Y-56593802D01*
X134496749Y-56462477D01*
X134496746Y-56462476D01*
X134496744Y-56462474D01*
X134289246Y-56365717D01*
X134289243Y-56365716D01*
X134122832Y-56321126D01*
X134068084Y-56306456D01*
X133840000Y-56286501D01*
X133611915Y-56306456D01*
X133390753Y-56365717D01*
X133183255Y-56462474D01*
X132995696Y-56593805D01*
X132833805Y-56755696D01*
X132702476Y-56943253D01*
X132682382Y-56986345D01*
X132636209Y-57038784D01*
X132569016Y-57057936D01*
X132502135Y-57037720D01*
X132457618Y-56986345D01*
X132456214Y-56983334D01*
X132437523Y-56943251D01*
X132306198Y-56755700D01*
X132144300Y-56593802D01*
X131956749Y-56462477D01*
X131956746Y-56462476D01*
X131956744Y-56462474D01*
X131749246Y-56365717D01*
X131749243Y-56365716D01*
X131582832Y-56321126D01*
X131528084Y-56306456D01*
X131300000Y-56286501D01*
X131071915Y-56306456D01*
X130850753Y-56365717D01*
X130643255Y-56462474D01*
X130455696Y-56593805D01*
X130293805Y-56755696D01*
X130162476Y-56943253D01*
X130142382Y-56986345D01*
X130096209Y-57038784D01*
X130029016Y-57057936D01*
X129962135Y-57037720D01*
X129917618Y-56986345D01*
X129916214Y-56983334D01*
X129897523Y-56943251D01*
X129766198Y-56755700D01*
X129604300Y-56593802D01*
X129416749Y-56462477D01*
X129416746Y-56462476D01*
X129416744Y-56462474D01*
X129209246Y-56365717D01*
X129209243Y-56365716D01*
X129042832Y-56321126D01*
X128988084Y-56306456D01*
X128760000Y-56286501D01*
X128531915Y-56306456D01*
X128310753Y-56365717D01*
X128103255Y-56462474D01*
X127915696Y-56593805D01*
X127753805Y-56755696D01*
X127753802Y-56755699D01*
X127753802Y-56755700D01*
X127622477Y-56943251D01*
X127622476Y-56943253D01*
X127622474Y-56943256D01*
X127597691Y-56996402D01*
X127551518Y-57048841D01*
X127484325Y-57067992D01*
X127417444Y-57047775D01*
X127372927Y-56996400D01*
X127350132Y-56947516D01*
X127219658Y-56761180D01*
X127058819Y-56600341D01*
X126872480Y-56469865D01*
X126666326Y-56373733D01*
X126470000Y-56321126D01*
X126469999Y-57684313D01*
X126458045Y-57672359D01*
X126345148Y-57614835D01*
X126251481Y-57600000D01*
X126188519Y-57600000D01*
X126094852Y-57614835D01*
X125981955Y-57672359D01*
X125970000Y-57684314D01*
X125970000Y-56321127D01*
X125969999Y-56321126D01*
X125773673Y-56373733D01*
X125567519Y-56469865D01*
X125381180Y-56600341D01*
X125220341Y-56761180D01*
X125089865Y-56947519D01*
X124993733Y-57153673D01*
X124934858Y-57373397D01*
X124920236Y-57540535D01*
X124920000Y-57545946D01*
X124920000Y-57750000D01*
X125904314Y-57750000D01*
X125892359Y-57761955D01*
X125834835Y-57874852D01*
X125815014Y-58000000D01*
X125834835Y-58125148D01*
X125892359Y-58238045D01*
X125904314Y-58250000D01*
X124920000Y-58250000D01*
X124920000Y-58454053D01*
X101454053Y-58454053D01*
X101000000Y-58000000D01*
X86199500Y-58000000D01*
X86132461Y-57980315D01*
X86086706Y-57927511D01*
X86075500Y-57876000D01*
X86075500Y-55000000D01*
X92186383Y-55000000D01*
X92206782Y-55181044D01*
X92206782Y-55181046D01*
X92206783Y-55181047D01*
X92266957Y-55353015D01*
X92363889Y-55507281D01*
X92492719Y-55636111D01*
X92646985Y-55733043D01*
X92818953Y-55793217D01*
X93000000Y-55813616D01*
X93181047Y-55793217D01*
X93353015Y-55733043D01*
X93507281Y-55636111D01*
X93636111Y-55507281D01*
X93733043Y-55353015D01*
X93793217Y-55181047D01*
X93813616Y-55000000D01*
X93793217Y-54818953D01*
X93733043Y-54646985D01*
X93636111Y-54492719D01*
X93507281Y-54363889D01*
X93353015Y-54266957D01*
X93181047Y-54206783D01*
X93181046Y-54206782D01*
X93181044Y-54206782D01*
X93000000Y-54186383D01*
X92818955Y-54206782D01*
X92646984Y-54266957D01*
X92492717Y-54363890D01*
X92363890Y-54492717D01*
X92266957Y-54646984D01*
X92206782Y-54818955D01*
X92186383Y-55000000D01*
X86075500Y-55000000D01*
X86075500Y-49760000D01*
X90586672Y-49760000D01*
X90605948Y-49992621D01*
X90605948Y-49992624D01*
X90605949Y-49992626D01*
X90631757Y-50094540D01*
X90663251Y-50218908D01*
X90716889Y-50341189D01*
X90757016Y-50432669D01*
X90839225Y-50558500D01*
X90884687Y-50628084D01*
X90978073Y-50729528D01*
X91008996Y-50792182D01*
X91001136Y-50861608D01*
X90956989Y-50915764D01*
X90930178Y-50929693D01*
X90857911Y-50956647D01*
X90742811Y-51042811D01*
X90656647Y-51157910D01*
X90606400Y-51292628D01*
X90600354Y-51348867D01*
X90600000Y-51355481D01*
X90600000Y-52050000D01*
X91624722Y-52050000D01*
X91576375Y-52133740D01*
X91546190Y-52265992D01*
X91556327Y-52401265D01*
X91605887Y-52527541D01*
X91623797Y-52550000D01*
X90600000Y-52550000D01*
X90600000Y-53244518D01*
X90600354Y-53251132D01*
X90606400Y-53307371D01*
X90656647Y-53442089D01*
X90742811Y-53557188D01*
X90857910Y-53643352D01*
X90992628Y-53693599D01*
X91048867Y-53699645D01*
X91055482Y-53700000D01*
X91750000Y-53700000D01*
X91750000Y-52674189D01*
X91802547Y-52710016D01*
X91932173Y-52750000D01*
X92033724Y-52750000D01*
X92134138Y-52734865D01*
X92250000Y-52679068D01*
X92250000Y-53700000D01*
X92944518Y-53700000D01*
X92951132Y-53699645D01*
X93007371Y-53693599D01*
X93142089Y-53643352D01*
X93257188Y-53557188D01*
X93343352Y-53442089D01*
X93393599Y-53307371D01*
X93399645Y-53251132D01*
X93400000Y-53244518D01*
X93400000Y-52550000D01*
X92375278Y-52550000D01*
X92423625Y-52466260D01*
X92453810Y-52334008D01*
X92443673Y-52198735D01*
X92394113Y-52072459D01*
X92376203Y-52050000D01*
X93400000Y-52050000D01*
X93400000Y-51355481D01*
X93399645Y-51348867D01*
X93393599Y-51292628D01*
X93343352Y-51157910D01*
X93257188Y-51042811D01*
X93142088Y-50956647D01*
X93069821Y-50929693D01*
X93013888Y-50887821D01*
X92989471Y-50822357D01*
X93004323Y-50754084D01*
X93021919Y-50729535D01*
X93115314Y-50628083D01*
X93242984Y-50432669D01*
X93336749Y-50218907D01*
X93367205Y-50098638D01*
X117441500Y-50098638D01*
X117441852Y-50101918D01*
X117441853Y-50101924D01*
X117448011Y-50159205D01*
X117499110Y-50296203D01*
X117586738Y-50413261D01*
X117703796Y-50500889D01*
X117840794Y-50551988D01*
X117840797Y-50551988D01*
X117840799Y-50551989D01*
X117901362Y-50558500D01*
X117904672Y-50558500D01*
X119695328Y-50558500D01*
X119698638Y-50558500D01*
X119759201Y-50551989D01*
X119759203Y-50551988D01*
X119759205Y-50551988D01*
X119841097Y-50521443D01*
X119896204Y-50500889D01*
X120013261Y-50413261D01*
X120100889Y-50296204D01*
X120146137Y-50174889D01*
X120188009Y-50118956D01*
X120253474Y-50094540D01*
X120321747Y-50109392D01*
X120353548Y-50134241D01*
X120390969Y-50174890D01*
X120416760Y-50202906D01*
X120594424Y-50341189D01*
X120792426Y-50448342D01*
X121005365Y-50521444D01*
X121227431Y-50558500D01*
X121452569Y-50558500D01*
X121674635Y-50521444D01*
X121887574Y-50448342D01*
X122085576Y-50341189D01*
X122263240Y-50202906D01*
X122415722Y-50037268D01*
X122506191Y-49898793D01*
X122559336Y-49853438D01*
X122628567Y-49844014D01*
X122691903Y-49873515D01*
X122713807Y-49898794D01*
X122804275Y-50037265D01*
X122804277Y-50037267D01*
X122804278Y-50037268D01*
X122956760Y-50202906D01*
X123134424Y-50341189D01*
X123332426Y-50448342D01*
X123545365Y-50521444D01*
X123767431Y-50558500D01*
X123992569Y-50558500D01*
X124214635Y-50521444D01*
X124427574Y-50448342D01*
X124625576Y-50341189D01*
X124803240Y-50202906D01*
X124955722Y-50037268D01*
X125049748Y-49893349D01*
X125102893Y-49847994D01*
X125172124Y-49838570D01*
X125235460Y-49868072D01*
X125255131Y-49890048D01*
X125381892Y-50071080D01*
X125548918Y-50238106D01*
X125742423Y-50373600D01*
X125956509Y-50473430D01*
X126170000Y-50530634D01*
X126170000Y-49635501D01*
X126277685Y-49684680D01*
X126384237Y-49700000D01*
X126455763Y-49700000D01*
X126562315Y-49684680D01*
X126670000Y-49635501D01*
X126670000Y-50530633D01*
X126883490Y-50473430D01*
X127097576Y-50373600D01*
X127291081Y-50238106D01*
X127458106Y-50071081D01*
X127584868Y-49890048D01*
X127639445Y-49846424D01*
X127708944Y-49839231D01*
X127771298Y-49870753D01*
X127790252Y-49893351D01*
X127884276Y-50037267D01*
X127950673Y-50109392D01*
X128036760Y-50202906D01*
X128214424Y-50341189D01*
X128412426Y-50448342D01*
X128625365Y-50521444D01*
X128847431Y-50558500D01*
X129072569Y-50558500D01*
X129294635Y-50521444D01*
X129507574Y-50448342D01*
X129705576Y-50341189D01*
X129883240Y-50202906D01*
X130035722Y-50037268D01*
X130126190Y-49898795D01*
X130179337Y-49853438D01*
X130248569Y-49844014D01*
X130311905Y-49873516D01*
X130333809Y-49898795D01*
X130395108Y-49992621D01*
X130424278Y-50037268D01*
X130576760Y-50202906D01*
X130754424Y-50341189D01*
X130952426Y-50448342D01*
X131165365Y-50521444D01*
X131387431Y-50558500D01*
X131612569Y-50558500D01*
X131834635Y-50521444D01*
X132047574Y-50448342D01*
X132245576Y-50341189D01*
X132423240Y-50202906D01*
X132575722Y-50037268D01*
X132666191Y-49898793D01*
X132719336Y-49853438D01*
X132788567Y-49844014D01*
X132851903Y-49873515D01*
X132873807Y-49898794D01*
X132964275Y-50037265D01*
X132964277Y-50037267D01*
X132964278Y-50037268D01*
X133116760Y-50202906D01*
X133294424Y-50341189D01*
X133492426Y-50448342D01*
X133705365Y-50521444D01*
X133927431Y-50558500D01*
X134152569Y-50558500D01*
X134374635Y-50521444D01*
X134587574Y-50448342D01*
X134785576Y-50341189D01*
X134963240Y-50202906D01*
X135115722Y-50037268D01*
X135206190Y-49898795D01*
X135259337Y-49853438D01*
X135328569Y-49844014D01*
X135391905Y-49873516D01*
X135413809Y-49898795D01*
X135475108Y-49992621D01*
X135504278Y-50037268D01*
X135656760Y-50202906D01*
X135834424Y-50341189D01*
X136032426Y-50448342D01*
X136245365Y-50521444D01*
X136467431Y-50558500D01*
X136692569Y-50558500D01*
X136914635Y-50521444D01*
X137127574Y-50448342D01*
X137325576Y-50341189D01*
X137503240Y-50202906D01*
X137655722Y-50037268D01*
X137746190Y-49898795D01*
X137799337Y-49853438D01*
X137868569Y-49844014D01*
X137931905Y-49873516D01*
X137953809Y-49898795D01*
X138015108Y-49992621D01*
X138044278Y-50037268D01*
X138196760Y-50202906D01*
X138374424Y-50341189D01*
X138572426Y-50448342D01*
X138785365Y-50521444D01*
X139007431Y-50558500D01*
X139232569Y-50558500D01*
X139454635Y-50521444D01*
X139667574Y-50448342D01*
X139865576Y-50341189D01*
X140043240Y-50202906D01*
X140195722Y-50037268D01*
X140286190Y-49898795D01*
X140339337Y-49853438D01*
X140408569Y-49844014D01*
X140471905Y-49873516D01*
X140493809Y-49898795D01*
X140555108Y-49992621D01*
X140584278Y-50037268D01*
X140736760Y-50202906D01*
X140914424Y-50341189D01*
X141112426Y-50448342D01*
X141325365Y-50521444D01*
X141547431Y-50558500D01*
X141772569Y-50558500D01*
X141994635Y-50521444D01*
X142207574Y-50448342D01*
X142405576Y-50341189D01*
X142583240Y-50202906D01*
X142735722Y-50037268D01*
X142858860Y-49848791D01*
X142949296Y-49642616D01*
X143004564Y-49424368D01*
X143023156Y-49200000D01*
X143004564Y-48975632D01*
X142949296Y-48757384D01*
X142870090Y-48576810D01*
X142858861Y-48551211D01*
X142846263Y-48531928D01*
X142735722Y-48362732D01*
X142583240Y-48197094D01*
X142405576Y-48058811D01*
X142207574Y-47951658D01*
X142207573Y-47951657D01*
X142207572Y-47951657D01*
X141994636Y-47878556D01*
X141772569Y-47841500D01*
X141547431Y-47841500D01*
X141325363Y-47878556D01*
X141112427Y-47951657D01*
X140914424Y-48058811D01*
X140736760Y-48197094D01*
X140584279Y-48362730D01*
X140493809Y-48501205D01*
X140440662Y-48546561D01*
X140371431Y-48555985D01*
X140308095Y-48526483D01*
X140286191Y-48501205D01*
X140263002Y-48465712D01*
X140195722Y-48362732D01*
X140043240Y-48197094D01*
X139865576Y-48058811D01*
X139667574Y-47951658D01*
X139667573Y-47951657D01*
X139667572Y-47951657D01*
X139454636Y-47878556D01*
X139232569Y-47841500D01*
X139007431Y-47841500D01*
X138785363Y-47878556D01*
X138572427Y-47951657D01*
X138374424Y-48058811D01*
X138196760Y-48197094D01*
X138044279Y-48362730D01*
X137953809Y-48501205D01*
X137900662Y-48546561D01*
X137831431Y-48555985D01*
X137768095Y-48526483D01*
X137746191Y-48501205D01*
X137723002Y-48465712D01*
X137655722Y-48362732D01*
X137503240Y-48197094D01*
X137325576Y-48058811D01*
X137127574Y-47951658D01*
X137127573Y-47951657D01*
X137127572Y-47951657D01*
X136914636Y-47878556D01*
X136692569Y-47841500D01*
X136467431Y-47841500D01*
X136245363Y-47878556D01*
X136032427Y-47951657D01*
X135834424Y-48058811D01*
X135656760Y-48197094D01*
X135504279Y-48362730D01*
X135413809Y-48501205D01*
X135360662Y-48546561D01*
X135291431Y-48555985D01*
X135228095Y-48526483D01*
X135206191Y-48501205D01*
X135183002Y-48465712D01*
X135115722Y-48362732D01*
X134963240Y-48197094D01*
X134785576Y-48058811D01*
X134587574Y-47951658D01*
X134587573Y-47951657D01*
X134587572Y-47951657D01*
X134374636Y-47878556D01*
X134152569Y-47841500D01*
X133927431Y-47841500D01*
X133705363Y-47878556D01*
X133492427Y-47951657D01*
X133294424Y-48058811D01*
X133116760Y-48197094D01*
X132964277Y-48362732D01*
X132873809Y-48501205D01*
X132820663Y-48546562D01*
X132751431Y-48555986D01*
X132688095Y-48526484D01*
X132666191Y-48501205D01*
X132575722Y-48362732D01*
X132544594Y-48328918D01*
X132423240Y-48197094D01*
X132245576Y-48058811D01*
X132047574Y-47951658D01*
X132047573Y-47951657D01*
X132047572Y-47951657D01*
X131834636Y-47878556D01*
X131612569Y-47841500D01*
X131387431Y-47841500D01*
X131165363Y-47878556D01*
X130952427Y-47951657D01*
X130754424Y-48058811D01*
X130576760Y-48197094D01*
X130424279Y-48362730D01*
X130333809Y-48501205D01*
X130280662Y-48546561D01*
X130211431Y-48555985D01*
X130148095Y-48526483D01*
X130126191Y-48501205D01*
X130103002Y-48465712D01*
X130035722Y-48362732D01*
X129883240Y-48197094D01*
X129705576Y-48058811D01*
X129507574Y-47951658D01*
X129507573Y-47951657D01*
X129507572Y-47951657D01*
X129294636Y-47878556D01*
X129072569Y-47841500D01*
X128847431Y-47841500D01*
X128625363Y-47878556D01*
X128412427Y-47951657D01*
X128214424Y-48058811D01*
X128036760Y-48197094D01*
X127884275Y-48362734D01*
X127790250Y-48506650D01*
X127737104Y-48552006D01*
X127667873Y-48561430D01*
X127604537Y-48531928D01*
X127584867Y-48509951D01*
X127458109Y-48328921D01*
X127291081Y-48161893D01*
X127097576Y-48026399D01*
X126883492Y-47926569D01*
X126670000Y-47869364D01*
X126670000Y-48764498D01*
X126562315Y-48715320D01*
X126455763Y-48700000D01*
X126384237Y-48700000D01*
X126277685Y-48715320D01*
X126170000Y-48764498D01*
X126170000Y-47869364D01*
X126169999Y-47869364D01*
X125956507Y-47926569D01*
X125742421Y-48026400D01*
X125548921Y-48161890D01*
X125381893Y-48328918D01*
X125255132Y-48509952D01*
X125200555Y-48553576D01*
X125131056Y-48560769D01*
X125068702Y-48529247D01*
X125049748Y-48506649D01*
X124955723Y-48362732D01*
X124861263Y-48260123D01*
X124803240Y-48197094D01*
X124625576Y-48058811D01*
X124427574Y-47951658D01*
X124427573Y-47951657D01*
X124427572Y-47951657D01*
X124214636Y-47878556D01*
X123992569Y-47841500D01*
X123767431Y-47841500D01*
X123545363Y-47878556D01*
X123332427Y-47951657D01*
X123134424Y-48058811D01*
X122956760Y-48197094D01*
X122804277Y-48362732D01*
X122713809Y-48501205D01*
X122660663Y-48546562D01*
X122591431Y-48555986D01*
X122528095Y-48526484D01*
X122506191Y-48501205D01*
X122415722Y-48362732D01*
X122384594Y-48328918D01*
X122263240Y-48197094D01*
X122085576Y-48058811D01*
X121887574Y-47951658D01*
X121887573Y-47951657D01*
X121887572Y-47951657D01*
X121674636Y-47878556D01*
X121452569Y-47841500D01*
X121227431Y-47841500D01*
X121005363Y-47878556D01*
X120792427Y-47951657D01*
X120594424Y-48058811D01*
X120416759Y-48197094D01*
X120353548Y-48265759D01*
X120293660Y-48301749D01*
X120223822Y-48299648D01*
X120166207Y-48260123D01*
X120146138Y-48225110D01*
X120121427Y-48158861D01*
X120100889Y-48103796D01*
X120042951Y-48026400D01*
X120013261Y-47986738D01*
X119896203Y-47899110D01*
X119759205Y-47848011D01*
X119701924Y-47841853D01*
X119701918Y-47841852D01*
X119698638Y-47841500D01*
X117901362Y-47841500D01*
X117898082Y-47841852D01*
X117898075Y-47841853D01*
X117840794Y-47848011D01*
X117703796Y-47899110D01*
X117586738Y-47986738D01*
X117499110Y-48103796D01*
X117448011Y-48240794D01*
X117441853Y-48298075D01*
X117441500Y-48301362D01*
X117441500Y-50098638D01*
X93367205Y-50098638D01*
X93394051Y-49992626D01*
X93413327Y-49760000D01*
X93394051Y-49527374D01*
X93336749Y-49301093D01*
X93242984Y-49087331D01*
X93115314Y-48891917D01*
X92957220Y-48720182D01*
X92950973Y-48715320D01*
X92916387Y-48688400D01*
X92773017Y-48576810D01*
X92567727Y-48465713D01*
X92567726Y-48465712D01*
X92567725Y-48465712D01*
X92346953Y-48389919D01*
X92116712Y-48351500D01*
X91883288Y-48351500D01*
X91653046Y-48389919D01*
X91432274Y-48465712D01*
X91226983Y-48576810D01*
X91042780Y-48720181D01*
X90884684Y-48891918D01*
X90757016Y-49087330D01*
X90663251Y-49301091D01*
X90605948Y-49527378D01*
X90586672Y-49760000D01*
X86075500Y-49760000D01*
X86075500Y-47508124D01*
X86076561Y-47491939D01*
X86087833Y-47406316D01*
X86096211Y-47375050D01*
X86102023Y-47361018D01*
X86126126Y-47302827D01*
X86142304Y-47274805D01*
X86189899Y-47212778D01*
X86212778Y-47189899D01*
X86274805Y-47142304D01*
X86302827Y-47126126D01*
X86375048Y-47096211D01*
X86406318Y-47087833D01*
X86491942Y-47076561D01*
X86508126Y-47075500D01*
X86524531Y-47075500D01*
X163418290Y-47075500D01*
X163485329Y-47095185D01*
G37*
%TD.AperFunction*%
%TD*%
M02*
