M48
; DRILL file {KiCad 7.0.2} date Tue Aug  8 17:25:26 2023
; FORMAT={-:-/ absolute / inch / decimal}
; #@! TF.CreationDate,2023-08-08T17:25:26+02:00
; #@! TF.GenerationSoftware,Kicad,Pcbnew,7.0.2
; #@! TF.FileFunction,Plated,1,4,PTH
FMAT,2
INCH
; #@! TA.AperFunction,Plated,PTH,ViaDrill
T1C0.0157
; #@! TA.AperFunction,Plated,PTH,ComponentDrill
T2C0.0315
; #@! TA.AperFunction,Plated,PTH,ComponentDrill
T3C0.0350
; #@! TA.AperFunction,Plated,PTH,ComponentDrill
T4C0.0354
; #@! TA.AperFunction,Plated,PTH,ComponentDrill
T5C0.0390
; #@! TA.AperFunction,Plated,PTH,ComponentDrill
T6C0.0394
; #@! TA.AperFunction,Plated,PTH,ComponentDrill
T7C0.0512
; #@! TA.AperFunction,Plated,PTH,ComponentDrill
T8C0.0791
%
G90
G05
T1
X3.6614Y-2.1654
X3.7992Y-2.9921
X4.0748Y-2.6969
X4.0748Y-3.6811
X4.2126Y-2.3031
X4.2126Y-3.0512
X4.2717Y-2.6969
X4.2717Y-3.6811
X4.7132Y-3.1496
X4.8819Y-2.8346
X5.7283Y-3.4055
X5.8071Y-2.7165
X6.122Y-3.1299
T2
X4.9606Y-3.1646
X4.9606Y-3.4646
X4.9693Y-2.2835
X4.9693Y-2.5835
X5.0606Y-3.1646
X5.0606Y-3.4646
X5.0693Y-2.2835
X5.0693Y-2.5835
X5.1606Y-3.1646
X5.1606Y-3.4646
X5.1693Y-2.2835
X5.1693Y-2.5835
X5.2606Y-3.1646
X5.2606Y-3.4646
X5.2693Y-2.2835
X5.2693Y-2.5835
X5.3693Y-2.2835
X5.3693Y-2.5835
X5.4693Y-2.2835
X5.4693Y-2.5835
X5.5693Y-2.2835
X5.5693Y-2.5835
X5.6693Y-2.2835
X5.6693Y-2.5835
T3
X3.9016Y-2.6181
X3.9016Y-2.7181
X3.9035Y-3.6024
X3.9035Y-3.7024
T4
X3.622Y-1.9591
X3.622Y-2.0591
T5
X3.5517Y-3.0226
X3.5517Y-3.1998
T6
X4.6772Y-1.937
X4.7772Y-1.937
X4.8772Y-1.937
X4.9772Y-1.937
X5.037Y-3.837
X5.0772Y-1.937
X5.137Y-3.837
X5.1772Y-1.937
X5.237Y-3.837
X5.2772Y-1.937
X5.337Y-3.837
X5.3772Y-1.937
X5.437Y-3.837
X5.4772Y-1.937
X5.537Y-3.837
X5.5772Y-1.937
X5.637Y-3.837
X5.7362Y-1.937
X5.737Y-3.837
X5.8362Y-1.937
X5.9362Y-1.937
X5.937Y-3.837
X6.0362Y-1.937
X6.037Y-3.837
X6.1362Y-1.937
X6.137Y-3.837
X6.2362Y-1.937
X6.237Y-3.837
X6.3362Y-1.937
X6.337Y-3.837
X6.4362Y-1.937
X6.437Y-3.837
T7
X3.6497Y-2.973
X3.6497Y-3.249
X5.4724Y-3.0709
X5.4724Y-3.6024
T8
X3.7016Y-2.4181
X3.7016Y-2.8181
X3.7035Y-3.4024
X3.7035Y-3.8024
T0
M30
