0
SECTION
2
HEADER
9
$INSUNITS
70
4
9
$ACADVER
1
AC1014
9
$HANDSEED
5
FFFF
0
ENDSEC
0
SECTION
2
TABLES
0
TABLE
2
VPORT
5
8
100
AcDbSymbolTable
0
ENDTAB
0
TABLE
2
LTYPE
5
5
100
AcDbSymbolTable
0
LTYPE
5
14
100
AcDbSymbolTableRecord
100
AcDbLinetypeTableRecord
2
BYBLOCK
70
0
0
LTYPE
5
15
100
AcDbSymbolTableRecord
100
AcDbLinetypeTableRecord
2
BYLAYER
70
0
0
ENDTAB
0
TABLE
2
LAYER
5
2
100
AcDbSymbolTable
70
2
0
LAYER
5
50
100
AcDbSymbolTableRecord
100
AcDbLayerTableRecord
2
0
70
0
6
CONTINUOUS
0
ENDTAB
0
TABLE
2
STYLE
5
3
100
AcDbSymbolTable
70
1
0
STYLE
5
11
100
AcDbSymbolTableRecord
100
AcDbTextStyleTableRecord
2
STANDARD
70
0
0
ENDTAB
0
TABLE
2
VIEW
5
6
100
AcDbSymbolTable
70
0
0
ENDTAB
0
TABLE
2
UCS
5
7
100
AcDbSymbolTable
70
0
0
ENDTAB
0
TABLE
2
APPID
5
9
100
AcDbSymbolTable
70
2
0
APPID
5
12
100
AcDbSymbolTableRecord
100
AcDbRegAppTableRecord
2
ACAD
70
0
0
ENDTAB
0
TABLE
2
DIMSTYLE
5
A
100
AcDbSymbolTable
70
1
0
ENDTAB
0
TABLE
2
BLOCK_RECORD
5
1
100
AcDbSymbolTable
70
1
0
BLOCK_RECORD
5
1F
100
AcDbSymbolTableRecord
100
AcDbBlockTableRecord
2
*MODEL_SPACE
0
BLOCK_RECORD
5
1B
100
AcDbSymbolTableRecord
100
AcDbBlockTableRecord
2
*PAPER_SPACE
0
ENDTAB
0
ENDSEC
0
SECTION
2
BLOCKS
0
BLOCK
5
20
100
AcDbEntity
100
AcDbBlockBegin
2
*MODEL_SPACE
0
ENDBLK
5
21
100
AcDbEntity
100
AcDbBlockEnd
0
BLOCK
5
1C
100
AcDbEntity
100
AcDbBlockBegin
2
*PAPER_SPACE
0
ENDBLK
5
1D
100
AcDbEntity
100
AcDbBlockEnd
0
ENDSEC
0
SECTION
2
ENTITIES
0
CIRCLE
5
100
100
AcDbEntity
8
0
100
AcDbCircle
10
14.529548947089994
20
17.970000000000013
30
0
40
1.4700000000000024
210
0
220
-0
230
1
0
CIRCLE
5
101
100
AcDbEntity
8
0
100
AcDbCircle
10
-26.059999999999999
20
26.960000000000001
30
0
40
2.0000000000000018
210
0
220
0
230
1
0
CIRCLE
5
102
100
AcDbEntity
8
0
100
AcDbCircle
10
43.959999999999994
20
26.960000000000001
30
0
40
2.0000000000000018
210
0
220
0
230
1
0
CIRCLE
5
103
100
AcDbEntity
8
0
100
AcDbCircle
10
-26.060000000000002
20
-8.0600000000000094
30
0
40
2.0000000000000018
210
0
220
-0
230
1
0
CIRCLE
5
104
100
AcDbEntity
8
0
100
AcDbCircle
10
43.959999999999994
20
-8.0600000000000094
30
0
40
2.0000000000000018
210
0
220
0
230
1
0
LWPOLYLINE
5
105
100
AcDbEntity
8
0
100
AcDbPolyline
90
8
70
1
43
0.0
10
-30
20
-7.9999999999999973
42
0.4142135623730957
10
-25.999999999999996
20
-12.000000000000002
10
43.899999999999999
20
-12.000000000000002
42
0.41421356237309614
10
47.899999999999999
20
-8.0000000000000018
10
47.899999999999999
20
26.899999999999999
42
0.41421356237309764
10
43.899999999999999
20
30.899999999999995
10
-26.000000000000007
20
30.899999999999999
42
0.41421356237309437
10
-30.000000000000004
20
26.899999999999995
0
LWPOLYLINE
5
106
100
AcDbEntity
8
0
100
AcDbPolyline
90
2
70
1
43
0.0
10
22.475906362313999
20
27.121005024483456
42
3.4641110430546163
10
29.404093637686071
20
27.121005024483456
0
LWPOLYLINE
5
107
100
AcDbEntity
8
0
100
AcDbPolyline
90
2
70
1
43
0.0
10
-2.5240936376860756
20
27.121005024483456
42
3.4641110430545785
10
4.4040936376860573
20
27.121005024483456
0
CIRCLE
5
108
100
AcDbEntity
8
0
100
AcDbCircle
10
-13.470000000000047
20
17.470000000000024
30
0
40
2.8000000000000003
210
0
220
0
230
1
0
LWPOLYLINE
5
109
100
AcDbEntity
8
0
100
AcDbPolyline
90
14
70
1
43
0.0
10
-0.75729378299025207
20
1.4349999976397094
10
-3.1670990951525786
20
1.4350000010045572
10
-3.1770993157419869
20
1.4349999917514602
10
-5.5869048597542541
20
1.4349999976397094
42
-0.24385183393782495
10
-6.363353975972923
20
1.8376182597618036
10
-7.0985484381254178
20
2.8804756521221146
42
-0.15473268434361517
10
-7.2720993199999864
20
3.427857390000018
10
-7.2720993199999917
20
4.8850000000000211
42
-0.41421356237309609
10
-6.3220993199999924
20
5.8350000000000239
10
-0.022099319999986475
20
5.8350000000000239
42
-0.41421356237309748
10
0.92790068000001313
20
4.8850000000000193
10
0.92790068000000725
20
3.4278573900000184
42
-0.15473268434361098
10
0.75434979812544167
20
2.8804756521221178
10
0.019155335972944054
20
1.8376182597618029
42
-0.24385183470301419
0
ENDSEC
0
SECTION
2
OBJECTS
0
DICTIONARY
5
C
100
AcDbDictionary
3
ACAD_GROUP
350
D
3
ACAD_MLINESTYLE
350
17
0
DICTIONARY
5
D
100
AcDbDictionary
0
DICTIONARY
5
1A
330
C
100
AcDbDictionary
0
DICTIONARY
5
17
100
AcDbDictionary
0
ENDSEC
0
EOF
