%TF.GenerationSoftware,KiCad,Pcbnew,7.0.2*%
%TF.CreationDate,2023-08-08T17:36:33+02:00*%
%TF.ProjectId,pulse_generator_endplate_1455NF,70756c73-655f-4676-956e-657261746f72,rev?*%
%TF.SameCoordinates,Original*%
%TF.FileFunction,Soldermask,Top*%
%TF.FilePolarity,Negative*%
%FSLAX46Y46*%
G04 Gerber Fmt 4.6, Leading zero omitted, Abs format (unit mm)*
G04 Created by KiCad (PCBNEW 7.0.2) date 2023-08-08 17:36:33*
%MOMM*%
%LPD*%
G01*
G04 APERTURE LIST*
%ADD10C,0.600000*%
%ADD11C,8.002500*%
%ADD12C,7.852547*%
%ADD13C,0.500000*%
%ADD14C,0.900000*%
%ADD15C,8.600000*%
G04 APERTURE END LIST*
D10*
X188417272Y-65703962D02*
G75*
G03*
X192464113Y-69991428I1722528J-2427738D01*
G01*
D11*
X165501250Y-80600000D02*
G75*
G03*
X165501250Y-80600000I-4001250J0D01*
G01*
D12*
X140473726Y-80600000D02*
G75*
G03*
X140473726Y-80600000I-3926273J0D01*
G01*
D10*
X96896886Y-115537530D02*
G75*
G03*
X92850001Y-111250001I-1722486J2427830D01*
G01*
D13*
G36*
X120423339Y-71555940D02*
G01*
X120536163Y-71668764D01*
X120607142Y-71952679D01*
X120607142Y-72557794D01*
X120536163Y-72841710D01*
X120423338Y-72954535D01*
X120321935Y-73005238D01*
X120059016Y-73005238D01*
X119957613Y-72954537D01*
X119844787Y-72841710D01*
X119773809Y-72557794D01*
X119773809Y-71952680D01*
X119844787Y-71668764D01*
X119957612Y-71555939D01*
X120059016Y-71505238D01*
X120321935Y-71505238D01*
X120423339Y-71555940D01*
G37*
G36*
X126317857Y-74535714D02*
G01*
X117682143Y-74535714D01*
X117682143Y-72577990D01*
X119263470Y-72577990D01*
X119273809Y-72619346D01*
X119273809Y-72624515D01*
X119282505Y-72654134D01*
X119375571Y-73026398D01*
X119390363Y-73094393D01*
X119419625Y-73123655D01*
X119440564Y-73159345D01*
X119470468Y-73174498D01*
X119610581Y-73314611D01*
X119632062Y-73350778D01*
X119693692Y-73381593D01*
X119754137Y-73414599D01*
X119759006Y-73414250D01*
X119876160Y-73472827D01*
X119926592Y-73505238D01*
X119977682Y-73505238D01*
X120027968Y-73514287D01*
X120049786Y-73505238D01*
X120367495Y-73505238D01*
X120427098Y-73511673D01*
X120472795Y-73488824D01*
X120521818Y-73474430D01*
X120537285Y-73456579D01*
X120655195Y-73397624D01*
X120696299Y-73388683D01*
X120745015Y-73339965D01*
X120795448Y-73293054D01*
X120796657Y-73288323D01*
X120935947Y-73149032D01*
X120986636Y-73101372D01*
X120996673Y-73061223D01*
X121016503Y-73024907D01*
X121014111Y-72991469D01*
X121031870Y-72920431D01*
X121457850Y-72920431D01*
X121480698Y-72966128D01*
X121495093Y-73015151D01*
X121512943Y-73030618D01*
X121571897Y-73148527D01*
X121580839Y-73189630D01*
X121629552Y-73238343D01*
X121676469Y-73288781D01*
X121681198Y-73289990D01*
X121705818Y-73314610D01*
X121727300Y-73350778D01*
X121788930Y-73381593D01*
X121849375Y-73414599D01*
X121854245Y-73414250D01*
X121971398Y-73472827D01*
X122021830Y-73505238D01*
X122072920Y-73505238D01*
X122123206Y-73514287D01*
X122145024Y-73505238D01*
X122462733Y-73505238D01*
X122522336Y-73511673D01*
X122568033Y-73488824D01*
X122617056Y-73474430D01*
X122632523Y-73456579D01*
X122750433Y-73397624D01*
X122791537Y-73388683D01*
X122840251Y-73339968D01*
X122890686Y-73293054D01*
X122891895Y-73288323D01*
X122916516Y-73263702D01*
X122952682Y-73242222D01*
X122983493Y-73180599D01*
X123016504Y-73120144D01*
X123016155Y-73115274D01*
X123074731Y-72998123D01*
X123107142Y-72947692D01*
X123107142Y-72896601D01*
X123116191Y-72846316D01*
X123107141Y-72824498D01*
X123107142Y-71292319D01*
X123265907Y-71292319D01*
X123326895Y-71425865D01*
X123450402Y-71505238D01*
X123845237Y-71505238D01*
X123845237Y-73291182D01*
X123876045Y-73396104D01*
X123986999Y-73492246D01*
X124132318Y-73513140D01*
X124265864Y-73452152D01*
X124345237Y-73328645D01*
X124345237Y-71505238D01*
X124702610Y-71505238D01*
X124807532Y-71474430D01*
X124903674Y-71363476D01*
X124924568Y-71218157D01*
X124863580Y-71084611D01*
X124740073Y-71005238D01*
X124113115Y-71005238D01*
X124058156Y-70997336D01*
X124040853Y-71005238D01*
X123487865Y-71005238D01*
X123382943Y-71036046D01*
X123286801Y-71147000D01*
X123265907Y-71292319D01*
X123107142Y-71292319D01*
X123107142Y-71219294D01*
X123076334Y-71114372D01*
X122965380Y-71018230D01*
X122820061Y-70997336D01*
X122686515Y-71058324D01*
X122607142Y-71181831D01*
X122607142Y-72815268D01*
X122556440Y-72916671D01*
X122518576Y-72954535D01*
X122417173Y-73005238D01*
X122154254Y-73005238D01*
X122052852Y-72954537D01*
X122014987Y-72916671D01*
X121964285Y-72815267D01*
X121964285Y-71219294D01*
X121933477Y-71114372D01*
X121822523Y-71018230D01*
X121677204Y-70997336D01*
X121543658Y-71058324D01*
X121464285Y-71181831D01*
X121464285Y-72860827D01*
X121457850Y-72920431D01*
X121031870Y-72920431D01*
X121089698Y-72689120D01*
X121107142Y-72661978D01*
X121107142Y-72619346D01*
X121108395Y-72614334D01*
X121107142Y-72583506D01*
X121107142Y-71963046D01*
X121117481Y-71932485D01*
X121107142Y-71891128D01*
X121107142Y-71885960D01*
X121098445Y-71856341D01*
X121005373Y-71484053D01*
X120990587Y-71416082D01*
X120961325Y-71386820D01*
X120940386Y-71351130D01*
X120910481Y-71335976D01*
X120770369Y-71195864D01*
X120748889Y-71159698D01*
X120687265Y-71128886D01*
X120626813Y-71095877D01*
X120621943Y-71096225D01*
X120504796Y-71037652D01*
X120454359Y-71005238D01*
X120403263Y-71005238D01*
X120352983Y-70996190D01*
X120331167Y-71005238D01*
X120013462Y-71005238D01*
X119953853Y-70998802D01*
X119908151Y-71021652D01*
X119859133Y-71036046D01*
X119843666Y-71053895D01*
X119725754Y-71112851D01*
X119684653Y-71121793D01*
X119635944Y-71170501D01*
X119585503Y-71217422D01*
X119584293Y-71222152D01*
X119444998Y-71361447D01*
X119394315Y-71409103D01*
X119384278Y-71449250D01*
X119364448Y-71485567D01*
X119366839Y-71519005D01*
X119291252Y-71821354D01*
X119273809Y-71848497D01*
X119273809Y-71891128D01*
X119272556Y-71896141D01*
X119273809Y-71926968D01*
X119273809Y-72547428D01*
X119263470Y-72577990D01*
X117682143Y-72577990D01*
X117682143Y-69214286D01*
X126317857Y-69214286D01*
X126317857Y-74535714D01*
G37*
G36*
X152234524Y-74535714D02*
G01*
X146265477Y-74535714D01*
X146265477Y-73291182D01*
X147952381Y-73291182D01*
X147983189Y-73396104D01*
X148094143Y-73492246D01*
X148239462Y-73513140D01*
X148373008Y-73452152D01*
X148452381Y-73328645D01*
X148452381Y-71315538D01*
X148901281Y-71315538D01*
X148904762Y-71321629D01*
X148904762Y-73291182D01*
X148935570Y-73396104D01*
X149046524Y-73492246D01*
X149191843Y-73513140D01*
X149325389Y-73452152D01*
X149404762Y-73328645D01*
X149404762Y-72196629D01*
X150066009Y-73353812D01*
X150078427Y-73396104D01*
X150128981Y-73439909D01*
X150177196Y-73486293D01*
X150184078Y-73487651D01*
X150189381Y-73492246D01*
X150255600Y-73501767D01*
X150321231Y-73514720D01*
X150327755Y-73512141D01*
X150334700Y-73513140D01*
X150395563Y-73485344D01*
X150457769Y-73460762D01*
X150461862Y-73455067D01*
X150468246Y-73452152D01*
X150504422Y-73395860D01*
X150543461Y-73341552D01*
X150543825Y-73334547D01*
X150547619Y-73328645D01*
X150547619Y-73261748D01*
X150551100Y-73194938D01*
X150547619Y-73188846D01*
X150547619Y-71219294D01*
X150516811Y-71114372D01*
X150405857Y-71018230D01*
X150260538Y-70997336D01*
X150126992Y-71058324D01*
X150047619Y-71181831D01*
X150047619Y-72313846D01*
X149386371Y-71156663D01*
X149373954Y-71114372D01*
X149323403Y-71070570D01*
X149275185Y-71024182D01*
X149268301Y-71022823D01*
X149263000Y-71018230D01*
X149196788Y-71008710D01*
X149131150Y-70995756D01*
X149124625Y-70998334D01*
X149117681Y-70997336D01*
X149056821Y-71025129D01*
X148994611Y-71049714D01*
X148990516Y-71055409D01*
X148984135Y-71058324D01*
X148947965Y-71114604D01*
X148908920Y-71168923D01*
X148908554Y-71175929D01*
X148904762Y-71181831D01*
X148904762Y-71248727D01*
X148901281Y-71315538D01*
X148452381Y-71315538D01*
X148452381Y-71219294D01*
X148421573Y-71114372D01*
X148310619Y-71018230D01*
X148165300Y-70997336D01*
X148031754Y-71058324D01*
X147952381Y-71181831D01*
X147952381Y-73291182D01*
X146265477Y-73291182D01*
X146265477Y-69214286D01*
X152234524Y-69214286D01*
X152234524Y-74535714D01*
G37*
D14*
%TO.C,J1*%
X177775000Y-80719581D03*
X178719581Y-78439162D03*
X178719581Y-83000000D03*
X181000000Y-77494581D03*
D15*
X181000000Y-80719581D03*
D14*
X181000000Y-83944581D03*
X183280419Y-78439162D03*
X183280419Y-83000000D03*
X184225000Y-80719581D03*
%TD*%
M02*
