<?xml version="1.0" encoding="utf-8"?>
<!-- Generator: Adobe Illustrator 24.0.2, SVG Export Plug-In . SVG Version: 6.00 Build 0)  -->
<svg version="1.1" id="Lag_1" xmlns="http://www.w3.org/2000/svg" xmlns:xlink="http://www.w3.org/1999/xlink" x="0px" y="0px"
	 viewBox="0 0 595.28 841.89" style="enable-background:new 0 0 595.28 841.89;" xml:space="preserve">
<g>
	<path d="M93.74,327.5h62.13c24.13,0,38.85-5.48,47.78-17.04c13.17-15.78,13.59-41.23,13.59-80.28v-53.3
		c0-39.04-0.42-64.51-13.59-80.28c-8.93-11.55-23.65-17.04-47.78-17.04H93.74c-1.86,0-3.01,0.56-3.82,1.38
		c-0.83,0.83-1.39,1.96-1.39,3.84v237.54c0,1.85,0.56,3,1.39,3.82C90.73,326.95,91.88,327.5,93.74,327.5z M127.94,108.54h21.92
		c9.67,0,15.43,1.58,19.93,6.94c6.89,8.27,7.5,24.99,7.5,58.68v58.74c0,33.7-0.61,50.39-7.5,58.68c-4.5,5.36-10.26,6.93-19.93,6.93
		h-21.92V108.54z"/>
	<path d="M441.38,330.63c24.41,0,40.14-6.53,49.82-17.78c11.36-13.21,14.16-28.95,14.16-52.67V84.77c0-1.88-0.57-3.01-1.41-3.84
		c-0.79-0.82-1.94-1.38-3.79-1.38h-29.05c-1.86,0-3,0.56-3.82,1.38c-0.81,0.83-1.39,1.96-1.39,3.84v175.35
		c0,18.3-1.37,29.19-7.33,35.72c-4.03,4.42-9.72,6.59-17.73,6.59c-7.23,0-12.75-2.01-16.94-6.63c-5.62-6.2-7.34-16.71-7.34-35.68
		V84.77c0-1.88-0.55-3.01-1.38-3.84c-0.82-0.82-1.96-1.38-3.83-1.38h-29.02c-1.88,0-3.01,0.56-3.84,1.38
		c-0.83,0.83-1.36,1.96-1.36,3.84v175.42c0,25.53,3.46,41.55,13.61,52.69C401.29,324.48,417.21,330.63,441.38,330.63z"/>
	<path d="M238.4,110.89h37.31v211.42c0,1.85,0.53,3,1.36,3.82c0.82,0.82,1.96,1.37,3.82,1.37h31.76c1.87,0,3-0.55,3.82-1.37
		c0.84-0.82,1.38-1.96,1.38-3.82V110.89h37.31c1.86,0,2.99-0.55,3.84-1.37c0.8-0.82,1.37-1.96,1.37-3.82V84.77
		c0-1.88-0.56-3.01-1.37-3.84c-0.85-0.82-1.98-1.38-3.84-1.38H238.4c-1.87,0-3.01,0.56-3.84,1.38c-0.83,0.83-1.39,1.96-1.39,3.84
		v20.93c0,1.86,0.56,3,1.39,3.82C235.4,110.34,236.53,110.89,238.4,110.89z"/>
	<path d="M432.06,503.86l99.6-52.27l-99.6-52.31c-129.01,50.19-139.88,50.19-268.86,0l-99.6,52.31l99.6,52.27
		C292.19,453.69,303.06,453.69,432.06,503.86z"/>
	<path d="M163.21,528.52l-99.6,52.3l99.6,52.27c128.98-50.17,139.85-50.17,268.86,0l99.6-52.27l-99.6-52.3
		C303.06,578.7,292.19,578.7,163.21,528.52z"/>
	<path d="M163.21,657.77l-99.6,52.27l99.6,52.29c128.98-50.17,139.85-50.17,268.86,0l99.6-52.29l-99.6-52.27
		C303.06,707.94,292.19,707.94,163.21,657.77z"/>
</g>
</svg>
