%TF.GenerationSoftware,KiCad,Pcbnew,7.0.2*%
%TF.CreationDate,2023-10-12T23:05:12+02:00*%
%TF.ProjectId,pulse_generator_endplate_v2,70756c73-655f-4676-956e-657261746f72,rev?*%
%TF.SameCoordinates,Original*%
%TF.FileFunction,Soldermask,Top*%
%TF.FilePolarity,Negative*%
%FSLAX46Y46*%
G04 Gerber Fmt 4.6, Leading zero omitted, Abs format (unit mm)*
G04 Created by KiCad (PCBNEW 7.0.2) date 2023-10-12 23:05:12*
%MOMM*%
%LPD*%
G01*
G04 APERTURE LIST*
%ADD10C,0.600000*%
%ADD11C,8.002500*%
%ADD12C,7.852547*%
%ADD13C,0.500000*%
G04 APERTURE END LIST*
D10*
X188417272Y-65703962D02*
G75*
G03*
X192464113Y-69991428I1722528J-2427738D01*
G01*
D11*
X165251250Y-82500000D02*
G75*
G03*
X165251250Y-82500000I-4001250J0D01*
G01*
D12*
X140176273Y-82500000D02*
G75*
G03*
X140176273Y-82500000I-3926273J0D01*
G01*
D10*
X96896886Y-115537530D02*
G75*
G03*
X92850001Y-111250001I-1722486J2427830D01*
G01*
D13*
G36*
X119023339Y-70955940D02*
G01*
X119136163Y-71068764D01*
X119207141Y-71352679D01*
X119207141Y-71957794D01*
X119136163Y-72241710D01*
X119023338Y-72354535D01*
X118921935Y-72405238D01*
X118659016Y-72405238D01*
X118557613Y-72354537D01*
X118444787Y-72241710D01*
X118373808Y-71957794D01*
X118373808Y-71352680D01*
X118444787Y-71068764D01*
X118557612Y-70955939D01*
X118659016Y-70905238D01*
X118921935Y-70905238D01*
X119023339Y-70955940D01*
G37*
G36*
X124917857Y-73935714D02*
G01*
X116282143Y-73935714D01*
X116282143Y-71977990D01*
X117863470Y-71977990D01*
X117873809Y-72019346D01*
X117873809Y-72024515D01*
X117882505Y-72054134D01*
X117975571Y-72426398D01*
X117990363Y-72494393D01*
X118019625Y-72523655D01*
X118040564Y-72559345D01*
X118070468Y-72574498D01*
X118210581Y-72714611D01*
X118232062Y-72750778D01*
X118293692Y-72781593D01*
X118354137Y-72814599D01*
X118359006Y-72814250D01*
X118476160Y-72872827D01*
X118526592Y-72905238D01*
X118577682Y-72905238D01*
X118627968Y-72914287D01*
X118649786Y-72905238D01*
X118967495Y-72905238D01*
X119027098Y-72911673D01*
X119072795Y-72888824D01*
X119121818Y-72874430D01*
X119137285Y-72856579D01*
X119255195Y-72797624D01*
X119296299Y-72788683D01*
X119345015Y-72739965D01*
X119395448Y-72693054D01*
X119396657Y-72688323D01*
X119535947Y-72549032D01*
X119586636Y-72501372D01*
X119596673Y-72461223D01*
X119616503Y-72424907D01*
X119614111Y-72391469D01*
X119631870Y-72320431D01*
X120057850Y-72320431D01*
X120080698Y-72366128D01*
X120095093Y-72415151D01*
X120112943Y-72430618D01*
X120171897Y-72548527D01*
X120180839Y-72589630D01*
X120229552Y-72638343D01*
X120276469Y-72688781D01*
X120281198Y-72689990D01*
X120305818Y-72714610D01*
X120327300Y-72750778D01*
X120388930Y-72781593D01*
X120449375Y-72814599D01*
X120454245Y-72814250D01*
X120571398Y-72872827D01*
X120621830Y-72905238D01*
X120672920Y-72905238D01*
X120723206Y-72914287D01*
X120745024Y-72905238D01*
X121062733Y-72905238D01*
X121122336Y-72911673D01*
X121168033Y-72888824D01*
X121217056Y-72874430D01*
X121232523Y-72856579D01*
X121350433Y-72797624D01*
X121391537Y-72788683D01*
X121440251Y-72739968D01*
X121490686Y-72693054D01*
X121491895Y-72688323D01*
X121516516Y-72663702D01*
X121552682Y-72642222D01*
X121583493Y-72580599D01*
X121616504Y-72520144D01*
X121616155Y-72515274D01*
X121674731Y-72398123D01*
X121707142Y-72347692D01*
X121707142Y-72296601D01*
X121716191Y-72246316D01*
X121707142Y-72224498D01*
X121707142Y-70692319D01*
X121865907Y-70692319D01*
X121926895Y-70825865D01*
X122050402Y-70905238D01*
X122445237Y-70905238D01*
X122445237Y-72691182D01*
X122476045Y-72796104D01*
X122586999Y-72892246D01*
X122732318Y-72913140D01*
X122865864Y-72852152D01*
X122945237Y-72728645D01*
X122945237Y-70905238D01*
X123302610Y-70905238D01*
X123407532Y-70874430D01*
X123503674Y-70763476D01*
X123524568Y-70618157D01*
X123463580Y-70484611D01*
X123340073Y-70405238D01*
X122713115Y-70405238D01*
X122658156Y-70397336D01*
X122640853Y-70405238D01*
X122087865Y-70405238D01*
X121982943Y-70436046D01*
X121886801Y-70547000D01*
X121865907Y-70692319D01*
X121707142Y-70692319D01*
X121707142Y-70619294D01*
X121676334Y-70514372D01*
X121565380Y-70418230D01*
X121420061Y-70397336D01*
X121286515Y-70458324D01*
X121207142Y-70581831D01*
X121207142Y-72215268D01*
X121156440Y-72316671D01*
X121118576Y-72354535D01*
X121017173Y-72405238D01*
X120754254Y-72405238D01*
X120652852Y-72354537D01*
X120614987Y-72316671D01*
X120564285Y-72215267D01*
X120564285Y-70619294D01*
X120533477Y-70514372D01*
X120422523Y-70418230D01*
X120277204Y-70397336D01*
X120143658Y-70458324D01*
X120064285Y-70581831D01*
X120064285Y-72260827D01*
X120057850Y-72320431D01*
X119631870Y-72320431D01*
X119689698Y-72089120D01*
X119707142Y-72061978D01*
X119707142Y-72019346D01*
X119708395Y-72014334D01*
X119707142Y-71983506D01*
X119707142Y-71363046D01*
X119717481Y-71332485D01*
X119707142Y-71291128D01*
X119707142Y-71285960D01*
X119698445Y-71256341D01*
X119605373Y-70884053D01*
X119590587Y-70816082D01*
X119561325Y-70786820D01*
X119540386Y-70751130D01*
X119510481Y-70735976D01*
X119370369Y-70595864D01*
X119348889Y-70559698D01*
X119287265Y-70528886D01*
X119226813Y-70495877D01*
X119221943Y-70496225D01*
X119104796Y-70437652D01*
X119054359Y-70405238D01*
X119003263Y-70405238D01*
X118952983Y-70396190D01*
X118931167Y-70405238D01*
X118613462Y-70405238D01*
X118553853Y-70398802D01*
X118508151Y-70421652D01*
X118459133Y-70436046D01*
X118443666Y-70453895D01*
X118325754Y-70512851D01*
X118284653Y-70521793D01*
X118235944Y-70570501D01*
X118185503Y-70617422D01*
X118184293Y-70622152D01*
X118044998Y-70761447D01*
X117994315Y-70809103D01*
X117984278Y-70849250D01*
X117964448Y-70885567D01*
X117966839Y-70919005D01*
X117891252Y-71221354D01*
X117873809Y-71248497D01*
X117873809Y-71291128D01*
X117872556Y-71296141D01*
X117873809Y-71326968D01*
X117873809Y-71947428D01*
X117863470Y-71977990D01*
X116282143Y-71977990D01*
X116282143Y-68614286D01*
X124917857Y-68614286D01*
X124917857Y-73935714D01*
G37*
G36*
X151884524Y-73935714D02*
G01*
X145915477Y-73935714D01*
X145915477Y-72691182D01*
X147602381Y-72691182D01*
X147633189Y-72796104D01*
X147744143Y-72892246D01*
X147889462Y-72913140D01*
X148023008Y-72852152D01*
X148102381Y-72728645D01*
X148102381Y-70715538D01*
X148551281Y-70715538D01*
X148554762Y-70721629D01*
X148554762Y-72691182D01*
X148585570Y-72796104D01*
X148696524Y-72892246D01*
X148841843Y-72913140D01*
X148975389Y-72852152D01*
X149054762Y-72728645D01*
X149054762Y-71596629D01*
X149716009Y-72753812D01*
X149728427Y-72796104D01*
X149778981Y-72839909D01*
X149827196Y-72886293D01*
X149834078Y-72887651D01*
X149839381Y-72892246D01*
X149905600Y-72901767D01*
X149971231Y-72914720D01*
X149977755Y-72912141D01*
X149984700Y-72913140D01*
X150045563Y-72885344D01*
X150107769Y-72860762D01*
X150111862Y-72855067D01*
X150118246Y-72852152D01*
X150154422Y-72795860D01*
X150193461Y-72741552D01*
X150193825Y-72734547D01*
X150197619Y-72728645D01*
X150197619Y-72661748D01*
X150201100Y-72594938D01*
X150197619Y-72588846D01*
X150197619Y-70619294D01*
X150166811Y-70514372D01*
X150055857Y-70418230D01*
X149910538Y-70397336D01*
X149776992Y-70458324D01*
X149697619Y-70581831D01*
X149697619Y-71713846D01*
X149036371Y-70556663D01*
X149023954Y-70514372D01*
X148973403Y-70470570D01*
X148925185Y-70424182D01*
X148918301Y-70422823D01*
X148913000Y-70418230D01*
X148846788Y-70408710D01*
X148781150Y-70395756D01*
X148774625Y-70398334D01*
X148767681Y-70397336D01*
X148706821Y-70425129D01*
X148644611Y-70449714D01*
X148640516Y-70455409D01*
X148634135Y-70458324D01*
X148597965Y-70514604D01*
X148558920Y-70568923D01*
X148558554Y-70575929D01*
X148554762Y-70581831D01*
X148554762Y-70648727D01*
X148551281Y-70715538D01*
X148102381Y-70715538D01*
X148102381Y-70619294D01*
X148071573Y-70514372D01*
X147960619Y-70418230D01*
X147815300Y-70397336D01*
X147681754Y-70458324D01*
X147602381Y-70581831D01*
X147602381Y-72691182D01*
X145915477Y-72691182D01*
X145915477Y-68614286D01*
X151884524Y-68614286D01*
X151884524Y-73935714D01*
G37*
M02*
