%TF.GenerationSoftware,KiCad,Pcbnew,7.0.2*%
%TF.CreationDate,2023-10-12T23:05:12+02:00*%
%TF.ProjectId,pulse_generator_endplate_v2,70756c73-655f-4676-956e-657261746f72,rev?*%
%TF.SameCoordinates,Original*%
%TF.FileFunction,Legend,Top*%
%TF.FilePolarity,Positive*%
%FSLAX46Y46*%
G04 Gerber Fmt 4.6, Leading zero omitted, Abs format (unit mm)*
G04 Created by KiCad (PCBNEW 7.0.2) date 2023-10-12 23:05:12*
%MOMM*%
%LPD*%
G01*
G04 APERTURE LIST*
%ADD10C,0.200000*%
%ADD11C,0.500000*%
%ADD12C,0.300000*%
%ADD13C,0.250000*%
G04 APERTURE END LIST*
D10*
X157661905Y-70540904D02*
X157042857Y-70540904D01*
X157042857Y-70540904D02*
X156980953Y-71159952D01*
X156980953Y-71159952D02*
X157042857Y-71098047D01*
X157042857Y-71098047D02*
X157166667Y-71036142D01*
X157166667Y-71036142D02*
X157476191Y-71036142D01*
X157476191Y-71036142D02*
X157600000Y-71098047D01*
X157600000Y-71098047D02*
X157661905Y-71159952D01*
X157661905Y-71159952D02*
X157723810Y-71283761D01*
X157723810Y-71283761D02*
X157723810Y-71593285D01*
X157723810Y-71593285D02*
X157661905Y-71717095D01*
X157661905Y-71717095D02*
X157600000Y-71779000D01*
X157600000Y-71779000D02*
X157476191Y-71840904D01*
X157476191Y-71840904D02*
X157166667Y-71840904D01*
X157166667Y-71840904D02*
X157042857Y-71779000D01*
X157042857Y-71779000D02*
X156980953Y-71717095D01*
X158095238Y-70540904D02*
X158528571Y-71840904D01*
X158528571Y-71840904D02*
X158961905Y-70540904D01*
X159395238Y-70974238D02*
X159395238Y-72274238D01*
X159395238Y-71036142D02*
X159519048Y-70974238D01*
X159519048Y-70974238D02*
X159766667Y-70974238D01*
X159766667Y-70974238D02*
X159890476Y-71036142D01*
X159890476Y-71036142D02*
X159952381Y-71098047D01*
X159952381Y-71098047D02*
X160014286Y-71221857D01*
X160014286Y-71221857D02*
X160014286Y-71593285D01*
X160014286Y-71593285D02*
X159952381Y-71717095D01*
X159952381Y-71717095D02*
X159890476Y-71779000D01*
X159890476Y-71779000D02*
X159766667Y-71840904D01*
X159766667Y-71840904D02*
X159519048Y-71840904D01*
X159519048Y-71840904D02*
X159395238Y-71779000D01*
X160571428Y-70974238D02*
X160571428Y-72274238D01*
X160571428Y-71036142D02*
X160695238Y-70974238D01*
X160695238Y-70974238D02*
X160942857Y-70974238D01*
X160942857Y-70974238D02*
X161066666Y-71036142D01*
X161066666Y-71036142D02*
X161128571Y-71098047D01*
X161128571Y-71098047D02*
X161190476Y-71221857D01*
X161190476Y-71221857D02*
X161190476Y-71593285D01*
X161190476Y-71593285D02*
X161128571Y-71717095D01*
X161128571Y-71717095D02*
X161066666Y-71779000D01*
X161066666Y-71779000D02*
X160942857Y-71840904D01*
X160942857Y-71840904D02*
X160695238Y-71840904D01*
X160695238Y-71840904D02*
X160571428Y-71779000D01*
X162738094Y-71840904D02*
X162738094Y-70540904D01*
X162738094Y-70540904D02*
X163171428Y-71469476D01*
X163171428Y-71469476D02*
X163604761Y-70540904D01*
X163604761Y-70540904D02*
X163604761Y-71840904D01*
X164161904Y-71469476D02*
X164780951Y-71469476D01*
X164038094Y-71840904D02*
X164471427Y-70540904D01*
X164471427Y-70540904D02*
X164904761Y-71840904D01*
X165214285Y-70540904D02*
X166080951Y-71840904D01*
X166080951Y-70540904D02*
X165214285Y-71840904D01*
X135076191Y-70540904D02*
X134457143Y-70540904D01*
X134457143Y-70540904D02*
X134395239Y-71159952D01*
X134395239Y-71159952D02*
X134457143Y-71098047D01*
X134457143Y-71098047D02*
X134580953Y-71036142D01*
X134580953Y-71036142D02*
X134890477Y-71036142D01*
X134890477Y-71036142D02*
X135014286Y-71098047D01*
X135014286Y-71098047D02*
X135076191Y-71159952D01*
X135076191Y-71159952D02*
X135138096Y-71283761D01*
X135138096Y-71283761D02*
X135138096Y-71593285D01*
X135138096Y-71593285D02*
X135076191Y-71717095D01*
X135076191Y-71717095D02*
X135014286Y-71779000D01*
X135014286Y-71779000D02*
X134890477Y-71840904D01*
X134890477Y-71840904D02*
X134580953Y-71840904D01*
X134580953Y-71840904D02*
X134457143Y-71779000D01*
X134457143Y-71779000D02*
X134395239Y-71717095D01*
X135509524Y-70540904D02*
X135942857Y-71840904D01*
X135942857Y-71840904D02*
X136376191Y-70540904D01*
X136809524Y-70974238D02*
X136809524Y-72274238D01*
X136809524Y-71036142D02*
X136933334Y-70974238D01*
X136933334Y-70974238D02*
X137180953Y-70974238D01*
X137180953Y-70974238D02*
X137304762Y-71036142D01*
X137304762Y-71036142D02*
X137366667Y-71098047D01*
X137366667Y-71098047D02*
X137428572Y-71221857D01*
X137428572Y-71221857D02*
X137428572Y-71593285D01*
X137428572Y-71593285D02*
X137366667Y-71717095D01*
X137366667Y-71717095D02*
X137304762Y-71779000D01*
X137304762Y-71779000D02*
X137180953Y-71840904D01*
X137180953Y-71840904D02*
X136933334Y-71840904D01*
X136933334Y-71840904D02*
X136809524Y-71779000D01*
X137985714Y-70974238D02*
X137985714Y-72274238D01*
X137985714Y-71036142D02*
X138109524Y-70974238D01*
X138109524Y-70974238D02*
X138357143Y-70974238D01*
X138357143Y-70974238D02*
X138480952Y-71036142D01*
X138480952Y-71036142D02*
X138542857Y-71098047D01*
X138542857Y-71098047D02*
X138604762Y-71221857D01*
X138604762Y-71221857D02*
X138604762Y-71593285D01*
X138604762Y-71593285D02*
X138542857Y-71717095D01*
X138542857Y-71717095D02*
X138480952Y-71779000D01*
X138480952Y-71779000D02*
X138357143Y-71840904D01*
X138357143Y-71840904D02*
X138109524Y-71840904D01*
X138109524Y-71840904D02*
X137985714Y-71779000D01*
D11*
X178500000Y-94750000D02*
X183500000Y-94750000D01*
X145450009Y-73861091D02*
G75*
G03*
X146000000Y-74411091I549991J-9D01*
G01*
X146000000Y-68211092D02*
X151700001Y-68211092D01*
X167000000Y-93400000D02*
X136250000Y-93400000D01*
X181000000Y-91750000D02*
X168650000Y-91750000D01*
X161250000Y-93400000D02*
X161250000Y-92400000D01*
D12*
X95200000Y-64900000D02*
X190137258Y-64862742D01*
D11*
X181000000Y-90400000D02*
X181000000Y-94750000D01*
D12*
X190200000Y-116200000D02*
X95200000Y-116200000D01*
D11*
X116400000Y-68200000D02*
X124800000Y-68200000D01*
D12*
X92062742Y-113000000D02*
X92000000Y-68200000D01*
D11*
X115800000Y-73850000D02*
G75*
G03*
X116350000Y-74400000I550000J0D01*
G01*
X116350001Y-68200001D02*
G75*
G03*
X115800001Y-68750001I-1J-549999D01*
G01*
D12*
X190100000Y-116200000D02*
G75*
G03*
X193300000Y-113000000I0J3200000D01*
G01*
D11*
X146000001Y-68211101D02*
G75*
G03*
X145450001Y-68761092I-1J-549999D01*
G01*
D12*
X92062700Y-113000000D02*
G75*
G03*
X95262742Y-116200000I3200000J0D01*
G01*
D11*
X152300001Y-68761092D02*
X152300001Y-73861092D01*
X168650000Y-91750000D02*
X167000000Y-93400000D01*
X145450000Y-73861091D02*
X145450000Y-68761091D01*
X136250000Y-93400000D02*
X136250000Y-92600000D01*
X146000000Y-74411091D02*
X151700001Y-74411091D01*
X180500000Y-96800000D02*
X181500000Y-96800000D01*
X151750000Y-74411100D02*
G75*
G03*
X152300000Y-73861091I0J550000D01*
G01*
X124849999Y-74399999D02*
G75*
G03*
X125399999Y-73849999I1J549999D01*
G01*
D12*
X95200000Y-64900000D02*
G75*
G03*
X92000000Y-68100000I0J-3200000D01*
G01*
D11*
X179500000Y-95800000D02*
X182500000Y-95800000D01*
X125400000Y-68750000D02*
G75*
G03*
X124850000Y-68200000I-550000J0D01*
G01*
X152300008Y-68761092D02*
G75*
G03*
X151750001Y-68211092I-550008J-8D01*
G01*
D12*
X193337258Y-68062742D02*
X193300000Y-113000000D01*
D11*
X115800000Y-73850000D02*
X115800000Y-68750000D01*
X124800000Y-74400000D02*
X116400000Y-74400000D01*
D12*
X193337258Y-68062742D02*
G75*
G03*
X190137258Y-64862742I-3199958J42D01*
G01*
D11*
X125400000Y-68750000D02*
X125400000Y-73850000D01*
D12*
X101428571Y-109779714D02*
X101428571Y-107979714D01*
X101428571Y-107979714D02*
X101857142Y-107979714D01*
X101857142Y-107979714D02*
X102114285Y-108065428D01*
X102114285Y-108065428D02*
X102285714Y-108236857D01*
X102285714Y-108236857D02*
X102371428Y-108408285D01*
X102371428Y-108408285D02*
X102457142Y-108751142D01*
X102457142Y-108751142D02*
X102457142Y-109008285D01*
X102457142Y-109008285D02*
X102371428Y-109351142D01*
X102371428Y-109351142D02*
X102285714Y-109522571D01*
X102285714Y-109522571D02*
X102114285Y-109694000D01*
X102114285Y-109694000D02*
X101857142Y-109779714D01*
X101857142Y-109779714D02*
X101428571Y-109779714D01*
X104000000Y-109779714D02*
X104000000Y-108836857D01*
X104000000Y-108836857D02*
X103914285Y-108665428D01*
X103914285Y-108665428D02*
X103742857Y-108579714D01*
X103742857Y-108579714D02*
X103400000Y-108579714D01*
X103400000Y-108579714D02*
X103228571Y-108665428D01*
X104000000Y-109694000D02*
X103828571Y-109779714D01*
X103828571Y-109779714D02*
X103400000Y-109779714D01*
X103400000Y-109779714D02*
X103228571Y-109694000D01*
X103228571Y-109694000D02*
X103142857Y-109522571D01*
X103142857Y-109522571D02*
X103142857Y-109351142D01*
X103142857Y-109351142D02*
X103228571Y-109179714D01*
X103228571Y-109179714D02*
X103400000Y-109094000D01*
X103400000Y-109094000D02*
X103828571Y-109094000D01*
X103828571Y-109094000D02*
X104000000Y-109008285D01*
X104857142Y-108579714D02*
X104857142Y-109779714D01*
X104857142Y-108751142D02*
X104942856Y-108665428D01*
X104942856Y-108665428D02*
X105114285Y-108579714D01*
X105114285Y-108579714D02*
X105371428Y-108579714D01*
X105371428Y-108579714D02*
X105542856Y-108665428D01*
X105542856Y-108665428D02*
X105628571Y-108836857D01*
X105628571Y-108836857D02*
X105628571Y-109779714D01*
X106485713Y-109779714D02*
X106485713Y-108579714D01*
X106485713Y-107979714D02*
X106399999Y-108065428D01*
X106399999Y-108065428D02*
X106485713Y-108151142D01*
X106485713Y-108151142D02*
X106571427Y-108065428D01*
X106571427Y-108065428D02*
X106485713Y-107979714D01*
X106485713Y-107979714D02*
X106485713Y-108151142D01*
X108028570Y-109694000D02*
X107857142Y-109779714D01*
X107857142Y-109779714D02*
X107514285Y-109779714D01*
X107514285Y-109779714D02*
X107342856Y-109694000D01*
X107342856Y-109694000D02*
X107257142Y-109522571D01*
X107257142Y-109522571D02*
X107257142Y-108836857D01*
X107257142Y-108836857D02*
X107342856Y-108665428D01*
X107342856Y-108665428D02*
X107514285Y-108579714D01*
X107514285Y-108579714D02*
X107857142Y-108579714D01*
X107857142Y-108579714D02*
X108028570Y-108665428D01*
X108028570Y-108665428D02*
X108114285Y-108836857D01*
X108114285Y-108836857D02*
X108114285Y-109008285D01*
X108114285Y-109008285D02*
X107257142Y-109179714D01*
X109142856Y-109779714D02*
X108971427Y-109694000D01*
X108971427Y-109694000D02*
X108885713Y-109522571D01*
X108885713Y-109522571D02*
X108885713Y-107979714D01*
X112657142Y-109779714D02*
X112571428Y-109779714D01*
X112571428Y-109779714D02*
X112399999Y-109694000D01*
X112399999Y-109694000D02*
X112142856Y-109436857D01*
X112142856Y-109436857D02*
X111714285Y-108922571D01*
X111714285Y-108922571D02*
X111542856Y-108665428D01*
X111542856Y-108665428D02*
X111457142Y-108408285D01*
X111457142Y-108408285D02*
X111457142Y-108236857D01*
X111457142Y-108236857D02*
X111542856Y-108065428D01*
X111542856Y-108065428D02*
X111714285Y-107979714D01*
X111714285Y-107979714D02*
X111799999Y-107979714D01*
X111799999Y-107979714D02*
X111971428Y-108065428D01*
X111971428Y-108065428D02*
X112057142Y-108236857D01*
X112057142Y-108236857D02*
X112057142Y-108322571D01*
X112057142Y-108322571D02*
X111971428Y-108494000D01*
X111971428Y-108494000D02*
X111885713Y-108579714D01*
X111885713Y-108579714D02*
X111371428Y-108922571D01*
X111371428Y-108922571D02*
X111285713Y-109008285D01*
X111285713Y-109008285D02*
X111199999Y-109179714D01*
X111199999Y-109179714D02*
X111199999Y-109436857D01*
X111199999Y-109436857D02*
X111285713Y-109608285D01*
X111285713Y-109608285D02*
X111371428Y-109694000D01*
X111371428Y-109694000D02*
X111542856Y-109779714D01*
X111542856Y-109779714D02*
X111799999Y-109779714D01*
X111799999Y-109779714D02*
X111971428Y-109694000D01*
X111971428Y-109694000D02*
X112057142Y-109608285D01*
X112057142Y-109608285D02*
X112314285Y-109265428D01*
X112314285Y-109265428D02*
X112399999Y-109008285D01*
X112399999Y-109008285D02*
X112399999Y-108836857D01*
X115742856Y-108065428D02*
X115571428Y-107979714D01*
X115571428Y-107979714D02*
X115314285Y-107979714D01*
X115314285Y-107979714D02*
X115057142Y-108065428D01*
X115057142Y-108065428D02*
X114885713Y-108236857D01*
X114885713Y-108236857D02*
X114799999Y-108408285D01*
X114799999Y-108408285D02*
X114714285Y-108751142D01*
X114714285Y-108751142D02*
X114714285Y-109008285D01*
X114714285Y-109008285D02*
X114799999Y-109351142D01*
X114799999Y-109351142D02*
X114885713Y-109522571D01*
X114885713Y-109522571D02*
X115057142Y-109694000D01*
X115057142Y-109694000D02*
X115314285Y-109779714D01*
X115314285Y-109779714D02*
X115485713Y-109779714D01*
X115485713Y-109779714D02*
X115742856Y-109694000D01*
X115742856Y-109694000D02*
X115828570Y-109608285D01*
X115828570Y-109608285D02*
X115828570Y-109008285D01*
X115828570Y-109008285D02*
X115485713Y-109008285D01*
X117371428Y-108579714D02*
X117371428Y-109779714D01*
X116599999Y-108579714D02*
X116599999Y-109522571D01*
X116599999Y-109522571D02*
X116685713Y-109694000D01*
X116685713Y-109694000D02*
X116857142Y-109779714D01*
X116857142Y-109779714D02*
X117114285Y-109779714D01*
X117114285Y-109779714D02*
X117285713Y-109694000D01*
X117285713Y-109694000D02*
X117371428Y-109608285D01*
X118228570Y-109779714D02*
X118228570Y-108579714D01*
X118228570Y-107979714D02*
X118142856Y-108065428D01*
X118142856Y-108065428D02*
X118228570Y-108151142D01*
X118228570Y-108151142D02*
X118314284Y-108065428D01*
X118314284Y-108065428D02*
X118228570Y-107979714D01*
X118228570Y-107979714D02*
X118228570Y-108151142D01*
X119342856Y-109779714D02*
X119171427Y-109694000D01*
X119171427Y-109694000D02*
X119085713Y-109522571D01*
X119085713Y-109522571D02*
X119085713Y-107979714D01*
X120285713Y-109779714D02*
X120114284Y-109694000D01*
X120114284Y-109694000D02*
X120028570Y-109522571D01*
X120028570Y-109522571D02*
X120028570Y-107979714D01*
X121657141Y-109694000D02*
X121485713Y-109779714D01*
X121485713Y-109779714D02*
X121142856Y-109779714D01*
X121142856Y-109779714D02*
X120971427Y-109694000D01*
X120971427Y-109694000D02*
X120885713Y-109522571D01*
X120885713Y-109522571D02*
X120885713Y-108836857D01*
X120885713Y-108836857D02*
X120971427Y-108665428D01*
X120971427Y-108665428D02*
X121142856Y-108579714D01*
X121142856Y-108579714D02*
X121485713Y-108579714D01*
X121485713Y-108579714D02*
X121657141Y-108665428D01*
X121657141Y-108665428D02*
X121742856Y-108836857D01*
X121742856Y-108836857D02*
X121742856Y-109008285D01*
X121742856Y-109008285D02*
X120885713Y-109179714D01*
X122514284Y-109779714D02*
X122514284Y-108579714D01*
X122514284Y-108751142D02*
X122599998Y-108665428D01*
X122599998Y-108665428D02*
X122771427Y-108579714D01*
X122771427Y-108579714D02*
X123028570Y-108579714D01*
X123028570Y-108579714D02*
X123199998Y-108665428D01*
X123199998Y-108665428D02*
X123285713Y-108836857D01*
X123285713Y-108836857D02*
X123285713Y-109779714D01*
X123285713Y-108836857D02*
X123371427Y-108665428D01*
X123371427Y-108665428D02*
X123542855Y-108579714D01*
X123542855Y-108579714D02*
X123799998Y-108579714D01*
X123799998Y-108579714D02*
X123971427Y-108665428D01*
X123971427Y-108665428D02*
X124057141Y-108836857D01*
X124057141Y-108836857D02*
X124057141Y-109779714D01*
X126199999Y-109265428D02*
X127057142Y-109265428D01*
X126028570Y-109779714D02*
X126628570Y-107979714D01*
X126628570Y-107979714D02*
X127228570Y-109779714D01*
X128085713Y-109779714D02*
X127914284Y-109694000D01*
X127914284Y-109694000D02*
X127828570Y-109522571D01*
X127828570Y-109522571D02*
X127828570Y-107979714D01*
X129028570Y-109779714D02*
X128857141Y-109694000D01*
X128857141Y-109694000D02*
X128771427Y-109522571D01*
X128771427Y-109522571D02*
X128771427Y-107979714D01*
X130399998Y-109694000D02*
X130228570Y-109779714D01*
X130228570Y-109779714D02*
X129885713Y-109779714D01*
X129885713Y-109779714D02*
X129714284Y-109694000D01*
X129714284Y-109694000D02*
X129628570Y-109522571D01*
X129628570Y-109522571D02*
X129628570Y-108836857D01*
X129628570Y-108836857D02*
X129714284Y-108665428D01*
X129714284Y-108665428D02*
X129885713Y-108579714D01*
X129885713Y-108579714D02*
X130228570Y-108579714D01*
X130228570Y-108579714D02*
X130399998Y-108665428D01*
X130399998Y-108665428D02*
X130485713Y-108836857D01*
X130485713Y-108836857D02*
X130485713Y-109008285D01*
X130485713Y-109008285D02*
X129628570Y-109179714D01*
X131257141Y-108579714D02*
X131257141Y-110379714D01*
X131257141Y-108665428D02*
X131428570Y-108579714D01*
X131428570Y-108579714D02*
X131771427Y-108579714D01*
X131771427Y-108579714D02*
X131942855Y-108665428D01*
X131942855Y-108665428D02*
X132028570Y-108751142D01*
X132028570Y-108751142D02*
X132114284Y-108922571D01*
X132114284Y-108922571D02*
X132114284Y-109436857D01*
X132114284Y-109436857D02*
X132028570Y-109608285D01*
X132028570Y-109608285D02*
X131942855Y-109694000D01*
X131942855Y-109694000D02*
X131771427Y-109779714D01*
X131771427Y-109779714D02*
X131428570Y-109779714D01*
X131428570Y-109779714D02*
X131257141Y-109694000D01*
X133657141Y-108579714D02*
X133657141Y-109779714D01*
X132885712Y-108579714D02*
X132885712Y-109522571D01*
X132885712Y-109522571D02*
X132971426Y-109694000D01*
X132971426Y-109694000D02*
X133142855Y-109779714D01*
X133142855Y-109779714D02*
X133399998Y-109779714D01*
X133399998Y-109779714D02*
X133571426Y-109694000D01*
X133571426Y-109694000D02*
X133657141Y-109608285D01*
X134342854Y-108579714D02*
X135285712Y-108579714D01*
X135285712Y-108579714D02*
X134342854Y-109779714D01*
X134342854Y-109779714D02*
X135285712Y-109779714D01*
D13*
X118599999Y-70655238D02*
X118980952Y-70655238D01*
X118980952Y-70655238D02*
X119171428Y-70750476D01*
X119171428Y-70750476D02*
X119361904Y-70940952D01*
X119361904Y-70940952D02*
X119457142Y-71321904D01*
X119457142Y-71321904D02*
X119457142Y-71988571D01*
X119457142Y-71988571D02*
X119361904Y-72369523D01*
X119361904Y-72369523D02*
X119171428Y-72560000D01*
X119171428Y-72560000D02*
X118980952Y-72655238D01*
X118980952Y-72655238D02*
X118599999Y-72655238D01*
X118599999Y-72655238D02*
X118409523Y-72560000D01*
X118409523Y-72560000D02*
X118219047Y-72369523D01*
X118219047Y-72369523D02*
X118123809Y-71988571D01*
X118123809Y-71988571D02*
X118123809Y-71321904D01*
X118123809Y-71321904D02*
X118219047Y-70940952D01*
X118219047Y-70940952D02*
X118409523Y-70750476D01*
X118409523Y-70750476D02*
X118599999Y-70655238D01*
X120314285Y-70655238D02*
X120314285Y-72274285D01*
X120314285Y-72274285D02*
X120409523Y-72464761D01*
X120409523Y-72464761D02*
X120504761Y-72560000D01*
X120504761Y-72560000D02*
X120695237Y-72655238D01*
X120695237Y-72655238D02*
X121076190Y-72655238D01*
X121076190Y-72655238D02*
X121266666Y-72560000D01*
X121266666Y-72560000D02*
X121361904Y-72464761D01*
X121361904Y-72464761D02*
X121457142Y-72274285D01*
X121457142Y-72274285D02*
X121457142Y-70655238D01*
X122123809Y-70655238D02*
X123266666Y-70655238D01*
X122695237Y-72655238D02*
X122695237Y-70655238D01*
D12*
X124600000Y-94204190D02*
X124600000Y-95499428D01*
X124600000Y-95499428D02*
X124676190Y-95651809D01*
X124676190Y-95651809D02*
X124752381Y-95728000D01*
X124752381Y-95728000D02*
X124904762Y-95804190D01*
X124904762Y-95804190D02*
X125209524Y-95804190D01*
X125209524Y-95804190D02*
X125361905Y-95728000D01*
X125361905Y-95728000D02*
X125438095Y-95651809D01*
X125438095Y-95651809D02*
X125514286Y-95499428D01*
X125514286Y-95499428D02*
X125514286Y-94204190D01*
X126199999Y-95728000D02*
X126428571Y-95804190D01*
X126428571Y-95804190D02*
X126809523Y-95804190D01*
X126809523Y-95804190D02*
X126961904Y-95728000D01*
X126961904Y-95728000D02*
X127038095Y-95651809D01*
X127038095Y-95651809D02*
X127114285Y-95499428D01*
X127114285Y-95499428D02*
X127114285Y-95347047D01*
X127114285Y-95347047D02*
X127038095Y-95194666D01*
X127038095Y-95194666D02*
X126961904Y-95118476D01*
X126961904Y-95118476D02*
X126809523Y-95042285D01*
X126809523Y-95042285D02*
X126504761Y-94966095D01*
X126504761Y-94966095D02*
X126352380Y-94889904D01*
X126352380Y-94889904D02*
X126276190Y-94813714D01*
X126276190Y-94813714D02*
X126199999Y-94661333D01*
X126199999Y-94661333D02*
X126199999Y-94508952D01*
X126199999Y-94508952D02*
X126276190Y-94356571D01*
X126276190Y-94356571D02*
X126352380Y-94280380D01*
X126352380Y-94280380D02*
X126504761Y-94204190D01*
X126504761Y-94204190D02*
X126885714Y-94204190D01*
X126885714Y-94204190D02*
X127114285Y-94280380D01*
X128333333Y-94966095D02*
X128561905Y-95042285D01*
X128561905Y-95042285D02*
X128638095Y-95118476D01*
X128638095Y-95118476D02*
X128714286Y-95270857D01*
X128714286Y-95270857D02*
X128714286Y-95499428D01*
X128714286Y-95499428D02*
X128638095Y-95651809D01*
X128638095Y-95651809D02*
X128561905Y-95728000D01*
X128561905Y-95728000D02*
X128409524Y-95804190D01*
X128409524Y-95804190D02*
X127800000Y-95804190D01*
X127800000Y-95804190D02*
X127800000Y-94204190D01*
X127800000Y-94204190D02*
X128333333Y-94204190D01*
X128333333Y-94204190D02*
X128485714Y-94280380D01*
X128485714Y-94280380D02*
X128561905Y-94356571D01*
X128561905Y-94356571D02*
X128638095Y-94508952D01*
X128638095Y-94508952D02*
X128638095Y-94661333D01*
X128638095Y-94661333D02*
X128561905Y-94813714D01*
X128561905Y-94813714D02*
X128485714Y-94889904D01*
X128485714Y-94889904D02*
X128333333Y-94966095D01*
X128333333Y-94966095D02*
X127800000Y-94966095D01*
X130542857Y-94128000D02*
X129171428Y-96185142D01*
X131076190Y-95804190D02*
X131076190Y-94204190D01*
X131076190Y-94204190D02*
X131685714Y-94204190D01*
X131685714Y-94204190D02*
X131838095Y-94280380D01*
X131838095Y-94280380D02*
X131914285Y-94356571D01*
X131914285Y-94356571D02*
X131990476Y-94508952D01*
X131990476Y-94508952D02*
X131990476Y-94737523D01*
X131990476Y-94737523D02*
X131914285Y-94889904D01*
X131914285Y-94889904D02*
X131838095Y-94966095D01*
X131838095Y-94966095D02*
X131685714Y-95042285D01*
X131685714Y-95042285D02*
X131076190Y-95042285D01*
X132904761Y-95804190D02*
X132752380Y-95728000D01*
X132752380Y-95728000D02*
X132676190Y-95651809D01*
X132676190Y-95651809D02*
X132599999Y-95499428D01*
X132599999Y-95499428D02*
X132599999Y-95042285D01*
X132599999Y-95042285D02*
X132676190Y-94889904D01*
X132676190Y-94889904D02*
X132752380Y-94813714D01*
X132752380Y-94813714D02*
X132904761Y-94737523D01*
X132904761Y-94737523D02*
X133133333Y-94737523D01*
X133133333Y-94737523D02*
X133285714Y-94813714D01*
X133285714Y-94813714D02*
X133361904Y-94889904D01*
X133361904Y-94889904D02*
X133438095Y-95042285D01*
X133438095Y-95042285D02*
X133438095Y-95499428D01*
X133438095Y-95499428D02*
X133361904Y-95651809D01*
X133361904Y-95651809D02*
X133285714Y-95728000D01*
X133285714Y-95728000D02*
X133133333Y-95804190D01*
X133133333Y-95804190D02*
X132904761Y-95804190D01*
X133971428Y-94737523D02*
X134276190Y-95804190D01*
X134276190Y-95804190D02*
X134580952Y-95042285D01*
X134580952Y-95042285D02*
X134885714Y-95804190D01*
X134885714Y-95804190D02*
X135190476Y-94737523D01*
X136409523Y-95728000D02*
X136257142Y-95804190D01*
X136257142Y-95804190D02*
X135952380Y-95804190D01*
X135952380Y-95804190D02*
X135799999Y-95728000D01*
X135799999Y-95728000D02*
X135723808Y-95575619D01*
X135723808Y-95575619D02*
X135723808Y-94966095D01*
X135723808Y-94966095D02*
X135799999Y-94813714D01*
X135799999Y-94813714D02*
X135952380Y-94737523D01*
X135952380Y-94737523D02*
X136257142Y-94737523D01*
X136257142Y-94737523D02*
X136409523Y-94813714D01*
X136409523Y-94813714D02*
X136485713Y-94966095D01*
X136485713Y-94966095D02*
X136485713Y-95118476D01*
X136485713Y-95118476D02*
X135723808Y-95270857D01*
X137171428Y-95804190D02*
X137171428Y-94737523D01*
X137171428Y-95042285D02*
X137247618Y-94889904D01*
X137247618Y-94889904D02*
X137323809Y-94813714D01*
X137323809Y-94813714D02*
X137476190Y-94737523D01*
X137476190Y-94737523D02*
X137628571Y-94737523D01*
X146321428Y-90716428D02*
X145821428Y-90002142D01*
X145464285Y-90716428D02*
X145464285Y-89216428D01*
X145464285Y-89216428D02*
X146035714Y-89216428D01*
X146035714Y-89216428D02*
X146178571Y-89287857D01*
X146178571Y-89287857D02*
X146250000Y-89359285D01*
X146250000Y-89359285D02*
X146321428Y-89502142D01*
X146321428Y-89502142D02*
X146321428Y-89716428D01*
X146321428Y-89716428D02*
X146250000Y-89859285D01*
X146250000Y-89859285D02*
X146178571Y-89930714D01*
X146178571Y-89930714D02*
X146035714Y-90002142D01*
X146035714Y-90002142D02*
X145464285Y-90002142D01*
X146964285Y-89930714D02*
X147464285Y-89930714D01*
X147678571Y-90716428D02*
X146964285Y-90716428D01*
X146964285Y-90716428D02*
X146964285Y-89216428D01*
X146964285Y-89216428D02*
X147678571Y-89216428D01*
X148250000Y-90645000D02*
X148464286Y-90716428D01*
X148464286Y-90716428D02*
X148821428Y-90716428D01*
X148821428Y-90716428D02*
X148964286Y-90645000D01*
X148964286Y-90645000D02*
X149035714Y-90573571D01*
X149035714Y-90573571D02*
X149107143Y-90430714D01*
X149107143Y-90430714D02*
X149107143Y-90287857D01*
X149107143Y-90287857D02*
X149035714Y-90145000D01*
X149035714Y-90145000D02*
X148964286Y-90073571D01*
X148964286Y-90073571D02*
X148821428Y-90002142D01*
X148821428Y-90002142D02*
X148535714Y-89930714D01*
X148535714Y-89930714D02*
X148392857Y-89859285D01*
X148392857Y-89859285D02*
X148321428Y-89787857D01*
X148321428Y-89787857D02*
X148250000Y-89645000D01*
X148250000Y-89645000D02*
X148250000Y-89502142D01*
X148250000Y-89502142D02*
X148321428Y-89359285D01*
X148321428Y-89359285D02*
X148392857Y-89287857D01*
X148392857Y-89287857D02*
X148535714Y-89216428D01*
X148535714Y-89216428D02*
X148892857Y-89216428D01*
X148892857Y-89216428D02*
X149107143Y-89287857D01*
X149749999Y-89930714D02*
X150249999Y-89930714D01*
X150464285Y-90716428D02*
X149749999Y-90716428D01*
X149749999Y-90716428D02*
X149749999Y-89216428D01*
X149749999Y-89216428D02*
X150464285Y-89216428D01*
X150892857Y-89216428D02*
X151750000Y-89216428D01*
X151321428Y-90716428D02*
X151321428Y-89216428D01*
X101428571Y-106779714D02*
X101428571Y-104979714D01*
X101428571Y-104979714D02*
X102114285Y-104979714D01*
X102114285Y-104979714D02*
X102285714Y-105065428D01*
X102285714Y-105065428D02*
X102371428Y-105151142D01*
X102371428Y-105151142D02*
X102457142Y-105322571D01*
X102457142Y-105322571D02*
X102457142Y-105579714D01*
X102457142Y-105579714D02*
X102371428Y-105751142D01*
X102371428Y-105751142D02*
X102285714Y-105836857D01*
X102285714Y-105836857D02*
X102114285Y-105922571D01*
X102114285Y-105922571D02*
X101428571Y-105922571D01*
X103228571Y-104979714D02*
X103228571Y-106436857D01*
X103228571Y-106436857D02*
X103314285Y-106608285D01*
X103314285Y-106608285D02*
X103400000Y-106694000D01*
X103400000Y-106694000D02*
X103571428Y-106779714D01*
X103571428Y-106779714D02*
X103914285Y-106779714D01*
X103914285Y-106779714D02*
X104085714Y-106694000D01*
X104085714Y-106694000D02*
X104171428Y-106608285D01*
X104171428Y-106608285D02*
X104257142Y-106436857D01*
X104257142Y-106436857D02*
X104257142Y-104979714D01*
X105971428Y-106779714D02*
X105114285Y-106779714D01*
X105114285Y-106779714D02*
X105114285Y-104979714D01*
X106485714Y-106694000D02*
X106742857Y-106779714D01*
X106742857Y-106779714D02*
X107171428Y-106779714D01*
X107171428Y-106779714D02*
X107342857Y-106694000D01*
X107342857Y-106694000D02*
X107428571Y-106608285D01*
X107428571Y-106608285D02*
X107514285Y-106436857D01*
X107514285Y-106436857D02*
X107514285Y-106265428D01*
X107514285Y-106265428D02*
X107428571Y-106094000D01*
X107428571Y-106094000D02*
X107342857Y-106008285D01*
X107342857Y-106008285D02*
X107171428Y-105922571D01*
X107171428Y-105922571D02*
X106828571Y-105836857D01*
X106828571Y-105836857D02*
X106657142Y-105751142D01*
X106657142Y-105751142D02*
X106571428Y-105665428D01*
X106571428Y-105665428D02*
X106485714Y-105494000D01*
X106485714Y-105494000D02*
X106485714Y-105322571D01*
X106485714Y-105322571D02*
X106571428Y-105151142D01*
X106571428Y-105151142D02*
X106657142Y-105065428D01*
X106657142Y-105065428D02*
X106828571Y-104979714D01*
X106828571Y-104979714D02*
X107257142Y-104979714D01*
X107257142Y-104979714D02*
X107514285Y-105065428D01*
X108285714Y-105836857D02*
X108885714Y-105836857D01*
X109142857Y-106779714D02*
X108285714Y-106779714D01*
X108285714Y-106779714D02*
X108285714Y-104979714D01*
X108285714Y-104979714D02*
X109142857Y-104979714D01*
X109914285Y-106779714D02*
X109914285Y-104979714D01*
X109914285Y-104979714D02*
X110342856Y-104979714D01*
X110342856Y-104979714D02*
X110599999Y-105065428D01*
X110599999Y-105065428D02*
X110771428Y-105236857D01*
X110771428Y-105236857D02*
X110857142Y-105408285D01*
X110857142Y-105408285D02*
X110942856Y-105751142D01*
X110942856Y-105751142D02*
X110942856Y-106008285D01*
X110942856Y-106008285D02*
X110857142Y-106351142D01*
X110857142Y-106351142D02*
X110771428Y-106522571D01*
X110771428Y-106522571D02*
X110599999Y-106694000D01*
X110599999Y-106694000D02*
X110342856Y-106779714D01*
X110342856Y-106779714D02*
X109914285Y-106779714D01*
X113942857Y-106779714D02*
X113085714Y-106779714D01*
X113085714Y-106779714D02*
X113085714Y-104979714D01*
X114457143Y-106265428D02*
X115314286Y-106265428D01*
X114285714Y-106779714D02*
X114885714Y-104979714D01*
X114885714Y-104979714D02*
X115485714Y-106779714D01*
X116000000Y-106694000D02*
X116257143Y-106779714D01*
X116257143Y-106779714D02*
X116685714Y-106779714D01*
X116685714Y-106779714D02*
X116857143Y-106694000D01*
X116857143Y-106694000D02*
X116942857Y-106608285D01*
X116942857Y-106608285D02*
X117028571Y-106436857D01*
X117028571Y-106436857D02*
X117028571Y-106265428D01*
X117028571Y-106265428D02*
X116942857Y-106094000D01*
X116942857Y-106094000D02*
X116857143Y-106008285D01*
X116857143Y-106008285D02*
X116685714Y-105922571D01*
X116685714Y-105922571D02*
X116342857Y-105836857D01*
X116342857Y-105836857D02*
X116171428Y-105751142D01*
X116171428Y-105751142D02*
X116085714Y-105665428D01*
X116085714Y-105665428D02*
X116000000Y-105494000D01*
X116000000Y-105494000D02*
X116000000Y-105322571D01*
X116000000Y-105322571D02*
X116085714Y-105151142D01*
X116085714Y-105151142D02*
X116171428Y-105065428D01*
X116171428Y-105065428D02*
X116342857Y-104979714D01*
X116342857Y-104979714D02*
X116771428Y-104979714D01*
X116771428Y-104979714D02*
X117028571Y-105065428D01*
X117800000Y-105836857D02*
X118400000Y-105836857D01*
X118657143Y-106779714D02*
X117800000Y-106779714D01*
X117800000Y-106779714D02*
X117800000Y-104979714D01*
X117800000Y-104979714D02*
X118657143Y-104979714D01*
X120457142Y-106779714D02*
X119857142Y-105922571D01*
X119428571Y-106779714D02*
X119428571Y-104979714D01*
X119428571Y-104979714D02*
X120114285Y-104979714D01*
X120114285Y-104979714D02*
X120285714Y-105065428D01*
X120285714Y-105065428D02*
X120371428Y-105151142D01*
X120371428Y-105151142D02*
X120457142Y-105322571D01*
X120457142Y-105322571D02*
X120457142Y-105579714D01*
X120457142Y-105579714D02*
X120371428Y-105751142D01*
X120371428Y-105751142D02*
X120285714Y-105836857D01*
X120285714Y-105836857D02*
X120114285Y-105922571D01*
X120114285Y-105922571D02*
X119428571Y-105922571D01*
X122514286Y-106265428D02*
X123371429Y-106265428D01*
X122342857Y-106779714D02*
X122942857Y-104979714D01*
X122942857Y-104979714D02*
X123542857Y-106779714D01*
X124742857Y-105836857D02*
X125000000Y-105922571D01*
X125000000Y-105922571D02*
X125085714Y-106008285D01*
X125085714Y-106008285D02*
X125171428Y-106179714D01*
X125171428Y-106179714D02*
X125171428Y-106436857D01*
X125171428Y-106436857D02*
X125085714Y-106608285D01*
X125085714Y-106608285D02*
X125000000Y-106694000D01*
X125000000Y-106694000D02*
X124828571Y-106779714D01*
X124828571Y-106779714D02*
X124142857Y-106779714D01*
X124142857Y-106779714D02*
X124142857Y-104979714D01*
X124142857Y-104979714D02*
X124742857Y-104979714D01*
X124742857Y-104979714D02*
X124914286Y-105065428D01*
X124914286Y-105065428D02*
X125000000Y-105151142D01*
X125000000Y-105151142D02*
X125085714Y-105322571D01*
X125085714Y-105322571D02*
X125085714Y-105494000D01*
X125085714Y-105494000D02*
X125000000Y-105665428D01*
X125000000Y-105665428D02*
X124914286Y-105751142D01*
X124914286Y-105751142D02*
X124742857Y-105836857D01*
X124742857Y-105836857D02*
X124142857Y-105836857D01*
X126800000Y-106779714D02*
X125942857Y-106779714D01*
X125942857Y-106779714D02*
X125942857Y-104979714D01*
X127314286Y-106265428D02*
X128171429Y-106265428D01*
X127142857Y-106779714D02*
X127742857Y-104979714D01*
X127742857Y-104979714D02*
X128342857Y-106779714D01*
X128685714Y-104979714D02*
X129714286Y-104979714D01*
X129200000Y-106779714D02*
X129200000Y-104979714D01*
X130657143Y-104979714D02*
X131000000Y-104979714D01*
X131000000Y-104979714D02*
X131171429Y-105065428D01*
X131171429Y-105065428D02*
X131342857Y-105236857D01*
X131342857Y-105236857D02*
X131428572Y-105579714D01*
X131428572Y-105579714D02*
X131428572Y-106179714D01*
X131428572Y-106179714D02*
X131342857Y-106522571D01*
X131342857Y-106522571D02*
X131171429Y-106694000D01*
X131171429Y-106694000D02*
X131000000Y-106779714D01*
X131000000Y-106779714D02*
X130657143Y-106779714D01*
X130657143Y-106779714D02*
X130485715Y-106694000D01*
X130485715Y-106694000D02*
X130314286Y-106522571D01*
X130314286Y-106522571D02*
X130228572Y-106179714D01*
X130228572Y-106179714D02*
X130228572Y-105579714D01*
X130228572Y-105579714D02*
X130314286Y-105236857D01*
X130314286Y-105236857D02*
X130485715Y-105065428D01*
X130485715Y-105065428D02*
X130657143Y-104979714D01*
X133228571Y-106779714D02*
X132628571Y-105922571D01*
X132200000Y-106779714D02*
X132200000Y-104979714D01*
X132200000Y-104979714D02*
X132885714Y-104979714D01*
X132885714Y-104979714D02*
X133057143Y-105065428D01*
X133057143Y-105065428D02*
X133142857Y-105151142D01*
X133142857Y-105151142D02*
X133228571Y-105322571D01*
X133228571Y-105322571D02*
X133228571Y-105579714D01*
X133228571Y-105579714D02*
X133142857Y-105751142D01*
X133142857Y-105751142D02*
X133057143Y-105836857D01*
X133057143Y-105836857D02*
X132885714Y-105922571D01*
X132885714Y-105922571D02*
X132200000Y-105922571D01*
X135371429Y-106779714D02*
X135371429Y-104979714D01*
X135371429Y-104979714D02*
X136057143Y-104979714D01*
X136057143Y-104979714D02*
X136228572Y-105065428D01*
X136228572Y-105065428D02*
X136314286Y-105151142D01*
X136314286Y-105151142D02*
X136400000Y-105322571D01*
X136400000Y-105322571D02*
X136400000Y-105579714D01*
X136400000Y-105579714D02*
X136314286Y-105751142D01*
X136314286Y-105751142D02*
X136228572Y-105836857D01*
X136228572Y-105836857D02*
X136057143Y-105922571D01*
X136057143Y-105922571D02*
X135371429Y-105922571D01*
X138028572Y-106779714D02*
X137171429Y-106779714D01*
X137171429Y-106779714D02*
X137171429Y-104979714D01*
X139485715Y-106779714D02*
X138628572Y-106779714D01*
X138628572Y-106779714D02*
X138628572Y-104979714D01*
X141457144Y-106779714D02*
X141457144Y-104979714D01*
X142314287Y-106779714D02*
X142314287Y-104979714D01*
X142314287Y-104979714D02*
X143342858Y-106779714D01*
X143342858Y-106779714D02*
X143342858Y-104979714D01*
X143942858Y-104979714D02*
X144971430Y-104979714D01*
X144457144Y-106779714D02*
X144457144Y-104979714D01*
X145571430Y-105836857D02*
X146171430Y-105836857D01*
X146428573Y-106779714D02*
X145571430Y-106779714D01*
X145571430Y-106779714D02*
X145571430Y-104979714D01*
X145571430Y-104979714D02*
X146428573Y-104979714D01*
X148228572Y-106779714D02*
X147628572Y-105922571D01*
X147200001Y-106779714D02*
X147200001Y-104979714D01*
X147200001Y-104979714D02*
X147885715Y-104979714D01*
X147885715Y-104979714D02*
X148057144Y-105065428D01*
X148057144Y-105065428D02*
X148142858Y-105151142D01*
X148142858Y-105151142D02*
X148228572Y-105322571D01*
X148228572Y-105322571D02*
X148228572Y-105579714D01*
X148228572Y-105579714D02*
X148142858Y-105751142D01*
X148142858Y-105751142D02*
X148057144Y-105836857D01*
X148057144Y-105836857D02*
X147885715Y-105922571D01*
X147885715Y-105922571D02*
X147200001Y-105922571D01*
X149600001Y-105836857D02*
X149000001Y-105836857D01*
X149000001Y-106779714D02*
X149000001Y-104979714D01*
X149000001Y-104979714D02*
X149857144Y-104979714D01*
X150457144Y-106265428D02*
X151314287Y-106265428D01*
X150285715Y-106779714D02*
X150885715Y-104979714D01*
X150885715Y-104979714D02*
X151485715Y-106779714D01*
X153114286Y-106608285D02*
X153028572Y-106694000D01*
X153028572Y-106694000D02*
X152771429Y-106779714D01*
X152771429Y-106779714D02*
X152600001Y-106779714D01*
X152600001Y-106779714D02*
X152342858Y-106694000D01*
X152342858Y-106694000D02*
X152171429Y-106522571D01*
X152171429Y-106522571D02*
X152085715Y-106351142D01*
X152085715Y-106351142D02*
X152000001Y-106008285D01*
X152000001Y-106008285D02*
X152000001Y-105751142D01*
X152000001Y-105751142D02*
X152085715Y-105408285D01*
X152085715Y-105408285D02*
X152171429Y-105236857D01*
X152171429Y-105236857D02*
X152342858Y-105065428D01*
X152342858Y-105065428D02*
X152600001Y-104979714D01*
X152600001Y-104979714D02*
X152771429Y-104979714D01*
X152771429Y-104979714D02*
X153028572Y-105065428D01*
X153028572Y-105065428D02*
X153114286Y-105151142D01*
X153885715Y-105836857D02*
X154485715Y-105836857D01*
X154742858Y-106779714D02*
X153885715Y-106779714D01*
X153885715Y-106779714D02*
X153885715Y-104979714D01*
X153885715Y-104979714D02*
X154742858Y-104979714D01*
G36*
X100291886Y-85387857D02*
G01*
X99993828Y-85387857D01*
X100142857Y-84940769D01*
X100291886Y-85387857D01*
G37*
G36*
X101768289Y-84661135D02*
G01*
X101805292Y-84698138D01*
X101849999Y-84787552D01*
X101849999Y-84931018D01*
X101805292Y-85020432D01*
X101768287Y-85057436D01*
X101678875Y-85102142D01*
X101507752Y-85102142D01*
X101471653Y-85098401D01*
X101464250Y-85102142D01*
X101292856Y-85102142D01*
X101292856Y-84616428D01*
X101678874Y-84616428D01*
X101768289Y-84661135D01*
G37*
G36*
X104889286Y-86814286D02*
G01*
X98610714Y-86814286D01*
X98610714Y-86005022D01*
X99491362Y-86005022D01*
X99536277Y-86080799D01*
X99615031Y-86120265D01*
X99702617Y-86110888D01*
X99771232Y-86055646D01*
X99893828Y-85687857D01*
X100391886Y-85687857D01*
X100507375Y-86034324D01*
X100544818Y-86088200D01*
X100626216Y-86121872D01*
X100712898Y-86106194D01*
X100777341Y-86046140D01*
X100799087Y-85960778D01*
X100653523Y-85524085D01*
X100654742Y-85515608D01*
X100639766Y-85482817D01*
X100570291Y-85274391D01*
X100988114Y-85274391D01*
X100992856Y-85284774D01*
X100992856Y-85987996D01*
X101011340Y-86050948D01*
X101077913Y-86108633D01*
X101165105Y-86121170D01*
X101245232Y-86084577D01*
X101292856Y-86010472D01*
X101292856Y-85402142D01*
X101421901Y-85402142D01*
X101889483Y-86070116D01*
X101940726Y-86111089D01*
X102028345Y-86120169D01*
X102106965Y-86080439D01*
X102151623Y-86004511D01*
X102148141Y-85916491D01*
X101779189Y-85389417D01*
X101798805Y-85383658D01*
X101808086Y-85372946D01*
X101907402Y-85323288D01*
X101932064Y-85317924D01*
X101961275Y-85288712D01*
X101991555Y-85260547D01*
X101992281Y-85257706D01*
X102021338Y-85228649D01*
X102043038Y-85215761D01*
X102061512Y-85178811D01*
X102081332Y-85142516D01*
X102081122Y-85139591D01*
X102130551Y-85040733D01*
X102149999Y-85010472D01*
X102149999Y-84979820D01*
X102155429Y-84949646D01*
X102149999Y-84936553D01*
X102149999Y-84760218D01*
X102153860Y-84724455D01*
X102140152Y-84697040D01*
X102131515Y-84667622D01*
X102120803Y-84658340D01*
X102071145Y-84559022D01*
X102065780Y-84534362D01*
X102036572Y-84505154D01*
X102022428Y-84489949D01*
X102488303Y-84489949D01*
X102492856Y-84499705D01*
X102492856Y-85987996D01*
X102511340Y-86050948D01*
X102577913Y-86108633D01*
X102665105Y-86121170D01*
X102745232Y-86084577D01*
X102792856Y-86010472D01*
X102792855Y-85142563D01*
X103006410Y-85600181D01*
X103023869Y-85639257D01*
X103043727Y-85652251D01*
X103059421Y-85670064D01*
X103079828Y-85675874D01*
X103097580Y-85687490D01*
X103121313Y-85687685D01*
X103144142Y-85694185D01*
X103164449Y-85688040D01*
X103185664Y-85688215D01*
X103205735Y-85675547D01*
X103228456Y-85668673D01*
X103242218Y-85652523D01*
X103260158Y-85641202D01*
X103270193Y-85619696D01*
X103285591Y-85601629D01*
X103288437Y-85580602D01*
X103492856Y-85142562D01*
X103492856Y-85987996D01*
X103511340Y-86050948D01*
X103577913Y-86108633D01*
X103665105Y-86121170D01*
X103745232Y-86084577D01*
X103792856Y-86010472D01*
X103792856Y-84477779D01*
X103797776Y-84445453D01*
X103783932Y-84414467D01*
X103774372Y-84381908D01*
X103766235Y-84374857D01*
X103761843Y-84365027D01*
X103733442Y-84346442D01*
X103707799Y-84324223D01*
X103697144Y-84322691D01*
X103688133Y-84316794D01*
X103654191Y-84316515D01*
X103620607Y-84311686D01*
X103610813Y-84316158D01*
X103600048Y-84316070D01*
X103571351Y-84334180D01*
X103540480Y-84348279D01*
X103534658Y-84357336D01*
X103525554Y-84363083D01*
X103511202Y-84393835D01*
X103492856Y-84422384D01*
X103492856Y-84433150D01*
X103142856Y-85183151D01*
X102783583Y-84413281D01*
X102774372Y-84381908D01*
X102748725Y-84359685D01*
X102726291Y-84334221D01*
X102715934Y-84331272D01*
X102707799Y-84324223D01*
X102674208Y-84319393D01*
X102641570Y-84310101D01*
X102631266Y-84313218D01*
X102620607Y-84311686D01*
X102589735Y-84325784D01*
X102557256Y-84335612D01*
X102550272Y-84343806D01*
X102540480Y-84348279D01*
X102522134Y-84376824D01*
X102500121Y-84402657D01*
X102498676Y-84413327D01*
X102492856Y-84422384D01*
X102492856Y-84456318D01*
X102488303Y-84489949D01*
X102022428Y-84489949D01*
X102008404Y-84474872D01*
X102005563Y-84474145D01*
X101976505Y-84445088D01*
X101963618Y-84423390D01*
X101926668Y-84404915D01*
X101890372Y-84385096D01*
X101887448Y-84385305D01*
X101788594Y-84335878D01*
X101758329Y-84316428D01*
X101727676Y-84316428D01*
X101697504Y-84310998D01*
X101684412Y-84316428D01*
X101153587Y-84316428D01*
X101120607Y-84311686D01*
X101090300Y-84325526D01*
X101058336Y-84334912D01*
X101050861Y-84343537D01*
X101040480Y-84348279D01*
X101022467Y-84376306D01*
X101000651Y-84401485D01*
X100999026Y-84412782D01*
X100992856Y-84422384D01*
X100992856Y-84455697D01*
X100988114Y-84488677D01*
X100992856Y-84499060D01*
X100992856Y-85241411D01*
X100988114Y-85274391D01*
X100570291Y-85274391D01*
X100293740Y-84444737D01*
X100294352Y-84427834D01*
X100280079Y-84403754D01*
X100278339Y-84398533D01*
X100269132Y-84385285D01*
X100249437Y-84352057D01*
X100244223Y-84349444D01*
X100240896Y-84344656D01*
X100205215Y-84329896D01*
X100170684Y-84312591D01*
X100164883Y-84313211D01*
X100159498Y-84310984D01*
X100121506Y-84317855D01*
X100083097Y-84321968D01*
X100078554Y-84325624D01*
X100072816Y-84326663D01*
X100044559Y-84352994D01*
X100014482Y-84377210D01*
X100012638Y-84382741D01*
X100008373Y-84386716D01*
X99998840Y-84424133D01*
X99652835Y-85462150D01*
X99643509Y-85472914D01*
X99639155Y-85503189D01*
X99493734Y-85939455D01*
X99491362Y-86005022D01*
X98610714Y-86005022D01*
X98610714Y-83235714D01*
X104889286Y-83235714D01*
X104889286Y-86814286D01*
G37*
G36*
X108506172Y-78637857D02*
G01*
X108208114Y-78637857D01*
X108357143Y-78190769D01*
X108506172Y-78637857D01*
G37*
G36*
X100482575Y-77911135D02*
G01*
X100519578Y-77948138D01*
X100564285Y-78037552D01*
X100564285Y-78181018D01*
X100519578Y-78270432D01*
X100482573Y-78307436D01*
X100393161Y-78352142D01*
X100007142Y-78352142D01*
X100007142Y-77866428D01*
X100393160Y-77866428D01*
X100482575Y-77911135D01*
G37*
G36*
X115889286Y-80064286D02*
G01*
X98610714Y-80064286D01*
X98610714Y-78524391D01*
X99702400Y-78524391D01*
X99707142Y-78534774D01*
X99707142Y-79237996D01*
X99725626Y-79300948D01*
X99792199Y-79358633D01*
X99879391Y-79371170D01*
X99959518Y-79334577D01*
X100007142Y-79260472D01*
X100007142Y-78958402D01*
X101203281Y-78958402D01*
X101216988Y-78985816D01*
X101225626Y-79015234D01*
X101236338Y-79024516D01*
X101285995Y-79123829D01*
X101291361Y-79148493D01*
X101320581Y-79177713D01*
X101348738Y-79207984D01*
X101351578Y-79208710D01*
X101380635Y-79237767D01*
X101393524Y-79259467D01*
X101430473Y-79277941D01*
X101466769Y-79297761D01*
X101469693Y-79297551D01*
X101568551Y-79346980D01*
X101598813Y-79366428D01*
X101629465Y-79366428D01*
X101659639Y-79371858D01*
X101672731Y-79366428D01*
X101920495Y-79366428D01*
X101956258Y-79370289D01*
X101983672Y-79356581D01*
X102013091Y-79347944D01*
X102022372Y-79337232D01*
X102121688Y-79287574D01*
X102146350Y-79282210D01*
X102175561Y-79252998D01*
X102190957Y-79238677D01*
X102773829Y-79238677D01*
X102787669Y-79268983D01*
X102797055Y-79300948D01*
X102805680Y-79308422D01*
X102810422Y-79318804D01*
X102838449Y-79336816D01*
X102863628Y-79358633D01*
X102874925Y-79360257D01*
X102884527Y-79366428D01*
X102917840Y-79366428D01*
X102950820Y-79371170D01*
X102961203Y-79366428D01*
X103664425Y-79366428D01*
X103727377Y-79347944D01*
X103785062Y-79281371D01*
X103797599Y-79194179D01*
X103761006Y-79114052D01*
X103686901Y-79066428D01*
X103078571Y-79066428D01*
X103078571Y-78018924D01*
X103915999Y-78018924D01*
X103921429Y-78032016D01*
X103921429Y-78136923D01*
X103917568Y-78172687D01*
X103931275Y-78200101D01*
X103939913Y-78229520D01*
X103950624Y-78238801D01*
X104000282Y-78338119D01*
X104005648Y-78362780D01*
X104034852Y-78391983D01*
X104063024Y-78422270D01*
X104065865Y-78422996D01*
X104094919Y-78452049D01*
X104107809Y-78473752D01*
X104144783Y-78492239D01*
X104181056Y-78512046D01*
X104183978Y-78511836D01*
X104266164Y-78552929D01*
X104278034Y-78565553D01*
X104304787Y-78572241D01*
X104309351Y-78574523D01*
X104325641Y-78577454D01*
X104590500Y-78643669D01*
X104696862Y-78696849D01*
X104733865Y-78733853D01*
X104778572Y-78823266D01*
X104778572Y-78895304D01*
X104733865Y-78984716D01*
X104696860Y-79021722D01*
X104607448Y-79066428D01*
X104310057Y-79066428D01*
X104098402Y-78995877D01*
X104032835Y-78993506D01*
X103957058Y-79038421D01*
X103917592Y-79117174D01*
X103926969Y-79204761D01*
X103982211Y-79273375D01*
X104220440Y-79352783D01*
X104241671Y-79366428D01*
X104282994Y-79366428D01*
X104324309Y-79367922D01*
X104326830Y-79366428D01*
X104634784Y-79366428D01*
X104670544Y-79370289D01*
X104697959Y-79356581D01*
X104727377Y-79347944D01*
X104736658Y-79337232D01*
X104835977Y-79287574D01*
X104860638Y-79282209D01*
X104889836Y-79253010D01*
X104905245Y-79238677D01*
X105416686Y-79238677D01*
X105430526Y-79268983D01*
X105439912Y-79300948D01*
X105448537Y-79308422D01*
X105453279Y-79318804D01*
X105481306Y-79336816D01*
X105506485Y-79358633D01*
X105517782Y-79360257D01*
X105527384Y-79366428D01*
X105560697Y-79366428D01*
X105593677Y-79371170D01*
X105604060Y-79366428D01*
X106307282Y-79366428D01*
X106370234Y-79347944D01*
X106427919Y-79281371D01*
X106431708Y-79255022D01*
X107705648Y-79255022D01*
X107750563Y-79330799D01*
X107829317Y-79370265D01*
X107916903Y-79360888D01*
X107985518Y-79305646D01*
X108108114Y-78937857D01*
X108606172Y-78937857D01*
X108721661Y-79284324D01*
X108759104Y-79338200D01*
X108840502Y-79371872D01*
X108927184Y-79356194D01*
X108991627Y-79296140D01*
X109013373Y-79210778D01*
X108867809Y-78774085D01*
X108869028Y-78765608D01*
X108854052Y-78732817D01*
X108798854Y-78567222D01*
X109129510Y-78567222D01*
X109135713Y-78592037D01*
X109135714Y-78595139D01*
X109140932Y-78612912D01*
X109205140Y-78869744D01*
X109203281Y-78886973D01*
X109215614Y-78911640D01*
X109216852Y-78916589D01*
X109225225Y-78930861D01*
X109285995Y-79052400D01*
X109291361Y-79077064D01*
X109320585Y-79106289D01*
X109348738Y-79136555D01*
X109351577Y-79137281D01*
X109459652Y-79245357D01*
X109482210Y-79273375D01*
X109511289Y-79283068D01*
X109538196Y-79297760D01*
X109552332Y-79296748D01*
X109720439Y-79352783D01*
X109741670Y-79366428D01*
X109782993Y-79366428D01*
X109824308Y-79367922D01*
X109826829Y-79366428D01*
X109909766Y-79366428D01*
X109934221Y-79372658D01*
X109973409Y-79359595D01*
X110013091Y-79347944D01*
X110015010Y-79345728D01*
X110182628Y-79289856D01*
X110217780Y-79282209D01*
X110239452Y-79260536D01*
X110264628Y-79243040D01*
X110270046Y-79229941D01*
X110335602Y-79164385D01*
X110367046Y-79106801D01*
X110360760Y-79018938D01*
X110307971Y-78948419D01*
X110225437Y-78917636D01*
X110139362Y-78936362D01*
X110061828Y-79013895D01*
X109904230Y-79066428D01*
X109810056Y-79066428D01*
X109652455Y-79013895D01*
X109551848Y-78913286D01*
X109498670Y-78806932D01*
X109435714Y-78555106D01*
X109435714Y-78377749D01*
X109498668Y-78125928D01*
X109551848Y-78019568D01*
X109652455Y-77918961D01*
X109810055Y-77866428D01*
X109904230Y-77866428D01*
X110061830Y-77918962D01*
X110123470Y-77980602D01*
X110181053Y-78012045D01*
X110268917Y-78005760D01*
X110339436Y-77952971D01*
X110370219Y-77870438D01*
X110351495Y-77784362D01*
X110305810Y-77738677D01*
X110488115Y-77738677D01*
X110524708Y-77818804D01*
X110598813Y-77866428D01*
X110921428Y-77866428D01*
X110921428Y-79237996D01*
X110939912Y-79300948D01*
X111006485Y-79358633D01*
X111093677Y-79371170D01*
X111173804Y-79334577D01*
X111221428Y-79260472D01*
X111221428Y-79237996D01*
X111849999Y-79237996D01*
X111868483Y-79300948D01*
X111935056Y-79358633D01*
X112022248Y-79371170D01*
X112102375Y-79334577D01*
X112149999Y-79260472D01*
X112149999Y-77722078D01*
X112343770Y-77722078D01*
X112849116Y-79238119D01*
X112848505Y-79255022D01*
X112862776Y-79279100D01*
X112864518Y-79284324D01*
X112873727Y-79297575D01*
X112893420Y-79330799D01*
X112898632Y-79333411D01*
X112901961Y-79338200D01*
X112937644Y-79352961D01*
X112972174Y-79370265D01*
X112977973Y-79369644D01*
X112983359Y-79371872D01*
X113021356Y-79364999D01*
X113059760Y-79360888D01*
X113064300Y-79357232D01*
X113070041Y-79356194D01*
X113098301Y-79329858D01*
X113128375Y-79305646D01*
X113130218Y-79300114D01*
X113134484Y-79296140D01*
X113144016Y-79258722D01*
X113150698Y-79238677D01*
X113845257Y-79238677D01*
X113859097Y-79268983D01*
X113868483Y-79300948D01*
X113877108Y-79308422D01*
X113881850Y-79318804D01*
X113909877Y-79336816D01*
X113935056Y-79358633D01*
X113946353Y-79360257D01*
X113955955Y-79366428D01*
X113989268Y-79366428D01*
X114022248Y-79371170D01*
X114032631Y-79366428D01*
X114735853Y-79366428D01*
X114798805Y-79347944D01*
X114856490Y-79281371D01*
X114869027Y-79194179D01*
X114832434Y-79114052D01*
X114758329Y-79066428D01*
X114149999Y-79066428D01*
X114149999Y-78580714D01*
X114521567Y-78580714D01*
X114584519Y-78562230D01*
X114642204Y-78495657D01*
X114654741Y-78408465D01*
X114618148Y-78328338D01*
X114544043Y-78280714D01*
X114149999Y-78280714D01*
X114149999Y-77866428D01*
X114735853Y-77866428D01*
X114798805Y-77847944D01*
X114856490Y-77781371D01*
X114869027Y-77694179D01*
X114832434Y-77614052D01*
X114758329Y-77566428D01*
X114010730Y-77566428D01*
X113977750Y-77561686D01*
X113947443Y-77575526D01*
X113915479Y-77584912D01*
X113908004Y-77593537D01*
X113897623Y-77598279D01*
X113879610Y-77626306D01*
X113857794Y-77651485D01*
X113856169Y-77662782D01*
X113849999Y-77672384D01*
X113849999Y-77705697D01*
X113845257Y-77738677D01*
X113849999Y-77749060D01*
X113849999Y-78419983D01*
X113845257Y-78452963D01*
X113849999Y-78463346D01*
X113849999Y-79205697D01*
X113845257Y-79238677D01*
X113150698Y-79238677D01*
X113649123Y-77743401D01*
X113651495Y-77677834D01*
X113606580Y-77602057D01*
X113527827Y-77562591D01*
X113440240Y-77571968D01*
X113371625Y-77627210D01*
X112999999Y-78742086D01*
X112635482Y-77648533D01*
X112598039Y-77594656D01*
X112516641Y-77560984D01*
X112429959Y-77576663D01*
X112365516Y-77636716D01*
X112343770Y-77722078D01*
X112149999Y-77722078D01*
X112149999Y-77694860D01*
X112131515Y-77631908D01*
X112064942Y-77574223D01*
X111977750Y-77561686D01*
X111897623Y-77598279D01*
X111849999Y-77672384D01*
X111849999Y-79237996D01*
X111221428Y-79237996D01*
X111221428Y-77866428D01*
X111521568Y-77866428D01*
X111584520Y-77847944D01*
X111642205Y-77781371D01*
X111654742Y-77694179D01*
X111618149Y-77614052D01*
X111544044Y-77566428D01*
X111082159Y-77566428D01*
X111049179Y-77561686D01*
X111038796Y-77566428D01*
X110621289Y-77566428D01*
X110558337Y-77584912D01*
X110500652Y-77651485D01*
X110488115Y-77738677D01*
X110305810Y-77738677D01*
X110254632Y-77687500D01*
X110232075Y-77659482D01*
X110202994Y-77649788D01*
X110176088Y-77635096D01*
X110161950Y-77636107D01*
X109993846Y-77580072D01*
X109972615Y-77566428D01*
X109931302Y-77566428D01*
X109889978Y-77564933D01*
X109887456Y-77566428D01*
X109804518Y-77566428D01*
X109780063Y-77560198D01*
X109740870Y-77573262D01*
X109701194Y-77584912D01*
X109699274Y-77587127D01*
X109531655Y-77643000D01*
X109496506Y-77650647D01*
X109474831Y-77672321D01*
X109449656Y-77689818D01*
X109444238Y-77702914D01*
X109335803Y-77811349D01*
X109314104Y-77824238D01*
X109295628Y-77861189D01*
X109275810Y-77897483D01*
X109276019Y-77900407D01*
X109234927Y-77982591D01*
X109222303Y-77994462D01*
X109215614Y-78021217D01*
X109213333Y-78025780D01*
X109210401Y-78042067D01*
X109146180Y-78298954D01*
X109135714Y-78315241D01*
X109135714Y-78340820D01*
X109134962Y-78343829D01*
X109135714Y-78362334D01*
X109135714Y-78548883D01*
X109129510Y-78567222D01*
X108798854Y-78567222D01*
X108508026Y-77694737D01*
X108508638Y-77677834D01*
X108494365Y-77653754D01*
X108492625Y-77648533D01*
X108483418Y-77635285D01*
X108463723Y-77602057D01*
X108458509Y-77599444D01*
X108455182Y-77594656D01*
X108419501Y-77579896D01*
X108384970Y-77562591D01*
X108379169Y-77563211D01*
X108373784Y-77560984D01*
X108335792Y-77567855D01*
X108297383Y-77571968D01*
X108292840Y-77575624D01*
X108287102Y-77576663D01*
X108258845Y-77602994D01*
X108228768Y-77627210D01*
X108226924Y-77632741D01*
X108222659Y-77636716D01*
X108213126Y-77674133D01*
X107867121Y-78712150D01*
X107857795Y-78722914D01*
X107853441Y-78753189D01*
X107708020Y-79189455D01*
X107705648Y-79255022D01*
X106431708Y-79255022D01*
X106440456Y-79194179D01*
X106403863Y-79114052D01*
X106329758Y-79066428D01*
X105721428Y-79066428D01*
X105721428Y-78580714D01*
X106092996Y-78580714D01*
X106155948Y-78562230D01*
X106213633Y-78495657D01*
X106226170Y-78408465D01*
X106189577Y-78328338D01*
X106115472Y-78280714D01*
X105721428Y-78280714D01*
X105721428Y-77866428D01*
X106307282Y-77866428D01*
X106370234Y-77847944D01*
X106427919Y-77781371D01*
X106440456Y-77694179D01*
X106403863Y-77614052D01*
X106329758Y-77566428D01*
X105582159Y-77566428D01*
X105549179Y-77561686D01*
X105518872Y-77575526D01*
X105486908Y-77584912D01*
X105479433Y-77593537D01*
X105469052Y-77598279D01*
X105451039Y-77626306D01*
X105429223Y-77651485D01*
X105427598Y-77662782D01*
X105421428Y-77672384D01*
X105421428Y-77705697D01*
X105416686Y-77738677D01*
X105421428Y-77749060D01*
X105421428Y-78419983D01*
X105416686Y-78452963D01*
X105421428Y-78463346D01*
X105421428Y-79205697D01*
X105416686Y-79238677D01*
X104905245Y-79238677D01*
X104920128Y-79224834D01*
X104920854Y-79221990D01*
X104949907Y-79192937D01*
X104971610Y-79180048D01*
X104990097Y-79143073D01*
X105009904Y-79106801D01*
X105009694Y-79103878D01*
X105059124Y-79005019D01*
X105078572Y-78974758D01*
X105078572Y-78944105D01*
X105084002Y-78913933D01*
X105078572Y-78900840D01*
X105078572Y-78795931D01*
X105082433Y-78760168D01*
X105068724Y-78732752D01*
X105060088Y-78703337D01*
X105049376Y-78694055D01*
X104999717Y-78594740D01*
X104994353Y-78570079D01*
X104965138Y-78540864D01*
X104936976Y-78510587D01*
X104934135Y-78509860D01*
X104905080Y-78480804D01*
X104892191Y-78459104D01*
X104855228Y-78440622D01*
X104818947Y-78420811D01*
X104816023Y-78421020D01*
X104733834Y-78379925D01*
X104721966Y-78367303D01*
X104695214Y-78360615D01*
X104690648Y-78358332D01*
X104674350Y-78355399D01*
X104409498Y-78289186D01*
X104303140Y-78236007D01*
X104266134Y-78199002D01*
X104221429Y-78109589D01*
X104221429Y-78037551D01*
X104266135Y-77948138D01*
X104303139Y-77911134D01*
X104392553Y-77866428D01*
X104689945Y-77866428D01*
X104901598Y-77936980D01*
X104967165Y-77939352D01*
X105042942Y-77894437D01*
X105082409Y-77815684D01*
X105073032Y-77728097D01*
X105017790Y-77659482D01*
X104779561Y-77580072D01*
X104758330Y-77566428D01*
X104717017Y-77566428D01*
X104675693Y-77564933D01*
X104673171Y-77566428D01*
X104365218Y-77566428D01*
X104329454Y-77562567D01*
X104302038Y-77576275D01*
X104272623Y-77584912D01*
X104263341Y-77595623D01*
X104164026Y-77645282D01*
X104139365Y-77650647D01*
X104110150Y-77679861D01*
X104079873Y-77708024D01*
X104079146Y-77710864D01*
X104050090Y-77739919D01*
X104028390Y-77752809D01*
X104009909Y-77789769D01*
X103990097Y-77826053D01*
X103990306Y-77828976D01*
X103940874Y-77927839D01*
X103921429Y-77958098D01*
X103921429Y-77988749D01*
X103915999Y-78018924D01*
X103078571Y-78018924D01*
X103078571Y-77694860D01*
X103060087Y-77631908D01*
X102993514Y-77574223D01*
X102906322Y-77561686D01*
X102826195Y-77598279D01*
X102778571Y-77672384D01*
X102778571Y-79205697D01*
X102773829Y-79238677D01*
X102190957Y-79238677D01*
X102205841Y-79224833D01*
X102206567Y-79221992D01*
X102235624Y-79192935D01*
X102257324Y-79180047D01*
X102275798Y-79143097D01*
X102295618Y-79106802D01*
X102295408Y-79103877D01*
X102344837Y-79005019D01*
X102364285Y-78974758D01*
X102364285Y-78944106D01*
X102369715Y-78913932D01*
X102364285Y-78900839D01*
X102364285Y-77694860D01*
X102345801Y-77631908D01*
X102279228Y-77574223D01*
X102192036Y-77561686D01*
X102111909Y-77598279D01*
X102064285Y-77672384D01*
X102064285Y-78895304D01*
X102019578Y-78984717D01*
X101982573Y-79021722D01*
X101893161Y-79066428D01*
X101678267Y-79066428D01*
X101588853Y-79021721D01*
X101551849Y-78984717D01*
X101507142Y-78895304D01*
X101507142Y-77694860D01*
X101488658Y-77631908D01*
X101422085Y-77574223D01*
X101334893Y-77561686D01*
X101254766Y-77598279D01*
X101207142Y-77672384D01*
X101207142Y-78922638D01*
X101203281Y-78958402D01*
X100007142Y-78958402D01*
X100007142Y-78652142D01*
X100420495Y-78652142D01*
X100456258Y-78656003D01*
X100483672Y-78642295D01*
X100513091Y-78633658D01*
X100522372Y-78622946D01*
X100621688Y-78573288D01*
X100646350Y-78567924D01*
X100675561Y-78538712D01*
X100705841Y-78510547D01*
X100706567Y-78507706D01*
X100735624Y-78478649D01*
X100757324Y-78465761D01*
X100775798Y-78428811D01*
X100795618Y-78392516D01*
X100795408Y-78389591D01*
X100844837Y-78290733D01*
X100864285Y-78260472D01*
X100864285Y-78229820D01*
X100869715Y-78199646D01*
X100864285Y-78186553D01*
X100864285Y-78010218D01*
X100868146Y-77974455D01*
X100854438Y-77947040D01*
X100845801Y-77917622D01*
X100835089Y-77908340D01*
X100785431Y-77809022D01*
X100780066Y-77784362D01*
X100750858Y-77755154D01*
X100722690Y-77724872D01*
X100719849Y-77724145D01*
X100690791Y-77695088D01*
X100677904Y-77673390D01*
X100640954Y-77654915D01*
X100604658Y-77635096D01*
X100601734Y-77635305D01*
X100502880Y-77585878D01*
X100472615Y-77566428D01*
X100441962Y-77566428D01*
X100411790Y-77560998D01*
X100398698Y-77566428D01*
X99867873Y-77566428D01*
X99834893Y-77561686D01*
X99804586Y-77575526D01*
X99772622Y-77584912D01*
X99765147Y-77593537D01*
X99754766Y-77598279D01*
X99736753Y-77626306D01*
X99714937Y-77651485D01*
X99713312Y-77662782D01*
X99707142Y-77672384D01*
X99707142Y-77705697D01*
X99702400Y-77738677D01*
X99707142Y-77749060D01*
X99707142Y-78491411D01*
X99702400Y-78524391D01*
X98610714Y-78524391D01*
X98610714Y-76485714D01*
X115889286Y-76485714D01*
X115889286Y-80064286D01*
G37*
D10*
G36*
X102266666Y-112097945D02*
G01*
X102266666Y-112717196D01*
X102219251Y-112740904D01*
X102018845Y-112740904D01*
X101930664Y-112696814D01*
X101891708Y-112657859D01*
X101847619Y-112569677D01*
X101847619Y-112245463D01*
X101891708Y-112157282D01*
X101930663Y-112118327D01*
X102018844Y-112074238D01*
X102219251Y-112074238D01*
X102266666Y-112097945D01*
G37*
G36*
X114338093Y-112097945D02*
G01*
X114338093Y-112717196D01*
X114290678Y-112740904D01*
X114090272Y-112740904D01*
X114002091Y-112696814D01*
X113963135Y-112657859D01*
X113919046Y-112569677D01*
X113919046Y-112245463D01*
X113963135Y-112157282D01*
X114002090Y-112118327D01*
X114090271Y-112074238D01*
X114290678Y-112074238D01*
X114338093Y-112097945D01*
G37*
G36*
X119145522Y-112118327D02*
G01*
X119184477Y-112157282D01*
X119228568Y-112245463D01*
X119228568Y-112569678D01*
X119184478Y-112657857D01*
X119145521Y-112696814D01*
X119057343Y-112740904D01*
X118856937Y-112740904D01*
X118809520Y-112717196D01*
X118809520Y-112097945D01*
X118856936Y-112074238D01*
X119057343Y-112074238D01*
X119145522Y-112118327D01*
G37*
G36*
X107136000Y-112118327D02*
G01*
X107174955Y-112157282D01*
X107219046Y-112245463D01*
X107219046Y-112569678D01*
X107174956Y-112657857D01*
X107135999Y-112696814D01*
X107047821Y-112740904D01*
X106847415Y-112740904D01*
X106799998Y-112717196D01*
X106799998Y-112097945D01*
X106847414Y-112074238D01*
X107047821Y-112074238D01*
X107136000Y-112118327D01*
G37*
G36*
X110045524Y-112118327D02*
G01*
X110084479Y-112157282D01*
X110128570Y-112245463D01*
X110128570Y-112569678D01*
X110084480Y-112657857D01*
X110045523Y-112696814D01*
X109957345Y-112740904D01*
X109818844Y-112740904D01*
X109730663Y-112696814D01*
X109691707Y-112657859D01*
X109647618Y-112569677D01*
X109647618Y-112245463D01*
X109691707Y-112157282D01*
X109730662Y-112118327D01*
X109818843Y-112074238D01*
X109957345Y-112074238D01*
X110045524Y-112118327D01*
G37*
G36*
X115514283Y-112717196D02*
G01*
X115466868Y-112740904D01*
X115204557Y-112740904D01*
X115131675Y-112704464D01*
X115095236Y-112631582D01*
X115095236Y-112554985D01*
X115131675Y-112482106D01*
X115204557Y-112445666D01*
X115485090Y-112445666D01*
X115508933Y-112448240D01*
X115514283Y-112445564D01*
X115514283Y-112717196D01*
G37*
G36*
X118015936Y-112110677D02*
G01*
X118052377Y-112183558D01*
X118052377Y-112201780D01*
X117633330Y-112285590D01*
X117633330Y-112183558D01*
X117669769Y-112110677D01*
X117742650Y-112074238D01*
X117943057Y-112074238D01*
X118015936Y-112110677D01*
G37*
G36*
X124614281Y-112717196D02*
G01*
X124566866Y-112740904D01*
X124304555Y-112740904D01*
X124231673Y-112704464D01*
X124195234Y-112631582D01*
X124195234Y-112554985D01*
X124231673Y-112482106D01*
X124304555Y-112445666D01*
X124585088Y-112445666D01*
X124608931Y-112448240D01*
X124614281Y-112445564D01*
X124614281Y-112717196D01*
G37*
G36*
X126806411Y-112110677D02*
G01*
X126842851Y-112183558D01*
X126842852Y-112201780D01*
X126423805Y-112285590D01*
X126423805Y-112183558D01*
X126460244Y-112110677D01*
X126533125Y-112074238D01*
X126733532Y-112074238D01*
X126806411Y-112110677D01*
G37*
G36*
X131077840Y-112110677D02*
G01*
X131114281Y-112183558D01*
X131114281Y-112201780D01*
X130695234Y-112285590D01*
X130695234Y-112183558D01*
X130731673Y-112110677D01*
X130804554Y-112074238D01*
X131004961Y-112074238D01*
X131077840Y-112110677D01*
G37*
G36*
X132192126Y-112110677D02*
G01*
X132228567Y-112183558D01*
X132228567Y-112201780D01*
X131809520Y-112285590D01*
X131809520Y-112183558D01*
X131845959Y-112110677D01*
X131918840Y-112074238D01*
X132119247Y-112074238D01*
X132192126Y-112110677D01*
G37*
G36*
X133342853Y-112097945D02*
G01*
X133342853Y-112717196D01*
X133295438Y-112740904D01*
X133095032Y-112740904D01*
X133006851Y-112696814D01*
X132967895Y-112657859D01*
X132923806Y-112569677D01*
X132923806Y-112245463D01*
X132967895Y-112157282D01*
X133006850Y-112118327D01*
X133095031Y-112074238D01*
X133295438Y-112074238D01*
X133342853Y-112097945D01*
G37*
G36*
X134497902Y-112118327D02*
G01*
X134536857Y-112157282D01*
X134580948Y-112245463D01*
X134580948Y-112569678D01*
X134536858Y-112657857D01*
X134497901Y-112696814D01*
X134409723Y-112740904D01*
X134209317Y-112740904D01*
X134161900Y-112717196D01*
X134161900Y-112097945D01*
X134209316Y-112074238D01*
X134409723Y-112074238D01*
X134497902Y-112118327D01*
G37*
G36*
X135695233Y-112717196D02*
G01*
X135647818Y-112740904D01*
X135385507Y-112740904D01*
X135312625Y-112704464D01*
X135276186Y-112631582D01*
X135276186Y-112554985D01*
X135312625Y-112482106D01*
X135385507Y-112445666D01*
X135666040Y-112445666D01*
X135689883Y-112448240D01*
X135695233Y-112445564D01*
X135695233Y-112717196D01*
G37*
G36*
X138997138Y-113485714D02*
G01*
X101014286Y-113485714D01*
X101014286Y-112233046D01*
X101643999Y-112233046D01*
X101647619Y-112241773D01*
X101647619Y-112587899D01*
X101645045Y-112611743D01*
X101654183Y-112630020D01*
X101659942Y-112649632D01*
X101667082Y-112655819D01*
X101714473Y-112750601D01*
X101718050Y-112767043D01*
X101737528Y-112786521D01*
X101756301Y-112806703D01*
X101758194Y-112807187D01*
X101791850Y-112840843D01*
X101800444Y-112855312D01*
X101825093Y-112867636D01*
X101849274Y-112880840D01*
X101851222Y-112880700D01*
X101945698Y-112927937D01*
X101965875Y-112940904D01*
X101986311Y-112940904D01*
X102006426Y-112944524D01*
X102015154Y-112940904D01*
X102237472Y-112940904D01*
X102261315Y-112943478D01*
X102266666Y-112940802D01*
X102266666Y-113003011D01*
X102222575Y-113091191D01*
X102183618Y-113130149D01*
X102095441Y-113174238D01*
X101956940Y-113174238D01*
X101841383Y-113116460D01*
X101798335Y-113108713D01*
X101744090Y-113131211D01*
X101710620Y-113179464D01*
X101708550Y-113238153D01*
X101738539Y-113288644D01*
X101883791Y-113361270D01*
X101903970Y-113374238D01*
X101924406Y-113374238D01*
X101944521Y-113377858D01*
X101953249Y-113374238D01*
X102113662Y-113374238D01*
X102137505Y-113376812D01*
X102155781Y-113367673D01*
X102175394Y-113361915D01*
X102181581Y-113354773D01*
X102276363Y-113307383D01*
X102292806Y-113303806D01*
X102312287Y-113284324D01*
X102332466Y-113265554D01*
X102332949Y-113263661D01*
X102366607Y-113230004D01*
X102381072Y-113221413D01*
X102393391Y-113196774D01*
X102406601Y-113172581D01*
X102406461Y-113170633D01*
X102417439Y-113148677D01*
X112229124Y-113148677D01*
X112244720Y-113205294D01*
X112288449Y-113244490D01*
X112346428Y-113253824D01*
X112400248Y-113230330D01*
X113065104Y-112233046D01*
X113715426Y-112233046D01*
X113719046Y-112241773D01*
X113719046Y-112587899D01*
X113716472Y-112611743D01*
X113725610Y-112630020D01*
X113731369Y-112649632D01*
X113738509Y-112655819D01*
X113785900Y-112750601D01*
X113789477Y-112767043D01*
X113808955Y-112786521D01*
X113827728Y-112806703D01*
X113829621Y-112807187D01*
X113863277Y-112840843D01*
X113871871Y-112855312D01*
X113896520Y-112867636D01*
X113920701Y-112880840D01*
X113922649Y-112880700D01*
X114017125Y-112927937D01*
X114037302Y-112940904D01*
X114057738Y-112940904D01*
X114077853Y-112944524D01*
X114086581Y-112940904D01*
X114308899Y-112940904D01*
X114332742Y-112943478D01*
X114338093Y-112940802D01*
X114338093Y-113003011D01*
X114294002Y-113091191D01*
X114255045Y-113130149D01*
X114166868Y-113174238D01*
X114028367Y-113174238D01*
X113912810Y-113116460D01*
X113869762Y-113108713D01*
X113815517Y-113131211D01*
X113782047Y-113179464D01*
X113779977Y-113238153D01*
X113809966Y-113288644D01*
X113955218Y-113361270D01*
X113975397Y-113374238D01*
X113995833Y-113374238D01*
X114015948Y-113377858D01*
X114024676Y-113374238D01*
X114185089Y-113374238D01*
X114208932Y-113376812D01*
X114227208Y-113367673D01*
X114246821Y-113361915D01*
X114253008Y-113354773D01*
X114347790Y-113307383D01*
X114364233Y-113303806D01*
X114383714Y-113284324D01*
X114403893Y-113265554D01*
X114404376Y-113263661D01*
X114438034Y-113230004D01*
X114452499Y-113221413D01*
X114464818Y-113196774D01*
X114478028Y-113172581D01*
X114477888Y-113170633D01*
X114525127Y-113076157D01*
X114538093Y-113055982D01*
X114538093Y-113035546D01*
X114541713Y-113015431D01*
X114538093Y-113006702D01*
X114538093Y-112791583D01*
X114542250Y-112775327D01*
X114538092Y-112762818D01*
X114538092Y-112542568D01*
X114891616Y-112542568D01*
X114895236Y-112551296D01*
X114895236Y-112649804D01*
X114892662Y-112673648D01*
X114901800Y-112691925D01*
X114907559Y-112711537D01*
X114914699Y-112717724D01*
X114956304Y-112800934D01*
X114956167Y-112804821D01*
X114969317Y-112826961D01*
X114974127Y-112836581D01*
X114976627Y-112839268D01*
X114986156Y-112855312D01*
X114996240Y-112860354D01*
X115003918Y-112868608D01*
X115021993Y-112873230D01*
X115131410Y-112927937D01*
X115151587Y-112940904D01*
X115172023Y-112940904D01*
X115192138Y-112944524D01*
X115200866Y-112940904D01*
X115485089Y-112940904D01*
X115508932Y-112943478D01*
X115527209Y-112934339D01*
X115546821Y-112928581D01*
X115553008Y-112921440D01*
X115553968Y-112920960D01*
X115570988Y-112935708D01*
X115629115Y-112944065D01*
X115682534Y-112919670D01*
X115714283Y-112870267D01*
X115714283Y-112791583D01*
X115718440Y-112775327D01*
X115714283Y-112762818D01*
X115714283Y-112673648D01*
X116130756Y-112673648D01*
X116139894Y-112691924D01*
X116145653Y-112711537D01*
X116152794Y-112717724D01*
X116194399Y-112800934D01*
X116194262Y-112804821D01*
X116207412Y-112826961D01*
X116212223Y-112836583D01*
X116214723Y-112839271D01*
X116224251Y-112855312D01*
X116234334Y-112860353D01*
X116242014Y-112868609D01*
X116260091Y-112873231D01*
X116387185Y-112936777D01*
X116430233Y-112944524D01*
X116484478Y-112922025D01*
X116517948Y-112873772D01*
X116520018Y-112815083D01*
X116490029Y-112764592D01*
X116369769Y-112704463D01*
X116354361Y-112673648D01*
X116811708Y-112673648D01*
X116820846Y-112691924D01*
X116826605Y-112711537D01*
X116833746Y-112717724D01*
X116875351Y-112800934D01*
X116875214Y-112804821D01*
X116888364Y-112826961D01*
X116893175Y-112836583D01*
X116895675Y-112839271D01*
X116905203Y-112855312D01*
X116915286Y-112860353D01*
X116922966Y-112868609D01*
X116941043Y-112873231D01*
X117068137Y-112936777D01*
X117111185Y-112944524D01*
X117165430Y-112922025D01*
X117198900Y-112873772D01*
X117200970Y-112815083D01*
X117170981Y-112764592D01*
X117050721Y-112704463D01*
X117014282Y-112631583D01*
X117014282Y-112171141D01*
X117429710Y-112171141D01*
X117433330Y-112179868D01*
X117433330Y-112381149D01*
X117431876Y-112383709D01*
X117433330Y-112410311D01*
X117433330Y-112649804D01*
X117430756Y-112673648D01*
X117439894Y-112691925D01*
X117445653Y-112711537D01*
X117452793Y-112717724D01*
X117494398Y-112800934D01*
X117494261Y-112804821D01*
X117507411Y-112826961D01*
X117512221Y-112836581D01*
X117514721Y-112839268D01*
X117524250Y-112855312D01*
X117534334Y-112860354D01*
X117542012Y-112868608D01*
X117560087Y-112873230D01*
X117669504Y-112927937D01*
X117689681Y-112940904D01*
X117710117Y-112940904D01*
X117730232Y-112944524D01*
X117738960Y-112940904D01*
X117961278Y-112940904D01*
X117985121Y-112943478D01*
X118003398Y-112934339D01*
X118023010Y-112928581D01*
X118029197Y-112921440D01*
X118148054Y-112862013D01*
X118180080Y-112832222D01*
X118194629Y-112775327D01*
X118176109Y-112719599D01*
X118130400Y-112682730D01*
X118072014Y-112676426D01*
X117943057Y-112740904D01*
X117742651Y-112740904D01*
X117669769Y-112704464D01*
X117633330Y-112631582D01*
X117633330Y-112489551D01*
X118155145Y-112385187D01*
X118167209Y-112386922D01*
X118183365Y-112379543D01*
X118186089Y-112378999D01*
X118196406Y-112373588D01*
X118220628Y-112362527D01*
X118222218Y-112360051D01*
X118224825Y-112358685D01*
X118237980Y-112335525D01*
X118252377Y-112313124D01*
X118252377Y-112310181D01*
X118253831Y-112307622D01*
X118252377Y-112281020D01*
X118252377Y-112165337D01*
X118254951Y-112141494D01*
X118245812Y-112123217D01*
X118240054Y-112103605D01*
X118232912Y-112097416D01*
X118204111Y-112039815D01*
X118605363Y-112039815D01*
X118609520Y-112052323D01*
X118609520Y-112777234D01*
X118608547Y-112804821D01*
X118609520Y-112806459D01*
X118609520Y-113288617D01*
X118621843Y-113330585D01*
X118666225Y-113369042D01*
X118724352Y-113377399D01*
X118777771Y-113353004D01*
X118809520Y-113303601D01*
X118809520Y-113148677D01*
X121824360Y-113148677D01*
X121839956Y-113205294D01*
X121883685Y-113244490D01*
X121941664Y-113253824D01*
X121995484Y-113230330D01*
X122366606Y-112673648D01*
X123373612Y-112673648D01*
X123382750Y-112691924D01*
X123388509Y-112711537D01*
X123395650Y-112717724D01*
X123437255Y-112800934D01*
X123437118Y-112804821D01*
X123450268Y-112826961D01*
X123455079Y-112836583D01*
X123457579Y-112839271D01*
X123467107Y-112855312D01*
X123477190Y-112860353D01*
X123484870Y-112868609D01*
X123502947Y-112873231D01*
X123630041Y-112936777D01*
X123673089Y-112944524D01*
X123727334Y-112922025D01*
X123760804Y-112873772D01*
X123762874Y-112815083D01*
X123732885Y-112764592D01*
X123612625Y-112704463D01*
X123576186Y-112631584D01*
X123576186Y-112542568D01*
X123991614Y-112542568D01*
X123995234Y-112551296D01*
X123995234Y-112649804D01*
X123992660Y-112673648D01*
X124001798Y-112691925D01*
X124007557Y-112711537D01*
X124014697Y-112717724D01*
X124056302Y-112800934D01*
X124056165Y-112804821D01*
X124069315Y-112826961D01*
X124074125Y-112836581D01*
X124076625Y-112839268D01*
X124086154Y-112855312D01*
X124096238Y-112860354D01*
X124103916Y-112868608D01*
X124121991Y-112873230D01*
X124231408Y-112927937D01*
X124251585Y-112940904D01*
X124272021Y-112940904D01*
X124292136Y-112944524D01*
X124300864Y-112940904D01*
X124585087Y-112940904D01*
X124608930Y-112943478D01*
X124627207Y-112934339D01*
X124646819Y-112928581D01*
X124653006Y-112921440D01*
X124653966Y-112920960D01*
X124670986Y-112935708D01*
X124729113Y-112944065D01*
X124782532Y-112919670D01*
X124814281Y-112870267D01*
X124814281Y-112791583D01*
X124818438Y-112775327D01*
X124814281Y-112762818D01*
X124814281Y-112296344D01*
X124818438Y-112280087D01*
X124814281Y-112267578D01*
X124814281Y-112171141D01*
X125167804Y-112171141D01*
X125171424Y-112179868D01*
X125171424Y-112216471D01*
X125168850Y-112240315D01*
X125177988Y-112258592D01*
X125183747Y-112278204D01*
X125190887Y-112284391D01*
X125232492Y-112367601D01*
X125232355Y-112371486D01*
X125245499Y-112393616D01*
X125250315Y-112403248D01*
X125252818Y-112405939D01*
X125262344Y-112421977D01*
X125272426Y-112427018D01*
X125280106Y-112435274D01*
X125298183Y-112439896D01*
X125407596Y-112494603D01*
X125427775Y-112507571D01*
X125448211Y-112507571D01*
X125468326Y-112511191D01*
X125477054Y-112507571D01*
X125619246Y-112507571D01*
X125692125Y-112544010D01*
X125728566Y-112616892D01*
X125728566Y-112631583D01*
X125692126Y-112704464D01*
X125619245Y-112740904D01*
X125418840Y-112740904D01*
X125303284Y-112683127D01*
X125260236Y-112675380D01*
X125205991Y-112697878D01*
X125172521Y-112746131D01*
X125170451Y-112804821D01*
X125200440Y-112855311D01*
X125345692Y-112927936D01*
X125365870Y-112940904D01*
X125386306Y-112940904D01*
X125406421Y-112944524D01*
X125415149Y-112940904D01*
X125637467Y-112940904D01*
X125661310Y-112943478D01*
X125679587Y-112934339D01*
X125699199Y-112928581D01*
X125705386Y-112921440D01*
X125788596Y-112879835D01*
X125792483Y-112879973D01*
X125814623Y-112866822D01*
X125824243Y-112862013D01*
X125826930Y-112859512D01*
X125842974Y-112849984D01*
X125848016Y-112839899D01*
X125856270Y-112832222D01*
X125860892Y-112814146D01*
X125915599Y-112704729D01*
X125928566Y-112684553D01*
X125928566Y-112664117D01*
X125932186Y-112644002D01*
X125928566Y-112635274D01*
X125928566Y-112598666D01*
X125931140Y-112574827D01*
X125922001Y-112556550D01*
X125916243Y-112536938D01*
X125909101Y-112530750D01*
X125867497Y-112447542D01*
X125867635Y-112443656D01*
X125854482Y-112421510D01*
X125849674Y-112411894D01*
X125847175Y-112409207D01*
X125837647Y-112393165D01*
X125827562Y-112388122D01*
X125819884Y-112379868D01*
X125801808Y-112375245D01*
X125692392Y-112320538D01*
X125672215Y-112307571D01*
X125651779Y-112307571D01*
X125631664Y-112303951D01*
X125622936Y-112307571D01*
X125480745Y-112307571D01*
X125407863Y-112271130D01*
X125371424Y-112198251D01*
X125371424Y-112183558D01*
X125377632Y-112171141D01*
X126220185Y-112171141D01*
X126223805Y-112179868D01*
X126223805Y-112381149D01*
X126222351Y-112383709D01*
X126223805Y-112410311D01*
X126223805Y-112649804D01*
X126221231Y-112673648D01*
X126230369Y-112691925D01*
X126236128Y-112711537D01*
X126243268Y-112717724D01*
X126284873Y-112800934D01*
X126284736Y-112804821D01*
X126297886Y-112826961D01*
X126302696Y-112836581D01*
X126305196Y-112839268D01*
X126314725Y-112855312D01*
X126324809Y-112860354D01*
X126332487Y-112868608D01*
X126350562Y-112873230D01*
X126459979Y-112927937D01*
X126480156Y-112940904D01*
X126500592Y-112940904D01*
X126520707Y-112944524D01*
X126529435Y-112940904D01*
X126751753Y-112940904D01*
X126775596Y-112943478D01*
X126793873Y-112934339D01*
X126813485Y-112928581D01*
X126819672Y-112921440D01*
X126938529Y-112862013D01*
X126970555Y-112832222D01*
X126985104Y-112775327D01*
X126966584Y-112719599D01*
X126920875Y-112682730D01*
X126862489Y-112676426D01*
X126733532Y-112740904D01*
X126533126Y-112740904D01*
X126460244Y-112704464D01*
X126423805Y-112631582D01*
X126423805Y-112489551D01*
X126945620Y-112385187D01*
X126957684Y-112386922D01*
X126973840Y-112379543D01*
X126976564Y-112378999D01*
X126986881Y-112373588D01*
X127011103Y-112362527D01*
X127012693Y-112360051D01*
X127015300Y-112358685D01*
X127028455Y-112335525D01*
X127042852Y-112313124D01*
X127042852Y-112310181D01*
X127044306Y-112307622D01*
X127042852Y-112281020D01*
X127042852Y-112233045D01*
X127396375Y-112233045D01*
X127399995Y-112241773D01*
X127399995Y-112855283D01*
X127412318Y-112897251D01*
X127456700Y-112935708D01*
X127514827Y-112944065D01*
X127568246Y-112919670D01*
X127599995Y-112870267D01*
X127599995Y-112360498D01*
X128201596Y-112360498D01*
X128225991Y-112413917D01*
X128275394Y-112445666D01*
X129309613Y-112445666D01*
X129351581Y-112433343D01*
X129390038Y-112388961D01*
X129398395Y-112330834D01*
X129374000Y-112277415D01*
X129324597Y-112245666D01*
X128290378Y-112245666D01*
X128248410Y-112257989D01*
X128209953Y-112302371D01*
X128201596Y-112360498D01*
X127599995Y-112360498D01*
X127599995Y-112245462D01*
X127644084Y-112157283D01*
X127683040Y-112118327D01*
X127771221Y-112074238D01*
X127885803Y-112074238D01*
X127927771Y-112061915D01*
X127966228Y-112017533D01*
X127970320Y-111989070D01*
X129625406Y-111989070D01*
X129649801Y-112042489D01*
X129699204Y-112074238D01*
X129814281Y-112074238D01*
X129814281Y-112855283D01*
X129826604Y-112897251D01*
X129870986Y-112935708D01*
X129929113Y-112944065D01*
X129982532Y-112919670D01*
X130014281Y-112870267D01*
X130014281Y-112171141D01*
X130491614Y-112171141D01*
X130495234Y-112179868D01*
X130495234Y-112381149D01*
X130493780Y-112383709D01*
X130495234Y-112410311D01*
X130495234Y-112649804D01*
X130492660Y-112673648D01*
X130501798Y-112691925D01*
X130507557Y-112711537D01*
X130514697Y-112717724D01*
X130556302Y-112800934D01*
X130556165Y-112804821D01*
X130569315Y-112826961D01*
X130574125Y-112836581D01*
X130576625Y-112839268D01*
X130586154Y-112855312D01*
X130596238Y-112860354D01*
X130603916Y-112868608D01*
X130621991Y-112873230D01*
X130731408Y-112927937D01*
X130751585Y-112940904D01*
X130772021Y-112940904D01*
X130792136Y-112944524D01*
X130800864Y-112940904D01*
X131023182Y-112940904D01*
X131047025Y-112943478D01*
X131065302Y-112934339D01*
X131084914Y-112928581D01*
X131091101Y-112921440D01*
X131209958Y-112862013D01*
X131241984Y-112832222D01*
X131256533Y-112775327D01*
X131238013Y-112719599D01*
X131192304Y-112682730D01*
X131133918Y-112676426D01*
X131004961Y-112740904D01*
X130804555Y-112740904D01*
X130731673Y-112704464D01*
X130695234Y-112631582D01*
X130695234Y-112489551D01*
X131217049Y-112385187D01*
X131229113Y-112386922D01*
X131245269Y-112379543D01*
X131247993Y-112378999D01*
X131258310Y-112373588D01*
X131282532Y-112362527D01*
X131284122Y-112360051D01*
X131286729Y-112358685D01*
X131299884Y-112335525D01*
X131314281Y-112313124D01*
X131314281Y-112310181D01*
X131315735Y-112307622D01*
X131314281Y-112281020D01*
X131314281Y-112171141D01*
X131605900Y-112171141D01*
X131609520Y-112179868D01*
X131609519Y-112381149D01*
X131608066Y-112383709D01*
X131609520Y-112410311D01*
X131609520Y-112649804D01*
X131606946Y-112673648D01*
X131616084Y-112691925D01*
X131621843Y-112711537D01*
X131628983Y-112717724D01*
X131670588Y-112800934D01*
X131670451Y-112804821D01*
X131683601Y-112826961D01*
X131688411Y-112836581D01*
X131690911Y-112839268D01*
X131700440Y-112855312D01*
X131710524Y-112860354D01*
X131718202Y-112868608D01*
X131736277Y-112873230D01*
X131845694Y-112927937D01*
X131865871Y-112940904D01*
X131886307Y-112940904D01*
X131906422Y-112944524D01*
X131915150Y-112940904D01*
X132137468Y-112940904D01*
X132161311Y-112943478D01*
X132179588Y-112934339D01*
X132199200Y-112928581D01*
X132205387Y-112921440D01*
X132324244Y-112862013D01*
X132356270Y-112832222D01*
X132370819Y-112775327D01*
X132352299Y-112719599D01*
X132306590Y-112682730D01*
X132248204Y-112676426D01*
X132119247Y-112740904D01*
X131918841Y-112740904D01*
X131845959Y-112704464D01*
X131809520Y-112631582D01*
X131809519Y-112489551D01*
X132331335Y-112385187D01*
X132343399Y-112386922D01*
X132359555Y-112379543D01*
X132362279Y-112378999D01*
X132372596Y-112373588D01*
X132396818Y-112362527D01*
X132398408Y-112360051D01*
X132401015Y-112358685D01*
X132414170Y-112335525D01*
X132428567Y-112313124D01*
X132428567Y-112310181D01*
X132430021Y-112307622D01*
X132428567Y-112281020D01*
X132428567Y-112233046D01*
X132720186Y-112233046D01*
X132723806Y-112241773D01*
X132723806Y-112587899D01*
X132721232Y-112611743D01*
X132730370Y-112630020D01*
X132736129Y-112649632D01*
X132743269Y-112655819D01*
X132790660Y-112750601D01*
X132794237Y-112767043D01*
X132813715Y-112786521D01*
X132832488Y-112806703D01*
X132834381Y-112807187D01*
X132868037Y-112840843D01*
X132876631Y-112855312D01*
X132901280Y-112867636D01*
X132925461Y-112880840D01*
X132927409Y-112880700D01*
X133021885Y-112927937D01*
X133042062Y-112940904D01*
X133062498Y-112940904D01*
X133082613Y-112944524D01*
X133091341Y-112940904D01*
X133313659Y-112940904D01*
X133337502Y-112943478D01*
X133355779Y-112934339D01*
X133375391Y-112928581D01*
X133381578Y-112921440D01*
X133382538Y-112920960D01*
X133399558Y-112935708D01*
X133457685Y-112944065D01*
X133511104Y-112919670D01*
X133542853Y-112870267D01*
X133542853Y-112791583D01*
X133547010Y-112775327D01*
X133542853Y-112762818D01*
X133542853Y-112039815D01*
X133957743Y-112039815D01*
X133961900Y-112052323D01*
X133961900Y-112777234D01*
X133960927Y-112804821D01*
X133961900Y-112806459D01*
X133961900Y-112855283D01*
X133974223Y-112897251D01*
X134018605Y-112935708D01*
X134076732Y-112944065D01*
X134124655Y-112922179D01*
X134136170Y-112927937D01*
X134156347Y-112940904D01*
X134176783Y-112940904D01*
X134196898Y-112944524D01*
X134205626Y-112940904D01*
X134427944Y-112940904D01*
X134451787Y-112943478D01*
X134470064Y-112934339D01*
X134489676Y-112928581D01*
X134495863Y-112921440D01*
X134590646Y-112874049D01*
X134607086Y-112870473D01*
X134626556Y-112851002D01*
X134646746Y-112832222D01*
X134647230Y-112830328D01*
X134680887Y-112796671D01*
X134695354Y-112788079D01*
X134707671Y-112763444D01*
X134720883Y-112739249D01*
X134720743Y-112737299D01*
X134767980Y-112642826D01*
X134780948Y-112622648D01*
X134780948Y-112602212D01*
X134784568Y-112582097D01*
X134780948Y-112573368D01*
X134780948Y-112542568D01*
X135072566Y-112542568D01*
X135076186Y-112551296D01*
X135076186Y-112649804D01*
X135073612Y-112673648D01*
X135082750Y-112691925D01*
X135088509Y-112711537D01*
X135095649Y-112717724D01*
X135137254Y-112800934D01*
X135137117Y-112804821D01*
X135150267Y-112826961D01*
X135155077Y-112836581D01*
X135157577Y-112839268D01*
X135167106Y-112855312D01*
X135177190Y-112860354D01*
X135184868Y-112868608D01*
X135202943Y-112873230D01*
X135312360Y-112927937D01*
X135332537Y-112940904D01*
X135352973Y-112940904D01*
X135373088Y-112944524D01*
X135381816Y-112940904D01*
X135666039Y-112940904D01*
X135689882Y-112943478D01*
X135708159Y-112934339D01*
X135727771Y-112928581D01*
X135733958Y-112921440D01*
X135734918Y-112920960D01*
X135751938Y-112935708D01*
X135810065Y-112944065D01*
X135863484Y-112919670D01*
X135895233Y-112870267D01*
X135895233Y-112791583D01*
X135899390Y-112775327D01*
X135895233Y-112762818D01*
X135895233Y-112296344D01*
X135899390Y-112280087D01*
X135895233Y-112267578D01*
X135895233Y-112233046D01*
X136248756Y-112233046D01*
X136252376Y-112241773D01*
X136252376Y-112587899D01*
X136249802Y-112611743D01*
X136258940Y-112630020D01*
X136264699Y-112649632D01*
X136271839Y-112655819D01*
X136319230Y-112750601D01*
X136322807Y-112767043D01*
X136342285Y-112786521D01*
X136361058Y-112806703D01*
X136362951Y-112807187D01*
X136396607Y-112840843D01*
X136405201Y-112855312D01*
X136429850Y-112867636D01*
X136454031Y-112880840D01*
X136455979Y-112880700D01*
X136550455Y-112927937D01*
X136570632Y-112940904D01*
X136591068Y-112940904D01*
X136611183Y-112944524D01*
X136619911Y-112940904D01*
X136842229Y-112940904D01*
X136866072Y-112943478D01*
X136884349Y-112934339D01*
X136903961Y-112928581D01*
X136910148Y-112921440D01*
X137029005Y-112862013D01*
X137061031Y-112832222D01*
X137075580Y-112775327D01*
X137057060Y-112719599D01*
X137011351Y-112682730D01*
X136952965Y-112676426D01*
X136824008Y-112740904D01*
X136623602Y-112740904D01*
X136535421Y-112696814D01*
X136496465Y-112657859D01*
X136452376Y-112569677D01*
X136452376Y-112447322D01*
X137426726Y-112447322D01*
X137428566Y-112473051D01*
X137428566Y-112855283D01*
X137440889Y-112897251D01*
X137485271Y-112935708D01*
X137543398Y-112944065D01*
X137596817Y-112919670D01*
X137628566Y-112870267D01*
X137628566Y-112510897D01*
X137641556Y-112497906D01*
X137952431Y-112912407D01*
X137987470Y-112938588D01*
X138046050Y-112942724D01*
X138097566Y-112914533D01*
X138125664Y-112862966D01*
X138121422Y-112804394D01*
X137784413Y-112355049D01*
X138104682Y-112034781D01*
X138125644Y-111996392D01*
X138121455Y-111937816D01*
X138086262Y-111890805D01*
X138031239Y-111870281D01*
X137973856Y-111882765D01*
X137628566Y-112228055D01*
X137628566Y-111526525D01*
X137616243Y-111484557D01*
X137571861Y-111446100D01*
X137513734Y-111437743D01*
X137460315Y-111462138D01*
X137428566Y-111511541D01*
X137428566Y-112443952D01*
X137426726Y-112447322D01*
X136452376Y-112447322D01*
X136452376Y-112245463D01*
X136496465Y-112157282D01*
X136535420Y-112118327D01*
X136623601Y-112074238D01*
X136824008Y-112074238D01*
X136939563Y-112132015D01*
X136982611Y-112139762D01*
X137036856Y-112117263D01*
X137070326Y-112069010D01*
X137072396Y-112010321D01*
X137042407Y-111959830D01*
X136897154Y-111887204D01*
X136876977Y-111874238D01*
X136856541Y-111874238D01*
X136836426Y-111870618D01*
X136827698Y-111874238D01*
X136605377Y-111874238D01*
X136581537Y-111871664D01*
X136563259Y-111880802D01*
X136543648Y-111886561D01*
X136537460Y-111893701D01*
X136442679Y-111941091D01*
X136426237Y-111944668D01*
X136406755Y-111964149D01*
X136386577Y-111982920D01*
X136386093Y-111984812D01*
X136352436Y-112018469D01*
X136337968Y-112027063D01*
X136325643Y-112051712D01*
X136312440Y-112075893D01*
X136312579Y-112077841D01*
X136265342Y-112172317D01*
X136252376Y-112192494D01*
X136252376Y-112212930D01*
X136248756Y-112233046D01*
X135895233Y-112233046D01*
X135895233Y-112165337D01*
X135897807Y-112141494D01*
X135888668Y-112123217D01*
X135882910Y-112103605D01*
X135875768Y-112097416D01*
X135834163Y-112014207D01*
X135834301Y-112010321D01*
X135821147Y-111988175D01*
X135816340Y-111978560D01*
X135813840Y-111975873D01*
X135804312Y-111959830D01*
X135794228Y-111954788D01*
X135786550Y-111946533D01*
X135768472Y-111941910D01*
X135659059Y-111887204D01*
X135638882Y-111874238D01*
X135618446Y-111874238D01*
X135598331Y-111870618D01*
X135589603Y-111874238D01*
X135367282Y-111874238D01*
X135343442Y-111871664D01*
X135325164Y-111880802D01*
X135305553Y-111886561D01*
X135299365Y-111893701D01*
X135180508Y-111953129D01*
X135148482Y-111982920D01*
X135133933Y-112039815D01*
X135152453Y-112095543D01*
X135198162Y-112132413D01*
X135256548Y-112138716D01*
X135385506Y-112074238D01*
X135585913Y-112074238D01*
X135658792Y-112110677D01*
X135695233Y-112183558D01*
X135695233Y-112221957D01*
X135647817Y-112245666D01*
X135367285Y-112245666D01*
X135343442Y-112243092D01*
X135325165Y-112252230D01*
X135305553Y-112257989D01*
X135299364Y-112265130D01*
X135216155Y-112306735D01*
X135212269Y-112306598D01*
X135190123Y-112319751D01*
X135180508Y-112324559D01*
X135177821Y-112327058D01*
X135161778Y-112336587D01*
X135156736Y-112346670D01*
X135148481Y-112354349D01*
X135143858Y-112372426D01*
X135089152Y-112481839D01*
X135076186Y-112502017D01*
X135076186Y-112522452D01*
X135072566Y-112542568D01*
X134780948Y-112542568D01*
X134780948Y-112227242D01*
X134783522Y-112203399D01*
X134774383Y-112185122D01*
X134768625Y-112165510D01*
X134761483Y-112159321D01*
X134714094Y-112064543D01*
X134710517Y-112048099D01*
X134691031Y-112028613D01*
X134672265Y-112008438D01*
X134670371Y-112007953D01*
X134636715Y-111974298D01*
X134628122Y-111959830D01*
X134603470Y-111947504D01*
X134579292Y-111934302D01*
X134577343Y-111934441D01*
X134482869Y-111887204D01*
X134462692Y-111874238D01*
X134442256Y-111874238D01*
X134422141Y-111870618D01*
X134413413Y-111874238D01*
X134191092Y-111874238D01*
X134167252Y-111871664D01*
X134161900Y-111874339D01*
X134161900Y-111526525D01*
X134149577Y-111484557D01*
X134105195Y-111446100D01*
X134047068Y-111437743D01*
X133993649Y-111462138D01*
X133961900Y-111511541D01*
X133961900Y-112023558D01*
X133957743Y-112039815D01*
X133542853Y-112039815D01*
X133542853Y-112037907D01*
X133543826Y-112010321D01*
X133542853Y-112008682D01*
X133542853Y-111526525D01*
X133530530Y-111484557D01*
X133486148Y-111446100D01*
X133428021Y-111437743D01*
X133374602Y-111462138D01*
X133342853Y-111511541D01*
X133342853Y-111874238D01*
X133327971Y-111874238D01*
X133307856Y-111870618D01*
X133299128Y-111874238D01*
X133076807Y-111874238D01*
X133052967Y-111871664D01*
X133034689Y-111880802D01*
X133015078Y-111886561D01*
X133008890Y-111893701D01*
X132914109Y-111941091D01*
X132897667Y-111944668D01*
X132878185Y-111964149D01*
X132858007Y-111982920D01*
X132857523Y-111984812D01*
X132823866Y-112018469D01*
X132809398Y-112027063D01*
X132797073Y-112051712D01*
X132783870Y-112075893D01*
X132784009Y-112077841D01*
X132736772Y-112172317D01*
X132723806Y-112192494D01*
X132723806Y-112212930D01*
X132720186Y-112233046D01*
X132428567Y-112233046D01*
X132428567Y-112165337D01*
X132431141Y-112141494D01*
X132422002Y-112123217D01*
X132416244Y-112103605D01*
X132409102Y-112097416D01*
X132367497Y-112014207D01*
X132367635Y-112010321D01*
X132354481Y-111988175D01*
X132349674Y-111978560D01*
X132347174Y-111975873D01*
X132337646Y-111959830D01*
X132327562Y-111954788D01*
X132319884Y-111946533D01*
X132301806Y-111941910D01*
X132192393Y-111887204D01*
X132172216Y-111874238D01*
X132151780Y-111874238D01*
X132131665Y-111870618D01*
X132122937Y-111874238D01*
X131900616Y-111874238D01*
X131876776Y-111871664D01*
X131858498Y-111880802D01*
X131838887Y-111886561D01*
X131832699Y-111893701D01*
X131749488Y-111935306D01*
X131745603Y-111935169D01*
X131723467Y-111948316D01*
X131713842Y-111953129D01*
X131711152Y-111955630D01*
X131695112Y-111965158D01*
X131690070Y-111975241D01*
X131681816Y-111982920D01*
X131677193Y-112000995D01*
X131622486Y-112110412D01*
X131609520Y-112130589D01*
X131609520Y-112151025D01*
X131605900Y-112171141D01*
X131314281Y-112171141D01*
X131314281Y-112165337D01*
X131316855Y-112141494D01*
X131307716Y-112123217D01*
X131301958Y-112103605D01*
X131294816Y-112097416D01*
X131253211Y-112014207D01*
X131253349Y-112010321D01*
X131240195Y-111988175D01*
X131235388Y-111978560D01*
X131232888Y-111975873D01*
X131223360Y-111959830D01*
X131213276Y-111954788D01*
X131205598Y-111946533D01*
X131187520Y-111941910D01*
X131078107Y-111887204D01*
X131057930Y-111874238D01*
X131037494Y-111874238D01*
X131017379Y-111870618D01*
X131008651Y-111874238D01*
X130786330Y-111874238D01*
X130762490Y-111871664D01*
X130744212Y-111880802D01*
X130724601Y-111886561D01*
X130718413Y-111893701D01*
X130635202Y-111935306D01*
X130631317Y-111935169D01*
X130609181Y-111948316D01*
X130599556Y-111953129D01*
X130596866Y-111955630D01*
X130580826Y-111965158D01*
X130575784Y-111975241D01*
X130567530Y-111982920D01*
X130562907Y-112000995D01*
X130508200Y-112110412D01*
X130495234Y-112130589D01*
X130495234Y-112151025D01*
X130491614Y-112171141D01*
X130014281Y-112171141D01*
X130014281Y-112074238D01*
X130238184Y-112074238D01*
X130280152Y-112061915D01*
X130318609Y-112017533D01*
X130326966Y-111959406D01*
X130302571Y-111905987D01*
X130253168Y-111874238D01*
X130014281Y-111874238D01*
X130014281Y-111750225D01*
X130050721Y-111677344D01*
X130123603Y-111640904D01*
X130238184Y-111640904D01*
X130280152Y-111628581D01*
X130318609Y-111584199D01*
X130326966Y-111526072D01*
X130302571Y-111472653D01*
X130253168Y-111440904D01*
X130105381Y-111440904D01*
X130081538Y-111438330D01*
X130063261Y-111447468D01*
X130043649Y-111453227D01*
X130037460Y-111460368D01*
X129954251Y-111501973D01*
X129950366Y-111501836D01*
X129928221Y-111514988D01*
X129918604Y-111519797D01*
X129915917Y-111522296D01*
X129899875Y-111531824D01*
X129894833Y-111541907D01*
X129886577Y-111549587D01*
X129881954Y-111567665D01*
X129827248Y-111677078D01*
X129814281Y-111697256D01*
X129814280Y-111717691D01*
X129810661Y-111737807D01*
X129814281Y-111746535D01*
X129814281Y-111874238D01*
X129714188Y-111874238D01*
X129672220Y-111886561D01*
X129633763Y-111930943D01*
X129625406Y-111989070D01*
X127970320Y-111989070D01*
X127974585Y-111959406D01*
X127950190Y-111905987D01*
X127900787Y-111874238D01*
X127752996Y-111874238D01*
X127729156Y-111871664D01*
X127710879Y-111880802D01*
X127691267Y-111886561D01*
X127685079Y-111893702D01*
X127593948Y-111939267D01*
X127587672Y-111917891D01*
X127543290Y-111879434D01*
X127485163Y-111871077D01*
X127431744Y-111895472D01*
X127399995Y-111944875D01*
X127399995Y-112212929D01*
X127396375Y-112233045D01*
X127042852Y-112233045D01*
X127042852Y-112165337D01*
X127045426Y-112141494D01*
X127036287Y-112123217D01*
X127030529Y-112103605D01*
X127023387Y-112097416D01*
X126981782Y-112014207D01*
X126981920Y-112010321D01*
X126968766Y-111988175D01*
X126963959Y-111978560D01*
X126961459Y-111975873D01*
X126951931Y-111959830D01*
X126941847Y-111954788D01*
X126934169Y-111946533D01*
X126916091Y-111941910D01*
X126806678Y-111887204D01*
X126786501Y-111874238D01*
X126766065Y-111874238D01*
X126745950Y-111870618D01*
X126737222Y-111874238D01*
X126514901Y-111874238D01*
X126491061Y-111871664D01*
X126472783Y-111880802D01*
X126453172Y-111886561D01*
X126446984Y-111893701D01*
X126363773Y-111935306D01*
X126359888Y-111935169D01*
X126337752Y-111948316D01*
X126328127Y-111953129D01*
X126325437Y-111955630D01*
X126309397Y-111965158D01*
X126304355Y-111975241D01*
X126296101Y-111982920D01*
X126291478Y-112000995D01*
X126236771Y-112110412D01*
X126223805Y-112130589D01*
X126223805Y-112151025D01*
X126220185Y-112171141D01*
X125377632Y-112171141D01*
X125407863Y-112110677D01*
X125480744Y-112074238D01*
X125619245Y-112074238D01*
X125734802Y-112132015D01*
X125777850Y-112139762D01*
X125832095Y-112117263D01*
X125865565Y-112069010D01*
X125867635Y-112010321D01*
X125837646Y-111959830D01*
X125692391Y-111887204D01*
X125672215Y-111874238D01*
X125651779Y-111874238D01*
X125631663Y-111870618D01*
X125622935Y-111874238D01*
X125462520Y-111874238D01*
X125438680Y-111871664D01*
X125420402Y-111880802D01*
X125400791Y-111886561D01*
X125394603Y-111893701D01*
X125311392Y-111935306D01*
X125307507Y-111935169D01*
X125285371Y-111948316D01*
X125275746Y-111953129D01*
X125273056Y-111955630D01*
X125257016Y-111965158D01*
X125251974Y-111975241D01*
X125243720Y-111982920D01*
X125239097Y-112000995D01*
X125184390Y-112110412D01*
X125171424Y-112130589D01*
X125171424Y-112151025D01*
X125167804Y-112171141D01*
X124814281Y-112171141D01*
X124814281Y-112165337D01*
X124816855Y-112141494D01*
X124807716Y-112123217D01*
X124801958Y-112103605D01*
X124794816Y-112097416D01*
X124753211Y-112014207D01*
X124753349Y-112010321D01*
X124740195Y-111988175D01*
X124735388Y-111978560D01*
X124732888Y-111975873D01*
X124723360Y-111959830D01*
X124713276Y-111954788D01*
X124705598Y-111946533D01*
X124687520Y-111941910D01*
X124578107Y-111887204D01*
X124557930Y-111874238D01*
X124537494Y-111874238D01*
X124517379Y-111870618D01*
X124508651Y-111874238D01*
X124286330Y-111874238D01*
X124262490Y-111871664D01*
X124244212Y-111880802D01*
X124224601Y-111886561D01*
X124218413Y-111893701D01*
X124099556Y-111953129D01*
X124067530Y-111982920D01*
X124052981Y-112039815D01*
X124071501Y-112095543D01*
X124117210Y-112132413D01*
X124175596Y-112138716D01*
X124304554Y-112074238D01*
X124504961Y-112074238D01*
X124577840Y-112110677D01*
X124614281Y-112183558D01*
X124614281Y-112221957D01*
X124566865Y-112245666D01*
X124286333Y-112245666D01*
X124262490Y-112243092D01*
X124244213Y-112252230D01*
X124224601Y-112257989D01*
X124218412Y-112265130D01*
X124135203Y-112306735D01*
X124131317Y-112306598D01*
X124109171Y-112319751D01*
X124099556Y-112324559D01*
X124096869Y-112327058D01*
X124080826Y-112336587D01*
X124075784Y-112346670D01*
X124067529Y-112354349D01*
X124062906Y-112372426D01*
X124008200Y-112481839D01*
X123995234Y-112502017D01*
X123995234Y-112522452D01*
X123991614Y-112542568D01*
X123576186Y-112542568D01*
X123576186Y-111526525D01*
X123563863Y-111484557D01*
X123519481Y-111446100D01*
X123461354Y-111437743D01*
X123407935Y-111462138D01*
X123376186Y-111511541D01*
X123376186Y-112649804D01*
X123373612Y-112673648D01*
X122366606Y-112673648D01*
X123134034Y-111522506D01*
X123147060Y-111480751D01*
X123131465Y-111424134D01*
X123087736Y-111384937D01*
X123029756Y-111375604D01*
X122975936Y-111399098D01*
X121837386Y-113106922D01*
X121824360Y-113148677D01*
X118809520Y-113148677D01*
X118809520Y-112940904D01*
X118824403Y-112940904D01*
X118844518Y-112944524D01*
X118853246Y-112940904D01*
X119075564Y-112940904D01*
X119099407Y-112943478D01*
X119117684Y-112934339D01*
X119137296Y-112928581D01*
X119143483Y-112921440D01*
X119238266Y-112874049D01*
X119254706Y-112870473D01*
X119274176Y-112851002D01*
X119294366Y-112832222D01*
X119294850Y-112830328D01*
X119328507Y-112796671D01*
X119342974Y-112788079D01*
X119355291Y-112763444D01*
X119368503Y-112739249D01*
X119368363Y-112737299D01*
X119400189Y-112673648D01*
X119783136Y-112673648D01*
X119792274Y-112691924D01*
X119798033Y-112711537D01*
X119805174Y-112717724D01*
X119846779Y-112800934D01*
X119846642Y-112804821D01*
X119859792Y-112826961D01*
X119864603Y-112836583D01*
X119867103Y-112839271D01*
X119876631Y-112855312D01*
X119886714Y-112860353D01*
X119894394Y-112868609D01*
X119912471Y-112873231D01*
X120021885Y-112927937D01*
X120042062Y-112940904D01*
X120062498Y-112940904D01*
X120082613Y-112944524D01*
X120091341Y-112940904D01*
X120251754Y-112940904D01*
X120275597Y-112943478D01*
X120293874Y-112934339D01*
X120313486Y-112928581D01*
X120319673Y-112921440D01*
X120359887Y-112901333D01*
X120399558Y-112935708D01*
X120457685Y-112944065D01*
X120511104Y-112919670D01*
X120542853Y-112870267D01*
X120542853Y-112831042D01*
X120834337Y-112831042D01*
X120836712Y-112843338D01*
X120834930Y-112855736D01*
X120842169Y-112871587D01*
X120845475Y-112888702D01*
X120854122Y-112897763D01*
X120859325Y-112909155D01*
X120873987Y-112918577D01*
X120886019Y-112931185D01*
X120898191Y-112934132D01*
X120908728Y-112940904D01*
X120926155Y-112940904D01*
X120943095Y-112945006D01*
X120954930Y-112940904D01*
X121633422Y-112940904D01*
X121675390Y-112928581D01*
X121713847Y-112884199D01*
X121722204Y-112826072D01*
X121697809Y-112772653D01*
X121648406Y-112740904D01*
X121143838Y-112740904D01*
X121696183Y-112037917D01*
X121713847Y-112017533D01*
X121716327Y-112000280D01*
X121722797Y-111984100D01*
X121720421Y-111971803D01*
X121722204Y-111959406D01*
X121714963Y-111943550D01*
X121711658Y-111926441D01*
X121703012Y-111917381D01*
X121697809Y-111905987D01*
X121683145Y-111896563D01*
X121671115Y-111883957D01*
X121658942Y-111881009D01*
X121648406Y-111874238D01*
X121630979Y-111874238D01*
X121614039Y-111870136D01*
X121602204Y-111874238D01*
X120923712Y-111874238D01*
X120881744Y-111886561D01*
X120843287Y-111930943D01*
X120834930Y-111989070D01*
X120859325Y-112042489D01*
X120908728Y-112074238D01*
X121413296Y-112074238D01*
X120860950Y-112777224D01*
X120843287Y-112797609D01*
X120840806Y-112814861D01*
X120834337Y-112831042D01*
X120542853Y-112831042D01*
X120542853Y-112742618D01*
X120544693Y-112739249D01*
X120542853Y-112713519D01*
X120542853Y-111959859D01*
X120530530Y-111917891D01*
X120486148Y-111879434D01*
X120428021Y-111871077D01*
X120374602Y-111895472D01*
X120342853Y-111944875D01*
X120342853Y-112675673D01*
X120321711Y-112696814D01*
X120233533Y-112740904D01*
X120095032Y-112740904D01*
X120022149Y-112704463D01*
X119985710Y-112631584D01*
X119985710Y-111959859D01*
X119973387Y-111917891D01*
X119929005Y-111879434D01*
X119870878Y-111871077D01*
X119817459Y-111895472D01*
X119785710Y-111944875D01*
X119785710Y-112649804D01*
X119783136Y-112673648D01*
X119400189Y-112673648D01*
X119415600Y-112642826D01*
X119428568Y-112622648D01*
X119428568Y-112602212D01*
X119432188Y-112582097D01*
X119428568Y-112573368D01*
X119428568Y-112227242D01*
X119431142Y-112203399D01*
X119422003Y-112185122D01*
X119416245Y-112165510D01*
X119409103Y-112159321D01*
X119361714Y-112064543D01*
X119358137Y-112048099D01*
X119338651Y-112028613D01*
X119319885Y-112008438D01*
X119317991Y-112007953D01*
X119284335Y-111974298D01*
X119275742Y-111959830D01*
X119251090Y-111947504D01*
X119226912Y-111934302D01*
X119224963Y-111934441D01*
X119130489Y-111887204D01*
X119110312Y-111874238D01*
X119089876Y-111874238D01*
X119069761Y-111870618D01*
X119061033Y-111874238D01*
X118838712Y-111874238D01*
X118814872Y-111871664D01*
X118796594Y-111880802D01*
X118776983Y-111886561D01*
X118770795Y-111893701D01*
X118769835Y-111894181D01*
X118752815Y-111879434D01*
X118694688Y-111871077D01*
X118641269Y-111895472D01*
X118609520Y-111944875D01*
X118609520Y-112023558D01*
X118605363Y-112039815D01*
X118204111Y-112039815D01*
X118191307Y-112014207D01*
X118191445Y-112010321D01*
X118178291Y-111988175D01*
X118173484Y-111978560D01*
X118170984Y-111975873D01*
X118161456Y-111959830D01*
X118151372Y-111954788D01*
X118143694Y-111946533D01*
X118125616Y-111941910D01*
X118016203Y-111887204D01*
X117996026Y-111874238D01*
X117975590Y-111874238D01*
X117955475Y-111870618D01*
X117946747Y-111874238D01*
X117724426Y-111874238D01*
X117700586Y-111871664D01*
X117682308Y-111880802D01*
X117662697Y-111886561D01*
X117656509Y-111893701D01*
X117573298Y-111935306D01*
X117569413Y-111935169D01*
X117547277Y-111948316D01*
X117537652Y-111953129D01*
X117534962Y-111955630D01*
X117518922Y-111965158D01*
X117513880Y-111975241D01*
X117505626Y-111982920D01*
X117501003Y-112000995D01*
X117446296Y-112110412D01*
X117433330Y-112130589D01*
X117433330Y-112151025D01*
X117429710Y-112171141D01*
X117014282Y-112171141D01*
X117014282Y-111526525D01*
X117001959Y-111484557D01*
X116957577Y-111446100D01*
X116899450Y-111437743D01*
X116846031Y-111462138D01*
X116814282Y-111511541D01*
X116814282Y-112649804D01*
X116811708Y-112673648D01*
X116354361Y-112673648D01*
X116333329Y-112631583D01*
X116333330Y-111526525D01*
X116321007Y-111484557D01*
X116276625Y-111446100D01*
X116218498Y-111437743D01*
X116165079Y-111462138D01*
X116133330Y-111511541D01*
X116133330Y-112649804D01*
X116130756Y-112673648D01*
X115714283Y-112673648D01*
X115714282Y-112296344D01*
X115718440Y-112280087D01*
X115714283Y-112267578D01*
X115714283Y-112165337D01*
X115716857Y-112141494D01*
X115707718Y-112123217D01*
X115701960Y-112103605D01*
X115694818Y-112097416D01*
X115653213Y-112014207D01*
X115653351Y-112010321D01*
X115640197Y-111988175D01*
X115635390Y-111978560D01*
X115632890Y-111975873D01*
X115623362Y-111959830D01*
X115613278Y-111954788D01*
X115605600Y-111946533D01*
X115587522Y-111941910D01*
X115478109Y-111887204D01*
X115457932Y-111874238D01*
X115437496Y-111874238D01*
X115417381Y-111870618D01*
X115408653Y-111874238D01*
X115186332Y-111874238D01*
X115162492Y-111871664D01*
X115144214Y-111880802D01*
X115124603Y-111886561D01*
X115118415Y-111893701D01*
X114999558Y-111953129D01*
X114967532Y-111982920D01*
X114952983Y-112039815D01*
X114971503Y-112095543D01*
X115017212Y-112132413D01*
X115075598Y-112138716D01*
X115204556Y-112074238D01*
X115404963Y-112074238D01*
X115477842Y-112110677D01*
X115514282Y-112183558D01*
X115514283Y-112221957D01*
X115466867Y-112245666D01*
X115186335Y-112245666D01*
X115162492Y-112243092D01*
X115144215Y-112252230D01*
X115124603Y-112257989D01*
X115118414Y-112265130D01*
X115035205Y-112306735D01*
X115031319Y-112306598D01*
X115009173Y-112319751D01*
X114999558Y-112324559D01*
X114996871Y-112327058D01*
X114980828Y-112336587D01*
X114975786Y-112346670D01*
X114967531Y-112354349D01*
X114962908Y-112372426D01*
X114908202Y-112481839D01*
X114895236Y-112502017D01*
X114895236Y-112522452D01*
X114891616Y-112542568D01*
X114538092Y-112542568D01*
X114538093Y-112037907D01*
X114539066Y-112010321D01*
X114538093Y-112008682D01*
X114538093Y-111959859D01*
X114525770Y-111917891D01*
X114481388Y-111879434D01*
X114423261Y-111871077D01*
X114375338Y-111892961D01*
X114363824Y-111887204D01*
X114343647Y-111874238D01*
X114323211Y-111874238D01*
X114303096Y-111870618D01*
X114294368Y-111874238D01*
X114072047Y-111874238D01*
X114048207Y-111871664D01*
X114029929Y-111880802D01*
X114010318Y-111886561D01*
X114004130Y-111893701D01*
X113909349Y-111941091D01*
X113892907Y-111944668D01*
X113873425Y-111964149D01*
X113853247Y-111982920D01*
X113852763Y-111984812D01*
X113819106Y-112018469D01*
X113804638Y-112027063D01*
X113792313Y-112051712D01*
X113779110Y-112075893D01*
X113779249Y-112077841D01*
X113732012Y-112172317D01*
X113719046Y-112192494D01*
X113719046Y-112212930D01*
X113715426Y-112233046D01*
X113065104Y-112233046D01*
X113538798Y-111522506D01*
X113551824Y-111480751D01*
X113536229Y-111424134D01*
X113492500Y-111384937D01*
X113434520Y-111375604D01*
X113380700Y-111399098D01*
X112242150Y-113106922D01*
X112229124Y-113148677D01*
X102417439Y-113148677D01*
X102453700Y-113076157D01*
X102466666Y-113055982D01*
X102466666Y-113035546D01*
X102470286Y-113015431D01*
X102466666Y-113006702D01*
X102466666Y-112855283D01*
X102885713Y-112855283D01*
X102898036Y-112897251D01*
X102942418Y-112935708D01*
X103000545Y-112944065D01*
X103053964Y-112919670D01*
X103085713Y-112870267D01*
X103085713Y-111989070D01*
X103315886Y-111989070D01*
X103340281Y-112042489D01*
X103389684Y-112074238D01*
X103504761Y-112074238D01*
X103504761Y-112649804D01*
X103502187Y-112673648D01*
X103511325Y-112691924D01*
X103517084Y-112711537D01*
X103524225Y-112717724D01*
X103565830Y-112800934D01*
X103565693Y-112804821D01*
X103578843Y-112826961D01*
X103583654Y-112836583D01*
X103586154Y-112839271D01*
X103595682Y-112855312D01*
X103605765Y-112860353D01*
X103613445Y-112868609D01*
X103631522Y-112873231D01*
X103740936Y-112927937D01*
X103761113Y-112940904D01*
X103781549Y-112940904D01*
X103801664Y-112944524D01*
X103810392Y-112940904D01*
X103928664Y-112940904D01*
X103970632Y-112928581D01*
X104009089Y-112884199D01*
X104017446Y-112826072D01*
X103993051Y-112772653D01*
X103943648Y-112740904D01*
X103814083Y-112740904D01*
X103741200Y-112704463D01*
X103704761Y-112631583D01*
X103704761Y-112075893D01*
X104245778Y-112075893D01*
X104247618Y-112101622D01*
X104247618Y-112855283D01*
X104259941Y-112897251D01*
X104304323Y-112935708D01*
X104362450Y-112944065D01*
X104415869Y-112919670D01*
X104447618Y-112870267D01*
X104447618Y-112139468D01*
X104468758Y-112118327D01*
X104556939Y-112074238D01*
X104695441Y-112074238D01*
X104768320Y-112110677D01*
X104804761Y-112183558D01*
X104804761Y-112855283D01*
X104817084Y-112897251D01*
X104861466Y-112935708D01*
X104919593Y-112944065D01*
X104973012Y-112919670D01*
X105004761Y-112870267D01*
X105004761Y-112673648D01*
X105421234Y-112673648D01*
X105430372Y-112691924D01*
X105436131Y-112711537D01*
X105443272Y-112717724D01*
X105484877Y-112800934D01*
X105484740Y-112804821D01*
X105497890Y-112826961D01*
X105502701Y-112836583D01*
X105505201Y-112839271D01*
X105514729Y-112855312D01*
X105524812Y-112860353D01*
X105532492Y-112868609D01*
X105550569Y-112873231D01*
X105659983Y-112927937D01*
X105680160Y-112940904D01*
X105700596Y-112940904D01*
X105720711Y-112944524D01*
X105729439Y-112940904D01*
X105889852Y-112940904D01*
X105913695Y-112943478D01*
X105931972Y-112934339D01*
X105951584Y-112928581D01*
X105957771Y-112921440D01*
X105997985Y-112901333D01*
X106037656Y-112935708D01*
X106095783Y-112944065D01*
X106149202Y-112919670D01*
X106180951Y-112870267D01*
X106180951Y-112742618D01*
X106182791Y-112739249D01*
X106180951Y-112713519D01*
X106180951Y-112039815D01*
X106595841Y-112039815D01*
X106599998Y-112052323D01*
X106599997Y-112777234D01*
X106599025Y-112804821D01*
X106599998Y-112806459D01*
X106599998Y-112855283D01*
X106612321Y-112897251D01*
X106656703Y-112935708D01*
X106714830Y-112944065D01*
X106762753Y-112922179D01*
X106774268Y-112927937D01*
X106794445Y-112940904D01*
X106814881Y-112940904D01*
X106834996Y-112944524D01*
X106843724Y-112940904D01*
X107066042Y-112940904D01*
X107089885Y-112943478D01*
X107108162Y-112934339D01*
X107127774Y-112928581D01*
X107133961Y-112921440D01*
X107228744Y-112874049D01*
X107245184Y-112870473D01*
X107264654Y-112851002D01*
X107284844Y-112832222D01*
X107285328Y-112830328D01*
X107318985Y-112796671D01*
X107333452Y-112788079D01*
X107341709Y-112771565D01*
X107710327Y-112771565D01*
X107715048Y-112793269D01*
X107716634Y-112815423D01*
X107721193Y-112821513D01*
X107722811Y-112828948D01*
X107738516Y-112844653D01*
X107751827Y-112862434D01*
X107758955Y-112865092D01*
X107787429Y-112893566D01*
X107788511Y-112897251D01*
X107802575Y-112909438D01*
X107813729Y-112924337D01*
X107824336Y-112928293D01*
X107832893Y-112935708D01*
X107844098Y-112937319D01*
X107854034Y-112942744D01*
X107861621Y-112942201D01*
X107868752Y-112944861D01*
X107879815Y-112942454D01*
X107891020Y-112944065D01*
X107901319Y-112939361D01*
X107912610Y-112938554D01*
X107918699Y-112933995D01*
X107926135Y-112932378D01*
X107934139Y-112924373D01*
X107944439Y-112919670D01*
X107950560Y-112910144D01*
X107959621Y-112903362D01*
X107962279Y-112896234D01*
X108003745Y-112854769D01*
X108021527Y-112841458D01*
X108029288Y-112820648D01*
X108039933Y-112801155D01*
X108039390Y-112793565D01*
X108042050Y-112786435D01*
X108037327Y-112764728D01*
X108035744Y-112742579D01*
X108031184Y-112736488D01*
X108029567Y-112729052D01*
X108013861Y-112713346D01*
X108000552Y-112695567D01*
X107993422Y-112692907D01*
X107964946Y-112664432D01*
X107963865Y-112660748D01*
X107949797Y-112648558D01*
X107938645Y-112633661D01*
X107928039Y-112629705D01*
X107919483Y-112622291D01*
X107908276Y-112620679D01*
X107898342Y-112615255D01*
X107890752Y-112615797D01*
X107883622Y-112613138D01*
X107872559Y-112615544D01*
X107861356Y-112613934D01*
X107851058Y-112618636D01*
X107839766Y-112619444D01*
X107833673Y-112624004D01*
X107826239Y-112625622D01*
X107818234Y-112633626D01*
X107807937Y-112638329D01*
X107801816Y-112647852D01*
X107792754Y-112654637D01*
X107790094Y-112661766D01*
X107748629Y-112703232D01*
X107730850Y-112716542D01*
X107723088Y-112737350D01*
X107712443Y-112756847D01*
X107712985Y-112764436D01*
X107710327Y-112771565D01*
X107341709Y-112771565D01*
X107345769Y-112763444D01*
X107358981Y-112739249D01*
X107358841Y-112737299D01*
X107406078Y-112642826D01*
X107419046Y-112622648D01*
X107419046Y-112602212D01*
X107422666Y-112582097D01*
X107419046Y-112573368D01*
X107419046Y-112233046D01*
X108329712Y-112233046D01*
X108333332Y-112241773D01*
X108333332Y-112587899D01*
X108330758Y-112611743D01*
X108339896Y-112630020D01*
X108345655Y-112649632D01*
X108352795Y-112655819D01*
X108400186Y-112750601D01*
X108403763Y-112767043D01*
X108423241Y-112786521D01*
X108442014Y-112806703D01*
X108443907Y-112807187D01*
X108477563Y-112840843D01*
X108486157Y-112855312D01*
X108510806Y-112867636D01*
X108534987Y-112880840D01*
X108536935Y-112880700D01*
X108631411Y-112927937D01*
X108651588Y-112940904D01*
X108672024Y-112940904D01*
X108692139Y-112944524D01*
X108700867Y-112940904D01*
X108923185Y-112940904D01*
X108947028Y-112943478D01*
X108965305Y-112934339D01*
X108984917Y-112928581D01*
X108991104Y-112921440D01*
X109109961Y-112862013D01*
X109141987Y-112832222D01*
X109156536Y-112775327D01*
X109138016Y-112719599D01*
X109092307Y-112682730D01*
X109033921Y-112676426D01*
X108904964Y-112740904D01*
X108704558Y-112740904D01*
X108616377Y-112696814D01*
X108577421Y-112657859D01*
X108533332Y-112569677D01*
X108533332Y-112245463D01*
X108539540Y-112233046D01*
X109443998Y-112233046D01*
X109447618Y-112241773D01*
X109447618Y-112587899D01*
X109445044Y-112611743D01*
X109454182Y-112630020D01*
X109459941Y-112649632D01*
X109467081Y-112655819D01*
X109514472Y-112750601D01*
X109518049Y-112767043D01*
X109537527Y-112786521D01*
X109556300Y-112806703D01*
X109558193Y-112807187D01*
X109591849Y-112840843D01*
X109600443Y-112855312D01*
X109625092Y-112867636D01*
X109649273Y-112880840D01*
X109651221Y-112880700D01*
X109745697Y-112927937D01*
X109765874Y-112940904D01*
X109786310Y-112940904D01*
X109806425Y-112944524D01*
X109815153Y-112940904D01*
X109975566Y-112940904D01*
X109999409Y-112943478D01*
X110017686Y-112934339D01*
X110037298Y-112928581D01*
X110043485Y-112921440D01*
X110138268Y-112874049D01*
X110154708Y-112870473D01*
X110174178Y-112851002D01*
X110194368Y-112832222D01*
X110194852Y-112830328D01*
X110228509Y-112796671D01*
X110242976Y-112788079D01*
X110255293Y-112763444D01*
X110268505Y-112739249D01*
X110268365Y-112737299D01*
X110315602Y-112642826D01*
X110328570Y-112622648D01*
X110328569Y-112602212D01*
X110332190Y-112582097D01*
X110328570Y-112573368D01*
X110328570Y-112227242D01*
X110331144Y-112203399D01*
X110322005Y-112185122D01*
X110316247Y-112165510D01*
X110309105Y-112159321D01*
X110267391Y-112075893D01*
X110683872Y-112075893D01*
X110685712Y-112101622D01*
X110685712Y-112855283D01*
X110698035Y-112897251D01*
X110742417Y-112935708D01*
X110800544Y-112944065D01*
X110853963Y-112919670D01*
X110885712Y-112870267D01*
X110885711Y-112139468D01*
X110906852Y-112118327D01*
X110995033Y-112074238D01*
X111133535Y-112074238D01*
X111206414Y-112110677D01*
X111242854Y-112183558D01*
X111242855Y-112855283D01*
X111255178Y-112897251D01*
X111299560Y-112935708D01*
X111357687Y-112944065D01*
X111411106Y-112919670D01*
X111442855Y-112870267D01*
X111442855Y-112183557D01*
X111479294Y-112110678D01*
X111552176Y-112074238D01*
X111690678Y-112074238D01*
X111763557Y-112110677D01*
X111799998Y-112183558D01*
X111799998Y-112855283D01*
X111812321Y-112897251D01*
X111856703Y-112935708D01*
X111914830Y-112944065D01*
X111968249Y-112919670D01*
X111999998Y-112870267D01*
X111999998Y-112165337D01*
X112002572Y-112141494D01*
X111993433Y-112123217D01*
X111987675Y-112103605D01*
X111980533Y-112097416D01*
X111938928Y-112014207D01*
X111939066Y-112010321D01*
X111925912Y-111988175D01*
X111921105Y-111978560D01*
X111918605Y-111975873D01*
X111909077Y-111959830D01*
X111898993Y-111954788D01*
X111891315Y-111946533D01*
X111873237Y-111941910D01*
X111763824Y-111887204D01*
X111743647Y-111874238D01*
X111723211Y-111874238D01*
X111703096Y-111870618D01*
X111694368Y-111874238D01*
X111533951Y-111874238D01*
X111510111Y-111871664D01*
X111491834Y-111880802D01*
X111472222Y-111886561D01*
X111466034Y-111893702D01*
X111382826Y-111935306D01*
X111378940Y-111935169D01*
X111356794Y-111948321D01*
X111347178Y-111953130D01*
X111344491Y-111955628D01*
X111344052Y-111955889D01*
X111341850Y-111954788D01*
X111334172Y-111946533D01*
X111316094Y-111941910D01*
X111206681Y-111887204D01*
X111186504Y-111874238D01*
X111166068Y-111874238D01*
X111145953Y-111870618D01*
X111137225Y-111874238D01*
X110976809Y-111874238D01*
X110952969Y-111871664D01*
X110934691Y-111880802D01*
X110915080Y-111886561D01*
X110908892Y-111893701D01*
X110868677Y-111913808D01*
X110829007Y-111879434D01*
X110770880Y-111871077D01*
X110717461Y-111895472D01*
X110685712Y-111944875D01*
X110685712Y-112072523D01*
X110683872Y-112075893D01*
X110267391Y-112075893D01*
X110261716Y-112064543D01*
X110258139Y-112048099D01*
X110238653Y-112028613D01*
X110219887Y-112008438D01*
X110217993Y-112007953D01*
X110184337Y-111974298D01*
X110175744Y-111959830D01*
X110151092Y-111947504D01*
X110126914Y-111934302D01*
X110124965Y-111934441D01*
X110030491Y-111887204D01*
X110010314Y-111874238D01*
X109989878Y-111874238D01*
X109969763Y-111870618D01*
X109961035Y-111874238D01*
X109800619Y-111874238D01*
X109776779Y-111871664D01*
X109758501Y-111880802D01*
X109738890Y-111886561D01*
X109732702Y-111893701D01*
X109637921Y-111941091D01*
X109621479Y-111944668D01*
X109601997Y-111964149D01*
X109581819Y-111982920D01*
X109581335Y-111984812D01*
X109547678Y-112018469D01*
X109533210Y-112027063D01*
X109520885Y-112051712D01*
X109507682Y-112075893D01*
X109507821Y-112077841D01*
X109460584Y-112172317D01*
X109447618Y-112192494D01*
X109447618Y-112212930D01*
X109443998Y-112233046D01*
X108539540Y-112233046D01*
X108577421Y-112157282D01*
X108616376Y-112118327D01*
X108704557Y-112074238D01*
X108904964Y-112074238D01*
X109020519Y-112132015D01*
X109063567Y-112139762D01*
X109117812Y-112117263D01*
X109151282Y-112069010D01*
X109153352Y-112010321D01*
X109123363Y-111959830D01*
X108978110Y-111887204D01*
X108957933Y-111874238D01*
X108937497Y-111874238D01*
X108917382Y-111870618D01*
X108908654Y-111874238D01*
X108686333Y-111874238D01*
X108662493Y-111871664D01*
X108644215Y-111880802D01*
X108624604Y-111886561D01*
X108618416Y-111893701D01*
X108523635Y-111941091D01*
X108507193Y-111944668D01*
X108487711Y-111964149D01*
X108467533Y-111982920D01*
X108467049Y-111984812D01*
X108433392Y-112018469D01*
X108418924Y-112027063D01*
X108406599Y-112051712D01*
X108393396Y-112075893D01*
X108393535Y-112077841D01*
X108346298Y-112172317D01*
X108333332Y-112192494D01*
X108333332Y-112212930D01*
X108329712Y-112233046D01*
X107419046Y-112233046D01*
X107419046Y-112227242D01*
X107421620Y-112203399D01*
X107412481Y-112185122D01*
X107406723Y-112165510D01*
X107399581Y-112159321D01*
X107352192Y-112064543D01*
X107348615Y-112048099D01*
X107329129Y-112028613D01*
X107310363Y-112008438D01*
X107308469Y-112007953D01*
X107274813Y-111974298D01*
X107266220Y-111959830D01*
X107241568Y-111947504D01*
X107217390Y-111934302D01*
X107215441Y-111934441D01*
X107120967Y-111887204D01*
X107100790Y-111874238D01*
X107080354Y-111874238D01*
X107060239Y-111870618D01*
X107051511Y-111874238D01*
X106829190Y-111874238D01*
X106805350Y-111871664D01*
X106799998Y-111874339D01*
X106799998Y-111526525D01*
X106787675Y-111484557D01*
X106743293Y-111446100D01*
X106685166Y-111437743D01*
X106631747Y-111462138D01*
X106599998Y-111511541D01*
X106599998Y-112023558D01*
X106595841Y-112039815D01*
X106180951Y-112039815D01*
X106180951Y-111959859D01*
X106168628Y-111917891D01*
X106124246Y-111879434D01*
X106066119Y-111871077D01*
X106012700Y-111895472D01*
X105980951Y-111944875D01*
X105980951Y-112675673D01*
X105959809Y-112696814D01*
X105871631Y-112740904D01*
X105733130Y-112740904D01*
X105660247Y-112704463D01*
X105623807Y-112631583D01*
X105623808Y-111959859D01*
X105611485Y-111917891D01*
X105567103Y-111879434D01*
X105508976Y-111871077D01*
X105455557Y-111895472D01*
X105423808Y-111944875D01*
X105423808Y-112649804D01*
X105421234Y-112673648D01*
X105004761Y-112673648D01*
X105004761Y-112165337D01*
X105007335Y-112141494D01*
X104998196Y-112123217D01*
X104992438Y-112103605D01*
X104985296Y-112097416D01*
X104943691Y-112014207D01*
X104943829Y-112010321D01*
X104930675Y-111988175D01*
X104925868Y-111978560D01*
X104923368Y-111975873D01*
X104913840Y-111959830D01*
X104903756Y-111954788D01*
X104896078Y-111946533D01*
X104878000Y-111941910D01*
X104768587Y-111887204D01*
X104748410Y-111874238D01*
X104727974Y-111874238D01*
X104707859Y-111870618D01*
X104699131Y-111874238D01*
X104538715Y-111874238D01*
X104514875Y-111871664D01*
X104496597Y-111880802D01*
X104476986Y-111886561D01*
X104470798Y-111893701D01*
X104447618Y-111905291D01*
X104447618Y-111526525D01*
X104435295Y-111484557D01*
X104390913Y-111446100D01*
X104332786Y-111437743D01*
X104279367Y-111462138D01*
X104247618Y-111511541D01*
X104247618Y-112072523D01*
X104245778Y-112075893D01*
X103704761Y-112075893D01*
X103704761Y-112074238D01*
X103928664Y-112074238D01*
X103970632Y-112061915D01*
X104009089Y-112017533D01*
X104017446Y-111959406D01*
X103993051Y-111905987D01*
X103943648Y-111874238D01*
X103704761Y-111874238D01*
X103704761Y-111526525D01*
X103692438Y-111484557D01*
X103648056Y-111446100D01*
X103589929Y-111437743D01*
X103536510Y-111462138D01*
X103504761Y-111511541D01*
X103504761Y-111874238D01*
X103404668Y-111874238D01*
X103362700Y-111886561D01*
X103324243Y-111930943D01*
X103315886Y-111989070D01*
X103085713Y-111989070D01*
X103085713Y-111959859D01*
X103073390Y-111917891D01*
X103029008Y-111879434D01*
X102970881Y-111871077D01*
X102917462Y-111895472D01*
X102885713Y-111944875D01*
X102885713Y-112855283D01*
X102466666Y-112855283D01*
X102466666Y-112791583D01*
X102470823Y-112775327D01*
X102466666Y-112762818D01*
X102466666Y-112037907D01*
X102467639Y-112010321D01*
X102466666Y-112008682D01*
X102466666Y-111959859D01*
X102454343Y-111917891D01*
X102409961Y-111879434D01*
X102351834Y-111871077D01*
X102303911Y-111892961D01*
X102292397Y-111887204D01*
X102272220Y-111874238D01*
X102251784Y-111874238D01*
X102231669Y-111870618D01*
X102222941Y-111874238D01*
X102000620Y-111874238D01*
X101976780Y-111871664D01*
X101958502Y-111880802D01*
X101938891Y-111886561D01*
X101932703Y-111893701D01*
X101837922Y-111941091D01*
X101821480Y-111944668D01*
X101801998Y-111964149D01*
X101781820Y-111982920D01*
X101781336Y-111984812D01*
X101747679Y-112018469D01*
X101733211Y-112027063D01*
X101720886Y-112051712D01*
X101707683Y-112075893D01*
X101707822Y-112077841D01*
X101660585Y-112172317D01*
X101647619Y-112192494D01*
X101647619Y-112212930D01*
X101643999Y-112233046D01*
X101014286Y-112233046D01*
X101014286Y-111595373D01*
X102819852Y-111595373D01*
X102824574Y-111617079D01*
X102826159Y-111639232D01*
X102830717Y-111645321D01*
X102832335Y-111652756D01*
X102848041Y-111668463D01*
X102861352Y-111686243D01*
X102868479Y-111688901D01*
X102896954Y-111717376D01*
X102898036Y-111721061D01*
X102912101Y-111733248D01*
X102923255Y-111748148D01*
X102933862Y-111752104D01*
X102942418Y-111759518D01*
X102953622Y-111761128D01*
X102963558Y-111766554D01*
X102971147Y-111766011D01*
X102978278Y-111768671D01*
X102989340Y-111766264D01*
X103000545Y-111767875D01*
X103010842Y-111763172D01*
X103022134Y-111762365D01*
X103028226Y-111757804D01*
X103035661Y-111756187D01*
X103043664Y-111748183D01*
X103053964Y-111743480D01*
X103060084Y-111733956D01*
X103069146Y-111727173D01*
X103071805Y-111720042D01*
X103113267Y-111678580D01*
X103131052Y-111665267D01*
X103138814Y-111644454D01*
X103149458Y-111624963D01*
X103148915Y-111617374D01*
X103151575Y-111610244D01*
X103146853Y-111588537D01*
X103145269Y-111566387D01*
X103140709Y-111560296D01*
X103139092Y-111552861D01*
X103123386Y-111537155D01*
X103110076Y-111519375D01*
X103102946Y-111516715D01*
X103074471Y-111488241D01*
X103073390Y-111484557D01*
X103059322Y-111472367D01*
X103048170Y-111457470D01*
X103037564Y-111453514D01*
X103029008Y-111446100D01*
X103017801Y-111444488D01*
X103007867Y-111439064D01*
X103000277Y-111439606D01*
X102993147Y-111436947D01*
X102982084Y-111439353D01*
X102970881Y-111437743D01*
X102960583Y-111442445D01*
X102949291Y-111443253D01*
X102943198Y-111447813D01*
X102935764Y-111449431D01*
X102927759Y-111457435D01*
X102917462Y-111462138D01*
X102911341Y-111471661D01*
X102902279Y-111478446D01*
X102899619Y-111485575D01*
X102858155Y-111527040D01*
X102840376Y-111540350D01*
X102832614Y-111561157D01*
X102821968Y-111580656D01*
X102822510Y-111588244D01*
X102819852Y-111595373D01*
X101014286Y-111595373D01*
X101014286Y-110714286D01*
X138997138Y-110714286D01*
X138997138Y-113485714D01*
G37*
D13*
X147852381Y-72655238D02*
X147852381Y-70655238D01*
X148804762Y-72655238D02*
X148804762Y-70655238D01*
X148804762Y-70655238D02*
X149947619Y-72655238D01*
X149947619Y-72655238D02*
X149947619Y-70655238D01*
M02*
