%TF.GenerationSoftware,KiCad,Pcbnew,7.0.2*%
%TF.CreationDate,2023-10-12T23:05:12+02:00*%
%TF.ProjectId,pulse_generator_endplate_v2,70756c73-655f-4676-956e-657261746f72,rev?*%
%TF.SameCoordinates,Original*%
%TF.FileFunction,Copper,L1,Top*%
%TF.FilePolarity,Positive*%
%FSLAX46Y46*%
G04 Gerber Fmt 4.6, Leading zero omitted, Abs format (unit mm)*
G04 Created by KiCad (PCBNEW 7.0.2) date 2023-10-12 23:05:12*
%MOMM*%
%LPD*%
G01*
G04 APERTURE LIST*
%TA.AperFunction,ViaPad*%
%ADD10C,0.800000*%
%TD*%
G04 APERTURE END LIST*
D10*
%TO.N,GNDREF*%
X178000000Y-77400000D03*
%TD*%
%TA.AperFunction,Conductor*%
%TO.N,GNDREF*%
G36*
X190202855Y-64100632D02*
G01*
X190372951Y-64108495D01*
X190569795Y-64118166D01*
X190580787Y-64119201D01*
X190763357Y-64144668D01*
X190947242Y-64171946D01*
X190957422Y-64173894D01*
X191139341Y-64216681D01*
X191317878Y-64261402D01*
X191327095Y-64264097D01*
X191504478Y-64323550D01*
X191506618Y-64324292D01*
X191678220Y-64385692D01*
X191686519Y-64389004D01*
X191857980Y-64464712D01*
X191860909Y-64466051D01*
X191947263Y-64506892D01*
X192025119Y-64543715D01*
X192032411Y-64547465D01*
X192129135Y-64601341D01*
X192196435Y-64638827D01*
X192199810Y-64640777D01*
X192355371Y-64734017D01*
X192361670Y-64738058D01*
X192516699Y-64844256D01*
X192520459Y-64846935D01*
X192666009Y-64954882D01*
X192671305Y-64959040D01*
X192816009Y-65079200D01*
X192819947Y-65082617D01*
X192954206Y-65204303D01*
X192958590Y-65208478D01*
X193091520Y-65341408D01*
X193095698Y-65345795D01*
X193217375Y-65480045D01*
X193220805Y-65483998D01*
X193340951Y-65628684D01*
X193345124Y-65634000D01*
X193453041Y-65779509D01*
X193455742Y-65783299D01*
X193561940Y-65938328D01*
X193565992Y-65944645D01*
X193618788Y-66032729D01*
X193659200Y-66100153D01*
X193661171Y-66103563D01*
X193752525Y-66267573D01*
X193756291Y-66274896D01*
X193833947Y-66439089D01*
X193835286Y-66442018D01*
X193910994Y-66613479D01*
X193914311Y-66621791D01*
X193975666Y-66793265D01*
X193976487Y-66795634D01*
X194035894Y-66972881D01*
X194038606Y-66982157D01*
X194083317Y-67160653D01*
X194126102Y-67342567D01*
X194128052Y-67352753D01*
X194155337Y-67536689D01*
X194180794Y-67719186D01*
X194181834Y-67730230D01*
X194191512Y-67927238D01*
X194199368Y-68097144D01*
X194199500Y-68102871D01*
X194199500Y-113097127D01*
X194199368Y-113102854D01*
X194191512Y-113272761D01*
X194181834Y-113469767D01*
X194180794Y-113480813D01*
X194155337Y-113663309D01*
X194128052Y-113847242D01*
X194126101Y-113857433D01*
X194083317Y-114039344D01*
X194038605Y-114217845D01*
X194035895Y-114227113D01*
X193976487Y-114404364D01*
X193975666Y-114406733D01*
X193914311Y-114578207D01*
X193910994Y-114586519D01*
X193835286Y-114757980D01*
X193833947Y-114760909D01*
X193756291Y-114925102D01*
X193752525Y-114932425D01*
X193661171Y-115096435D01*
X193659200Y-115099845D01*
X193565999Y-115255342D01*
X193561940Y-115261670D01*
X193455742Y-115416699D01*
X193453041Y-115420489D01*
X193345135Y-115565984D01*
X193340935Y-115571334D01*
X193220851Y-115715947D01*
X193217331Y-115720004D01*
X193095717Y-115854183D01*
X193091520Y-115858590D01*
X192958590Y-115991520D01*
X192954183Y-115995717D01*
X192820004Y-116117331D01*
X192815947Y-116120851D01*
X192671334Y-116240935D01*
X192665984Y-116245135D01*
X192520489Y-116353041D01*
X192516699Y-116355742D01*
X192361670Y-116461940D01*
X192355342Y-116465999D01*
X192199845Y-116559200D01*
X192196435Y-116561171D01*
X192032425Y-116652525D01*
X192025102Y-116656291D01*
X191860909Y-116733947D01*
X191857980Y-116735286D01*
X191686519Y-116810994D01*
X191678207Y-116814311D01*
X191506733Y-116875666D01*
X191504364Y-116876487D01*
X191327117Y-116935894D01*
X191317841Y-116938606D01*
X191139346Y-116983317D01*
X190957431Y-117026102D01*
X190947245Y-117028052D01*
X190763310Y-117055337D01*
X190580812Y-117080794D01*
X190569768Y-117081834D01*
X190372761Y-117091512D01*
X190202855Y-117099368D01*
X190197128Y-117099500D01*
X95202872Y-117099500D01*
X95197145Y-117099368D01*
X95027238Y-117091512D01*
X94830231Y-117081834D01*
X94819185Y-117080794D01*
X94636690Y-117055337D01*
X94452756Y-117028052D01*
X94442565Y-117026101D01*
X94260655Y-116983317D01*
X94082153Y-116938605D01*
X94072885Y-116935895D01*
X93895634Y-116876487D01*
X93893265Y-116875666D01*
X93721791Y-116814311D01*
X93713479Y-116810994D01*
X93542018Y-116735286D01*
X93539089Y-116733947D01*
X93374896Y-116656291D01*
X93367573Y-116652525D01*
X93203563Y-116561171D01*
X93200153Y-116559200D01*
X93180648Y-116547509D01*
X93044645Y-116465992D01*
X93038328Y-116461940D01*
X92883299Y-116355742D01*
X92879509Y-116353041D01*
X92734000Y-116245124D01*
X92728684Y-116240951D01*
X92583998Y-116120805D01*
X92580045Y-116117375D01*
X92445795Y-115995698D01*
X92441408Y-115991520D01*
X92308478Y-115858590D01*
X92304303Y-115854206D01*
X92182617Y-115719947D01*
X92179200Y-115716009D01*
X92059040Y-115571305D01*
X92054882Y-115566009D01*
X91946935Y-115420459D01*
X91944256Y-115416699D01*
X91838058Y-115261670D01*
X91834017Y-115255371D01*
X91740777Y-115099810D01*
X91738827Y-115096435D01*
X91729447Y-115079594D01*
X91647465Y-114932411D01*
X91643715Y-114925119D01*
X91593324Y-114818575D01*
X91566051Y-114760909D01*
X91564712Y-114757980D01*
X91489004Y-114586519D01*
X91485692Y-114578220D01*
X91424292Y-114406618D01*
X91423550Y-114404478D01*
X91364096Y-114227091D01*
X91361400Y-114217867D01*
X91316675Y-114039315D01*
X91273891Y-113857408D01*
X91271948Y-113847256D01*
X91244674Y-113663399D01*
X91219201Y-113480789D01*
X91218166Y-113469799D01*
X91208487Y-113272761D01*
X91200632Y-113102854D01*
X91200566Y-113100000D01*
X93089102Y-113100000D01*
X93089391Y-113104225D01*
X93096091Y-113202178D01*
X93094460Y-113209564D01*
X93098006Y-113234795D01*
X93098924Y-113243591D01*
X93099316Y-113249322D01*
X93099605Y-113257784D01*
X93099604Y-113278647D01*
X93101898Y-113287078D01*
X93108380Y-113381840D01*
X93108381Y-113381847D01*
X93108670Y-113386072D01*
X93109534Y-113390228D01*
X93130160Y-113489488D01*
X93129474Y-113497959D01*
X93137087Y-113524507D01*
X93139299Y-113533467D01*
X93140584Y-113539653D01*
X93141969Y-113547613D01*
X93144540Y-113565907D01*
X93147467Y-113572774D01*
X93167009Y-113666815D01*
X93168427Y-113670804D01*
X93168430Y-113670815D01*
X93203460Y-113769378D01*
X93203985Y-113778771D01*
X93215975Y-113805701D01*
X93219535Y-113814610D01*
X93222069Y-113821740D01*
X93224425Y-113829083D01*
X93228757Y-113844191D01*
X93231925Y-113849471D01*
X93263033Y-113937000D01*
X93264980Y-113940758D01*
X93264982Y-113940762D01*
X93314597Y-114036515D01*
X93316566Y-114046622D01*
X93333057Y-114073012D01*
X93338003Y-114081686D01*
X93342344Y-114090066D01*
X93345518Y-114096663D01*
X93350622Y-114108127D01*
X93353655Y-114111894D01*
X93394952Y-114191593D01*
X93397391Y-114195048D01*
X93397400Y-114195063D01*
X93461456Y-114285809D01*
X93465066Y-114296382D01*
X93486013Y-114321346D01*
X93492323Y-114329538D01*
X93499256Y-114339359D01*
X93503113Y-114345160D01*
X93507810Y-114352677D01*
X93510340Y-114355060D01*
X93560310Y-114425851D01*
X93563203Y-114428949D01*
X93563205Y-114428951D01*
X93641246Y-114512513D01*
X93646648Y-114523264D01*
X93671819Y-114545928D01*
X93679473Y-114553444D01*
X93689953Y-114564666D01*
X93694315Y-114569592D01*
X93697274Y-114573119D01*
X93698978Y-114574330D01*
X93710362Y-114586519D01*
X93756025Y-114635412D01*
X93850534Y-114712300D01*
X93857829Y-114722912D01*
X93886860Y-114742494D01*
X93895772Y-114749105D01*
X93910937Y-114761442D01*
X93915346Y-114765216D01*
X93915982Y-114765546D01*
X93978453Y-114816370D01*
X93982079Y-114818575D01*
X94085331Y-114881364D01*
X94094559Y-114891494D01*
X94126936Y-114907286D01*
X94137005Y-114912788D01*
X94157255Y-114925102D01*
X94223450Y-114965356D01*
X94341186Y-115016496D01*
X94352334Y-115025798D01*
X94387439Y-115037204D01*
X94398516Y-115041397D01*
X94457142Y-115066863D01*
X94473658Y-115074037D01*
X94486452Y-115079594D01*
X94490523Y-115080734D01*
X94490527Y-115080736D01*
X94490531Y-115080737D01*
X94613218Y-115115112D01*
X94626201Y-115123229D01*
X94663303Y-115129772D01*
X94675225Y-115132486D01*
X94710325Y-115142320D01*
X94762560Y-115156956D01*
X94896236Y-115175329D01*
X94910919Y-115181924D01*
X94949254Y-115183263D01*
X94961808Y-115184341D01*
X95046630Y-115196000D01*
X95050868Y-115196000D01*
X95184846Y-115196000D01*
X95201025Y-115200750D01*
X95239766Y-115196679D01*
X95252728Y-115196000D01*
X95329132Y-115196000D01*
X95333370Y-115196000D01*
X95473569Y-115176730D01*
X95490988Y-115179345D01*
X95529271Y-115169800D01*
X95542378Y-115167272D01*
X95617440Y-115156956D01*
X95756878Y-115117887D01*
X95775230Y-115118115D01*
X95812214Y-115103172D01*
X95825208Y-115098741D01*
X95893548Y-115079594D01*
X96029398Y-115020585D01*
X96048333Y-115018222D01*
X96083208Y-114998087D01*
X96095808Y-114991740D01*
X96095967Y-114991670D01*
X96156550Y-114965356D01*
X96285926Y-114886680D01*
X96305047Y-114881578D01*
X96337016Y-114856601D01*
X96348924Y-114848370D01*
X96401547Y-114816370D01*
X96521570Y-114718723D01*
X96540460Y-114710796D01*
X96568813Y-114681436D01*
X96579747Y-114671393D01*
X96623975Y-114635412D01*
X96731843Y-114519911D01*
X96750074Y-114509133D01*
X96774191Y-114475939D01*
X96783880Y-114464193D01*
X96819690Y-114425851D01*
X96912741Y-114294027D01*
X96929865Y-114280445D01*
X96949200Y-114244081D01*
X96957372Y-114230800D01*
X96985048Y-114191593D01*
X97060806Y-114045385D01*
X97076378Y-114029121D01*
X97090506Y-113990306D01*
X97096931Y-113975668D01*
X97115015Y-113940767D01*
X97116967Y-113937000D01*
X97173218Y-113778722D01*
X97186815Y-113759959D01*
X97195422Y-113719470D01*
X97199866Y-113703744D01*
X97212991Y-113666815D01*
X97271330Y-113386072D01*
X97290898Y-113100000D01*
X188109102Y-113100000D01*
X188109391Y-113104225D01*
X188116091Y-113202178D01*
X188114460Y-113209564D01*
X188118006Y-113234795D01*
X188118924Y-113243591D01*
X188119316Y-113249322D01*
X188119605Y-113257784D01*
X188119605Y-113278647D01*
X188121898Y-113287078D01*
X188128380Y-113381840D01*
X188128381Y-113381847D01*
X188128670Y-113386072D01*
X188129534Y-113390228D01*
X188150160Y-113489488D01*
X188149474Y-113497959D01*
X188157087Y-113524507D01*
X188159299Y-113533467D01*
X188160584Y-113539653D01*
X188161969Y-113547613D01*
X188164540Y-113565907D01*
X188167467Y-113572774D01*
X188187009Y-113666815D01*
X188188427Y-113670804D01*
X188188430Y-113670815D01*
X188223460Y-113769378D01*
X188223985Y-113778771D01*
X188235975Y-113805701D01*
X188239535Y-113814610D01*
X188242069Y-113821740D01*
X188244425Y-113829083D01*
X188248757Y-113844191D01*
X188251925Y-113849471D01*
X188283033Y-113937000D01*
X188284980Y-113940758D01*
X188284982Y-113940762D01*
X188334597Y-114036515D01*
X188336566Y-114046622D01*
X188353057Y-114073012D01*
X188358003Y-114081686D01*
X188362344Y-114090066D01*
X188365518Y-114096663D01*
X188370622Y-114108127D01*
X188373655Y-114111894D01*
X188414952Y-114191593D01*
X188417391Y-114195048D01*
X188417400Y-114195063D01*
X188481456Y-114285809D01*
X188485066Y-114296382D01*
X188506013Y-114321346D01*
X188512323Y-114329538D01*
X188519256Y-114339359D01*
X188523113Y-114345160D01*
X188527810Y-114352677D01*
X188530340Y-114355060D01*
X188580310Y-114425851D01*
X188583203Y-114428949D01*
X188583205Y-114428951D01*
X188661246Y-114512513D01*
X188666648Y-114523264D01*
X188691819Y-114545928D01*
X188699473Y-114553444D01*
X188709953Y-114564666D01*
X188714315Y-114569592D01*
X188717274Y-114573119D01*
X188718978Y-114574330D01*
X188730362Y-114586519D01*
X188776025Y-114635412D01*
X188870534Y-114712300D01*
X188877829Y-114722912D01*
X188906860Y-114742494D01*
X188915772Y-114749105D01*
X188930937Y-114761442D01*
X188935346Y-114765216D01*
X188935982Y-114765546D01*
X188998453Y-114816370D01*
X189002079Y-114818575D01*
X189105331Y-114881364D01*
X189114559Y-114891494D01*
X189146936Y-114907286D01*
X189157005Y-114912788D01*
X189177255Y-114925102D01*
X189243450Y-114965356D01*
X189361186Y-115016496D01*
X189372334Y-115025798D01*
X189407439Y-115037204D01*
X189418516Y-115041397D01*
X189477142Y-115066863D01*
X189493658Y-115074037D01*
X189506452Y-115079594D01*
X189510523Y-115080734D01*
X189510527Y-115080736D01*
X189510531Y-115080737D01*
X189633218Y-115115112D01*
X189646201Y-115123229D01*
X189683303Y-115129772D01*
X189695225Y-115132486D01*
X189730325Y-115142320D01*
X189782560Y-115156956D01*
X189916236Y-115175329D01*
X189930919Y-115181924D01*
X189969254Y-115183263D01*
X189981808Y-115184341D01*
X190066630Y-115196000D01*
X190070868Y-115196000D01*
X190204846Y-115196000D01*
X190221025Y-115200750D01*
X190259766Y-115196679D01*
X190272728Y-115196000D01*
X190349132Y-115196000D01*
X190353370Y-115196000D01*
X190493569Y-115176730D01*
X190510988Y-115179345D01*
X190549271Y-115169800D01*
X190562378Y-115167272D01*
X190637440Y-115156956D01*
X190776878Y-115117887D01*
X190795230Y-115118115D01*
X190832214Y-115103172D01*
X190845208Y-115098741D01*
X190913548Y-115079594D01*
X191049398Y-115020585D01*
X191068333Y-115018222D01*
X191103208Y-114998087D01*
X191115808Y-114991740D01*
X191115967Y-114991670D01*
X191176550Y-114965356D01*
X191305926Y-114886680D01*
X191325047Y-114881578D01*
X191357016Y-114856601D01*
X191368924Y-114848370D01*
X191421547Y-114816370D01*
X191541570Y-114718723D01*
X191560460Y-114710796D01*
X191588813Y-114681436D01*
X191599747Y-114671393D01*
X191643975Y-114635412D01*
X191751843Y-114519911D01*
X191770074Y-114509133D01*
X191794191Y-114475939D01*
X191803880Y-114464193D01*
X191839690Y-114425851D01*
X191932741Y-114294027D01*
X191949865Y-114280445D01*
X191969200Y-114244081D01*
X191977372Y-114230800D01*
X192005048Y-114191593D01*
X192080806Y-114045385D01*
X192096378Y-114029121D01*
X192110506Y-113990306D01*
X192116931Y-113975668D01*
X192135015Y-113940767D01*
X192136967Y-113937000D01*
X192193218Y-113778722D01*
X192206815Y-113759959D01*
X192215422Y-113719470D01*
X192219866Y-113703744D01*
X192232991Y-113666815D01*
X192291330Y-113386072D01*
X192310898Y-113100000D01*
X192291330Y-112813928D01*
X192232991Y-112533185D01*
X192219868Y-112496261D01*
X192215423Y-112480532D01*
X192208446Y-112447708D01*
X192193220Y-112421281D01*
X192183628Y-112394293D01*
X192136967Y-112263000D01*
X192116933Y-112224336D01*
X192110508Y-112209697D01*
X192098984Y-112178036D01*
X192080807Y-112154616D01*
X192066487Y-112126980D01*
X192005048Y-112008407D01*
X192002605Y-112004946D01*
X192002599Y-112004936D01*
X191977384Y-111969215D01*
X191969202Y-111955921D01*
X191953336Y-111926081D01*
X191932743Y-111905974D01*
X191842140Y-111777619D01*
X191842135Y-111777613D01*
X191839690Y-111774149D01*
X191803889Y-111735815D01*
X191794195Y-111724064D01*
X191774285Y-111696661D01*
X191751844Y-111680088D01*
X191710058Y-111635346D01*
X191643975Y-111564588D01*
X191640693Y-111561918D01*
X191640690Y-111561915D01*
X191599767Y-111528622D01*
X191588824Y-111518572D01*
X191565277Y-111494189D01*
X191541571Y-111481276D01*
X191424837Y-111386307D01*
X191421547Y-111383630D01*
X191417923Y-111381426D01*
X191417920Y-111381424D01*
X191368940Y-111351639D01*
X191357026Y-111343404D01*
X191330322Y-111322541D01*
X191305925Y-111313318D01*
X191180168Y-111236844D01*
X191180166Y-111236843D01*
X191176550Y-111234644D01*
X191115808Y-111208260D01*
X191103209Y-111201913D01*
X191073921Y-111185003D01*
X191049398Y-111179414D01*
X190917429Y-111122091D01*
X190917419Y-111122087D01*
X190913548Y-111120406D01*
X190909461Y-111119261D01*
X190845219Y-111101261D01*
X190832223Y-111096830D01*
X190800982Y-111084207D01*
X190776878Y-111082112D01*
X190641518Y-111044186D01*
X190641509Y-111044184D01*
X190637440Y-111043044D01*
X190633253Y-111042468D01*
X190633246Y-111042467D01*
X190562393Y-111032729D01*
X190549280Y-111030201D01*
X190516763Y-111022093D01*
X190493571Y-111023269D01*
X190357570Y-111004577D01*
X190357566Y-111004576D01*
X190353370Y-111004000D01*
X190272725Y-111004000D01*
X190259764Y-111003321D01*
X190226686Y-110999844D01*
X190204845Y-111004000D01*
X190066630Y-111004000D01*
X190062433Y-111004576D01*
X190062430Y-111004577D01*
X189981824Y-111015656D01*
X189969267Y-111016735D01*
X189936353Y-111017884D01*
X189916237Y-111024670D01*
X189786753Y-111042467D01*
X189786743Y-111042469D01*
X189782560Y-111043044D01*
X189778493Y-111044183D01*
X189778481Y-111044186D01*
X189695241Y-111067509D01*
X189683320Y-111070223D01*
X189651296Y-111075869D01*
X189633221Y-111084885D01*
X189510533Y-111119261D01*
X189510512Y-111119268D01*
X189506452Y-111120406D01*
X189502582Y-111122086D01*
X189502565Y-111122093D01*
X189418526Y-111158597D01*
X189407444Y-111162794D01*
X189376995Y-111172687D01*
X189361189Y-111183502D01*
X189247328Y-111232959D01*
X189247321Y-111232962D01*
X189243450Y-111234644D01*
X189239839Y-111236839D01*
X189239831Y-111236844D01*
X189157015Y-111287206D01*
X189146946Y-111292708D01*
X189118721Y-111306474D01*
X189105336Y-111318632D01*
X189098910Y-111322541D01*
X189002073Y-111381428D01*
X189002066Y-111381432D01*
X188998453Y-111383630D01*
X188995165Y-111386304D01*
X188995162Y-111386307D01*
X188935983Y-111434452D01*
X188935491Y-111434658D01*
X188930927Y-111438566D01*
X188915783Y-111450886D01*
X188906871Y-111457496D01*
X188881435Y-111474652D01*
X188870535Y-111487698D01*
X188779309Y-111561915D01*
X188779298Y-111561924D01*
X188776025Y-111564588D01*
X188773137Y-111567679D01*
X188773133Y-111567684D01*
X188718979Y-111625669D01*
X188717612Y-111626477D01*
X188714305Y-111630418D01*
X188709941Y-111635346D01*
X188699475Y-111646552D01*
X188691827Y-111654062D01*
X188669668Y-111674014D01*
X188661247Y-111687485D01*
X188583205Y-111771048D01*
X188583197Y-111771057D01*
X188580310Y-111774149D01*
X188577870Y-111777605D01*
X188577864Y-111777613D01*
X188530340Y-111844939D01*
X188528275Y-111846576D01*
X188523111Y-111854841D01*
X188519259Y-111860637D01*
X188512330Y-111870453D01*
X188506017Y-111878648D01*
X188487492Y-111900726D01*
X188481458Y-111914189D01*
X188417394Y-112004946D01*
X188417387Y-112004956D01*
X188414952Y-112008407D01*
X188413003Y-112012168D01*
X188413002Y-112012170D01*
X188373656Y-112088104D01*
X188371120Y-112090752D01*
X188365514Y-112103343D01*
X188362337Y-112109946D01*
X188358001Y-112118315D01*
X188353060Y-112126980D01*
X188338407Y-112150430D01*
X188334598Y-112163483D01*
X188284982Y-112259237D01*
X188284977Y-112259246D01*
X188283033Y-112263000D01*
X188281615Y-112266988D01*
X188281614Y-112266992D01*
X188251925Y-112350528D01*
X188249188Y-112354304D01*
X188244424Y-112370919D01*
X188242065Y-112378272D01*
X188239534Y-112385392D01*
X188235977Y-112394293D01*
X188225275Y-112418330D01*
X188223460Y-112430619D01*
X188187009Y-112533185D01*
X188186146Y-112537335D01*
X188186145Y-112537341D01*
X188167467Y-112627224D01*
X188164803Y-112632211D01*
X188161966Y-112652400D01*
X188160578Y-112660379D01*
X188159296Y-112666546D01*
X188157088Y-112675485D01*
X188150263Y-112699287D01*
X188150160Y-112710510D01*
X188128670Y-112813928D01*
X188128381Y-112818152D01*
X188128380Y-112818160D01*
X188121898Y-112912920D01*
X188119605Y-112919126D01*
X188119605Y-112942215D01*
X188119316Y-112950683D01*
X188118924Y-112956410D01*
X188118006Y-112965198D01*
X188114814Y-112987908D01*
X188116091Y-112997820D01*
X188109102Y-113100000D01*
X97290898Y-113100000D01*
X97271330Y-112813928D01*
X97212991Y-112533185D01*
X97199868Y-112496261D01*
X97195423Y-112480532D01*
X97188446Y-112447708D01*
X97173220Y-112421281D01*
X97163628Y-112394293D01*
X97116967Y-112263000D01*
X97096933Y-112224336D01*
X97090508Y-112209697D01*
X97078984Y-112178036D01*
X97060807Y-112154616D01*
X97046487Y-112126980D01*
X96985048Y-112008407D01*
X96982605Y-112004946D01*
X96982599Y-112004936D01*
X96957384Y-111969215D01*
X96949202Y-111955921D01*
X96933336Y-111926081D01*
X96912743Y-111905974D01*
X96822140Y-111777619D01*
X96822135Y-111777613D01*
X96819690Y-111774149D01*
X96783889Y-111735815D01*
X96774195Y-111724064D01*
X96754285Y-111696661D01*
X96731844Y-111680088D01*
X96690058Y-111635346D01*
X96623975Y-111564588D01*
X96620693Y-111561918D01*
X96620690Y-111561915D01*
X96579767Y-111528622D01*
X96568824Y-111518572D01*
X96545277Y-111494189D01*
X96521571Y-111481276D01*
X96404837Y-111386307D01*
X96401547Y-111383630D01*
X96397923Y-111381426D01*
X96397920Y-111381424D01*
X96348940Y-111351639D01*
X96337026Y-111343404D01*
X96310322Y-111322541D01*
X96285925Y-111313318D01*
X96160168Y-111236844D01*
X96160166Y-111236843D01*
X96156550Y-111234644D01*
X96095808Y-111208260D01*
X96083209Y-111201913D01*
X96053921Y-111185003D01*
X96029398Y-111179414D01*
X95897429Y-111122091D01*
X95897419Y-111122087D01*
X95893548Y-111120406D01*
X95889461Y-111119261D01*
X95825219Y-111101261D01*
X95812223Y-111096830D01*
X95780982Y-111084207D01*
X95756878Y-111082112D01*
X95621518Y-111044186D01*
X95621509Y-111044184D01*
X95617440Y-111043044D01*
X95613253Y-111042468D01*
X95613246Y-111042467D01*
X95542393Y-111032729D01*
X95529280Y-111030201D01*
X95496763Y-111022093D01*
X95473571Y-111023269D01*
X95337570Y-111004577D01*
X95337566Y-111004576D01*
X95333370Y-111004000D01*
X95252725Y-111004000D01*
X95239764Y-111003321D01*
X95206686Y-110999844D01*
X95184845Y-111004000D01*
X95046630Y-111004000D01*
X95042433Y-111004576D01*
X95042430Y-111004577D01*
X94961824Y-111015656D01*
X94949267Y-111016735D01*
X94916353Y-111017884D01*
X94896237Y-111024670D01*
X94766753Y-111042467D01*
X94766743Y-111042469D01*
X94762560Y-111043044D01*
X94758493Y-111044183D01*
X94758481Y-111044186D01*
X94675241Y-111067509D01*
X94663320Y-111070223D01*
X94631296Y-111075869D01*
X94613221Y-111084885D01*
X94490533Y-111119261D01*
X94490512Y-111119268D01*
X94486452Y-111120406D01*
X94482582Y-111122086D01*
X94482565Y-111122093D01*
X94398526Y-111158597D01*
X94387444Y-111162794D01*
X94356995Y-111172687D01*
X94341189Y-111183502D01*
X94227328Y-111232959D01*
X94227321Y-111232962D01*
X94223450Y-111234644D01*
X94219839Y-111236839D01*
X94219831Y-111236844D01*
X94137015Y-111287206D01*
X94126946Y-111292708D01*
X94098721Y-111306474D01*
X94085336Y-111318632D01*
X94078910Y-111322541D01*
X93982073Y-111381428D01*
X93982066Y-111381432D01*
X93978453Y-111383630D01*
X93975165Y-111386304D01*
X93975162Y-111386307D01*
X93915983Y-111434452D01*
X93915491Y-111434658D01*
X93910927Y-111438566D01*
X93895783Y-111450886D01*
X93886871Y-111457496D01*
X93861435Y-111474652D01*
X93850535Y-111487698D01*
X93759309Y-111561915D01*
X93759298Y-111561924D01*
X93756025Y-111564588D01*
X93753137Y-111567679D01*
X93753133Y-111567684D01*
X93698979Y-111625669D01*
X93697612Y-111626477D01*
X93694305Y-111630418D01*
X93689941Y-111635346D01*
X93679475Y-111646552D01*
X93671827Y-111654062D01*
X93649668Y-111674014D01*
X93641247Y-111687485D01*
X93563205Y-111771048D01*
X93563197Y-111771057D01*
X93560310Y-111774149D01*
X93557870Y-111777605D01*
X93557864Y-111777613D01*
X93510340Y-111844939D01*
X93508275Y-111846576D01*
X93503111Y-111854841D01*
X93499259Y-111860637D01*
X93492330Y-111870453D01*
X93486017Y-111878648D01*
X93467492Y-111900726D01*
X93461458Y-111914189D01*
X93397394Y-112004946D01*
X93397387Y-112004956D01*
X93394952Y-112008407D01*
X93393003Y-112012168D01*
X93393002Y-112012170D01*
X93353656Y-112088104D01*
X93351120Y-112090752D01*
X93345514Y-112103343D01*
X93342337Y-112109946D01*
X93338001Y-112118315D01*
X93333060Y-112126980D01*
X93318407Y-112150430D01*
X93314598Y-112163483D01*
X93264982Y-112259237D01*
X93264977Y-112259246D01*
X93263033Y-112263000D01*
X93261615Y-112266988D01*
X93261614Y-112266992D01*
X93231925Y-112350528D01*
X93229188Y-112354304D01*
X93224424Y-112370919D01*
X93222065Y-112378272D01*
X93219534Y-112385392D01*
X93215977Y-112394293D01*
X93205275Y-112418330D01*
X93203460Y-112430619D01*
X93167009Y-112533185D01*
X93166146Y-112537335D01*
X93166145Y-112537341D01*
X93147467Y-112627224D01*
X93144803Y-112632211D01*
X93141966Y-112652400D01*
X93140578Y-112660379D01*
X93139296Y-112666546D01*
X93137088Y-112675485D01*
X93130263Y-112699287D01*
X93130160Y-112710510D01*
X93108670Y-112813928D01*
X93108381Y-112818152D01*
X93108380Y-112818160D01*
X93101898Y-112912920D01*
X93099605Y-112919126D01*
X93099605Y-112942215D01*
X93099316Y-112950683D01*
X93098924Y-112956410D01*
X93098006Y-112965198D01*
X93094814Y-112987908D01*
X93096091Y-112997820D01*
X93089102Y-113100000D01*
X91200566Y-113100000D01*
X91200500Y-113097128D01*
X91200500Y-100100698D01*
X126970560Y-100100698D01*
X126976727Y-100160716D01*
X126977376Y-100173366D01*
X126977389Y-100241400D01*
X126983830Y-100283017D01*
X126980882Y-100305205D01*
X126990467Y-100335430D01*
X126994808Y-100353945D01*
X126999594Y-100384868D01*
X127000403Y-100391159D01*
X127001871Y-100405449D01*
X127017282Y-100437275D01*
X127021740Y-100451333D01*
X127022290Y-100476951D01*
X127034484Y-100498668D01*
X127037441Y-100504264D01*
X127051391Y-100532380D01*
X127058511Y-100550010D01*
X127065245Y-100571247D01*
X127083291Y-100596671D01*
X127102011Y-100634399D01*
X127141051Y-100689788D01*
X127147819Y-100700515D01*
X127172071Y-100743707D01*
X127195987Y-100767713D01*
X127829895Y-101666897D01*
X127836248Y-101685539D01*
X127870234Y-101725101D01*
X127877517Y-101734449D01*
X127879114Y-101736714D01*
X127918514Y-101792699D01*
X127945046Y-101819869D01*
X127953182Y-101835199D01*
X127977101Y-101854138D01*
X127988842Y-101864719D01*
X128019054Y-101895658D01*
X128067770Y-101931765D01*
X128079746Y-101947604D01*
X128102230Y-101959263D01*
X128118978Y-101969719D01*
X128134666Y-101981346D01*
X128136840Y-101982957D01*
X128152961Y-101993382D01*
X128162309Y-102000784D01*
X128191668Y-102010904D01*
X128205425Y-102018038D01*
X128221608Y-102033543D01*
X128242041Y-102039574D01*
X128259837Y-102046738D01*
X128262413Y-102047588D01*
X128262416Y-102047590D01*
X128280956Y-102053711D01*
X128299157Y-102061378D01*
X128314169Y-102069162D01*
X128341477Y-102073695D01*
X128399064Y-102092710D01*
X128441768Y-102099577D01*
X128457180Y-102103077D01*
X128479269Y-102109597D01*
X128503618Y-102109525D01*
X128541143Y-102115560D01*
X128612290Y-102115500D01*
X128624224Y-102116067D01*
X128667671Y-102120236D01*
X128695204Y-102115500D01*
X131022802Y-102115500D01*
X131032802Y-102115500D01*
X133360234Y-102115500D01*
X133379260Y-102121086D01*
X133431515Y-102116072D01*
X133443451Y-102115505D01*
X133514659Y-102115565D01*
X133551986Y-102109561D01*
X133569233Y-102111748D01*
X133598561Y-102103091D01*
X133613974Y-102099591D01*
X133656738Y-102092714D01*
X133694010Y-102080407D01*
X133714216Y-102073736D01*
X133734082Y-102073073D01*
X133756594Y-102061400D01*
X133774797Y-102053732D01*
X133793387Y-102047595D01*
X133793391Y-102047592D01*
X133795877Y-102046772D01*
X133813809Y-102039554D01*
X133825257Y-102036174D01*
X133850457Y-102018001D01*
X133864072Y-102010941D01*
X133886082Y-102006645D01*
X133902799Y-101993409D01*
X133919025Y-101982916D01*
X133936872Y-101969688D01*
X133953628Y-101959227D01*
X133968663Y-101951430D01*
X133988122Y-101931702D01*
X134036750Y-101895661D01*
X134067024Y-101864658D01*
X134078762Y-101854079D01*
X134096871Y-101839740D01*
X134110875Y-101819752D01*
X134137289Y-101792703D01*
X134178294Y-101734434D01*
X134185583Y-101725080D01*
X134214052Y-101691942D01*
X134226060Y-101666678D01*
X134860408Y-100766869D01*
X134879002Y-100752104D01*
X134907846Y-100700750D01*
X134915570Y-100688687D01*
X134927570Y-100672135D01*
X134928230Y-100670642D01*
X134939931Y-100654025D01*
X134939933Y-100654026D01*
X134939964Y-100653971D01*
X134953771Y-100634383D01*
X134972771Y-100596089D01*
X134987885Y-100579740D01*
X134997403Y-100549726D01*
X135004519Y-100532104D01*
X135015335Y-100510307D01*
X135015336Y-100510301D01*
X135017890Y-100505156D01*
X135020854Y-100499548D01*
X135028194Y-100486479D01*
X135033925Y-100451679D01*
X135038607Y-100436916D01*
X135052909Y-100415678D01*
X135055528Y-100390155D01*
X135056340Y-100383842D01*
X135057201Y-100378280D01*
X135057202Y-100378277D01*
X135060921Y-100354249D01*
X135065262Y-100335737D01*
X135071943Y-100314666D01*
X135071849Y-100283649D01*
X135078389Y-100241398D01*
X135078400Y-100173582D01*
X135079048Y-100160959D01*
X135084095Y-100111778D01*
X135078401Y-100078487D01*
X135078401Y-98790792D01*
X135084211Y-98771003D01*
X135079181Y-98726356D01*
X135078401Y-98712472D01*
X135078401Y-98694783D01*
X135078400Y-98694775D01*
X135078400Y-98626308D01*
X135065382Y-98560863D01*
X135066623Y-98546988D01*
X135060228Y-98528711D01*
X135055652Y-98511947D01*
X135043795Y-98452338D01*
X135043794Y-98452335D01*
X135043794Y-98452334D01*
X135009733Y-98370104D01*
X135008145Y-98355336D01*
X135000418Y-98343038D01*
X134990855Y-98324528D01*
X134975913Y-98288454D01*
X134916583Y-98199660D01*
X134911674Y-98183984D01*
X134903537Y-98175847D01*
X134888116Y-98157057D01*
X134877364Y-98140965D01*
X134876704Y-98140305D01*
X134859392Y-98118597D01*
X134858863Y-98117755D01*
X134838984Y-98102584D01*
X134790313Y-98053913D01*
X134781712Y-98038161D01*
X134774301Y-98033505D01*
X134752593Y-98016193D01*
X134751936Y-98015536D01*
X134751932Y-98015533D01*
X134735839Y-98004780D01*
X134717051Y-97989361D01*
X134713994Y-97986304D01*
X134693239Y-97976316D01*
X134604447Y-97916988D01*
X134568379Y-97902048D01*
X134549865Y-97892483D01*
X134543137Y-97888255D01*
X134522793Y-97883165D01*
X134440565Y-97849105D01*
X134380954Y-97837247D01*
X134364192Y-97832672D01*
X134351830Y-97828346D01*
X134332051Y-97827520D01*
X134271619Y-97815500D01*
X134266592Y-97814500D01*
X134180421Y-97814500D01*
X134166539Y-97813720D01*
X134131230Y-97809741D01*
X134102048Y-97814500D01*
X127953709Y-97814500D01*
X127933915Y-97808687D01*
X127889255Y-97813720D01*
X127875371Y-97814500D01*
X127863368Y-97814500D01*
X127863360Y-97814501D01*
X127789210Y-97814501D01*
X127784188Y-97815500D01*
X127723772Y-97827517D01*
X127709894Y-97826274D01*
X127691606Y-97832674D01*
X127674845Y-97837249D01*
X127615236Y-97849106D01*
X127533003Y-97883167D01*
X127518235Y-97884754D01*
X127505935Y-97892483D01*
X127487418Y-97902049D01*
X127451353Y-97916987D01*
X127362559Y-97976318D01*
X127346882Y-97981226D01*
X127338744Y-97989365D01*
X127319957Y-98004783D01*
X127303868Y-98015533D01*
X127303209Y-98016193D01*
X127281505Y-98033500D01*
X127280664Y-98034028D01*
X127265491Y-98053910D01*
X127216814Y-98102587D01*
X127201061Y-98111188D01*
X127196404Y-98118601D01*
X127179097Y-98140305D01*
X127178434Y-98140967D01*
X127167684Y-98157056D01*
X127152266Y-98175843D01*
X127149205Y-98178903D01*
X127139219Y-98199658D01*
X127079888Y-98288453D01*
X127064950Y-98324518D01*
X127055384Y-98343034D01*
X127051154Y-98349765D01*
X127046066Y-98370108D01*
X127012006Y-98452335D01*
X127000148Y-98511947D01*
X126995574Y-98528705D01*
X126991245Y-98541075D01*
X126990419Y-98560861D01*
X126977401Y-98626310D01*
X126977401Y-98712479D01*
X126976621Y-98726361D01*
X126972642Y-98761669D01*
X126977401Y-98790852D01*
X126977401Y-100077402D01*
X126970560Y-100100698D01*
X91200500Y-100100698D01*
X91200500Y-86991657D01*
X110290758Y-86991657D01*
X110297973Y-87037207D01*
X110299500Y-87056606D01*
X110299500Y-87112469D01*
X110296654Y-87112469D01*
X110296528Y-87117724D01*
X110309075Y-87142348D01*
X110318364Y-87166547D01*
X110323386Y-87185288D01*
X110327242Y-87191967D01*
X110334979Y-87223861D01*
X110348699Y-87237581D01*
X110368401Y-87263256D01*
X110369529Y-87265210D01*
X110369531Y-87265212D01*
X110434788Y-87330469D01*
X110436742Y-87331597D01*
X110462418Y-87351300D01*
X110472438Y-87361320D01*
X110481669Y-87361375D01*
X110508024Y-87372752D01*
X110514712Y-87376614D01*
X110533453Y-87381635D01*
X110557653Y-87390925D01*
X110575497Y-87400017D01*
X110580623Y-87398532D01*
X110595366Y-87400500D01*
X110643396Y-87400500D01*
X110662795Y-87402027D01*
X110699606Y-87407857D01*
X110703312Y-87405482D01*
X110738108Y-87400500D01*
X114261891Y-87400500D01*
X114291659Y-87409240D01*
X114337204Y-87402027D01*
X114356603Y-87400500D01*
X114412469Y-87400500D01*
X114412469Y-87403346D01*
X114417723Y-87403471D01*
X114442344Y-87390926D01*
X114466541Y-87381637D01*
X114485288Y-87376614D01*
X114491965Y-87372758D01*
X114523861Y-87365019D01*
X114537578Y-87351302D01*
X114563256Y-87331598D01*
X114565212Y-87330469D01*
X114630469Y-87265212D01*
X114631598Y-87263256D01*
X114651302Y-87237578D01*
X114661322Y-87227558D01*
X114661377Y-87218324D01*
X114672754Y-87191972D01*
X114676614Y-87185288D01*
X114681637Y-87166541D01*
X114690926Y-87142344D01*
X114700018Y-87124499D01*
X114698532Y-87119368D01*
X114700500Y-87104631D01*
X114700500Y-87056602D01*
X114702027Y-87037203D01*
X114707858Y-87000388D01*
X114705480Y-86996678D01*
X114700500Y-86961890D01*
X114700500Y-85200000D01*
X118224556Y-85200000D01*
X118244312Y-85514015D01*
X118245039Y-85517827D01*
X118245041Y-85517841D01*
X118301925Y-85816035D01*
X118303269Y-85823079D01*
X118304473Y-85826786D01*
X118304474Y-85826788D01*
X118366767Y-86018507D01*
X118400497Y-86122315D01*
X118534463Y-86407007D01*
X118536545Y-86410288D01*
X118536548Y-86410293D01*
X118700962Y-86669369D01*
X118700966Y-86669375D01*
X118703053Y-86672663D01*
X118705532Y-86675660D01*
X118705536Y-86675665D01*
X118768074Y-86751260D01*
X118903610Y-86915094D01*
X119132970Y-87130478D01*
X119387516Y-87315416D01*
X119390923Y-87317289D01*
X119618983Y-87442667D01*
X119663234Y-87466994D01*
X119955775Y-87582819D01*
X120260527Y-87661066D01*
X120572682Y-87700500D01*
X120576577Y-87700500D01*
X120883423Y-87700500D01*
X120887318Y-87700500D01*
X121199473Y-87661066D01*
X121504225Y-87582819D01*
X121796766Y-87466994D01*
X122072484Y-87315416D01*
X122327030Y-87130478D01*
X122556390Y-86915094D01*
X122756947Y-86672663D01*
X122925537Y-86407007D01*
X123059503Y-86122315D01*
X123156731Y-85823079D01*
X123215688Y-85514015D01*
X123235444Y-85200000D01*
X123215688Y-84885985D01*
X123156731Y-84576921D01*
X123059503Y-84277685D01*
X122925537Y-83992993D01*
X122826857Y-83837498D01*
X122759037Y-83730630D01*
X122759035Y-83730627D01*
X122756947Y-83727337D01*
X122556390Y-83484906D01*
X122327030Y-83269522D01*
X122310688Y-83257649D01*
X122075633Y-83086872D01*
X122075634Y-83086872D01*
X122072484Y-83084584D01*
X122069081Y-83082713D01*
X122069076Y-83082710D01*
X121800183Y-82934884D01*
X121800176Y-82934880D01*
X121796766Y-82933006D01*
X121793140Y-82931570D01*
X121793135Y-82931568D01*
X121507847Y-82818615D01*
X121507846Y-82818614D01*
X121504225Y-82817181D01*
X121500455Y-82816213D01*
X121500452Y-82816212D01*
X121203256Y-82739905D01*
X121203251Y-82739904D01*
X121199473Y-82738934D01*
X121195602Y-82738445D01*
X121195597Y-82738444D01*
X120891184Y-82699988D01*
X120891177Y-82699987D01*
X120887318Y-82699500D01*
X120572682Y-82699500D01*
X120568823Y-82699987D01*
X120568815Y-82699988D01*
X120264402Y-82738444D01*
X120264394Y-82738445D01*
X120260527Y-82738934D01*
X120256751Y-82739903D01*
X120256743Y-82739905D01*
X119959547Y-82816212D01*
X119959539Y-82816214D01*
X119955775Y-82817181D01*
X119952158Y-82818612D01*
X119952152Y-82818615D01*
X119666864Y-82931568D01*
X119666853Y-82931572D01*
X119663234Y-82933006D01*
X119659829Y-82934877D01*
X119659816Y-82934884D01*
X119390923Y-83082710D01*
X119390911Y-83082717D01*
X119387516Y-83084584D01*
X119384372Y-83086867D01*
X119384366Y-83086872D01*
X119136126Y-83267228D01*
X119136115Y-83267236D01*
X119132970Y-83269522D01*
X119130135Y-83272183D01*
X119130128Y-83272190D01*
X118906447Y-83482241D01*
X118906440Y-83482248D01*
X118903610Y-83484906D01*
X118901135Y-83487897D01*
X118901131Y-83487902D01*
X118705536Y-83724334D01*
X118705526Y-83724346D01*
X118703053Y-83727337D01*
X118700971Y-83730616D01*
X118700962Y-83730630D01*
X118536548Y-83989706D01*
X118536541Y-83989717D01*
X118534463Y-83992993D01*
X118532810Y-83996504D01*
X118532807Y-83996511D01*
X118453651Y-84164727D01*
X118400497Y-84277685D01*
X118399295Y-84281382D01*
X118399293Y-84281389D01*
X118321825Y-84519811D01*
X118303269Y-84576921D01*
X118302540Y-84580741D01*
X118302538Y-84580750D01*
X118245041Y-84882158D01*
X118245038Y-84882174D01*
X118244312Y-84885985D01*
X118244067Y-84889876D01*
X118244067Y-84889878D01*
X118232983Y-85066058D01*
X118224556Y-85200000D01*
X114700500Y-85200000D01*
X114700500Y-83438108D01*
X114709240Y-83408339D01*
X114702027Y-83362795D01*
X114700500Y-83343396D01*
X114700500Y-83287531D01*
X114703346Y-83287531D01*
X114703470Y-83282274D01*
X114690925Y-83257653D01*
X114681635Y-83233453D01*
X114676614Y-83214712D01*
X114672755Y-83208029D01*
X114665017Y-83176135D01*
X114651300Y-83162418D01*
X114631597Y-83136742D01*
X114630469Y-83134788D01*
X114565212Y-83069531D01*
X114565210Y-83069529D01*
X114563256Y-83068401D01*
X114537581Y-83048699D01*
X114527557Y-83038675D01*
X114518317Y-83038620D01*
X114491967Y-83027242D01*
X114485288Y-83023386D01*
X114466547Y-83018364D01*
X114442348Y-83009075D01*
X114424498Y-82999980D01*
X114419366Y-83001467D01*
X114404630Y-82999500D01*
X114396144Y-82999500D01*
X114356606Y-82999500D01*
X114337207Y-82997973D01*
X114300394Y-82992142D01*
X114296688Y-82994518D01*
X114261892Y-82999500D01*
X110738107Y-82999500D01*
X110708338Y-82990758D01*
X110662792Y-82997973D01*
X110643393Y-82999500D01*
X110587531Y-82999500D01*
X110587531Y-82996654D01*
X110582274Y-82996528D01*
X110557649Y-83009076D01*
X110533449Y-83018365D01*
X110514711Y-83023385D01*
X110508027Y-83027245D01*
X110476137Y-83034980D01*
X110462417Y-83048700D01*
X110436743Y-83068402D01*
X110434788Y-83069530D01*
X110369530Y-83134788D01*
X110368402Y-83136743D01*
X110348700Y-83162417D01*
X110338677Y-83172439D01*
X110338622Y-83181675D01*
X110327245Y-83208027D01*
X110323385Y-83214711D01*
X110318365Y-83233449D01*
X110309076Y-83257649D01*
X110299981Y-83275498D01*
X110301467Y-83280625D01*
X110299499Y-83295368D01*
X110299499Y-83343398D01*
X110297973Y-83362793D01*
X110292142Y-83399609D01*
X110294518Y-83403316D01*
X110299500Y-83438112D01*
X110299499Y-86961891D01*
X110290758Y-86991657D01*
X91200500Y-86991657D01*
X91200500Y-82279937D01*
X129342558Y-82279937D01*
X129342586Y-82282280D01*
X129342586Y-82282282D01*
X129348779Y-82800305D01*
X129348780Y-82800325D01*
X129348808Y-82802665D01*
X129349013Y-82804994D01*
X129349014Y-82805011D01*
X129392201Y-83295368D01*
X129394671Y-83323416D01*
X129395051Y-83325722D01*
X129395054Y-83325738D01*
X129461947Y-83730630D01*
X129479882Y-83839190D01*
X129603953Y-84347020D01*
X129604685Y-84349263D01*
X129604686Y-84349266D01*
X129752773Y-84802947D01*
X129766168Y-84843982D01*
X129767063Y-84846151D01*
X129767065Y-84846156D01*
X129961420Y-85317102D01*
X129965594Y-85327214D01*
X129966654Y-85329315D01*
X129966655Y-85329317D01*
X130170739Y-85733798D01*
X130201083Y-85793936D01*
X130202298Y-85795948D01*
X130202300Y-85795952D01*
X130470059Y-86239443D01*
X130470066Y-86239454D01*
X130471278Y-86241461D01*
X130774626Y-86667213D01*
X130776136Y-86669025D01*
X130776139Y-86669028D01*
X131099259Y-87056602D01*
X131109380Y-87068741D01*
X131111025Y-87070435D01*
X131111029Y-87070439D01*
X131471968Y-87442042D01*
X131471975Y-87442049D01*
X131473612Y-87443734D01*
X131475373Y-87445291D01*
X131475377Y-87445295D01*
X131509531Y-87475497D01*
X131865226Y-87790032D01*
X132281968Y-88105643D01*
X132721439Y-88388751D01*
X132723500Y-88389867D01*
X132723508Y-88389872D01*
X133044595Y-88563783D01*
X133181109Y-88637724D01*
X133658333Y-88851131D01*
X134150362Y-89027742D01*
X134654365Y-89166541D01*
X135167441Y-89266729D01*
X135686636Y-89327729D01*
X136208961Y-89349191D01*
X136731411Y-89330990D01*
X137250976Y-89273232D01*
X137764667Y-89176248D01*
X138269527Y-89040598D01*
X138762650Y-88867061D01*
X139241196Y-88656638D01*
X139702411Y-88410539D01*
X140143641Y-88130180D01*
X140562345Y-87817176D01*
X140956113Y-87473329D01*
X141322679Y-87100617D01*
X141659932Y-86701187D01*
X141965931Y-86277337D01*
X142238915Y-85831507D01*
X142460025Y-85400000D01*
X147254008Y-85400000D01*
X147274132Y-85642860D01*
X147274132Y-85642862D01*
X147274133Y-85642866D01*
X147333958Y-85879107D01*
X147333959Y-85879110D01*
X147360289Y-85939136D01*
X147431850Y-86102279D01*
X147565141Y-86306295D01*
X147657853Y-86407007D01*
X147730196Y-86485593D01*
X147826348Y-86560431D01*
X147922505Y-86635273D01*
X148136831Y-86751260D01*
X148367325Y-86830389D01*
X148607700Y-86870500D01*
X148851398Y-86870500D01*
X149091773Y-86830389D01*
X149322267Y-86751260D01*
X149536593Y-86635273D01*
X149728905Y-86485590D01*
X149893957Y-86306295D01*
X150027248Y-86102279D01*
X150125140Y-85879107D01*
X150184965Y-85642866D01*
X150205089Y-85400000D01*
X150184965Y-85157134D01*
X150125140Y-84920893D01*
X150027248Y-84697721D01*
X149893957Y-84493705D01*
X149728905Y-84314410D01*
X149728903Y-84314409D01*
X149728901Y-84314406D01*
X149543090Y-84169784D01*
X149536593Y-84164727D01*
X149322267Y-84048740D01*
X149322266Y-84048739D01*
X149322265Y-84048739D01*
X149091774Y-83969611D01*
X148851398Y-83929500D01*
X148607700Y-83929500D01*
X148367323Y-83969611D01*
X148136832Y-84048739D01*
X148019103Y-84112450D01*
X147922505Y-84164727D01*
X147922503Y-84164728D01*
X147922502Y-84164729D01*
X147730196Y-84314406D01*
X147659510Y-84391192D01*
X147565141Y-84493705D01*
X147456740Y-84659624D01*
X147431849Y-84697723D01*
X147333959Y-84920889D01*
X147333957Y-84920893D01*
X147333958Y-84920893D01*
X147297522Y-85064776D01*
X147274132Y-85157139D01*
X147254008Y-85400000D01*
X142460025Y-85400000D01*
X142477312Y-85366264D01*
X142679751Y-84884285D01*
X142845065Y-84388346D01*
X142972303Y-83881301D01*
X143060733Y-83366068D01*
X143109845Y-82845614D01*
X143119357Y-82322934D01*
X143116910Y-82280562D01*
X154392868Y-82280562D01*
X154392896Y-82282905D01*
X154392896Y-82282907D01*
X154399089Y-82800930D01*
X154399090Y-82800950D01*
X154399118Y-82803290D01*
X154399323Y-82805619D01*
X154399324Y-82805636D01*
X154442456Y-83295368D01*
X154444981Y-83324041D01*
X154445361Y-83326347D01*
X154445364Y-83326363D01*
X154512496Y-83732704D01*
X154530192Y-83839815D01*
X154654263Y-84347645D01*
X154654995Y-84349888D01*
X154654996Y-84349891D01*
X154802879Y-84802947D01*
X154816478Y-84844607D01*
X154817373Y-84846776D01*
X154817375Y-84846781D01*
X155014750Y-85325044D01*
X155015904Y-85327839D01*
X155016964Y-85329940D01*
X155016965Y-85329942D01*
X155205938Y-85704474D01*
X155251393Y-85794561D01*
X155252608Y-85796573D01*
X155252610Y-85796577D01*
X155520369Y-86240068D01*
X155520376Y-86240079D01*
X155521588Y-86242086D01*
X155824936Y-86667838D01*
X155826446Y-86669650D01*
X155826449Y-86669653D01*
X156149051Y-87056606D01*
X156159690Y-87069366D01*
X156161335Y-87071060D01*
X156161339Y-87071064D01*
X156522278Y-87442667D01*
X156522285Y-87442674D01*
X156523922Y-87444359D01*
X156525683Y-87445916D01*
X156525687Y-87445920D01*
X156674108Y-87577166D01*
X156915536Y-87790657D01*
X157332278Y-88106268D01*
X157771749Y-88389376D01*
X157773810Y-88390492D01*
X157773818Y-88390497D01*
X158094905Y-88564408D01*
X158231419Y-88638349D01*
X158708643Y-88851756D01*
X159200672Y-89028367D01*
X159704675Y-89167166D01*
X160217751Y-89267354D01*
X160736946Y-89328354D01*
X161259271Y-89349816D01*
X161781721Y-89331615D01*
X162301286Y-89273857D01*
X162814977Y-89176873D01*
X163319837Y-89041223D01*
X163812960Y-88867686D01*
X164291506Y-88657263D01*
X164752721Y-88411164D01*
X165193951Y-88130805D01*
X165612655Y-87817801D01*
X166006423Y-87473954D01*
X166372989Y-87101242D01*
X166710242Y-86701812D01*
X167016241Y-86277962D01*
X167289225Y-85832132D01*
X167527622Y-85366889D01*
X167730061Y-84884910D01*
X167895375Y-84388971D01*
X168022613Y-83881926D01*
X168111043Y-83366693D01*
X168160155Y-82846239D01*
X168166146Y-82517048D01*
X177516293Y-82517048D01*
X177516451Y-82520179D01*
X177516451Y-82520194D01*
X177534027Y-82868555D01*
X177534186Y-82871709D01*
X177534660Y-82874808D01*
X177534661Y-82874818D01*
X177585623Y-83208027D01*
X177587873Y-83222738D01*
X177588653Y-83225757D01*
X177588656Y-83225767D01*
X177676014Y-83563483D01*
X177676015Y-83563485D01*
X177676804Y-83566534D01*
X177677895Y-83569484D01*
X177677899Y-83569494D01*
X177778796Y-83842099D01*
X177800066Y-83899567D01*
X177801446Y-83902381D01*
X177801455Y-83902401D01*
X177878014Y-84058553D01*
X177956393Y-84218418D01*
X177958055Y-84221085D01*
X177958056Y-84221087D01*
X178142508Y-84517130D01*
X178142514Y-84517139D01*
X178144181Y-84519814D01*
X178361502Y-84800663D01*
X178363667Y-84802941D01*
X178363672Y-84802947D01*
X178603956Y-85055797D01*
X178606126Y-85058080D01*
X178608517Y-85060133D01*
X178608518Y-85060134D01*
X178613298Y-85064239D01*
X178613362Y-85064338D01*
X178615416Y-85066058D01*
X178616284Y-85066803D01*
X178875540Y-85289424D01*
X178889020Y-85298809D01*
X178890747Y-85300957D01*
X178911471Y-85314502D01*
X178914440Y-85316505D01*
X179166981Y-85492319D01*
X179187460Y-85503688D01*
X179191213Y-85507494D01*
X179229860Y-85527304D01*
X179233484Y-85529239D01*
X179474703Y-85663156D01*
X179474708Y-85663158D01*
X179477456Y-85664684D01*
X179505411Y-85676683D01*
X179511477Y-85681700D01*
X179565213Y-85702443D01*
X179569422Y-85704157D01*
X179803778Y-85804748D01*
X179839468Y-85815948D01*
X179848056Y-85821694D01*
X179914299Y-85839540D01*
X179919152Y-85840954D01*
X180142598Y-85911075D01*
X180145669Y-85911706D01*
X180145676Y-85911708D01*
X180175862Y-85917912D01*
X180186107Y-85920018D01*
X180197351Y-85925991D01*
X180273648Y-85938139D01*
X180279117Y-85939136D01*
X180311016Y-85945692D01*
X180490437Y-85982572D01*
X180541588Y-85987774D01*
X180555543Y-85993461D01*
X180639584Y-85997890D01*
X180645606Y-85998355D01*
X180840587Y-86018187D01*
X180840592Y-86018187D01*
X180843726Y-86018506D01*
X180969420Y-86018506D01*
X180969425Y-86018508D01*
X181020782Y-86018508D01*
X181072961Y-86018508D01*
X181073166Y-86018486D01*
X181195698Y-86018486D01*
X181198838Y-86018486D01*
X181396373Y-85998395D01*
X181402358Y-85997935D01*
X181482578Y-85993710D01*
X181500685Y-85987786D01*
X181552127Y-85982555D01*
X181762824Y-85939249D01*
X181768277Y-85938255D01*
X181841460Y-85926603D01*
X181856164Y-85920064D01*
X181899968Y-85911061D01*
X182122759Y-85841147D01*
X182127588Y-85839740D01*
X182191446Y-85822538D01*
X182202779Y-85816036D01*
X182238789Y-85804737D01*
X182241683Y-85803494D01*
X182241688Y-85803493D01*
X182472387Y-85704474D01*
X182476641Y-85702740D01*
X182528752Y-85682624D01*
X182536854Y-85676803D01*
X182565112Y-85664675D01*
X182808388Y-85529618D01*
X182811984Y-85527700D01*
X182849722Y-85508356D01*
X182854803Y-85503850D01*
X182875589Y-85492312D01*
X183127328Y-85317057D01*
X183130273Y-85315071D01*
X183150844Y-85301626D01*
X183153238Y-85299020D01*
X183167031Y-85289418D01*
X183426348Y-85066747D01*
X183428705Y-85064776D01*
X183428851Y-85064656D01*
X183428972Y-85064494D01*
X183436447Y-85058076D01*
X183681072Y-84800659D01*
X183898394Y-84519811D01*
X184086183Y-84218415D01*
X184242511Y-83899564D01*
X184365773Y-83566531D01*
X184454705Y-83222735D01*
X184508392Y-82871705D01*
X184526285Y-82517044D01*
X184508199Y-82162393D01*
X184454320Y-81811393D01*
X184365201Y-81467645D01*
X184241757Y-81134680D01*
X184237417Y-81125841D01*
X184237389Y-81125677D01*
X184237243Y-81125397D01*
X184235829Y-81122605D01*
X184163722Y-80975737D01*
X184085255Y-80815914D01*
X184083604Y-80813268D01*
X184083600Y-80813260D01*
X184076357Y-80801651D01*
X184075599Y-80798936D01*
X184061580Y-80777861D01*
X184059616Y-80774814D01*
X183898961Y-80517279D01*
X183898958Y-80517275D01*
X183897302Y-80514620D01*
X183882742Y-80495825D01*
X183880772Y-80490798D01*
X183852767Y-80457022D01*
X183850215Y-80453837D01*
X183741210Y-80313127D01*
X183681755Y-80236379D01*
X183681748Y-80236371D01*
X183679827Y-80233891D01*
X183675389Y-80229226D01*
X183658625Y-80211604D01*
X183655001Y-80204556D01*
X183613482Y-80164030D01*
X183610255Y-80160761D01*
X183583627Y-80132771D01*
X183435062Y-79976608D01*
X183406415Y-79952036D01*
X183400756Y-79943329D01*
X183346618Y-79900610D01*
X183342699Y-79897385D01*
X183167909Y-79747461D01*
X183167897Y-79747452D01*
X183165519Y-79745412D01*
X183160596Y-79741989D01*
X183128790Y-79719872D01*
X183120774Y-79709911D01*
X183055154Y-79668517D01*
X183050520Y-79665446D01*
X182876550Y-79544473D01*
X182876548Y-79544471D01*
X182873967Y-79542677D01*
X182871226Y-79541157D01*
X182871216Y-79541151D01*
X182828712Y-79517586D01*
X182818075Y-79506811D01*
X182742329Y-79469522D01*
X182736969Y-79466719D01*
X182566133Y-79372001D01*
X182566125Y-79371997D01*
X182563396Y-79370484D01*
X182560527Y-79369254D01*
X182560518Y-79369250D01*
X182420109Y-79309075D01*
X182384482Y-79285877D01*
X182368796Y-79271280D01*
X181025454Y-78021208D01*
X181021806Y-78017547D01*
X181021315Y-78017342D01*
X181020742Y-78017582D01*
X181017248Y-78021077D01*
X179658097Y-79285860D01*
X179622472Y-79309057D01*
X179482043Y-79369244D01*
X179482034Y-79369248D01*
X179479165Y-79370478D01*
X179476442Y-79371987D01*
X179476419Y-79371999D01*
X179305022Y-79467031D01*
X179299670Y-79469831D01*
X179227861Y-79505188D01*
X179213587Y-79517728D01*
X179171352Y-79541145D01*
X179171330Y-79541158D01*
X179168597Y-79542674D01*
X179166031Y-79544458D01*
X179166009Y-79544472D01*
X178991489Y-79665828D01*
X178986858Y-79668897D01*
X178924430Y-79708279D01*
X178913523Y-79720045D01*
X178879623Y-79743618D01*
X178879609Y-79743628D01*
X178877046Y-79745411D01*
X178874680Y-79747440D01*
X178874665Y-79747452D01*
X178699312Y-79897861D01*
X178695394Y-79901085D01*
X178643729Y-79941853D01*
X178635907Y-79952246D01*
X178609897Y-79974555D01*
X178609873Y-79974576D01*
X178607506Y-79976608D01*
X178605345Y-79978878D01*
X178605335Y-79978889D01*
X178431771Y-80161332D01*
X178428546Y-80164599D01*
X178388828Y-80203368D01*
X178383710Y-80211852D01*
X178364913Y-80231611D01*
X178364904Y-80231621D01*
X178362743Y-80233893D01*
X178360830Y-80236361D01*
X178360814Y-80236381D01*
X178191876Y-80454459D01*
X178189307Y-80457664D01*
X178162486Y-80490013D01*
X178159618Y-80496099D01*
X178147194Y-80512136D01*
X178147179Y-80512156D01*
X178145269Y-80514623D01*
X178143621Y-80517264D01*
X178143609Y-80517282D01*
X177982448Y-80775631D01*
X177980485Y-80778677D01*
X177967173Y-80798689D01*
X177966022Y-80801963D01*
X177958976Y-80813257D01*
X177958968Y-80813271D01*
X177957317Y-80815918D01*
X177955941Y-80818719D01*
X177955933Y-80818735D01*
X177806226Y-81123665D01*
X177805026Y-81126030D01*
X177804991Y-81126180D01*
X177802202Y-81131860D01*
X177802191Y-81131883D01*
X177800817Y-81134684D01*
X177799731Y-81137611D01*
X177799725Y-81137627D01*
X177678466Y-81464703D01*
X177678459Y-81464723D01*
X177677375Y-81467649D01*
X177676592Y-81470668D01*
X177676587Y-81470685D01*
X177589046Y-81808351D01*
X177589043Y-81808363D01*
X177588257Y-81811397D01*
X177587779Y-81814507D01*
X177587778Y-81814515D01*
X177534857Y-82159276D01*
X177534854Y-82159296D01*
X177534379Y-82162397D01*
X177534218Y-82165535D01*
X177534218Y-82165545D01*
X177525333Y-82339774D01*
X177516293Y-82517048D01*
X168166146Y-82517048D01*
X168169667Y-82323559D01*
X168139524Y-81801663D01*
X168069901Y-81283554D01*
X167961196Y-80772215D01*
X167814037Y-80270589D01*
X167629270Y-79781564D01*
X167407959Y-79307954D01*
X167151377Y-78852487D01*
X166861003Y-78417784D01*
X166832324Y-78381196D01*
X166539953Y-78008192D01*
X166539952Y-78008191D01*
X166538506Y-78006346D01*
X166185745Y-77620544D01*
X166184040Y-77618942D01*
X166184033Y-77618935D01*
X165806467Y-77264210D01*
X165806465Y-77264209D01*
X165804749Y-77262596D01*
X165802913Y-77261115D01*
X165449999Y-76976455D01*
X165450000Y-76976455D01*
X157150002Y-76948801D01*
X157149998Y-76948802D01*
X156791244Y-77232943D01*
X156791230Y-77232954D01*
X156789331Y-77234459D01*
X156787546Y-77236114D01*
X156787538Y-77236122D01*
X156420227Y-77576921D01*
X156406108Y-77590021D01*
X156404521Y-77591734D01*
X156404502Y-77591754D01*
X156052532Y-77971899D01*
X156052520Y-77971912D01*
X156050945Y-77973614D01*
X156049507Y-77975425D01*
X156049496Y-77975438D01*
X155727343Y-78381196D01*
X155727331Y-78381211D01*
X155725887Y-78383031D01*
X155724577Y-78384965D01*
X155724571Y-78384974D01*
X155434119Y-78813971D01*
X155434109Y-78813986D01*
X155432805Y-78815913D01*
X155431648Y-78817936D01*
X155431640Y-78817950D01*
X155174555Y-79267721D01*
X155174542Y-79267745D01*
X155173385Y-79269770D01*
X155172381Y-79271882D01*
X155172370Y-79271905D01*
X154950129Y-79739866D01*
X154950117Y-79739893D01*
X154949122Y-79741989D01*
X154948289Y-79744152D01*
X154948279Y-79744176D01*
X154762151Y-80227654D01*
X154762144Y-80227672D01*
X154761306Y-80229851D01*
X154760629Y-80232103D01*
X154760627Y-80232112D01*
X154611698Y-80728284D01*
X154611694Y-80728297D01*
X154611019Y-80730548D01*
X154610516Y-80732842D01*
X154610513Y-80732855D01*
X154499768Y-81238263D01*
X154499125Y-81241199D01*
X154498797Y-81243524D01*
X154498796Y-81243534D01*
X154443029Y-81639770D01*
X154426268Y-81758864D01*
X154426118Y-81761204D01*
X154426118Y-81761206D01*
X154393058Y-82277602D01*
X154392868Y-82280562D01*
X143116910Y-82280562D01*
X143089214Y-81801038D01*
X143019591Y-81282929D01*
X142910886Y-80771590D01*
X142763727Y-80269964D01*
X142578960Y-79780939D01*
X142357649Y-79307329D01*
X142101067Y-78851862D01*
X141875391Y-78514015D01*
X141812001Y-78419117D01*
X141811999Y-78419115D01*
X141810693Y-78417159D01*
X141785465Y-78384974D01*
X141489643Y-78007567D01*
X141489642Y-78007566D01*
X141488196Y-78005721D01*
X141135435Y-77619919D01*
X141133730Y-77618317D01*
X141133723Y-77618310D01*
X140775107Y-77281389D01*
X140754439Y-77261971D01*
X140751993Y-77260094D01*
X140751981Y-77260083D01*
X140350000Y-76951496D01*
X140349998Y-76951495D01*
X132200001Y-76924148D01*
X131739017Y-77233836D01*
X131357536Y-77587782D01*
X131357516Y-77587801D01*
X131355798Y-77589396D01*
X131354211Y-77591109D01*
X131354192Y-77591129D01*
X131002222Y-77971274D01*
X131002210Y-77971287D01*
X131000635Y-77972989D01*
X130999197Y-77974800D01*
X130999186Y-77974813D01*
X130677033Y-78380571D01*
X130677021Y-78380586D01*
X130675577Y-78382406D01*
X130674267Y-78384340D01*
X130674261Y-78384349D01*
X130383809Y-78813346D01*
X130383799Y-78813361D01*
X130382495Y-78815288D01*
X130381338Y-78817311D01*
X130381330Y-78817325D01*
X130124245Y-79267096D01*
X130124232Y-79267120D01*
X130123075Y-79269145D01*
X130122071Y-79271257D01*
X130122060Y-79271280D01*
X129899819Y-79739241D01*
X129899807Y-79739268D01*
X129898812Y-79741364D01*
X129897979Y-79743527D01*
X129897969Y-79743551D01*
X129711841Y-80227029D01*
X129711834Y-80227047D01*
X129710996Y-80229226D01*
X129710319Y-80231478D01*
X129710317Y-80231487D01*
X129561388Y-80727659D01*
X129561384Y-80727672D01*
X129560709Y-80729923D01*
X129560206Y-80732217D01*
X129560203Y-80732230D01*
X129449321Y-81238263D01*
X129448815Y-81240574D01*
X129448487Y-81242899D01*
X129448486Y-81242909D01*
X129392631Y-81639774D01*
X129375958Y-81758239D01*
X129375808Y-81760579D01*
X129375808Y-81760581D01*
X129349882Y-82165545D01*
X129342558Y-82279937D01*
X91200500Y-82279937D01*
X91200500Y-78200000D01*
X118224556Y-78200000D01*
X118244312Y-78514015D01*
X118245039Y-78517827D01*
X118245041Y-78517841D01*
X118302538Y-78819249D01*
X118303269Y-78823079D01*
X118400497Y-79122315D01*
X118402153Y-79125834D01*
X118477463Y-79285877D01*
X118534463Y-79407007D01*
X118536545Y-79410288D01*
X118536548Y-79410293D01*
X118700962Y-79669369D01*
X118700966Y-79669375D01*
X118703053Y-79672663D01*
X118705532Y-79675660D01*
X118705536Y-79675665D01*
X118763236Y-79745412D01*
X118903610Y-79915094D01*
X119132970Y-80130478D01*
X119387516Y-80315416D01*
X119390923Y-80317289D01*
X119639261Y-80453815D01*
X119663234Y-80466994D01*
X119955775Y-80582819D01*
X120260527Y-80661066D01*
X120572682Y-80700500D01*
X120576577Y-80700500D01*
X120883423Y-80700500D01*
X120887318Y-80700500D01*
X121199473Y-80661066D01*
X121504225Y-80582819D01*
X121796766Y-80466994D01*
X122072484Y-80315416D01*
X122327030Y-80130478D01*
X122556390Y-79915094D01*
X122756947Y-79672663D01*
X122925537Y-79407007D01*
X123059503Y-79122315D01*
X123156731Y-78823079D01*
X123215688Y-78514015D01*
X123235444Y-78200000D01*
X123215688Y-77885985D01*
X123156731Y-77576921D01*
X123059503Y-77277685D01*
X122925537Y-76992993D01*
X122881847Y-76924148D01*
X122759037Y-76730630D01*
X122759035Y-76730627D01*
X122756947Y-76727337D01*
X122556390Y-76484906D01*
X122327030Y-76269522D01*
X122072484Y-76084584D01*
X122069081Y-76082713D01*
X122069076Y-76082710D01*
X121800183Y-75934884D01*
X121800176Y-75934880D01*
X121796766Y-75933006D01*
X121793140Y-75931570D01*
X121793135Y-75931568D01*
X121507847Y-75818615D01*
X121507846Y-75818614D01*
X121504225Y-75817181D01*
X121500455Y-75816213D01*
X121500452Y-75816212D01*
X121203256Y-75739905D01*
X121203251Y-75739904D01*
X121199473Y-75738934D01*
X121195602Y-75738445D01*
X121195597Y-75738444D01*
X120891184Y-75699988D01*
X120891177Y-75699987D01*
X120887318Y-75699500D01*
X120572682Y-75699500D01*
X120568823Y-75699987D01*
X120568815Y-75699988D01*
X120264402Y-75738444D01*
X120264394Y-75738445D01*
X120260527Y-75738934D01*
X120256751Y-75739903D01*
X120256743Y-75739905D01*
X119959547Y-75816212D01*
X119959539Y-75816214D01*
X119955775Y-75817181D01*
X119952158Y-75818612D01*
X119952152Y-75818615D01*
X119666864Y-75931568D01*
X119666853Y-75931572D01*
X119663234Y-75933006D01*
X119659829Y-75934877D01*
X119659816Y-75934884D01*
X119390923Y-76082710D01*
X119390911Y-76082717D01*
X119387516Y-76084584D01*
X119384372Y-76086867D01*
X119384366Y-76086872D01*
X119136126Y-76267228D01*
X119136115Y-76267236D01*
X119132970Y-76269522D01*
X119130135Y-76272183D01*
X119130128Y-76272190D01*
X118906447Y-76482241D01*
X118906440Y-76482248D01*
X118903610Y-76484906D01*
X118901135Y-76487897D01*
X118901131Y-76487902D01*
X118705536Y-76724334D01*
X118705526Y-76724346D01*
X118703053Y-76727337D01*
X118700971Y-76730616D01*
X118700962Y-76730630D01*
X118536548Y-76989706D01*
X118536541Y-76989717D01*
X118534463Y-76992993D01*
X118532810Y-76996504D01*
X118532807Y-76996511D01*
X118402153Y-77274165D01*
X118400497Y-77277685D01*
X118303269Y-77576921D01*
X118302540Y-77580741D01*
X118302538Y-77580750D01*
X118245041Y-77882158D01*
X118245038Y-77882174D01*
X118244312Y-77885985D01*
X118224556Y-78200000D01*
X91200500Y-78200000D01*
X91200500Y-68102869D01*
X91200566Y-68100000D01*
X93089102Y-68100000D01*
X93089391Y-68104225D01*
X93096091Y-68202178D01*
X93094460Y-68209564D01*
X93098006Y-68234795D01*
X93098924Y-68243591D01*
X93099316Y-68249322D01*
X93099605Y-68257784D01*
X93099604Y-68278647D01*
X93101898Y-68287078D01*
X93108380Y-68381840D01*
X93108381Y-68381847D01*
X93108670Y-68386072D01*
X93109534Y-68390228D01*
X93130160Y-68489488D01*
X93129474Y-68497959D01*
X93137087Y-68524507D01*
X93139299Y-68533467D01*
X93140584Y-68539653D01*
X93141969Y-68547613D01*
X93144540Y-68565907D01*
X93147467Y-68572774D01*
X93167009Y-68666815D01*
X93168427Y-68670804D01*
X93168430Y-68670815D01*
X93203460Y-68769378D01*
X93203985Y-68778771D01*
X93215975Y-68805701D01*
X93219535Y-68814610D01*
X93222069Y-68821740D01*
X93224425Y-68829083D01*
X93228757Y-68844191D01*
X93231925Y-68849471D01*
X93263033Y-68937000D01*
X93264980Y-68940758D01*
X93264982Y-68940762D01*
X93314597Y-69036515D01*
X93316566Y-69046622D01*
X93333057Y-69073012D01*
X93338003Y-69081686D01*
X93342344Y-69090066D01*
X93345518Y-69096663D01*
X93350622Y-69108127D01*
X93353655Y-69111894D01*
X93394952Y-69191593D01*
X93397391Y-69195048D01*
X93397400Y-69195063D01*
X93461456Y-69285809D01*
X93465066Y-69296382D01*
X93486013Y-69321346D01*
X93492323Y-69329538D01*
X93499256Y-69339359D01*
X93503113Y-69345160D01*
X93507810Y-69352677D01*
X93510340Y-69355060D01*
X93560310Y-69425851D01*
X93563203Y-69428949D01*
X93563205Y-69428951D01*
X93641246Y-69512513D01*
X93646648Y-69523264D01*
X93671819Y-69545928D01*
X93679473Y-69553444D01*
X93689953Y-69564666D01*
X93694315Y-69569592D01*
X93697274Y-69573119D01*
X93698978Y-69574330D01*
X93735443Y-69613374D01*
X93756025Y-69635412D01*
X93850534Y-69712300D01*
X93857829Y-69722912D01*
X93886860Y-69742494D01*
X93895772Y-69749105D01*
X93910937Y-69761442D01*
X93915346Y-69765216D01*
X93915982Y-69765546D01*
X93978453Y-69816370D01*
X93982079Y-69818575D01*
X94085331Y-69881364D01*
X94094559Y-69891494D01*
X94126936Y-69907286D01*
X94137005Y-69912788D01*
X94187884Y-69943728D01*
X94223450Y-69965356D01*
X94341186Y-70016496D01*
X94352334Y-70025798D01*
X94387439Y-70037204D01*
X94398516Y-70041397D01*
X94457142Y-70066863D01*
X94473658Y-70074037D01*
X94486452Y-70079594D01*
X94490523Y-70080734D01*
X94490527Y-70080736D01*
X94490531Y-70080737D01*
X94613218Y-70115112D01*
X94626201Y-70123229D01*
X94663303Y-70129772D01*
X94675225Y-70132486D01*
X94710325Y-70142320D01*
X94762560Y-70156956D01*
X94896236Y-70175329D01*
X94910919Y-70181924D01*
X94949254Y-70183263D01*
X94961808Y-70184341D01*
X95046630Y-70196000D01*
X95050868Y-70196000D01*
X95184846Y-70196000D01*
X95201025Y-70200750D01*
X95239766Y-70196679D01*
X95252728Y-70196000D01*
X95329132Y-70196000D01*
X95333370Y-70196000D01*
X95473569Y-70176730D01*
X95490988Y-70179345D01*
X95529271Y-70169800D01*
X95542378Y-70167272D01*
X95617440Y-70156956D01*
X95756878Y-70117887D01*
X95775230Y-70118115D01*
X95812214Y-70103172D01*
X95825208Y-70098741D01*
X95893548Y-70079594D01*
X96029398Y-70020585D01*
X96048333Y-70018222D01*
X96083208Y-69998087D01*
X96095808Y-69991740D01*
X96095967Y-69991670D01*
X96156550Y-69965356D01*
X96285926Y-69886680D01*
X96305047Y-69881578D01*
X96337016Y-69856601D01*
X96348924Y-69848370D01*
X96401547Y-69816370D01*
X96521570Y-69718723D01*
X96540460Y-69710796D01*
X96568813Y-69681436D01*
X96579747Y-69671393D01*
X96623975Y-69635412D01*
X96731843Y-69519911D01*
X96750074Y-69509133D01*
X96774191Y-69475939D01*
X96783880Y-69464193D01*
X96819690Y-69425851D01*
X96912741Y-69294027D01*
X96929865Y-69280445D01*
X96949200Y-69244081D01*
X96957372Y-69230800D01*
X96985048Y-69191593D01*
X97060806Y-69045385D01*
X97076378Y-69029121D01*
X97090506Y-68990306D01*
X97096931Y-68975668D01*
X97115015Y-68940767D01*
X97116967Y-68937000D01*
X97173218Y-68778722D01*
X97186815Y-68759959D01*
X97195422Y-68719470D01*
X97199866Y-68703744D01*
X97212991Y-68666815D01*
X97271330Y-68386072D01*
X97287478Y-68150000D01*
X115800000Y-68150000D01*
X115800000Y-74400000D01*
X125400000Y-74400000D01*
X125400000Y-68250000D01*
X145450000Y-68250000D01*
X145450000Y-74400000D01*
X152250000Y-74400000D01*
X152250000Y-68250000D01*
X145450000Y-68250000D01*
X125400000Y-68250000D01*
X125400000Y-68150000D01*
X115800000Y-68150000D01*
X97287478Y-68150000D01*
X97290898Y-68100000D01*
X188109102Y-68100000D01*
X188109391Y-68104225D01*
X188116091Y-68202178D01*
X188114460Y-68209564D01*
X188118006Y-68234795D01*
X188118924Y-68243591D01*
X188119316Y-68249322D01*
X188119605Y-68257784D01*
X188119605Y-68278647D01*
X188121898Y-68287078D01*
X188128380Y-68381840D01*
X188128381Y-68381847D01*
X188128670Y-68386072D01*
X188129534Y-68390228D01*
X188150160Y-68489488D01*
X188149474Y-68497959D01*
X188157087Y-68524507D01*
X188159299Y-68533467D01*
X188160584Y-68539653D01*
X188161969Y-68547613D01*
X188164540Y-68565907D01*
X188167467Y-68572774D01*
X188187009Y-68666815D01*
X188188427Y-68670804D01*
X188188430Y-68670815D01*
X188223460Y-68769378D01*
X188223985Y-68778771D01*
X188235975Y-68805701D01*
X188239535Y-68814610D01*
X188242069Y-68821740D01*
X188244425Y-68829083D01*
X188248757Y-68844191D01*
X188251925Y-68849471D01*
X188283033Y-68937000D01*
X188284980Y-68940758D01*
X188284982Y-68940762D01*
X188334597Y-69036515D01*
X188336566Y-69046622D01*
X188353057Y-69073012D01*
X188358003Y-69081686D01*
X188362344Y-69090066D01*
X188365518Y-69096663D01*
X188370622Y-69108127D01*
X188373655Y-69111894D01*
X188414952Y-69191593D01*
X188417391Y-69195048D01*
X188417400Y-69195063D01*
X188481456Y-69285809D01*
X188485066Y-69296382D01*
X188506013Y-69321346D01*
X188512323Y-69329538D01*
X188519256Y-69339359D01*
X188523113Y-69345160D01*
X188527810Y-69352677D01*
X188530340Y-69355060D01*
X188580310Y-69425851D01*
X188583203Y-69428949D01*
X188583205Y-69428951D01*
X188661246Y-69512513D01*
X188666648Y-69523264D01*
X188691819Y-69545928D01*
X188699473Y-69553444D01*
X188709953Y-69564666D01*
X188714315Y-69569592D01*
X188717274Y-69573119D01*
X188718978Y-69574330D01*
X188755443Y-69613374D01*
X188776025Y-69635412D01*
X188870534Y-69712300D01*
X188877829Y-69722912D01*
X188906860Y-69742494D01*
X188915772Y-69749105D01*
X188930937Y-69761442D01*
X188935346Y-69765216D01*
X188935982Y-69765546D01*
X188998453Y-69816370D01*
X189002079Y-69818575D01*
X189105331Y-69881364D01*
X189114559Y-69891494D01*
X189146936Y-69907286D01*
X189157005Y-69912788D01*
X189207884Y-69943728D01*
X189243450Y-69965356D01*
X189361186Y-70016496D01*
X189372334Y-70025798D01*
X189407439Y-70037204D01*
X189418516Y-70041397D01*
X189477142Y-70066863D01*
X189493658Y-70074037D01*
X189506452Y-70079594D01*
X189510523Y-70080734D01*
X189510527Y-70080736D01*
X189510531Y-70080737D01*
X189633218Y-70115112D01*
X189646201Y-70123229D01*
X189683303Y-70129772D01*
X189695225Y-70132486D01*
X189730325Y-70142320D01*
X189782560Y-70156956D01*
X189916236Y-70175329D01*
X189930919Y-70181924D01*
X189969254Y-70183263D01*
X189981808Y-70184341D01*
X190066630Y-70196000D01*
X190070868Y-70196000D01*
X190204846Y-70196000D01*
X190221025Y-70200750D01*
X190259766Y-70196679D01*
X190272728Y-70196000D01*
X190349132Y-70196000D01*
X190353370Y-70196000D01*
X190493569Y-70176730D01*
X190510988Y-70179345D01*
X190549271Y-70169800D01*
X190562378Y-70167272D01*
X190637440Y-70156956D01*
X190776878Y-70117887D01*
X190795230Y-70118115D01*
X190832214Y-70103172D01*
X190845208Y-70098741D01*
X190913548Y-70079594D01*
X191049398Y-70020585D01*
X191068333Y-70018222D01*
X191103208Y-69998087D01*
X191115808Y-69991740D01*
X191115967Y-69991670D01*
X191176550Y-69965356D01*
X191305926Y-69886680D01*
X191325047Y-69881578D01*
X191357016Y-69856601D01*
X191368924Y-69848370D01*
X191421547Y-69816370D01*
X191541570Y-69718723D01*
X191560460Y-69710796D01*
X191588813Y-69681436D01*
X191599747Y-69671393D01*
X191643975Y-69635412D01*
X191751843Y-69519911D01*
X191770074Y-69509133D01*
X191794191Y-69475939D01*
X191803880Y-69464193D01*
X191839690Y-69425851D01*
X191932741Y-69294027D01*
X191949865Y-69280445D01*
X191969200Y-69244081D01*
X191977372Y-69230800D01*
X192005048Y-69191593D01*
X192080806Y-69045385D01*
X192096378Y-69029121D01*
X192110506Y-68990306D01*
X192116931Y-68975668D01*
X192135015Y-68940767D01*
X192136967Y-68937000D01*
X192193218Y-68778722D01*
X192206815Y-68759959D01*
X192215422Y-68719470D01*
X192219866Y-68703744D01*
X192232991Y-68666815D01*
X192291330Y-68386072D01*
X192310898Y-68100000D01*
X192291330Y-67813928D01*
X192232991Y-67533185D01*
X192219868Y-67496261D01*
X192215423Y-67480532D01*
X192208446Y-67447708D01*
X192193220Y-67421281D01*
X192183628Y-67394293D01*
X192136967Y-67263000D01*
X192116933Y-67224336D01*
X192110508Y-67209697D01*
X192098984Y-67178036D01*
X192080807Y-67154616D01*
X192066487Y-67126980D01*
X192005048Y-67008407D01*
X192002605Y-67004946D01*
X192002599Y-67004936D01*
X191977384Y-66969215D01*
X191969202Y-66955921D01*
X191953336Y-66926081D01*
X191932743Y-66905974D01*
X191842140Y-66777619D01*
X191842135Y-66777613D01*
X191839690Y-66774149D01*
X191803889Y-66735815D01*
X191794195Y-66724064D01*
X191774285Y-66696661D01*
X191751844Y-66680088D01*
X191710058Y-66635346D01*
X191643975Y-66564588D01*
X191640693Y-66561918D01*
X191640690Y-66561915D01*
X191599767Y-66528622D01*
X191588824Y-66518572D01*
X191565277Y-66494189D01*
X191541571Y-66481276D01*
X191424837Y-66386307D01*
X191421547Y-66383630D01*
X191417923Y-66381426D01*
X191417920Y-66381424D01*
X191368940Y-66351639D01*
X191357026Y-66343404D01*
X191330322Y-66322541D01*
X191305925Y-66313318D01*
X191180168Y-66236844D01*
X191180166Y-66236843D01*
X191176550Y-66234644D01*
X191115808Y-66208260D01*
X191103209Y-66201913D01*
X191073921Y-66185003D01*
X191049398Y-66179414D01*
X190917429Y-66122091D01*
X190917419Y-66122087D01*
X190913548Y-66120406D01*
X190909461Y-66119261D01*
X190845219Y-66101261D01*
X190832223Y-66096830D01*
X190800982Y-66084207D01*
X190776878Y-66082112D01*
X190641518Y-66044186D01*
X190641509Y-66044184D01*
X190637440Y-66043044D01*
X190633253Y-66042468D01*
X190633246Y-66042467D01*
X190562393Y-66032729D01*
X190549280Y-66030201D01*
X190516763Y-66022093D01*
X190493571Y-66023269D01*
X190357570Y-66004577D01*
X190357566Y-66004576D01*
X190353370Y-66004000D01*
X190272725Y-66004000D01*
X190259764Y-66003321D01*
X190226686Y-65999844D01*
X190204845Y-66004000D01*
X190066630Y-66004000D01*
X190062433Y-66004576D01*
X190062430Y-66004577D01*
X189981824Y-66015656D01*
X189969267Y-66016735D01*
X189936353Y-66017884D01*
X189916237Y-66024670D01*
X189786753Y-66042467D01*
X189786743Y-66042469D01*
X189782560Y-66043044D01*
X189778493Y-66044183D01*
X189778481Y-66044186D01*
X189695241Y-66067509D01*
X189683320Y-66070223D01*
X189651296Y-66075869D01*
X189633221Y-66084885D01*
X189510533Y-66119261D01*
X189510512Y-66119268D01*
X189506452Y-66120406D01*
X189502582Y-66122086D01*
X189502565Y-66122093D01*
X189418526Y-66158597D01*
X189407444Y-66162794D01*
X189376995Y-66172687D01*
X189361189Y-66183502D01*
X189247328Y-66232959D01*
X189247321Y-66232962D01*
X189243450Y-66234644D01*
X189239839Y-66236839D01*
X189239831Y-66236844D01*
X189157015Y-66287206D01*
X189146946Y-66292708D01*
X189118721Y-66306474D01*
X189105336Y-66318632D01*
X189098910Y-66322541D01*
X189002073Y-66381428D01*
X189002066Y-66381432D01*
X188998453Y-66383630D01*
X188995165Y-66386304D01*
X188995162Y-66386307D01*
X188935983Y-66434452D01*
X188935491Y-66434658D01*
X188930927Y-66438566D01*
X188915783Y-66450886D01*
X188906871Y-66457496D01*
X188881435Y-66474652D01*
X188870535Y-66487698D01*
X188779309Y-66561915D01*
X188779298Y-66561924D01*
X188776025Y-66564588D01*
X188773137Y-66567679D01*
X188773133Y-66567684D01*
X188718979Y-66625669D01*
X188717612Y-66626477D01*
X188714305Y-66630418D01*
X188709941Y-66635346D01*
X188699475Y-66646552D01*
X188691827Y-66654062D01*
X188669668Y-66674014D01*
X188661247Y-66687485D01*
X188583205Y-66771048D01*
X188583197Y-66771057D01*
X188580310Y-66774149D01*
X188577870Y-66777605D01*
X188577864Y-66777613D01*
X188530340Y-66844939D01*
X188528275Y-66846576D01*
X188523111Y-66854841D01*
X188519259Y-66860637D01*
X188512330Y-66870453D01*
X188506017Y-66878648D01*
X188487492Y-66900726D01*
X188481458Y-66914189D01*
X188417394Y-67004946D01*
X188417387Y-67004956D01*
X188414952Y-67008407D01*
X188413003Y-67012168D01*
X188413002Y-67012170D01*
X188373656Y-67088104D01*
X188371120Y-67090752D01*
X188365514Y-67103343D01*
X188362337Y-67109946D01*
X188358001Y-67118315D01*
X188353060Y-67126980D01*
X188338407Y-67150430D01*
X188334598Y-67163483D01*
X188284982Y-67259237D01*
X188284977Y-67259246D01*
X188283033Y-67263000D01*
X188281615Y-67266988D01*
X188281614Y-67266992D01*
X188251925Y-67350528D01*
X188249188Y-67354304D01*
X188244424Y-67370919D01*
X188242065Y-67378272D01*
X188239534Y-67385392D01*
X188235977Y-67394293D01*
X188225275Y-67418330D01*
X188223460Y-67430619D01*
X188187009Y-67533185D01*
X188186146Y-67537335D01*
X188186145Y-67537341D01*
X188167467Y-67627224D01*
X188164803Y-67632211D01*
X188161966Y-67652400D01*
X188160578Y-67660379D01*
X188159296Y-67666546D01*
X188157088Y-67675485D01*
X188150263Y-67699287D01*
X188150160Y-67710510D01*
X188145908Y-67730973D01*
X188128670Y-67813928D01*
X188128381Y-67818152D01*
X188128380Y-67818160D01*
X188121898Y-67912920D01*
X188119605Y-67919126D01*
X188119605Y-67942215D01*
X188119316Y-67950683D01*
X188118924Y-67956410D01*
X188118006Y-67965198D01*
X188114814Y-67987908D01*
X188116091Y-67997820D01*
X188109102Y-68100000D01*
X97290898Y-68100000D01*
X97271330Y-67813928D01*
X97212991Y-67533185D01*
X97199868Y-67496261D01*
X97195423Y-67480532D01*
X97188446Y-67447708D01*
X97173220Y-67421281D01*
X97163628Y-67394293D01*
X97116967Y-67263000D01*
X97096933Y-67224336D01*
X97090508Y-67209697D01*
X97078984Y-67178036D01*
X97060807Y-67154616D01*
X97046487Y-67126980D01*
X96985048Y-67008407D01*
X96982605Y-67004946D01*
X96982599Y-67004936D01*
X96957384Y-66969215D01*
X96949202Y-66955921D01*
X96933336Y-66926081D01*
X96912743Y-66905974D01*
X96822140Y-66777619D01*
X96822135Y-66777613D01*
X96819690Y-66774149D01*
X96783889Y-66735815D01*
X96774195Y-66724064D01*
X96754285Y-66696661D01*
X96731844Y-66680088D01*
X96690058Y-66635346D01*
X96623975Y-66564588D01*
X96620693Y-66561918D01*
X96620690Y-66561915D01*
X96579767Y-66528622D01*
X96568824Y-66518572D01*
X96545277Y-66494189D01*
X96521571Y-66481276D01*
X96404837Y-66386307D01*
X96401547Y-66383630D01*
X96397923Y-66381426D01*
X96397920Y-66381424D01*
X96348940Y-66351639D01*
X96337026Y-66343404D01*
X96310322Y-66322541D01*
X96285925Y-66313318D01*
X96160168Y-66236844D01*
X96160166Y-66236843D01*
X96156550Y-66234644D01*
X96095808Y-66208260D01*
X96083209Y-66201913D01*
X96053921Y-66185003D01*
X96029398Y-66179414D01*
X95897429Y-66122091D01*
X95897419Y-66122087D01*
X95893548Y-66120406D01*
X95889461Y-66119261D01*
X95825219Y-66101261D01*
X95812223Y-66096830D01*
X95780982Y-66084207D01*
X95756878Y-66082112D01*
X95621518Y-66044186D01*
X95621509Y-66044184D01*
X95617440Y-66043044D01*
X95613253Y-66042468D01*
X95613246Y-66042467D01*
X95542393Y-66032729D01*
X95529280Y-66030201D01*
X95496763Y-66022093D01*
X95473571Y-66023269D01*
X95337570Y-66004577D01*
X95337566Y-66004576D01*
X95333370Y-66004000D01*
X95252725Y-66004000D01*
X95239764Y-66003321D01*
X95206686Y-65999844D01*
X95184845Y-66004000D01*
X95046630Y-66004000D01*
X95042433Y-66004576D01*
X95042430Y-66004577D01*
X94961824Y-66015656D01*
X94949267Y-66016735D01*
X94916353Y-66017884D01*
X94896237Y-66024670D01*
X94766753Y-66042467D01*
X94766743Y-66042469D01*
X94762560Y-66043044D01*
X94758493Y-66044183D01*
X94758481Y-66044186D01*
X94675241Y-66067509D01*
X94663320Y-66070223D01*
X94631296Y-66075869D01*
X94613221Y-66084885D01*
X94490533Y-66119261D01*
X94490512Y-66119268D01*
X94486452Y-66120406D01*
X94482582Y-66122086D01*
X94482565Y-66122093D01*
X94398526Y-66158597D01*
X94387444Y-66162794D01*
X94356995Y-66172687D01*
X94341189Y-66183502D01*
X94227328Y-66232959D01*
X94227321Y-66232962D01*
X94223450Y-66234644D01*
X94219839Y-66236839D01*
X94219831Y-66236844D01*
X94137015Y-66287206D01*
X94126946Y-66292708D01*
X94098721Y-66306474D01*
X94085336Y-66318632D01*
X94078910Y-66322541D01*
X93982073Y-66381428D01*
X93982066Y-66381432D01*
X93978453Y-66383630D01*
X93975165Y-66386304D01*
X93975162Y-66386307D01*
X93915983Y-66434452D01*
X93915491Y-66434658D01*
X93910927Y-66438566D01*
X93895783Y-66450886D01*
X93886871Y-66457496D01*
X93861435Y-66474652D01*
X93850535Y-66487698D01*
X93759309Y-66561915D01*
X93759298Y-66561924D01*
X93756025Y-66564588D01*
X93753137Y-66567679D01*
X93753133Y-66567684D01*
X93698979Y-66625669D01*
X93697612Y-66626477D01*
X93694305Y-66630418D01*
X93689941Y-66635346D01*
X93679475Y-66646552D01*
X93671827Y-66654062D01*
X93649668Y-66674014D01*
X93641247Y-66687485D01*
X93563205Y-66771048D01*
X93563197Y-66771057D01*
X93560310Y-66774149D01*
X93557870Y-66777605D01*
X93557864Y-66777613D01*
X93510340Y-66844939D01*
X93508275Y-66846576D01*
X93503111Y-66854841D01*
X93499259Y-66860637D01*
X93492330Y-66870453D01*
X93486017Y-66878648D01*
X93467492Y-66900726D01*
X93461458Y-66914189D01*
X93397394Y-67004946D01*
X93397387Y-67004956D01*
X93394952Y-67008407D01*
X93393003Y-67012168D01*
X93393002Y-67012170D01*
X93353656Y-67088104D01*
X93351120Y-67090752D01*
X93345514Y-67103343D01*
X93342337Y-67109946D01*
X93338001Y-67118315D01*
X93333060Y-67126980D01*
X93318407Y-67150430D01*
X93314598Y-67163483D01*
X93264982Y-67259237D01*
X93264977Y-67259246D01*
X93263033Y-67263000D01*
X93261615Y-67266988D01*
X93261614Y-67266992D01*
X93231925Y-67350528D01*
X93229188Y-67354304D01*
X93224424Y-67370919D01*
X93222065Y-67378272D01*
X93219534Y-67385392D01*
X93215977Y-67394293D01*
X93205275Y-67418330D01*
X93203460Y-67430619D01*
X93167009Y-67533185D01*
X93166146Y-67537335D01*
X93166145Y-67537341D01*
X93147467Y-67627224D01*
X93144803Y-67632211D01*
X93141966Y-67652400D01*
X93140578Y-67660379D01*
X93139296Y-67666546D01*
X93137088Y-67675485D01*
X93130263Y-67699287D01*
X93130160Y-67710510D01*
X93125908Y-67730973D01*
X93108670Y-67813928D01*
X93108381Y-67818152D01*
X93108380Y-67818160D01*
X93101898Y-67912920D01*
X93099605Y-67919126D01*
X93099605Y-67942215D01*
X93099316Y-67950683D01*
X93098924Y-67956410D01*
X93098006Y-67965198D01*
X93094814Y-67987908D01*
X93096091Y-67997820D01*
X93089102Y-68100000D01*
X91200566Y-68100000D01*
X91200632Y-68097143D01*
X91200695Y-68095774D01*
X91208500Y-67926939D01*
X91218166Y-67730200D01*
X91219200Y-67719217D01*
X91244670Y-67536634D01*
X91245775Y-67529192D01*
X91271947Y-67352748D01*
X91273892Y-67342586D01*
X91316689Y-67160626D01*
X91361406Y-66982107D01*
X91364093Y-66972918D01*
X91423572Y-66795457D01*
X91424270Y-66793442D01*
X91485699Y-66621759D01*
X91488996Y-66613497D01*
X91564713Y-66442015D01*
X91566051Y-66439089D01*
X91643727Y-66274855D01*
X91647452Y-66267612D01*
X91738864Y-66103497D01*
X91740745Y-66100243D01*
X91834036Y-65944598D01*
X91838034Y-65938363D01*
X91944270Y-65783278D01*
X91946899Y-65779590D01*
X92054909Y-65633954D01*
X92059011Y-65628728D01*
X92179239Y-65483944D01*
X92182577Y-65480097D01*
X92304340Y-65345752D01*
X92308437Y-65341450D01*
X92441450Y-65208437D01*
X92445752Y-65204340D01*
X92580097Y-65082577D01*
X92583944Y-65079239D01*
X92728728Y-64959011D01*
X92733954Y-64954909D01*
X92879590Y-64846899D01*
X92883278Y-64844270D01*
X93038363Y-64738034D01*
X93044598Y-64734036D01*
X93200243Y-64640745D01*
X93203497Y-64638864D01*
X93367612Y-64547452D01*
X93374855Y-64543727D01*
X93539098Y-64466046D01*
X93542018Y-64464712D01*
X93606007Y-64436458D01*
X93713497Y-64388996D01*
X93721759Y-64385699D01*
X93893442Y-64324270D01*
X93895457Y-64323572D01*
X94072922Y-64264091D01*
X94082118Y-64261403D01*
X94260626Y-64216689D01*
X94442600Y-64173889D01*
X94452734Y-64171949D01*
X94636625Y-64144671D01*
X94819214Y-64119201D01*
X94830196Y-64118167D01*
X95026958Y-64108500D01*
X95188714Y-64101021D01*
X95197146Y-64100632D01*
X95202872Y-64100500D01*
X190197128Y-64100500D01*
X190202855Y-64100632D01*
G37*
%TD.AperFunction*%
%TD*%
M02*
