%TF.GenerationSoftware,KiCad,Pcbnew,7.0.2*%
%TF.CreationDate,2023-10-12T23:50:07+02:00*%
%TF.ProjectId,pulse_generator_endplate_v2,70756c73-655f-4676-956e-657261746f72,rev?*%
%TF.SameCoordinates,Original*%
%TF.FileFunction,Profile,NP*%
%FSLAX46Y46*%
G04 Gerber Fmt 4.6, Leading zero omitted, Abs format (unit mm)*
G04 Created by KiCad (PCBNEW 7.0.2) date 2023-10-12 23:50:07*
%MOMM*%
%LPD*%
G01*
G04 APERTURE LIST*
%TA.AperFunction,Profile*%
%ADD10C,0.200000*%
%TD*%
%TA.AperFunction,Profile*%
%ADD11C,0.150000*%
%TD*%
%TA.AperFunction,Profile*%
%ADD12C,0.100000*%
%TD*%
G04 APERTURE END LIST*
D10*
X194200000Y-113100000D02*
X194200000Y-68100000D01*
X123230000Y-78200000D02*
G75*
G03*
X123230000Y-78200000I-2500000J0D01*
G01*
X91200000Y-113100000D02*
G75*
G03*
X95200000Y-117100000I4000000J0D01*
G01*
D11*
X157350000Y-77300002D02*
X165150000Y-77300002D01*
D10*
X95200000Y-117100000D02*
X190200000Y-117100000D01*
D12*
X110300000Y-87050000D02*
G75*
G03*
X110650000Y-87400000I350000J0D01*
G01*
D10*
X133442706Y-102115005D02*
G75*
G03*
X134178290Y-101733572I-6J900005D01*
G01*
D12*
X110300000Y-83350000D02*
X110300000Y-87050000D01*
D11*
X132350000Y-77300002D02*
X140150000Y-77300002D01*
X157350000Y-77300002D02*
G75*
G03*
X165150000Y-77300002I3900000J-5199998D01*
G01*
D12*
X110650000Y-83000000D02*
G75*
G03*
X110300000Y-83350000I0J-350000D01*
G01*
D10*
X135077901Y-98715000D02*
X135077901Y-100172143D01*
D12*
X114700000Y-87050000D02*
X114700000Y-83350000D01*
D10*
X150199549Y-85400000D02*
G75*
G03*
X150199549Y-85400000I-1470000J0D01*
G01*
X192305500Y-68100000D02*
G75*
G03*
X192305500Y-68100000I-2095500J0D01*
G01*
D11*
X132350000Y-77300002D02*
G75*
G03*
X140150000Y-77300002I3900000J-5199998D01*
G01*
D12*
X179642561Y-79300993D02*
G75*
G03*
X181021282Y-86018008I1378739J-3217007D01*
G01*
D10*
X127877901Y-97815000D02*
X134177901Y-97815000D01*
X97285500Y-68100000D02*
G75*
G03*
X97285500Y-68100000I-2095500J0D01*
G01*
D12*
X114700000Y-83350000D02*
G75*
G03*
X114350000Y-83000000I-350000J0D01*
G01*
X114350000Y-83000000D02*
X110650000Y-83000000D01*
D10*
X97285500Y-113100000D02*
G75*
G03*
X97285500Y-113100000I-2095500J0D01*
G01*
X134913484Y-100690715D02*
X134178290Y-101733572D01*
D12*
X181021282Y-86017986D02*
G75*
G03*
X182400000Y-79301000I18J3499986D01*
G01*
D10*
X123230000Y-85200000D02*
G75*
G03*
X123230000Y-85200000I-2500000J0D01*
G01*
X134913464Y-100690701D02*
G75*
G03*
X135077901Y-100172143I-735564J518601D01*
G01*
X133442706Y-102115000D02*
X131032901Y-102115000D01*
D12*
X182400000Y-79301000D02*
X181021282Y-78018008D01*
D10*
X127877901Y-97815001D02*
G75*
G03*
X126977901Y-98715000I-1J-899999D01*
G01*
X95200000Y-64100000D02*
G75*
G03*
X91200000Y-68100000I0J-4000000D01*
G01*
X190200000Y-64100000D02*
X95200000Y-64100000D01*
D12*
X181021282Y-78018008D02*
X179642564Y-79301000D01*
D10*
X91200000Y-68100000D02*
X91200000Y-113100000D01*
X131032901Y-102115000D02*
X131022901Y-102115000D01*
X126977901Y-100172143D02*
X126977901Y-98715000D01*
X194200000Y-68100000D02*
G75*
G03*
X190200000Y-64100000I-4000000J0D01*
G01*
D12*
X114350000Y-87400000D02*
G75*
G03*
X114700000Y-87050000I0J350000D01*
G01*
D10*
X131022901Y-102115000D02*
X128613095Y-102115000D01*
X190200000Y-117100000D02*
G75*
G03*
X194200000Y-113100000I0J4000000D01*
G01*
X135077900Y-98715000D02*
G75*
G03*
X134177901Y-97815000I-900000J0D01*
G01*
X126977876Y-100172143D02*
G75*
G03*
X127142317Y-100690715I900024J43D01*
G01*
D12*
X110650000Y-87400000D02*
X114350000Y-87400000D01*
D10*
X127877515Y-101733570D02*
G75*
G03*
X128613095Y-102115000I735585J518570D01*
G01*
X127877512Y-101733572D02*
X127142317Y-100690715D01*
X192305500Y-113100000D02*
G75*
G03*
X192305500Y-113100000I-2095500J0D01*
G01*
M02*
