%TF.GenerationSoftware,KiCad,Pcbnew,7.0.2*%
%TF.CreationDate,2023-10-12T23:05:12+02:00*%
%TF.ProjectId,pulse_generator_endplate_v2,70756c73-655f-4676-956e-657261746f72,rev?*%
%TF.SameCoordinates,Original*%
%TF.FileFunction,Legend,Bot*%
%TF.FilePolarity,Positive*%
%FSLAX46Y46*%
G04 Gerber Fmt 4.6, Leading zero omitted, Abs format (unit mm)*
G04 Created by KiCad (PCBNEW 7.0.2) date 2023-10-12 23:05:12*
%MOMM*%
%LPD*%
G01*
G04 APERTURE LIST*
%ADD10C,0.150000*%
%ADD11C,0.120000*%
G04 APERTURE END LIST*
D10*
X182261904Y-91153809D02*
X181928571Y-91153809D01*
X181785714Y-91677619D02*
X182261904Y-91677619D01*
X182261904Y-91677619D02*
X182261904Y-90677619D01*
X182261904Y-90677619D02*
X181785714Y-90677619D01*
X181357142Y-91010952D02*
X181357142Y-91677619D01*
X181357142Y-91106190D02*
X181309523Y-91058571D01*
X181309523Y-91058571D02*
X181214285Y-91010952D01*
X181214285Y-91010952D02*
X181071428Y-91010952D01*
X181071428Y-91010952D02*
X180976190Y-91058571D01*
X180976190Y-91058571D02*
X180928571Y-91153809D01*
X180928571Y-91153809D02*
X180928571Y-91677619D01*
X180023809Y-91677619D02*
X180023809Y-90677619D01*
X180023809Y-91630000D02*
X180119047Y-91677619D01*
X180119047Y-91677619D02*
X180309523Y-91677619D01*
X180309523Y-91677619D02*
X180404761Y-91630000D01*
X180404761Y-91630000D02*
X180452380Y-91582380D01*
X180452380Y-91582380D02*
X180499999Y-91487142D01*
X180499999Y-91487142D02*
X180499999Y-91201428D01*
X180499999Y-91201428D02*
X180452380Y-91106190D01*
X180452380Y-91106190D02*
X180404761Y-91058571D01*
X180404761Y-91058571D02*
X180309523Y-91010952D01*
X180309523Y-91010952D02*
X180119047Y-91010952D01*
X180119047Y-91010952D02*
X180023809Y-91058571D01*
X179547618Y-91010952D02*
X179547618Y-92010952D01*
X179547618Y-91058571D02*
X179452380Y-91010952D01*
X179452380Y-91010952D02*
X179261904Y-91010952D01*
X179261904Y-91010952D02*
X179166666Y-91058571D01*
X179166666Y-91058571D02*
X179119047Y-91106190D01*
X179119047Y-91106190D02*
X179071428Y-91201428D01*
X179071428Y-91201428D02*
X179071428Y-91487142D01*
X179071428Y-91487142D02*
X179119047Y-91582380D01*
X179119047Y-91582380D02*
X179166666Y-91630000D01*
X179166666Y-91630000D02*
X179261904Y-91677619D01*
X179261904Y-91677619D02*
X179452380Y-91677619D01*
X179452380Y-91677619D02*
X179547618Y-91630000D01*
X178499999Y-91677619D02*
X178595237Y-91630000D01*
X178595237Y-91630000D02*
X178642856Y-91534761D01*
X178642856Y-91534761D02*
X178642856Y-90677619D01*
X177690475Y-91677619D02*
X177690475Y-91153809D01*
X177690475Y-91153809D02*
X177738094Y-91058571D01*
X177738094Y-91058571D02*
X177833332Y-91010952D01*
X177833332Y-91010952D02*
X178023808Y-91010952D01*
X178023808Y-91010952D02*
X178119046Y-91058571D01*
X177690475Y-91630000D02*
X177785713Y-91677619D01*
X177785713Y-91677619D02*
X178023808Y-91677619D01*
X178023808Y-91677619D02*
X178119046Y-91630000D01*
X178119046Y-91630000D02*
X178166665Y-91534761D01*
X178166665Y-91534761D02*
X178166665Y-91439523D01*
X178166665Y-91439523D02*
X178119046Y-91344285D01*
X178119046Y-91344285D02*
X178023808Y-91296666D01*
X178023808Y-91296666D02*
X177785713Y-91296666D01*
X177785713Y-91296666D02*
X177690475Y-91249047D01*
X177357141Y-91010952D02*
X176976189Y-91010952D01*
X177214284Y-90677619D02*
X177214284Y-91534761D01*
X177214284Y-91534761D02*
X177166665Y-91630000D01*
X177166665Y-91630000D02*
X177071427Y-91677619D01*
X177071427Y-91677619D02*
X176976189Y-91677619D01*
X176261903Y-91630000D02*
X176357141Y-91677619D01*
X176357141Y-91677619D02*
X176547617Y-91677619D01*
X176547617Y-91677619D02*
X176642855Y-91630000D01*
X176642855Y-91630000D02*
X176690474Y-91534761D01*
X176690474Y-91534761D02*
X176690474Y-91153809D01*
X176690474Y-91153809D02*
X176642855Y-91058571D01*
X176642855Y-91058571D02*
X176547617Y-91010952D01*
X176547617Y-91010952D02*
X176357141Y-91010952D01*
X176357141Y-91010952D02*
X176261903Y-91058571D01*
X176261903Y-91058571D02*
X176214284Y-91153809D01*
X176214284Y-91153809D02*
X176214284Y-91249047D01*
X176214284Y-91249047D02*
X176690474Y-91344285D01*
X175119045Y-91010952D02*
X174880950Y-91677619D01*
X174880950Y-91677619D02*
X174642855Y-91010952D01*
X173880950Y-91630000D02*
X173976188Y-91677619D01*
X173976188Y-91677619D02*
X174166664Y-91677619D01*
X174166664Y-91677619D02*
X174261902Y-91630000D01*
X174261902Y-91630000D02*
X174309521Y-91534761D01*
X174309521Y-91534761D02*
X174309521Y-91153809D01*
X174309521Y-91153809D02*
X174261902Y-91058571D01*
X174261902Y-91058571D02*
X174166664Y-91010952D01*
X174166664Y-91010952D02*
X173976188Y-91010952D01*
X173976188Y-91010952D02*
X173880950Y-91058571D01*
X173880950Y-91058571D02*
X173833331Y-91153809D01*
X173833331Y-91153809D02*
X173833331Y-91249047D01*
X173833331Y-91249047D02*
X174309521Y-91344285D01*
X173404759Y-91677619D02*
X173404759Y-91010952D01*
X173404759Y-91201428D02*
X173357140Y-91106190D01*
X173357140Y-91106190D02*
X173309521Y-91058571D01*
X173309521Y-91058571D02*
X173214283Y-91010952D01*
X173214283Y-91010952D02*
X173119045Y-91010952D01*
X172833330Y-91630000D02*
X172738092Y-91677619D01*
X172738092Y-91677619D02*
X172547616Y-91677619D01*
X172547616Y-91677619D02*
X172452378Y-91630000D01*
X172452378Y-91630000D02*
X172404759Y-91534761D01*
X172404759Y-91534761D02*
X172404759Y-91487142D01*
X172404759Y-91487142D02*
X172452378Y-91391904D01*
X172452378Y-91391904D02*
X172547616Y-91344285D01*
X172547616Y-91344285D02*
X172690473Y-91344285D01*
X172690473Y-91344285D02*
X172785711Y-91296666D01*
X172785711Y-91296666D02*
X172833330Y-91201428D01*
X172833330Y-91201428D02*
X172833330Y-91153809D01*
X172833330Y-91153809D02*
X172785711Y-91058571D01*
X172785711Y-91058571D02*
X172690473Y-91010952D01*
X172690473Y-91010952D02*
X172547616Y-91010952D01*
X172547616Y-91010952D02*
X172452378Y-91058571D01*
X171976187Y-91677619D02*
X171976187Y-91010952D01*
X171976187Y-90677619D02*
X172023806Y-90725238D01*
X172023806Y-90725238D02*
X171976187Y-90772857D01*
X171976187Y-90772857D02*
X171928568Y-90725238D01*
X171928568Y-90725238D02*
X171976187Y-90677619D01*
X171976187Y-90677619D02*
X171976187Y-90772857D01*
X171357140Y-91677619D02*
X171452378Y-91630000D01*
X171452378Y-91630000D02*
X171499997Y-91582380D01*
X171499997Y-91582380D02*
X171547616Y-91487142D01*
X171547616Y-91487142D02*
X171547616Y-91201428D01*
X171547616Y-91201428D02*
X171499997Y-91106190D01*
X171499997Y-91106190D02*
X171452378Y-91058571D01*
X171452378Y-91058571D02*
X171357140Y-91010952D01*
X171357140Y-91010952D02*
X171214283Y-91010952D01*
X171214283Y-91010952D02*
X171119045Y-91058571D01*
X171119045Y-91058571D02*
X171071426Y-91106190D01*
X171071426Y-91106190D02*
X171023807Y-91201428D01*
X171023807Y-91201428D02*
X171023807Y-91487142D01*
X171023807Y-91487142D02*
X171071426Y-91582380D01*
X171071426Y-91582380D02*
X171119045Y-91630000D01*
X171119045Y-91630000D02*
X171214283Y-91677619D01*
X171214283Y-91677619D02*
X171357140Y-91677619D01*
X170595235Y-91010952D02*
X170595235Y-91677619D01*
X170595235Y-91106190D02*
X170547616Y-91058571D01*
X170547616Y-91058571D02*
X170452378Y-91010952D01*
X170452378Y-91010952D02*
X170309521Y-91010952D01*
X170309521Y-91010952D02*
X170214283Y-91058571D01*
X170214283Y-91058571D02*
X170166664Y-91153809D01*
X170166664Y-91153809D02*
X170166664Y-91677619D01*
X168976187Y-90772857D02*
X168928568Y-90725238D01*
X168928568Y-90725238D02*
X168833330Y-90677619D01*
X168833330Y-90677619D02*
X168595235Y-90677619D01*
X168595235Y-90677619D02*
X168499997Y-90725238D01*
X168499997Y-90725238D02*
X168452378Y-90772857D01*
X168452378Y-90772857D02*
X168404759Y-90868095D01*
X168404759Y-90868095D02*
X168404759Y-90963333D01*
X168404759Y-90963333D02*
X168452378Y-91106190D01*
X168452378Y-91106190D02*
X169023806Y-91677619D01*
X169023806Y-91677619D02*
X168404759Y-91677619D01*
X182261904Y-94917619D02*
X182261904Y-93917619D01*
X182261904Y-93917619D02*
X182023809Y-93917619D01*
X182023809Y-93917619D02*
X181880952Y-93965238D01*
X181880952Y-93965238D02*
X181785714Y-94060476D01*
X181785714Y-94060476D02*
X181738095Y-94155714D01*
X181738095Y-94155714D02*
X181690476Y-94346190D01*
X181690476Y-94346190D02*
X181690476Y-94489047D01*
X181690476Y-94489047D02*
X181738095Y-94679523D01*
X181738095Y-94679523D02*
X181785714Y-94774761D01*
X181785714Y-94774761D02*
X181880952Y-94870000D01*
X181880952Y-94870000D02*
X182023809Y-94917619D01*
X182023809Y-94917619D02*
X182261904Y-94917619D01*
X180880952Y-94870000D02*
X180976190Y-94917619D01*
X180976190Y-94917619D02*
X181166666Y-94917619D01*
X181166666Y-94917619D02*
X181261904Y-94870000D01*
X181261904Y-94870000D02*
X181309523Y-94774761D01*
X181309523Y-94774761D02*
X181309523Y-94393809D01*
X181309523Y-94393809D02*
X181261904Y-94298571D01*
X181261904Y-94298571D02*
X181166666Y-94250952D01*
X181166666Y-94250952D02*
X180976190Y-94250952D01*
X180976190Y-94250952D02*
X180880952Y-94298571D01*
X180880952Y-94298571D02*
X180833333Y-94393809D01*
X180833333Y-94393809D02*
X180833333Y-94489047D01*
X180833333Y-94489047D02*
X181309523Y-94584285D01*
X180452380Y-94870000D02*
X180357142Y-94917619D01*
X180357142Y-94917619D02*
X180166666Y-94917619D01*
X180166666Y-94917619D02*
X180071428Y-94870000D01*
X180071428Y-94870000D02*
X180023809Y-94774761D01*
X180023809Y-94774761D02*
X180023809Y-94727142D01*
X180023809Y-94727142D02*
X180071428Y-94631904D01*
X180071428Y-94631904D02*
X180166666Y-94584285D01*
X180166666Y-94584285D02*
X180309523Y-94584285D01*
X180309523Y-94584285D02*
X180404761Y-94536666D01*
X180404761Y-94536666D02*
X180452380Y-94441428D01*
X180452380Y-94441428D02*
X180452380Y-94393809D01*
X180452380Y-94393809D02*
X180404761Y-94298571D01*
X180404761Y-94298571D02*
X180309523Y-94250952D01*
X180309523Y-94250952D02*
X180166666Y-94250952D01*
X180166666Y-94250952D02*
X180071428Y-94298571D01*
X179595237Y-94917619D02*
X179595237Y-94250952D01*
X179595237Y-93917619D02*
X179642856Y-93965238D01*
X179642856Y-93965238D02*
X179595237Y-94012857D01*
X179595237Y-94012857D02*
X179547618Y-93965238D01*
X179547618Y-93965238D02*
X179595237Y-93917619D01*
X179595237Y-93917619D02*
X179595237Y-94012857D01*
X178690476Y-94250952D02*
X178690476Y-95060476D01*
X178690476Y-95060476D02*
X178738095Y-95155714D01*
X178738095Y-95155714D02*
X178785714Y-95203333D01*
X178785714Y-95203333D02*
X178880952Y-95250952D01*
X178880952Y-95250952D02*
X179023809Y-95250952D01*
X179023809Y-95250952D02*
X179119047Y-95203333D01*
X178690476Y-94870000D02*
X178785714Y-94917619D01*
X178785714Y-94917619D02*
X178976190Y-94917619D01*
X178976190Y-94917619D02*
X179071428Y-94870000D01*
X179071428Y-94870000D02*
X179119047Y-94822380D01*
X179119047Y-94822380D02*
X179166666Y-94727142D01*
X179166666Y-94727142D02*
X179166666Y-94441428D01*
X179166666Y-94441428D02*
X179119047Y-94346190D01*
X179119047Y-94346190D02*
X179071428Y-94298571D01*
X179071428Y-94298571D02*
X178976190Y-94250952D01*
X178976190Y-94250952D02*
X178785714Y-94250952D01*
X178785714Y-94250952D02*
X178690476Y-94298571D01*
X178214285Y-94250952D02*
X178214285Y-94917619D01*
X178214285Y-94346190D02*
X178166666Y-94298571D01*
X178166666Y-94298571D02*
X178071428Y-94250952D01*
X178071428Y-94250952D02*
X177928571Y-94250952D01*
X177928571Y-94250952D02*
X177833333Y-94298571D01*
X177833333Y-94298571D02*
X177785714Y-94393809D01*
X177785714Y-94393809D02*
X177785714Y-94917619D01*
X176928571Y-94870000D02*
X177023809Y-94917619D01*
X177023809Y-94917619D02*
X177214285Y-94917619D01*
X177214285Y-94917619D02*
X177309523Y-94870000D01*
X177309523Y-94870000D02*
X177357142Y-94774761D01*
X177357142Y-94774761D02*
X177357142Y-94393809D01*
X177357142Y-94393809D02*
X177309523Y-94298571D01*
X177309523Y-94298571D02*
X177214285Y-94250952D01*
X177214285Y-94250952D02*
X177023809Y-94250952D01*
X177023809Y-94250952D02*
X176928571Y-94298571D01*
X176928571Y-94298571D02*
X176880952Y-94393809D01*
X176880952Y-94393809D02*
X176880952Y-94489047D01*
X176880952Y-94489047D02*
X177357142Y-94584285D01*
X176023809Y-94917619D02*
X176023809Y-93917619D01*
X176023809Y-94870000D02*
X176119047Y-94917619D01*
X176119047Y-94917619D02*
X176309523Y-94917619D01*
X176309523Y-94917619D02*
X176404761Y-94870000D01*
X176404761Y-94870000D02*
X176452380Y-94822380D01*
X176452380Y-94822380D02*
X176499999Y-94727142D01*
X176499999Y-94727142D02*
X176499999Y-94441428D01*
X176499999Y-94441428D02*
X176452380Y-94346190D01*
X176452380Y-94346190D02*
X176404761Y-94298571D01*
X176404761Y-94298571D02*
X176309523Y-94250952D01*
X176309523Y-94250952D02*
X176119047Y-94250952D01*
X176119047Y-94250952D02*
X176023809Y-94298571D01*
X174928570Y-94250952D02*
X174547618Y-94250952D01*
X174785713Y-94917619D02*
X174785713Y-94060476D01*
X174785713Y-94060476D02*
X174738094Y-93965238D01*
X174738094Y-93965238D02*
X174642856Y-93917619D01*
X174642856Y-93917619D02*
X174547618Y-93917619D01*
X174071427Y-94917619D02*
X174166665Y-94870000D01*
X174166665Y-94870000D02*
X174214284Y-94822380D01*
X174214284Y-94822380D02*
X174261903Y-94727142D01*
X174261903Y-94727142D02*
X174261903Y-94441428D01*
X174261903Y-94441428D02*
X174214284Y-94346190D01*
X174214284Y-94346190D02*
X174166665Y-94298571D01*
X174166665Y-94298571D02*
X174071427Y-94250952D01*
X174071427Y-94250952D02*
X173928570Y-94250952D01*
X173928570Y-94250952D02*
X173833332Y-94298571D01*
X173833332Y-94298571D02*
X173785713Y-94346190D01*
X173785713Y-94346190D02*
X173738094Y-94441428D01*
X173738094Y-94441428D02*
X173738094Y-94727142D01*
X173738094Y-94727142D02*
X173785713Y-94822380D01*
X173785713Y-94822380D02*
X173833332Y-94870000D01*
X173833332Y-94870000D02*
X173928570Y-94917619D01*
X173928570Y-94917619D02*
X174071427Y-94917619D01*
X173309522Y-94917619D02*
X173309522Y-94250952D01*
X173309522Y-94441428D02*
X173261903Y-94346190D01*
X173261903Y-94346190D02*
X173214284Y-94298571D01*
X173214284Y-94298571D02*
X173119046Y-94250952D01*
X173119046Y-94250952D02*
X173023808Y-94250952D01*
X171404760Y-94917619D02*
X171976188Y-94917619D01*
X171690474Y-94917619D02*
X171690474Y-93917619D01*
X171690474Y-93917619D02*
X171785712Y-94060476D01*
X171785712Y-94060476D02*
X171880950Y-94155714D01*
X171880950Y-94155714D02*
X171976188Y-94203333D01*
X170452379Y-94917619D02*
X171023807Y-94917619D01*
X170738093Y-94917619D02*
X170738093Y-93917619D01*
X170738093Y-93917619D02*
X170833331Y-94060476D01*
X170833331Y-94060476D02*
X170928569Y-94155714D01*
X170928569Y-94155714D02*
X171023807Y-94203333D01*
X170023807Y-94917619D02*
X170023807Y-94250952D01*
X170023807Y-94346190D02*
X169976188Y-94298571D01*
X169976188Y-94298571D02*
X169880950Y-94250952D01*
X169880950Y-94250952D02*
X169738093Y-94250952D01*
X169738093Y-94250952D02*
X169642855Y-94298571D01*
X169642855Y-94298571D02*
X169595236Y-94393809D01*
X169595236Y-94393809D02*
X169595236Y-94917619D01*
X169595236Y-94393809D02*
X169547617Y-94298571D01*
X169547617Y-94298571D02*
X169452379Y-94250952D01*
X169452379Y-94250952D02*
X169309522Y-94250952D01*
X169309522Y-94250952D02*
X169214283Y-94298571D01*
X169214283Y-94298571D02*
X169166664Y-94393809D01*
X169166664Y-94393809D02*
X169166664Y-94917619D01*
X168690474Y-94917619D02*
X168690474Y-94250952D01*
X168690474Y-94346190D02*
X168642855Y-94298571D01*
X168642855Y-94298571D02*
X168547617Y-94250952D01*
X168547617Y-94250952D02*
X168404760Y-94250952D01*
X168404760Y-94250952D02*
X168309522Y-94298571D01*
X168309522Y-94298571D02*
X168261903Y-94393809D01*
X168261903Y-94393809D02*
X168261903Y-94917619D01*
X168261903Y-94393809D02*
X168214284Y-94298571D01*
X168214284Y-94298571D02*
X168119046Y-94250952D01*
X168119046Y-94250952D02*
X167976189Y-94250952D01*
X167976189Y-94250952D02*
X167880950Y-94298571D01*
X167880950Y-94298571D02*
X167833331Y-94393809D01*
X167833331Y-94393809D02*
X167833331Y-94917619D01*
X166642855Y-94870000D02*
X166547617Y-94917619D01*
X166547617Y-94917619D02*
X166357141Y-94917619D01*
X166357141Y-94917619D02*
X166261903Y-94870000D01*
X166261903Y-94870000D02*
X166214284Y-94774761D01*
X166214284Y-94774761D02*
X166214284Y-94727142D01*
X166214284Y-94727142D02*
X166261903Y-94631904D01*
X166261903Y-94631904D02*
X166357141Y-94584285D01*
X166357141Y-94584285D02*
X166499998Y-94584285D01*
X166499998Y-94584285D02*
X166595236Y-94536666D01*
X166595236Y-94536666D02*
X166642855Y-94441428D01*
X166642855Y-94441428D02*
X166642855Y-94393809D01*
X166642855Y-94393809D02*
X166595236Y-94298571D01*
X166595236Y-94298571D02*
X166499998Y-94250952D01*
X166499998Y-94250952D02*
X166357141Y-94250952D01*
X166357141Y-94250952D02*
X166261903Y-94298571D01*
X165928569Y-94250952D02*
X165547617Y-94250952D01*
X165785712Y-93917619D02*
X165785712Y-94774761D01*
X165785712Y-94774761D02*
X165738093Y-94870000D01*
X165738093Y-94870000D02*
X165642855Y-94917619D01*
X165642855Y-94917619D02*
X165547617Y-94917619D01*
X164785712Y-94917619D02*
X164785712Y-94393809D01*
X164785712Y-94393809D02*
X164833331Y-94298571D01*
X164833331Y-94298571D02*
X164928569Y-94250952D01*
X164928569Y-94250952D02*
X165119045Y-94250952D01*
X165119045Y-94250952D02*
X165214283Y-94298571D01*
X164785712Y-94870000D02*
X164880950Y-94917619D01*
X164880950Y-94917619D02*
X165119045Y-94917619D01*
X165119045Y-94917619D02*
X165214283Y-94870000D01*
X165214283Y-94870000D02*
X165261902Y-94774761D01*
X165261902Y-94774761D02*
X165261902Y-94679523D01*
X165261902Y-94679523D02*
X165214283Y-94584285D01*
X165214283Y-94584285D02*
X165119045Y-94536666D01*
X165119045Y-94536666D02*
X164880950Y-94536666D01*
X164880950Y-94536666D02*
X164785712Y-94489047D01*
X164309521Y-94250952D02*
X164309521Y-94917619D01*
X164309521Y-94346190D02*
X164261902Y-94298571D01*
X164261902Y-94298571D02*
X164166664Y-94250952D01*
X164166664Y-94250952D02*
X164023807Y-94250952D01*
X164023807Y-94250952D02*
X163928569Y-94298571D01*
X163928569Y-94298571D02*
X163880950Y-94393809D01*
X163880950Y-94393809D02*
X163880950Y-94917619D01*
X162976188Y-94917619D02*
X162976188Y-93917619D01*
X162976188Y-94870000D02*
X163071426Y-94917619D01*
X163071426Y-94917619D02*
X163261902Y-94917619D01*
X163261902Y-94917619D02*
X163357140Y-94870000D01*
X163357140Y-94870000D02*
X163404759Y-94822380D01*
X163404759Y-94822380D02*
X163452378Y-94727142D01*
X163452378Y-94727142D02*
X163452378Y-94441428D01*
X163452378Y-94441428D02*
X163404759Y-94346190D01*
X163404759Y-94346190D02*
X163357140Y-94298571D01*
X163357140Y-94298571D02*
X163261902Y-94250952D01*
X163261902Y-94250952D02*
X163071426Y-94250952D01*
X163071426Y-94250952D02*
X162976188Y-94298571D01*
X162357140Y-94917619D02*
X162452378Y-94870000D01*
X162452378Y-94870000D02*
X162499997Y-94822380D01*
X162499997Y-94822380D02*
X162547616Y-94727142D01*
X162547616Y-94727142D02*
X162547616Y-94441428D01*
X162547616Y-94441428D02*
X162499997Y-94346190D01*
X162499997Y-94346190D02*
X162452378Y-94298571D01*
X162452378Y-94298571D02*
X162357140Y-94250952D01*
X162357140Y-94250952D02*
X162214283Y-94250952D01*
X162214283Y-94250952D02*
X162119045Y-94298571D01*
X162119045Y-94298571D02*
X162071426Y-94346190D01*
X162071426Y-94346190D02*
X162023807Y-94441428D01*
X162023807Y-94441428D02*
X162023807Y-94727142D01*
X162023807Y-94727142D02*
X162071426Y-94822380D01*
X162071426Y-94822380D02*
X162119045Y-94870000D01*
X162119045Y-94870000D02*
X162214283Y-94917619D01*
X162214283Y-94917619D02*
X162357140Y-94917619D01*
X161738092Y-94250952D02*
X161357140Y-94250952D01*
X161595235Y-94917619D02*
X161595235Y-94060476D01*
X161595235Y-94060476D02*
X161547616Y-93965238D01*
X161547616Y-93965238D02*
X161452378Y-93917619D01*
X161452378Y-93917619D02*
X161357140Y-93917619D01*
X161166663Y-94250952D02*
X160785711Y-94250952D01*
X161023806Y-94917619D02*
X161023806Y-94060476D01*
X161023806Y-94060476D02*
X160976187Y-93965238D01*
X160976187Y-93965238D02*
X160880949Y-93917619D01*
X160880949Y-93917619D02*
X160785711Y-93917619D01*
X160499996Y-94870000D02*
X160404758Y-94917619D01*
X160404758Y-94917619D02*
X160214282Y-94917619D01*
X160214282Y-94917619D02*
X160119044Y-94870000D01*
X160119044Y-94870000D02*
X160071425Y-94774761D01*
X160071425Y-94774761D02*
X160071425Y-94727142D01*
X160071425Y-94727142D02*
X160119044Y-94631904D01*
X160119044Y-94631904D02*
X160214282Y-94584285D01*
X160214282Y-94584285D02*
X160357139Y-94584285D01*
X160357139Y-94584285D02*
X160452377Y-94536666D01*
X160452377Y-94536666D02*
X160499996Y-94441428D01*
X160499996Y-94441428D02*
X160499996Y-94393809D01*
X160499996Y-94393809D02*
X160452377Y-94298571D01*
X160452377Y-94298571D02*
X160357139Y-94250952D01*
X160357139Y-94250952D02*
X160214282Y-94250952D01*
X160214282Y-94250952D02*
X160119044Y-94298571D01*
X158880948Y-94917619D02*
X158880948Y-93917619D01*
X158880948Y-94298571D02*
X158785710Y-94250952D01*
X158785710Y-94250952D02*
X158595234Y-94250952D01*
X158595234Y-94250952D02*
X158499996Y-94298571D01*
X158499996Y-94298571D02*
X158452377Y-94346190D01*
X158452377Y-94346190D02*
X158404758Y-94441428D01*
X158404758Y-94441428D02*
X158404758Y-94727142D01*
X158404758Y-94727142D02*
X158452377Y-94822380D01*
X158452377Y-94822380D02*
X158499996Y-94870000D01*
X158499996Y-94870000D02*
X158595234Y-94917619D01*
X158595234Y-94917619D02*
X158785710Y-94917619D01*
X158785710Y-94917619D02*
X158880948Y-94870000D01*
X157595234Y-94870000D02*
X157690472Y-94917619D01*
X157690472Y-94917619D02*
X157880948Y-94917619D01*
X157880948Y-94917619D02*
X157976186Y-94870000D01*
X157976186Y-94870000D02*
X158023805Y-94774761D01*
X158023805Y-94774761D02*
X158023805Y-94393809D01*
X158023805Y-94393809D02*
X157976186Y-94298571D01*
X157976186Y-94298571D02*
X157880948Y-94250952D01*
X157880948Y-94250952D02*
X157690472Y-94250952D01*
X157690472Y-94250952D02*
X157595234Y-94298571D01*
X157595234Y-94298571D02*
X157547615Y-94393809D01*
X157547615Y-94393809D02*
X157547615Y-94489047D01*
X157547615Y-94489047D02*
X158023805Y-94584285D01*
X157261900Y-94250952D02*
X156880948Y-94250952D01*
X157119043Y-93917619D02*
X157119043Y-94774761D01*
X157119043Y-94774761D02*
X157071424Y-94870000D01*
X157071424Y-94870000D02*
X156976186Y-94917619D01*
X156976186Y-94917619D02*
X156880948Y-94917619D01*
X156642852Y-94250952D02*
X156452376Y-94917619D01*
X156452376Y-94917619D02*
X156261900Y-94441428D01*
X156261900Y-94441428D02*
X156071424Y-94917619D01*
X156071424Y-94917619D02*
X155880948Y-94250952D01*
X155119043Y-94870000D02*
X155214281Y-94917619D01*
X155214281Y-94917619D02*
X155404757Y-94917619D01*
X155404757Y-94917619D02*
X155499995Y-94870000D01*
X155499995Y-94870000D02*
X155547614Y-94774761D01*
X155547614Y-94774761D02*
X155547614Y-94393809D01*
X155547614Y-94393809D02*
X155499995Y-94298571D01*
X155499995Y-94298571D02*
X155404757Y-94250952D01*
X155404757Y-94250952D02*
X155214281Y-94250952D01*
X155214281Y-94250952D02*
X155119043Y-94298571D01*
X155119043Y-94298571D02*
X155071424Y-94393809D01*
X155071424Y-94393809D02*
X155071424Y-94489047D01*
X155071424Y-94489047D02*
X155547614Y-94584285D01*
X154261900Y-94870000D02*
X154357138Y-94917619D01*
X154357138Y-94917619D02*
X154547614Y-94917619D01*
X154547614Y-94917619D02*
X154642852Y-94870000D01*
X154642852Y-94870000D02*
X154690471Y-94774761D01*
X154690471Y-94774761D02*
X154690471Y-94393809D01*
X154690471Y-94393809D02*
X154642852Y-94298571D01*
X154642852Y-94298571D02*
X154547614Y-94250952D01*
X154547614Y-94250952D02*
X154357138Y-94250952D01*
X154357138Y-94250952D02*
X154261900Y-94298571D01*
X154261900Y-94298571D02*
X154214281Y-94393809D01*
X154214281Y-94393809D02*
X154214281Y-94489047D01*
X154214281Y-94489047D02*
X154690471Y-94584285D01*
X153785709Y-94250952D02*
X153785709Y-94917619D01*
X153785709Y-94346190D02*
X153738090Y-94298571D01*
X153738090Y-94298571D02*
X153642852Y-94250952D01*
X153642852Y-94250952D02*
X153499995Y-94250952D01*
X153499995Y-94250952D02*
X153404757Y-94298571D01*
X153404757Y-94298571D02*
X153357138Y-94393809D01*
X153357138Y-94393809D02*
X153357138Y-94917619D01*
X152261899Y-94250952D02*
X151880947Y-94250952D01*
X152119042Y-93917619D02*
X152119042Y-94774761D01*
X152119042Y-94774761D02*
X152071423Y-94870000D01*
X152071423Y-94870000D02*
X151976185Y-94917619D01*
X151976185Y-94917619D02*
X151880947Y-94917619D01*
X151547613Y-94917619D02*
X151547613Y-93917619D01*
X151119042Y-94917619D02*
X151119042Y-94393809D01*
X151119042Y-94393809D02*
X151166661Y-94298571D01*
X151166661Y-94298571D02*
X151261899Y-94250952D01*
X151261899Y-94250952D02*
X151404756Y-94250952D01*
X151404756Y-94250952D02*
X151499994Y-94298571D01*
X151499994Y-94298571D02*
X151547613Y-94346190D01*
X150261899Y-94870000D02*
X150357137Y-94917619D01*
X150357137Y-94917619D02*
X150547613Y-94917619D01*
X150547613Y-94917619D02*
X150642851Y-94870000D01*
X150642851Y-94870000D02*
X150690470Y-94774761D01*
X150690470Y-94774761D02*
X150690470Y-94393809D01*
X150690470Y-94393809D02*
X150642851Y-94298571D01*
X150642851Y-94298571D02*
X150547613Y-94250952D01*
X150547613Y-94250952D02*
X150357137Y-94250952D01*
X150357137Y-94250952D02*
X150261899Y-94298571D01*
X150261899Y-94298571D02*
X150214280Y-94393809D01*
X150214280Y-94393809D02*
X150214280Y-94489047D01*
X150214280Y-94489047D02*
X150690470Y-94584285D01*
X149023803Y-94250952D02*
X149023803Y-94917619D01*
X149023803Y-94346190D02*
X148976184Y-94298571D01*
X148976184Y-94298571D02*
X148880946Y-94250952D01*
X148880946Y-94250952D02*
X148738089Y-94250952D01*
X148738089Y-94250952D02*
X148642851Y-94298571D01*
X148642851Y-94298571D02*
X148595232Y-94393809D01*
X148595232Y-94393809D02*
X148595232Y-94917619D01*
X147690470Y-94250952D02*
X147690470Y-94917619D01*
X148119041Y-94250952D02*
X148119041Y-94774761D01*
X148119041Y-94774761D02*
X148071422Y-94870000D01*
X148071422Y-94870000D02*
X147976184Y-94917619D01*
X147976184Y-94917619D02*
X147833327Y-94917619D01*
X147833327Y-94917619D02*
X147738089Y-94870000D01*
X147738089Y-94870000D02*
X147690470Y-94822380D01*
X146785708Y-94870000D02*
X146880946Y-94917619D01*
X146880946Y-94917619D02*
X147071422Y-94917619D01*
X147071422Y-94917619D02*
X147166660Y-94870000D01*
X147166660Y-94870000D02*
X147214279Y-94822380D01*
X147214279Y-94822380D02*
X147261898Y-94727142D01*
X147261898Y-94727142D02*
X147261898Y-94441428D01*
X147261898Y-94441428D02*
X147214279Y-94346190D01*
X147214279Y-94346190D02*
X147166660Y-94298571D01*
X147166660Y-94298571D02*
X147071422Y-94250952D01*
X147071422Y-94250952D02*
X146880946Y-94250952D01*
X146880946Y-94250952D02*
X146785708Y-94298571D01*
X146214279Y-94917619D02*
X146309517Y-94870000D01*
X146309517Y-94870000D02*
X146357136Y-94774761D01*
X146357136Y-94774761D02*
X146357136Y-93917619D01*
X145452374Y-94870000D02*
X145547612Y-94917619D01*
X145547612Y-94917619D02*
X145738088Y-94917619D01*
X145738088Y-94917619D02*
X145833326Y-94870000D01*
X145833326Y-94870000D02*
X145880945Y-94774761D01*
X145880945Y-94774761D02*
X145880945Y-94393809D01*
X145880945Y-94393809D02*
X145833326Y-94298571D01*
X145833326Y-94298571D02*
X145738088Y-94250952D01*
X145738088Y-94250952D02*
X145547612Y-94250952D01*
X145547612Y-94250952D02*
X145452374Y-94298571D01*
X145452374Y-94298571D02*
X145404755Y-94393809D01*
X145404755Y-94393809D02*
X145404755Y-94489047D01*
X145404755Y-94489047D02*
X145880945Y-94584285D01*
X144833326Y-94917619D02*
X144928564Y-94870000D01*
X144928564Y-94870000D02*
X144976183Y-94822380D01*
X144976183Y-94822380D02*
X145023802Y-94727142D01*
X145023802Y-94727142D02*
X145023802Y-94441428D01*
X145023802Y-94441428D02*
X144976183Y-94346190D01*
X144976183Y-94346190D02*
X144928564Y-94298571D01*
X144928564Y-94298571D02*
X144833326Y-94250952D01*
X144833326Y-94250952D02*
X144690469Y-94250952D01*
X144690469Y-94250952D02*
X144595231Y-94298571D01*
X144595231Y-94298571D02*
X144547612Y-94346190D01*
X144547612Y-94346190D02*
X144499993Y-94441428D01*
X144499993Y-94441428D02*
X144499993Y-94727142D01*
X144499993Y-94727142D02*
X144547612Y-94822380D01*
X144547612Y-94822380D02*
X144595231Y-94870000D01*
X144595231Y-94870000D02*
X144690469Y-94917619D01*
X144690469Y-94917619D02*
X144833326Y-94917619D01*
X181833333Y-96537619D02*
X181833333Y-96013809D01*
X181833333Y-96013809D02*
X181880952Y-95918571D01*
X181880952Y-95918571D02*
X181976190Y-95870952D01*
X181976190Y-95870952D02*
X182166666Y-95870952D01*
X182166666Y-95870952D02*
X182261904Y-95918571D01*
X181833333Y-96490000D02*
X181928571Y-96537619D01*
X181928571Y-96537619D02*
X182166666Y-96537619D01*
X182166666Y-96537619D02*
X182261904Y-96490000D01*
X182261904Y-96490000D02*
X182309523Y-96394761D01*
X182309523Y-96394761D02*
X182309523Y-96299523D01*
X182309523Y-96299523D02*
X182261904Y-96204285D01*
X182261904Y-96204285D02*
X182166666Y-96156666D01*
X182166666Y-96156666D02*
X181928571Y-96156666D01*
X181928571Y-96156666D02*
X181833333Y-96109047D01*
X181357142Y-95870952D02*
X181357142Y-96537619D01*
X181357142Y-95966190D02*
X181309523Y-95918571D01*
X181309523Y-95918571D02*
X181214285Y-95870952D01*
X181214285Y-95870952D02*
X181071428Y-95870952D01*
X181071428Y-95870952D02*
X180976190Y-95918571D01*
X180976190Y-95918571D02*
X180928571Y-96013809D01*
X180928571Y-96013809D02*
X180928571Y-96537619D01*
X180023809Y-96537619D02*
X180023809Y-95537619D01*
X180023809Y-96490000D02*
X180119047Y-96537619D01*
X180119047Y-96537619D02*
X180309523Y-96537619D01*
X180309523Y-96537619D02*
X180404761Y-96490000D01*
X180404761Y-96490000D02*
X180452380Y-96442380D01*
X180452380Y-96442380D02*
X180499999Y-96347142D01*
X180499999Y-96347142D02*
X180499999Y-96061428D01*
X180499999Y-96061428D02*
X180452380Y-95966190D01*
X180452380Y-95966190D02*
X180404761Y-95918571D01*
X180404761Y-95918571D02*
X180309523Y-95870952D01*
X180309523Y-95870952D02*
X180119047Y-95870952D01*
X180119047Y-95870952D02*
X180023809Y-95918571D01*
X178928570Y-95870952D02*
X178547618Y-95870952D01*
X178785713Y-95537619D02*
X178785713Y-96394761D01*
X178785713Y-96394761D02*
X178738094Y-96490000D01*
X178738094Y-96490000D02*
X178642856Y-96537619D01*
X178642856Y-96537619D02*
X178547618Y-96537619D01*
X178214284Y-96537619D02*
X178214284Y-95537619D01*
X177785713Y-96537619D02*
X177785713Y-96013809D01*
X177785713Y-96013809D02*
X177833332Y-95918571D01*
X177833332Y-95918571D02*
X177928570Y-95870952D01*
X177928570Y-95870952D02*
X178071427Y-95870952D01*
X178071427Y-95870952D02*
X178166665Y-95918571D01*
X178166665Y-95918571D02*
X178214284Y-95966190D01*
X176928570Y-96490000D02*
X177023808Y-96537619D01*
X177023808Y-96537619D02*
X177214284Y-96537619D01*
X177214284Y-96537619D02*
X177309522Y-96490000D01*
X177309522Y-96490000D02*
X177357141Y-96394761D01*
X177357141Y-96394761D02*
X177357141Y-96013809D01*
X177357141Y-96013809D02*
X177309522Y-95918571D01*
X177309522Y-95918571D02*
X177214284Y-95870952D01*
X177214284Y-95870952D02*
X177023808Y-95870952D01*
X177023808Y-95870952D02*
X176928570Y-95918571D01*
X176928570Y-95918571D02*
X176880951Y-96013809D01*
X176880951Y-96013809D02*
X176880951Y-96109047D01*
X176880951Y-96109047D02*
X177357141Y-96204285D01*
X175261903Y-96537619D02*
X175261903Y-96013809D01*
X175261903Y-96013809D02*
X175309522Y-95918571D01*
X175309522Y-95918571D02*
X175404760Y-95870952D01*
X175404760Y-95870952D02*
X175595236Y-95870952D01*
X175595236Y-95870952D02*
X175690474Y-95918571D01*
X175261903Y-96490000D02*
X175357141Y-96537619D01*
X175357141Y-96537619D02*
X175595236Y-96537619D01*
X175595236Y-96537619D02*
X175690474Y-96490000D01*
X175690474Y-96490000D02*
X175738093Y-96394761D01*
X175738093Y-96394761D02*
X175738093Y-96299523D01*
X175738093Y-96299523D02*
X175690474Y-96204285D01*
X175690474Y-96204285D02*
X175595236Y-96156666D01*
X175595236Y-96156666D02*
X175357141Y-96156666D01*
X175357141Y-96156666D02*
X175261903Y-96109047D01*
X174785712Y-96537619D02*
X174785712Y-95537619D01*
X174785712Y-95918571D02*
X174690474Y-95870952D01*
X174690474Y-95870952D02*
X174499998Y-95870952D01*
X174499998Y-95870952D02*
X174404760Y-95918571D01*
X174404760Y-95918571D02*
X174357141Y-95966190D01*
X174357141Y-95966190D02*
X174309522Y-96061428D01*
X174309522Y-96061428D02*
X174309522Y-96347142D01*
X174309522Y-96347142D02*
X174357141Y-96442380D01*
X174357141Y-96442380D02*
X174404760Y-96490000D01*
X174404760Y-96490000D02*
X174499998Y-96537619D01*
X174499998Y-96537619D02*
X174690474Y-96537619D01*
X174690474Y-96537619D02*
X174785712Y-96490000D01*
X173738093Y-96537619D02*
X173833331Y-96490000D01*
X173833331Y-96490000D02*
X173880950Y-96394761D01*
X173880950Y-96394761D02*
X173880950Y-95537619D01*
X172928569Y-96537619D02*
X172928569Y-96013809D01*
X172928569Y-96013809D02*
X172976188Y-95918571D01*
X172976188Y-95918571D02*
X173071426Y-95870952D01*
X173071426Y-95870952D02*
X173261902Y-95870952D01*
X173261902Y-95870952D02*
X173357140Y-95918571D01*
X172928569Y-96490000D02*
X173023807Y-96537619D01*
X173023807Y-96537619D02*
X173261902Y-96537619D01*
X173261902Y-96537619D02*
X173357140Y-96490000D01*
X173357140Y-96490000D02*
X173404759Y-96394761D01*
X173404759Y-96394761D02*
X173404759Y-96299523D01*
X173404759Y-96299523D02*
X173357140Y-96204285D01*
X173357140Y-96204285D02*
X173261902Y-96156666D01*
X173261902Y-96156666D02*
X173023807Y-96156666D01*
X173023807Y-96156666D02*
X172928569Y-96109047D01*
X172595235Y-95870952D02*
X172214283Y-95870952D01*
X172452378Y-95537619D02*
X172452378Y-96394761D01*
X172452378Y-96394761D02*
X172404759Y-96490000D01*
X172404759Y-96490000D02*
X172309521Y-96537619D01*
X172309521Y-96537619D02*
X172214283Y-96537619D01*
X171738092Y-96537619D02*
X171833330Y-96490000D01*
X171833330Y-96490000D02*
X171880949Y-96442380D01*
X171880949Y-96442380D02*
X171928568Y-96347142D01*
X171928568Y-96347142D02*
X171928568Y-96061428D01*
X171928568Y-96061428D02*
X171880949Y-95966190D01*
X171880949Y-95966190D02*
X171833330Y-95918571D01*
X171833330Y-95918571D02*
X171738092Y-95870952D01*
X171738092Y-95870952D02*
X171595235Y-95870952D01*
X171595235Y-95870952D02*
X171499997Y-95918571D01*
X171499997Y-95918571D02*
X171452378Y-95966190D01*
X171452378Y-95966190D02*
X171404759Y-96061428D01*
X171404759Y-96061428D02*
X171404759Y-96347142D01*
X171404759Y-96347142D02*
X171452378Y-96442380D01*
X171452378Y-96442380D02*
X171499997Y-96490000D01*
X171499997Y-96490000D02*
X171595235Y-96537619D01*
X171595235Y-96537619D02*
X171738092Y-96537619D01*
X170976187Y-96537619D02*
X170976187Y-95870952D01*
X170976187Y-96061428D02*
X170928568Y-95966190D01*
X170928568Y-95966190D02*
X170880949Y-95918571D01*
X170880949Y-95918571D02*
X170785711Y-95870952D01*
X170785711Y-95870952D02*
X170690473Y-95870952D01*
X169595234Y-96537619D02*
X169595234Y-95870952D01*
X169595234Y-95537619D02*
X169642853Y-95585238D01*
X169642853Y-95585238D02*
X169595234Y-95632857D01*
X169595234Y-95632857D02*
X169547615Y-95585238D01*
X169547615Y-95585238D02*
X169595234Y-95537619D01*
X169595234Y-95537619D02*
X169595234Y-95632857D01*
X169119044Y-95870952D02*
X169119044Y-96537619D01*
X169119044Y-95966190D02*
X169071425Y-95918571D01*
X169071425Y-95918571D02*
X168976187Y-95870952D01*
X168976187Y-95870952D02*
X168833330Y-95870952D01*
X168833330Y-95870952D02*
X168738092Y-95918571D01*
X168738092Y-95918571D02*
X168690473Y-96013809D01*
X168690473Y-96013809D02*
X168690473Y-96537619D01*
X168357139Y-95870952D02*
X167976187Y-95870952D01*
X168214282Y-95537619D02*
X168214282Y-96394761D01*
X168214282Y-96394761D02*
X168166663Y-96490000D01*
X168166663Y-96490000D02*
X168071425Y-96537619D01*
X168071425Y-96537619D02*
X167976187Y-96537619D01*
X167261901Y-96490000D02*
X167357139Y-96537619D01*
X167357139Y-96537619D02*
X167547615Y-96537619D01*
X167547615Y-96537619D02*
X167642853Y-96490000D01*
X167642853Y-96490000D02*
X167690472Y-96394761D01*
X167690472Y-96394761D02*
X167690472Y-96013809D01*
X167690472Y-96013809D02*
X167642853Y-95918571D01*
X167642853Y-95918571D02*
X167547615Y-95870952D01*
X167547615Y-95870952D02*
X167357139Y-95870952D01*
X167357139Y-95870952D02*
X167261901Y-95918571D01*
X167261901Y-95918571D02*
X167214282Y-96013809D01*
X167214282Y-96013809D02*
X167214282Y-96109047D01*
X167214282Y-96109047D02*
X167690472Y-96204285D01*
X166785710Y-96537619D02*
X166785710Y-95870952D01*
X166785710Y-96061428D02*
X166738091Y-95966190D01*
X166738091Y-95966190D02*
X166690472Y-95918571D01*
X166690472Y-95918571D02*
X166595234Y-95870952D01*
X166595234Y-95870952D02*
X166499996Y-95870952D01*
X166309519Y-95870952D02*
X165928567Y-95870952D01*
X166166662Y-96537619D02*
X166166662Y-95680476D01*
X166166662Y-95680476D02*
X166119043Y-95585238D01*
X166119043Y-95585238D02*
X166023805Y-95537619D01*
X166023805Y-95537619D02*
X165928567Y-95537619D01*
X165166662Y-96537619D02*
X165166662Y-96013809D01*
X165166662Y-96013809D02*
X165214281Y-95918571D01*
X165214281Y-95918571D02*
X165309519Y-95870952D01*
X165309519Y-95870952D02*
X165499995Y-95870952D01*
X165499995Y-95870952D02*
X165595233Y-95918571D01*
X165166662Y-96490000D02*
X165261900Y-96537619D01*
X165261900Y-96537619D02*
X165499995Y-96537619D01*
X165499995Y-96537619D02*
X165595233Y-96490000D01*
X165595233Y-96490000D02*
X165642852Y-96394761D01*
X165642852Y-96394761D02*
X165642852Y-96299523D01*
X165642852Y-96299523D02*
X165595233Y-96204285D01*
X165595233Y-96204285D02*
X165499995Y-96156666D01*
X165499995Y-96156666D02*
X165261900Y-96156666D01*
X165261900Y-96156666D02*
X165166662Y-96109047D01*
X164261900Y-96490000D02*
X164357138Y-96537619D01*
X164357138Y-96537619D02*
X164547614Y-96537619D01*
X164547614Y-96537619D02*
X164642852Y-96490000D01*
X164642852Y-96490000D02*
X164690471Y-96442380D01*
X164690471Y-96442380D02*
X164738090Y-96347142D01*
X164738090Y-96347142D02*
X164738090Y-96061428D01*
X164738090Y-96061428D02*
X164690471Y-95966190D01*
X164690471Y-95966190D02*
X164642852Y-95918571D01*
X164642852Y-95918571D02*
X164547614Y-95870952D01*
X164547614Y-95870952D02*
X164357138Y-95870952D01*
X164357138Y-95870952D02*
X164261900Y-95918571D01*
X163452376Y-96490000D02*
X163547614Y-96537619D01*
X163547614Y-96537619D02*
X163738090Y-96537619D01*
X163738090Y-96537619D02*
X163833328Y-96490000D01*
X163833328Y-96490000D02*
X163880947Y-96394761D01*
X163880947Y-96394761D02*
X163880947Y-96013809D01*
X163880947Y-96013809D02*
X163833328Y-95918571D01*
X163833328Y-95918571D02*
X163738090Y-95870952D01*
X163738090Y-95870952D02*
X163547614Y-95870952D01*
X163547614Y-95870952D02*
X163452376Y-95918571D01*
X163452376Y-95918571D02*
X163404757Y-96013809D01*
X163404757Y-96013809D02*
X163404757Y-96109047D01*
X163404757Y-96109047D02*
X163880947Y-96204285D01*
X162214280Y-96537619D02*
X162214280Y-95537619D01*
X162214280Y-95537619D02*
X161833328Y-95537619D01*
X161833328Y-95537619D02*
X161738090Y-95585238D01*
X161738090Y-95585238D02*
X161690471Y-95632857D01*
X161690471Y-95632857D02*
X161642852Y-95728095D01*
X161642852Y-95728095D02*
X161642852Y-95870952D01*
X161642852Y-95870952D02*
X161690471Y-95966190D01*
X161690471Y-95966190D02*
X161738090Y-96013809D01*
X161738090Y-96013809D02*
X161833328Y-96061428D01*
X161833328Y-96061428D02*
X162214280Y-96061428D01*
X160642852Y-96442380D02*
X160690471Y-96490000D01*
X160690471Y-96490000D02*
X160833328Y-96537619D01*
X160833328Y-96537619D02*
X160928566Y-96537619D01*
X160928566Y-96537619D02*
X161071423Y-96490000D01*
X161071423Y-96490000D02*
X161166661Y-96394761D01*
X161166661Y-96394761D02*
X161214280Y-96299523D01*
X161214280Y-96299523D02*
X161261899Y-96109047D01*
X161261899Y-96109047D02*
X161261899Y-95966190D01*
X161261899Y-95966190D02*
X161214280Y-95775714D01*
X161214280Y-95775714D02*
X161166661Y-95680476D01*
X161166661Y-95680476D02*
X161071423Y-95585238D01*
X161071423Y-95585238D02*
X160928566Y-95537619D01*
X160928566Y-95537619D02*
X160833328Y-95537619D01*
X160833328Y-95537619D02*
X160690471Y-95585238D01*
X160690471Y-95585238D02*
X160642852Y-95632857D01*
X159880947Y-96013809D02*
X159738090Y-96061428D01*
X159738090Y-96061428D02*
X159690471Y-96109047D01*
X159690471Y-96109047D02*
X159642852Y-96204285D01*
X159642852Y-96204285D02*
X159642852Y-96347142D01*
X159642852Y-96347142D02*
X159690471Y-96442380D01*
X159690471Y-96442380D02*
X159738090Y-96490000D01*
X159738090Y-96490000D02*
X159833328Y-96537619D01*
X159833328Y-96537619D02*
X160214280Y-96537619D01*
X160214280Y-96537619D02*
X160214280Y-95537619D01*
X160214280Y-95537619D02*
X159880947Y-95537619D01*
X159880947Y-95537619D02*
X159785709Y-95585238D01*
X159785709Y-95585238D02*
X159738090Y-95632857D01*
X159738090Y-95632857D02*
X159690471Y-95728095D01*
X159690471Y-95728095D02*
X159690471Y-95823333D01*
X159690471Y-95823333D02*
X159738090Y-95918571D01*
X159738090Y-95918571D02*
X159785709Y-95966190D01*
X159785709Y-95966190D02*
X159880947Y-96013809D01*
X159880947Y-96013809D02*
X160214280Y-96013809D01*
X159214280Y-96442380D02*
X159166661Y-96490000D01*
X159166661Y-96490000D02*
X159214280Y-96537619D01*
X159214280Y-96537619D02*
X159261899Y-96490000D01*
X159261899Y-96490000D02*
X159214280Y-96442380D01*
X159214280Y-96442380D02*
X159214280Y-96537619D01*
X181928571Y-99253809D02*
X181785714Y-99301428D01*
X181785714Y-99301428D02*
X181738095Y-99349047D01*
X181738095Y-99349047D02*
X181690476Y-99444285D01*
X181690476Y-99444285D02*
X181690476Y-99587142D01*
X181690476Y-99587142D02*
X181738095Y-99682380D01*
X181738095Y-99682380D02*
X181785714Y-99730000D01*
X181785714Y-99730000D02*
X181880952Y-99777619D01*
X181880952Y-99777619D02*
X182261904Y-99777619D01*
X182261904Y-99777619D02*
X182261904Y-98777619D01*
X182261904Y-98777619D02*
X181928571Y-98777619D01*
X181928571Y-98777619D02*
X181833333Y-98825238D01*
X181833333Y-98825238D02*
X181785714Y-98872857D01*
X181785714Y-98872857D02*
X181738095Y-98968095D01*
X181738095Y-98968095D02*
X181738095Y-99063333D01*
X181738095Y-99063333D02*
X181785714Y-99158571D01*
X181785714Y-99158571D02*
X181833333Y-99206190D01*
X181833333Y-99206190D02*
X181928571Y-99253809D01*
X181928571Y-99253809D02*
X182261904Y-99253809D01*
X181261904Y-99777619D02*
X181261904Y-98777619D01*
X181261904Y-98777619D02*
X180690476Y-99777619D01*
X180690476Y-99777619D02*
X180690476Y-98777619D01*
X179642857Y-99682380D02*
X179690476Y-99730000D01*
X179690476Y-99730000D02*
X179833333Y-99777619D01*
X179833333Y-99777619D02*
X179928571Y-99777619D01*
X179928571Y-99777619D02*
X180071428Y-99730000D01*
X180071428Y-99730000D02*
X180166666Y-99634761D01*
X180166666Y-99634761D02*
X180214285Y-99539523D01*
X180214285Y-99539523D02*
X180261904Y-99349047D01*
X180261904Y-99349047D02*
X180261904Y-99206190D01*
X180261904Y-99206190D02*
X180214285Y-99015714D01*
X180214285Y-99015714D02*
X180166666Y-98920476D01*
X180166666Y-98920476D02*
X180071428Y-98825238D01*
X180071428Y-98825238D02*
X179928571Y-98777619D01*
X179928571Y-98777619D02*
X179833333Y-98777619D01*
X179833333Y-98777619D02*
X179690476Y-98825238D01*
X179690476Y-98825238D02*
X179642857Y-98872857D01*
X179261904Y-99730000D02*
X179166666Y-99777619D01*
X179166666Y-99777619D02*
X178976190Y-99777619D01*
X178976190Y-99777619D02*
X178880952Y-99730000D01*
X178880952Y-99730000D02*
X178833333Y-99634761D01*
X178833333Y-99634761D02*
X178833333Y-99587142D01*
X178833333Y-99587142D02*
X178880952Y-99491904D01*
X178880952Y-99491904D02*
X178976190Y-99444285D01*
X178976190Y-99444285D02*
X179119047Y-99444285D01*
X179119047Y-99444285D02*
X179214285Y-99396666D01*
X179214285Y-99396666D02*
X179261904Y-99301428D01*
X179261904Y-99301428D02*
X179261904Y-99253809D01*
X179261904Y-99253809D02*
X179214285Y-99158571D01*
X179214285Y-99158571D02*
X179119047Y-99110952D01*
X179119047Y-99110952D02*
X178976190Y-99110952D01*
X178976190Y-99110952D02*
X178880952Y-99158571D01*
X177214285Y-99777619D02*
X177214285Y-99253809D01*
X177214285Y-99253809D02*
X177261904Y-99158571D01*
X177261904Y-99158571D02*
X177357142Y-99110952D01*
X177357142Y-99110952D02*
X177547618Y-99110952D01*
X177547618Y-99110952D02*
X177642856Y-99158571D01*
X177214285Y-99730000D02*
X177309523Y-99777619D01*
X177309523Y-99777619D02*
X177547618Y-99777619D01*
X177547618Y-99777619D02*
X177642856Y-99730000D01*
X177642856Y-99730000D02*
X177690475Y-99634761D01*
X177690475Y-99634761D02*
X177690475Y-99539523D01*
X177690475Y-99539523D02*
X177642856Y-99444285D01*
X177642856Y-99444285D02*
X177547618Y-99396666D01*
X177547618Y-99396666D02*
X177309523Y-99396666D01*
X177309523Y-99396666D02*
X177214285Y-99349047D01*
X176738094Y-99777619D02*
X176738094Y-99110952D01*
X176738094Y-99301428D02*
X176690475Y-99206190D01*
X176690475Y-99206190D02*
X176642856Y-99158571D01*
X176642856Y-99158571D02*
X176547618Y-99110952D01*
X176547618Y-99110952D02*
X176452380Y-99110952D01*
X175738094Y-99730000D02*
X175833332Y-99777619D01*
X175833332Y-99777619D02*
X176023808Y-99777619D01*
X176023808Y-99777619D02*
X176119046Y-99730000D01*
X176119046Y-99730000D02*
X176166665Y-99634761D01*
X176166665Y-99634761D02*
X176166665Y-99253809D01*
X176166665Y-99253809D02*
X176119046Y-99158571D01*
X176119046Y-99158571D02*
X176023808Y-99110952D01*
X176023808Y-99110952D02*
X175833332Y-99110952D01*
X175833332Y-99110952D02*
X175738094Y-99158571D01*
X175738094Y-99158571D02*
X175690475Y-99253809D01*
X175690475Y-99253809D02*
X175690475Y-99349047D01*
X175690475Y-99349047D02*
X176166665Y-99444285D01*
X174166665Y-99253809D02*
X174023808Y-99301428D01*
X174023808Y-99301428D02*
X173976189Y-99349047D01*
X173976189Y-99349047D02*
X173928570Y-99444285D01*
X173928570Y-99444285D02*
X173928570Y-99587142D01*
X173928570Y-99587142D02*
X173976189Y-99682380D01*
X173976189Y-99682380D02*
X174023808Y-99730000D01*
X174023808Y-99730000D02*
X174119046Y-99777619D01*
X174119046Y-99777619D02*
X174499998Y-99777619D01*
X174499998Y-99777619D02*
X174499998Y-98777619D01*
X174499998Y-98777619D02*
X174166665Y-98777619D01*
X174166665Y-98777619D02*
X174071427Y-98825238D01*
X174071427Y-98825238D02*
X174023808Y-98872857D01*
X174023808Y-98872857D02*
X173976189Y-98968095D01*
X173976189Y-98968095D02*
X173976189Y-99063333D01*
X173976189Y-99063333D02*
X174023808Y-99158571D01*
X174023808Y-99158571D02*
X174071427Y-99206190D01*
X174071427Y-99206190D02*
X174166665Y-99253809D01*
X174166665Y-99253809D02*
X174499998Y-99253809D01*
X173071427Y-98777619D02*
X173261903Y-98777619D01*
X173261903Y-98777619D02*
X173357141Y-98825238D01*
X173357141Y-98825238D02*
X173404760Y-98872857D01*
X173404760Y-98872857D02*
X173499998Y-99015714D01*
X173499998Y-99015714D02*
X173547617Y-99206190D01*
X173547617Y-99206190D02*
X173547617Y-99587142D01*
X173547617Y-99587142D02*
X173499998Y-99682380D01*
X173499998Y-99682380D02*
X173452379Y-99730000D01*
X173452379Y-99730000D02*
X173357141Y-99777619D01*
X173357141Y-99777619D02*
X173166665Y-99777619D01*
X173166665Y-99777619D02*
X173071427Y-99730000D01*
X173071427Y-99730000D02*
X173023808Y-99682380D01*
X173023808Y-99682380D02*
X172976189Y-99587142D01*
X172976189Y-99587142D02*
X172976189Y-99349047D01*
X172976189Y-99349047D02*
X173023808Y-99253809D01*
X173023808Y-99253809D02*
X173071427Y-99206190D01*
X173071427Y-99206190D02*
X173166665Y-99158571D01*
X173166665Y-99158571D02*
X173357141Y-99158571D01*
X173357141Y-99158571D02*
X173452379Y-99206190D01*
X173452379Y-99206190D02*
X173499998Y-99253809D01*
X173499998Y-99253809D02*
X173547617Y-99349047D01*
X172595236Y-98872857D02*
X172547617Y-98825238D01*
X172547617Y-98825238D02*
X172452379Y-98777619D01*
X172452379Y-98777619D02*
X172214284Y-98777619D01*
X172214284Y-98777619D02*
X172119046Y-98825238D01*
X172119046Y-98825238D02*
X172071427Y-98872857D01*
X172071427Y-98872857D02*
X172023808Y-98968095D01*
X172023808Y-98968095D02*
X172023808Y-99063333D01*
X172023808Y-99063333D02*
X172071427Y-99206190D01*
X172071427Y-99206190D02*
X172642855Y-99777619D01*
X172642855Y-99777619D02*
X172023808Y-99777619D01*
X171119046Y-98777619D02*
X171595236Y-98777619D01*
X171595236Y-98777619D02*
X171642855Y-99253809D01*
X171642855Y-99253809D02*
X171595236Y-99206190D01*
X171595236Y-99206190D02*
X171499998Y-99158571D01*
X171499998Y-99158571D02*
X171261903Y-99158571D01*
X171261903Y-99158571D02*
X171166665Y-99206190D01*
X171166665Y-99206190D02*
X171119046Y-99253809D01*
X171119046Y-99253809D02*
X171071427Y-99349047D01*
X171071427Y-99349047D02*
X171071427Y-99587142D01*
X171071427Y-99587142D02*
X171119046Y-99682380D01*
X171119046Y-99682380D02*
X171166665Y-99730000D01*
X171166665Y-99730000D02*
X171261903Y-99777619D01*
X171261903Y-99777619D02*
X171499998Y-99777619D01*
X171499998Y-99777619D02*
X171595236Y-99730000D01*
X171595236Y-99730000D02*
X171642855Y-99682380D01*
X170690474Y-98872857D02*
X170642855Y-98825238D01*
X170642855Y-98825238D02*
X170547617Y-98777619D01*
X170547617Y-98777619D02*
X170309522Y-98777619D01*
X170309522Y-98777619D02*
X170214284Y-98825238D01*
X170214284Y-98825238D02*
X170166665Y-98872857D01*
X170166665Y-98872857D02*
X170119046Y-98968095D01*
X170119046Y-98968095D02*
X170119046Y-99063333D01*
X170119046Y-99063333D02*
X170166665Y-99206190D01*
X170166665Y-99206190D02*
X170738093Y-99777619D01*
X170738093Y-99777619D02*
X170119046Y-99777619D01*
X169690474Y-99777619D02*
X169690474Y-98777619D01*
X169690474Y-99253809D02*
X169119046Y-99253809D01*
X169119046Y-99777619D02*
X169119046Y-98777619D01*
X168738093Y-98777619D02*
X168071427Y-98777619D01*
X168071427Y-98777619D02*
X168499998Y-99777619D01*
X167690474Y-99396666D02*
X166928570Y-99396666D01*
X166452379Y-99777619D02*
X166452379Y-98777619D01*
X166452379Y-98777619D02*
X165880951Y-99777619D01*
X165880951Y-99777619D02*
X165880951Y-98777619D01*
X165404760Y-99777619D02*
X165404760Y-98777619D01*
X165404760Y-98777619D02*
X165023808Y-98777619D01*
X165023808Y-98777619D02*
X164928570Y-98825238D01*
X164928570Y-98825238D02*
X164880951Y-98872857D01*
X164880951Y-98872857D02*
X164833332Y-98968095D01*
X164833332Y-98968095D02*
X164833332Y-99110952D01*
X164833332Y-99110952D02*
X164880951Y-99206190D01*
X164880951Y-99206190D02*
X164928570Y-99253809D01*
X164928570Y-99253809D02*
X165023808Y-99301428D01*
X165023808Y-99301428D02*
X165404760Y-99301428D01*
X164404760Y-99777619D02*
X164404760Y-98777619D01*
X164404760Y-98777619D02*
X164023808Y-98777619D01*
X164023808Y-98777619D02*
X163928570Y-98825238D01*
X163928570Y-98825238D02*
X163880951Y-98872857D01*
X163880951Y-98872857D02*
X163833332Y-98968095D01*
X163833332Y-98968095D02*
X163833332Y-99110952D01*
X163833332Y-99110952D02*
X163880951Y-99206190D01*
X163880951Y-99206190D02*
X163928570Y-99253809D01*
X163928570Y-99253809D02*
X164023808Y-99301428D01*
X164023808Y-99301428D02*
X164404760Y-99301428D01*
X163499998Y-98777619D02*
X162880951Y-98777619D01*
X162880951Y-98777619D02*
X163214284Y-99158571D01*
X163214284Y-99158571D02*
X163071427Y-99158571D01*
X163071427Y-99158571D02*
X162976189Y-99206190D01*
X162976189Y-99206190D02*
X162928570Y-99253809D01*
X162928570Y-99253809D02*
X162880951Y-99349047D01*
X162880951Y-99349047D02*
X162880951Y-99587142D01*
X162880951Y-99587142D02*
X162928570Y-99682380D01*
X162928570Y-99682380D02*
X162976189Y-99730000D01*
X162976189Y-99730000D02*
X163071427Y-99777619D01*
X163071427Y-99777619D02*
X163357141Y-99777619D01*
X163357141Y-99777619D02*
X163452379Y-99730000D01*
X163452379Y-99730000D02*
X163499998Y-99682380D01*
X161928570Y-98825238D02*
X162023808Y-98777619D01*
X162023808Y-98777619D02*
X162166665Y-98777619D01*
X162166665Y-98777619D02*
X162309522Y-98825238D01*
X162309522Y-98825238D02*
X162404760Y-98920476D01*
X162404760Y-98920476D02*
X162452379Y-99015714D01*
X162452379Y-99015714D02*
X162499998Y-99206190D01*
X162499998Y-99206190D02*
X162499998Y-99349047D01*
X162499998Y-99349047D02*
X162452379Y-99539523D01*
X162452379Y-99539523D02*
X162404760Y-99634761D01*
X162404760Y-99634761D02*
X162309522Y-99730000D01*
X162309522Y-99730000D02*
X162166665Y-99777619D01*
X162166665Y-99777619D02*
X162071427Y-99777619D01*
X162071427Y-99777619D02*
X161928570Y-99730000D01*
X161928570Y-99730000D02*
X161880951Y-99682380D01*
X161880951Y-99682380D02*
X161880951Y-99349047D01*
X161880951Y-99349047D02*
X162071427Y-99349047D01*
X161452379Y-99396666D02*
X160690475Y-99396666D01*
X159738094Y-98777619D02*
X160214284Y-98777619D01*
X160214284Y-98777619D02*
X160261903Y-99253809D01*
X160261903Y-99253809D02*
X160214284Y-99206190D01*
X160214284Y-99206190D02*
X160119046Y-99158571D01*
X160119046Y-99158571D02*
X159880951Y-99158571D01*
X159880951Y-99158571D02*
X159785713Y-99206190D01*
X159785713Y-99206190D02*
X159738094Y-99253809D01*
X159738094Y-99253809D02*
X159690475Y-99349047D01*
X159690475Y-99349047D02*
X159690475Y-99587142D01*
X159690475Y-99587142D02*
X159738094Y-99682380D01*
X159738094Y-99682380D02*
X159785713Y-99730000D01*
X159785713Y-99730000D02*
X159880951Y-99777619D01*
X159880951Y-99777619D02*
X160119046Y-99777619D01*
X160119046Y-99777619D02*
X160214284Y-99730000D01*
X160214284Y-99730000D02*
X160261903Y-99682380D01*
X159071427Y-98777619D02*
X158976189Y-98777619D01*
X158976189Y-98777619D02*
X158880951Y-98825238D01*
X158880951Y-98825238D02*
X158833332Y-98872857D01*
X158833332Y-98872857D02*
X158785713Y-98968095D01*
X158785713Y-98968095D02*
X158738094Y-99158571D01*
X158738094Y-99158571D02*
X158738094Y-99396666D01*
X158738094Y-99396666D02*
X158785713Y-99587142D01*
X158785713Y-99587142D02*
X158833332Y-99682380D01*
X158833332Y-99682380D02*
X158880951Y-99730000D01*
X158880951Y-99730000D02*
X158976189Y-99777619D01*
X158976189Y-99777619D02*
X159071427Y-99777619D01*
X159071427Y-99777619D02*
X159166665Y-99730000D01*
X159166665Y-99730000D02*
X159214284Y-99682380D01*
X159214284Y-99682380D02*
X159261903Y-99587142D01*
X159261903Y-99587142D02*
X159309522Y-99396666D01*
X159309522Y-99396666D02*
X159309522Y-99158571D01*
X159309522Y-99158571D02*
X159261903Y-98968095D01*
X159261903Y-98968095D02*
X159214284Y-98872857D01*
X159214284Y-98872857D02*
X159166665Y-98825238D01*
X159166665Y-98825238D02*
X159071427Y-98777619D01*
X181738095Y-102065238D02*
X181833333Y-102017619D01*
X181833333Y-102017619D02*
X181976190Y-102017619D01*
X181976190Y-102017619D02*
X182119047Y-102065238D01*
X182119047Y-102065238D02*
X182214285Y-102160476D01*
X182214285Y-102160476D02*
X182261904Y-102255714D01*
X182261904Y-102255714D02*
X182309523Y-102446190D01*
X182309523Y-102446190D02*
X182309523Y-102589047D01*
X182309523Y-102589047D02*
X182261904Y-102779523D01*
X182261904Y-102779523D02*
X182214285Y-102874761D01*
X182214285Y-102874761D02*
X182119047Y-102970000D01*
X182119047Y-102970000D02*
X181976190Y-103017619D01*
X181976190Y-103017619D02*
X181880952Y-103017619D01*
X181880952Y-103017619D02*
X181738095Y-102970000D01*
X181738095Y-102970000D02*
X181690476Y-102922380D01*
X181690476Y-102922380D02*
X181690476Y-102589047D01*
X181690476Y-102589047D02*
X181880952Y-102589047D01*
X181261904Y-103017619D02*
X181261904Y-102350952D01*
X181261904Y-102541428D02*
X181214285Y-102446190D01*
X181214285Y-102446190D02*
X181166666Y-102398571D01*
X181166666Y-102398571D02*
X181071428Y-102350952D01*
X181071428Y-102350952D02*
X180976190Y-102350952D01*
X180499999Y-103017619D02*
X180595237Y-102970000D01*
X180595237Y-102970000D02*
X180642856Y-102922380D01*
X180642856Y-102922380D02*
X180690475Y-102827142D01*
X180690475Y-102827142D02*
X180690475Y-102541428D01*
X180690475Y-102541428D02*
X180642856Y-102446190D01*
X180642856Y-102446190D02*
X180595237Y-102398571D01*
X180595237Y-102398571D02*
X180499999Y-102350952D01*
X180499999Y-102350952D02*
X180357142Y-102350952D01*
X180357142Y-102350952D02*
X180261904Y-102398571D01*
X180261904Y-102398571D02*
X180214285Y-102446190D01*
X180214285Y-102446190D02*
X180166666Y-102541428D01*
X180166666Y-102541428D02*
X180166666Y-102827142D01*
X180166666Y-102827142D02*
X180214285Y-102922380D01*
X180214285Y-102922380D02*
X180261904Y-102970000D01*
X180261904Y-102970000D02*
X180357142Y-103017619D01*
X180357142Y-103017619D02*
X180499999Y-103017619D01*
X179309523Y-102350952D02*
X179309523Y-103017619D01*
X179738094Y-102350952D02*
X179738094Y-102874761D01*
X179738094Y-102874761D02*
X179690475Y-102970000D01*
X179690475Y-102970000D02*
X179595237Y-103017619D01*
X179595237Y-103017619D02*
X179452380Y-103017619D01*
X179452380Y-103017619D02*
X179357142Y-102970000D01*
X179357142Y-102970000D02*
X179309523Y-102922380D01*
X178833332Y-102350952D02*
X178833332Y-103017619D01*
X178833332Y-102446190D02*
X178785713Y-102398571D01*
X178785713Y-102398571D02*
X178690475Y-102350952D01*
X178690475Y-102350952D02*
X178547618Y-102350952D01*
X178547618Y-102350952D02*
X178452380Y-102398571D01*
X178452380Y-102398571D02*
X178404761Y-102493809D01*
X178404761Y-102493809D02*
X178404761Y-103017619D01*
X177499999Y-103017619D02*
X177499999Y-102017619D01*
X177499999Y-102970000D02*
X177595237Y-103017619D01*
X177595237Y-103017619D02*
X177785713Y-103017619D01*
X177785713Y-103017619D02*
X177880951Y-102970000D01*
X177880951Y-102970000D02*
X177928570Y-102922380D01*
X177928570Y-102922380D02*
X177976189Y-102827142D01*
X177976189Y-102827142D02*
X177976189Y-102541428D01*
X177976189Y-102541428D02*
X177928570Y-102446190D01*
X177928570Y-102446190D02*
X177880951Y-102398571D01*
X177880951Y-102398571D02*
X177785713Y-102350952D01*
X177785713Y-102350952D02*
X177595237Y-102350952D01*
X177595237Y-102350952D02*
X177499999Y-102398571D01*
X177023808Y-103017619D02*
X177023808Y-102350952D01*
X177023808Y-102017619D02*
X177071427Y-102065238D01*
X177071427Y-102065238D02*
X177023808Y-102112857D01*
X177023808Y-102112857D02*
X176976189Y-102065238D01*
X176976189Y-102065238D02*
X177023808Y-102017619D01*
X177023808Y-102017619D02*
X177023808Y-102112857D01*
X176547618Y-102350952D02*
X176547618Y-103017619D01*
X176547618Y-102446190D02*
X176499999Y-102398571D01*
X176499999Y-102398571D02*
X176404761Y-102350952D01*
X176404761Y-102350952D02*
X176261904Y-102350952D01*
X176261904Y-102350952D02*
X176166666Y-102398571D01*
X176166666Y-102398571D02*
X176119047Y-102493809D01*
X176119047Y-102493809D02*
X176119047Y-103017619D01*
X175214285Y-102350952D02*
X175214285Y-103160476D01*
X175214285Y-103160476D02*
X175261904Y-103255714D01*
X175261904Y-103255714D02*
X175309523Y-103303333D01*
X175309523Y-103303333D02*
X175404761Y-103350952D01*
X175404761Y-103350952D02*
X175547618Y-103350952D01*
X175547618Y-103350952D02*
X175642856Y-103303333D01*
X175214285Y-102970000D02*
X175309523Y-103017619D01*
X175309523Y-103017619D02*
X175499999Y-103017619D01*
X175499999Y-103017619D02*
X175595237Y-102970000D01*
X175595237Y-102970000D02*
X175642856Y-102922380D01*
X175642856Y-102922380D02*
X175690475Y-102827142D01*
X175690475Y-102827142D02*
X175690475Y-102541428D01*
X175690475Y-102541428D02*
X175642856Y-102446190D01*
X175642856Y-102446190D02*
X175595237Y-102398571D01*
X175595237Y-102398571D02*
X175499999Y-102350952D01*
X175499999Y-102350952D02*
X175309523Y-102350952D01*
X175309523Y-102350952D02*
X175214285Y-102398571D01*
X173976189Y-102350952D02*
X173976189Y-103350952D01*
X173976189Y-102398571D02*
X173880951Y-102350952D01*
X173880951Y-102350952D02*
X173690475Y-102350952D01*
X173690475Y-102350952D02*
X173595237Y-102398571D01*
X173595237Y-102398571D02*
X173547618Y-102446190D01*
X173547618Y-102446190D02*
X173499999Y-102541428D01*
X173499999Y-102541428D02*
X173499999Y-102827142D01*
X173499999Y-102827142D02*
X173547618Y-102922380D01*
X173547618Y-102922380D02*
X173595237Y-102970000D01*
X173595237Y-102970000D02*
X173690475Y-103017619D01*
X173690475Y-103017619D02*
X173880951Y-103017619D01*
X173880951Y-103017619D02*
X173976189Y-102970000D01*
X172928570Y-103017619D02*
X173023808Y-102970000D01*
X173023808Y-102970000D02*
X173071427Y-102922380D01*
X173071427Y-102922380D02*
X173119046Y-102827142D01*
X173119046Y-102827142D02*
X173119046Y-102541428D01*
X173119046Y-102541428D02*
X173071427Y-102446190D01*
X173071427Y-102446190D02*
X173023808Y-102398571D01*
X173023808Y-102398571D02*
X172928570Y-102350952D01*
X172928570Y-102350952D02*
X172785713Y-102350952D01*
X172785713Y-102350952D02*
X172690475Y-102398571D01*
X172690475Y-102398571D02*
X172642856Y-102446190D01*
X172642856Y-102446190D02*
X172595237Y-102541428D01*
X172595237Y-102541428D02*
X172595237Y-102827142D01*
X172595237Y-102827142D02*
X172642856Y-102922380D01*
X172642856Y-102922380D02*
X172690475Y-102970000D01*
X172690475Y-102970000D02*
X172785713Y-103017619D01*
X172785713Y-103017619D02*
X172928570Y-103017619D01*
X172214284Y-102970000D02*
X172119046Y-103017619D01*
X172119046Y-103017619D02*
X171928570Y-103017619D01*
X171928570Y-103017619D02*
X171833332Y-102970000D01*
X171833332Y-102970000D02*
X171785713Y-102874761D01*
X171785713Y-102874761D02*
X171785713Y-102827142D01*
X171785713Y-102827142D02*
X171833332Y-102731904D01*
X171833332Y-102731904D02*
X171928570Y-102684285D01*
X171928570Y-102684285D02*
X172071427Y-102684285D01*
X172071427Y-102684285D02*
X172166665Y-102636666D01*
X172166665Y-102636666D02*
X172214284Y-102541428D01*
X172214284Y-102541428D02*
X172214284Y-102493809D01*
X172214284Y-102493809D02*
X172166665Y-102398571D01*
X172166665Y-102398571D02*
X172071427Y-102350952D01*
X172071427Y-102350952D02*
X171928570Y-102350952D01*
X171928570Y-102350952D02*
X171833332Y-102398571D01*
X171499998Y-102350952D02*
X171119046Y-102350952D01*
X171357141Y-102017619D02*
X171357141Y-102874761D01*
X171357141Y-102874761D02*
X171309522Y-102970000D01*
X171309522Y-102970000D02*
X171214284Y-103017619D01*
X171214284Y-103017619D02*
X171119046Y-103017619D01*
X170023807Y-103017619D02*
X170023807Y-102350952D01*
X170023807Y-102017619D02*
X170071426Y-102065238D01*
X170071426Y-102065238D02*
X170023807Y-102112857D01*
X170023807Y-102112857D02*
X169976188Y-102065238D01*
X169976188Y-102065238D02*
X170023807Y-102017619D01*
X170023807Y-102017619D02*
X170023807Y-102112857D01*
X169595236Y-102970000D02*
X169499998Y-103017619D01*
X169499998Y-103017619D02*
X169309522Y-103017619D01*
X169309522Y-103017619D02*
X169214284Y-102970000D01*
X169214284Y-102970000D02*
X169166665Y-102874761D01*
X169166665Y-102874761D02*
X169166665Y-102827142D01*
X169166665Y-102827142D02*
X169214284Y-102731904D01*
X169214284Y-102731904D02*
X169309522Y-102684285D01*
X169309522Y-102684285D02*
X169452379Y-102684285D01*
X169452379Y-102684285D02*
X169547617Y-102636666D01*
X169547617Y-102636666D02*
X169595236Y-102541428D01*
X169595236Y-102541428D02*
X169595236Y-102493809D01*
X169595236Y-102493809D02*
X169547617Y-102398571D01*
X169547617Y-102398571D02*
X169452379Y-102350952D01*
X169452379Y-102350952D02*
X169309522Y-102350952D01*
X169309522Y-102350952D02*
X169214284Y-102398571D01*
X167976188Y-103017619D02*
X167976188Y-102017619D01*
X167976188Y-102493809D02*
X167404760Y-102493809D01*
X167404760Y-103017619D02*
X167404760Y-102017619D01*
X166928569Y-103017619D02*
X166928569Y-102350952D01*
X166928569Y-102017619D02*
X166976188Y-102065238D01*
X166976188Y-102065238D02*
X166928569Y-102112857D01*
X166928569Y-102112857D02*
X166880950Y-102065238D01*
X166880950Y-102065238D02*
X166928569Y-102017619D01*
X166928569Y-102017619D02*
X166928569Y-102112857D01*
X166452379Y-103017619D02*
X166452379Y-102350952D01*
X166452379Y-102541428D02*
X166404760Y-102446190D01*
X166404760Y-102446190D02*
X166357141Y-102398571D01*
X166357141Y-102398571D02*
X166261903Y-102350952D01*
X166261903Y-102350952D02*
X166166665Y-102350952D01*
X165880950Y-102970000D02*
X165785712Y-103017619D01*
X165785712Y-103017619D02*
X165595236Y-103017619D01*
X165595236Y-103017619D02*
X165499998Y-102970000D01*
X165499998Y-102970000D02*
X165452379Y-102874761D01*
X165452379Y-102874761D02*
X165452379Y-102827142D01*
X165452379Y-102827142D02*
X165499998Y-102731904D01*
X165499998Y-102731904D02*
X165595236Y-102684285D01*
X165595236Y-102684285D02*
X165738093Y-102684285D01*
X165738093Y-102684285D02*
X165833331Y-102636666D01*
X165833331Y-102636666D02*
X165880950Y-102541428D01*
X165880950Y-102541428D02*
X165880950Y-102493809D01*
X165880950Y-102493809D02*
X165833331Y-102398571D01*
X165833331Y-102398571D02*
X165738093Y-102350952D01*
X165738093Y-102350952D02*
X165595236Y-102350952D01*
X165595236Y-102350952D02*
X165499998Y-102398571D01*
X164595236Y-102970000D02*
X164690474Y-103017619D01*
X164690474Y-103017619D02*
X164880950Y-103017619D01*
X164880950Y-103017619D02*
X164976188Y-102970000D01*
X164976188Y-102970000D02*
X165023807Y-102922380D01*
X165023807Y-102922380D02*
X165071426Y-102827142D01*
X165071426Y-102827142D02*
X165071426Y-102541428D01*
X165071426Y-102541428D02*
X165023807Y-102446190D01*
X165023807Y-102446190D02*
X164976188Y-102398571D01*
X164976188Y-102398571D02*
X164880950Y-102350952D01*
X164880950Y-102350952D02*
X164690474Y-102350952D01*
X164690474Y-102350952D02*
X164595236Y-102398571D01*
X164166664Y-103017619D02*
X164166664Y-102017619D01*
X163738093Y-103017619D02*
X163738093Y-102493809D01*
X163738093Y-102493809D02*
X163785712Y-102398571D01*
X163785712Y-102398571D02*
X163880950Y-102350952D01*
X163880950Y-102350952D02*
X164023807Y-102350952D01*
X164023807Y-102350952D02*
X164119045Y-102398571D01*
X164119045Y-102398571D02*
X164166664Y-102446190D01*
X163261902Y-103017619D02*
X163261902Y-102350952D01*
X163261902Y-102446190D02*
X163214283Y-102398571D01*
X163214283Y-102398571D02*
X163119045Y-102350952D01*
X163119045Y-102350952D02*
X162976188Y-102350952D01*
X162976188Y-102350952D02*
X162880950Y-102398571D01*
X162880950Y-102398571D02*
X162833331Y-102493809D01*
X162833331Y-102493809D02*
X162833331Y-103017619D01*
X162833331Y-102493809D02*
X162785712Y-102398571D01*
X162785712Y-102398571D02*
X162690474Y-102350952D01*
X162690474Y-102350952D02*
X162547617Y-102350952D01*
X162547617Y-102350952D02*
X162452378Y-102398571D01*
X162452378Y-102398571D02*
X162404759Y-102493809D01*
X162404759Y-102493809D02*
X162404759Y-103017619D01*
X161499998Y-103017619D02*
X161499998Y-102493809D01*
X161499998Y-102493809D02*
X161547617Y-102398571D01*
X161547617Y-102398571D02*
X161642855Y-102350952D01*
X161642855Y-102350952D02*
X161833331Y-102350952D01*
X161833331Y-102350952D02*
X161928569Y-102398571D01*
X161499998Y-102970000D02*
X161595236Y-103017619D01*
X161595236Y-103017619D02*
X161833331Y-103017619D01*
X161833331Y-103017619D02*
X161928569Y-102970000D01*
X161928569Y-102970000D02*
X161976188Y-102874761D01*
X161976188Y-102874761D02*
X161976188Y-102779523D01*
X161976188Y-102779523D02*
X161928569Y-102684285D01*
X161928569Y-102684285D02*
X161833331Y-102636666D01*
X161833331Y-102636666D02*
X161595236Y-102636666D01*
X161595236Y-102636666D02*
X161499998Y-102589047D01*
X161023807Y-102350952D02*
X161023807Y-103017619D01*
X161023807Y-102446190D02*
X160976188Y-102398571D01*
X160976188Y-102398571D02*
X160880950Y-102350952D01*
X160880950Y-102350952D02*
X160738093Y-102350952D01*
X160738093Y-102350952D02*
X160642855Y-102398571D01*
X160642855Y-102398571D02*
X160595236Y-102493809D01*
X160595236Y-102493809D02*
X160595236Y-103017619D01*
X160119045Y-102350952D02*
X160119045Y-103017619D01*
X160119045Y-102446190D02*
X160071426Y-102398571D01*
X160071426Y-102398571D02*
X159976188Y-102350952D01*
X159976188Y-102350952D02*
X159833331Y-102350952D01*
X159833331Y-102350952D02*
X159738093Y-102398571D01*
X159738093Y-102398571D02*
X159690474Y-102493809D01*
X159690474Y-102493809D02*
X159690474Y-103017619D01*
X158404759Y-103017619D02*
X158214283Y-103017619D01*
X158214283Y-103017619D02*
X158119045Y-102970000D01*
X158119045Y-102970000D02*
X158071426Y-102922380D01*
X158071426Y-102922380D02*
X157976188Y-102779523D01*
X157976188Y-102779523D02*
X157928569Y-102589047D01*
X157928569Y-102589047D02*
X157928569Y-102208095D01*
X157928569Y-102208095D02*
X157976188Y-102112857D01*
X157976188Y-102112857D02*
X158023807Y-102065238D01*
X158023807Y-102065238D02*
X158119045Y-102017619D01*
X158119045Y-102017619D02*
X158309521Y-102017619D01*
X158309521Y-102017619D02*
X158404759Y-102065238D01*
X158404759Y-102065238D02*
X158452378Y-102112857D01*
X158452378Y-102112857D02*
X158499997Y-102208095D01*
X158499997Y-102208095D02*
X158499997Y-102446190D01*
X158499997Y-102446190D02*
X158452378Y-102541428D01*
X158452378Y-102541428D02*
X158404759Y-102589047D01*
X158404759Y-102589047D02*
X158309521Y-102636666D01*
X158309521Y-102636666D02*
X158119045Y-102636666D01*
X158119045Y-102636666D02*
X158023807Y-102589047D01*
X158023807Y-102589047D02*
X157976188Y-102541428D01*
X157976188Y-102541428D02*
X157928569Y-102446190D01*
X157595235Y-102017619D02*
X156976188Y-102017619D01*
X156976188Y-102017619D02*
X157309521Y-102398571D01*
X157309521Y-102398571D02*
X157166664Y-102398571D01*
X157166664Y-102398571D02*
X157071426Y-102446190D01*
X157071426Y-102446190D02*
X157023807Y-102493809D01*
X157023807Y-102493809D02*
X156976188Y-102589047D01*
X156976188Y-102589047D02*
X156976188Y-102827142D01*
X156976188Y-102827142D02*
X157023807Y-102922380D01*
X157023807Y-102922380D02*
X157071426Y-102970000D01*
X157071426Y-102970000D02*
X157166664Y-103017619D01*
X157166664Y-103017619D02*
X157452378Y-103017619D01*
X157452378Y-103017619D02*
X157547616Y-102970000D01*
X157547616Y-102970000D02*
X157595235Y-102922380D01*
X156357140Y-102017619D02*
X156261902Y-102017619D01*
X156261902Y-102017619D02*
X156166664Y-102065238D01*
X156166664Y-102065238D02*
X156119045Y-102112857D01*
X156119045Y-102112857D02*
X156071426Y-102208095D01*
X156071426Y-102208095D02*
X156023807Y-102398571D01*
X156023807Y-102398571D02*
X156023807Y-102636666D01*
X156023807Y-102636666D02*
X156071426Y-102827142D01*
X156071426Y-102827142D02*
X156119045Y-102922380D01*
X156119045Y-102922380D02*
X156166664Y-102970000D01*
X156166664Y-102970000D02*
X156261902Y-103017619D01*
X156261902Y-103017619D02*
X156357140Y-103017619D01*
X156357140Y-103017619D02*
X156452378Y-102970000D01*
X156452378Y-102970000D02*
X156499997Y-102922380D01*
X156499997Y-102922380D02*
X156547616Y-102827142D01*
X156547616Y-102827142D02*
X156595235Y-102636666D01*
X156595235Y-102636666D02*
X156595235Y-102398571D01*
X156595235Y-102398571D02*
X156547616Y-102208095D01*
X156547616Y-102208095D02*
X156499997Y-102112857D01*
X156499997Y-102112857D02*
X156452378Y-102065238D01*
X156452378Y-102065238D02*
X156357140Y-102017619D01*
X155071426Y-103017619D02*
X155642854Y-103017619D01*
X155357140Y-103017619D02*
X155357140Y-102017619D01*
X155357140Y-102017619D02*
X155452378Y-102160476D01*
X155452378Y-102160476D02*
X155547616Y-102255714D01*
X155547616Y-102255714D02*
X155642854Y-102303333D01*
X154452378Y-102017619D02*
X154357140Y-102017619D01*
X154357140Y-102017619D02*
X154261902Y-102065238D01*
X154261902Y-102065238D02*
X154214283Y-102112857D01*
X154214283Y-102112857D02*
X154166664Y-102208095D01*
X154166664Y-102208095D02*
X154119045Y-102398571D01*
X154119045Y-102398571D02*
X154119045Y-102636666D01*
X154119045Y-102636666D02*
X154166664Y-102827142D01*
X154166664Y-102827142D02*
X154214283Y-102922380D01*
X154214283Y-102922380D02*
X154261902Y-102970000D01*
X154261902Y-102970000D02*
X154357140Y-103017619D01*
X154357140Y-103017619D02*
X154452378Y-103017619D01*
X154452378Y-103017619D02*
X154547616Y-102970000D01*
X154547616Y-102970000D02*
X154595235Y-102922380D01*
X154595235Y-102922380D02*
X154642854Y-102827142D01*
X154642854Y-102827142D02*
X154690473Y-102636666D01*
X154690473Y-102636666D02*
X154690473Y-102398571D01*
X154690473Y-102398571D02*
X154642854Y-102208095D01*
X154642854Y-102208095D02*
X154595235Y-102112857D01*
X154595235Y-102112857D02*
X154547616Y-102065238D01*
X154547616Y-102065238D02*
X154452378Y-102017619D01*
X153785711Y-102017619D02*
X153166664Y-102017619D01*
X153166664Y-102017619D02*
X153499997Y-102398571D01*
X153499997Y-102398571D02*
X153357140Y-102398571D01*
X153357140Y-102398571D02*
X153261902Y-102446190D01*
X153261902Y-102446190D02*
X153214283Y-102493809D01*
X153214283Y-102493809D02*
X153166664Y-102589047D01*
X153166664Y-102589047D02*
X153166664Y-102827142D01*
X153166664Y-102827142D02*
X153214283Y-102922380D01*
X153214283Y-102922380D02*
X153261902Y-102970000D01*
X153261902Y-102970000D02*
X153357140Y-103017619D01*
X153357140Y-103017619D02*
X153642854Y-103017619D01*
X153642854Y-103017619D02*
X153738092Y-102970000D01*
X153738092Y-102970000D02*
X153785711Y-102922380D01*
X152214283Y-103017619D02*
X152785711Y-103017619D01*
X152499997Y-103017619D02*
X152499997Y-102017619D01*
X152499997Y-102017619D02*
X152595235Y-102160476D01*
X152595235Y-102160476D02*
X152690473Y-102255714D01*
X152690473Y-102255714D02*
X152785711Y-102303333D01*
X151642854Y-102446190D02*
X151738092Y-102398571D01*
X151738092Y-102398571D02*
X151785711Y-102350952D01*
X151785711Y-102350952D02*
X151833330Y-102255714D01*
X151833330Y-102255714D02*
X151833330Y-102208095D01*
X151833330Y-102208095D02*
X151785711Y-102112857D01*
X151785711Y-102112857D02*
X151738092Y-102065238D01*
X151738092Y-102065238D02*
X151642854Y-102017619D01*
X151642854Y-102017619D02*
X151452378Y-102017619D01*
X151452378Y-102017619D02*
X151357140Y-102065238D01*
X151357140Y-102065238D02*
X151309521Y-102112857D01*
X151309521Y-102112857D02*
X151261902Y-102208095D01*
X151261902Y-102208095D02*
X151261902Y-102255714D01*
X151261902Y-102255714D02*
X151309521Y-102350952D01*
X151309521Y-102350952D02*
X151357140Y-102398571D01*
X151357140Y-102398571D02*
X151452378Y-102446190D01*
X151452378Y-102446190D02*
X151642854Y-102446190D01*
X151642854Y-102446190D02*
X151738092Y-102493809D01*
X151738092Y-102493809D02*
X151785711Y-102541428D01*
X151785711Y-102541428D02*
X151833330Y-102636666D01*
X151833330Y-102636666D02*
X151833330Y-102827142D01*
X151833330Y-102827142D02*
X151785711Y-102922380D01*
X151785711Y-102922380D02*
X151738092Y-102970000D01*
X151738092Y-102970000D02*
X151642854Y-103017619D01*
X151642854Y-103017619D02*
X151452378Y-103017619D01*
X151452378Y-103017619D02*
X151357140Y-102970000D01*
X151357140Y-102970000D02*
X151309521Y-102922380D01*
X151309521Y-102922380D02*
X151261902Y-102827142D01*
X151261902Y-102827142D02*
X151261902Y-102636666D01*
X151261902Y-102636666D02*
X151309521Y-102541428D01*
X151309521Y-102541428D02*
X151357140Y-102493809D01*
X151357140Y-102493809D02*
X151452378Y-102446190D01*
X150690473Y-102446190D02*
X150785711Y-102398571D01*
X150785711Y-102398571D02*
X150833330Y-102350952D01*
X150833330Y-102350952D02*
X150880949Y-102255714D01*
X150880949Y-102255714D02*
X150880949Y-102208095D01*
X150880949Y-102208095D02*
X150833330Y-102112857D01*
X150833330Y-102112857D02*
X150785711Y-102065238D01*
X150785711Y-102065238D02*
X150690473Y-102017619D01*
X150690473Y-102017619D02*
X150499997Y-102017619D01*
X150499997Y-102017619D02*
X150404759Y-102065238D01*
X150404759Y-102065238D02*
X150357140Y-102112857D01*
X150357140Y-102112857D02*
X150309521Y-102208095D01*
X150309521Y-102208095D02*
X150309521Y-102255714D01*
X150309521Y-102255714D02*
X150357140Y-102350952D01*
X150357140Y-102350952D02*
X150404759Y-102398571D01*
X150404759Y-102398571D02*
X150499997Y-102446190D01*
X150499997Y-102446190D02*
X150690473Y-102446190D01*
X150690473Y-102446190D02*
X150785711Y-102493809D01*
X150785711Y-102493809D02*
X150833330Y-102541428D01*
X150833330Y-102541428D02*
X150880949Y-102636666D01*
X150880949Y-102636666D02*
X150880949Y-102827142D01*
X150880949Y-102827142D02*
X150833330Y-102922380D01*
X150833330Y-102922380D02*
X150785711Y-102970000D01*
X150785711Y-102970000D02*
X150690473Y-103017619D01*
X150690473Y-103017619D02*
X150499997Y-103017619D01*
X150499997Y-103017619D02*
X150404759Y-102970000D01*
X150404759Y-102970000D02*
X150357140Y-102922380D01*
X150357140Y-102922380D02*
X150309521Y-102827142D01*
X150309521Y-102827142D02*
X150309521Y-102636666D01*
X150309521Y-102636666D02*
X150357140Y-102541428D01*
X150357140Y-102541428D02*
X150404759Y-102493809D01*
X150404759Y-102493809D02*
X150499997Y-102446190D01*
X182357142Y-103637619D02*
X182119047Y-104637619D01*
X182119047Y-104637619D02*
X181928571Y-103923333D01*
X181928571Y-103923333D02*
X181738095Y-104637619D01*
X181738095Y-104637619D02*
X181500000Y-103637619D01*
X181119047Y-104637619D02*
X181119047Y-103637619D01*
X180690476Y-104637619D02*
X180690476Y-104113809D01*
X180690476Y-104113809D02*
X180738095Y-104018571D01*
X180738095Y-104018571D02*
X180833333Y-103970952D01*
X180833333Y-103970952D02*
X180976190Y-103970952D01*
X180976190Y-103970952D02*
X181071428Y-104018571D01*
X181071428Y-104018571D02*
X181119047Y-104066190D01*
X179833333Y-104590000D02*
X179928571Y-104637619D01*
X179928571Y-104637619D02*
X180119047Y-104637619D01*
X180119047Y-104637619D02*
X180214285Y-104590000D01*
X180214285Y-104590000D02*
X180261904Y-104494761D01*
X180261904Y-104494761D02*
X180261904Y-104113809D01*
X180261904Y-104113809D02*
X180214285Y-104018571D01*
X180214285Y-104018571D02*
X180119047Y-103970952D01*
X180119047Y-103970952D02*
X179928571Y-103970952D01*
X179928571Y-103970952D02*
X179833333Y-104018571D01*
X179833333Y-104018571D02*
X179785714Y-104113809D01*
X179785714Y-104113809D02*
X179785714Y-104209047D01*
X179785714Y-104209047D02*
X180261904Y-104304285D01*
X179357142Y-103970952D02*
X179357142Y-104637619D01*
X179357142Y-104066190D02*
X179309523Y-104018571D01*
X179309523Y-104018571D02*
X179214285Y-103970952D01*
X179214285Y-103970952D02*
X179071428Y-103970952D01*
X179071428Y-103970952D02*
X178976190Y-104018571D01*
X178976190Y-104018571D02*
X178928571Y-104113809D01*
X178928571Y-104113809D02*
X178928571Y-104637619D01*
X177833332Y-103970952D02*
X177452380Y-103970952D01*
X177690475Y-104637619D02*
X177690475Y-103780476D01*
X177690475Y-103780476D02*
X177642856Y-103685238D01*
X177642856Y-103685238D02*
X177547618Y-103637619D01*
X177547618Y-103637619D02*
X177452380Y-103637619D01*
X176690475Y-103970952D02*
X176690475Y-104637619D01*
X177119046Y-103970952D02*
X177119046Y-104494761D01*
X177119046Y-104494761D02*
X177071427Y-104590000D01*
X177071427Y-104590000D02*
X176976189Y-104637619D01*
X176976189Y-104637619D02*
X176833332Y-104637619D01*
X176833332Y-104637619D02*
X176738094Y-104590000D01*
X176738094Y-104590000D02*
X176690475Y-104542380D01*
X176071427Y-104637619D02*
X176166665Y-104590000D01*
X176166665Y-104590000D02*
X176214284Y-104494761D01*
X176214284Y-104494761D02*
X176214284Y-103637619D01*
X175547617Y-104637619D02*
X175642855Y-104590000D01*
X175642855Y-104590000D02*
X175690474Y-104494761D01*
X175690474Y-104494761D02*
X175690474Y-103637619D01*
X175261902Y-103970952D02*
X175023807Y-104637619D01*
X174785712Y-103970952D02*
X175023807Y-104637619D01*
X175023807Y-104637619D02*
X175119045Y-104875714D01*
X175119045Y-104875714D02*
X175166664Y-104923333D01*
X175166664Y-104923333D02*
X175261902Y-104970952D01*
X173214283Y-104637619D02*
X173214283Y-104113809D01*
X173214283Y-104113809D02*
X173261902Y-104018571D01*
X173261902Y-104018571D02*
X173357140Y-103970952D01*
X173357140Y-103970952D02*
X173547616Y-103970952D01*
X173547616Y-103970952D02*
X173642854Y-104018571D01*
X173214283Y-104590000D02*
X173309521Y-104637619D01*
X173309521Y-104637619D02*
X173547616Y-104637619D01*
X173547616Y-104637619D02*
X173642854Y-104590000D01*
X173642854Y-104590000D02*
X173690473Y-104494761D01*
X173690473Y-104494761D02*
X173690473Y-104399523D01*
X173690473Y-104399523D02*
X173642854Y-104304285D01*
X173642854Y-104304285D02*
X173547616Y-104256666D01*
X173547616Y-104256666D02*
X173309521Y-104256666D01*
X173309521Y-104256666D02*
X173214283Y-104209047D01*
X172785711Y-104590000D02*
X172690473Y-104637619D01*
X172690473Y-104637619D02*
X172499997Y-104637619D01*
X172499997Y-104637619D02*
X172404759Y-104590000D01*
X172404759Y-104590000D02*
X172357140Y-104494761D01*
X172357140Y-104494761D02*
X172357140Y-104447142D01*
X172357140Y-104447142D02*
X172404759Y-104351904D01*
X172404759Y-104351904D02*
X172499997Y-104304285D01*
X172499997Y-104304285D02*
X172642854Y-104304285D01*
X172642854Y-104304285D02*
X172738092Y-104256666D01*
X172738092Y-104256666D02*
X172785711Y-104161428D01*
X172785711Y-104161428D02*
X172785711Y-104113809D01*
X172785711Y-104113809D02*
X172738092Y-104018571D01*
X172738092Y-104018571D02*
X172642854Y-103970952D01*
X172642854Y-103970952D02*
X172499997Y-103970952D01*
X172499997Y-103970952D02*
X172404759Y-104018571D01*
X171976187Y-104590000D02*
X171880949Y-104637619D01*
X171880949Y-104637619D02*
X171690473Y-104637619D01*
X171690473Y-104637619D02*
X171595235Y-104590000D01*
X171595235Y-104590000D02*
X171547616Y-104494761D01*
X171547616Y-104494761D02*
X171547616Y-104447142D01*
X171547616Y-104447142D02*
X171595235Y-104351904D01*
X171595235Y-104351904D02*
X171690473Y-104304285D01*
X171690473Y-104304285D02*
X171833330Y-104304285D01*
X171833330Y-104304285D02*
X171928568Y-104256666D01*
X171928568Y-104256666D02*
X171976187Y-104161428D01*
X171976187Y-104161428D02*
X171976187Y-104113809D01*
X171976187Y-104113809D02*
X171928568Y-104018571D01*
X171928568Y-104018571D02*
X171833330Y-103970952D01*
X171833330Y-103970952D02*
X171690473Y-103970952D01*
X171690473Y-103970952D02*
X171595235Y-104018571D01*
X170738092Y-104590000D02*
X170833330Y-104637619D01*
X170833330Y-104637619D02*
X171023806Y-104637619D01*
X171023806Y-104637619D02*
X171119044Y-104590000D01*
X171119044Y-104590000D02*
X171166663Y-104494761D01*
X171166663Y-104494761D02*
X171166663Y-104113809D01*
X171166663Y-104113809D02*
X171119044Y-104018571D01*
X171119044Y-104018571D02*
X171023806Y-103970952D01*
X171023806Y-103970952D02*
X170833330Y-103970952D01*
X170833330Y-103970952D02*
X170738092Y-104018571D01*
X170738092Y-104018571D02*
X170690473Y-104113809D01*
X170690473Y-104113809D02*
X170690473Y-104209047D01*
X170690473Y-104209047D02*
X171166663Y-104304285D01*
X170261901Y-104637619D02*
X170261901Y-103970952D01*
X170261901Y-104066190D02*
X170214282Y-104018571D01*
X170214282Y-104018571D02*
X170119044Y-103970952D01*
X170119044Y-103970952D02*
X169976187Y-103970952D01*
X169976187Y-103970952D02*
X169880949Y-104018571D01*
X169880949Y-104018571D02*
X169833330Y-104113809D01*
X169833330Y-104113809D02*
X169833330Y-104637619D01*
X169833330Y-104113809D02*
X169785711Y-104018571D01*
X169785711Y-104018571D02*
X169690473Y-103970952D01*
X169690473Y-103970952D02*
X169547616Y-103970952D01*
X169547616Y-103970952D02*
X169452377Y-104018571D01*
X169452377Y-104018571D02*
X169404758Y-104113809D01*
X169404758Y-104113809D02*
X169404758Y-104637619D01*
X168928568Y-104637619D02*
X168928568Y-103637619D01*
X168928568Y-104018571D02*
X168833330Y-103970952D01*
X168833330Y-103970952D02*
X168642854Y-103970952D01*
X168642854Y-103970952D02*
X168547616Y-104018571D01*
X168547616Y-104018571D02*
X168499997Y-104066190D01*
X168499997Y-104066190D02*
X168452378Y-104161428D01*
X168452378Y-104161428D02*
X168452378Y-104447142D01*
X168452378Y-104447142D02*
X168499997Y-104542380D01*
X168499997Y-104542380D02*
X168547616Y-104590000D01*
X168547616Y-104590000D02*
X168642854Y-104637619D01*
X168642854Y-104637619D02*
X168833330Y-104637619D01*
X168833330Y-104637619D02*
X168928568Y-104590000D01*
X167880949Y-104637619D02*
X167976187Y-104590000D01*
X167976187Y-104590000D02*
X168023806Y-104494761D01*
X168023806Y-104494761D02*
X168023806Y-103637619D01*
X167119044Y-104590000D02*
X167214282Y-104637619D01*
X167214282Y-104637619D02*
X167404758Y-104637619D01*
X167404758Y-104637619D02*
X167499996Y-104590000D01*
X167499996Y-104590000D02*
X167547615Y-104494761D01*
X167547615Y-104494761D02*
X167547615Y-104113809D01*
X167547615Y-104113809D02*
X167499996Y-104018571D01*
X167499996Y-104018571D02*
X167404758Y-103970952D01*
X167404758Y-103970952D02*
X167214282Y-103970952D01*
X167214282Y-103970952D02*
X167119044Y-104018571D01*
X167119044Y-104018571D02*
X167071425Y-104113809D01*
X167071425Y-104113809D02*
X167071425Y-104209047D01*
X167071425Y-104209047D02*
X167547615Y-104304285D01*
X166214282Y-104637619D02*
X166214282Y-103637619D01*
X166214282Y-104590000D02*
X166309520Y-104637619D01*
X166309520Y-104637619D02*
X166499996Y-104637619D01*
X166499996Y-104637619D02*
X166595234Y-104590000D01*
X166595234Y-104590000D02*
X166642853Y-104542380D01*
X166642853Y-104542380D02*
X166690472Y-104447142D01*
X166690472Y-104447142D02*
X166690472Y-104161428D01*
X166690472Y-104161428D02*
X166642853Y-104066190D01*
X166642853Y-104066190D02*
X166595234Y-104018571D01*
X166595234Y-104018571D02*
X166499996Y-103970952D01*
X166499996Y-103970952D02*
X166309520Y-103970952D01*
X166309520Y-103970952D02*
X166214282Y-104018571D01*
X165690472Y-104590000D02*
X165690472Y-104637619D01*
X165690472Y-104637619D02*
X165738091Y-104732857D01*
X165738091Y-104732857D02*
X165785710Y-104780476D01*
X164214282Y-103637619D02*
X164214282Y-104351904D01*
X164214282Y-104351904D02*
X164261901Y-104494761D01*
X164261901Y-104494761D02*
X164357139Y-104590000D01*
X164357139Y-104590000D02*
X164499996Y-104637619D01*
X164499996Y-104637619D02*
X164595234Y-104637619D01*
X163785710Y-103732857D02*
X163738091Y-103685238D01*
X163738091Y-103685238D02*
X163642853Y-103637619D01*
X163642853Y-103637619D02*
X163404758Y-103637619D01*
X163404758Y-103637619D02*
X163309520Y-103685238D01*
X163309520Y-103685238D02*
X163261901Y-103732857D01*
X163261901Y-103732857D02*
X163214282Y-103828095D01*
X163214282Y-103828095D02*
X163214282Y-103923333D01*
X163214282Y-103923333D02*
X163261901Y-104066190D01*
X163261901Y-104066190D02*
X163833329Y-104637619D01*
X163833329Y-104637619D02*
X163214282Y-104637619D01*
X162023805Y-104637619D02*
X162023805Y-103970952D01*
X162023805Y-103637619D02*
X162071424Y-103685238D01*
X162071424Y-103685238D02*
X162023805Y-103732857D01*
X162023805Y-103732857D02*
X161976186Y-103685238D01*
X161976186Y-103685238D02*
X162023805Y-103637619D01*
X162023805Y-103637619D02*
X162023805Y-103732857D01*
X161595234Y-104590000D02*
X161499996Y-104637619D01*
X161499996Y-104637619D02*
X161309520Y-104637619D01*
X161309520Y-104637619D02*
X161214282Y-104590000D01*
X161214282Y-104590000D02*
X161166663Y-104494761D01*
X161166663Y-104494761D02*
X161166663Y-104447142D01*
X161166663Y-104447142D02*
X161214282Y-104351904D01*
X161214282Y-104351904D02*
X161309520Y-104304285D01*
X161309520Y-104304285D02*
X161452377Y-104304285D01*
X161452377Y-104304285D02*
X161547615Y-104256666D01*
X161547615Y-104256666D02*
X161595234Y-104161428D01*
X161595234Y-104161428D02*
X161595234Y-104113809D01*
X161595234Y-104113809D02*
X161547615Y-104018571D01*
X161547615Y-104018571D02*
X161452377Y-103970952D01*
X161452377Y-103970952D02*
X161309520Y-103970952D01*
X161309520Y-103970952D02*
X161214282Y-104018571D01*
X159547615Y-104590000D02*
X159642853Y-104637619D01*
X159642853Y-104637619D02*
X159833329Y-104637619D01*
X159833329Y-104637619D02*
X159928567Y-104590000D01*
X159928567Y-104590000D02*
X159976186Y-104542380D01*
X159976186Y-104542380D02*
X160023805Y-104447142D01*
X160023805Y-104447142D02*
X160023805Y-104161428D01*
X160023805Y-104161428D02*
X159976186Y-104066190D01*
X159976186Y-104066190D02*
X159928567Y-104018571D01*
X159928567Y-104018571D02*
X159833329Y-103970952D01*
X159833329Y-103970952D02*
X159642853Y-103970952D01*
X159642853Y-103970952D02*
X159547615Y-104018571D01*
X158976186Y-104637619D02*
X159071424Y-104590000D01*
X159071424Y-104590000D02*
X159119043Y-104542380D01*
X159119043Y-104542380D02*
X159166662Y-104447142D01*
X159166662Y-104447142D02*
X159166662Y-104161428D01*
X159166662Y-104161428D02*
X159119043Y-104066190D01*
X159119043Y-104066190D02*
X159071424Y-104018571D01*
X159071424Y-104018571D02*
X158976186Y-103970952D01*
X158976186Y-103970952D02*
X158833329Y-103970952D01*
X158833329Y-103970952D02*
X158738091Y-104018571D01*
X158738091Y-104018571D02*
X158690472Y-104066190D01*
X158690472Y-104066190D02*
X158642853Y-104161428D01*
X158642853Y-104161428D02*
X158642853Y-104447142D01*
X158642853Y-104447142D02*
X158690472Y-104542380D01*
X158690472Y-104542380D02*
X158738091Y-104590000D01*
X158738091Y-104590000D02*
X158833329Y-104637619D01*
X158833329Y-104637619D02*
X158976186Y-104637619D01*
X158214281Y-103970952D02*
X158214281Y-104637619D01*
X158214281Y-104066190D02*
X158166662Y-104018571D01*
X158166662Y-104018571D02*
X158071424Y-103970952D01*
X158071424Y-103970952D02*
X157928567Y-103970952D01*
X157928567Y-103970952D02*
X157833329Y-104018571D01*
X157833329Y-104018571D02*
X157785710Y-104113809D01*
X157785710Y-104113809D02*
X157785710Y-104637619D01*
X157309519Y-103970952D02*
X157309519Y-104637619D01*
X157309519Y-104066190D02*
X157261900Y-104018571D01*
X157261900Y-104018571D02*
X157166662Y-103970952D01*
X157166662Y-103970952D02*
X157023805Y-103970952D01*
X157023805Y-103970952D02*
X156928567Y-104018571D01*
X156928567Y-104018571D02*
X156880948Y-104113809D01*
X156880948Y-104113809D02*
X156880948Y-104637619D01*
X156023805Y-104590000D02*
X156119043Y-104637619D01*
X156119043Y-104637619D02*
X156309519Y-104637619D01*
X156309519Y-104637619D02*
X156404757Y-104590000D01*
X156404757Y-104590000D02*
X156452376Y-104494761D01*
X156452376Y-104494761D02*
X156452376Y-104113809D01*
X156452376Y-104113809D02*
X156404757Y-104018571D01*
X156404757Y-104018571D02*
X156309519Y-103970952D01*
X156309519Y-103970952D02*
X156119043Y-103970952D01*
X156119043Y-103970952D02*
X156023805Y-104018571D01*
X156023805Y-104018571D02*
X155976186Y-104113809D01*
X155976186Y-104113809D02*
X155976186Y-104209047D01*
X155976186Y-104209047D02*
X156452376Y-104304285D01*
X155119043Y-104590000D02*
X155214281Y-104637619D01*
X155214281Y-104637619D02*
X155404757Y-104637619D01*
X155404757Y-104637619D02*
X155499995Y-104590000D01*
X155499995Y-104590000D02*
X155547614Y-104542380D01*
X155547614Y-104542380D02*
X155595233Y-104447142D01*
X155595233Y-104447142D02*
X155595233Y-104161428D01*
X155595233Y-104161428D02*
X155547614Y-104066190D01*
X155547614Y-104066190D02*
X155499995Y-104018571D01*
X155499995Y-104018571D02*
X155404757Y-103970952D01*
X155404757Y-103970952D02*
X155214281Y-103970952D01*
X155214281Y-103970952D02*
X155119043Y-104018571D01*
X154833328Y-103970952D02*
X154452376Y-103970952D01*
X154690471Y-103637619D02*
X154690471Y-104494761D01*
X154690471Y-104494761D02*
X154642852Y-104590000D01*
X154642852Y-104590000D02*
X154547614Y-104637619D01*
X154547614Y-104637619D02*
X154452376Y-104637619D01*
X153738090Y-104590000D02*
X153833328Y-104637619D01*
X153833328Y-104637619D02*
X154023804Y-104637619D01*
X154023804Y-104637619D02*
X154119042Y-104590000D01*
X154119042Y-104590000D02*
X154166661Y-104494761D01*
X154166661Y-104494761D02*
X154166661Y-104113809D01*
X154166661Y-104113809D02*
X154119042Y-104018571D01*
X154119042Y-104018571D02*
X154023804Y-103970952D01*
X154023804Y-103970952D02*
X153833328Y-103970952D01*
X153833328Y-103970952D02*
X153738090Y-104018571D01*
X153738090Y-104018571D02*
X153690471Y-104113809D01*
X153690471Y-104113809D02*
X153690471Y-104209047D01*
X153690471Y-104209047D02*
X154166661Y-104304285D01*
X152833328Y-104637619D02*
X152833328Y-103637619D01*
X152833328Y-104590000D02*
X152928566Y-104637619D01*
X152928566Y-104637619D02*
X153119042Y-104637619D01*
X153119042Y-104637619D02*
X153214280Y-104590000D01*
X153214280Y-104590000D02*
X153261899Y-104542380D01*
X153261899Y-104542380D02*
X153309518Y-104447142D01*
X153309518Y-104447142D02*
X153309518Y-104161428D01*
X153309518Y-104161428D02*
X153261899Y-104066190D01*
X153261899Y-104066190D02*
X153214280Y-104018571D01*
X153214280Y-104018571D02*
X153119042Y-103970952D01*
X153119042Y-103970952D02*
X152928566Y-103970952D01*
X152928566Y-103970952D02*
X152833328Y-104018571D01*
X151738089Y-103970952D02*
X151357137Y-103970952D01*
X151595232Y-103637619D02*
X151595232Y-104494761D01*
X151595232Y-104494761D02*
X151547613Y-104590000D01*
X151547613Y-104590000D02*
X151452375Y-104637619D01*
X151452375Y-104637619D02*
X151357137Y-104637619D01*
X150880946Y-104637619D02*
X150976184Y-104590000D01*
X150976184Y-104590000D02*
X151023803Y-104542380D01*
X151023803Y-104542380D02*
X151071422Y-104447142D01*
X151071422Y-104447142D02*
X151071422Y-104161428D01*
X151071422Y-104161428D02*
X151023803Y-104066190D01*
X151023803Y-104066190D02*
X150976184Y-104018571D01*
X150976184Y-104018571D02*
X150880946Y-103970952D01*
X150880946Y-103970952D02*
X150738089Y-103970952D01*
X150738089Y-103970952D02*
X150642851Y-104018571D01*
X150642851Y-104018571D02*
X150595232Y-104066190D01*
X150595232Y-104066190D02*
X150547613Y-104161428D01*
X150547613Y-104161428D02*
X150547613Y-104447142D01*
X150547613Y-104447142D02*
X150595232Y-104542380D01*
X150595232Y-104542380D02*
X150642851Y-104590000D01*
X150642851Y-104590000D02*
X150738089Y-104637619D01*
X150738089Y-104637619D02*
X150880946Y-104637619D01*
X149499993Y-103970952D02*
X149119041Y-103970952D01*
X149357136Y-103637619D02*
X149357136Y-104494761D01*
X149357136Y-104494761D02*
X149309517Y-104590000D01*
X149309517Y-104590000D02*
X149214279Y-104637619D01*
X149214279Y-104637619D02*
X149119041Y-104637619D01*
X148785707Y-104637619D02*
X148785707Y-103637619D01*
X148357136Y-104637619D02*
X148357136Y-104113809D01*
X148357136Y-104113809D02*
X148404755Y-104018571D01*
X148404755Y-104018571D02*
X148499993Y-103970952D01*
X148499993Y-103970952D02*
X148642850Y-103970952D01*
X148642850Y-103970952D02*
X148738088Y-104018571D01*
X148738088Y-104018571D02*
X148785707Y-104066190D01*
X147499993Y-104590000D02*
X147595231Y-104637619D01*
X147595231Y-104637619D02*
X147785707Y-104637619D01*
X147785707Y-104637619D02*
X147880945Y-104590000D01*
X147880945Y-104590000D02*
X147928564Y-104494761D01*
X147928564Y-104494761D02*
X147928564Y-104113809D01*
X147928564Y-104113809D02*
X147880945Y-104018571D01*
X147880945Y-104018571D02*
X147785707Y-103970952D01*
X147785707Y-103970952D02*
X147595231Y-103970952D01*
X147595231Y-103970952D02*
X147499993Y-104018571D01*
X147499993Y-104018571D02*
X147452374Y-104113809D01*
X147452374Y-104113809D02*
X147452374Y-104209047D01*
X147452374Y-104209047D02*
X147928564Y-104304285D01*
X145880945Y-104590000D02*
X145976183Y-104637619D01*
X145976183Y-104637619D02*
X146166659Y-104637619D01*
X146166659Y-104637619D02*
X146261897Y-104590000D01*
X146261897Y-104590000D02*
X146309516Y-104494761D01*
X146309516Y-104494761D02*
X146309516Y-104113809D01*
X146309516Y-104113809D02*
X146261897Y-104018571D01*
X146261897Y-104018571D02*
X146166659Y-103970952D01*
X146166659Y-103970952D02*
X145976183Y-103970952D01*
X145976183Y-103970952D02*
X145880945Y-104018571D01*
X145880945Y-104018571D02*
X145833326Y-104113809D01*
X145833326Y-104113809D02*
X145833326Y-104209047D01*
X145833326Y-104209047D02*
X146309516Y-104304285D01*
X145404754Y-103970952D02*
X145404754Y-104637619D01*
X145404754Y-104066190D02*
X145357135Y-104018571D01*
X145357135Y-104018571D02*
X145261897Y-103970952D01*
X145261897Y-103970952D02*
X145119040Y-103970952D01*
X145119040Y-103970952D02*
X145023802Y-104018571D01*
X145023802Y-104018571D02*
X144976183Y-104113809D01*
X144976183Y-104113809D02*
X144976183Y-104637619D01*
X144071421Y-104590000D02*
X144166659Y-104637619D01*
X144166659Y-104637619D02*
X144357135Y-104637619D01*
X144357135Y-104637619D02*
X144452373Y-104590000D01*
X144452373Y-104590000D02*
X144499992Y-104542380D01*
X144499992Y-104542380D02*
X144547611Y-104447142D01*
X144547611Y-104447142D02*
X144547611Y-104161428D01*
X144547611Y-104161428D02*
X144499992Y-104066190D01*
X144499992Y-104066190D02*
X144452373Y-104018571D01*
X144452373Y-104018571D02*
X144357135Y-103970952D01*
X144357135Y-103970952D02*
X144166659Y-103970952D01*
X144166659Y-103970952D02*
X144071421Y-104018571D01*
X143499992Y-104637619D02*
X143595230Y-104590000D01*
X143595230Y-104590000D02*
X143642849Y-104494761D01*
X143642849Y-104494761D02*
X143642849Y-103637619D01*
X142976182Y-104637619D02*
X143071420Y-104590000D01*
X143071420Y-104590000D02*
X143119039Y-104542380D01*
X143119039Y-104542380D02*
X143166658Y-104447142D01*
X143166658Y-104447142D02*
X143166658Y-104161428D01*
X143166658Y-104161428D02*
X143119039Y-104066190D01*
X143119039Y-104066190D02*
X143071420Y-104018571D01*
X143071420Y-104018571D02*
X142976182Y-103970952D01*
X142976182Y-103970952D02*
X142833325Y-103970952D01*
X142833325Y-103970952D02*
X142738087Y-104018571D01*
X142738087Y-104018571D02*
X142690468Y-104066190D01*
X142690468Y-104066190D02*
X142642849Y-104161428D01*
X142642849Y-104161428D02*
X142642849Y-104447142D01*
X142642849Y-104447142D02*
X142690468Y-104542380D01*
X142690468Y-104542380D02*
X142738087Y-104590000D01*
X142738087Y-104590000D02*
X142833325Y-104637619D01*
X142833325Y-104637619D02*
X142976182Y-104637619D01*
X142261896Y-104590000D02*
X142166658Y-104637619D01*
X142166658Y-104637619D02*
X141976182Y-104637619D01*
X141976182Y-104637619D02*
X141880944Y-104590000D01*
X141880944Y-104590000D02*
X141833325Y-104494761D01*
X141833325Y-104494761D02*
X141833325Y-104447142D01*
X141833325Y-104447142D02*
X141880944Y-104351904D01*
X141880944Y-104351904D02*
X141976182Y-104304285D01*
X141976182Y-104304285D02*
X142119039Y-104304285D01*
X142119039Y-104304285D02*
X142214277Y-104256666D01*
X142214277Y-104256666D02*
X142261896Y-104161428D01*
X142261896Y-104161428D02*
X142261896Y-104113809D01*
X142261896Y-104113809D02*
X142214277Y-104018571D01*
X142214277Y-104018571D02*
X142119039Y-103970952D01*
X142119039Y-103970952D02*
X141976182Y-103970952D01*
X141976182Y-103970952D02*
X141880944Y-104018571D01*
X140976182Y-103970952D02*
X140976182Y-104637619D01*
X141404753Y-103970952D02*
X141404753Y-104494761D01*
X141404753Y-104494761D02*
X141357134Y-104590000D01*
X141357134Y-104590000D02*
X141261896Y-104637619D01*
X141261896Y-104637619D02*
X141119039Y-104637619D01*
X141119039Y-104637619D02*
X141023801Y-104590000D01*
X141023801Y-104590000D02*
X140976182Y-104542380D01*
X140499991Y-104637619D02*
X140499991Y-103970952D01*
X140499991Y-104161428D02*
X140452372Y-104066190D01*
X140452372Y-104066190D02*
X140404753Y-104018571D01*
X140404753Y-104018571D02*
X140309515Y-103970952D01*
X140309515Y-103970952D02*
X140214277Y-103970952D01*
X139499991Y-104590000D02*
X139595229Y-104637619D01*
X139595229Y-104637619D02*
X139785705Y-104637619D01*
X139785705Y-104637619D02*
X139880943Y-104590000D01*
X139880943Y-104590000D02*
X139928562Y-104494761D01*
X139928562Y-104494761D02*
X139928562Y-104113809D01*
X139928562Y-104113809D02*
X139880943Y-104018571D01*
X139880943Y-104018571D02*
X139785705Y-103970952D01*
X139785705Y-103970952D02*
X139595229Y-103970952D01*
X139595229Y-103970952D02*
X139499991Y-104018571D01*
X139499991Y-104018571D02*
X139452372Y-104113809D01*
X139452372Y-104113809D02*
X139452372Y-104209047D01*
X139452372Y-104209047D02*
X139928562Y-104304285D01*
X139023800Y-104542380D02*
X138976181Y-104590000D01*
X138976181Y-104590000D02*
X139023800Y-104637619D01*
X139023800Y-104637619D02*
X139071419Y-104590000D01*
X139071419Y-104590000D02*
X139023800Y-104542380D01*
X139023800Y-104542380D02*
X139023800Y-104637619D01*
X182261904Y-106257619D02*
X182261904Y-105257619D01*
X181928571Y-105590952D02*
X181547619Y-105590952D01*
X181785714Y-106257619D02*
X181785714Y-105400476D01*
X181785714Y-105400476D02*
X181738095Y-105305238D01*
X181738095Y-105305238D02*
X181642857Y-105257619D01*
X181642857Y-105257619D02*
X181547619Y-105257619D01*
X180452380Y-105590952D02*
X180452380Y-106257619D01*
X180452380Y-105686190D02*
X180404761Y-105638571D01*
X180404761Y-105638571D02*
X180309523Y-105590952D01*
X180309523Y-105590952D02*
X180166666Y-105590952D01*
X180166666Y-105590952D02*
X180071428Y-105638571D01*
X180071428Y-105638571D02*
X180023809Y-105733809D01*
X180023809Y-105733809D02*
X180023809Y-106257619D01*
X179166666Y-106210000D02*
X179261904Y-106257619D01*
X179261904Y-106257619D02*
X179452380Y-106257619D01*
X179452380Y-106257619D02*
X179547618Y-106210000D01*
X179547618Y-106210000D02*
X179595237Y-106114761D01*
X179595237Y-106114761D02*
X179595237Y-105733809D01*
X179595237Y-105733809D02*
X179547618Y-105638571D01*
X179547618Y-105638571D02*
X179452380Y-105590952D01*
X179452380Y-105590952D02*
X179261904Y-105590952D01*
X179261904Y-105590952D02*
X179166666Y-105638571D01*
X179166666Y-105638571D02*
X179119047Y-105733809D01*
X179119047Y-105733809D02*
X179119047Y-105829047D01*
X179119047Y-105829047D02*
X179595237Y-105924285D01*
X178261904Y-106210000D02*
X178357142Y-106257619D01*
X178357142Y-106257619D02*
X178547618Y-106257619D01*
X178547618Y-106257619D02*
X178642856Y-106210000D01*
X178642856Y-106210000D02*
X178690475Y-106162380D01*
X178690475Y-106162380D02*
X178738094Y-106067142D01*
X178738094Y-106067142D02*
X178738094Y-105781428D01*
X178738094Y-105781428D02*
X178690475Y-105686190D01*
X178690475Y-105686190D02*
X178642856Y-105638571D01*
X178642856Y-105638571D02*
X178547618Y-105590952D01*
X178547618Y-105590952D02*
X178357142Y-105590952D01*
X178357142Y-105590952D02*
X178261904Y-105638571D01*
X177452380Y-106210000D02*
X177547618Y-106257619D01*
X177547618Y-106257619D02*
X177738094Y-106257619D01*
X177738094Y-106257619D02*
X177833332Y-106210000D01*
X177833332Y-106210000D02*
X177880951Y-106114761D01*
X177880951Y-106114761D02*
X177880951Y-105733809D01*
X177880951Y-105733809D02*
X177833332Y-105638571D01*
X177833332Y-105638571D02*
X177738094Y-105590952D01*
X177738094Y-105590952D02*
X177547618Y-105590952D01*
X177547618Y-105590952D02*
X177452380Y-105638571D01*
X177452380Y-105638571D02*
X177404761Y-105733809D01*
X177404761Y-105733809D02*
X177404761Y-105829047D01*
X177404761Y-105829047D02*
X177880951Y-105924285D01*
X177023808Y-106210000D02*
X176928570Y-106257619D01*
X176928570Y-106257619D02*
X176738094Y-106257619D01*
X176738094Y-106257619D02*
X176642856Y-106210000D01*
X176642856Y-106210000D02*
X176595237Y-106114761D01*
X176595237Y-106114761D02*
X176595237Y-106067142D01*
X176595237Y-106067142D02*
X176642856Y-105971904D01*
X176642856Y-105971904D02*
X176738094Y-105924285D01*
X176738094Y-105924285D02*
X176880951Y-105924285D01*
X176880951Y-105924285D02*
X176976189Y-105876666D01*
X176976189Y-105876666D02*
X177023808Y-105781428D01*
X177023808Y-105781428D02*
X177023808Y-105733809D01*
X177023808Y-105733809D02*
X176976189Y-105638571D01*
X176976189Y-105638571D02*
X176880951Y-105590952D01*
X176880951Y-105590952D02*
X176738094Y-105590952D01*
X176738094Y-105590952D02*
X176642856Y-105638571D01*
X176214284Y-106210000D02*
X176119046Y-106257619D01*
X176119046Y-106257619D02*
X175928570Y-106257619D01*
X175928570Y-106257619D02*
X175833332Y-106210000D01*
X175833332Y-106210000D02*
X175785713Y-106114761D01*
X175785713Y-106114761D02*
X175785713Y-106067142D01*
X175785713Y-106067142D02*
X175833332Y-105971904D01*
X175833332Y-105971904D02*
X175928570Y-105924285D01*
X175928570Y-105924285D02*
X176071427Y-105924285D01*
X176071427Y-105924285D02*
X176166665Y-105876666D01*
X176166665Y-105876666D02*
X176214284Y-105781428D01*
X176214284Y-105781428D02*
X176214284Y-105733809D01*
X176214284Y-105733809D02*
X176166665Y-105638571D01*
X176166665Y-105638571D02*
X176071427Y-105590952D01*
X176071427Y-105590952D02*
X175928570Y-105590952D01*
X175928570Y-105590952D02*
X175833332Y-105638571D01*
X174928570Y-106257619D02*
X174928570Y-105733809D01*
X174928570Y-105733809D02*
X174976189Y-105638571D01*
X174976189Y-105638571D02*
X175071427Y-105590952D01*
X175071427Y-105590952D02*
X175261903Y-105590952D01*
X175261903Y-105590952D02*
X175357141Y-105638571D01*
X174928570Y-106210000D02*
X175023808Y-106257619D01*
X175023808Y-106257619D02*
X175261903Y-106257619D01*
X175261903Y-106257619D02*
X175357141Y-106210000D01*
X175357141Y-106210000D02*
X175404760Y-106114761D01*
X175404760Y-106114761D02*
X175404760Y-106019523D01*
X175404760Y-106019523D02*
X175357141Y-105924285D01*
X175357141Y-105924285D02*
X175261903Y-105876666D01*
X175261903Y-105876666D02*
X175023808Y-105876666D01*
X175023808Y-105876666D02*
X174928570Y-105829047D01*
X174452379Y-106257619D02*
X174452379Y-105590952D01*
X174452379Y-105781428D02*
X174404760Y-105686190D01*
X174404760Y-105686190D02*
X174357141Y-105638571D01*
X174357141Y-105638571D02*
X174261903Y-105590952D01*
X174261903Y-105590952D02*
X174166665Y-105590952D01*
X173928569Y-105590952D02*
X173690474Y-106257619D01*
X173452379Y-105590952D02*
X173690474Y-106257619D01*
X173690474Y-106257619D02*
X173785712Y-106495714D01*
X173785712Y-106495714D02*
X173833331Y-106543333D01*
X173833331Y-106543333D02*
X173928569Y-106590952D01*
X172309521Y-106257619D02*
X172309521Y-105590952D01*
X172309521Y-105257619D02*
X172357140Y-105305238D01*
X172357140Y-105305238D02*
X172309521Y-105352857D01*
X172309521Y-105352857D02*
X172261902Y-105305238D01*
X172261902Y-105305238D02*
X172309521Y-105257619D01*
X172309521Y-105257619D02*
X172309521Y-105352857D01*
X171976188Y-105590952D02*
X171595236Y-105590952D01*
X171833331Y-105257619D02*
X171833331Y-106114761D01*
X171833331Y-106114761D02*
X171785712Y-106210000D01*
X171785712Y-106210000D02*
X171690474Y-106257619D01*
X171690474Y-106257619D02*
X171595236Y-106257619D01*
X170071426Y-106210000D02*
X170166664Y-106257619D01*
X170166664Y-106257619D02*
X170357140Y-106257619D01*
X170357140Y-106257619D02*
X170452378Y-106210000D01*
X170452378Y-106210000D02*
X170499997Y-106162380D01*
X170499997Y-106162380D02*
X170547616Y-106067142D01*
X170547616Y-106067142D02*
X170547616Y-105781428D01*
X170547616Y-105781428D02*
X170499997Y-105686190D01*
X170499997Y-105686190D02*
X170452378Y-105638571D01*
X170452378Y-105638571D02*
X170357140Y-105590952D01*
X170357140Y-105590952D02*
X170166664Y-105590952D01*
X170166664Y-105590952D02*
X170071426Y-105638571D01*
X169214283Y-106257619D02*
X169214283Y-105733809D01*
X169214283Y-105733809D02*
X169261902Y-105638571D01*
X169261902Y-105638571D02*
X169357140Y-105590952D01*
X169357140Y-105590952D02*
X169547616Y-105590952D01*
X169547616Y-105590952D02*
X169642854Y-105638571D01*
X169214283Y-106210000D02*
X169309521Y-106257619D01*
X169309521Y-106257619D02*
X169547616Y-106257619D01*
X169547616Y-106257619D02*
X169642854Y-106210000D01*
X169642854Y-106210000D02*
X169690473Y-106114761D01*
X169690473Y-106114761D02*
X169690473Y-106019523D01*
X169690473Y-106019523D02*
X169642854Y-105924285D01*
X169642854Y-105924285D02*
X169547616Y-105876666D01*
X169547616Y-105876666D02*
X169309521Y-105876666D01*
X169309521Y-105876666D02*
X169214283Y-105829047D01*
X168738092Y-105590952D02*
X168738092Y-106257619D01*
X168738092Y-105686190D02*
X168690473Y-105638571D01*
X168690473Y-105638571D02*
X168595235Y-105590952D01*
X168595235Y-105590952D02*
X168452378Y-105590952D01*
X168452378Y-105590952D02*
X168357140Y-105638571D01*
X168357140Y-105638571D02*
X168309521Y-105733809D01*
X168309521Y-105733809D02*
X168309521Y-106257619D01*
X167071425Y-106257619D02*
X167071425Y-105257619D01*
X167071425Y-105638571D02*
X166976187Y-105590952D01*
X166976187Y-105590952D02*
X166785711Y-105590952D01*
X166785711Y-105590952D02*
X166690473Y-105638571D01*
X166690473Y-105638571D02*
X166642854Y-105686190D01*
X166642854Y-105686190D02*
X166595235Y-105781428D01*
X166595235Y-105781428D02*
X166595235Y-106067142D01*
X166595235Y-106067142D02*
X166642854Y-106162380D01*
X166642854Y-106162380D02*
X166690473Y-106210000D01*
X166690473Y-106210000D02*
X166785711Y-106257619D01*
X166785711Y-106257619D02*
X166976187Y-106257619D01*
X166976187Y-106257619D02*
X167071425Y-106210000D01*
X165785711Y-106210000D02*
X165880949Y-106257619D01*
X165880949Y-106257619D02*
X166071425Y-106257619D01*
X166071425Y-106257619D02*
X166166663Y-106210000D01*
X166166663Y-106210000D02*
X166214282Y-106114761D01*
X166214282Y-106114761D02*
X166214282Y-105733809D01*
X166214282Y-105733809D02*
X166166663Y-105638571D01*
X166166663Y-105638571D02*
X166071425Y-105590952D01*
X166071425Y-105590952D02*
X165880949Y-105590952D01*
X165880949Y-105590952D02*
X165785711Y-105638571D01*
X165785711Y-105638571D02*
X165738092Y-105733809D01*
X165738092Y-105733809D02*
X165738092Y-105829047D01*
X165738092Y-105829047D02*
X166214282Y-105924285D01*
X164119044Y-105590952D02*
X164119044Y-106257619D01*
X164547615Y-105590952D02*
X164547615Y-106114761D01*
X164547615Y-106114761D02*
X164499996Y-106210000D01*
X164499996Y-106210000D02*
X164404758Y-106257619D01*
X164404758Y-106257619D02*
X164261901Y-106257619D01*
X164261901Y-106257619D02*
X164166663Y-106210000D01*
X164166663Y-106210000D02*
X164119044Y-106162380D01*
X163690472Y-106210000D02*
X163595234Y-106257619D01*
X163595234Y-106257619D02*
X163404758Y-106257619D01*
X163404758Y-106257619D02*
X163309520Y-106210000D01*
X163309520Y-106210000D02*
X163261901Y-106114761D01*
X163261901Y-106114761D02*
X163261901Y-106067142D01*
X163261901Y-106067142D02*
X163309520Y-105971904D01*
X163309520Y-105971904D02*
X163404758Y-105924285D01*
X163404758Y-105924285D02*
X163547615Y-105924285D01*
X163547615Y-105924285D02*
X163642853Y-105876666D01*
X163642853Y-105876666D02*
X163690472Y-105781428D01*
X163690472Y-105781428D02*
X163690472Y-105733809D01*
X163690472Y-105733809D02*
X163642853Y-105638571D01*
X163642853Y-105638571D02*
X163547615Y-105590952D01*
X163547615Y-105590952D02*
X163404758Y-105590952D01*
X163404758Y-105590952D02*
X163309520Y-105638571D01*
X162452377Y-106210000D02*
X162547615Y-106257619D01*
X162547615Y-106257619D02*
X162738091Y-106257619D01*
X162738091Y-106257619D02*
X162833329Y-106210000D01*
X162833329Y-106210000D02*
X162880948Y-106114761D01*
X162880948Y-106114761D02*
X162880948Y-105733809D01*
X162880948Y-105733809D02*
X162833329Y-105638571D01*
X162833329Y-105638571D02*
X162738091Y-105590952D01*
X162738091Y-105590952D02*
X162547615Y-105590952D01*
X162547615Y-105590952D02*
X162452377Y-105638571D01*
X162452377Y-105638571D02*
X162404758Y-105733809D01*
X162404758Y-105733809D02*
X162404758Y-105829047D01*
X162404758Y-105829047D02*
X162880948Y-105924285D01*
X161547615Y-106257619D02*
X161547615Y-105257619D01*
X161547615Y-106210000D02*
X161642853Y-106257619D01*
X161642853Y-106257619D02*
X161833329Y-106257619D01*
X161833329Y-106257619D02*
X161928567Y-106210000D01*
X161928567Y-106210000D02*
X161976186Y-106162380D01*
X161976186Y-106162380D02*
X162023805Y-106067142D01*
X162023805Y-106067142D02*
X162023805Y-105781428D01*
X162023805Y-105781428D02*
X161976186Y-105686190D01*
X161976186Y-105686190D02*
X161928567Y-105638571D01*
X161928567Y-105638571D02*
X161833329Y-105590952D01*
X161833329Y-105590952D02*
X161642853Y-105590952D01*
X161642853Y-105590952D02*
X161547615Y-105638571D01*
X160452376Y-105590952D02*
X160071424Y-105590952D01*
X160309519Y-105257619D02*
X160309519Y-106114761D01*
X160309519Y-106114761D02*
X160261900Y-106210000D01*
X160261900Y-106210000D02*
X160166662Y-106257619D01*
X160166662Y-106257619D02*
X160071424Y-106257619D01*
X159595233Y-106257619D02*
X159690471Y-106210000D01*
X159690471Y-106210000D02*
X159738090Y-106162380D01*
X159738090Y-106162380D02*
X159785709Y-106067142D01*
X159785709Y-106067142D02*
X159785709Y-105781428D01*
X159785709Y-105781428D02*
X159738090Y-105686190D01*
X159738090Y-105686190D02*
X159690471Y-105638571D01*
X159690471Y-105638571D02*
X159595233Y-105590952D01*
X159595233Y-105590952D02*
X159452376Y-105590952D01*
X159452376Y-105590952D02*
X159357138Y-105638571D01*
X159357138Y-105638571D02*
X159309519Y-105686190D01*
X159309519Y-105686190D02*
X159261900Y-105781428D01*
X159261900Y-105781428D02*
X159261900Y-106067142D01*
X159261900Y-106067142D02*
X159309519Y-106162380D01*
X159309519Y-106162380D02*
X159357138Y-106210000D01*
X159357138Y-106210000D02*
X159452376Y-106257619D01*
X159452376Y-106257619D02*
X159595233Y-106257619D01*
X158071423Y-106257619D02*
X158071423Y-105590952D01*
X158071423Y-105686190D02*
X158023804Y-105638571D01*
X158023804Y-105638571D02*
X157928566Y-105590952D01*
X157928566Y-105590952D02*
X157785709Y-105590952D01*
X157785709Y-105590952D02*
X157690471Y-105638571D01*
X157690471Y-105638571D02*
X157642852Y-105733809D01*
X157642852Y-105733809D02*
X157642852Y-106257619D01*
X157642852Y-105733809D02*
X157595233Y-105638571D01*
X157595233Y-105638571D02*
X157499995Y-105590952D01*
X157499995Y-105590952D02*
X157357138Y-105590952D01*
X157357138Y-105590952D02*
X157261899Y-105638571D01*
X157261899Y-105638571D02*
X157214280Y-105733809D01*
X157214280Y-105733809D02*
X157214280Y-106257619D01*
X156595233Y-106257619D02*
X156690471Y-106210000D01*
X156690471Y-106210000D02*
X156738090Y-106162380D01*
X156738090Y-106162380D02*
X156785709Y-106067142D01*
X156785709Y-106067142D02*
X156785709Y-105781428D01*
X156785709Y-105781428D02*
X156738090Y-105686190D01*
X156738090Y-105686190D02*
X156690471Y-105638571D01*
X156690471Y-105638571D02*
X156595233Y-105590952D01*
X156595233Y-105590952D02*
X156452376Y-105590952D01*
X156452376Y-105590952D02*
X156357138Y-105638571D01*
X156357138Y-105638571D02*
X156309519Y-105686190D01*
X156309519Y-105686190D02*
X156261900Y-105781428D01*
X156261900Y-105781428D02*
X156261900Y-106067142D01*
X156261900Y-106067142D02*
X156309519Y-106162380D01*
X156309519Y-106162380D02*
X156357138Y-106210000D01*
X156357138Y-106210000D02*
X156452376Y-106257619D01*
X156452376Y-106257619D02*
X156595233Y-106257619D01*
X155404757Y-106257619D02*
X155404757Y-105257619D01*
X155404757Y-106210000D02*
X155499995Y-106257619D01*
X155499995Y-106257619D02*
X155690471Y-106257619D01*
X155690471Y-106257619D02*
X155785709Y-106210000D01*
X155785709Y-106210000D02*
X155833328Y-106162380D01*
X155833328Y-106162380D02*
X155880947Y-106067142D01*
X155880947Y-106067142D02*
X155880947Y-105781428D01*
X155880947Y-105781428D02*
X155833328Y-105686190D01*
X155833328Y-105686190D02*
X155785709Y-105638571D01*
X155785709Y-105638571D02*
X155690471Y-105590952D01*
X155690471Y-105590952D02*
X155499995Y-105590952D01*
X155499995Y-105590952D02*
X155404757Y-105638571D01*
X155023804Y-105590952D02*
X154833328Y-106257619D01*
X154833328Y-106257619D02*
X154642852Y-105781428D01*
X154642852Y-105781428D02*
X154452376Y-106257619D01*
X154452376Y-106257619D02*
X154261900Y-105590952D01*
X153880947Y-106257619D02*
X153880947Y-105590952D01*
X153880947Y-105257619D02*
X153928566Y-105305238D01*
X153928566Y-105305238D02*
X153880947Y-105352857D01*
X153880947Y-105352857D02*
X153833328Y-105305238D01*
X153833328Y-105305238D02*
X153880947Y-105257619D01*
X153880947Y-105257619D02*
X153880947Y-105352857D01*
X153404757Y-106257619D02*
X153404757Y-105590952D01*
X153404757Y-105781428D02*
X153357138Y-105686190D01*
X153357138Y-105686190D02*
X153309519Y-105638571D01*
X153309519Y-105638571D02*
X153214281Y-105590952D01*
X153214281Y-105590952D02*
X153119043Y-105590952D01*
X152404757Y-106210000D02*
X152499995Y-106257619D01*
X152499995Y-106257619D02*
X152690471Y-106257619D01*
X152690471Y-106257619D02*
X152785709Y-106210000D01*
X152785709Y-106210000D02*
X152833328Y-106114761D01*
X152833328Y-106114761D02*
X152833328Y-105733809D01*
X152833328Y-105733809D02*
X152785709Y-105638571D01*
X152785709Y-105638571D02*
X152690471Y-105590952D01*
X152690471Y-105590952D02*
X152499995Y-105590952D01*
X152499995Y-105590952D02*
X152404757Y-105638571D01*
X152404757Y-105638571D02*
X152357138Y-105733809D01*
X152357138Y-105733809D02*
X152357138Y-105829047D01*
X152357138Y-105829047D02*
X152833328Y-105924285D01*
X150738090Y-106257619D02*
X150738090Y-105733809D01*
X150738090Y-105733809D02*
X150785709Y-105638571D01*
X150785709Y-105638571D02*
X150880947Y-105590952D01*
X150880947Y-105590952D02*
X151071423Y-105590952D01*
X151071423Y-105590952D02*
X151166661Y-105638571D01*
X150738090Y-106210000D02*
X150833328Y-106257619D01*
X150833328Y-106257619D02*
X151071423Y-106257619D01*
X151071423Y-106257619D02*
X151166661Y-106210000D01*
X151166661Y-106210000D02*
X151214280Y-106114761D01*
X151214280Y-106114761D02*
X151214280Y-106019523D01*
X151214280Y-106019523D02*
X151166661Y-105924285D01*
X151166661Y-105924285D02*
X151071423Y-105876666D01*
X151071423Y-105876666D02*
X150833328Y-105876666D01*
X150833328Y-105876666D02*
X150738090Y-105829047D01*
X149547613Y-106210000D02*
X149452375Y-106257619D01*
X149452375Y-106257619D02*
X149261899Y-106257619D01*
X149261899Y-106257619D02*
X149166661Y-106210000D01*
X149166661Y-106210000D02*
X149119042Y-106114761D01*
X149119042Y-106114761D02*
X149119042Y-106067142D01*
X149119042Y-106067142D02*
X149166661Y-105971904D01*
X149166661Y-105971904D02*
X149261899Y-105924285D01*
X149261899Y-105924285D02*
X149404756Y-105924285D01*
X149404756Y-105924285D02*
X149499994Y-105876666D01*
X149499994Y-105876666D02*
X149547613Y-105781428D01*
X149547613Y-105781428D02*
X149547613Y-105733809D01*
X149547613Y-105733809D02*
X149499994Y-105638571D01*
X149499994Y-105638571D02*
X149404756Y-105590952D01*
X149404756Y-105590952D02*
X149261899Y-105590952D01*
X149261899Y-105590952D02*
X149166661Y-105638571D01*
X148690470Y-106257619D02*
X148690470Y-105257619D01*
X148261899Y-106257619D02*
X148261899Y-105733809D01*
X148261899Y-105733809D02*
X148309518Y-105638571D01*
X148309518Y-105638571D02*
X148404756Y-105590952D01*
X148404756Y-105590952D02*
X148547613Y-105590952D01*
X148547613Y-105590952D02*
X148642851Y-105638571D01*
X148642851Y-105638571D02*
X148690470Y-105686190D01*
X147357137Y-105590952D02*
X147357137Y-106257619D01*
X147785708Y-105590952D02*
X147785708Y-106114761D01*
X147785708Y-106114761D02*
X147738089Y-106210000D01*
X147738089Y-106210000D02*
X147642851Y-106257619D01*
X147642851Y-106257619D02*
X147499994Y-106257619D01*
X147499994Y-106257619D02*
X147404756Y-106210000D01*
X147404756Y-106210000D02*
X147357137Y-106162380D01*
X146880946Y-105590952D02*
X146880946Y-106257619D01*
X146880946Y-105686190D02*
X146833327Y-105638571D01*
X146833327Y-105638571D02*
X146738089Y-105590952D01*
X146738089Y-105590952D02*
X146595232Y-105590952D01*
X146595232Y-105590952D02*
X146499994Y-105638571D01*
X146499994Y-105638571D02*
X146452375Y-105733809D01*
X146452375Y-105733809D02*
X146452375Y-106257619D01*
X146119041Y-105590952D02*
X145738089Y-105590952D01*
X145976184Y-105257619D02*
X145976184Y-106114761D01*
X145976184Y-106114761D02*
X145928565Y-106210000D01*
X145928565Y-106210000D02*
X145833327Y-106257619D01*
X145833327Y-106257619D02*
X145738089Y-106257619D01*
X144785707Y-105590952D02*
X144404755Y-105590952D01*
X144642850Y-105257619D02*
X144642850Y-106114761D01*
X144642850Y-106114761D02*
X144595231Y-106210000D01*
X144595231Y-106210000D02*
X144499993Y-106257619D01*
X144499993Y-106257619D02*
X144404755Y-106257619D01*
X143928564Y-106257619D02*
X144023802Y-106210000D01*
X144023802Y-106210000D02*
X144071421Y-106162380D01*
X144071421Y-106162380D02*
X144119040Y-106067142D01*
X144119040Y-106067142D02*
X144119040Y-105781428D01*
X144119040Y-105781428D02*
X144071421Y-105686190D01*
X144071421Y-105686190D02*
X144023802Y-105638571D01*
X144023802Y-105638571D02*
X143928564Y-105590952D01*
X143928564Y-105590952D02*
X143785707Y-105590952D01*
X143785707Y-105590952D02*
X143690469Y-105638571D01*
X143690469Y-105638571D02*
X143642850Y-105686190D01*
X143642850Y-105686190D02*
X143595231Y-105781428D01*
X143595231Y-105781428D02*
X143595231Y-106067142D01*
X143595231Y-106067142D02*
X143642850Y-106162380D01*
X143642850Y-106162380D02*
X143690469Y-106210000D01*
X143690469Y-106210000D02*
X143785707Y-106257619D01*
X143785707Y-106257619D02*
X143928564Y-106257619D01*
X142547611Y-105257619D02*
X141976183Y-105257619D01*
X142261897Y-106257619D02*
X142261897Y-105257619D01*
X141642849Y-106257619D02*
X141642849Y-105257619D01*
X141642849Y-105257619D02*
X141261897Y-105257619D01*
X141261897Y-105257619D02*
X141166659Y-105305238D01*
X141166659Y-105305238D02*
X141119040Y-105352857D01*
X141119040Y-105352857D02*
X141071421Y-105448095D01*
X141071421Y-105448095D02*
X141071421Y-105590952D01*
X141071421Y-105590952D02*
X141119040Y-105686190D01*
X141119040Y-105686190D02*
X141166659Y-105733809D01*
X141166659Y-105733809D02*
X141261897Y-105781428D01*
X141261897Y-105781428D02*
X141642849Y-105781428D01*
X140166659Y-105257619D02*
X140642849Y-105257619D01*
X140642849Y-105257619D02*
X140690468Y-105733809D01*
X140690468Y-105733809D02*
X140642849Y-105686190D01*
X140642849Y-105686190D02*
X140547611Y-105638571D01*
X140547611Y-105638571D02*
X140309516Y-105638571D01*
X140309516Y-105638571D02*
X140214278Y-105686190D01*
X140214278Y-105686190D02*
X140166659Y-105733809D01*
X140166659Y-105733809D02*
X140119040Y-105829047D01*
X140119040Y-105829047D02*
X140119040Y-106067142D01*
X140119040Y-106067142D02*
X140166659Y-106162380D01*
X140166659Y-106162380D02*
X140214278Y-106210000D01*
X140214278Y-106210000D02*
X140309516Y-106257619D01*
X140309516Y-106257619D02*
X140547611Y-106257619D01*
X140547611Y-106257619D02*
X140642849Y-106210000D01*
X140642849Y-106210000D02*
X140690468Y-106162380D01*
X138785706Y-106257619D02*
X138880944Y-106210000D01*
X138880944Y-106210000D02*
X138928563Y-106162380D01*
X138928563Y-106162380D02*
X138976182Y-106067142D01*
X138976182Y-106067142D02*
X138976182Y-105781428D01*
X138976182Y-105781428D02*
X138928563Y-105686190D01*
X138928563Y-105686190D02*
X138880944Y-105638571D01*
X138880944Y-105638571D02*
X138785706Y-105590952D01*
X138785706Y-105590952D02*
X138642849Y-105590952D01*
X138642849Y-105590952D02*
X138547611Y-105638571D01*
X138547611Y-105638571D02*
X138499992Y-105686190D01*
X138499992Y-105686190D02*
X138452373Y-105781428D01*
X138452373Y-105781428D02*
X138452373Y-106067142D01*
X138452373Y-106067142D02*
X138499992Y-106162380D01*
X138499992Y-106162380D02*
X138547611Y-106210000D01*
X138547611Y-106210000D02*
X138642849Y-106257619D01*
X138642849Y-106257619D02*
X138785706Y-106257619D01*
X138023801Y-105590952D02*
X138023801Y-106257619D01*
X138023801Y-105686190D02*
X137976182Y-105638571D01*
X137976182Y-105638571D02*
X137880944Y-105590952D01*
X137880944Y-105590952D02*
X137738087Y-105590952D01*
X137738087Y-105590952D02*
X137642849Y-105638571D01*
X137642849Y-105638571D02*
X137595230Y-105733809D01*
X137595230Y-105733809D02*
X137595230Y-106257619D01*
X136499991Y-105590952D02*
X136119039Y-105590952D01*
X136357134Y-105257619D02*
X136357134Y-106114761D01*
X136357134Y-106114761D02*
X136309515Y-106210000D01*
X136309515Y-106210000D02*
X136214277Y-106257619D01*
X136214277Y-106257619D02*
X136119039Y-106257619D01*
X135785705Y-106257619D02*
X135785705Y-105257619D01*
X135357134Y-106257619D02*
X135357134Y-105733809D01*
X135357134Y-105733809D02*
X135404753Y-105638571D01*
X135404753Y-105638571D02*
X135499991Y-105590952D01*
X135499991Y-105590952D02*
X135642848Y-105590952D01*
X135642848Y-105590952D02*
X135738086Y-105638571D01*
X135738086Y-105638571D02*
X135785705Y-105686190D01*
X134499991Y-106210000D02*
X134595229Y-106257619D01*
X134595229Y-106257619D02*
X134785705Y-106257619D01*
X134785705Y-106257619D02*
X134880943Y-106210000D01*
X134880943Y-106210000D02*
X134928562Y-106114761D01*
X134928562Y-106114761D02*
X134928562Y-105733809D01*
X134928562Y-105733809D02*
X134880943Y-105638571D01*
X134880943Y-105638571D02*
X134785705Y-105590952D01*
X134785705Y-105590952D02*
X134595229Y-105590952D01*
X134595229Y-105590952D02*
X134499991Y-105638571D01*
X134499991Y-105638571D02*
X134452372Y-105733809D01*
X134452372Y-105733809D02*
X134452372Y-105829047D01*
X134452372Y-105829047D02*
X134928562Y-105924285D01*
X181833333Y-107877619D02*
X181833333Y-107353809D01*
X181833333Y-107353809D02*
X181880952Y-107258571D01*
X181880952Y-107258571D02*
X181976190Y-107210952D01*
X181976190Y-107210952D02*
X182166666Y-107210952D01*
X182166666Y-107210952D02*
X182261904Y-107258571D01*
X181833333Y-107830000D02*
X181928571Y-107877619D01*
X181928571Y-107877619D02*
X182166666Y-107877619D01*
X182166666Y-107877619D02*
X182261904Y-107830000D01*
X182261904Y-107830000D02*
X182309523Y-107734761D01*
X182309523Y-107734761D02*
X182309523Y-107639523D01*
X182309523Y-107639523D02*
X182261904Y-107544285D01*
X182261904Y-107544285D02*
X182166666Y-107496666D01*
X182166666Y-107496666D02*
X181928571Y-107496666D01*
X181928571Y-107496666D02*
X181833333Y-107449047D01*
X181357142Y-107877619D02*
X181357142Y-106877619D01*
X181357142Y-107258571D02*
X181261904Y-107210952D01*
X181261904Y-107210952D02*
X181071428Y-107210952D01*
X181071428Y-107210952D02*
X180976190Y-107258571D01*
X180976190Y-107258571D02*
X180928571Y-107306190D01*
X180928571Y-107306190D02*
X180880952Y-107401428D01*
X180880952Y-107401428D02*
X180880952Y-107687142D01*
X180880952Y-107687142D02*
X180928571Y-107782380D01*
X180928571Y-107782380D02*
X180976190Y-107830000D01*
X180976190Y-107830000D02*
X181071428Y-107877619D01*
X181071428Y-107877619D02*
X181261904Y-107877619D01*
X181261904Y-107877619D02*
X181357142Y-107830000D01*
X180309523Y-107877619D02*
X180404761Y-107830000D01*
X180404761Y-107830000D02*
X180452380Y-107734761D01*
X180452380Y-107734761D02*
X180452380Y-106877619D01*
X179499999Y-107877619D02*
X179499999Y-107353809D01*
X179499999Y-107353809D02*
X179547618Y-107258571D01*
X179547618Y-107258571D02*
X179642856Y-107210952D01*
X179642856Y-107210952D02*
X179833332Y-107210952D01*
X179833332Y-107210952D02*
X179928570Y-107258571D01*
X179499999Y-107830000D02*
X179595237Y-107877619D01*
X179595237Y-107877619D02*
X179833332Y-107877619D01*
X179833332Y-107877619D02*
X179928570Y-107830000D01*
X179928570Y-107830000D02*
X179976189Y-107734761D01*
X179976189Y-107734761D02*
X179976189Y-107639523D01*
X179976189Y-107639523D02*
X179928570Y-107544285D01*
X179928570Y-107544285D02*
X179833332Y-107496666D01*
X179833332Y-107496666D02*
X179595237Y-107496666D01*
X179595237Y-107496666D02*
X179499999Y-107449047D01*
X179166665Y-107210952D02*
X178785713Y-107210952D01*
X179023808Y-106877619D02*
X179023808Y-107734761D01*
X179023808Y-107734761D02*
X178976189Y-107830000D01*
X178976189Y-107830000D02*
X178880951Y-107877619D01*
X178880951Y-107877619D02*
X178785713Y-107877619D01*
X178309522Y-107877619D02*
X178404760Y-107830000D01*
X178404760Y-107830000D02*
X178452379Y-107782380D01*
X178452379Y-107782380D02*
X178499998Y-107687142D01*
X178499998Y-107687142D02*
X178499998Y-107401428D01*
X178499998Y-107401428D02*
X178452379Y-107306190D01*
X178452379Y-107306190D02*
X178404760Y-107258571D01*
X178404760Y-107258571D02*
X178309522Y-107210952D01*
X178309522Y-107210952D02*
X178166665Y-107210952D01*
X178166665Y-107210952D02*
X178071427Y-107258571D01*
X178071427Y-107258571D02*
X178023808Y-107306190D01*
X178023808Y-107306190D02*
X177976189Y-107401428D01*
X177976189Y-107401428D02*
X177976189Y-107687142D01*
X177976189Y-107687142D02*
X178023808Y-107782380D01*
X178023808Y-107782380D02*
X178071427Y-107830000D01*
X178071427Y-107830000D02*
X178166665Y-107877619D01*
X178166665Y-107877619D02*
X178309522Y-107877619D01*
X177547617Y-107877619D02*
X177547617Y-107210952D01*
X177547617Y-107401428D02*
X177499998Y-107306190D01*
X177499998Y-107306190D02*
X177452379Y-107258571D01*
X177452379Y-107258571D02*
X177357141Y-107210952D01*
X177357141Y-107210952D02*
X177261903Y-107210952D01*
X176166664Y-107877619D02*
X176166664Y-107210952D01*
X176166664Y-106877619D02*
X176214283Y-106925238D01*
X176214283Y-106925238D02*
X176166664Y-106972857D01*
X176166664Y-106972857D02*
X176119045Y-106925238D01*
X176119045Y-106925238D02*
X176166664Y-106877619D01*
X176166664Y-106877619D02*
X176166664Y-106972857D01*
X175690474Y-107210952D02*
X175690474Y-107877619D01*
X175690474Y-107306190D02*
X175642855Y-107258571D01*
X175642855Y-107258571D02*
X175547617Y-107210952D01*
X175547617Y-107210952D02*
X175404760Y-107210952D01*
X175404760Y-107210952D02*
X175309522Y-107258571D01*
X175309522Y-107258571D02*
X175261903Y-107353809D01*
X175261903Y-107353809D02*
X175261903Y-107877619D01*
X174928569Y-107210952D02*
X174547617Y-107210952D01*
X174785712Y-106877619D02*
X174785712Y-107734761D01*
X174785712Y-107734761D02*
X174738093Y-107830000D01*
X174738093Y-107830000D02*
X174642855Y-107877619D01*
X174642855Y-107877619D02*
X174547617Y-107877619D01*
X173833331Y-107830000D02*
X173928569Y-107877619D01*
X173928569Y-107877619D02*
X174119045Y-107877619D01*
X174119045Y-107877619D02*
X174214283Y-107830000D01*
X174214283Y-107830000D02*
X174261902Y-107734761D01*
X174261902Y-107734761D02*
X174261902Y-107353809D01*
X174261902Y-107353809D02*
X174214283Y-107258571D01*
X174214283Y-107258571D02*
X174119045Y-107210952D01*
X174119045Y-107210952D02*
X173928569Y-107210952D01*
X173928569Y-107210952D02*
X173833331Y-107258571D01*
X173833331Y-107258571D02*
X173785712Y-107353809D01*
X173785712Y-107353809D02*
X173785712Y-107449047D01*
X173785712Y-107449047D02*
X174261902Y-107544285D01*
X173357140Y-107877619D02*
X173357140Y-107210952D01*
X173357140Y-107401428D02*
X173309521Y-107306190D01*
X173309521Y-107306190D02*
X173261902Y-107258571D01*
X173261902Y-107258571D02*
X173166664Y-107210952D01*
X173166664Y-107210952D02*
X173071426Y-107210952D01*
X172880949Y-107210952D02*
X172499997Y-107210952D01*
X172738092Y-107877619D02*
X172738092Y-107020476D01*
X172738092Y-107020476D02*
X172690473Y-106925238D01*
X172690473Y-106925238D02*
X172595235Y-106877619D01*
X172595235Y-106877619D02*
X172499997Y-106877619D01*
X171738092Y-107877619D02*
X171738092Y-107353809D01*
X171738092Y-107353809D02*
X171785711Y-107258571D01*
X171785711Y-107258571D02*
X171880949Y-107210952D01*
X171880949Y-107210952D02*
X172071425Y-107210952D01*
X172071425Y-107210952D02*
X172166663Y-107258571D01*
X171738092Y-107830000D02*
X171833330Y-107877619D01*
X171833330Y-107877619D02*
X172071425Y-107877619D01*
X172071425Y-107877619D02*
X172166663Y-107830000D01*
X172166663Y-107830000D02*
X172214282Y-107734761D01*
X172214282Y-107734761D02*
X172214282Y-107639523D01*
X172214282Y-107639523D02*
X172166663Y-107544285D01*
X172166663Y-107544285D02*
X172071425Y-107496666D01*
X172071425Y-107496666D02*
X171833330Y-107496666D01*
X171833330Y-107496666D02*
X171738092Y-107449047D01*
X170833330Y-107830000D02*
X170928568Y-107877619D01*
X170928568Y-107877619D02*
X171119044Y-107877619D01*
X171119044Y-107877619D02*
X171214282Y-107830000D01*
X171214282Y-107830000D02*
X171261901Y-107782380D01*
X171261901Y-107782380D02*
X171309520Y-107687142D01*
X171309520Y-107687142D02*
X171309520Y-107401428D01*
X171309520Y-107401428D02*
X171261901Y-107306190D01*
X171261901Y-107306190D02*
X171214282Y-107258571D01*
X171214282Y-107258571D02*
X171119044Y-107210952D01*
X171119044Y-107210952D02*
X170928568Y-107210952D01*
X170928568Y-107210952D02*
X170833330Y-107258571D01*
X170023806Y-107830000D02*
X170119044Y-107877619D01*
X170119044Y-107877619D02*
X170309520Y-107877619D01*
X170309520Y-107877619D02*
X170404758Y-107830000D01*
X170404758Y-107830000D02*
X170452377Y-107734761D01*
X170452377Y-107734761D02*
X170452377Y-107353809D01*
X170452377Y-107353809D02*
X170404758Y-107258571D01*
X170404758Y-107258571D02*
X170309520Y-107210952D01*
X170309520Y-107210952D02*
X170119044Y-107210952D01*
X170119044Y-107210952D02*
X170023806Y-107258571D01*
X170023806Y-107258571D02*
X169976187Y-107353809D01*
X169976187Y-107353809D02*
X169976187Y-107449047D01*
X169976187Y-107449047D02*
X170452377Y-107544285D01*
X168785710Y-107877619D02*
X168785710Y-106877619D01*
X168785710Y-106877619D02*
X168404758Y-106877619D01*
X168404758Y-106877619D02*
X168309520Y-106925238D01*
X168309520Y-106925238D02*
X168261901Y-106972857D01*
X168261901Y-106972857D02*
X168214282Y-107068095D01*
X168214282Y-107068095D02*
X168214282Y-107210952D01*
X168214282Y-107210952D02*
X168261901Y-107306190D01*
X168261901Y-107306190D02*
X168309520Y-107353809D01*
X168309520Y-107353809D02*
X168404758Y-107401428D01*
X168404758Y-107401428D02*
X168785710Y-107401428D01*
X167214282Y-107782380D02*
X167261901Y-107830000D01*
X167261901Y-107830000D02*
X167404758Y-107877619D01*
X167404758Y-107877619D02*
X167499996Y-107877619D01*
X167499996Y-107877619D02*
X167642853Y-107830000D01*
X167642853Y-107830000D02*
X167738091Y-107734761D01*
X167738091Y-107734761D02*
X167785710Y-107639523D01*
X167785710Y-107639523D02*
X167833329Y-107449047D01*
X167833329Y-107449047D02*
X167833329Y-107306190D01*
X167833329Y-107306190D02*
X167785710Y-107115714D01*
X167785710Y-107115714D02*
X167738091Y-107020476D01*
X167738091Y-107020476D02*
X167642853Y-106925238D01*
X167642853Y-106925238D02*
X167499996Y-106877619D01*
X167499996Y-106877619D02*
X167404758Y-106877619D01*
X167404758Y-106877619D02*
X167261901Y-106925238D01*
X167261901Y-106925238D02*
X167214282Y-106972857D01*
X166452377Y-107353809D02*
X166309520Y-107401428D01*
X166309520Y-107401428D02*
X166261901Y-107449047D01*
X166261901Y-107449047D02*
X166214282Y-107544285D01*
X166214282Y-107544285D02*
X166214282Y-107687142D01*
X166214282Y-107687142D02*
X166261901Y-107782380D01*
X166261901Y-107782380D02*
X166309520Y-107830000D01*
X166309520Y-107830000D02*
X166404758Y-107877619D01*
X166404758Y-107877619D02*
X166785710Y-107877619D01*
X166785710Y-107877619D02*
X166785710Y-106877619D01*
X166785710Y-106877619D02*
X166452377Y-106877619D01*
X166452377Y-106877619D02*
X166357139Y-106925238D01*
X166357139Y-106925238D02*
X166309520Y-106972857D01*
X166309520Y-106972857D02*
X166261901Y-107068095D01*
X166261901Y-107068095D02*
X166261901Y-107163333D01*
X166261901Y-107163333D02*
X166309520Y-107258571D01*
X166309520Y-107258571D02*
X166357139Y-107306190D01*
X166357139Y-107306190D02*
X166452377Y-107353809D01*
X166452377Y-107353809D02*
X166785710Y-107353809D01*
X165785710Y-107782380D02*
X165738091Y-107830000D01*
X165738091Y-107830000D02*
X165785710Y-107877619D01*
X165785710Y-107877619D02*
X165833329Y-107830000D01*
X165833329Y-107830000D02*
X165785710Y-107782380D01*
X165785710Y-107782380D02*
X165785710Y-107877619D01*
X111607142Y-91877619D02*
X111369047Y-92877619D01*
X111369047Y-92877619D02*
X111178571Y-92163333D01*
X111178571Y-92163333D02*
X110988095Y-92877619D01*
X110988095Y-92877619D02*
X110750000Y-91877619D01*
X109940476Y-92877619D02*
X109940476Y-92353809D01*
X109940476Y-92353809D02*
X109988095Y-92258571D01*
X109988095Y-92258571D02*
X110083333Y-92210952D01*
X110083333Y-92210952D02*
X110273809Y-92210952D01*
X110273809Y-92210952D02*
X110369047Y-92258571D01*
X109940476Y-92830000D02*
X110035714Y-92877619D01*
X110035714Y-92877619D02*
X110273809Y-92877619D01*
X110273809Y-92877619D02*
X110369047Y-92830000D01*
X110369047Y-92830000D02*
X110416666Y-92734761D01*
X110416666Y-92734761D02*
X110416666Y-92639523D01*
X110416666Y-92639523D02*
X110369047Y-92544285D01*
X110369047Y-92544285D02*
X110273809Y-92496666D01*
X110273809Y-92496666D02*
X110035714Y-92496666D01*
X110035714Y-92496666D02*
X109940476Y-92449047D01*
X109559523Y-92210952D02*
X109321428Y-92877619D01*
X109083333Y-92210952D02*
X109321428Y-92877619D01*
X109321428Y-92877619D02*
X109416666Y-93115714D01*
X109416666Y-93115714D02*
X109464285Y-93163333D01*
X109464285Y-93163333D02*
X109559523Y-93210952D01*
X108797618Y-91877619D02*
X108559523Y-92877619D01*
X108559523Y-92877619D02*
X108369047Y-92163333D01*
X108369047Y-92163333D02*
X108178571Y-92877619D01*
X108178571Y-92877619D02*
X107940476Y-91877619D01*
X107130952Y-92877619D02*
X107130952Y-92353809D01*
X107130952Y-92353809D02*
X107178571Y-92258571D01*
X107178571Y-92258571D02*
X107273809Y-92210952D01*
X107273809Y-92210952D02*
X107464285Y-92210952D01*
X107464285Y-92210952D02*
X107559523Y-92258571D01*
X107130952Y-92830000D02*
X107226190Y-92877619D01*
X107226190Y-92877619D02*
X107464285Y-92877619D01*
X107464285Y-92877619D02*
X107559523Y-92830000D01*
X107559523Y-92830000D02*
X107607142Y-92734761D01*
X107607142Y-92734761D02*
X107607142Y-92639523D01*
X107607142Y-92639523D02*
X107559523Y-92544285D01*
X107559523Y-92544285D02*
X107464285Y-92496666D01*
X107464285Y-92496666D02*
X107226190Y-92496666D01*
X107226190Y-92496666D02*
X107130952Y-92449047D01*
X106749999Y-92210952D02*
X106511904Y-92877619D01*
X106273809Y-92210952D02*
X106511904Y-92877619D01*
X106511904Y-92877619D02*
X106607142Y-93115714D01*
X106607142Y-93115714D02*
X106654761Y-93163333D01*
X106654761Y-93163333D02*
X106749999Y-93210952D01*
X105988094Y-91877619D02*
X105749999Y-92877619D01*
X105749999Y-92877619D02*
X105559523Y-92163333D01*
X105559523Y-92163333D02*
X105369047Y-92877619D01*
X105369047Y-92877619D02*
X105130952Y-91877619D01*
X104321428Y-92877619D02*
X104321428Y-92353809D01*
X104321428Y-92353809D02*
X104369047Y-92258571D01*
X104369047Y-92258571D02*
X104464285Y-92210952D01*
X104464285Y-92210952D02*
X104654761Y-92210952D01*
X104654761Y-92210952D02*
X104749999Y-92258571D01*
X104321428Y-92830000D02*
X104416666Y-92877619D01*
X104416666Y-92877619D02*
X104654761Y-92877619D01*
X104654761Y-92877619D02*
X104749999Y-92830000D01*
X104749999Y-92830000D02*
X104797618Y-92734761D01*
X104797618Y-92734761D02*
X104797618Y-92639523D01*
X104797618Y-92639523D02*
X104749999Y-92544285D01*
X104749999Y-92544285D02*
X104654761Y-92496666D01*
X104654761Y-92496666D02*
X104416666Y-92496666D01*
X104416666Y-92496666D02*
X104321428Y-92449047D01*
X103940475Y-92210952D02*
X103702380Y-92877619D01*
X103464285Y-92210952D02*
X103702380Y-92877619D01*
X103702380Y-92877619D02*
X103797618Y-93115714D01*
X103797618Y-93115714D02*
X103845237Y-93163333D01*
X103845237Y-93163333D02*
X103940475Y-93210952D01*
%TO.C,J2*%
X176333333Y-66564619D02*
X176333333Y-67278904D01*
X176333333Y-67278904D02*
X176380952Y-67421761D01*
X176380952Y-67421761D02*
X176476190Y-67517000D01*
X176476190Y-67517000D02*
X176619047Y-67564619D01*
X176619047Y-67564619D02*
X176714285Y-67564619D01*
X175904761Y-66659857D02*
X175857142Y-66612238D01*
X175857142Y-66612238D02*
X175761904Y-66564619D01*
X175761904Y-66564619D02*
X175523809Y-66564619D01*
X175523809Y-66564619D02*
X175428571Y-66612238D01*
X175428571Y-66612238D02*
X175380952Y-66659857D01*
X175380952Y-66659857D02*
X175333333Y-66755095D01*
X175333333Y-66755095D02*
X175333333Y-66850333D01*
X175333333Y-66850333D02*
X175380952Y-66993190D01*
X175380952Y-66993190D02*
X175952380Y-67564619D01*
X175952380Y-67564619D02*
X175333333Y-67564619D01*
D11*
X178200000Y-72200000D02*
X178200000Y-67800000D01*
X178200000Y-67800000D02*
X173800000Y-67800000D01*
X173800000Y-72200000D02*
X178200000Y-72200000D01*
X173800000Y-67800000D02*
X173800000Y-72200000D01*
%TD*%
M02*
