%TF.GenerationSoftware,KiCad,Pcbnew,7.0.2*%
%TF.CreationDate,2023-08-08T17:25:24+02:00*%
%TF.ProjectId,pulse_generator,70756c73-655f-4676-956e-657261746f72,rev?*%
%TF.SameCoordinates,Original*%
%TF.FileFunction,Soldermask,Top*%
%TF.FilePolarity,Negative*%
%FSLAX46Y46*%
G04 Gerber Fmt 4.6, Leading zero omitted, Abs format (unit mm)*
G04 Created by KiCad (PCBNEW 7.0.2) date 2023-08-08 17:25:24*
%MOMM*%
%LPD*%
G01*
G04 APERTURE LIST*
G04 Aperture macros list*
%AMRoundRect*
0 Rectangle with rounded corners*
0 $1 Rounding radius*
0 $2 $3 $4 $5 $6 $7 $8 $9 X,Y pos of 4 corners*
0 Add a 4 corners polygon primitive as box body*
4,1,4,$2,$3,$4,$5,$6,$7,$8,$9,$2,$3,0*
0 Add four circle primitives for the rounded corners*
1,1,$1+$1,$2,$3*
1,1,$1+$1,$4,$5*
1,1,$1+$1,$6,$7*
1,1,$1+$1,$8,$9*
0 Add four rect primitives between the rounded corners*
20,1,$1+$1,$2,$3,$4,$5,0*
20,1,$1+$1,$4,$5,$6,$7,0*
20,1,$1+$1,$6,$7,$8,$9,0*
20,1,$1+$1,$8,$9,$2,$3,0*%
G04 Aperture macros list end*
%ADD10R,1.700000X1.700000*%
%ADD11O,1.700000X1.700000*%
%ADD12RoundRect,0.225000X0.375000X-0.225000X0.375000X0.225000X-0.375000X0.225000X-0.375000X-0.225000X0*%
%ADD13R,2.000000X2.000000*%
%ADD14C,2.100000*%
%ADD15C,1.750000*%
%ADD16R,1.800000X1.800000*%
%ADD17C,1.800000*%
%ADD18RoundRect,0.250000X-0.350000X-0.450000X0.350000X-0.450000X0.350000X0.450000X-0.350000X0.450000X0*%
%ADD19O,2.500000X1.600000*%
%ADD20O,7.000000X3.500000*%
%ADD21RoundRect,0.250000X0.325000X0.450000X-0.325000X0.450000X-0.325000X-0.450000X0.325000X-0.450000X0*%
%ADD22RoundRect,0.250000X0.450000X-0.350000X0.450000X0.350000X-0.450000X0.350000X-0.450000X-0.350000X0*%
%ADD23R,1.600000X2.400000*%
%ADD24O,1.600000X2.400000*%
%ADD25C,3.200000*%
%ADD26RoundRect,0.250000X0.337500X0.475000X-0.337500X0.475000X-0.337500X-0.475000X0.337500X-0.475000X0*%
%ADD27RoundRect,0.250000X0.350000X0.450000X-0.350000X0.450000X-0.350000X-0.450000X0.350000X-0.450000X0*%
%ADD28RoundRect,0.250000X-0.450000X0.350000X-0.450000X-0.350000X0.450000X-0.350000X0.450000X0.350000X0*%
%ADD29RoundRect,0.250000X-0.337500X-0.475000X0.337500X-0.475000X0.337500X0.475000X-0.337500X0.475000X0*%
G04 APERTURE END LIST*
D10*
%TO.C,J1*%
X127940000Y-97460000D03*
D11*
X130480000Y-97460000D03*
X133020000Y-97460000D03*
X135560000Y-97460000D03*
X138100000Y-97460000D03*
X140640000Y-97460000D03*
X143180000Y-97460000D03*
X145720000Y-97460000D03*
%TD*%
D10*
%TO.C,J3*%
X150800000Y-97460000D03*
D11*
X153340000Y-97460000D03*
X155880000Y-97460000D03*
X158420000Y-97460000D03*
X160960000Y-97460000D03*
X163500000Y-97460000D03*
%TD*%
D10*
%TO.C,J2*%
X118800000Y-49200000D03*
D11*
X121340000Y-49200000D03*
X123880000Y-49200000D03*
X126420000Y-49200000D03*
X128960000Y-49200000D03*
X131500000Y-49200000D03*
X134040000Y-49200000D03*
X136580000Y-49200000D03*
X139120000Y-49200000D03*
X141660000Y-49200000D03*
%TD*%
D10*
%TO.C,J4*%
X145700000Y-49200000D03*
D11*
X148240000Y-49200000D03*
X150780000Y-49200000D03*
X153320000Y-49200000D03*
X155860000Y-49200000D03*
X158400000Y-49200000D03*
X160940000Y-49200000D03*
X163480000Y-49200000D03*
%TD*%
D12*
%TO.C,D1*%
X152500000Y-87850000D03*
X152500000Y-84550000D03*
%TD*%
D13*
%TO.C,TP2*%
X139000000Y-91500000D03*
%TD*%
D14*
%TO.C,SW1*%
X92702500Y-82525000D03*
X92702500Y-75515000D03*
D15*
X90212500Y-81275000D03*
X90212500Y-76775000D03*
%TD*%
D16*
%TO.C,D3*%
X92000000Y-52300000D03*
D17*
X92000000Y-49760000D03*
%TD*%
D18*
%TO.C,R7*%
X105000000Y-76000000D03*
X107000000Y-76000000D03*
%TD*%
D12*
%TO.C,D2*%
X155500000Y-84500000D03*
X155500000Y-81200000D03*
%TD*%
D19*
%TO.C,J5*%
X99150000Y-91500000D03*
D20*
X94070000Y-96580000D03*
D19*
X99150000Y-94040000D03*
D20*
X94070000Y-86420000D03*
%TD*%
D21*
%TO.C,D5*%
X95025000Y-57000000D03*
X92975000Y-57000000D03*
%TD*%
D22*
%TO.C,R4*%
X113000000Y-66500000D03*
X113000000Y-64500000D03*
%TD*%
D23*
%TO.C,U2*%
X144000000Y-58000000D03*
D24*
X141460000Y-58000000D03*
X138920000Y-58000000D03*
X136380000Y-58000000D03*
X133840000Y-58000000D03*
X131300000Y-58000000D03*
X128760000Y-58000000D03*
X126220000Y-58000000D03*
X126220000Y-65620000D03*
X128760000Y-65620000D03*
X131300000Y-65620000D03*
X133840000Y-65620000D03*
X136380000Y-65620000D03*
X138920000Y-65620000D03*
X141460000Y-65620000D03*
X144000000Y-65620000D03*
%TD*%
D18*
%TO.C,R8*%
X105000000Y-93500000D03*
X107000000Y-93500000D03*
%TD*%
%TO.C,R3*%
X126000000Y-74500000D03*
X128000000Y-74500000D03*
%TD*%
D23*
%TO.C,U1*%
X126000000Y-88000000D03*
D24*
X128540000Y-88000000D03*
X131080000Y-88000000D03*
X133620000Y-88000000D03*
X133620000Y-80380000D03*
X131080000Y-80380000D03*
X128540000Y-80380000D03*
X126000000Y-80380000D03*
%TD*%
D25*
%TO.C,MH1*%
X115240000Y-49200000D03*
%TD*%
D21*
%TO.C,D4*%
X100025000Y-76000000D03*
X97975000Y-76000000D03*
%TD*%
D18*
%TO.C,R1*%
X147000000Y-84500000D03*
X149000000Y-84500000D03*
%TD*%
D13*
%TO.C,TP1*%
X139000000Y-78000000D03*
%TD*%
D26*
%TO.C,C3*%
X123037500Y-80000000D03*
X120962500Y-80000000D03*
%TD*%
D18*
%TO.C,R9*%
X105000000Y-68500000D03*
X107000000Y-68500000D03*
%TD*%
D27*
%TO.C,R5*%
X128000000Y-72000000D03*
X126000000Y-72000000D03*
%TD*%
D25*
%TO.C,MH2*%
X113970000Y-97460000D03*
%TD*%
D27*
%TO.C,R6*%
X107000000Y-60000000D03*
X105000000Y-60000000D03*
%TD*%
D25*
%TO.C,MH3*%
X166040000Y-64440000D03*
%TD*%
%TO.C,MH4*%
X166040000Y-92380000D03*
%TD*%
D28*
%TO.C,R2*%
X143500000Y-84500000D03*
X143500000Y-86500000D03*
%TD*%
D19*
%TO.C,J6*%
X99100000Y-66500000D03*
D20*
X94020000Y-71580000D03*
D19*
X99100000Y-69040000D03*
D20*
X94020000Y-61420000D03*
%TD*%
D29*
%TO.C,C1*%
X143962500Y-69000000D03*
X146037500Y-69000000D03*
%TD*%
M02*
