%TF.GenerationSoftware,KiCad,Pcbnew,7.0.2*%
%TF.CreationDate,2023-08-08T17:36:32+02:00*%
%TF.ProjectId,pulse_generator_endplate_1455NF,70756c73-655f-4676-956e-657261746f72,rev?*%
%TF.SameCoordinates,Original*%
%TF.FileFunction,Copper,L1,Top*%
%TF.FilePolarity,Positive*%
%FSLAX46Y46*%
G04 Gerber Fmt 4.6, Leading zero omitted, Abs format (unit mm)*
G04 Created by KiCad (PCBNEW 7.0.2) date 2023-08-08 17:36:32*
%MOMM*%
%LPD*%
G01*
G04 APERTURE LIST*
%TA.AperFunction,ComponentPad*%
%ADD10C,0.900000*%
%TD*%
%TA.AperFunction,ComponentPad*%
%ADD11C,8.600000*%
%TD*%
G04 APERTURE END LIST*
D10*
%TO.P,J1,1,Pin_1*%
%TO.N,GNDREF*%
X177775000Y-80719581D03*
X178719581Y-78439162D03*
X178719581Y-83000000D03*
X181000000Y-77494581D03*
D11*
X181000000Y-80719581D03*
D10*
X181000000Y-83944581D03*
X183280419Y-78439162D03*
X183280419Y-83000000D03*
X184225000Y-80719581D03*
%TD*%
%TA.AperFunction,Conductor*%
%TO.N,GNDREF*%
G36*
X179425031Y-82190499D02*
G01*
X179639990Y-82391257D01*
X179664544Y-82408589D01*
X179014927Y-83058205D01*
X179023476Y-83028160D01*
X179013127Y-82916479D01*
X178963133Y-82816078D01*
X178880247Y-82740516D01*
X178775661Y-82700000D01*
X178691779Y-82700000D01*
X178660105Y-82705920D01*
X179313103Y-82052922D01*
X179425031Y-82190499D01*
G37*
%TD.AperFunction*%
%TA.AperFunction,Conductor*%
G36*
X183333973Y-82700000D02*
G01*
X183252617Y-82700000D01*
X183170169Y-82715412D01*
X183074809Y-82774457D01*
X183007218Y-82863962D01*
X182976524Y-82971840D01*
X182984471Y-83057606D01*
X182335455Y-82408589D01*
X182360010Y-82391257D01*
X182574969Y-82190499D01*
X182686895Y-82052923D01*
X183333973Y-82700000D01*
G37*
%TD.AperFunction*%
%TA.AperFunction,Conductor*%
G36*
X179664544Y-79030572D02*
G01*
X179639990Y-79047905D01*
X179425031Y-79248663D01*
X179313104Y-79386238D01*
X178666028Y-78739162D01*
X178747383Y-78739162D01*
X178829831Y-78723750D01*
X178925191Y-78664705D01*
X178992782Y-78575200D01*
X179023476Y-78467322D01*
X179015528Y-78381556D01*
X179664544Y-79030572D01*
G37*
%TD.AperFunction*%
%TA.AperFunction,Conductor*%
G36*
X182976524Y-78411002D02*
G01*
X182986873Y-78522683D01*
X183036867Y-78623084D01*
X183119753Y-78698646D01*
X183224339Y-78739162D01*
X183308221Y-78739162D01*
X183339889Y-78733242D01*
X182686894Y-79386237D01*
X182574969Y-79248663D01*
X182360010Y-79047905D01*
X182335454Y-79030571D01*
X182985073Y-78380952D01*
X182976524Y-78411002D01*
G37*
%TD.AperFunction*%
%TA.AperFunction,Conductor*%
G36*
X190202855Y-64100632D02*
G01*
X190372951Y-64108495D01*
X190569795Y-64118166D01*
X190580787Y-64119201D01*
X190763357Y-64144668D01*
X190947242Y-64171946D01*
X190957422Y-64173894D01*
X191139341Y-64216681D01*
X191317878Y-64261402D01*
X191327095Y-64264097D01*
X191504478Y-64323550D01*
X191506618Y-64324292D01*
X191678220Y-64385692D01*
X191686519Y-64389004D01*
X191857980Y-64464712D01*
X191860909Y-64466051D01*
X191947263Y-64506892D01*
X192025119Y-64543715D01*
X192032411Y-64547465D01*
X192129135Y-64601341D01*
X192196435Y-64638827D01*
X192199810Y-64640777D01*
X192355371Y-64734017D01*
X192361670Y-64738058D01*
X192516699Y-64844256D01*
X192520459Y-64846935D01*
X192666009Y-64954882D01*
X192671305Y-64959040D01*
X192816009Y-65079200D01*
X192819947Y-65082617D01*
X192954206Y-65204303D01*
X192958590Y-65208478D01*
X193091520Y-65341408D01*
X193095698Y-65345795D01*
X193217375Y-65480045D01*
X193220805Y-65483998D01*
X193340951Y-65628684D01*
X193345124Y-65634000D01*
X193453041Y-65779509D01*
X193455742Y-65783299D01*
X193561940Y-65938328D01*
X193565992Y-65944645D01*
X193618788Y-66032729D01*
X193659200Y-66100153D01*
X193661171Y-66103563D01*
X193752525Y-66267573D01*
X193756291Y-66274896D01*
X193833947Y-66439089D01*
X193835286Y-66442018D01*
X193910994Y-66613479D01*
X193914311Y-66621791D01*
X193975666Y-66793265D01*
X193976487Y-66795634D01*
X194035894Y-66972881D01*
X194038606Y-66982157D01*
X194083317Y-67160653D01*
X194126102Y-67342567D01*
X194128052Y-67352753D01*
X194155337Y-67536689D01*
X194180794Y-67719186D01*
X194181834Y-67730230D01*
X194191512Y-67927238D01*
X194199368Y-68097144D01*
X194199500Y-68102871D01*
X194199500Y-113097127D01*
X194199368Y-113102854D01*
X194191512Y-113272761D01*
X194181834Y-113469767D01*
X194180794Y-113480813D01*
X194155337Y-113663309D01*
X194128052Y-113847242D01*
X194126101Y-113857433D01*
X194083317Y-114039344D01*
X194038605Y-114217845D01*
X194035895Y-114227113D01*
X193976487Y-114404364D01*
X193975666Y-114406733D01*
X193914311Y-114578207D01*
X193910994Y-114586519D01*
X193835286Y-114757980D01*
X193833947Y-114760909D01*
X193756291Y-114925102D01*
X193752525Y-114932425D01*
X193661171Y-115096435D01*
X193659200Y-115099845D01*
X193565999Y-115255342D01*
X193561940Y-115261670D01*
X193455742Y-115416699D01*
X193453041Y-115420489D01*
X193345135Y-115565984D01*
X193340935Y-115571334D01*
X193220851Y-115715947D01*
X193217331Y-115720004D01*
X193095717Y-115854183D01*
X193091520Y-115858590D01*
X192958590Y-115991520D01*
X192954183Y-115995717D01*
X192820004Y-116117331D01*
X192815947Y-116120851D01*
X192671334Y-116240935D01*
X192665984Y-116245135D01*
X192520489Y-116353041D01*
X192516699Y-116355742D01*
X192361670Y-116461940D01*
X192355342Y-116465999D01*
X192199845Y-116559200D01*
X192196435Y-116561171D01*
X192032425Y-116652525D01*
X192025102Y-116656291D01*
X191860909Y-116733947D01*
X191857980Y-116735286D01*
X191686519Y-116810994D01*
X191678207Y-116814311D01*
X191506733Y-116875666D01*
X191504364Y-116876487D01*
X191327117Y-116935894D01*
X191317841Y-116938606D01*
X191139346Y-116983317D01*
X190957431Y-117026102D01*
X190947245Y-117028052D01*
X190763310Y-117055337D01*
X190580812Y-117080794D01*
X190569768Y-117081834D01*
X190372761Y-117091512D01*
X190202855Y-117099368D01*
X190197128Y-117099500D01*
X95202872Y-117099500D01*
X95197145Y-117099368D01*
X95027238Y-117091512D01*
X94830231Y-117081834D01*
X94819185Y-117080794D01*
X94636690Y-117055337D01*
X94452756Y-117028052D01*
X94442565Y-117026101D01*
X94260655Y-116983317D01*
X94082153Y-116938605D01*
X94072885Y-116935895D01*
X93895634Y-116876487D01*
X93893265Y-116875666D01*
X93721791Y-116814311D01*
X93713479Y-116810994D01*
X93542018Y-116735286D01*
X93539089Y-116733947D01*
X93374896Y-116656291D01*
X93367573Y-116652525D01*
X93203563Y-116561171D01*
X93200153Y-116559200D01*
X93180648Y-116547509D01*
X93044645Y-116465992D01*
X93038328Y-116461940D01*
X92883299Y-116355742D01*
X92879509Y-116353041D01*
X92734000Y-116245124D01*
X92728684Y-116240951D01*
X92583998Y-116120805D01*
X92580045Y-116117375D01*
X92445795Y-115995698D01*
X92441408Y-115991520D01*
X92308478Y-115858590D01*
X92304303Y-115854206D01*
X92182617Y-115719947D01*
X92179200Y-115716009D01*
X92059040Y-115571305D01*
X92054882Y-115566009D01*
X91946935Y-115420459D01*
X91944256Y-115416699D01*
X91838058Y-115261670D01*
X91834017Y-115255371D01*
X91740777Y-115099810D01*
X91738827Y-115096435D01*
X91729447Y-115079594D01*
X91647465Y-114932411D01*
X91643715Y-114925119D01*
X91593324Y-114818575D01*
X91566051Y-114760909D01*
X91564712Y-114757980D01*
X91489004Y-114586519D01*
X91485692Y-114578220D01*
X91424292Y-114406618D01*
X91423550Y-114404478D01*
X91364096Y-114227091D01*
X91361400Y-114217867D01*
X91316675Y-114039315D01*
X91273891Y-113857408D01*
X91271948Y-113847256D01*
X91244674Y-113663399D01*
X91219201Y-113480789D01*
X91218166Y-113469799D01*
X91208487Y-113272761D01*
X91200632Y-113102854D01*
X91200566Y-113100000D01*
X93089102Y-113100000D01*
X93089391Y-113104225D01*
X93096091Y-113202178D01*
X93094460Y-113209564D01*
X93098006Y-113234795D01*
X93098924Y-113243591D01*
X93099316Y-113249322D01*
X93099605Y-113257784D01*
X93099604Y-113278647D01*
X93101898Y-113287078D01*
X93108380Y-113381840D01*
X93108381Y-113381847D01*
X93108670Y-113386072D01*
X93109534Y-113390228D01*
X93130160Y-113489488D01*
X93129474Y-113497959D01*
X93137087Y-113524507D01*
X93139299Y-113533467D01*
X93140584Y-113539653D01*
X93141969Y-113547613D01*
X93144540Y-113565907D01*
X93147467Y-113572774D01*
X93167009Y-113666815D01*
X93168427Y-113670804D01*
X93168430Y-113670815D01*
X93203460Y-113769378D01*
X93203985Y-113778771D01*
X93215975Y-113805701D01*
X93219535Y-113814610D01*
X93222069Y-113821740D01*
X93224425Y-113829083D01*
X93228757Y-113844191D01*
X93231925Y-113849471D01*
X93263033Y-113937000D01*
X93264980Y-113940758D01*
X93264982Y-113940762D01*
X93314597Y-114036515D01*
X93316566Y-114046622D01*
X93333057Y-114073012D01*
X93338003Y-114081686D01*
X93342344Y-114090066D01*
X93345518Y-114096663D01*
X93350622Y-114108127D01*
X93353655Y-114111894D01*
X93394952Y-114191593D01*
X93397391Y-114195048D01*
X93397400Y-114195063D01*
X93461456Y-114285809D01*
X93465066Y-114296382D01*
X93486013Y-114321346D01*
X93492323Y-114329538D01*
X93499256Y-114339359D01*
X93503113Y-114345160D01*
X93507810Y-114352677D01*
X93510340Y-114355060D01*
X93560310Y-114425851D01*
X93563203Y-114428949D01*
X93563205Y-114428951D01*
X93641246Y-114512513D01*
X93646648Y-114523264D01*
X93671819Y-114545928D01*
X93679473Y-114553444D01*
X93689953Y-114564666D01*
X93694315Y-114569592D01*
X93697274Y-114573119D01*
X93698978Y-114574330D01*
X93710362Y-114586519D01*
X93756025Y-114635412D01*
X93850534Y-114712300D01*
X93857829Y-114722912D01*
X93886860Y-114742494D01*
X93895772Y-114749105D01*
X93910937Y-114761442D01*
X93915346Y-114765216D01*
X93915982Y-114765546D01*
X93978453Y-114816370D01*
X93982079Y-114818575D01*
X94085331Y-114881364D01*
X94094559Y-114891494D01*
X94126936Y-114907286D01*
X94137005Y-114912788D01*
X94157255Y-114925102D01*
X94223450Y-114965356D01*
X94341186Y-115016496D01*
X94352334Y-115025798D01*
X94387439Y-115037204D01*
X94398516Y-115041397D01*
X94457142Y-115066863D01*
X94473658Y-115074037D01*
X94486452Y-115079594D01*
X94490523Y-115080734D01*
X94490527Y-115080736D01*
X94490531Y-115080737D01*
X94613218Y-115115112D01*
X94626201Y-115123229D01*
X94663303Y-115129772D01*
X94675225Y-115132486D01*
X94710325Y-115142320D01*
X94762560Y-115156956D01*
X94896236Y-115175329D01*
X94910919Y-115181924D01*
X94949254Y-115183263D01*
X94961808Y-115184341D01*
X95046630Y-115196000D01*
X95050868Y-115196000D01*
X95184846Y-115196000D01*
X95201025Y-115200750D01*
X95239766Y-115196679D01*
X95252728Y-115196000D01*
X95329132Y-115196000D01*
X95333370Y-115196000D01*
X95473569Y-115176730D01*
X95490988Y-115179345D01*
X95529271Y-115169800D01*
X95542378Y-115167272D01*
X95617440Y-115156956D01*
X95756878Y-115117887D01*
X95775230Y-115118115D01*
X95812214Y-115103172D01*
X95825208Y-115098741D01*
X95893548Y-115079594D01*
X96029398Y-115020585D01*
X96048333Y-115018222D01*
X96083208Y-114998087D01*
X96095808Y-114991740D01*
X96095967Y-114991670D01*
X96156550Y-114965356D01*
X96285926Y-114886680D01*
X96305047Y-114881578D01*
X96337016Y-114856601D01*
X96348924Y-114848370D01*
X96401547Y-114816370D01*
X96521570Y-114718723D01*
X96540460Y-114710796D01*
X96568813Y-114681436D01*
X96579747Y-114671393D01*
X96623975Y-114635412D01*
X96731843Y-114519911D01*
X96750074Y-114509133D01*
X96774191Y-114475939D01*
X96783880Y-114464193D01*
X96819690Y-114425851D01*
X96912741Y-114294027D01*
X96929865Y-114280445D01*
X96949200Y-114244081D01*
X96957372Y-114230800D01*
X96985048Y-114191593D01*
X97060806Y-114045385D01*
X97076378Y-114029121D01*
X97090506Y-113990306D01*
X97096931Y-113975668D01*
X97115015Y-113940767D01*
X97116967Y-113937000D01*
X97173218Y-113778722D01*
X97186815Y-113759959D01*
X97195422Y-113719470D01*
X97199866Y-113703744D01*
X97212991Y-113666815D01*
X97271330Y-113386072D01*
X97290898Y-113100000D01*
X188109102Y-113100000D01*
X188109391Y-113104225D01*
X188116091Y-113202178D01*
X188114460Y-113209564D01*
X188118006Y-113234795D01*
X188118924Y-113243591D01*
X188119316Y-113249322D01*
X188119605Y-113257784D01*
X188119605Y-113278647D01*
X188121898Y-113287078D01*
X188128380Y-113381840D01*
X188128381Y-113381847D01*
X188128670Y-113386072D01*
X188129534Y-113390228D01*
X188150160Y-113489488D01*
X188149474Y-113497959D01*
X188157087Y-113524507D01*
X188159299Y-113533467D01*
X188160584Y-113539653D01*
X188161969Y-113547613D01*
X188164540Y-113565907D01*
X188167467Y-113572774D01*
X188187009Y-113666815D01*
X188188427Y-113670804D01*
X188188430Y-113670815D01*
X188223460Y-113769378D01*
X188223985Y-113778771D01*
X188235975Y-113805701D01*
X188239535Y-113814610D01*
X188242069Y-113821740D01*
X188244425Y-113829083D01*
X188248757Y-113844191D01*
X188251925Y-113849471D01*
X188283033Y-113937000D01*
X188284980Y-113940758D01*
X188284982Y-113940762D01*
X188334597Y-114036515D01*
X188336566Y-114046622D01*
X188353057Y-114073012D01*
X188358003Y-114081686D01*
X188362344Y-114090066D01*
X188365518Y-114096663D01*
X188370622Y-114108127D01*
X188373655Y-114111894D01*
X188414952Y-114191593D01*
X188417391Y-114195048D01*
X188417400Y-114195063D01*
X188481456Y-114285809D01*
X188485066Y-114296382D01*
X188506013Y-114321346D01*
X188512323Y-114329538D01*
X188519256Y-114339359D01*
X188523113Y-114345160D01*
X188527810Y-114352677D01*
X188530340Y-114355060D01*
X188580310Y-114425851D01*
X188583203Y-114428949D01*
X188583205Y-114428951D01*
X188661246Y-114512513D01*
X188666648Y-114523264D01*
X188691819Y-114545928D01*
X188699473Y-114553444D01*
X188709953Y-114564666D01*
X188714315Y-114569592D01*
X188717274Y-114573119D01*
X188718978Y-114574330D01*
X188730362Y-114586519D01*
X188776025Y-114635412D01*
X188870534Y-114712300D01*
X188877829Y-114722912D01*
X188906860Y-114742494D01*
X188915772Y-114749105D01*
X188930937Y-114761442D01*
X188935346Y-114765216D01*
X188935982Y-114765546D01*
X188998453Y-114816370D01*
X189002079Y-114818575D01*
X189105331Y-114881364D01*
X189114559Y-114891494D01*
X189146936Y-114907286D01*
X189157005Y-114912788D01*
X189177255Y-114925102D01*
X189243450Y-114965356D01*
X189361186Y-115016496D01*
X189372334Y-115025798D01*
X189407439Y-115037204D01*
X189418516Y-115041397D01*
X189477142Y-115066863D01*
X189493658Y-115074037D01*
X189506452Y-115079594D01*
X189510523Y-115080734D01*
X189510527Y-115080736D01*
X189510531Y-115080737D01*
X189633218Y-115115112D01*
X189646201Y-115123229D01*
X189683303Y-115129772D01*
X189695225Y-115132486D01*
X189730325Y-115142320D01*
X189782560Y-115156956D01*
X189916236Y-115175329D01*
X189930919Y-115181924D01*
X189969254Y-115183263D01*
X189981808Y-115184341D01*
X190066630Y-115196000D01*
X190070868Y-115196000D01*
X190204846Y-115196000D01*
X190221025Y-115200750D01*
X190259766Y-115196679D01*
X190272728Y-115196000D01*
X190349132Y-115196000D01*
X190353370Y-115196000D01*
X190493569Y-115176730D01*
X190510988Y-115179345D01*
X190549271Y-115169800D01*
X190562378Y-115167272D01*
X190637440Y-115156956D01*
X190776878Y-115117887D01*
X190795230Y-115118115D01*
X190832214Y-115103172D01*
X190845208Y-115098741D01*
X190913548Y-115079594D01*
X191049398Y-115020585D01*
X191068333Y-115018222D01*
X191103208Y-114998087D01*
X191115808Y-114991740D01*
X191115967Y-114991670D01*
X191176550Y-114965356D01*
X191305926Y-114886680D01*
X191325047Y-114881578D01*
X191357016Y-114856601D01*
X191368924Y-114848370D01*
X191421547Y-114816370D01*
X191541570Y-114718723D01*
X191560460Y-114710796D01*
X191588813Y-114681436D01*
X191599747Y-114671393D01*
X191643975Y-114635412D01*
X191751843Y-114519911D01*
X191770074Y-114509133D01*
X191794191Y-114475939D01*
X191803880Y-114464193D01*
X191839690Y-114425851D01*
X191932741Y-114294027D01*
X191949865Y-114280445D01*
X191969200Y-114244081D01*
X191977372Y-114230800D01*
X192005048Y-114191593D01*
X192080806Y-114045385D01*
X192096378Y-114029121D01*
X192110506Y-113990306D01*
X192116931Y-113975668D01*
X192135015Y-113940767D01*
X192136967Y-113937000D01*
X192193218Y-113778722D01*
X192206815Y-113759959D01*
X192215422Y-113719470D01*
X192219866Y-113703744D01*
X192232991Y-113666815D01*
X192291330Y-113386072D01*
X192310898Y-113100000D01*
X192291330Y-112813928D01*
X192232991Y-112533185D01*
X192219868Y-112496261D01*
X192215423Y-112480532D01*
X192208446Y-112447708D01*
X192193220Y-112421281D01*
X192183628Y-112394293D01*
X192136967Y-112263000D01*
X192116933Y-112224336D01*
X192110508Y-112209697D01*
X192098984Y-112178036D01*
X192080807Y-112154616D01*
X192066487Y-112126980D01*
X192005048Y-112008407D01*
X192002605Y-112004946D01*
X192002599Y-112004936D01*
X191977384Y-111969215D01*
X191969202Y-111955921D01*
X191953336Y-111926081D01*
X191932743Y-111905974D01*
X191842140Y-111777619D01*
X191842135Y-111777613D01*
X191839690Y-111774149D01*
X191803889Y-111735815D01*
X191794195Y-111724064D01*
X191774285Y-111696661D01*
X191751844Y-111680088D01*
X191710058Y-111635346D01*
X191643975Y-111564588D01*
X191640693Y-111561918D01*
X191640690Y-111561915D01*
X191599767Y-111528622D01*
X191588824Y-111518572D01*
X191565277Y-111494189D01*
X191541571Y-111481276D01*
X191424837Y-111386307D01*
X191421547Y-111383630D01*
X191417923Y-111381426D01*
X191417920Y-111381424D01*
X191368940Y-111351639D01*
X191357026Y-111343404D01*
X191330322Y-111322541D01*
X191305925Y-111313318D01*
X191180168Y-111236844D01*
X191180166Y-111236843D01*
X191176550Y-111234644D01*
X191115808Y-111208260D01*
X191103209Y-111201913D01*
X191073921Y-111185003D01*
X191049398Y-111179414D01*
X190917429Y-111122091D01*
X190917419Y-111122087D01*
X190913548Y-111120406D01*
X190909461Y-111119261D01*
X190845219Y-111101261D01*
X190832223Y-111096830D01*
X190800982Y-111084207D01*
X190776878Y-111082112D01*
X190641518Y-111044186D01*
X190641509Y-111044184D01*
X190637440Y-111043044D01*
X190633253Y-111042468D01*
X190633246Y-111042467D01*
X190562393Y-111032729D01*
X190549280Y-111030201D01*
X190516763Y-111022093D01*
X190493571Y-111023269D01*
X190357570Y-111004577D01*
X190357566Y-111004576D01*
X190353370Y-111004000D01*
X190272725Y-111004000D01*
X190259764Y-111003321D01*
X190226686Y-110999844D01*
X190204845Y-111004000D01*
X190066630Y-111004000D01*
X190062433Y-111004576D01*
X190062430Y-111004577D01*
X189981824Y-111015656D01*
X189969267Y-111016735D01*
X189936353Y-111017884D01*
X189916237Y-111024670D01*
X189786753Y-111042467D01*
X189786743Y-111042469D01*
X189782560Y-111043044D01*
X189778493Y-111044183D01*
X189778481Y-111044186D01*
X189695241Y-111067509D01*
X189683320Y-111070223D01*
X189651296Y-111075869D01*
X189633221Y-111084885D01*
X189510533Y-111119261D01*
X189510512Y-111119268D01*
X189506452Y-111120406D01*
X189502582Y-111122086D01*
X189502565Y-111122093D01*
X189418526Y-111158597D01*
X189407444Y-111162794D01*
X189376995Y-111172687D01*
X189361189Y-111183502D01*
X189247328Y-111232959D01*
X189247321Y-111232962D01*
X189243450Y-111234644D01*
X189239839Y-111236839D01*
X189239831Y-111236844D01*
X189157015Y-111287206D01*
X189146946Y-111292708D01*
X189118721Y-111306474D01*
X189105336Y-111318632D01*
X189098910Y-111322541D01*
X189002073Y-111381428D01*
X189002066Y-111381432D01*
X188998453Y-111383630D01*
X188995165Y-111386304D01*
X188995162Y-111386307D01*
X188935983Y-111434452D01*
X188935491Y-111434658D01*
X188930927Y-111438566D01*
X188915783Y-111450886D01*
X188906871Y-111457496D01*
X188881435Y-111474652D01*
X188870535Y-111487698D01*
X188779309Y-111561915D01*
X188779298Y-111561924D01*
X188776025Y-111564588D01*
X188773137Y-111567679D01*
X188773133Y-111567684D01*
X188718979Y-111625669D01*
X188717612Y-111626477D01*
X188714305Y-111630418D01*
X188709941Y-111635346D01*
X188699475Y-111646552D01*
X188691827Y-111654062D01*
X188669668Y-111674014D01*
X188661247Y-111687485D01*
X188583205Y-111771048D01*
X188583197Y-111771057D01*
X188580310Y-111774149D01*
X188577870Y-111777605D01*
X188577864Y-111777613D01*
X188530340Y-111844939D01*
X188528275Y-111846576D01*
X188523111Y-111854841D01*
X188519259Y-111860637D01*
X188512330Y-111870453D01*
X188506017Y-111878648D01*
X188487492Y-111900726D01*
X188481458Y-111914189D01*
X188417394Y-112004946D01*
X188417387Y-112004956D01*
X188414952Y-112008407D01*
X188413003Y-112012168D01*
X188413002Y-112012170D01*
X188373656Y-112088104D01*
X188371120Y-112090752D01*
X188365514Y-112103343D01*
X188362337Y-112109946D01*
X188358001Y-112118315D01*
X188353060Y-112126980D01*
X188338407Y-112150430D01*
X188334598Y-112163483D01*
X188284982Y-112259237D01*
X188284977Y-112259246D01*
X188283033Y-112263000D01*
X188281615Y-112266988D01*
X188281614Y-112266992D01*
X188251925Y-112350528D01*
X188249188Y-112354304D01*
X188244424Y-112370919D01*
X188242065Y-112378272D01*
X188239534Y-112385392D01*
X188235977Y-112394293D01*
X188225275Y-112418330D01*
X188223460Y-112430619D01*
X188187009Y-112533185D01*
X188186146Y-112537335D01*
X188186145Y-112537341D01*
X188167467Y-112627224D01*
X188164803Y-112632211D01*
X188161966Y-112652400D01*
X188160578Y-112660379D01*
X188159296Y-112666546D01*
X188157088Y-112675485D01*
X188150263Y-112699287D01*
X188150160Y-112710510D01*
X188128670Y-112813928D01*
X188128381Y-112818152D01*
X188128380Y-112818160D01*
X188121898Y-112912920D01*
X188119605Y-112919126D01*
X188119605Y-112942215D01*
X188119316Y-112950683D01*
X188118924Y-112956410D01*
X188118006Y-112965198D01*
X188114814Y-112987908D01*
X188116091Y-112997820D01*
X188109102Y-113100000D01*
X97290898Y-113100000D01*
X97271330Y-112813928D01*
X97212991Y-112533185D01*
X97199868Y-112496261D01*
X97195423Y-112480532D01*
X97188446Y-112447708D01*
X97173220Y-112421281D01*
X97163628Y-112394293D01*
X97116967Y-112263000D01*
X97096933Y-112224336D01*
X97090508Y-112209697D01*
X97078984Y-112178036D01*
X97060807Y-112154616D01*
X97046487Y-112126980D01*
X96985048Y-112008407D01*
X96982605Y-112004946D01*
X96982599Y-112004936D01*
X96957384Y-111969215D01*
X96949202Y-111955921D01*
X96933336Y-111926081D01*
X96912743Y-111905974D01*
X96822140Y-111777619D01*
X96822135Y-111777613D01*
X96819690Y-111774149D01*
X96783889Y-111735815D01*
X96774195Y-111724064D01*
X96754285Y-111696661D01*
X96731844Y-111680088D01*
X96690058Y-111635346D01*
X96623975Y-111564588D01*
X96620693Y-111561918D01*
X96620690Y-111561915D01*
X96579767Y-111528622D01*
X96568824Y-111518572D01*
X96545277Y-111494189D01*
X96521571Y-111481276D01*
X96404837Y-111386307D01*
X96401547Y-111383630D01*
X96397923Y-111381426D01*
X96397920Y-111381424D01*
X96348940Y-111351639D01*
X96337026Y-111343404D01*
X96310322Y-111322541D01*
X96285925Y-111313318D01*
X96160168Y-111236844D01*
X96160166Y-111236843D01*
X96156550Y-111234644D01*
X96095808Y-111208260D01*
X96083209Y-111201913D01*
X96053921Y-111185003D01*
X96029398Y-111179414D01*
X95897429Y-111122091D01*
X95897419Y-111122087D01*
X95893548Y-111120406D01*
X95889461Y-111119261D01*
X95825219Y-111101261D01*
X95812223Y-111096830D01*
X95780982Y-111084207D01*
X95756878Y-111082112D01*
X95621518Y-111044186D01*
X95621509Y-111044184D01*
X95617440Y-111043044D01*
X95613253Y-111042468D01*
X95613246Y-111042467D01*
X95542393Y-111032729D01*
X95529280Y-111030201D01*
X95496763Y-111022093D01*
X95473571Y-111023269D01*
X95337570Y-111004577D01*
X95337566Y-111004576D01*
X95333370Y-111004000D01*
X95252725Y-111004000D01*
X95239764Y-111003321D01*
X95206686Y-110999844D01*
X95184845Y-111004000D01*
X95046630Y-111004000D01*
X95042433Y-111004576D01*
X95042430Y-111004577D01*
X94961824Y-111015656D01*
X94949267Y-111016735D01*
X94916353Y-111017884D01*
X94896237Y-111024670D01*
X94766753Y-111042467D01*
X94766743Y-111042469D01*
X94762560Y-111043044D01*
X94758493Y-111044183D01*
X94758481Y-111044186D01*
X94675241Y-111067509D01*
X94663320Y-111070223D01*
X94631296Y-111075869D01*
X94613221Y-111084885D01*
X94490533Y-111119261D01*
X94490512Y-111119268D01*
X94486452Y-111120406D01*
X94482582Y-111122086D01*
X94482565Y-111122093D01*
X94398526Y-111158597D01*
X94387444Y-111162794D01*
X94356995Y-111172687D01*
X94341189Y-111183502D01*
X94227328Y-111232959D01*
X94227321Y-111232962D01*
X94223450Y-111234644D01*
X94219839Y-111236839D01*
X94219831Y-111236844D01*
X94137015Y-111287206D01*
X94126946Y-111292708D01*
X94098721Y-111306474D01*
X94085336Y-111318632D01*
X94078910Y-111322541D01*
X93982073Y-111381428D01*
X93982066Y-111381432D01*
X93978453Y-111383630D01*
X93975165Y-111386304D01*
X93975162Y-111386307D01*
X93915983Y-111434452D01*
X93915491Y-111434658D01*
X93910927Y-111438566D01*
X93895783Y-111450886D01*
X93886871Y-111457496D01*
X93861435Y-111474652D01*
X93850535Y-111487698D01*
X93759309Y-111561915D01*
X93759298Y-111561924D01*
X93756025Y-111564588D01*
X93753137Y-111567679D01*
X93753133Y-111567684D01*
X93698979Y-111625669D01*
X93697612Y-111626477D01*
X93694305Y-111630418D01*
X93689941Y-111635346D01*
X93679475Y-111646552D01*
X93671827Y-111654062D01*
X93649668Y-111674014D01*
X93641247Y-111687485D01*
X93563205Y-111771048D01*
X93563197Y-111771057D01*
X93560310Y-111774149D01*
X93557870Y-111777605D01*
X93557864Y-111777613D01*
X93510340Y-111844939D01*
X93508275Y-111846576D01*
X93503111Y-111854841D01*
X93499259Y-111860637D01*
X93492330Y-111870453D01*
X93486017Y-111878648D01*
X93467492Y-111900726D01*
X93461458Y-111914189D01*
X93397394Y-112004946D01*
X93397387Y-112004956D01*
X93394952Y-112008407D01*
X93393003Y-112012168D01*
X93393002Y-112012170D01*
X93353656Y-112088104D01*
X93351120Y-112090752D01*
X93345514Y-112103343D01*
X93342337Y-112109946D01*
X93338001Y-112118315D01*
X93333060Y-112126980D01*
X93318407Y-112150430D01*
X93314598Y-112163483D01*
X93264982Y-112259237D01*
X93264977Y-112259246D01*
X93263033Y-112263000D01*
X93261615Y-112266988D01*
X93261614Y-112266992D01*
X93231925Y-112350528D01*
X93229188Y-112354304D01*
X93224424Y-112370919D01*
X93222065Y-112378272D01*
X93219534Y-112385392D01*
X93215977Y-112394293D01*
X93205275Y-112418330D01*
X93203460Y-112430619D01*
X93167009Y-112533185D01*
X93166146Y-112537335D01*
X93166145Y-112537341D01*
X93147467Y-112627224D01*
X93144803Y-112632211D01*
X93141966Y-112652400D01*
X93140578Y-112660379D01*
X93139296Y-112666546D01*
X93137088Y-112675485D01*
X93130263Y-112699287D01*
X93130160Y-112710510D01*
X93108670Y-112813928D01*
X93108381Y-112818152D01*
X93108380Y-112818160D01*
X93101898Y-112912920D01*
X93099605Y-112919126D01*
X93099605Y-112942215D01*
X93099316Y-112950683D01*
X93098924Y-112956410D01*
X93098006Y-112965198D01*
X93094814Y-112987908D01*
X93096091Y-112997820D01*
X93089102Y-113100000D01*
X91200566Y-113100000D01*
X91200500Y-113097128D01*
X91200500Y-100100698D01*
X126970560Y-100100698D01*
X126976727Y-100160716D01*
X126977376Y-100173366D01*
X126977389Y-100241400D01*
X126983830Y-100283017D01*
X126980882Y-100305205D01*
X126990467Y-100335430D01*
X126994808Y-100353945D01*
X126999594Y-100384868D01*
X127000403Y-100391159D01*
X127001871Y-100405449D01*
X127017282Y-100437275D01*
X127021740Y-100451333D01*
X127022290Y-100476951D01*
X127034484Y-100498668D01*
X127037441Y-100504264D01*
X127051391Y-100532380D01*
X127058511Y-100550010D01*
X127065245Y-100571247D01*
X127083291Y-100596671D01*
X127102011Y-100634399D01*
X127141051Y-100689788D01*
X127147819Y-100700515D01*
X127172071Y-100743707D01*
X127195987Y-100767713D01*
X127829895Y-101666897D01*
X127836248Y-101685539D01*
X127870234Y-101725101D01*
X127877517Y-101734449D01*
X127879114Y-101736714D01*
X127918514Y-101792699D01*
X127945046Y-101819869D01*
X127953182Y-101835199D01*
X127977101Y-101854138D01*
X127988842Y-101864719D01*
X128019054Y-101895658D01*
X128067770Y-101931765D01*
X128079746Y-101947604D01*
X128102230Y-101959263D01*
X128118978Y-101969719D01*
X128134666Y-101981346D01*
X128136840Y-101982957D01*
X128152961Y-101993382D01*
X128162309Y-102000784D01*
X128191668Y-102010904D01*
X128205425Y-102018038D01*
X128221608Y-102033543D01*
X128242041Y-102039574D01*
X128259837Y-102046738D01*
X128262413Y-102047588D01*
X128262416Y-102047590D01*
X128280956Y-102053711D01*
X128299157Y-102061378D01*
X128314169Y-102069162D01*
X128341477Y-102073695D01*
X128399064Y-102092710D01*
X128441768Y-102099577D01*
X128457180Y-102103077D01*
X128479269Y-102109597D01*
X128503618Y-102109525D01*
X128541143Y-102115560D01*
X128612290Y-102115500D01*
X128624224Y-102116067D01*
X128667671Y-102120236D01*
X128695204Y-102115500D01*
X131022802Y-102115500D01*
X131032802Y-102115500D01*
X133360234Y-102115500D01*
X133379260Y-102121086D01*
X133431515Y-102116072D01*
X133443451Y-102115505D01*
X133514659Y-102115565D01*
X133551986Y-102109561D01*
X133569233Y-102111748D01*
X133598561Y-102103091D01*
X133613974Y-102099591D01*
X133656738Y-102092714D01*
X133694010Y-102080407D01*
X133714216Y-102073736D01*
X133734082Y-102073073D01*
X133756594Y-102061400D01*
X133774797Y-102053732D01*
X133793387Y-102047595D01*
X133793391Y-102047592D01*
X133795877Y-102046772D01*
X133813809Y-102039554D01*
X133825257Y-102036174D01*
X133850457Y-102018001D01*
X133864072Y-102010941D01*
X133886082Y-102006645D01*
X133902799Y-101993409D01*
X133919025Y-101982916D01*
X133936872Y-101969688D01*
X133953628Y-101959227D01*
X133968663Y-101951430D01*
X133988122Y-101931702D01*
X134036750Y-101895661D01*
X134067024Y-101864658D01*
X134078762Y-101854079D01*
X134096871Y-101839740D01*
X134110875Y-101819752D01*
X134137289Y-101792703D01*
X134178294Y-101734434D01*
X134185583Y-101725080D01*
X134214052Y-101691942D01*
X134226060Y-101666678D01*
X134860408Y-100766869D01*
X134879002Y-100752104D01*
X134907846Y-100700750D01*
X134915570Y-100688687D01*
X134927570Y-100672135D01*
X134928230Y-100670642D01*
X134939931Y-100654025D01*
X134939933Y-100654026D01*
X134939964Y-100653971D01*
X134953771Y-100634383D01*
X134972771Y-100596089D01*
X134987885Y-100579740D01*
X134997403Y-100549726D01*
X135004519Y-100532104D01*
X135015335Y-100510307D01*
X135015336Y-100510301D01*
X135017890Y-100505156D01*
X135020854Y-100499548D01*
X135028194Y-100486479D01*
X135033925Y-100451679D01*
X135038607Y-100436916D01*
X135052909Y-100415678D01*
X135055528Y-100390155D01*
X135056340Y-100383842D01*
X135057201Y-100378280D01*
X135057202Y-100378277D01*
X135060921Y-100354249D01*
X135065262Y-100335737D01*
X135071943Y-100314666D01*
X135071849Y-100283649D01*
X135078389Y-100241398D01*
X135078400Y-100173582D01*
X135079048Y-100160959D01*
X135084095Y-100111778D01*
X135078401Y-100078487D01*
X135078401Y-98790792D01*
X135084211Y-98771003D01*
X135079181Y-98726356D01*
X135078401Y-98712472D01*
X135078401Y-98694783D01*
X135078400Y-98694775D01*
X135078400Y-98626308D01*
X135065382Y-98560863D01*
X135066623Y-98546988D01*
X135060228Y-98528711D01*
X135055652Y-98511947D01*
X135043795Y-98452338D01*
X135043794Y-98452335D01*
X135043794Y-98452334D01*
X135009733Y-98370104D01*
X135008145Y-98355336D01*
X135000418Y-98343038D01*
X134990855Y-98324528D01*
X134975913Y-98288454D01*
X134916583Y-98199660D01*
X134911674Y-98183984D01*
X134903537Y-98175847D01*
X134888116Y-98157057D01*
X134877364Y-98140965D01*
X134876704Y-98140305D01*
X134859392Y-98118597D01*
X134858863Y-98117755D01*
X134838984Y-98102584D01*
X134790313Y-98053913D01*
X134781712Y-98038161D01*
X134774301Y-98033505D01*
X134752593Y-98016193D01*
X134751936Y-98015536D01*
X134751932Y-98015533D01*
X134735839Y-98004780D01*
X134717051Y-97989361D01*
X134713994Y-97986304D01*
X134693239Y-97976316D01*
X134604447Y-97916988D01*
X134568379Y-97902048D01*
X134549865Y-97892483D01*
X134543137Y-97888255D01*
X134522793Y-97883165D01*
X134440565Y-97849105D01*
X134380954Y-97837247D01*
X134364192Y-97832672D01*
X134351830Y-97828346D01*
X134332051Y-97827520D01*
X134271619Y-97815500D01*
X134266592Y-97814500D01*
X134180421Y-97814500D01*
X134166539Y-97813720D01*
X134131230Y-97809741D01*
X134102048Y-97814500D01*
X127953709Y-97814500D01*
X127933915Y-97808687D01*
X127889255Y-97813720D01*
X127875371Y-97814500D01*
X127863368Y-97814500D01*
X127863360Y-97814501D01*
X127789210Y-97814501D01*
X127784188Y-97815500D01*
X127723772Y-97827517D01*
X127709894Y-97826274D01*
X127691606Y-97832674D01*
X127674845Y-97837249D01*
X127615236Y-97849106D01*
X127533003Y-97883167D01*
X127518235Y-97884754D01*
X127505935Y-97892483D01*
X127487418Y-97902049D01*
X127451353Y-97916987D01*
X127362559Y-97976318D01*
X127346882Y-97981226D01*
X127338744Y-97989365D01*
X127319957Y-98004783D01*
X127303868Y-98015533D01*
X127303209Y-98016193D01*
X127281505Y-98033500D01*
X127280664Y-98034028D01*
X127265491Y-98053910D01*
X127216814Y-98102587D01*
X127201061Y-98111188D01*
X127196404Y-98118601D01*
X127179097Y-98140305D01*
X127178434Y-98140967D01*
X127167684Y-98157056D01*
X127152266Y-98175843D01*
X127149205Y-98178903D01*
X127139219Y-98199658D01*
X127079888Y-98288453D01*
X127064950Y-98324518D01*
X127055384Y-98343034D01*
X127051154Y-98349765D01*
X127046066Y-98370108D01*
X127012006Y-98452335D01*
X127000148Y-98511947D01*
X126995574Y-98528705D01*
X126991245Y-98541075D01*
X126990419Y-98560861D01*
X126977401Y-98626310D01*
X126977401Y-98712479D01*
X126976621Y-98726361D01*
X126972642Y-98761669D01*
X126977401Y-98790852D01*
X126977401Y-100077402D01*
X126970560Y-100100698D01*
X91200500Y-100100698D01*
X91200500Y-86130000D01*
X118074655Y-86130000D01*
X118074881Y-86133736D01*
X118074881Y-86133737D01*
X118082401Y-86258067D01*
X118081284Y-86262939D01*
X118083564Y-86281346D01*
X118084277Y-86289091D01*
X118084799Y-86297715D01*
X118085026Y-86305207D01*
X118085026Y-86319713D01*
X118086455Y-86325089D01*
X118093788Y-86446326D01*
X118093789Y-86446338D01*
X118094015Y-86450066D01*
X118094688Y-86453740D01*
X118094690Y-86453754D01*
X118117701Y-86579322D01*
X118117101Y-86585050D01*
X118122197Y-86605312D01*
X118123913Y-86613215D01*
X118125570Y-86622261D01*
X118126658Y-86629359D01*
X118128116Y-86641136D01*
X118129799Y-86645334D01*
X118141859Y-86711146D01*
X118151814Y-86765466D01*
X118152929Y-86769045D01*
X118152931Y-86769052D01*
X118191832Y-86893890D01*
X118191939Y-86900408D01*
X118200264Y-86921897D01*
X118203023Y-86929801D01*
X118206072Y-86939586D01*
X118207940Y-86946226D01*
X118210119Y-86954891D01*
X118211786Y-86957923D01*
X118246096Y-87068028D01*
X118246099Y-87068035D01*
X118247209Y-87071598D01*
X118248742Y-87075004D01*
X118303701Y-87197119D01*
X118304694Y-87204312D01*
X118316507Y-87226310D01*
X118320336Y-87234080D01*
X118325223Y-87244938D01*
X118327774Y-87251035D01*
X118329803Y-87256274D01*
X118331193Y-87258203D01*
X118378809Y-87364000D01*
X118380748Y-87367208D01*
X118380751Y-87367213D01*
X118451641Y-87484481D01*
X118453682Y-87492212D01*
X118469125Y-87514028D01*
X118474031Y-87521517D01*
X118481336Y-87533600D01*
X118484467Y-87539091D01*
X118485366Y-87540765D01*
X118486235Y-87541706D01*
X118542756Y-87635203D01*
X118542760Y-87635208D01*
X118544694Y-87638408D01*
X118569415Y-87669962D01*
X118633472Y-87751725D01*
X118636697Y-87759824D01*
X118655770Y-87780746D01*
X118661743Y-87787810D01*
X118672207Y-87801166D01*
X118674280Y-87803949D01*
X118674596Y-87804216D01*
X118740131Y-87887865D01*
X118740134Y-87887868D01*
X118742446Y-87890819D01*
X118745098Y-87893471D01*
X118745099Y-87893472D01*
X118846471Y-87994844D01*
X118850988Y-88003117D01*
X118873585Y-88022477D01*
X118880589Y-88028961D01*
X118969181Y-88117554D01*
X118972131Y-88119865D01*
X118972132Y-88119866D01*
X119087469Y-88210227D01*
X119093358Y-88218466D01*
X119119250Y-88235622D01*
X119127225Y-88241373D01*
X119191323Y-88291591D01*
X119215452Y-88310496D01*
X119221592Y-88315306D01*
X119224796Y-88317243D01*
X119224802Y-88317247D01*
X119352901Y-88394685D01*
X119360203Y-88402659D01*
X119389066Y-88417031D01*
X119397939Y-88421911D01*
X119496000Y-88481191D01*
X119638826Y-88545472D01*
X119647558Y-88552954D01*
X119679003Y-88564035D01*
X119688683Y-88567911D01*
X119784995Y-88611258D01*
X119785000Y-88611259D01*
X119788402Y-88612791D01*
X119791971Y-88613903D01*
X119791976Y-88613905D01*
X119878359Y-88640823D01*
X119926685Y-88655882D01*
X119940979Y-88660336D01*
X119951100Y-88667078D01*
X119984612Y-88674418D01*
X119994974Y-88677161D01*
X120094534Y-88708186D01*
X120098223Y-88708862D01*
X120254872Y-88737569D01*
X120266320Y-88743339D01*
X120301362Y-88746586D01*
X120312272Y-88748087D01*
X120409934Y-88765985D01*
X120575828Y-88776019D01*
X120588499Y-88780587D01*
X120624481Y-88779479D01*
X120635780Y-88779645D01*
X120730000Y-88785345D01*
X120899099Y-88775116D01*
X120912851Y-88778266D01*
X120949142Y-88772633D01*
X120960659Y-88771392D01*
X121050066Y-88765985D01*
X121219849Y-88734871D01*
X121234504Y-88736406D01*
X121270455Y-88726177D01*
X121282028Y-88723476D01*
X121365466Y-88708186D01*
X121533314Y-88655881D01*
X121548670Y-88655628D01*
X121583649Y-88640823D01*
X121595069Y-88636638D01*
X121671598Y-88612791D01*
X121834856Y-88539313D01*
X121850682Y-88537127D01*
X121884041Y-88517867D01*
X121895142Y-88512181D01*
X121964000Y-88481191D01*
X122119959Y-88386910D01*
X122135985Y-88382678D01*
X122167103Y-88359180D01*
X122177682Y-88352016D01*
X122235197Y-88317247D01*
X122235195Y-88317247D01*
X122238408Y-88315306D01*
X122384406Y-88200922D01*
X122400355Y-88194571D01*
X122428653Y-88167132D01*
X122438493Y-88158548D01*
X122490819Y-88117554D01*
X122624251Y-87984121D01*
X122639832Y-87975613D01*
X122664787Y-87944602D01*
X122673705Y-87934667D01*
X122717554Y-87890819D01*
X122835914Y-87739743D01*
X122850827Y-87729082D01*
X122871958Y-87694956D01*
X122879769Y-87683766D01*
X122915306Y-87638408D01*
X123016261Y-87471406D01*
X123030202Y-87458639D01*
X123047103Y-87421904D01*
X123053632Y-87409587D01*
X123081191Y-87364000D01*
X123162607Y-87183099D01*
X123175272Y-87168320D01*
X123187609Y-87129542D01*
X123192699Y-87116241D01*
X123211255Y-87075011D01*
X123211258Y-87075004D01*
X123212791Y-87071598D01*
X123272773Y-86879108D01*
X123283871Y-86862448D01*
X123291389Y-86822231D01*
X123294887Y-86808142D01*
X123308186Y-86765466D01*
X123365985Y-86450066D01*
X123385345Y-86130000D01*
X123365985Y-85809934D01*
X123308186Y-85494534D01*
X123294891Y-85451869D01*
X123291390Y-85437772D01*
X123285116Y-85404210D01*
X123272775Y-85380898D01*
X123268166Y-85366108D01*
X123230955Y-85246693D01*
X123213905Y-85191976D01*
X123213903Y-85191971D01*
X123212791Y-85188402D01*
X123211257Y-85184995D01*
X123211255Y-85184988D01*
X123192701Y-85143763D01*
X123187611Y-85130462D01*
X123177268Y-85097951D01*
X123162608Y-85076901D01*
X123139658Y-85025908D01*
X123081191Y-84896000D01*
X123077054Y-84889157D01*
X123053639Y-84850422D01*
X123047106Y-84838100D01*
X123032873Y-84807165D01*
X123016263Y-84788596D01*
X122915306Y-84621592D01*
X122879777Y-84576243D01*
X122871962Y-84565049D01*
X122854089Y-84536184D01*
X122835913Y-84520255D01*
X122818726Y-84498318D01*
X122717554Y-84369181D01*
X122673714Y-84325341D01*
X122664790Y-84315400D01*
X122643595Y-84289061D01*
X122624249Y-84275876D01*
X122493472Y-84145099D01*
X122490819Y-84142446D01*
X122487871Y-84140136D01*
X122487865Y-84140131D01*
X122438505Y-84101460D01*
X122428659Y-84092871D01*
X122404522Y-84069467D01*
X122384407Y-84059077D01*
X122296442Y-83990161D01*
X122238408Y-83944694D01*
X122235203Y-83942756D01*
X122235198Y-83942753D01*
X122177684Y-83907984D01*
X122167109Y-83900823D01*
X122140454Y-83880695D01*
X122119959Y-83873089D01*
X121967205Y-83780746D01*
X121967198Y-83780742D01*
X121964000Y-83778809D01*
X121960582Y-83777270D01*
X121960577Y-83777268D01*
X121895154Y-83747823D01*
X121884046Y-83742135D01*
X121855358Y-83725572D01*
X121834859Y-83720687D01*
X121675004Y-83648741D01*
X121674991Y-83648736D01*
X121671598Y-83647209D01*
X121668030Y-83646097D01*
X121668027Y-83646096D01*
X121595101Y-83623371D01*
X121583660Y-83619179D01*
X121553451Y-83606392D01*
X121533315Y-83604117D01*
X121369052Y-83552931D01*
X121369045Y-83552929D01*
X121365466Y-83551814D01*
X121361784Y-83551139D01*
X121361779Y-83551138D01*
X121282044Y-83536526D01*
X121270463Y-83533824D01*
X121239291Y-83524955D01*
X121219850Y-83525128D01*
X121053754Y-83494690D01*
X121053740Y-83494688D01*
X121050066Y-83494015D01*
X121046338Y-83493789D01*
X121046326Y-83493788D01*
X120960681Y-83488608D01*
X120949148Y-83487367D01*
X120917557Y-83482463D01*
X120899100Y-83484883D01*
X120733737Y-83474881D01*
X120733736Y-83474881D01*
X120730000Y-83474655D01*
X120700118Y-83476462D01*
X120635798Y-83480353D01*
X120624493Y-83480520D01*
X120593044Y-83479551D01*
X120575830Y-83483980D01*
X120413672Y-83493788D01*
X120413657Y-83493789D01*
X120409934Y-83494015D01*
X120406261Y-83494687D01*
X120406245Y-83494690D01*
X120312291Y-83511908D01*
X120301382Y-83513410D01*
X120270634Y-83516259D01*
X120254876Y-83522430D01*
X120098220Y-83551138D01*
X120098211Y-83551140D01*
X120094534Y-83551814D01*
X119994977Y-83582837D01*
X119984621Y-83585579D01*
X119955113Y-83592041D01*
X119940981Y-83599663D01*
X119791971Y-83646096D01*
X119791958Y-83646100D01*
X119788402Y-83647209D01*
X119785004Y-83648738D01*
X119784989Y-83648744D01*
X119688686Y-83692086D01*
X119679010Y-83695961D01*
X119651213Y-83705756D01*
X119638828Y-83714526D01*
X119499422Y-83777268D01*
X119499410Y-83777274D01*
X119496000Y-83778809D01*
X119492807Y-83780738D01*
X119492794Y-83780746D01*
X119397958Y-83838077D01*
X119389081Y-83842960D01*
X119363471Y-83855712D01*
X119352904Y-83865313D01*
X119282318Y-83907984D01*
X119221592Y-83944694D01*
X119218652Y-83946996D01*
X119218635Y-83947009D01*
X119127240Y-84018612D01*
X119119264Y-84024366D01*
X119096207Y-84039644D01*
X119087471Y-84049770D01*
X118972141Y-84140125D01*
X118972121Y-84140142D01*
X118969181Y-84142446D01*
X118966535Y-84145091D01*
X118966536Y-84145091D01*
X118880596Y-84231031D01*
X118873593Y-84237514D01*
X118853407Y-84254807D01*
X118846473Y-84265153D01*
X118742446Y-84369181D01*
X118740143Y-84372119D01*
X118740131Y-84372134D01*
X118674596Y-84455783D01*
X118674346Y-84455961D01*
X118672206Y-84458834D01*
X118661748Y-84472182D01*
X118655778Y-84479243D01*
X118638676Y-84498003D01*
X118633473Y-84508273D01*
X118547003Y-84618644D01*
X118546998Y-84618650D01*
X118544694Y-84621592D01*
X118542765Y-84624782D01*
X118542756Y-84624796D01*
X118486236Y-84718293D01*
X118485517Y-84718950D01*
X118484458Y-84720924D01*
X118481334Y-84726402D01*
X118474037Y-84738473D01*
X118469128Y-84745967D01*
X118455240Y-84765585D01*
X118451643Y-84775517D01*
X118380746Y-84892794D01*
X118380738Y-84892807D01*
X118378809Y-84896000D01*
X118377280Y-84899396D01*
X118377267Y-84899422D01*
X118331193Y-85001795D01*
X118330021Y-85003162D01*
X118327769Y-85008975D01*
X118325222Y-85015062D01*
X118320341Y-85025908D01*
X118316510Y-85033682D01*
X118305853Y-85053526D01*
X118303702Y-85062880D01*
X118248741Y-85184995D01*
X118248733Y-85185014D01*
X118247209Y-85188402D01*
X118246099Y-85191964D01*
X118246096Y-85191972D01*
X118211786Y-85302075D01*
X118210334Y-85304253D01*
X118207939Y-85313777D01*
X118206072Y-85320415D01*
X118203026Y-85330191D01*
X118200266Y-85338097D01*
X118192732Y-85357544D01*
X118191833Y-85366108D01*
X118179960Y-85404210D01*
X118151814Y-85494534D01*
X118151140Y-85498211D01*
X118151138Y-85498220D01*
X118129799Y-85614664D01*
X118128259Y-85617718D01*
X118126659Y-85630640D01*
X118125567Y-85637754D01*
X118123910Y-85646794D01*
X118122198Y-85654679D01*
X118117574Y-85673063D01*
X118117702Y-85680676D01*
X118094690Y-85806246D01*
X118094690Y-85806249D01*
X118094015Y-85809934D01*
X118093789Y-85813659D01*
X118093788Y-85813673D01*
X118086455Y-85934910D01*
X118085025Y-85938873D01*
X118085026Y-85954792D01*
X118084799Y-85962286D01*
X118084277Y-85970908D01*
X118083564Y-85978650D01*
X118081490Y-85995393D01*
X118082401Y-86001931D01*
X118074881Y-86126262D01*
X118074655Y-86130000D01*
X91200500Y-86130000D01*
X91200500Y-80427813D01*
X129612071Y-80427813D01*
X129612099Y-80430156D01*
X129612099Y-80430158D01*
X129618292Y-80948181D01*
X129618293Y-80948201D01*
X129618321Y-80950541D01*
X129618526Y-80952870D01*
X129618527Y-80952887D01*
X129663372Y-81462077D01*
X129664184Y-81471292D01*
X129664564Y-81473598D01*
X129664567Y-81473614D01*
X129748638Y-81982484D01*
X129749395Y-81987066D01*
X129749952Y-81989349D01*
X129749953Y-81989350D01*
X129871788Y-82488030D01*
X129873466Y-82494896D01*
X129874198Y-82497139D01*
X129874199Y-82497142D01*
X129998972Y-82879398D01*
X130035681Y-82991858D01*
X130036576Y-82994027D01*
X130036578Y-82994032D01*
X130231377Y-83466054D01*
X130235107Y-83475090D01*
X130236167Y-83477191D01*
X130236168Y-83477193D01*
X130468148Y-83936962D01*
X130470596Y-83941812D01*
X130471811Y-83943824D01*
X130471813Y-83943828D01*
X130739572Y-84387319D01*
X130739579Y-84387330D01*
X130740791Y-84389337D01*
X131044139Y-84815089D01*
X131045649Y-84816901D01*
X131045652Y-84816904D01*
X131373168Y-85209751D01*
X131378893Y-85216617D01*
X131380538Y-85218311D01*
X131380542Y-85218315D01*
X131741481Y-85589918D01*
X131741488Y-85589925D01*
X131743125Y-85591610D01*
X131744886Y-85593167D01*
X131744890Y-85593171D01*
X131810376Y-85651079D01*
X132134739Y-85937908D01*
X132551481Y-86253519D01*
X132990952Y-86536627D01*
X132993013Y-86537743D01*
X132993021Y-86537748D01*
X133183903Y-86641136D01*
X133450622Y-86785600D01*
X133927846Y-86999007D01*
X134419875Y-87175618D01*
X134923878Y-87314417D01*
X135436954Y-87414605D01*
X135956149Y-87475605D01*
X136478474Y-87497067D01*
X137000924Y-87478866D01*
X137520489Y-87421108D01*
X138034180Y-87324124D01*
X138539040Y-87188474D01*
X139032163Y-87014937D01*
X139510709Y-86804514D01*
X139971924Y-86558415D01*
X140413154Y-86278056D01*
X140831858Y-85965052D01*
X141215554Y-85630000D01*
X147254008Y-85630000D01*
X147274132Y-85872860D01*
X147274132Y-85872862D01*
X147274133Y-85872866D01*
X147333958Y-86109107D01*
X147333959Y-86109110D01*
X147382904Y-86220692D01*
X147431850Y-86332279D01*
X147565141Y-86536295D01*
X147726102Y-86711146D01*
X147730196Y-86715593D01*
X147821372Y-86786558D01*
X147922505Y-86865273D01*
X148136831Y-86981260D01*
X148367325Y-87060389D01*
X148607700Y-87100500D01*
X148851398Y-87100500D01*
X149091773Y-87060389D01*
X149322267Y-86981260D01*
X149536593Y-86865273D01*
X149728905Y-86715590D01*
X149893957Y-86536295D01*
X150027248Y-86332279D01*
X150125140Y-86109107D01*
X150184965Y-85872866D01*
X150205089Y-85630000D01*
X150184965Y-85387134D01*
X150125140Y-85150893D01*
X150027248Y-84927721D01*
X149893957Y-84723705D01*
X149728905Y-84544410D01*
X149728903Y-84544409D01*
X149728901Y-84544406D01*
X149600696Y-84444621D01*
X149536593Y-84394727D01*
X149322267Y-84278740D01*
X149322266Y-84278739D01*
X149322265Y-84278739D01*
X149091774Y-84199611D01*
X148851398Y-84159500D01*
X148607700Y-84159500D01*
X148367323Y-84199611D01*
X148136832Y-84278739D01*
X148019103Y-84342450D01*
X147922505Y-84394727D01*
X147922503Y-84394728D01*
X147922502Y-84394729D01*
X147730196Y-84544406D01*
X147582356Y-84705004D01*
X147565141Y-84723705D01*
X147450800Y-84898716D01*
X147431849Y-84927723D01*
X147333959Y-85150889D01*
X147333957Y-85150893D01*
X147333958Y-85150893D01*
X147281627Y-85357544D01*
X147274132Y-85387139D01*
X147254008Y-85630000D01*
X141215554Y-85630000D01*
X141225626Y-85621205D01*
X141592192Y-85248493D01*
X141929445Y-84849063D01*
X142235444Y-84425213D01*
X142508428Y-83979383D01*
X142746825Y-83514140D01*
X142949264Y-83032161D01*
X143114578Y-82536222D01*
X143241816Y-82029177D01*
X143330246Y-81513944D01*
X143379358Y-80993490D01*
X143388870Y-80470810D01*
X143385990Y-80420947D01*
X154612092Y-80420947D01*
X154612120Y-80423290D01*
X154612120Y-80423292D01*
X154618313Y-80941315D01*
X154618314Y-80941335D01*
X154618342Y-80943675D01*
X154618547Y-80946004D01*
X154618548Y-80946021D01*
X154662164Y-81441255D01*
X154664205Y-81464426D01*
X154664585Y-81466732D01*
X154664588Y-81466748D01*
X154749033Y-81977883D01*
X154749416Y-81980200D01*
X154873487Y-82488030D01*
X154874219Y-82490273D01*
X154874220Y-82490276D01*
X154966980Y-82774457D01*
X155035702Y-82984992D01*
X155036597Y-82987161D01*
X155036599Y-82987166D01*
X155155094Y-83274294D01*
X155235128Y-83468224D01*
X155236188Y-83470325D01*
X155236189Y-83470327D01*
X155430638Y-83855712D01*
X155470617Y-83934946D01*
X155471832Y-83936958D01*
X155471834Y-83936962D01*
X155739593Y-84380453D01*
X155739600Y-84380464D01*
X155740812Y-84382471D01*
X156044160Y-84808223D01*
X156045670Y-84810035D01*
X156045673Y-84810038D01*
X156364094Y-85191976D01*
X156378914Y-85209751D01*
X156380559Y-85211445D01*
X156380563Y-85211449D01*
X156741502Y-85583052D01*
X156741509Y-85583059D01*
X156743146Y-85584744D01*
X156744907Y-85586301D01*
X156744911Y-85586305D01*
X156901097Y-85724417D01*
X157134760Y-85931042D01*
X157551502Y-86246653D01*
X157990973Y-86529761D01*
X157993034Y-86530877D01*
X157993042Y-86530882D01*
X158204351Y-86645334D01*
X158450643Y-86778734D01*
X158927867Y-86992141D01*
X159419896Y-87168752D01*
X159923899Y-87307551D01*
X160436975Y-87407739D01*
X160956170Y-87468739D01*
X161478495Y-87490201D01*
X162000945Y-87472000D01*
X162520510Y-87414242D01*
X163034201Y-87317258D01*
X163539061Y-87181608D01*
X164032184Y-87008071D01*
X164510730Y-86797648D01*
X164971945Y-86551549D01*
X165413175Y-86271190D01*
X165831879Y-85958186D01*
X166225647Y-85614339D01*
X166592213Y-85241627D01*
X166929466Y-84842197D01*
X167235465Y-84418347D01*
X167508449Y-83972517D01*
X167746846Y-83507274D01*
X167949285Y-83025295D01*
X168114599Y-82529356D01*
X168241837Y-82022311D01*
X168330267Y-81507078D01*
X168379379Y-80986624D01*
X168384190Y-80722283D01*
X175895259Y-80722283D01*
X175914448Y-81161793D01*
X175914920Y-81167186D01*
X175972342Y-81603352D01*
X175973278Y-81608660D01*
X176068501Y-82038185D01*
X176069895Y-82043387D01*
X176202189Y-82462969D01*
X176204036Y-82468044D01*
X176372388Y-82874480D01*
X176374681Y-82879398D01*
X176577813Y-83269612D01*
X176580516Y-83274294D01*
X176816884Y-83645317D01*
X176819993Y-83649758D01*
X177087800Y-83998770D01*
X177091279Y-84002916D01*
X177221261Y-84144764D01*
X178424236Y-82941789D01*
X178415686Y-82971840D01*
X178426035Y-83083521D01*
X178476029Y-83183922D01*
X178558915Y-83259484D01*
X178663501Y-83300000D01*
X178747383Y-83300000D01*
X178779052Y-83294079D01*
X177574814Y-84498318D01*
X177716664Y-84628301D01*
X177720810Y-84631780D01*
X178069822Y-84899587D01*
X178074263Y-84902696D01*
X178445286Y-85139064D01*
X178449968Y-85141767D01*
X178840182Y-85344899D01*
X178845100Y-85347192D01*
X179251536Y-85515544D01*
X179256611Y-85517391D01*
X179676193Y-85649685D01*
X179681395Y-85651079D01*
X180110920Y-85746302D01*
X180116228Y-85747238D01*
X180552394Y-85804660D01*
X180557787Y-85805132D01*
X180997297Y-85824322D01*
X181002703Y-85824322D01*
X181442212Y-85805132D01*
X181447605Y-85804660D01*
X181883771Y-85747238D01*
X181889079Y-85746302D01*
X182318604Y-85651079D01*
X182323806Y-85649685D01*
X182743388Y-85517391D01*
X182748463Y-85515544D01*
X183154899Y-85347192D01*
X183159817Y-85344899D01*
X183550031Y-85141767D01*
X183554713Y-85139064D01*
X183925736Y-84902696D01*
X183930177Y-84899587D01*
X184279189Y-84631780D01*
X184283335Y-84628301D01*
X184425183Y-84498319D01*
X184425183Y-84498318D01*
X183226865Y-83300000D01*
X183308221Y-83300000D01*
X183390669Y-83284588D01*
X183486029Y-83225543D01*
X183553620Y-83136038D01*
X183584314Y-83028160D01*
X183576366Y-82942393D01*
X184778737Y-84144764D01*
X184778738Y-84144764D01*
X184908720Y-84002916D01*
X184912199Y-83998770D01*
X185180006Y-83649758D01*
X185183115Y-83645317D01*
X185419483Y-83274294D01*
X185422186Y-83269612D01*
X185625318Y-82879398D01*
X185627611Y-82874480D01*
X185795963Y-82468044D01*
X185797810Y-82462969D01*
X185930104Y-82043387D01*
X185931498Y-82038185D01*
X186026721Y-81608660D01*
X186027657Y-81603352D01*
X186085079Y-81167186D01*
X186085551Y-81161793D01*
X186104740Y-80722283D01*
X186104740Y-80716878D01*
X186085551Y-80277368D01*
X186085079Y-80271975D01*
X186027657Y-79835809D01*
X186026721Y-79830501D01*
X185931498Y-79400976D01*
X185930104Y-79395774D01*
X185797810Y-78976192D01*
X185795963Y-78971117D01*
X185627611Y-78564681D01*
X185625318Y-78559763D01*
X185422187Y-78169552D01*
X185419486Y-78164874D01*
X185183103Y-77793826D01*
X185180013Y-77789413D01*
X184912199Y-77440391D01*
X184908720Y-77436245D01*
X184778736Y-77294395D01*
X183575765Y-78497365D01*
X183584314Y-78467322D01*
X183573965Y-78355641D01*
X183523971Y-78255240D01*
X183441085Y-78179678D01*
X183336499Y-78139162D01*
X183252617Y-78139162D01*
X183220943Y-78145082D01*
X184425184Y-76940842D01*
X184283335Y-76810860D01*
X184279189Y-76807381D01*
X183930177Y-76539574D01*
X183925736Y-76536465D01*
X183554713Y-76300097D01*
X183550031Y-76297394D01*
X183159817Y-76094262D01*
X183154899Y-76091969D01*
X182748463Y-75923617D01*
X182743388Y-75921770D01*
X182323806Y-75789476D01*
X182318604Y-75788082D01*
X181889079Y-75692859D01*
X181883771Y-75691923D01*
X181447605Y-75634501D01*
X181442212Y-75634029D01*
X181002703Y-75614840D01*
X180997297Y-75614840D01*
X180557787Y-75634029D01*
X180552394Y-75634501D01*
X180116228Y-75691923D01*
X180110920Y-75692859D01*
X179681395Y-75788082D01*
X179676193Y-75789476D01*
X179256611Y-75921770D01*
X179251536Y-75923617D01*
X178845100Y-76091969D01*
X178840182Y-76094262D01*
X178449971Y-76297393D01*
X178445293Y-76300094D01*
X178074245Y-76536477D01*
X178069832Y-76539567D01*
X177720802Y-76807387D01*
X177716666Y-76810858D01*
X177574814Y-76940842D01*
X178773134Y-78139162D01*
X178691779Y-78139162D01*
X178609331Y-78154574D01*
X178513971Y-78213619D01*
X178446380Y-78303124D01*
X178415686Y-78411002D01*
X178423633Y-78496767D01*
X177221261Y-77294395D01*
X177091277Y-77436247D01*
X177087806Y-77440383D01*
X176819986Y-77789413D01*
X176816896Y-77793826D01*
X176580513Y-78164874D01*
X176577812Y-78169552D01*
X176374681Y-78559763D01*
X176372388Y-78564681D01*
X176204036Y-78971117D01*
X176202189Y-78976192D01*
X176069895Y-79395774D01*
X176068501Y-79400976D01*
X175973278Y-79830501D01*
X175972342Y-79835809D01*
X175914920Y-80271975D01*
X175914448Y-80277368D01*
X175895259Y-80716878D01*
X175895259Y-80722283D01*
X168384190Y-80722283D01*
X168388891Y-80463944D01*
X168358748Y-79942048D01*
X168289125Y-79423939D01*
X168180420Y-78912600D01*
X168033261Y-78410974D01*
X167848494Y-77921949D01*
X167627183Y-77448339D01*
X167370601Y-76992872D01*
X167080227Y-76558169D01*
X167065646Y-76539567D01*
X166759177Y-76148577D01*
X166759176Y-76148576D01*
X166757730Y-76146731D01*
X166404969Y-75760929D01*
X166403264Y-75759327D01*
X166403257Y-75759320D01*
X166127239Y-75500000D01*
X166023973Y-75402981D01*
X166022155Y-75401516D01*
X166022146Y-75401508D01*
X165618764Y-75076424D01*
X165616935Y-75074950D01*
X165615017Y-75073630D01*
X165615005Y-75073622D01*
X165198118Y-74786920D01*
X165186198Y-74778722D01*
X164734243Y-74516004D01*
X164732408Y-74515095D01*
X164732389Y-74515085D01*
X164500001Y-74400000D01*
X164499998Y-74399999D01*
X158538761Y-74381394D01*
X158305658Y-74495026D01*
X158305626Y-74495042D01*
X158303796Y-74495935D01*
X158302014Y-74496955D01*
X158301997Y-74496965D01*
X157852261Y-74754651D01*
X157852244Y-74754661D01*
X157850210Y-74755827D01*
X157848268Y-74757144D01*
X157848250Y-74757156D01*
X157419582Y-75048037D01*
X157419573Y-75048043D01*
X157417633Y-75049360D01*
X157415800Y-75050817D01*
X157415791Y-75050825D01*
X157010405Y-75373371D01*
X157010388Y-75373385D01*
X157008555Y-75374844D01*
X157006835Y-75376439D01*
X157006815Y-75376457D01*
X156627070Y-75728793D01*
X156625332Y-75730406D01*
X156623745Y-75732119D01*
X156623726Y-75732139D01*
X156271756Y-76112284D01*
X156271744Y-76112297D01*
X156270169Y-76113999D01*
X156268731Y-76115810D01*
X156268720Y-76115823D01*
X155946567Y-76521581D01*
X155946555Y-76521596D01*
X155945111Y-76523416D01*
X155943801Y-76525350D01*
X155943795Y-76525359D01*
X155653343Y-76954356D01*
X155653333Y-76954371D01*
X155652029Y-76956298D01*
X155650872Y-76958321D01*
X155650864Y-76958335D01*
X155393779Y-77408106D01*
X155393766Y-77408130D01*
X155392609Y-77410155D01*
X155391605Y-77412267D01*
X155391594Y-77412290D01*
X155169353Y-77880251D01*
X155169341Y-77880278D01*
X155168346Y-77882374D01*
X155167513Y-77884537D01*
X155167503Y-77884561D01*
X154981375Y-78368039D01*
X154981368Y-78368057D01*
X154980530Y-78370236D01*
X154979853Y-78372488D01*
X154979851Y-78372497D01*
X154830922Y-78868669D01*
X154830918Y-78868682D01*
X154830243Y-78870933D01*
X154829740Y-78873227D01*
X154829737Y-78873240D01*
X154718855Y-79379273D01*
X154718349Y-79381584D01*
X154718021Y-79383909D01*
X154718020Y-79383919D01*
X154645819Y-79896923D01*
X154645492Y-79899249D01*
X154645342Y-79901589D01*
X154645342Y-79901591D01*
X154642162Y-79951269D01*
X154612092Y-80420947D01*
X143385990Y-80420947D01*
X143358727Y-79948914D01*
X143289104Y-79430805D01*
X143180399Y-78919466D01*
X143033240Y-78417840D01*
X142848473Y-77928815D01*
X142627162Y-77455205D01*
X142370580Y-76999738D01*
X142080206Y-76565035D01*
X142074824Y-76558169D01*
X141759156Y-76155443D01*
X141759155Y-76155442D01*
X141757709Y-76153597D01*
X141404948Y-75767795D01*
X141403243Y-75766193D01*
X141403236Y-75766186D01*
X141025661Y-75411453D01*
X141023952Y-75409847D01*
X141022134Y-75408382D01*
X141022125Y-75408374D01*
X140618743Y-75083290D01*
X140616914Y-75081816D01*
X140614996Y-75080496D01*
X140614984Y-75080488D01*
X140380156Y-74918992D01*
X140186177Y-74785588D01*
X139734222Y-74522870D01*
X139732387Y-74521961D01*
X139732368Y-74521951D01*
X139499980Y-74406866D01*
X139499977Y-74406865D01*
X133538740Y-74388260D01*
X133305637Y-74501892D01*
X133305605Y-74501908D01*
X133303775Y-74502801D01*
X133301993Y-74503821D01*
X133301976Y-74503831D01*
X132852240Y-74761517D01*
X132852223Y-74761527D01*
X132850189Y-74762693D01*
X132848247Y-74764010D01*
X132848229Y-74764022D01*
X132419561Y-75054903D01*
X132419552Y-75054909D01*
X132417612Y-75056226D01*
X132415779Y-75057683D01*
X132415770Y-75057691D01*
X132010384Y-75380237D01*
X132010367Y-75380251D01*
X132008534Y-75381710D01*
X132006814Y-75383305D01*
X132006794Y-75383323D01*
X131632711Y-75730406D01*
X131625311Y-75737272D01*
X131623724Y-75738985D01*
X131623705Y-75739005D01*
X131271735Y-76119150D01*
X131271723Y-76119163D01*
X131270148Y-76120865D01*
X131268710Y-76122676D01*
X131268699Y-76122689D01*
X130946546Y-76528447D01*
X130946534Y-76528462D01*
X130945090Y-76530282D01*
X130943780Y-76532216D01*
X130943774Y-76532225D01*
X130653322Y-76961222D01*
X130653312Y-76961237D01*
X130652008Y-76963164D01*
X130650851Y-76965187D01*
X130650843Y-76965201D01*
X130393758Y-77414972D01*
X130393745Y-77414996D01*
X130392588Y-77417021D01*
X130391584Y-77419133D01*
X130391573Y-77419156D01*
X130169332Y-77887117D01*
X130169320Y-77887144D01*
X130168325Y-77889240D01*
X130167492Y-77891403D01*
X130167482Y-77891427D01*
X129981354Y-78374905D01*
X129981347Y-78374923D01*
X129980509Y-78377102D01*
X129979832Y-78379354D01*
X129979830Y-78379363D01*
X129830901Y-78875535D01*
X129830897Y-78875548D01*
X129830222Y-78877799D01*
X129829719Y-78880093D01*
X129829716Y-78880106D01*
X129718834Y-79386139D01*
X129718328Y-79388450D01*
X129718000Y-79390775D01*
X129717999Y-79390785D01*
X129645798Y-79903789D01*
X129645471Y-79906115D01*
X129645321Y-79908455D01*
X129645321Y-79908457D01*
X129612511Y-80420947D01*
X129612071Y-80427813D01*
X91200500Y-80427813D01*
X91200500Y-68102869D01*
X91200566Y-68100000D01*
X93089102Y-68100000D01*
X93089391Y-68104225D01*
X93096091Y-68202178D01*
X93094460Y-68209564D01*
X93098006Y-68234795D01*
X93098924Y-68243591D01*
X93099316Y-68249322D01*
X93099605Y-68257784D01*
X93099604Y-68278647D01*
X93101898Y-68287078D01*
X93108380Y-68381840D01*
X93108381Y-68381847D01*
X93108670Y-68386072D01*
X93109534Y-68390228D01*
X93130160Y-68489488D01*
X93129474Y-68497959D01*
X93137087Y-68524507D01*
X93139299Y-68533467D01*
X93140584Y-68539653D01*
X93141969Y-68547613D01*
X93144540Y-68565907D01*
X93147467Y-68572774D01*
X93167009Y-68666815D01*
X93168427Y-68670804D01*
X93168430Y-68670815D01*
X93203460Y-68769378D01*
X93203985Y-68778771D01*
X93215975Y-68805701D01*
X93219535Y-68814610D01*
X93222069Y-68821740D01*
X93224425Y-68829083D01*
X93228757Y-68844191D01*
X93231925Y-68849471D01*
X93263033Y-68937000D01*
X93264980Y-68940758D01*
X93264982Y-68940762D01*
X93314597Y-69036515D01*
X93316566Y-69046622D01*
X93333057Y-69073012D01*
X93338003Y-69081686D01*
X93342344Y-69090066D01*
X93345518Y-69096663D01*
X93350622Y-69108127D01*
X93353655Y-69111894D01*
X93394952Y-69191593D01*
X93397391Y-69195048D01*
X93397400Y-69195063D01*
X93461456Y-69285809D01*
X93465066Y-69296382D01*
X93486013Y-69321346D01*
X93492323Y-69329538D01*
X93499256Y-69339359D01*
X93503113Y-69345160D01*
X93507810Y-69352677D01*
X93510340Y-69355060D01*
X93560310Y-69425851D01*
X93563203Y-69428949D01*
X93563205Y-69428951D01*
X93641246Y-69512513D01*
X93646648Y-69523264D01*
X93671819Y-69545928D01*
X93679473Y-69553444D01*
X93689953Y-69564666D01*
X93694315Y-69569592D01*
X93697274Y-69573119D01*
X93698978Y-69574330D01*
X93735443Y-69613374D01*
X93756025Y-69635412D01*
X93850534Y-69712300D01*
X93857829Y-69722912D01*
X93886860Y-69742494D01*
X93895772Y-69749105D01*
X93910937Y-69761442D01*
X93915346Y-69765216D01*
X93915982Y-69765546D01*
X93978453Y-69816370D01*
X93982079Y-69818575D01*
X94085331Y-69881364D01*
X94094559Y-69891494D01*
X94126936Y-69907286D01*
X94137005Y-69912788D01*
X94187884Y-69943728D01*
X94223450Y-69965356D01*
X94341186Y-70016496D01*
X94352334Y-70025798D01*
X94387439Y-70037204D01*
X94398516Y-70041397D01*
X94457142Y-70066863D01*
X94473658Y-70074037D01*
X94486452Y-70079594D01*
X94490523Y-70080734D01*
X94490527Y-70080736D01*
X94490531Y-70080737D01*
X94613218Y-70115112D01*
X94626201Y-70123229D01*
X94663303Y-70129772D01*
X94675225Y-70132486D01*
X94710325Y-70142320D01*
X94762560Y-70156956D01*
X94896236Y-70175329D01*
X94910919Y-70181924D01*
X94949254Y-70183263D01*
X94961808Y-70184341D01*
X95046630Y-70196000D01*
X95050868Y-70196000D01*
X95184846Y-70196000D01*
X95201025Y-70200750D01*
X95239766Y-70196679D01*
X95252728Y-70196000D01*
X95329132Y-70196000D01*
X95333370Y-70196000D01*
X95473569Y-70176730D01*
X95490988Y-70179345D01*
X95529271Y-70169800D01*
X95542378Y-70167272D01*
X95617440Y-70156956D01*
X95756878Y-70117887D01*
X95775230Y-70118115D01*
X95812214Y-70103172D01*
X95825208Y-70098741D01*
X95893548Y-70079594D01*
X96029398Y-70020585D01*
X96048333Y-70018222D01*
X96083208Y-69998087D01*
X96095808Y-69991740D01*
X96095967Y-69991670D01*
X96156550Y-69965356D01*
X96285926Y-69886680D01*
X96305047Y-69881578D01*
X96337016Y-69856601D01*
X96348924Y-69848370D01*
X96401547Y-69816370D01*
X96521570Y-69718723D01*
X96540460Y-69710796D01*
X96568813Y-69681436D01*
X96579747Y-69671393D01*
X96623975Y-69635412D01*
X96731843Y-69519911D01*
X96750074Y-69509133D01*
X96774191Y-69475939D01*
X96783880Y-69464193D01*
X96819690Y-69425851D01*
X96912741Y-69294027D01*
X96929865Y-69280445D01*
X96949200Y-69244081D01*
X96957372Y-69230800D01*
X96985048Y-69191593D01*
X97060806Y-69045385D01*
X97076378Y-69029121D01*
X97086978Y-69000000D01*
X117000000Y-69000000D01*
X117000000Y-75500000D01*
X127000000Y-75500000D01*
X127000000Y-69000000D01*
X145750000Y-69000000D01*
X145750000Y-75500000D01*
X152750000Y-75500000D01*
X152750000Y-69000000D01*
X145750000Y-69000000D01*
X127000000Y-69000000D01*
X117000000Y-69000000D01*
X97086978Y-69000000D01*
X97090506Y-68990306D01*
X97096931Y-68975668D01*
X97115015Y-68940767D01*
X97116967Y-68937000D01*
X97173218Y-68778722D01*
X97186815Y-68759959D01*
X97195422Y-68719470D01*
X97199866Y-68703744D01*
X97212991Y-68666815D01*
X97271330Y-68386072D01*
X97290898Y-68100000D01*
X188109102Y-68100000D01*
X188109391Y-68104225D01*
X188116091Y-68202178D01*
X188114460Y-68209564D01*
X188118006Y-68234795D01*
X188118924Y-68243591D01*
X188119316Y-68249322D01*
X188119605Y-68257784D01*
X188119605Y-68278647D01*
X188121898Y-68287078D01*
X188128380Y-68381840D01*
X188128381Y-68381847D01*
X188128670Y-68386072D01*
X188129534Y-68390228D01*
X188150160Y-68489488D01*
X188149474Y-68497959D01*
X188157087Y-68524507D01*
X188159299Y-68533467D01*
X188160584Y-68539653D01*
X188161969Y-68547613D01*
X188164540Y-68565907D01*
X188167467Y-68572774D01*
X188187009Y-68666815D01*
X188188427Y-68670804D01*
X188188430Y-68670815D01*
X188223460Y-68769378D01*
X188223985Y-68778771D01*
X188235975Y-68805701D01*
X188239535Y-68814610D01*
X188242069Y-68821740D01*
X188244425Y-68829083D01*
X188248757Y-68844191D01*
X188251925Y-68849471D01*
X188283033Y-68937000D01*
X188284980Y-68940758D01*
X188284982Y-68940762D01*
X188334597Y-69036515D01*
X188336566Y-69046622D01*
X188353057Y-69073012D01*
X188358003Y-69081686D01*
X188362344Y-69090066D01*
X188365518Y-69096663D01*
X188370622Y-69108127D01*
X188373655Y-69111894D01*
X188414952Y-69191593D01*
X188417391Y-69195048D01*
X188417400Y-69195063D01*
X188481456Y-69285809D01*
X188485066Y-69296382D01*
X188506013Y-69321346D01*
X188512323Y-69329538D01*
X188519256Y-69339359D01*
X188523113Y-69345160D01*
X188527810Y-69352677D01*
X188530340Y-69355060D01*
X188580310Y-69425851D01*
X188583203Y-69428949D01*
X188583205Y-69428951D01*
X188661246Y-69512513D01*
X188666648Y-69523264D01*
X188691819Y-69545928D01*
X188699473Y-69553444D01*
X188709953Y-69564666D01*
X188714315Y-69569592D01*
X188717274Y-69573119D01*
X188718978Y-69574330D01*
X188755443Y-69613374D01*
X188776025Y-69635412D01*
X188870534Y-69712300D01*
X188877829Y-69722912D01*
X188906860Y-69742494D01*
X188915772Y-69749105D01*
X188930937Y-69761442D01*
X188935346Y-69765216D01*
X188935982Y-69765546D01*
X188998453Y-69816370D01*
X189002079Y-69818575D01*
X189105331Y-69881364D01*
X189114559Y-69891494D01*
X189146936Y-69907286D01*
X189157005Y-69912788D01*
X189207884Y-69943728D01*
X189243450Y-69965356D01*
X189361186Y-70016496D01*
X189372334Y-70025798D01*
X189407439Y-70037204D01*
X189418516Y-70041397D01*
X189477142Y-70066863D01*
X189493658Y-70074037D01*
X189506452Y-70079594D01*
X189510523Y-70080734D01*
X189510527Y-70080736D01*
X189510531Y-70080737D01*
X189633218Y-70115112D01*
X189646201Y-70123229D01*
X189683303Y-70129772D01*
X189695225Y-70132486D01*
X189730325Y-70142320D01*
X189782560Y-70156956D01*
X189916236Y-70175329D01*
X189930919Y-70181924D01*
X189969254Y-70183263D01*
X189981808Y-70184341D01*
X190066630Y-70196000D01*
X190070868Y-70196000D01*
X190204846Y-70196000D01*
X190221025Y-70200750D01*
X190259766Y-70196679D01*
X190272728Y-70196000D01*
X190349132Y-70196000D01*
X190353370Y-70196000D01*
X190493569Y-70176730D01*
X190510988Y-70179345D01*
X190549271Y-70169800D01*
X190562378Y-70167272D01*
X190637440Y-70156956D01*
X190776878Y-70117887D01*
X190795230Y-70118115D01*
X190832214Y-70103172D01*
X190845208Y-70098741D01*
X190913548Y-70079594D01*
X191049398Y-70020585D01*
X191068333Y-70018222D01*
X191103208Y-69998087D01*
X191115808Y-69991740D01*
X191115967Y-69991670D01*
X191176550Y-69965356D01*
X191305926Y-69886680D01*
X191325047Y-69881578D01*
X191357016Y-69856601D01*
X191368924Y-69848370D01*
X191421547Y-69816370D01*
X191541570Y-69718723D01*
X191560460Y-69710796D01*
X191588813Y-69681436D01*
X191599747Y-69671393D01*
X191643975Y-69635412D01*
X191751843Y-69519911D01*
X191770074Y-69509133D01*
X191794191Y-69475939D01*
X191803880Y-69464193D01*
X191839690Y-69425851D01*
X191932741Y-69294027D01*
X191949865Y-69280445D01*
X191969200Y-69244081D01*
X191977372Y-69230800D01*
X192005048Y-69191593D01*
X192080806Y-69045385D01*
X192096378Y-69029121D01*
X192110506Y-68990306D01*
X192116931Y-68975668D01*
X192135015Y-68940767D01*
X192136967Y-68937000D01*
X192193218Y-68778722D01*
X192206815Y-68759959D01*
X192215422Y-68719470D01*
X192219866Y-68703744D01*
X192232991Y-68666815D01*
X192291330Y-68386072D01*
X192310898Y-68100000D01*
X192291330Y-67813928D01*
X192232991Y-67533185D01*
X192219868Y-67496261D01*
X192215423Y-67480532D01*
X192208446Y-67447708D01*
X192193220Y-67421281D01*
X192183628Y-67394293D01*
X192136967Y-67263000D01*
X192116933Y-67224336D01*
X192110508Y-67209697D01*
X192098984Y-67178036D01*
X192080807Y-67154616D01*
X192066487Y-67126980D01*
X192005048Y-67008407D01*
X192002605Y-67004946D01*
X192002599Y-67004936D01*
X191977384Y-66969215D01*
X191969202Y-66955921D01*
X191953336Y-66926081D01*
X191932743Y-66905974D01*
X191842140Y-66777619D01*
X191842135Y-66777613D01*
X191839690Y-66774149D01*
X191803889Y-66735815D01*
X191794195Y-66724064D01*
X191774285Y-66696661D01*
X191751844Y-66680088D01*
X191710058Y-66635346D01*
X191643975Y-66564588D01*
X191640693Y-66561918D01*
X191640690Y-66561915D01*
X191599767Y-66528622D01*
X191588824Y-66518572D01*
X191565277Y-66494189D01*
X191541571Y-66481276D01*
X191424837Y-66386307D01*
X191421547Y-66383630D01*
X191417923Y-66381426D01*
X191417920Y-66381424D01*
X191368940Y-66351639D01*
X191357026Y-66343404D01*
X191330322Y-66322541D01*
X191305925Y-66313318D01*
X191180168Y-66236844D01*
X191180166Y-66236843D01*
X191176550Y-66234644D01*
X191115808Y-66208260D01*
X191103209Y-66201913D01*
X191073921Y-66185003D01*
X191049398Y-66179414D01*
X190917429Y-66122091D01*
X190917419Y-66122087D01*
X190913548Y-66120406D01*
X190909461Y-66119261D01*
X190845219Y-66101261D01*
X190832223Y-66096830D01*
X190800982Y-66084207D01*
X190776878Y-66082112D01*
X190641518Y-66044186D01*
X190641509Y-66044184D01*
X190637440Y-66043044D01*
X190633253Y-66042468D01*
X190633246Y-66042467D01*
X190562393Y-66032729D01*
X190549280Y-66030201D01*
X190516763Y-66022093D01*
X190493571Y-66023269D01*
X190357570Y-66004577D01*
X190357566Y-66004576D01*
X190353370Y-66004000D01*
X190272725Y-66004000D01*
X190259764Y-66003321D01*
X190226686Y-65999844D01*
X190204845Y-66004000D01*
X190066630Y-66004000D01*
X190062433Y-66004576D01*
X190062430Y-66004577D01*
X189981824Y-66015656D01*
X189969267Y-66016735D01*
X189936353Y-66017884D01*
X189916237Y-66024670D01*
X189786753Y-66042467D01*
X189786743Y-66042469D01*
X189782560Y-66043044D01*
X189778493Y-66044183D01*
X189778481Y-66044186D01*
X189695241Y-66067509D01*
X189683320Y-66070223D01*
X189651296Y-66075869D01*
X189633221Y-66084885D01*
X189510533Y-66119261D01*
X189510512Y-66119268D01*
X189506452Y-66120406D01*
X189502582Y-66122086D01*
X189502565Y-66122093D01*
X189418526Y-66158597D01*
X189407444Y-66162794D01*
X189376995Y-66172687D01*
X189361189Y-66183502D01*
X189247328Y-66232959D01*
X189247321Y-66232962D01*
X189243450Y-66234644D01*
X189239839Y-66236839D01*
X189239831Y-66236844D01*
X189157015Y-66287206D01*
X189146946Y-66292708D01*
X189118721Y-66306474D01*
X189105336Y-66318632D01*
X189098910Y-66322541D01*
X189002073Y-66381428D01*
X189002066Y-66381432D01*
X188998453Y-66383630D01*
X188995165Y-66386304D01*
X188995162Y-66386307D01*
X188935983Y-66434452D01*
X188935491Y-66434658D01*
X188930927Y-66438566D01*
X188915783Y-66450886D01*
X188906871Y-66457496D01*
X188881435Y-66474652D01*
X188870535Y-66487698D01*
X188779309Y-66561915D01*
X188779298Y-66561924D01*
X188776025Y-66564588D01*
X188773137Y-66567679D01*
X188773133Y-66567684D01*
X188718979Y-66625669D01*
X188717612Y-66626477D01*
X188714305Y-66630418D01*
X188709941Y-66635346D01*
X188699475Y-66646552D01*
X188691827Y-66654062D01*
X188669668Y-66674014D01*
X188661247Y-66687485D01*
X188583205Y-66771048D01*
X188583197Y-66771057D01*
X188580310Y-66774149D01*
X188577870Y-66777605D01*
X188577864Y-66777613D01*
X188530340Y-66844939D01*
X188528275Y-66846576D01*
X188523111Y-66854841D01*
X188519259Y-66860637D01*
X188512330Y-66870453D01*
X188506017Y-66878648D01*
X188487492Y-66900726D01*
X188481458Y-66914189D01*
X188417394Y-67004946D01*
X188417387Y-67004956D01*
X188414952Y-67008407D01*
X188413003Y-67012168D01*
X188413002Y-67012170D01*
X188373656Y-67088104D01*
X188371120Y-67090752D01*
X188365514Y-67103343D01*
X188362337Y-67109946D01*
X188358001Y-67118315D01*
X188353060Y-67126980D01*
X188338407Y-67150430D01*
X188334598Y-67163483D01*
X188284982Y-67259237D01*
X188284977Y-67259246D01*
X188283033Y-67263000D01*
X188281615Y-67266988D01*
X188281614Y-67266992D01*
X188251925Y-67350528D01*
X188249188Y-67354304D01*
X188244424Y-67370919D01*
X188242065Y-67378272D01*
X188239534Y-67385392D01*
X188235977Y-67394293D01*
X188225275Y-67418330D01*
X188223460Y-67430619D01*
X188187009Y-67533185D01*
X188186146Y-67537335D01*
X188186145Y-67537341D01*
X188167467Y-67627224D01*
X188164803Y-67632211D01*
X188161966Y-67652400D01*
X188160578Y-67660379D01*
X188159296Y-67666546D01*
X188157088Y-67675485D01*
X188150263Y-67699287D01*
X188150160Y-67710510D01*
X188145908Y-67730973D01*
X188128670Y-67813928D01*
X188128381Y-67818152D01*
X188128380Y-67818160D01*
X188121898Y-67912920D01*
X188119605Y-67919126D01*
X188119605Y-67942215D01*
X188119316Y-67950683D01*
X188118924Y-67956410D01*
X188118006Y-67965198D01*
X188114814Y-67987908D01*
X188116091Y-67997820D01*
X188109102Y-68100000D01*
X97290898Y-68100000D01*
X97271330Y-67813928D01*
X97212991Y-67533185D01*
X97199868Y-67496261D01*
X97195423Y-67480532D01*
X97188446Y-67447708D01*
X97173220Y-67421281D01*
X97163628Y-67394293D01*
X97116967Y-67263000D01*
X97096933Y-67224336D01*
X97090508Y-67209697D01*
X97078984Y-67178036D01*
X97060807Y-67154616D01*
X97046487Y-67126980D01*
X96985048Y-67008407D01*
X96982605Y-67004946D01*
X96982599Y-67004936D01*
X96957384Y-66969215D01*
X96949202Y-66955921D01*
X96933336Y-66926081D01*
X96912743Y-66905974D01*
X96822140Y-66777619D01*
X96822135Y-66777613D01*
X96819690Y-66774149D01*
X96783889Y-66735815D01*
X96774195Y-66724064D01*
X96754285Y-66696661D01*
X96731844Y-66680088D01*
X96690058Y-66635346D01*
X96623975Y-66564588D01*
X96620693Y-66561918D01*
X96620690Y-66561915D01*
X96579767Y-66528622D01*
X96568824Y-66518572D01*
X96545277Y-66494189D01*
X96521571Y-66481276D01*
X96404837Y-66386307D01*
X96401547Y-66383630D01*
X96397923Y-66381426D01*
X96397920Y-66381424D01*
X96348940Y-66351639D01*
X96337026Y-66343404D01*
X96310322Y-66322541D01*
X96285925Y-66313318D01*
X96160168Y-66236844D01*
X96160166Y-66236843D01*
X96156550Y-66234644D01*
X96095808Y-66208260D01*
X96083209Y-66201913D01*
X96053921Y-66185003D01*
X96029398Y-66179414D01*
X95897429Y-66122091D01*
X95897419Y-66122087D01*
X95893548Y-66120406D01*
X95889461Y-66119261D01*
X95825219Y-66101261D01*
X95812223Y-66096830D01*
X95780982Y-66084207D01*
X95756878Y-66082112D01*
X95621518Y-66044186D01*
X95621509Y-66044184D01*
X95617440Y-66043044D01*
X95613253Y-66042468D01*
X95613246Y-66042467D01*
X95542393Y-66032729D01*
X95529280Y-66030201D01*
X95496763Y-66022093D01*
X95473571Y-66023269D01*
X95337570Y-66004577D01*
X95337566Y-66004576D01*
X95333370Y-66004000D01*
X95252725Y-66004000D01*
X95239764Y-66003321D01*
X95206686Y-65999844D01*
X95184845Y-66004000D01*
X95046630Y-66004000D01*
X95042433Y-66004576D01*
X95042430Y-66004577D01*
X94961824Y-66015656D01*
X94949267Y-66016735D01*
X94916353Y-66017884D01*
X94896237Y-66024670D01*
X94766753Y-66042467D01*
X94766743Y-66042469D01*
X94762560Y-66043044D01*
X94758493Y-66044183D01*
X94758481Y-66044186D01*
X94675241Y-66067509D01*
X94663320Y-66070223D01*
X94631296Y-66075869D01*
X94613221Y-66084885D01*
X94490533Y-66119261D01*
X94490512Y-66119268D01*
X94486452Y-66120406D01*
X94482582Y-66122086D01*
X94482565Y-66122093D01*
X94398526Y-66158597D01*
X94387444Y-66162794D01*
X94356995Y-66172687D01*
X94341189Y-66183502D01*
X94227328Y-66232959D01*
X94227321Y-66232962D01*
X94223450Y-66234644D01*
X94219839Y-66236839D01*
X94219831Y-66236844D01*
X94137015Y-66287206D01*
X94126946Y-66292708D01*
X94098721Y-66306474D01*
X94085336Y-66318632D01*
X94078910Y-66322541D01*
X93982073Y-66381428D01*
X93982066Y-66381432D01*
X93978453Y-66383630D01*
X93975165Y-66386304D01*
X93975162Y-66386307D01*
X93915983Y-66434452D01*
X93915491Y-66434658D01*
X93910927Y-66438566D01*
X93895783Y-66450886D01*
X93886871Y-66457496D01*
X93861435Y-66474652D01*
X93850535Y-66487698D01*
X93759309Y-66561915D01*
X93759298Y-66561924D01*
X93756025Y-66564588D01*
X93753137Y-66567679D01*
X93753133Y-66567684D01*
X93698979Y-66625669D01*
X93697612Y-66626477D01*
X93694305Y-66630418D01*
X93689941Y-66635346D01*
X93679475Y-66646552D01*
X93671827Y-66654062D01*
X93649668Y-66674014D01*
X93641247Y-66687485D01*
X93563205Y-66771048D01*
X93563197Y-66771057D01*
X93560310Y-66774149D01*
X93557870Y-66777605D01*
X93557864Y-66777613D01*
X93510340Y-66844939D01*
X93508275Y-66846576D01*
X93503111Y-66854841D01*
X93499259Y-66860637D01*
X93492330Y-66870453D01*
X93486017Y-66878648D01*
X93467492Y-66900726D01*
X93461458Y-66914189D01*
X93397394Y-67004946D01*
X93397387Y-67004956D01*
X93394952Y-67008407D01*
X93393003Y-67012168D01*
X93393002Y-67012170D01*
X93353656Y-67088104D01*
X93351120Y-67090752D01*
X93345514Y-67103343D01*
X93342337Y-67109946D01*
X93338001Y-67118315D01*
X93333060Y-67126980D01*
X93318407Y-67150430D01*
X93314598Y-67163483D01*
X93264982Y-67259237D01*
X93264977Y-67259246D01*
X93263033Y-67263000D01*
X93261615Y-67266988D01*
X93261614Y-67266992D01*
X93231925Y-67350528D01*
X93229188Y-67354304D01*
X93224424Y-67370919D01*
X93222065Y-67378272D01*
X93219534Y-67385392D01*
X93215977Y-67394293D01*
X93205275Y-67418330D01*
X93203460Y-67430619D01*
X93167009Y-67533185D01*
X93166146Y-67537335D01*
X93166145Y-67537341D01*
X93147467Y-67627224D01*
X93144803Y-67632211D01*
X93141966Y-67652400D01*
X93140578Y-67660379D01*
X93139296Y-67666546D01*
X93137088Y-67675485D01*
X93130263Y-67699287D01*
X93130160Y-67710510D01*
X93125908Y-67730973D01*
X93108670Y-67813928D01*
X93108381Y-67818152D01*
X93108380Y-67818160D01*
X93101898Y-67912920D01*
X93099605Y-67919126D01*
X93099605Y-67942215D01*
X93099316Y-67950683D01*
X93098924Y-67956410D01*
X93098006Y-67965198D01*
X93094814Y-67987908D01*
X93096091Y-67997820D01*
X93089102Y-68100000D01*
X91200566Y-68100000D01*
X91200632Y-68097143D01*
X91200695Y-68095774D01*
X91208500Y-67926939D01*
X91218166Y-67730200D01*
X91219200Y-67719217D01*
X91244670Y-67536634D01*
X91245775Y-67529192D01*
X91271947Y-67352748D01*
X91273892Y-67342586D01*
X91316689Y-67160626D01*
X91361406Y-66982107D01*
X91364093Y-66972918D01*
X91423572Y-66795457D01*
X91424270Y-66793442D01*
X91485699Y-66621759D01*
X91488996Y-66613497D01*
X91564713Y-66442015D01*
X91566051Y-66439089D01*
X91643727Y-66274855D01*
X91647452Y-66267612D01*
X91738864Y-66103497D01*
X91740745Y-66100243D01*
X91834036Y-65944598D01*
X91838034Y-65938363D01*
X91944270Y-65783278D01*
X91946899Y-65779590D01*
X92054909Y-65633954D01*
X92059011Y-65628728D01*
X92179239Y-65483944D01*
X92182577Y-65480097D01*
X92304340Y-65345752D01*
X92308437Y-65341450D01*
X92441450Y-65208437D01*
X92445752Y-65204340D01*
X92580097Y-65082577D01*
X92583944Y-65079239D01*
X92728728Y-64959011D01*
X92733954Y-64954909D01*
X92879590Y-64846899D01*
X92883278Y-64844270D01*
X93038363Y-64738034D01*
X93044598Y-64734036D01*
X93200243Y-64640745D01*
X93203497Y-64638864D01*
X93367612Y-64547452D01*
X93374855Y-64543727D01*
X93539098Y-64466046D01*
X93542018Y-64464712D01*
X93606007Y-64436458D01*
X93713497Y-64388996D01*
X93721759Y-64385699D01*
X93893442Y-64324270D01*
X93895457Y-64323572D01*
X94072922Y-64264091D01*
X94082118Y-64261403D01*
X94260626Y-64216689D01*
X94442600Y-64173889D01*
X94452734Y-64171949D01*
X94636625Y-64144671D01*
X94819214Y-64119201D01*
X94830196Y-64118167D01*
X95026958Y-64108500D01*
X95188714Y-64101021D01*
X95197146Y-64100632D01*
X95202872Y-64100500D01*
X190197128Y-64100500D01*
X190202855Y-64100632D01*
G37*
%TD.AperFunction*%
%TD*%
M02*
